  0
SECTION
  2
HEADER
  9
$EXTMIN
 10
413.990
 20
481.794
  9
$EXTMAX
 10
487.807
 20
536.337
  9
$LIMMIN
 10
413.990
 20
481.794
  9
$LIMMAX
 10
487.807
 20
536.337
  0
ENDSEC
  0
SECTION
  2
TABLES
  0
TABLE
  2
LAYER
 70
    18
  0
LAYER
  2
0
 70
    64
 62
     7
  6
CONTINUOUS
  0
LAYER
  2
_BOARD
 70
    64
 62
    254
  6
CONTINUOUS
  0
LAYER
  2
_DRILL_TH
 70
    64
 62
    251
  6
CONTINUOUS
  0
LAYER
  2
_DRILL_TOPTOI1
 70
    64
 62
    251
  6
CONTINUOUS
  0
LAYER
  2
_DRILL_I2TOBOT
 70
    64
 62
    251
  6
CONTINUOUS
  0
ENDTAB
  0
ENDSEC
  0
SECTION
  2
BLOCKS
  0
BLOCK
  8
0
  2
_HOLE
 70
    64
 10
0.000
 20
0.000
  0
CIRCLE
  8
0
 10
0.000
 20
0.000
 40
0.500
  0
ENDBLK
  8
0
  0
ENDSEC
  0
SECTION
  2
ENTITIES
  0
POLYLINE
  8
_BOARD
 66
     1
 62
     3
 10
0.000
 20
0.000
 70
     1
 40
0.000
 41
0.000
  0
VERTEX
  8
_BOARD
 10
66.169
 20
1.127
 40
0.000
 41
0.000
  0
VERTEX
  8
_BOARD
 10
66.169
 20
2.667
  0
VERTEX
  8
_BOARD
 10
66.169
 20
2.667
 40
0.000
 41
0.000
  0
VERTEX
  8
_BOARD
 10
68.710
 20
5.207
  0
VERTEX
  8
_BOARD
 10
68.710
 20
5.207
 40
0.000
 41
0.000
  0
VERTEX
  8
_BOARD
 10
68.710
 20
38.227
  0
VERTEX
  8
_BOARD
 10
68.710
 20
38.227
 40
0.000
 41
0.000
  0
VERTEX
  8
_BOARD
 10
66.169
 20
40.767
  0
VERTEX
  8
_BOARD
 10
66.169
 20
40.767
 40
0.000
 41
0.000
  0
VERTEX
  8
_BOARD
 10
66.169
 20
52.197
  0
VERTEX
  8
_BOARD
 10
66.169
 20
52.197
 40
0.000
 41
0.000
  0
VERTEX
  8
_BOARD
 10
64.900
 20
53.467
  0
VERTEX
  8
_BOARD
 10
64.900
 20
53.467
 40
0.000
 41
0.000
  0
VERTEX
  8
_BOARD
 10
1.129
 20
53.467
  0
VERTEX
  8
_BOARD
 10
1.129
 20
53.467
 40
0.000
 41
0.000
 42
0.414
  0
VERTEX
  8
_BOARD
 10
0.130
 20
52.467
  0
VERTEX
  8
_BOARD
 10
0.130
 20
52.467
 40
0.000
 41
0.000
  0
VERTEX
  8
_BOARD
 10
0.130
 20
1.127
  0
VERTEX
  8
_BOARD
 10
0.130
 20
1.127
 40
0.000
 41
0.000
 42
0.414
  0
VERTEX
  8
_BOARD
 10
1.129
 20
0.127
  0
VERTEX
  8
_BOARD
 10
1.129
 20
0.127
 40
0.000
 41
0.000
  0
VERTEX
  8
_BOARD
 10
65.169
 20
0.127
  0
VERTEX
  8
_BOARD
 10
65.169
 20
0.127
 40
0.000
 41
0.000
 42
0.414
  0
VERTEX
  8
_BOARD
 10
66.169
 20
1.127
 40
0.000
 41
0.000
  0
VERTEX
  8
_BOARD
 10
66.169
 20
1.127
  0
SEQEND
  8
_BOARD
  0
INSERT
  8
_DRILL_TH
  2
_HOLE
 10
29.085
 20
30.375
 41
0.889
 42
0.889
  0
INSERT
  8
_DRILL_TH
  2
_HOLE
 10
29.085
 20
32.915
 41
0.889
 42
0.889
  0
INSERT
  8
_DRILL_TH
  2
_HOLE
 10
29.085
 20
35.455
 41
0.889
 42
0.889
  0
INSERT
  8
_DRILL_TH
  2
_HOLE
 10
29.085
 20
37.995
 41
0.889
 42
0.889
  0
INSERT
  8
_DRILL_TH
  2
_HOLE
 10
29.085
 20
40.535
 41
0.889
 42
0.889
  0
INSERT
  8
_DRILL_TH
  2
_HOLE
 10
31.625
 20
40.535
 41
0.889
 42
0.889
  0
INSERT
  8
_DRILL_TH
  2
_HOLE
 10
31.625
 20
37.995
 41
0.889
 42
0.889
  0
INSERT
  8
_DRILL_TH
  2
_HOLE
 10
31.625
 20
35.455
 41
0.889
 42
0.889
  0
INSERT
  8
_DRILL_TH
  2
_HOLE
 10
31.625
 20
32.915
 41
0.889
 42
0.889
  0
INSERT
  8
_DRILL_TH
  2
_HOLE
 10
31.625
 20
30.375
 41
0.889
 42
0.889
  0
INSERT
  8
_DRILL_TH
  2
_HOLE
 10
23.955
 20
48.075
 41
0.889
 42
0.889
  0
INSERT
  8
_DRILL_TH
  2
_HOLE
 10
21.415
 20
48.075
 41
0.889
 42
0.889
  0
INSERT
  8
_DRILL_TH
  2
_HOLE
 10
18.875
 20
48.075
 41
0.889
 42
0.889
  0
INSERT
  8
_DRILL_TH
  2
_HOLE
 10
63.630
 20
25.990
 41
0.889
 42
0.889
  0
INSERT
  8
_DRILL_TH
  2
_HOLE
 10
63.630
 20
28.530
 41
0.889
 42
0.889
  0
INSERT
  8
_DRILL_TH
  2
_HOLE
 10
63.630
 20
31.070
 41
0.889
 42
0.889
  0
INSERT
  8
_DRILL_TH
  2
_HOLE
 10
63.630
 20
33.610
 41
0.889
 42
0.889
  0
INSERT
  8
_DRILL_TH
  2
_HOLE
 10
63.630
 20
36.150
 41
0.889
 42
0.889
  0
INSERT
  8
_DRILL_TH
  2
_HOLE
 10
66.640
 20
25.990
 41
0.889
 42
0.889
  0
INSERT
  8
_DRILL_TH
  2
_HOLE
 10
66.640
 20
28.530
 41
0.889
 42
0.889
  0
INSERT
  8
_DRILL_TH
  2
_HOLE
 10
66.640
 20
31.070
 41
0.889
 42
0.889
  0
INSERT
  8
_DRILL_TH
  2
_HOLE
 10
66.640
 20
33.610
 41
0.889
 42
0.889
  0
INSERT
  8
_DRILL_TH
  2
_HOLE
 10
66.640
 20
36.150
 41
0.889
 42
0.889
  0
INSERT
  8
_DRILL_TH
  2
_HOLE
 10
2.680
 20
51.200
 41
1.000
 42
1.000
  0
INSERT
  8
_DRILL_TH
  2
_HOLE
 10
9.180
 20
51.200
 41
1.000
 42
1.000
  0
INSERT
  8
_DRILL_TH
  2
_HOLE
 10
9.180
 20
46.700
 41
1.000
 42
1.000
  0
INSERT
  8
_DRILL_TH
  2
_HOLE
 10
2.680
 20
46.700
 41
1.000
 42
1.000
  0
INSERT
  8
_DRILL_TH
  2
_HOLE
 10
4.475
 20
34.200
 41
1.300
 42
1.300
  0
INSERT
  8
_DRILL_TH
  2
_HOLE
 10
4.475
 20
42.650
 41
1.300
 42
1.300
  0
INSERT
  8
_DRILL_TH
  2
_HOLE
 10
6.225
 20
34.200
 41
1.300
 42
1.300
  0
INSERT
  8
_DRILL_TH
  2
_HOLE
 10
6.225
 20
42.650
 41
1.300
 42
1.300
  0
INSERT
  8
_DRILL_TH
  2
_HOLE
 10
7.925
 20
34.825
 41
1.150
 42
1.150
  0
INSERT
  8
_DRILL_TH
  2
_HOLE
 10
7.925
 20
42.025
 41
1.150
 42
1.150
  0
INSERT
  8
_DRILL_TH
  2
_HOLE
 10
36.706
 20
51.037
 41
0.889
 42
0.889
  0
INSERT
  8
_DRILL_TH
  2
_HOLE
 10
39.245
 20
51.037
 41
0.889
 42
0.889
  0
INSERT
  8
_DRILL_TH
  2
_HOLE
 10
41.785
 20
51.037
 41
0.889
 42
0.889
  0
INSERT
  8
_DRILL_TH
  2
_HOLE
 10
34.166
 20
51.037
 41
0.889
 42
0.889
  0
INSERT
  8
_DRILL_TH
  2
_HOLE
 10
31.625
 20
51.037
 41
0.889
 42
0.889
  0
INSERT
  8
_DRILL_TH
  2
_HOLE
 10
29.085
 20
51.037
 41
0.889
 42
0.889
  0
INSERT
  8
_DRILL_TH
  2
_HOLE
 10
26.546
 20
51.037
 41
0.889
 42
0.889
  0
INSERT
  8
_DRILL_TH
  2
_HOLE
 10
24.006
 20
51.037
 41
0.889
 42
0.889
  0
INSERT
  8
_DRILL_TH
  2
_HOLE
 10
21.465
 20
51.037
 41
0.889
 42
0.889
  0
INSERT
  8
_DRILL_TH
  2
_HOLE
 10
18.925
 20
51.037
 41
0.889
 42
0.889
  0
INSERT
  8
_DRILL_TH
  2
_HOLE
 10
63.529
 20
2.607
 41
0.889
 42
0.889
  0
INSERT
  8
_DRILL_TH
  2
_HOLE
 10
60.989
 20
2.607
 41
0.889
 42
0.889
  0
INSERT
  8
_DRILL_TH
  2
_HOLE
 10
58.450
 20
2.607
 41
0.889
 42
0.889
  0
INSERT
  8
_DRILL_TH
  2
_HOLE
 10
55.910
 20
2.607
 41
0.889
 42
0.889
  0
INSERT
  8
_DRILL_TH
  2
_HOLE
 10
53.370
 20
2.607
 41
0.889
 42
0.889
  0
INSERT
  8
_DRILL_TH
  2
_HOLE
 10
50.830
 20
2.607
 41
0.889
 42
0.889
  0
INSERT
  8
_DRILL_TH
  2
_HOLE
 10
45.900
 20
2.607
 41
0.889
 42
0.889
  0
INSERT
  8
_DRILL_TH
  2
_HOLE
 10
43.359
 20
2.607
 41
0.889
 42
0.889
  0
INSERT
  8
_DRILL_TH
  2
_HOLE
 10
40.819
 20
2.607
 41
0.889
 42
0.889
  0
INSERT
  8
_DRILL_TH
  2
_HOLE
 10
38.279
 20
2.607
 41
0.889
 42
0.889
  0
INSERT
  8
_DRILL_TH
  2
_HOLE
 10
35.739
 20
2.607
 41
0.889
 42
0.889
  0
INSERT
  8
_DRILL_TH
  2
_HOLE
 10
33.200
 20
2.607
 41
0.889
 42
0.889
  0
INSERT
  8
_DRILL_TH
  2
_HOLE
 10
30.660
 20
2.607
 41
0.889
 42
0.889
  0
INSERT
  8
_DRILL_TH
  2
_HOLE
 10
28.119
 20
2.607
 41
0.889
 42
0.889
  0
INSERT
  8
_DRILL_TH
  2
_HOLE
 10
63.650
 20
51.000
 41
0.889
 42
0.889
  0
INSERT
  8
_DRILL_TH
  2
_HOLE
 10
61.110
 20
51.000
 41
0.889
 42
0.889
  0
INSERT
  8
_DRILL_TH
  2
_HOLE
 10
58.570
 20
51.000
 41
0.889
 42
0.889
  0
INSERT
  8
_DRILL_TH
  2
_HOLE
 10
56.030
 20
51.000
 41
0.889
 42
0.889
  0
INSERT
  8
_DRILL_TH
  2
_HOLE
 10
53.490
 20
51.000
 41
0.889
 42
0.889
  0
INSERT
  8
_DRILL_TH
  2
_HOLE
 10
50.950
 20
51.000
 41
0.889
 42
0.889
  0
INSERT
  8
_DRILL_TH
  2
_HOLE
 10
48.410
 20
51.000
 41
0.889
 42
0.889
  0
INSERT
  8
_DRILL_TH
  2
_HOLE
 10
45.870
 20
51.000
 41
0.889
 42
0.889
  0
POLYLINE
  8
0
 66
     1
 10
0.000
 20
0.000
 70
     1
 40
0.025
 41
0.025
  0
VERTEX
  8
0
 10
4.170
 20
6.280
 40
0.025
 41
0.025
  0
VERTEX
  8
0
 10
3.370
 20
6.280
 40
0.025
 41
0.025
 42
0.414
  0
VERTEX
  8
0
 10
3.320
 20
6.230
 40
0.025
 41
0.025
  0
VERTEX
  8
0
 10
3.320
 20
2.730
 40
0.025
 41
0.025
 42
0.414
  0
VERTEX
  8
0
 10
3.370
 20
2.680
 40
0.025
 41
0.025
  0
VERTEX
  8
0
 10
4.170
 20
2.680
 40
0.025
 41
0.025
 42
0.414
  0
VERTEX
  8
0
 10
4.220
 20
2.730
 40
0.025
 41
0.025
  0
VERTEX
  8
0
 10
4.220
 20
6.230
 40
0.025
 41
0.025
 42
0.414
  0
SEQEND
  8
0
  0
POLYLINE
  8
0
 66
     1
 10
0.000
 20
0.000
 70
     1
 40
0.025
 41
0.025
  0
VERTEX
  8
0
 10
8.570
 20
8.780
 40
0.025
 41
0.025
  0
VERTEX
  8
0
 10
8.570
 20
9.580
 40
0.025
 41
0.025
 42
0.414
  0
VERTEX
  8
0
 10
8.520
 20
9.630
 40
0.025
 41
0.025
  0
VERTEX
  8
0
 10
5.020
 20
9.630
 40
0.025
 41
0.025
 42
0.414
  0
VERTEX
  8
0
 10
4.970
 20
9.580
 40
0.025
 41
0.025
  0
VERTEX
  8
0
 10
4.970
 20
8.780
 40
0.025
 41
0.025
 42
0.414
  0
VERTEX
  8
0
 10
5.020
 20
8.730
 40
0.025
 41
0.025
  0
VERTEX
  8
0
 10
8.520
 20
8.730
 40
0.025
 41
0.025
 42
0.414
  0
SEQEND
  8
0
  0
POLYLINE
  8
0
 66
     1
 10
0.000
 20
0.000
 70
     1
 40
0.025
 41
0.025
  0
VERTEX
  8
0
 10
10.370
 20
6.280
 40
0.025
 41
0.025
  0
VERTEX
  8
0
 10
9.570
 20
6.280
 40
0.025
 41
0.025
 42
0.414
  0
VERTEX
  8
0
 10
9.520
 20
6.230
 40
0.025
 41
0.025
  0
VERTEX
  8
0
 10
9.520
 20
2.730
 40
0.025
 41
0.025
 42
0.414
  0
VERTEX
  8
0
 10
9.570
 20
2.680
 40
0.025
 41
0.025
  0
VERTEX
  8
0
 10
10.370
 20
2.680
 40
0.025
 41
0.025
 42
0.414
  0
VERTEX
  8
0
 10
10.420
 20
2.730
 40
0.025
 41
0.025
  0
VERTEX
  8
0
 10
10.420
 20
6.230
 40
0.025
 41
0.025
 42
0.414
  0
SEQEND
  8
0
  0
INSERT
  8
_DRILL_TH
  2
_HOLE
 10
15.900
 20
2.900
 41
2.524
 42
2.524
  0
INSERT
  8
_DRILL_TH
  2
_HOLE
 10
63.550
 20
42.000
 41
2.524
 42
2.524
  0
INSERT
  8
_DRILL_TH
  2
_HOLE
 10
63.550
 20
11.550
 41
2.524
 42
2.524
  0
INSERT
  8
_DRILL_TH
  2
_HOLE
 10
13.700
 20
50.050
 41
2.524
 42
2.524
  0
ENDSEC
  0
EOF
