G05
M48
;#@! TF.GenerationSoftware,DesignSpark,DesignSpark PCB,13.0.
;#@! TF.CreationDate,2025-12-29T08:10:20+00:00*
;#@! TF.FileFunction,Plated,1,4,PTH
;FILE_FORMAT=3:5
;TYPE=PLATED
INCH,TZ
FMAT,2
T1C000.00787
T2C000.01600
T3C000.02500
T4C000.03500
T5C000.03937
T6C000.04528
T7C000.05118
%
T001
X1688112Y1815207
X1711892Y1795168
X1716557Y1781408
X1725219Y1781408
X1726892Y1826389
X1731301Y1793711
X1739254Y1787491
X1741419Y1781566
X1743112Y1785562
X1753762Y1839873
X1753762Y1843613
X1758683Y1773042
X1794608Y1770089
X1796872Y1838790
X1801400Y1761641
X1804057Y1747747
X1804156Y1752373
X1805041Y1758278
X1808289Y1750011
X1813211Y1815837
X1813900Y1755522
X1821970Y1752471
X1821970Y1770877
X1822069Y1756211
X1822069Y1759952
X1822167Y1779538
X1827876Y1827570
X1829156Y1797747
X1830356Y1883200
X1831026Y1805129
X1833388Y1876782
X1834569Y1768948
X1834569Y1778790
X1834569Y1872550
X1834766Y1754833
X1834766Y1761034
X1835947Y1883200
X1836104Y1738987
X1838112Y1877176
X1839687Y1738987
X1845373Y1738987
X1845494Y1752570
X1849018Y1738987
X1854844Y1797747
X1854943Y1854243
X1855041Y1805719
X1855435Y1764578
X1855671Y1781310
X1855789Y1751428
X1855789Y1784952
X1857404Y1849519
X1857797Y1761034
X1858585Y1796467
X1859569Y1754932
X1859864Y1854144
X1860159Y1764578
X1862128Y1849519
X1863309Y1754932
X1863703Y1773869
X1865081Y1872747
X1865081Y1877963
X1865278Y1868711
X1866951Y1754833
X1872167Y1745286
X1872266Y1819400
X1872266Y1828062
X1872266Y1837904
X1872758Y1808377
X1874844Y1866251
X1874844Y1875680
X1880111Y1764499
X1880111Y1767530
X1880111Y1784617
X1884643Y1784617
X1889174Y1784617
X1893388Y1784617
X1897010Y1772845
X1897010Y1777767
T002
X1695671Y1806389
X1726498Y1869774
X1728073Y1861467
X1731459Y1723554
X1746281Y1764211
X1748467Y1793278
X1748624Y1743278
X1755750Y1723554
X1757404Y1868416
X1763191Y1738554
X1773663Y1798239
X1779766Y1723554
X1852640Y1724066
X1857305Y1820286
X1904608Y1764026
X1931026Y1769696
T004
X1738801Y1883770
X1739000Y1895433
X1748801Y1883770
X1749000Y1895433
X1758801Y1883770
X1759000Y1895433
X1769000Y1895433
X1775197Y1704764
X1779000Y1814085
X1779000Y1824085
X1779000Y1834085
X1779000Y1844085
X1779000Y1854085
X1779000Y1895433
X1785197Y1704764
X1789000Y1814085
X1789000Y1824085
X1789000Y1834085
X1789000Y1844085
X1789000Y1854085
X1789000Y1895433
X1795197Y1704764
X1799000Y1895433
X1805197Y1704764
X1809000Y1895433
X1815197Y1704764
X1819000Y1895433
X1825197Y1704764
X1829000Y1895433
X1835197Y1704764
X1845081Y1895286
X1845197Y1704764
X1855081Y1895286
X1864606Y1704764
X1865081Y1895286
X1874606Y1704764
X1875081Y1895286
X1884606Y1704764
X1885081Y1895286
X1894606Y1704764
X1895081Y1895286
X1904606Y1704764
X1905081Y1895286
X1914606Y1704764
X1915002Y1796822
X1915002Y1806822
X1915002Y1816822
X1915002Y1826822
X1915002Y1836822
X1915081Y1895286
X1926852Y1796822
X1926852Y1806822
X1926852Y1816822
X1926852Y1826822
X1926852Y1836822
T005
X1675041Y1878357
X1675041Y1896074
X1700632Y1878357
X1700632Y1896074
T006
X1695691Y1831605
X1695691Y1859952
T007
X1682108Y1829144
X1682108Y1862412
X1688998Y1829144
X1688998Y1862412
T003
G00X1678811Y1706300
M15
G01X1678811Y1717973
X1679854Y1717973
X1679854Y1706300
X1678811Y1706300
M17
G00X1685307Y1731162
M15
G01X1696980Y1731162
X1696980Y1730119
X1685307Y1730119
X1685307Y1731162
M17
G00X1703220Y1706300
M15
G01X1703220Y1717973
X1704264Y1717973
X1704264Y1706300
X1703220Y1706300
M17
M30
