G04 DesignSpark PCB Gerber Version 12.0 Build 5942*
%FSLAX35Y35*%
%MOMM*%
%AMT115*0 Rounded Rectangle Pad at angle 0*4,1,20,-0.88940,-2.27500,0.88940,-2.27500,0.90300,-2.27230,0.91460,-2.26460,0.92230,-2.25300,0.92500,-2.23940,0.92500,2.23940,0.92230,2.25300,0.91460,2.26460,0.90300,2.27230,0.88940,2.27500,-0.88940,2.27500,-0.90300,2.27230,-0.91460,2.26460,-0.92230,2.25300,-0.92500,2.23940,-0.92500,-2.23940,-0.92230,-2.25300,-0.91460,-2.26460,-0.90300,-2.27230,-0.88940,-2.27500,0*%
%ADD115T115*%
%ADD121R,1.47400X1.47400*%
%AMT116*0 Rounded Rectangle Pad at angle 90*4,1,20,2.27500,-0.88940,2.27500,0.88940,2.27230,0.90300,2.26460,0.91460,2.25300,0.92230,2.23940,0.92500,-2.23940,0.92500,-2.25300,0.92230,-2.26460,0.91460,-2.27230,0.90300,-2.27500,0.88940,-2.27500,-0.88940,-2.27230,-0.90300,-2.26460,-0.91460,-2.25300,-0.92230,-2.23940,-0.92500,2.23940,-0.92500,2.25300,-0.92230,2.26460,-0.91460,2.27230,-0.90300,2.27500,-0.88940,0*%
%ADD116T116*%
%ADD138C,1.45000*%
%ADD129C,1.55000*%
%ADD114C,2.47400*%
X0Y0D02*
D02*
D114*
X43648050Y48045270D03*
X43868050Y43330270D03*
X48633050Y44195270D03*
Y47240270D03*
D02*
D115*
X42655050Y43488270D03*
X43275050D03*
D02*
D116*
X42955050Y43958270D03*
D02*
D121*
X44165550Y47847770D03*
X44170600Y48144000D03*
X44419550Y47847770D03*
X44424600Y48144000D03*
X44673550Y47847770D03*
X44678600Y48144000D03*
X44932600D03*
X45090000Y43301000D03*
X45186600Y46077770D03*
Y46331770D03*
Y46585770D03*
Y46839770D03*
Y47093770D03*
Y48144000D03*
X45344000Y43301000D03*
X45440600Y46077770D03*
Y46331770D03*
Y46585770D03*
Y46839770D03*
Y47093770D03*
Y48144000D03*
X45598000Y43301000D03*
X45694600Y48144000D03*
X45852000Y43301000D03*
X45948600Y48144000D03*
X46106000Y43301000D03*
X46202600Y48144000D03*
X46360000Y43301000D03*
X46456600Y48144000D03*
X46614000Y43301000D03*
X46865050Y48140270D03*
X46868000Y43301000D03*
X47119050Y48140270D03*
X47361000Y43301000D03*
X47373050Y48140270D03*
X47615000Y43301000D03*
X47627050Y48140270D03*
X47869000Y43301000D03*
X47881050Y48140270D03*
X48123000Y43301000D03*
X48135050Y48140270D03*
X48377000Y43301000D03*
X48389050Y48140270D03*
X48631000Y43301000D03*
X48641050Y45639270D03*
Y45893270D03*
Y46147270D03*
Y46401270D03*
Y46655270D03*
X48643050Y48140270D03*
X48942050Y45639270D03*
Y45893270D03*
Y46147270D03*
Y46401270D03*
Y46655270D03*
D02*
D129*
X42725550Y46460270D03*
Y47305270D03*
X42900550Y46460270D03*
Y47305270D03*
X43070550Y46522770D03*
Y47242770D03*
D02*
D138*
X42546050Y47710270D03*
Y48160270D03*
X43196050Y47710270D03*
Y48160270D03*
X0Y0D02*
M02*
