G04 DesignSpark PCB Gerber Version 13.0 Build *
%FSLAX35Y35*%
%MOMM*%
%AMT27*0 Rounded Rectangle Pad at angle 0*4,1,32,-0.07500,-0.32500,0.07500,-0.32500,0.10830,-0.32120,0.13990,-0.31010,0.16830,-0.29220,0.19200,-0.26850,0.20980,-0.24010,0.22090,-0.20840,0.22500,-0.17500,0.22500,0.17500,0.22120,0.20830,0.21010,0.23990,0.19220,0.26830,0.16850,0.29200,0.14010,0.30980,0.10840,0.32090,0.07500,0.32500,-0.07500,0.32500,-0.10830,0.32120,-0.13990,0.31010,-0.16830,0.29220,-0.19200,0.26850,-0.20980,0.24010,-0.22090,0.20840,-0.22500,0.17500,-0.22500,-0.17500,-0.22120,-0.20830,-0.21010,-0.23990,-0.19220,-0.26830,-0.16850,-0.29200,-0.14010,-0.30980,-0.10840,-0.32090,-0.07500,-0.32500,0*%
%ADD27T27*%
%AMT95*0 Rounded Rectangle Pad at angle 0*4,1,44,-0.70000,-2.00000,0.70000,-2.00000,0.74690,-1.99630,0.79260,-1.98530,0.83600,-1.96730,0.87610,-1.94270,0.91180,-1.91210,0.94230,-1.87630,0.96680,-1.83620,0.98480,-1.79270,0.99570,-1.74700,1.00000,-1.70000,1.00000,1.70000,0.99630,1.74690,0.98530,1.79260,0.96730,1.83600,0.94270,1.87610,0.91210,1.91180,0.87630,1.94230,0.83620,1.96680,0.79270,1.98480,0.74700,1.99570,0.70000,2.00000,-0.70000,2.00000,-0.74690,1.99630,-0.79260,1.98530,-0.83600,1.96730,-0.87610,1.94270,-0.91180,1.91210,-0.94230,1.87630,-0.96680,1.83620,-0.98480,1.79270,-0.99570,1.74700,-1.00000,1.70000,-1.00000,-1.70000,-0.99630,-1.74690,-0.98530,-1.79260,-0.96730,-1.83600,-0.94270,-1.87610,-0.91210,-1.91180,-0.87630,-1.94230,-0.83620,-1.96680,-0.79270,-1.98480,-0.74700,-1.99570,-0.70000,-2.00000,0*%
%ADD95T95*%
%ADD77R,1.52400X1.52400*%
%ADD18C,0.20000*%
%ADD20C,0.25400*%
%ADD22C,0.54000*%
%ADD23C,0.80000*%
%ADD24C,0.81280*%
%AMT72*0 Rounded Rectangle Pad at angle 45*4,1,32,0.17670,-0.28280,0.28280,-0.17670,0.30370,-0.15040,0.31820,-0.12010,0.32560,-0.08730,0.32550,-0.05370,0.31790,-0.02100,0.30330,0.00910,0.28280,0.03530,0.03530,0.28280,0.00900,0.30370,-0.02120,0.31820,-0.05390,0.32560,-0.08740,0.32560,-0.12000,0.31810,-0.15020,0.30350,-0.17670,0.28280,-0.28280,0.17670,-0.30370,0.15040,-0.31820,0.12010,-0.32560,0.08730,-0.32550,0.05370,-0.31790,0.02100,-0.30330,-0.00910,-0.28280,-0.03530,-0.03530,-0.28280,-0.00900,-0.30370,0.02120,-0.31820,0.05390,-0.32560,0.08740,-0.32560,0.12000,-0.31810,0.15020,-0.30350,0.17670,-0.28280,0*%
%ADD72T72*%
%AMT26*0 Rounded Rectangle Pad at angle 90*4,1,32,0.32500,-0.07500,0.32500,0.07500,0.32120,0.10830,0.31010,0.13990,0.29220,0.16830,0.26850,0.19200,0.24010,0.20980,0.20840,0.22090,0.17500,0.22500,-0.17500,0.22500,-0.20830,0.22120,-0.23990,0.21010,-0.26830,0.19220,-0.29200,0.16850,-0.30980,0.14010,-0.32090,0.10840,-0.32500,0.07500,-0.32500,-0.07500,-0.32120,-0.10830,-0.31010,-0.13990,-0.29220,-0.16830,-0.26850,-0.19200,-0.24010,-0.20980,-0.20840,-0.22090,-0.17500,-0.22500,0.17500,-0.22500,0.20830,-0.22120,0.23990,-0.21010,0.26830,-0.19220,0.29200,-0.16850,0.30980,-0.14010,0.32090,-0.10840,0.32500,-0.07500,0*%
%ADD26T26*%
%AMT29*0 Rounded Rectangle Pad at angle 135*4,1,32,0.28280,0.17670,0.17670,0.28280,0.15040,0.30370,0.12010,0.31820,0.08730,0.32560,0.05370,0.32550,0.02100,0.31790,-0.00910,0.30330,-0.03530,0.28280,-0.28280,0.03530,-0.30370,0.00900,-0.31820,-0.02120,-0.32560,-0.05390,-0.32560,-0.08740,-0.31810,-0.12000,-0.30350,-0.15020,-0.28280,-0.17670,-0.17670,-0.28280,-0.15040,-0.30370,-0.12010,-0.31820,-0.08730,-0.32560,-0.05370,-0.32550,-0.02100,-0.31790,0.00910,-0.30330,0.03530,-0.28280,0.28280,-0.03530,0.30370,-0.00900,0.31820,0.02120,0.32560,0.05390,0.32560,0.08740,0.31810,0.12000,0.30350,0.15020,0.28280,0.17670,0*%
%ADD29T29*%
%AMT96*0 Rounded Rectangle Pad at angle 90*4,1,44,2.00000,-0.70000,2.00000,0.70000,1.99630,0.74690,1.98530,0.79260,1.96730,0.83600,1.94270,0.87610,1.91210,0.91180,1.87630,0.94230,1.83620,0.96680,1.79270,0.98480,1.74700,0.99570,1.70000,1.00000,-1.70000,1.00000,-1.74690,0.99630,-1.79260,0.98530,-1.83600,0.96730,-1.87610,0.94270,-1.91180,0.91210,-1.94230,0.87630,-1.96680,0.83620,-1.98480,0.79270,-1.99570,0.74700,-2.00000,0.70000,-2.00000,-0.70000,-1.99630,-0.74690,-1.98530,-0.79260,-1.96730,-0.83600,-1.94270,-0.87610,-1.91210,-0.91180,-1.87630,-0.94230,-1.83620,-0.96680,-1.79270,-0.98480,-1.74700,-0.99570,-1.70000,-1.00000,1.70000,-1.00000,1.74690,-0.99630,1.79260,-0.98530,1.83600,-0.96730,1.87610,-0.94270,1.91180,-0.91210,1.94230,-0.87630,1.96680,-0.83620,1.98480,-0.79270,1.99570,-0.74700,2.00000,-0.70000,0*%
%ADD96T96*%
%ADD93C,1.50000*%
%ADD85C,1.60000*%
%ADD94C,2.52400*%
X0Y0D02*
D02*
D18*
X43975050Y45560270D02*
Y46337270D01*
X44010550Y46372770D01*
Y47540270D01*
X43965550Y47585270D01*
Y48215270D01*
G75*
G02*
X44030550Y48280270I65000J0D01*
G01*
X45214050D01*
X45215050Y48281270D01*
X45228050D01*
X44793050Y44955270D02*
X44738050D01*
G75*
G02*
X44598050Y45095270I0J140000D01*
G01*
Y45350270D01*
G75*
G03*
X44500550Y45447770I-97500J0D01*
G01*
X44217050D01*
G75*
G03*
X44214550Y45450270I-2500J0D01*
G01*
X44213050D01*
X45186600Y48144000D02*
X45185550Y48255270D01*
Y48280270D01*
X45186600Y48281270D01*
X45228050D01*
X46541050D01*
X46601050Y48221270D01*
Y47859270D01*
X46627050Y47833270D01*
X46633050D01*
X45440600Y46077770D02*
X45715550D01*
X45778050Y46015270D01*
Y44740270D01*
X45440600Y46331770D02*
X45654050D01*
X45838050Y46147770D01*
Y44650270D01*
X45440600Y46585770D02*
X45667550D01*
X45898050Y46355270D01*
Y44705270D01*
X45948050Y44655270D01*
Y44585270D01*
X45933050D01*
X45694600Y48144000D02*
Y48073720D01*
X45812050Y47956270D01*
X46267050D01*
X46477050Y47746270D01*
X46622050D01*
X46688050Y47680270D01*
X45823050Y44392770D02*
X45759250D01*
X45608050Y44543970D01*
Y44896170D01*
X45623050Y44911170D01*
Y45634370D01*
X45492150Y45765270D01*
X44919250D01*
X44822650Y45861870D01*
Y46987770D01*
X44928650Y47093770D01*
X45186600D01*
X45825550Y44510270D02*
X45784350D01*
X45713050Y44581570D01*
Y44844370D01*
X45728050Y44859370D01*
Y45678670D01*
X45543950Y45862770D01*
X44956850D01*
X44913450Y45906170D01*
Y46465270D01*
X45033950Y46585770D01*
X45186600D01*
X45930550Y44450270D02*
X45770550D01*
X45658050Y44562770D01*
Y44872770D01*
X45673050Y44887770D01*
Y45657770D01*
X45515550Y45815270D01*
X44938050D01*
X44868050Y45885270D01*
Y46770270D01*
X44937550Y46839770D01*
X45186600D01*
X46202600Y48144000D02*
Y48115720D01*
X46485050Y47833270D01*
X46491050D01*
X46543050Y45485270D02*
Y46135270D01*
X46493050Y46185270D01*
X46411390D01*
X46568050Y47670270D02*
X46487050D01*
X46248050Y47909270D01*
X45560600D01*
X45440600Y48029270D01*
Y48144000D01*
X46598050Y47562770D02*
X46558050Y47602770D01*
X46483050D01*
X46230550Y47855270D01*
X45535550D01*
X45403050Y47987770D01*
X44469550D01*
X44419550Y47937770D01*
Y47847770D01*
X46875550Y44515270D02*
X47049950Y44689670D01*
Y47284670D01*
X47168050Y47402770D01*
X47621050D01*
X47128050Y44820270D02*
Y45132070D01*
X47265050Y45269070D01*
Y46170270D01*
X47265550Y46170770D01*
Y46422770D01*
X47115550Y46572770D01*
Y47097770D01*
X47188050Y44730270D02*
Y45113270D01*
X47315050Y45240270D01*
Y46122770D01*
X47315550Y46123270D01*
Y46445270D01*
X47178050Y46582770D01*
Y46977770D01*
X47248050Y44820270D02*
Y45096470D01*
X47383050Y45231470D01*
Y46465270D01*
X47240550Y46607770D01*
Y47095270D01*
X47338050Y45056270D02*
Y45113270D01*
X47433050Y45208270D01*
Y46490270D01*
X47298050Y46625270D01*
Y46977770D01*
X47361000Y43301000D02*
Y43485720D01*
X47415550Y43540270D01*
X47818050D01*
X47913050Y43635270D01*
Y45097040D01*
X47754820Y45255270D01*
Y45329270D01*
X47373050Y47567770D02*
X47177450D01*
X46953050Y47343370D01*
Y44748070D01*
X46637050Y44432070D01*
Y44175270D01*
X47373050Y47700270D02*
X47160550D01*
X46858050Y47397770D01*
Y44785670D01*
X46645150Y44572770D01*
X46603050D01*
X47378050Y47465270D02*
X47148050D01*
X47000550Y47317770D01*
Y44729270D01*
X46728050Y44456770D01*
Y44175270D01*
X47580750Y45747770D02*
Y45128570D01*
X47503050Y45050870D01*
Y44948370D01*
X47405750Y44851070D01*
Y44682770D01*
X47420550Y44667970D01*
Y44572770D01*
X47580800Y46432770D02*
X47638050D01*
X47708050Y46362770D01*
X47580800Y46682770D02*
X47673050D01*
X47765550Y46590270D01*
Y45850270D01*
X47630550Y45715270D01*
Y45102770D01*
X47553050Y45025270D01*
Y44330270D01*
X47588300Y46175270D02*
X47638550D01*
X47656050Y46157770D01*
Y45895470D01*
X47535350Y45774770D01*
Y45154470D01*
X47450550Y45069670D01*
Y44967170D01*
X47360350Y44876970D01*
Y44682770D01*
X47328050Y44650470D01*
Y44575270D01*
X47593300Y45932770D02*
Y45896120D01*
X47489950Y45792770D01*
Y45175370D01*
X47403050Y45088470D01*
Y44985970D01*
X47314950Y44897870D01*
Y44745270D01*
X47233050Y44663370D01*
Y44575270D01*
X47615000Y43301000D02*
X47634050D01*
Y43452770D01*
X47659050Y43477770D01*
X47837050D01*
X47968050Y43608770D01*
Y45114270D01*
X47869920Y45212400D01*
Y45329270D01*
X47621050Y47642270D02*
X47171850D01*
X46905550Y47375970D01*
Y44766870D01*
X46651450Y44512770D01*
X46278050D01*
X47869000Y43301000D02*
X47879050D01*
Y43441320D01*
X48015050Y43577320D01*
Y45135270D01*
X47980010Y45170310D01*
Y45329270D01*
X47985010D01*
X48123000Y43301000D02*
X48138000Y43484860D01*
X48063050Y43559810D01*
Y45180270D01*
X48092050Y45209270D01*
Y45329270D01*
X48135050Y48140270D02*
Y47798270D01*
X48097050Y47760270D01*
X47139450D01*
X46810550Y47431370D01*
Y44855270D01*
X46588050Y44632770D01*
X46280550D01*
Y44607770D01*
X48377000Y43301000D02*
X48391320D01*
X48115050Y43577270D01*
Y45086270D01*
X48185050Y45156270D01*
Y45155270D01*
X48184050D01*
X48389050Y48140270D02*
Y48220270D01*
X48344050Y48265270D01*
X48041050D01*
X48008050Y48232270D01*
Y47858770D01*
X47959550Y47810270D01*
X47120550D01*
X46760550Y47450270D01*
Y44887770D01*
X46603050Y44730270D01*
X48631000Y43301000D02*
Y43307320D01*
X48438050Y43500270D01*
X48263050D01*
X48168050Y43595270D01*
Y45001270D01*
X48198050Y45031270D01*
X48208050D01*
X48643050Y48140270D02*
Y48242270D01*
X48559050Y48326270D01*
X47792050D01*
X47758050Y48292270D01*
Y47897270D01*
X47721050Y47860270D01*
X47095300D01*
X46708050Y47473020D01*
Y44932770D01*
X46478050Y44702770D01*
X46280550D01*
X48942050Y46401270D02*
X48869050D01*
X48789050Y46321270D01*
Y45719270D01*
X48709050Y45639270D01*
X48641050D01*
X49048050Y44950270D02*
Y43582770D01*
X48808050Y43342770D01*
Y43200270D01*
G75*
G02*
X48748050Y43140270I-60000J0D01*
G01*
X46285550D01*
X46230550Y43195270D01*
Y43405270D01*
X46185550Y43450270D01*
X45640550D01*
X45598000Y43407720D01*
Y43301000D01*
D02*
D20*
X47708050Y46362770D02*
Y45875070D01*
X47580750Y45747770D01*
D02*
D22*
X43070050Y45882270D02*
Y46142270D01*
X43320050Y46392270D01*
X43861050D01*
X43863050Y46390270D01*
X43482050Y45597270D02*
X43802550D01*
X44148050Y45251770D01*
X44213050D01*
X43788050Y45250270D02*
X43603050D01*
X45033050Y44280270D02*
X44938050D01*
X44788050Y44130270D01*
X43683050D01*
X43593050Y44220270D01*
Y44962270D01*
X43476050D01*
Y45053570D01*
X45051050Y45535270D02*
Y44592270D01*
X44738050Y44279270D01*
X44153800D01*
X46106000Y43301000D02*
Y43188220D01*
X46053050Y43135270D01*
X44873050D01*
X44788050Y43220270D01*
Y44126270D01*
X44942050Y44280270D01*
X45033050D01*
D02*
D23*
X43355550Y43810270D02*
Y43927770D01*
X42798050Y44485270D01*
Y46051270D01*
X42847050Y46100270D01*
X42959080D01*
X46048050Y45560270D03*
Y45685270D03*
Y45810270D03*
Y45935270D03*
Y46060270D03*
Y46185270D03*
Y46310270D03*
X46148800Y46390020D03*
X46151390Y45485700D03*
X46273800Y46390020D03*
X46281390Y45485700D03*
X46398800Y46390020D03*
X46411390Y45485700D03*
X46518800Y46390020D03*
X46623050Y45789360D03*
Y45919360D03*
Y46049360D03*
Y46179360D03*
Y46309360D03*
D02*
D24*
X43070050Y45882270D03*
X43718050Y47492270D03*
X43979050Y43778270D03*
X44153800Y44279270D03*
X44498050Y47450270D03*
X44596050Y43778270D03*
X45033050Y44280270D03*
X45051050Y45535270D03*
X45206050Y43778270D03*
X47057050Y43791270D03*
X49048050Y44950270D03*
D02*
D26*
X42529550Y44557520D03*
Y45084520D03*
X42959080Y46100270D03*
X43482050Y45597270D03*
X43603050Y45250270D03*
X43788050D03*
X43863050Y46390270D03*
X44098050Y46535270D03*
X44213050Y45251770D03*
Y45350270D03*
Y45450270D03*
X44233050Y46535270D03*
X44483050Y45535270D03*
X44545550Y46732770D03*
X44793050Y44955270D03*
X45398050Y44735270D03*
X45640550Y46705270D03*
X45823050Y44392770D03*
X45825550Y44510270D03*
X45838050Y44650270D03*
X45930550Y44450270D03*
X45933050Y44585270D03*
X46278050Y44512770D03*
Y44980270D03*
Y45220270D03*
X46280550Y44607770D03*
Y44702770D03*
X46411390Y46185270D03*
X46543050Y45485270D03*
X46568050Y47670270D03*
X46603050Y44572770D03*
X47134050Y45245270D03*
X47137050Y45337770D03*
X47373050Y47567770D03*
Y47700270D03*
X47378050Y47465270D03*
X47621050Y47402770D03*
Y47642270D03*
X47754820Y45329270D03*
X47773050Y44895270D03*
X47869920Y45329270D03*
X47985010D03*
X48092050D03*
X48184050Y45155270D03*
X48208050Y45031270D03*
D02*
D27*
X42678050Y44820270D03*
X42913050D03*
X43318050D03*
X43476050Y45053570D03*
X43713050Y46620270D03*
X43843050D03*
X43975050Y45560270D03*
X44283050Y46645270D03*
X45398050Y44895270D03*
X45778050Y44740270D03*
X46184550Y44020770D03*
Y44245770D03*
X46386550Y44020770D03*
Y44245770D03*
X46491050Y47833270D03*
X46633050D03*
X46637050Y44175270D03*
X46728050D03*
X46933050Y44015270D03*
X47113050Y45662770D03*
X47115550Y47097770D03*
X47118050Y45865270D03*
X47128050Y44820270D03*
X47178050Y46977770D03*
X47188050Y44015270D03*
Y44730270D03*
X47208050Y45662770D03*
X47233050Y44575270D03*
X47240550Y47095270D03*
X47248050Y44820270D03*
X47298050Y46977770D03*
X47328050Y44575270D03*
X47338050Y45056270D03*
X47420550Y44572770D03*
X47553050Y44330270D03*
X47580800Y46432770D03*
Y46682770D03*
X47588300Y46175270D03*
X47593300Y45932770D03*
D02*
D29*
X46603050Y44730270D03*
X46875550Y44515270D03*
D02*
D72*
X46598050Y47562770D03*
X46688050Y47680270D03*
D02*
D77*
X44165550Y47847770D03*
X44170600Y48144000D03*
X44419550Y47847770D03*
X44424600Y48144000D03*
X44673550Y47847770D03*
X44678600Y48144000D03*
X44932600D03*
X45090000Y43301000D03*
X45186600Y46077770D03*
Y46331770D03*
Y46585770D03*
Y46839770D03*
Y47093770D03*
Y48144000D03*
X45344000Y43301000D03*
X45440600Y46077770D03*
Y46331770D03*
Y46585770D03*
Y46839770D03*
Y47093770D03*
Y48144000D03*
X45598000Y43301000D03*
X45694600Y48144000D03*
X45852000Y43301000D03*
X45948600Y48144000D03*
X46106000Y43301000D03*
X46202600Y48144000D03*
X46360000Y43301000D03*
X46456600Y48144000D03*
X46614000Y43301000D03*
X46865050Y48140270D03*
X46868000Y43301000D03*
X47119050Y48140270D03*
X47361000Y43301000D03*
X47373050Y48140270D03*
X47615000Y43301000D03*
X47627050Y48140270D03*
X47869000Y43301000D03*
X47881050Y48140270D03*
X48123000Y43301000D03*
X48135050Y48140270D03*
X48377000Y43301000D03*
X48389050Y48140270D03*
X48631000Y43301000D03*
X48641050Y45639270D03*
Y45893270D03*
Y46147270D03*
Y46401270D03*
Y46655270D03*
X48643050Y48140270D03*
X48942050Y45639270D03*
Y45893270D03*
Y46147270D03*
Y46401270D03*
Y46655270D03*
D02*
D85*
X42725550Y46460270D03*
Y47305270D03*
X42900550Y46460270D03*
Y47305270D03*
X43070550Y46522770D03*
Y47242770D03*
D02*
D93*
X42546050Y47710270D03*
Y48160270D03*
X43196050Y47710270D03*
Y48160270D03*
D02*
D94*
X43648050Y48036320D03*
X43869050Y43330270D03*
X48631000Y47240270D03*
X48631490Y44194740D03*
D02*
D95*
X42725550Y43810270D03*
X43355550D03*
D02*
D96*
X43065550Y43330270D03*
X0Y0D02*
M02*
