G04 DesignSpark PCB Gerber Version 13.0 Build *
%FSLAX35Y35*%
%MOMM*%
%ADD150R,1.00000X2.00000*%
%AMT150*0 Rounded Rectangle Pad at angle 0*4,1,8,-0.50000,-1.00000,0.50000,-1.00000,0.50000,-1.00000,0.50000,1.00000,0.50000,1.00000,-0.50000,1.00000,-0.50000,1.00000,-0.50000,-1.00000,-0.50000,-1.00000,0*%
%ADD150T150*%
%ADD11C,0.12700*%
%ADD151R,2.00000X1.00000*%
%AMT151*0 Rounded Rectangle Pad at angle 90*4,1,8,1.00000,-0.50000,1.00000,0.50000,1.00000,0.50000,-1.00000,0.50000,-1.00000,0.50000,-1.00000,-0.50000,-1.00000,-0.50000,1.00000,-0.50000,1.00000,-0.50000,0*%
%ADD151T151*%
%ADD149C,2.54000*%
X0Y0D02*
D02*
D11*
X42839110Y44755960D02*
X42854990Y44748020D01*
X42862930Y44732150D01*
X42854990Y44716270D01*
X42839110Y44708330D01*
X42783550D01*
Y44803580D01*
X42839110D01*
X42854990Y44795650D01*
X42862930Y44779770D01*
X42854990Y44763900D01*
X42839110Y44755960D01*
X42783550D01*
X42839110Y45282960D02*
X42854990Y45275020D01*
X42862930Y45259150D01*
X42854990Y45243270D01*
X42839110Y45235330D01*
X42783550D01*
Y45330580D01*
X42839110D01*
X42854990Y45322650D01*
X42862930Y45306770D01*
X42854990Y45290900D01*
X42839110Y45282960D01*
X42783550D01*
X42800050Y47861080D02*
Y47956330D01*
Y47908710D02*
X42879430D01*
Y47861080D02*
Y47956330D01*
X42800050Y48311080D02*
Y48406330D01*
Y48358710D02*
X42879430D01*
Y48311080D02*
Y48406330D01*
X42987610Y45018710D02*
X43003490Y45010770D01*
X43011430Y44994900D01*
X43003490Y44979020D01*
X42987610Y44971080D01*
X42932050D01*
Y45066330D01*
X42987610D01*
X43003490Y45058400D01*
X43011430Y45042520D01*
X43003490Y45026650D01*
X42987610Y45018710D01*
X42932050D01*
X42979550Y43961080D02*
Y44056330D01*
Y44008710D02*
X43058930D01*
Y43961080D02*
Y44056330D01*
X43035110Y46650770D02*
X43058930D01*
Y46642830D01*
X43050990Y46626960D01*
X43043050Y46619020D01*
X43027180Y46611080D01*
X43011300D01*
X42995430Y46619020D01*
X42987490Y46626960D01*
X42979550Y46642830D01*
Y46674580D01*
X42987490Y46690460D01*
X42995430Y46698400D01*
X43011300Y46706330D01*
X43027180D01*
X43043050Y46698400D01*
X43050990Y46690460D01*
X43058930Y46674580D01*
X43035110Y47495770D02*
X43058930D01*
Y47487830D01*
X43050990Y47471960D01*
X43043050Y47464020D01*
X43027180Y47456080D01*
X43011300D01*
X42995430Y47464020D01*
X42987490Y47471960D01*
X42979550Y47487830D01*
Y47519580D01*
X42987490Y47535460D01*
X42995430Y47543400D01*
X43011300Y47551330D01*
X43027180D01*
X43043050Y47543400D01*
X43050990Y47535460D01*
X43058930Y47519580D01*
X43210110Y46650770D02*
X43233930D01*
Y46642830D01*
X43225990Y46626960D01*
X43218050Y46619020D01*
X43202180Y46611080D01*
X43186300D01*
X43170430Y46619020D01*
X43162490Y46626960D01*
X43154550Y46642830D01*
Y46674580D01*
X43162490Y46690460D01*
X43170430Y46698400D01*
X43186300Y46706330D01*
X43202180D01*
X43218050Y46698400D01*
X43225990Y46690460D01*
X43233930Y46674580D01*
X43210110Y47495770D02*
X43233930D01*
Y47487830D01*
X43225990Y47471960D01*
X43218050Y47464020D01*
X43202180Y47456080D01*
X43186300D01*
X43170430Y47464020D01*
X43162490Y47471960D01*
X43154550Y47487830D01*
Y47519580D01*
X43162490Y47535460D01*
X43170430Y47543400D01*
X43186300Y47551330D01*
X43202180D01*
X43218050Y47543400D01*
X43225990Y47535460D01*
X43233930Y47519580D01*
X43222610Y45018710D02*
X43238490Y45010770D01*
X43246430Y44994900D01*
X43238490Y44979020D01*
X43222610Y44971080D01*
X43167050D01*
Y45066330D01*
X43222610D01*
X43238490Y45058400D01*
X43246430Y45042520D01*
X43238490Y45026650D01*
X43222610Y45018710D01*
X43167050D01*
X43268640Y46298710D02*
X43284520Y46290770D01*
X43292460Y46274900D01*
X43284520Y46259020D01*
X43268640Y46251080D01*
X43213080D01*
Y46346330D01*
X43268640D01*
X43284520Y46338400D01*
X43292460Y46322520D01*
X43284520Y46306650D01*
X43268640Y46298710D01*
X43213080D01*
X43319550Y43481080D02*
Y43576330D01*
Y43528710D02*
X43398930D01*
Y43481080D02*
Y43576330D01*
X43324050Y46033080D02*
X43363740Y46128330D01*
X43403430Y46033080D01*
X43339930Y46072770D02*
X43387550D01*
X43324550Y46673580D02*
Y46768830D01*
X43403930D01*
X43388050Y46721210D02*
X43324550D01*
Y47393580D02*
Y47488830D01*
X43403930D01*
X43388050Y47441210D02*
X43324550D01*
X43450050Y47861080D02*
Y47956330D01*
Y47908710D02*
X43529430D01*
Y47861080D02*
Y47956330D01*
X43450050Y48311080D02*
Y48406330D01*
Y48358710D02*
X43529430D01*
Y48311080D02*
Y48406330D01*
X43627610Y45018710D02*
X43643490Y45010770D01*
X43651430Y44994900D01*
X43643490Y44979020D01*
X43627610Y44971080D01*
X43572050D01*
Y45066330D01*
X43627610D01*
X43643490Y45058400D01*
X43651430Y45042520D01*
X43643490Y45026650D01*
X43627610Y45018710D01*
X43572050D01*
X43609550Y43961080D02*
Y44056330D01*
Y44008710D02*
X43688930D01*
Y43961080D02*
Y44056330D01*
X43785610Y45252010D02*
X43801490Y45244070D01*
X43809430Y45228200D01*
X43801490Y45212320D01*
X43785610Y45204380D01*
X43730050D01*
Y45299630D01*
X43785610D01*
X43801490Y45291700D01*
X43809430Y45275820D01*
X43801490Y45259950D01*
X43785610Y45252010D01*
X43730050D01*
X43791610Y45795710D02*
X43807490Y45787770D01*
X43815430Y45771900D01*
X43807490Y45756020D01*
X43791610Y45748080D01*
X43736050D01*
Y45843330D01*
X43791610D01*
X43807490Y45835400D01*
X43815430Y45819520D01*
X43807490Y45803650D01*
X43791610Y45795710D01*
X43736050D01*
X43912610Y45448710D02*
X43928490Y45440770D01*
X43936430Y45424900D01*
X43928490Y45409020D01*
X43912610Y45401080D01*
X43857050D01*
Y45496330D01*
X43912610D01*
X43928490Y45488400D01*
X43936430Y45472520D01*
X43928490Y45456650D01*
X43912610Y45448710D01*
X43857050D01*
X43902050Y48203010D02*
X43909990Y48195070D01*
X43925860Y48187130D01*
X43941740Y48195070D01*
X43949680Y48203010D01*
Y48282380D01*
X43965550D01*
X43949680D02*
X43917930D01*
X44022610Y46818710D02*
X44038490Y46810770D01*
X44046430Y46794900D01*
X44038490Y46779020D01*
X44022610Y46771080D01*
X43967050D01*
Y46866330D01*
X44022610D01*
X44038490Y46858400D01*
X44046430Y46842520D01*
X44038490Y46826650D01*
X44022610Y46818710D01*
X43967050D01*
X43972050Y47643080D02*
X44011740Y47738330D01*
X44051430Y47643080D01*
X43987930Y47682770D02*
X44035550D01*
X44097610Y45448710D02*
X44113490Y45440770D01*
X44121430Y45424900D01*
X44113490Y45409020D01*
X44097610Y45401080D01*
X44042050D01*
Y45496330D01*
X44097610D01*
X44113490Y45488400D01*
X44121430Y45472520D01*
X44113490Y45456650D01*
X44097610Y45448710D01*
X44042050D01*
X44152610Y46818710D02*
X44168490Y46810770D01*
X44176430Y46794900D01*
X44168490Y46779020D01*
X44152610Y46771080D01*
X44097050D01*
Y46866330D01*
X44152610D01*
X44168490Y46858400D01*
X44176430Y46842520D01*
X44168490Y46826650D01*
X44152610Y46818710D01*
X44097050D01*
X44172610Y46588710D02*
X44188490Y46580770D01*
X44196430Y46564900D01*
X44188490Y46549020D01*
X44172610Y46541080D01*
X44117050D01*
Y46636330D01*
X44172610D01*
X44188490Y46628400D01*
X44196430Y46612520D01*
X44188490Y46596650D01*
X44172610Y46588710D01*
X44117050D01*
X44123050Y43496960D02*
X44130990Y43489020D01*
X44146860Y43481080D01*
X44162740Y43489020D01*
X44170680Y43496960D01*
Y43576330D01*
X44186550D01*
X44170680D02*
X44138930D01*
X44284610Y45758710D02*
X44300490Y45750770D01*
X44308430Y45734900D01*
X44300490Y45719020D01*
X44284610Y45711080D01*
X44229050D01*
Y45806330D01*
X44284610D01*
X44300490Y45798400D01*
X44308430Y45782520D01*
X44300490Y45766650D01*
X44284610Y45758710D01*
X44229050D01*
X44233050Y43929080D02*
X44272740Y44024330D01*
X44312430Y43929080D01*
X44248930Y43968770D02*
X44296550D01*
X44407610Y46733710D02*
X44423490Y46725770D01*
X44431430Y46709900D01*
X44423490Y46694020D01*
X44407610Y46686080D01*
X44352050D01*
Y46781330D01*
X44407610D01*
X44423490Y46773400D01*
X44431430Y46757520D01*
X44423490Y46741650D01*
X44407610Y46733710D01*
X44352050D01*
X44407800Y44430080D02*
X44447490Y44525330D01*
X44487180Y44430080D01*
X44423680Y44469770D02*
X44471300D01*
X44419550Y47998580D02*
Y48093830D01*
X44498930D01*
X44483050Y48046210D02*
X44419550D01*
Y47998580D02*
X44498930D01*
X44424600Y48294810D02*
Y48390060D01*
X44503980D01*
X44488100Y48342440D02*
X44424600D01*
Y48294810D02*
X44503980D01*
X44522610Y45450210D02*
X44538490Y45442270D01*
X44546430Y45426400D01*
X44538490Y45410520D01*
X44522610Y45402580D01*
X44467050D01*
Y45497830D01*
X44522610D01*
X44538490Y45489900D01*
X44546430Y45474020D01*
X44538490Y45458150D01*
X44522610Y45450210D01*
X44467050D01*
X44522610Y45548710D02*
X44538490Y45540770D01*
X44546430Y45524900D01*
X44538490Y45509020D01*
X44522610Y45501080D01*
X44467050D01*
Y45596330D01*
X44522610D01*
X44538490Y45588400D01*
X44546430Y45572520D01*
X44538490Y45556650D01*
X44522610Y45548710D01*
X44467050D01*
X44522610Y45648710D02*
X44538490Y45640770D01*
X44546430Y45624900D01*
X44538490Y45609020D01*
X44522610Y45601080D01*
X44467050D01*
Y45696330D01*
X44522610D01*
X44538490Y45688400D01*
X44546430Y45672520D01*
X44538490Y45656650D01*
X44522610Y45648710D01*
X44467050D01*
X44542610Y46733710D02*
X44558490Y46725770D01*
X44566430Y46709900D01*
X44558490Y46694020D01*
X44542610Y46686080D01*
X44487050D01*
Y46781330D01*
X44542610D01*
X44558490Y46773400D01*
X44566430Y46757520D01*
X44558490Y46741650D01*
X44542610Y46733710D01*
X44487050D01*
X44592610Y46843710D02*
X44608490Y46835770D01*
X44616430Y46819900D01*
X44608490Y46804020D01*
X44592610Y46796080D01*
X44537050D01*
Y46891330D01*
X44592610D01*
X44608490Y46883400D01*
X44616430Y46867520D01*
X44608490Y46851650D01*
X44592610Y46843710D01*
X44537050D01*
X44673550Y47998580D02*
Y48093830D01*
X44752930D01*
X44737050Y48046210D02*
X44673550D01*
Y47998580D02*
X44752930D01*
X44678600Y48294810D02*
Y48390060D01*
X44757980D01*
X44742100Y48342440D02*
X44678600D01*
Y48294810D02*
X44757980D01*
X44792610Y45733710D02*
X44808490Y45725770D01*
X44816430Y45709900D01*
X44808490Y45694020D01*
X44792610Y45686080D01*
X44737050D01*
Y45781330D01*
X44792610D01*
X44808490Y45773400D01*
X44816430Y45757520D01*
X44808490Y45741650D01*
X44792610Y45733710D01*
X44737050D01*
X44752050Y47601080D02*
X44791740Y47696330D01*
X44831430Y47601080D01*
X44767930Y47640770D02*
X44815550D01*
X44855110Y46931210D02*
X44870990Y46923270D01*
X44878930Y46907400D01*
X44870990Y46891520D01*
X44855110Y46883580D01*
X44799550D01*
Y46978830D01*
X44855110D01*
X44870990Y46970900D01*
X44878930Y46955020D01*
X44870990Y46939150D01*
X44855110Y46931210D01*
X44799550D01*
X44850050Y43929080D02*
X44889740Y44024330D01*
X44929430Y43929080D01*
X44865930Y43968770D02*
X44913550D01*
X44927550Y47998580D02*
Y48093830D01*
X45006930D01*
X44991050Y48046210D02*
X44927550D01*
Y47998580D02*
X45006930D01*
X44932600Y48294810D02*
Y48390060D01*
X45011980D01*
X44996100Y48342440D02*
X44932600D01*
Y48294810D02*
X45011980D01*
X45102610Y45153710D02*
X45118490Y45145770D01*
X45126430Y45129900D01*
X45118490Y45114020D01*
X45102610Y45106080D01*
X45047050D01*
Y45201330D01*
X45102610D01*
X45118490Y45193400D01*
X45126430Y45177520D01*
X45118490Y45161650D01*
X45102610Y45153710D01*
X45047050D01*
X45186600Y48294810D02*
Y48390060D01*
X45265980D01*
X45250100Y48342440D02*
X45186600D01*
Y48294810D02*
X45265980D01*
X45287050Y44431080D02*
X45326740Y44526330D01*
X45366430Y44431080D01*
X45302930Y44470770D02*
X45350550D01*
X45305050Y45686080D02*
X45344740Y45781330D01*
X45384430Y45686080D01*
X45320930Y45725770D02*
X45368550D01*
X45344000Y43451810D02*
Y43547060D01*
X45423380D01*
X45407500Y43499440D02*
X45344000D01*
Y43451810D02*
X45423380D01*
X45440600Y46228580D02*
Y46323830D01*
X45519980D01*
X45504100Y46276210D02*
X45440600D01*
Y46228580D02*
X45519980D01*
X45440600Y46482580D02*
Y46577830D01*
X45519980D01*
X45504100Y46530210D02*
X45440600D01*
Y46482580D02*
X45519980D01*
X45440600Y46736580D02*
Y46831830D01*
X45519980D01*
X45504100Y46784210D02*
X45440600D01*
Y46736580D02*
X45519980D01*
X45440600Y46990580D02*
Y47085830D01*
X45519980D01*
X45504100Y47038210D02*
X45440600D01*
Y46990580D02*
X45519980D01*
X45440600Y47244580D02*
Y47339830D01*
X45519980D01*
X45504100Y47292210D02*
X45440600D01*
Y47244580D02*
X45519980D01*
X45440600Y48294810D02*
Y48390060D01*
X45519980D01*
X45504100Y48342440D02*
X45440600D01*
Y48294810D02*
X45519980D01*
X45460050Y43929080D02*
X45499740Y44024330D01*
X45539430Y43929080D01*
X45475930Y43968770D02*
X45523550D01*
X45598000Y43451810D02*
Y43547060D01*
X45677380D01*
X45661500Y43499440D02*
X45598000D01*
Y43451810D02*
X45677380D01*
X45707610Y44933710D02*
X45723490Y44925770D01*
X45731430Y44909900D01*
X45723490Y44894020D01*
X45707610Y44886080D01*
X45652050D01*
Y44981330D01*
X45707610D01*
X45723490Y44973400D01*
X45731430Y44957520D01*
X45723490Y44941650D01*
X45707610Y44933710D01*
X45652050D01*
X45707610Y45093710D02*
X45723490Y45085770D01*
X45731430Y45069900D01*
X45723490Y45054020D01*
X45707610Y45046080D01*
X45652050D01*
Y45141330D01*
X45707610D01*
X45723490Y45133400D01*
X45731430Y45117520D01*
X45723490Y45101650D01*
X45707610Y45093710D01*
X45652050D01*
X45694600Y46228580D02*
Y46323830D01*
X45773980D01*
X45758100Y46276210D02*
X45694600D01*
Y46228580D02*
X45773980D01*
X45694600Y46482580D02*
Y46577830D01*
X45773980D01*
X45758100Y46530210D02*
X45694600D01*
Y46482580D02*
X45773980D01*
X45694600Y46736580D02*
Y46831830D01*
X45773980D01*
X45758100Y46784210D02*
X45694600D01*
Y46736580D02*
X45773980D01*
X45694600Y46990580D02*
Y47085830D01*
X45773980D01*
X45758100Y47038210D02*
X45694600D01*
Y46990580D02*
X45773980D01*
X45694600Y47244580D02*
Y47339830D01*
X45773980D01*
X45758100Y47292210D02*
X45694600D01*
Y47244580D02*
X45773980D01*
X45694600Y48294810D02*
Y48390060D01*
X45773980D01*
X45758100Y48342440D02*
X45694600D01*
Y48294810D02*
X45773980D01*
X45852000Y43451810D02*
Y43547060D01*
X45931380D01*
X45915500Y43499440D02*
X45852000D01*
Y43451810D02*
X45931380D01*
X45950110Y46903710D02*
X45965990Y46895770D01*
X45973930Y46879900D01*
X45965990Y46864020D01*
X45950110Y46856080D01*
X45894550D01*
Y46951330D01*
X45950110D01*
X45965990Y46943400D01*
X45973930Y46927520D01*
X45965990Y46911650D01*
X45950110Y46903710D01*
X45894550D01*
X45948600Y48294810D02*
Y48390060D01*
X46027980D01*
X46012100Y48342440D02*
X45948600D01*
Y48294810D02*
X46027980D01*
X46087610Y44938710D02*
X46103490Y44930770D01*
X46111430Y44914900D01*
X46103490Y44899020D01*
X46087610Y44891080D01*
X46032050D01*
Y44986330D01*
X46087610D01*
X46103490Y44978400D01*
X46111430Y44962520D01*
X46103490Y44946650D01*
X46087610Y44938710D01*
X46032050D01*
X46132610Y44591210D02*
X46148490Y44583270D01*
X46156430Y44567400D01*
X46148490Y44551520D01*
X46132610Y44543580D01*
X46077050D01*
Y44638830D01*
X46132610D01*
X46148490Y44630900D01*
X46156430Y44615020D01*
X46148490Y44599150D01*
X46132610Y44591210D01*
X46077050D01*
X46135110Y44708710D02*
X46150990Y44700770D01*
X46158930Y44684900D01*
X46150990Y44669020D01*
X46135110Y44661080D01*
X46079550D01*
Y44756330D01*
X46135110D01*
X46150990Y44748400D01*
X46158930Y44732520D01*
X46150990Y44716650D01*
X46135110Y44708710D01*
X46079550D01*
X46147610Y44848710D02*
X46163490Y44840770D01*
X46171430Y44824900D01*
X46163490Y44809020D01*
X46147610Y44801080D01*
X46092050D01*
Y44896330D01*
X46147610D01*
X46163490Y44888400D01*
X46171430Y44872520D01*
X46163490Y44856650D01*
X46147610Y44848710D01*
X46092050D01*
X46106000Y43451810D02*
Y43547060D01*
X46185380D01*
X46169500Y43499440D02*
X46106000D01*
Y43451810D02*
X46185380D01*
X46240110Y44648710D02*
X46255990Y44640770D01*
X46263930Y44624900D01*
X46255990Y44609020D01*
X46240110Y44601080D01*
X46184550D01*
Y44696330D01*
X46240110D01*
X46255990Y44688400D01*
X46263930Y44672520D01*
X46255990Y44656650D01*
X46240110Y44648710D01*
X46184550D01*
X46242610Y44783710D02*
X46258490Y44775770D01*
X46266430Y44759900D01*
X46258490Y44744020D01*
X46242610Y44736080D01*
X46187050D01*
Y44831330D01*
X46242610D01*
X46258490Y44823400D01*
X46266430Y44807520D01*
X46258490Y44791650D01*
X46242610Y44783710D01*
X46187050D01*
X46202600Y48294810D02*
Y48390060D01*
X46281980D01*
X46266100Y48342440D02*
X46202600D01*
Y48294810D02*
X46281980D01*
X46325860Y45711080D02*
X46357610D01*
X46341740D02*
Y45806330D01*
X46325860D02*
X46357610D01*
X46325860Y45836080D02*
X46357610D01*
X46341740D02*
Y45931330D01*
X46325860D02*
X46357610D01*
X46325860Y45961080D02*
X46357610D01*
X46341740D02*
Y46056330D01*
X46325860D02*
X46357610D01*
X46325860Y46086080D02*
X46357610D01*
X46341740D02*
Y46181330D01*
X46325860D02*
X46357610D01*
X46325860Y46211080D02*
X46357610D01*
X46341740D02*
Y46306330D01*
X46325860D02*
X46357610D01*
X46325860Y46336080D02*
X46357610D01*
X46341740D02*
Y46431330D01*
X46325860D02*
X46357610D01*
X46325860Y46461080D02*
X46357610D01*
X46341740D02*
Y46556330D01*
X46325860D02*
X46357610D01*
X46360000Y43451810D02*
Y43547060D01*
X46439380D01*
X46423500Y43499440D02*
X46360000D01*
Y43451810D02*
X46439380D01*
X46426610Y46540830D02*
X46458360D01*
X46442490D02*
Y46636080D01*
X46426610D02*
X46458360D01*
X46429200Y45636510D02*
X46460950D01*
X46445080D02*
Y45731760D01*
X46429200D02*
X46460950D01*
X46494110Y44219210D02*
X46509990Y44211270D01*
X46517930Y44195400D01*
X46509990Y44179520D01*
X46494110Y44171580D01*
X46438550D01*
Y44266830D01*
X46494110D01*
X46509990Y44258900D01*
X46517930Y44243020D01*
X46509990Y44227150D01*
X46494110Y44219210D01*
X46438550D01*
X46494110Y44444210D02*
X46509990Y44436270D01*
X46517930Y44420400D01*
X46509990Y44404520D01*
X46494110Y44396580D01*
X46438550D01*
Y44491830D01*
X46494110D01*
X46509990Y44483900D01*
X46517930Y44468020D01*
X46509990Y44452150D01*
X46494110Y44444210D01*
X46438550D01*
X46456600Y48294810D02*
Y48390060D01*
X46535980D01*
X46520100Y48342440D02*
X46456600D01*
Y48294810D02*
X46535980D01*
X46551610Y46540830D02*
X46583360D01*
X46567490D02*
Y46636080D01*
X46551610D02*
X46583360D01*
X46587610Y44711210D02*
X46603490Y44703270D01*
X46611430Y44687400D01*
X46603490Y44671520D01*
X46587610Y44663580D01*
X46532050D01*
Y44758830D01*
X46587610D01*
X46603490Y44750900D01*
X46611430Y44735020D01*
X46603490Y44719150D01*
X46587610Y44711210D01*
X46532050D01*
X46587610Y45178710D02*
X46603490Y45170770D01*
X46611430Y45154900D01*
X46603490Y45139020D01*
X46587610Y45131080D01*
X46532050D01*
Y45226330D01*
X46587610D01*
X46603490Y45218400D01*
X46611430Y45202520D01*
X46603490Y45186650D01*
X46587610Y45178710D01*
X46532050D01*
X46587610Y45418710D02*
X46603490Y45410770D01*
X46611430Y45394900D01*
X46603490Y45379020D01*
X46587610Y45371080D01*
X46532050D01*
Y45466330D01*
X46587610D01*
X46603490Y45458400D01*
X46611430Y45442520D01*
X46603490Y45426650D01*
X46587610Y45418710D01*
X46532050D01*
X46590110Y44806210D02*
X46605990Y44798270D01*
X46613930Y44782400D01*
X46605990Y44766520D01*
X46590110Y44758580D01*
X46534550D01*
Y44853830D01*
X46590110D01*
X46605990Y44845900D01*
X46613930Y44830020D01*
X46605990Y44814150D01*
X46590110Y44806210D01*
X46534550D01*
X46590110Y44901210D02*
X46605990Y44893270D01*
X46613930Y44877400D01*
X46605990Y44861520D01*
X46590110Y44853580D01*
X46534550D01*
Y44948830D01*
X46590110D01*
X46605990Y44940900D01*
X46613930Y44925020D01*
X46605990Y44909150D01*
X46590110Y44901210D01*
X46534550D01*
X46559200Y45636510D02*
X46590950D01*
X46575080D02*
Y45731760D01*
X46559200D02*
X46590950D01*
X46614000Y43451810D02*
Y43547060D01*
X46693380D01*
X46677500Y43499440D02*
X46614000D01*
Y43451810D02*
X46693380D01*
X46696110Y44219210D02*
X46711990Y44211270D01*
X46719930Y44195400D01*
X46711990Y44179520D01*
X46696110Y44171580D01*
X46640550D01*
Y44266830D01*
X46696110D01*
X46711990Y44258900D01*
X46719930Y44243020D01*
X46711990Y44227150D01*
X46696110Y44219210D01*
X46640550D01*
X46696110Y44444210D02*
X46711990Y44436270D01*
X46719930Y44420400D01*
X46711990Y44404520D01*
X46696110Y44396580D01*
X46640550D01*
Y44491830D01*
X46696110D01*
X46711990Y44483900D01*
X46719930Y44468020D01*
X46711990Y44452150D01*
X46696110Y44444210D01*
X46640550D01*
X46676610Y46540830D02*
X46708360D01*
X46692490D02*
Y46636080D01*
X46676610D02*
X46708360D01*
X46689200Y45636510D02*
X46720950D01*
X46705080D02*
Y45731760D01*
X46689200D02*
X46720950D01*
Y46383710D02*
X46736830Y46375770D01*
X46744770Y46359900D01*
X46736830Y46344020D01*
X46720950Y46336080D01*
X46665390D01*
Y46431330D01*
X46720950D01*
X46736830Y46423400D01*
X46744770Y46407520D01*
X46736830Y46391650D01*
X46720950Y46383710D01*
X46665390D01*
X46710600Y48294810D02*
Y48390060D01*
X46789980D01*
X46774100Y48342440D02*
X46710600D01*
Y48294810D02*
X46789980D01*
X46800610Y48031710D02*
X46816490Y48023770D01*
X46824430Y48007900D01*
X46816490Y47992020D01*
X46800610Y47984080D01*
X46745050D01*
Y48079330D01*
X46800610D01*
X46816490Y48071400D01*
X46824430Y48055520D01*
X46816490Y48039650D01*
X46800610Y48031710D01*
X46745050D01*
X46796610Y46540830D02*
X46828360D01*
X46812490D02*
Y46636080D01*
X46796610D02*
X46828360D01*
X46852610Y45683710D02*
X46868490Y45675770D01*
X46876430Y45659900D01*
X46868490Y45644020D01*
X46852610Y45636080D01*
X46797050D01*
Y45731330D01*
X46852610D01*
X46868490Y45723400D01*
X46876430Y45707520D01*
X46868490Y45691650D01*
X46852610Y45683710D01*
X46797050D01*
X46877610Y47868710D02*
X46893490Y47860770D01*
X46901430Y47844900D01*
X46893490Y47829020D01*
X46877610Y47821080D01*
X46822050D01*
Y47916330D01*
X46877610D01*
X46893490Y47908400D01*
X46901430Y47892520D01*
X46893490Y47876650D01*
X46877610Y47868710D01*
X46822050D01*
X46907610Y47761210D02*
X46923490Y47753270D01*
X46931430Y47737400D01*
X46923490Y47721520D01*
X46907610Y47713580D01*
X46852050D01*
Y47808830D01*
X46907610D01*
X46923490Y47800900D01*
X46931430Y47785020D01*
X46923490Y47769150D01*
X46907610Y47761210D01*
X46852050D01*
X46912610Y44771210D02*
X46928490Y44763270D01*
X46936430Y44747400D01*
X46928490Y44731520D01*
X46912610Y44723580D01*
X46857050D01*
Y44818830D01*
X46912610D01*
X46928490Y44810900D01*
X46936430Y44795020D01*
X46928490Y44779150D01*
X46912610Y44771210D01*
X46857050D01*
X46912610Y44928710D02*
X46928490Y44920770D01*
X46936430Y44904900D01*
X46928490Y44889020D01*
X46912610Y44881080D01*
X46857050D01*
Y44976330D01*
X46912610D01*
X46928490Y44968400D01*
X46936430Y44952520D01*
X46928490Y44936650D01*
X46912610Y44928710D01*
X46857050D01*
X46868000Y43451810D02*
Y43547060D01*
X46947380D01*
X46931500Y43499440D02*
X46868000D01*
Y43451810D02*
X46947380D01*
X46900860Y45940170D02*
X46932610D01*
X46916740D02*
Y46035420D01*
X46900860D02*
X46932610D01*
X46900860Y46070170D02*
X46932610D01*
X46916740D02*
Y46165420D01*
X46900860D02*
X46932610D01*
X46900860Y46200170D02*
X46932610D01*
X46916740D02*
Y46295420D01*
X46900860D02*
X46932610D01*
X46900860Y46330170D02*
X46932610D01*
X46916740D02*
Y46425420D01*
X46900860D02*
X46932610D01*
X46900860Y46460170D02*
X46932610D01*
X46916740D02*
Y46555420D01*
X46900860D02*
X46932610D01*
X46942610Y48031710D02*
X46958490Y48023770D01*
X46966430Y48007900D01*
X46958490Y47992020D01*
X46942610Y47984080D01*
X46887050D01*
Y48079330D01*
X46942610D01*
X46958490Y48071400D01*
X46966430Y48055520D01*
X46958490Y48039650D01*
X46942610Y48031710D01*
X46887050D01*
X46946610Y44373710D02*
X46962490Y44365770D01*
X46970430Y44349900D01*
X46962490Y44334020D01*
X46946610Y44326080D01*
X46891050D01*
Y44421330D01*
X46946610D01*
X46962490Y44413400D01*
X46970430Y44397520D01*
X46962490Y44381650D01*
X46946610Y44373710D01*
X46891050D01*
X46997610Y47878710D02*
X47013490Y47870770D01*
X47021430Y47854900D01*
X47013490Y47839020D01*
X46997610Y47831080D01*
X46942050D01*
Y47926330D01*
X46997610D01*
X47013490Y47918400D01*
X47021430Y47902520D01*
X47013490Y47886650D01*
X46997610Y47878710D01*
X46942050D01*
X47037610Y44373710D02*
X47053490Y44365770D01*
X47061430Y44349900D01*
X47053490Y44334020D01*
X47037610Y44326080D01*
X46982050D01*
Y44421330D01*
X47037610D01*
X47053490Y44413400D01*
X47061430Y44397520D01*
X47053490Y44381650D01*
X47037610Y44373710D01*
X46982050D01*
X47119050Y48291080D02*
Y48386330D01*
X47198430D01*
X47182550Y48338710D02*
X47119050D01*
Y48291080D02*
X47198430D01*
X47122000Y43451810D02*
Y43547060D01*
X47201380D01*
X47185500Y43499440D02*
X47122000D01*
Y43451810D02*
X47201380D01*
X47185110Y44713710D02*
X47200990Y44705770D01*
X47208930Y44689900D01*
X47200990Y44674020D01*
X47185110Y44666080D01*
X47129550D01*
Y44761330D01*
X47185110D01*
X47200990Y44753400D01*
X47208930Y44737520D01*
X47200990Y44721650D01*
X47185110Y44713710D01*
X47129550D01*
X47242610Y44213710D02*
X47258490Y44205770D01*
X47266430Y44189900D01*
X47258490Y44174020D01*
X47242610Y44166080D01*
X47187050D01*
Y44261330D01*
X47242610D01*
X47258490Y44253400D01*
X47266430Y44237520D01*
X47258490Y44221650D01*
X47242610Y44213710D01*
X47187050D01*
X47311050Y43942080D02*
X47350740Y44037330D01*
X47390430Y43942080D01*
X47326930Y43981770D02*
X47374550D01*
X47422610Y45861210D02*
X47438490Y45853270D01*
X47446430Y45837400D01*
X47438490Y45821520D01*
X47422610Y45813580D01*
X47367050D01*
Y45908830D01*
X47422610D01*
X47438490Y45900900D01*
X47446430Y45885020D01*
X47438490Y45869150D01*
X47422610Y45861210D01*
X47367050D01*
X47425110Y47296210D02*
X47440990Y47288270D01*
X47448930Y47272400D01*
X47440990Y47256520D01*
X47425110Y47248580D01*
X47369550D01*
Y47343830D01*
X47425110D01*
X47440990Y47335900D01*
X47448930Y47320020D01*
X47440990Y47304150D01*
X47425110Y47296210D01*
X47369550D01*
X47427610Y46063710D02*
X47443490Y46055770D01*
X47451430Y46039900D01*
X47443490Y46024020D01*
X47427610Y46016080D01*
X47372050D01*
Y46111330D01*
X47427610D01*
X47443490Y46103400D01*
X47451430Y46087520D01*
X47443490Y46071650D01*
X47427610Y46063710D01*
X47372050D01*
X47373050Y48291080D02*
Y48386330D01*
X47452430D01*
X47436550Y48338710D02*
X47373050D01*
Y48291080D02*
X47452430D01*
X47437610Y45018710D02*
X47453490Y45010770D01*
X47461430Y44994900D01*
X47453490Y44979020D01*
X47437610Y44971080D01*
X47382050D01*
Y45066330D01*
X47437610D01*
X47453490Y45058400D01*
X47461430Y45042520D01*
X47453490Y45026650D01*
X47437610Y45018710D01*
X47382050D01*
X47443610Y45443710D02*
X47459490Y45435770D01*
X47467430Y45419900D01*
X47459490Y45404020D01*
X47443610Y45396080D01*
X47388050D01*
Y45491330D01*
X47443610D01*
X47459490Y45483400D01*
X47467430Y45467520D01*
X47459490Y45451650D01*
X47443610Y45443710D01*
X47388050D01*
X47446610Y45536210D02*
X47462490Y45528270D01*
X47470430Y45512400D01*
X47462490Y45496520D01*
X47446610Y45488580D01*
X47391050D01*
Y45583830D01*
X47446610D01*
X47462490Y45575900D01*
X47470430Y45560020D01*
X47462490Y45544150D01*
X47446610Y45536210D01*
X47391050D01*
X47487610Y47176210D02*
X47503490Y47168270D01*
X47511430Y47152400D01*
X47503490Y47136520D01*
X47487610Y47128580D01*
X47432050D01*
Y47223830D01*
X47487610D01*
X47503490Y47215900D01*
X47511430Y47200020D01*
X47503490Y47184150D01*
X47487610Y47176210D01*
X47432050D01*
X47497610Y44213710D02*
X47513490Y44205770D01*
X47521430Y44189900D01*
X47513490Y44174020D01*
X47497610Y44166080D01*
X47442050D01*
Y44261330D01*
X47497610D01*
X47513490Y44253400D01*
X47521430Y44237520D01*
X47513490Y44221650D01*
X47497610Y44213710D01*
X47442050D01*
X47497610Y44928710D02*
X47513490Y44920770D01*
X47521430Y44904900D01*
X47513490Y44889020D01*
X47497610Y44881080D01*
X47442050D01*
Y44976330D01*
X47497610D01*
X47513490Y44968400D01*
X47521430Y44952520D01*
X47513490Y44936650D01*
X47497610Y44928710D01*
X47442050D01*
X47517610Y45861210D02*
X47533490Y45853270D01*
X47541430Y45837400D01*
X47533490Y45821520D01*
X47517610Y45813580D01*
X47462050D01*
Y45908830D01*
X47517610D01*
X47533490Y45900900D01*
X47541430Y45885020D01*
X47533490Y45869150D01*
X47517610Y45861210D01*
X47462050D01*
X47542610Y44773710D02*
X47558490Y44765770D01*
X47566430Y44749900D01*
X47558490Y44734020D01*
X47542610Y44726080D01*
X47487050D01*
Y44821330D01*
X47542610D01*
X47558490Y44813400D01*
X47566430Y44797520D01*
X47558490Y44781650D01*
X47542610Y44773710D01*
X47487050D01*
X47550110Y47293710D02*
X47565990Y47285770D01*
X47573930Y47269900D01*
X47565990Y47254020D01*
X47550110Y47246080D01*
X47494550D01*
Y47341330D01*
X47550110D01*
X47565990Y47333400D01*
X47573930Y47317520D01*
X47565990Y47301650D01*
X47550110Y47293710D01*
X47494550D01*
X47557610Y45018710D02*
X47573490Y45010770D01*
X47581430Y44994900D01*
X47573490Y44979020D01*
X47557610Y44971080D01*
X47502050D01*
Y45066330D01*
X47557610D01*
X47573490Y45058400D01*
X47581430Y45042520D01*
X47573490Y45026650D01*
X47557610Y45018710D01*
X47502050D01*
X47607610Y47176210D02*
X47623490Y47168270D01*
X47631430Y47152400D01*
X47623490Y47136520D01*
X47607610Y47128580D01*
X47552050D01*
Y47223830D01*
X47607610D01*
X47623490Y47215900D01*
X47631430Y47200020D01*
X47623490Y47184150D01*
X47607610Y47176210D01*
X47552050D01*
X47637610Y44773710D02*
X47653490Y44765770D01*
X47661430Y44749900D01*
X47653490Y44734020D01*
X47637610Y44726080D01*
X47582050D01*
Y44821330D01*
X47637610D01*
X47653490Y44813400D01*
X47661430Y44797520D01*
X47653490Y44781650D01*
X47637610Y44773710D01*
X47582050D01*
X47647610Y45254710D02*
X47663490Y45246770D01*
X47671430Y45230900D01*
X47663490Y45215020D01*
X47647610Y45207080D01*
X47592050D01*
Y45302330D01*
X47647610D01*
X47663490Y45294400D01*
X47671430Y45278520D01*
X47663490Y45262650D01*
X47647610Y45254710D01*
X47592050D01*
X47615000Y43451810D02*
Y43547060D01*
X47694380D01*
X47678500Y43499440D02*
X47615000D01*
Y43451810D02*
X47694380D01*
X47682610Y47766210D02*
X47698490Y47758270D01*
X47706430Y47742400D01*
X47698490Y47726520D01*
X47682610Y47718580D01*
X47627050D01*
Y47813830D01*
X47682610D01*
X47698490Y47805900D01*
X47706430Y47790020D01*
X47698490Y47774150D01*
X47682610Y47766210D01*
X47627050D01*
X47682610Y47898710D02*
X47698490Y47890770D01*
X47706430Y47874900D01*
X47698490Y47859020D01*
X47682610Y47851080D01*
X47627050D01*
Y47946330D01*
X47682610D01*
X47698490Y47938400D01*
X47706430Y47922520D01*
X47698490Y47906650D01*
X47682610Y47898710D01*
X47627050D01*
Y48291080D02*
Y48386330D01*
X47706430D01*
X47690550Y48338710D02*
X47627050D01*
Y48291080D02*
X47706430D01*
X47687610Y47663710D02*
X47703490Y47655770D01*
X47711430Y47639900D01*
X47703490Y47624020D01*
X47687610Y47616080D01*
X47632050D01*
Y47711330D01*
X47687610D01*
X47703490Y47703400D01*
X47711430Y47687520D01*
X47703490Y47671650D01*
X47687610Y47663710D01*
X47632050D01*
X47730110Y44771210D02*
X47745990Y44763270D01*
X47753930Y44747400D01*
X47745990Y44731520D01*
X47730110Y44723580D01*
X47674550D01*
Y44818830D01*
X47730110D01*
X47745990Y44810900D01*
X47753930Y44795020D01*
X47745990Y44779150D01*
X47730110Y44771210D01*
X47674550D01*
X47862610Y44528710D02*
X47878490Y44520770D01*
X47886430Y44504900D01*
X47878490Y44489020D01*
X47862610Y44481080D01*
X47807050D01*
Y44576330D01*
X47862610D01*
X47878490Y44568400D01*
X47886430Y44552520D01*
X47878490Y44536650D01*
X47862610Y44528710D01*
X47807050D01*
X47890360Y46631210D02*
X47906240Y46623270D01*
X47914180Y46607400D01*
X47906240Y46591520D01*
X47890360Y46583580D01*
X47834800D01*
Y46678830D01*
X47890360D01*
X47906240Y46670900D01*
X47914180Y46655020D01*
X47906240Y46639150D01*
X47890360Y46631210D01*
X47834800D01*
X47890360Y46881210D02*
X47906240Y46873270D01*
X47914180Y46857400D01*
X47906240Y46841520D01*
X47890360Y46833580D01*
X47834800D01*
Y46928830D01*
X47890360D01*
X47906240Y46920900D01*
X47914180Y46905020D01*
X47906240Y46889150D01*
X47890360Y46881210D01*
X47834800D01*
X47897860Y46373710D02*
X47913740Y46365770D01*
X47921680Y46349900D01*
X47913740Y46334020D01*
X47897860Y46326080D01*
X47842300D01*
Y46421330D01*
X47897860D01*
X47913740Y46413400D01*
X47921680Y46397520D01*
X47913740Y46381650D01*
X47897860Y46373710D01*
X47842300D01*
X47902860Y46131210D02*
X47918740Y46123270D01*
X47926680Y46107400D01*
X47918740Y46091520D01*
X47902860Y46083580D01*
X47847300D01*
Y46178830D01*
X47902860D01*
X47918740Y46170900D01*
X47926680Y46155020D01*
X47918740Y46139150D01*
X47902860Y46131210D01*
X47847300D01*
X47869000Y43451810D02*
Y43547060D01*
X47948380D01*
X47932500Y43499440D02*
X47869000D01*
Y43451810D02*
X47948380D01*
X47930610Y47601210D02*
X47946490Y47593270D01*
X47954430Y47577400D01*
X47946490Y47561520D01*
X47930610Y47553580D01*
X47875050D01*
Y47648830D01*
X47930610D01*
X47946490Y47640900D01*
X47954430Y47625020D01*
X47946490Y47609150D01*
X47930610Y47601210D01*
X47875050D01*
X47930610Y47840710D02*
X47946490Y47832770D01*
X47954430Y47816900D01*
X47946490Y47801020D01*
X47930610Y47793080D01*
X47875050D01*
Y47888330D01*
X47930610D01*
X47946490Y47880400D01*
X47954430Y47864520D01*
X47946490Y47848650D01*
X47930610Y47840710D01*
X47875050D01*
X47881050Y48291080D02*
Y48386330D01*
X47960430D01*
X47944550Y48338710D02*
X47881050D01*
Y48291080D02*
X47960430D01*
X48064380Y45527710D02*
X48080260Y45519770D01*
X48088200Y45503900D01*
X48080260Y45488020D01*
X48064380Y45480080D01*
X48008820D01*
Y45575330D01*
X48064380D01*
X48080260Y45567400D01*
X48088200Y45551520D01*
X48080260Y45535650D01*
X48064380Y45527710D01*
X48008820D01*
X48082610Y45093710D02*
X48098490Y45085770D01*
X48106430Y45069900D01*
X48098490Y45054020D01*
X48082610Y45046080D01*
X48027050D01*
Y45141330D01*
X48082610D01*
X48098490Y45133400D01*
X48106430Y45117520D01*
X48098490Y45101650D01*
X48082610Y45093710D01*
X48027050D01*
X48123000Y43451810D02*
Y43547060D01*
X48202380D01*
X48186500Y43499440D02*
X48123000D01*
Y43451810D02*
X48202380D01*
X48179480Y45527710D02*
X48195360Y45519770D01*
X48203300Y45503900D01*
X48195360Y45488020D01*
X48179480Y45480080D01*
X48123920D01*
Y45575330D01*
X48179480D01*
X48195360Y45567400D01*
X48203300Y45551520D01*
X48195360Y45535650D01*
X48179480Y45527710D01*
X48123920D01*
X48135050Y48291080D02*
Y48386330D01*
X48214430D01*
X48198550Y48338710D02*
X48135050D01*
Y48291080D02*
X48214430D01*
X48294570Y45527710D02*
X48310450Y45519770D01*
X48318390Y45503900D01*
X48310450Y45488020D01*
X48294570Y45480080D01*
X48239010D01*
Y45575330D01*
X48294570D01*
X48310450Y45567400D01*
X48318390Y45551520D01*
X48310450Y45535650D01*
X48294570Y45527710D01*
X48239010D01*
X48401610D02*
X48417490Y45519770D01*
X48425430Y45503900D01*
X48417490Y45488020D01*
X48401610Y45480080D01*
X48346050D01*
Y45575330D01*
X48401610D01*
X48417490Y45567400D01*
X48425430Y45551520D01*
X48417490Y45535650D01*
X48401610Y45527710D01*
X48346050D01*
X48377000Y43451810D02*
Y43547060D01*
X48456380D01*
X48440500Y43499440D02*
X48377000D01*
Y43451810D02*
X48456380D01*
X48389050Y48291080D02*
Y48386330D01*
X48468430D01*
X48452550Y48338710D02*
X48389050D01*
Y48291080D02*
X48468430D01*
X48493610Y45353710D02*
X48509490Y45345770D01*
X48517430Y45329900D01*
X48509490Y45314020D01*
X48493610Y45306080D01*
X48438050D01*
Y45401330D01*
X48493610D01*
X48509490Y45393400D01*
X48517430Y45377520D01*
X48509490Y45361650D01*
X48493610Y45353710D01*
X48438050D01*
X48517610Y45229710D02*
X48533490Y45221770D01*
X48541430Y45205900D01*
X48533490Y45190020D01*
X48517610Y45182080D01*
X48462050D01*
Y45277330D01*
X48517610D01*
X48533490Y45269400D01*
X48541430Y45253520D01*
X48533490Y45237650D01*
X48517610Y45229710D01*
X48462050D01*
X48631000Y43451810D02*
Y43547060D01*
X48710380D01*
X48694500Y43499440D02*
X48631000D01*
Y43451810D02*
X48710380D01*
X48643050Y48291080D02*
Y48386330D01*
X48722430D01*
X48706550Y48338710D02*
X48643050D01*
Y48291080D02*
X48722430D01*
X48885000Y43451810D02*
Y43547060D01*
X48964380D01*
X48948500Y43499440D02*
X48885000D01*
Y43451810D02*
X48964380D01*
X48885000Y47406960D02*
X48892940Y47399020D01*
X48908810Y47391080D01*
X48924690Y47399020D01*
X48932630Y47406960D01*
Y47486330D01*
X48948500D01*
X48932630D02*
X48900880D01*
X48885490Y44361430D02*
X48893430Y44353490D01*
X48909300Y44345550D01*
X48925180Y44353490D01*
X48933120Y44361430D01*
Y44440800D01*
X48948990D01*
X48933120D02*
X48901370D01*
X48895050Y45790080D02*
Y45885330D01*
X48974430D01*
X48958550Y45837710D02*
X48895050D01*
Y45790080D02*
X48974430D01*
X48895050Y46044080D02*
Y46139330D01*
X48974430D01*
X48958550Y46091710D02*
X48895050D01*
Y46044080D02*
X48974430D01*
X48895050Y46298080D02*
Y46393330D01*
X48974430D01*
X48958550Y46345710D02*
X48895050D01*
Y46298080D02*
X48974430D01*
X48895050Y46552080D02*
Y46647330D01*
X48974430D01*
X48958550Y46599710D02*
X48895050D01*
Y46552080D02*
X48974430D01*
X48895050Y46806080D02*
Y46901330D01*
X48974430D01*
X48958550Y46853710D02*
X48895050D01*
Y46806080D02*
X48974430D01*
X48897050Y48291080D02*
Y48386330D01*
X48976430D01*
X48960550Y48338710D02*
X48897050D01*
Y48291080D02*
X48976430D01*
X49196050Y45790080D02*
Y45885330D01*
X49275430D01*
X49259550Y45837710D02*
X49196050D01*
Y45790080D02*
X49275430D01*
X49196050Y46044080D02*
Y46139330D01*
X49275430D01*
X49259550Y46091710D02*
X49196050D01*
Y46044080D02*
X49275430D01*
X49196050Y46298080D02*
Y46393330D01*
X49275430D01*
X49259550Y46345710D02*
X49196050D01*
Y46298080D02*
X49275430D01*
X49196050Y46552080D02*
Y46647330D01*
X49275430D01*
X49259550Y46599710D02*
X49196050D01*
Y46552080D02*
X49275430D01*
X49196050Y46806080D02*
Y46901330D01*
X49275430D01*
X49259550Y46853710D02*
X49196050D01*
Y46806080D02*
X49275430D01*
X49302050Y45101080D02*
X49341740Y45196330D01*
X49381430Y45101080D01*
X49317930Y45140770D02*
X49365550D01*
D02*
D149*
X42529550Y44557520D03*
Y45084520D03*
X42546050Y47710270D03*
Y48160270D03*
X42678050Y44820270D03*
X42725550Y46460270D03*
Y47305270D03*
X42900550Y46460270D03*
Y47305270D03*
X42913050Y44820270D03*
X42959080Y46100270D03*
X43070050Y45882270D03*
X43070550Y46522770D03*
Y47242770D03*
X43196050Y47710270D03*
Y48160270D03*
X43318050Y44820270D03*
X43476050Y45053570D03*
X43482050Y45597270D03*
X43603050Y45250270D03*
X43648050Y48036320D03*
X43713050Y46620270D03*
X43718050Y47492270D03*
X43788050Y45250270D03*
X43843050Y46620270D03*
X43863050Y46390270D03*
X43869050Y43330270D03*
X43975050Y45560270D03*
X43979050Y43778270D03*
X44098050Y46535270D03*
X44153800Y44279270D03*
X44165550Y47847770D03*
X44170600Y48144000D03*
X44213050Y45251770D03*
Y45350270D03*
Y45450270D03*
X44233050Y46535270D03*
X44283050Y46645270D03*
X44419550Y47847770D03*
X44424600Y48144000D03*
X44483050Y45535270D03*
X44498050Y47450270D03*
X44545550Y46732770D03*
X44596050Y43778270D03*
X44673550Y47847770D03*
X44678600Y48144000D03*
X44793050Y44955270D03*
X44932600Y48144000D03*
X45033050Y44280270D03*
X45051050Y45535270D03*
X45090000Y43301000D03*
X45186600Y46077770D03*
Y46331770D03*
Y46585770D03*
Y46839770D03*
Y47093770D03*
Y48144000D03*
X45206050Y43778270D03*
X45344000Y43301000D03*
X45398050Y44735270D03*
Y44895270D03*
X45440600Y46077770D03*
Y46331770D03*
Y46585770D03*
Y46839770D03*
Y47093770D03*
Y48144000D03*
X45598000Y43301000D03*
X45640550Y46705270D03*
X45694600Y48144000D03*
X45778050Y44740270D03*
X45823050Y44392770D03*
X45825550Y44510270D03*
X45838050Y44650270D03*
X45852000Y43301000D03*
X45930550Y44450270D03*
X45933050Y44585270D03*
X45948600Y48144000D03*
X46048050Y45560270D03*
Y45685270D03*
Y45810270D03*
Y45935270D03*
Y46060270D03*
Y46185270D03*
Y46310270D03*
X46106000Y43301000D03*
X46148800Y46390020D03*
X46151390Y45485700D03*
X46184550Y44020770D03*
Y44245770D03*
X46202600Y48144000D03*
X46273800Y46390020D03*
X46278050Y44512770D03*
Y44980270D03*
Y45220270D03*
X46280550Y44607770D03*
Y44702770D03*
X46281390Y45485700D03*
X46360000Y43301000D03*
X46386550Y44020770D03*
Y44245770D03*
X46398800Y46390020D03*
X46411390Y45485700D03*
Y46185270D03*
X46456600Y48144000D03*
X46491050Y47833270D03*
X46518800Y46390020D03*
X46543050Y45485270D03*
X46568050Y47670270D03*
X46598050Y47562770D03*
X46603050Y44572770D03*
Y44730270D03*
X46614000Y43301000D03*
X46623050Y45789360D03*
Y45919360D03*
Y46049360D03*
Y46179360D03*
Y46309360D03*
X46633050Y47833270D03*
X46637050Y44175270D03*
X46688050Y47680270D03*
X46728050Y44175270D03*
X46865050Y48140270D03*
X46868000Y43301000D03*
X46875550Y44515270D03*
X46933050Y44015270D03*
X47057050Y43791270D03*
X47113050Y45662770D03*
X47115550Y47097770D03*
X47118050Y45865270D03*
X47119050Y48140270D03*
X47128050Y44820270D03*
X47134050Y45245270D03*
X47137050Y45337770D03*
X47178050Y46977770D03*
X47188050Y44015270D03*
Y44730270D03*
X47208050Y45662770D03*
X47233050Y44575270D03*
X47240550Y47095270D03*
X47248050Y44820270D03*
X47298050Y46977770D03*
X47328050Y44575270D03*
X47338050Y45056270D03*
X47361000Y43301000D03*
X47373050Y47567770D03*
Y47700270D03*
Y48140270D03*
X47378050Y47465270D03*
X47420550Y44572770D03*
X47553050Y44330270D03*
X47580800Y46432770D03*
Y46682770D03*
X47588300Y46175270D03*
X47593300Y45932770D03*
X47615000Y43301000D03*
X47621050Y47402770D03*
Y47642270D03*
X47627050Y48140270D03*
X47754820Y45329270D03*
X47773050Y44895270D03*
X47869000Y43301000D03*
X47869920Y45329270D03*
X47881050Y48140270D03*
X47985010Y45329270D03*
X48092050D03*
X48123000Y43301000D03*
X48135050Y48140270D03*
X48184050Y45155270D03*
X48208050Y45031270D03*
X48377000Y43301000D03*
X48389050Y48140270D03*
X48631000Y43301000D03*
Y47240270D03*
X48631490Y44194740D03*
X48641050Y45639270D03*
Y45893270D03*
Y46147270D03*
Y46401270D03*
Y46655270D03*
X48643050Y48140270D03*
X48942050Y45639270D03*
Y45893270D03*
Y46147270D03*
Y46401270D03*
Y46655270D03*
X49048050Y44950270D03*
D02*
D150*
X42725550Y43810270D03*
X43355550D03*
D02*
D151*
X43065550Y43330270D03*
X0Y0D02*
M02*
