G04 DesignSpark PCB Gerber Version 13.0 Build *
%FSLAX35Y35*%
%MOMM*%
%AMT147*0 Rounded Rectangle Pad at angle 0*4,1,44,-0.20000,-1.00000,0.20000,-1.00000,0.24690,-0.99630,0.29260,-0.98530,0.33600,-0.96730,0.37610,-0.94270,0.41180,-0.91210,0.44230,-0.87630,0.46680,-0.83620,0.48480,-0.79270,0.49570,-0.74700,0.50000,-0.70000,0.50000,0.70000,0.49630,0.74690,0.48530,0.79260,0.46730,0.83600,0.44270,0.87610,0.41210,0.91180,0.37630,0.94230,0.33620,0.96680,0.29270,0.98480,0.24700,0.99570,0.20000,1.00000,-0.20000,1.00000,-0.24690,0.99630,-0.29260,0.98530,-0.33600,0.96730,-0.37610,0.94270,-0.41180,0.91210,-0.44230,0.87630,-0.46680,0.83620,-0.48480,0.79270,-0.49570,0.74700,-0.50000,0.70000,-0.50000,-0.70000,-0.49630,-0.74690,-0.48530,-0.79260,-0.46730,-0.83600,-0.44270,-0.87610,-0.41210,-0.91180,-0.37630,-0.94230,-0.33620,-0.96680,-0.29270,-0.98480,-0.24700,-0.99570,-0.20000,-1.00000,0*%
%ADD147T147*%
%ADD140C,0.20000*%
%ADD141C,0.40000*%
%ADD139C,0.40640*%
%ADD142C,0.88900*%
%ADD145C,1.00000*%
%AMT148*0 Rounded Rectangle Pad at angle 90*4,1,44,1.00000,-0.20000,1.00000,0.20000,0.99630,0.24690,0.98530,0.29260,0.96730,0.33600,0.94270,0.37610,0.91210,0.41180,0.87630,0.44230,0.83620,0.46680,0.79270,0.48480,0.74700,0.49570,0.70000,0.50000,-0.70000,0.50000,-0.74690,0.49630,-0.79260,0.48530,-0.83600,0.46730,-0.87610,0.44270,-0.91180,0.41210,-0.94230,0.37630,-0.96680,0.33620,-0.98480,0.29270,-0.99570,0.24700,-1.00000,0.20000,-1.00000,-0.20000,-0.99630,-0.24690,-0.98530,-0.29260,-0.96730,-0.33600,-0.94270,-0.37610,-0.91210,-0.41180,-0.87630,-0.44230,-0.83620,-0.46680,-0.79270,-0.48480,-0.74700,-0.49570,-0.70000,-0.50000,0.70000,-0.50000,0.74690,-0.49630,0.79260,-0.48530,0.83600,-0.46730,0.87610,-0.44270,0.91180,-0.41210,0.94230,-0.37630,0.96680,-0.33620,0.98480,-0.29270,0.99570,-0.24700,1.00000,-0.20000,0*%
%ADD148T148*%
%ADD143C,1.15000*%
%ADD144C,1.30000*%
%ADD146C,2.05000*%
X0Y0D02*
D02*
D139*
X43070050Y45882270D03*
X43718050Y47492270D03*
X43979050Y43778270D03*
X44153800Y44279270D03*
X44498050Y47450270D03*
X44596050Y43778270D03*
X45033050Y44280270D03*
X45051050Y45535270D03*
X45206050Y43778270D03*
X47057050Y43791270D03*
X49048050Y44950270D03*
D02*
D140*
X42529550Y44557520D03*
Y45084520D03*
X42678050Y44820270D03*
X42913050D03*
X42959080Y46100270D03*
X43318050Y44820270D03*
X43476050Y45053570D03*
X43482050Y45597270D03*
X43603050Y45250270D03*
X43713050Y46620270D03*
X43788050Y45250270D03*
X43843050Y46620270D03*
X43863050Y46390270D03*
X43975050Y45560270D03*
X44098050Y46535270D03*
X44213050Y45251770D03*
Y45350270D03*
Y45450270D03*
X44233050Y46535270D03*
X44283050Y46645270D03*
X44483050Y45535270D03*
X44545550Y46732770D03*
X44793050Y44955270D03*
X45398050Y44735270D03*
Y44895270D03*
X45640550Y46705270D03*
X45778050Y44740270D03*
X45823050Y44392770D03*
X45825550Y44510270D03*
X45838050Y44650270D03*
X45930550Y44450270D03*
X45933050Y44585270D03*
X46184550Y44020770D03*
Y44245770D03*
X46278050Y44512770D03*
Y44980270D03*
Y45220270D03*
X46280550Y44607770D03*
Y44702770D03*
X46386550Y44020770D03*
Y44245770D03*
X46411390Y46185270D03*
X46491050Y47833270D03*
X46543050Y45485270D03*
X46568050Y47670270D03*
X46598050Y47562770D03*
X46603050Y44572770D03*
Y44730270D03*
X46633050Y47833270D03*
X46637050Y44175270D03*
X46688050Y47680270D03*
X46728050Y44175270D03*
X46875550Y44515270D03*
X46933050Y44015270D03*
X47113050Y45662770D03*
X47115550Y47097770D03*
X47118050Y45865270D03*
X47128050Y44820270D03*
X47134050Y45245270D03*
X47137050Y45337770D03*
X47178050Y46977770D03*
X47188050Y44015270D03*
Y44730270D03*
X47208050Y45662770D03*
X47233050Y44575270D03*
X47240550Y47095270D03*
X47248050Y44820270D03*
X47298050Y46977770D03*
X47328050Y44575270D03*
X47338050Y45056270D03*
X47373050Y47567770D03*
Y47700270D03*
X47378050Y47465270D03*
X47420550Y44572770D03*
X47553050Y44330270D03*
X47580800Y46432770D03*
Y46682770D03*
X47588300Y46175270D03*
X47593300Y45932770D03*
X47621050Y47402770D03*
Y47642270D03*
X47754820Y45329270D03*
X47773050Y44895270D03*
X47869920Y45329270D03*
X47985010D03*
X48092050D03*
X48184050Y45155270D03*
X48208050Y45031270D03*
D02*
D141*
X46048050Y45560270D03*
Y45685270D03*
Y45810270D03*
Y45935270D03*
Y46060270D03*
Y46185270D03*
Y46310270D03*
X46148800Y46390020D03*
X46151390Y45485700D03*
X46273800Y46390020D03*
X46281390Y45485700D03*
X46398800Y46390020D03*
X46411390Y45485700D03*
X46518800Y46390020D03*
X46623050Y45789360D03*
Y45919360D03*
Y46049360D03*
Y46179360D03*
Y46309360D03*
D02*
D142*
X44165550Y47847770D03*
X44170600Y48144000D03*
X44419550Y47847770D03*
X44424600Y48144000D03*
X44673550Y47847770D03*
X44678600Y48144000D03*
X44932600D03*
X45090000Y43301000D03*
X45186600Y46077770D03*
Y46331770D03*
Y46585770D03*
Y46839770D03*
Y47093770D03*
Y48144000D03*
X45344000Y43301000D03*
X45440600Y46077770D03*
Y46331770D03*
Y46585770D03*
Y46839770D03*
Y47093770D03*
Y48144000D03*
X45598000Y43301000D03*
X45694600Y48144000D03*
X45852000Y43301000D03*
X45948600Y48144000D03*
X46106000Y43301000D03*
X46202600Y48144000D03*
X46360000Y43301000D03*
X46456600Y48144000D03*
X46614000Y43301000D03*
X46865050Y48140270D03*
X46868000Y43301000D03*
X47119050Y48140270D03*
X47361000Y43301000D03*
X47373050Y48140270D03*
X47615000Y43301000D03*
X47627050Y48140270D03*
X47869000Y43301000D03*
X47881050Y48140270D03*
X48123000Y43301000D03*
X48135050Y48140270D03*
X48377000Y43301000D03*
X48389050Y48140270D03*
X48631000Y43301000D03*
X48641050Y45639270D03*
Y45893270D03*
Y46147270D03*
Y46401270D03*
Y46655270D03*
X48643050Y48140270D03*
X48942050Y45639270D03*
Y45893270D03*
Y46147270D03*
Y46401270D03*
Y46655270D03*
D02*
D143*
X43070550Y46522770D03*
Y47242770D03*
D02*
D144*
X42725550Y46460270D03*
Y47305270D03*
X42900550Y46460270D03*
Y47305270D03*
D02*
D145*
X42546050Y47710270D03*
Y48160270D03*
X43196050Y47710270D03*
Y48160270D03*
D02*
D146*
X43648050Y48036320D03*
X43869050Y43330270D03*
X48631000Y47240270D03*
X48631490Y44194740D03*
D02*
D147*
X42705550Y43710270D02*
G36*
X42705550Y43710270D02*
X42745550D01*
G75*
G03*
X42775550Y43740270I0J30000D01*
G01*
Y43880270D01*
G75*
G03*
X42745550Y43910270I-30000J0D01*
G01*
X42705550D01*
G75*
G03*
X42675550Y43880270I0J-30000D01*
G01*
Y43740270D01*
G75*
G03*
X42705550Y43710270I30000J0D01*
G01*
G37*
X43335550D02*
G36*
X43335550Y43710270D02*
X43375550D01*
G75*
G03*
X43405550Y43740270I0J30000D01*
G01*
Y43880270D01*
G75*
G03*
X43375550Y43910270I-30000J0D01*
G01*
X43335550D01*
G75*
G03*
X43305550Y43880270I0J-30000D01*
G01*
Y43740270D01*
G75*
G03*
X43335550Y43710270I30000J0D01*
G01*
G37*
D02*
D148*
X43165550Y43310270D02*
G36*
X43165550Y43310270D02*
Y43350270D01*
G75*
G03*
X43135550Y43380270I-30000J0D01*
G01*
X42995550D01*
G75*
G03*
X42965550Y43350270I0J-30000D01*
G01*
Y43310270D01*
G75*
G03*
X42995550Y43280270I30000J0D01*
G01*
X43135550D01*
G75*
G03*
X43165550Y43310270I0J30000D01*
G01*
G37*
X0Y0D02*
M02*
