G04 DesignSpark PCB Gerber Version 13.0 Build *
%FSLAX35Y35*%
%MOMM*%
%AMT27*0 Rounded Rectangle Pad at angle 0*4,1,32,-0.07500,-0.32500,0.07500,-0.32500,0.10830,-0.32120,0.13990,-0.31010,0.16830,-0.29220,0.19200,-0.26850,0.20980,-0.24010,0.22090,-0.20840,0.22500,-0.17500,0.22500,0.17500,0.22120,0.20830,0.21010,0.23990,0.19220,0.26830,0.16850,0.29200,0.14010,0.30980,0.10840,0.32090,0.07500,0.32500,-0.07500,0.32500,-0.10830,0.32120,-0.13990,0.31010,-0.16830,0.29220,-0.19200,0.26850,-0.20980,0.24010,-0.22090,0.20840,-0.22500,0.17500,-0.22500,-0.17500,-0.22120,-0.20830,-0.21010,-0.23990,-0.19220,-0.26830,-0.16850,-0.29200,-0.14010,-0.30980,-0.10840,-0.32090,-0.07500,-0.32500,0*%
%ADD27T27*%
%AMT95*0 Rounded Rectangle Pad at angle 0*4,1,44,-0.70000,-2.00000,0.70000,-2.00000,0.74690,-1.99630,0.79260,-1.98530,0.83600,-1.96730,0.87610,-1.94270,0.91180,-1.91210,0.94230,-1.87630,0.96680,-1.83620,0.98480,-1.79270,0.99570,-1.74700,1.00000,-1.70000,1.00000,1.70000,0.99630,1.74690,0.98530,1.79260,0.96730,1.83600,0.94270,1.87610,0.91210,1.91180,0.87630,1.94230,0.83620,1.96680,0.79270,1.98480,0.74700,1.99570,0.70000,2.00000,-0.70000,2.00000,-0.74690,1.99630,-0.79260,1.98530,-0.83600,1.96730,-0.87610,1.94270,-0.91180,1.91210,-0.94230,1.87630,-0.96680,1.83620,-0.98480,1.79270,-0.99570,1.74700,-1.00000,1.70000,-1.00000,-1.70000,-0.99630,-1.74690,-0.98530,-1.79260,-0.96730,-1.83600,-0.94270,-1.87610,-0.91210,-1.91180,-0.87630,-1.94230,-0.83620,-1.96680,-0.79270,-1.98480,-0.74700,-1.99570,-0.70000,-2.00000,0*%
%ADD95T95*%
%ADD77R,1.52400X1.52400*%
%ADD21C,0.00001*%
%ADD18C,0.20000*%
%ADD23C,0.80000*%
%ADD24C,0.81280*%
%AMT72*0 Rounded Rectangle Pad at angle 45*4,1,32,0.17670,-0.28280,0.28280,-0.17670,0.30370,-0.15040,0.31820,-0.12010,0.32560,-0.08730,0.32550,-0.05370,0.31790,-0.02100,0.30330,0.00910,0.28280,0.03530,0.03530,0.28280,0.00900,0.30370,-0.02120,0.31820,-0.05390,0.32560,-0.08740,0.32560,-0.12000,0.31810,-0.15020,0.30350,-0.17670,0.28280,-0.28280,0.17670,-0.30370,0.15040,-0.31820,0.12010,-0.32560,0.08730,-0.32550,0.05370,-0.31790,0.02100,-0.30330,-0.00910,-0.28280,-0.03530,-0.03530,-0.28280,-0.00900,-0.30370,0.02120,-0.31820,0.05390,-0.32560,0.08740,-0.32560,0.12000,-0.31810,0.15020,-0.30350,0.17670,-0.28280,0*%
%ADD72T72*%
%AMT26*0 Rounded Rectangle Pad at angle 90*4,1,32,0.32500,-0.07500,0.32500,0.07500,0.32120,0.10830,0.31010,0.13990,0.29220,0.16830,0.26850,0.19200,0.24010,0.20980,0.20840,0.22090,0.17500,0.22500,-0.17500,0.22500,-0.20830,0.22120,-0.23990,0.21010,-0.26830,0.19220,-0.29200,0.16850,-0.30980,0.14010,-0.32090,0.10840,-0.32500,0.07500,-0.32500,-0.07500,-0.32120,-0.10830,-0.31010,-0.13990,-0.29220,-0.16830,-0.26850,-0.19200,-0.24010,-0.20980,-0.20840,-0.22090,-0.17500,-0.22500,0.17500,-0.22500,0.20830,-0.22120,0.23990,-0.21010,0.26830,-0.19220,0.29200,-0.16850,0.30980,-0.14010,0.32090,-0.10840,0.32500,-0.07500,0*%
%ADD26T26*%
%AMT29*0 Rounded Rectangle Pad at angle 135*4,1,32,0.28280,0.17670,0.17670,0.28280,0.15040,0.30370,0.12010,0.31820,0.08730,0.32560,0.05370,0.32550,0.02100,0.31790,-0.00910,0.30330,-0.03530,0.28280,-0.28280,0.03530,-0.30370,0.00900,-0.31820,-0.02120,-0.32560,-0.05390,-0.32560,-0.08740,-0.31810,-0.12000,-0.30350,-0.15020,-0.28280,-0.17670,-0.17670,-0.28280,-0.15040,-0.30370,-0.12010,-0.31820,-0.08730,-0.32560,-0.05370,-0.32550,-0.02100,-0.31790,0.00910,-0.30330,0.03530,-0.28280,0.28280,-0.03530,0.30370,-0.00900,0.31820,0.02120,0.32560,0.05390,0.32560,0.08740,0.31810,0.12000,0.30350,0.15020,0.28280,0.17670,0*%
%ADD29T29*%
%AMT96*0 Rounded Rectangle Pad at angle 90*4,1,44,2.00000,-0.70000,2.00000,0.70000,1.99630,0.74690,1.98530,0.79260,1.96730,0.83600,1.94270,0.87610,1.91210,0.91180,1.87630,0.94230,1.83620,0.96680,1.79270,0.98480,1.74700,0.99570,1.70000,1.00000,-1.70000,1.00000,-1.74690,0.99630,-1.79260,0.98530,-1.83600,0.96730,-1.87610,0.94270,-1.91180,0.91210,-1.94230,0.87630,-1.96680,0.83620,-1.98480,0.79270,-1.99570,0.74700,-2.00000,0.70000,-2.00000,-0.70000,-1.99630,-0.74690,-1.98530,-0.79260,-1.96730,-0.83600,-1.94270,-0.87610,-1.91210,-0.91180,-1.87630,-0.94230,-1.83620,-0.96680,-1.79270,-0.98480,-1.74700,-0.99570,-1.70000,-1.00000,1.70000,-1.00000,1.74690,-0.99630,1.79260,-0.98530,1.83600,-0.96730,1.87610,-0.94270,1.91180,-0.91210,1.94230,-0.87630,1.96680,-0.83620,1.98480,-0.79270,1.99570,-0.74700,2.00000,-0.70000,0*%
%ADD96T96*%
%ADD93C,1.50000*%
%ADD85C,1.60000*%
%ADD94C,2.52400*%
X0Y0D02*
D02*
D18*
X44545550Y46635270D02*
X44621350D01*
G75*
G02*
X44671850Y46584770I0J-50500D01*
G01*
Y45247470D01*
G75*
G03*
X44864050Y45055270I192200J0D01*
G01*
X46598050D01*
Y45081070D01*
X44545550Y46826020D02*
X44712050D01*
G75*
G02*
X44741300Y46796770I0J-29250D01*
G01*
Y45273270D01*
G75*
G03*
X44899300Y45115270I158000J0D01*
G01*
X46278050D01*
D02*
D21*
X42303700Y48287000D02*
Y43153000D01*
G75*
G03*
X42391000Y43065700I87300J0D01*
G01*
X48795000D01*
G75*
G03*
X48882300Y43153000I0J87300D01*
G01*
Y43307000D01*
G75*
G02*
X48886020Y43315980I12700J0D01*
G01*
X49136300Y43566260D01*
Y46857740D01*
X48886020Y47108020D01*
G75*
G02*
X48882300Y47117000I8980J8980D01*
G01*
Y48254740D01*
X48762740Y48374300D01*
X42391000D01*
G75*
G03*
X42303700Y48287000I0J-87300D01*
G01*
X48811850Y45612270D02*
X48865850D01*
Y45563070D01*
X48915050D01*
Y45509070D01*
X48811850D01*
Y45612270D01*
Y45769470D02*
X48915050D01*
Y45715470D01*
X48865850D01*
Y45666270D01*
X48811850D01*
Y45769470D01*
X48845850Y45989470D02*
X49038250D01*
Y45797070D01*
X48845850D01*
Y45989470D01*
X48969050Y45563070D02*
X49018250D01*
Y45612270D01*
X49072250D01*
Y45509070D01*
X48969050D01*
Y45563070D01*
X48987410Y44950270D02*
G75*
G02*
X49108690I60640J0D01*
G01*
G75*
G02*
X48987410I-60640J0D01*
G01*
X48969050Y45769470D02*
X49072250D01*
Y45666270D01*
X49018250D01*
Y45715470D01*
X48969050D01*
Y45769470D01*
X48845850Y46243470D02*
X49038250D01*
Y46051070D01*
X48845850D01*
Y46243470D01*
Y46497470D02*
X49038250D01*
Y46305070D01*
X48845850D01*
Y46497470D01*
Y46751470D02*
X49038250D01*
Y46559070D01*
X48845850D01*
Y46751470D01*
X42443050Y44527670D02*
Y44535020D01*
X42502550D01*
Y44481020D01*
X42489700D01*
G75*
G02*
X42443050Y44527670I0J46650D01*
G01*
X42489700Y44634020D02*
X42502550D01*
Y44580020D01*
X42443050D01*
Y44587370D01*
G75*
G02*
X42489700Y44634020I46650J0D01*
G01*
X42443050Y45054670D02*
Y45062020D01*
X42502550D01*
Y45008020D01*
X42489700D01*
G75*
G02*
X42443050Y45054670I0J46650D01*
G01*
X42489700Y45161020D02*
X42502550D01*
Y45107020D01*
X42443050D01*
Y45114370D01*
G75*
G02*
X42489700Y45161020I46650J0D01*
G01*
X42546050Y47805270D02*
G75*
G02*
X42641050Y47710270I0J-95000D01*
G01*
G75*
G02*
X42546050Y47615270I-95000J0D01*
G01*
G75*
G02*
X42451050Y47710270I0J95000D01*
G01*
G75*
G02*
X42546050Y47805270I95000J0D01*
G01*
X42556550Y44535020D02*
X42616050D01*
Y44527670D01*
G75*
G02*
X42569400Y44481020I-46650J0D01*
G01*
X42556550D01*
Y44535020D01*
X42571550Y43617920D02*
Y43783270D01*
X42625550D01*
Y43640270D01*
G75*
G03*
X42655550Y43610270I30000J0D01*
G01*
X42698550D01*
Y43556270D01*
X42633200D01*
G75*
G02*
X42571550Y43617920I0J61650D01*
G01*
X42633200Y44064270D02*
X42698550D01*
Y44010270D01*
X42655550D01*
G75*
G03*
X42625550Y43980270I0J-30000D01*
G01*
Y43837270D01*
X42571550D01*
Y44002620D01*
G75*
G02*
X42633200Y44064270I61650J0D01*
G01*
X42556550Y44634020D02*
X42569400D01*
G75*
G02*
X42616050Y44587370I0J-46650D01*
G01*
Y44580020D01*
X42556550D01*
Y44634020D01*
Y45062020D02*
X42616050D01*
Y45054670D01*
G75*
G02*
X42569400Y45008020I-46650J0D01*
G01*
X42556550D01*
Y45062020D01*
X42601550Y44780420D02*
Y44793270D01*
X42655550D01*
Y44733770D01*
X42648200D01*
G75*
G02*
X42601550Y44780420I0J46650D01*
G01*
X42648200Y44906770D02*
X42655550D01*
Y44847270D01*
X42601550D01*
Y44860120D01*
G75*
G02*
X42648200Y44906770I46650J0D01*
G01*
X42556550Y45161020D02*
X42569400D01*
G75*
G02*
X42616050Y45114370I0J-46650D01*
G01*
Y45107020D01*
X42556550D01*
Y45161020D01*
X42650240Y46433270D02*
G75*
G03*
X42698550Y46384960I75310J27000D01*
G01*
Y46329020D01*
G75*
G02*
X42594300Y46433270I27000J131250D01*
G01*
X42650240D01*
X42698550Y46591520D02*
Y46535580D01*
G75*
G03*
X42650240Y46487270I27000J-75310D01*
G01*
X42594300D01*
G75*
G02*
X42698550Y46591520I131250J-27000D01*
G01*
X42650240Y47278270D02*
G75*
G03*
X42698550Y47229960I75310J27000D01*
G01*
Y47174020D01*
G75*
G02*
X42594300Y47278270I27000J131250D01*
G01*
X42650240D01*
X42698550Y47436520D02*
Y47380580D01*
G75*
G03*
X42650240Y47332270I27000J-75310D01*
G01*
X42594300D01*
G75*
G02*
X42698550Y47436520I131250J-27000D01*
G01*
X42546050Y48255270D02*
G75*
G02*
X42641050Y48160270I0J-95000D01*
G01*
G75*
G02*
X42546050Y48065270I-95000J0D01*
G01*
G75*
G02*
X42451050Y48160270I0J95000D01*
G01*
G75*
G02*
X42546050Y48255270I95000J0D01*
G01*
X42700550Y44793270D02*
X42754550D01*
Y44780420D01*
G75*
G02*
X42707900Y44733770I-46650J0D01*
G01*
X42700550D01*
Y44793270D01*
X42752550Y43610270D02*
X42795550D01*
G75*
G03*
X42825550Y43640270I0J30000D01*
G01*
Y43783270D01*
X42879550D01*
Y43617920D01*
G75*
G02*
X42817900Y43556270I-61650J0D01*
G01*
X42752550D01*
Y43610270D01*
X42811550Y43237920D02*
Y43303270D01*
X42865550D01*
Y43260270D01*
G75*
G03*
X42895550Y43230270I30000J0D01*
G01*
X43038550D01*
Y43176270D01*
X42873200D01*
G75*
G02*
X42811550Y43237920I0J61650D01*
G01*
X42873200Y43484270D02*
X43038550D01*
Y43430270D01*
X42895550D01*
G75*
G03*
X42865550Y43400270I0J-30000D01*
G01*
Y43357270D01*
X42811550D01*
Y43422620D01*
G75*
G02*
X42873200Y43484270I61650J0D01*
G01*
X42752550Y44064270D02*
X42817900D01*
G75*
G02*
X42879550Y44002620I0J-61650D01*
G01*
Y43837270D01*
X42825550D01*
Y43980270D01*
G75*
G03*
X42795550Y44010270I-30000J0D01*
G01*
X42752550D01*
Y44064270D01*
X42700550Y44906770D02*
X42707900D01*
G75*
G02*
X42754550Y44860120I0J-46650D01*
G01*
Y44847270D01*
X42700550D01*
Y44906770D01*
X42752550Y46384960D02*
G75*
G03*
X42780040Y46401690I-27000J75310D01*
G01*
G75*
G02*
X42769300Y46433270I120500J58600D01*
G01*
X42800860D01*
X42825240D01*
X42856800D01*
G75*
G02*
X42846060Y46401690I-131240J27020D01*
G01*
G75*
G03*
X42873550Y46384960I54490J58580D01*
G01*
Y46329020D01*
G75*
G02*
X42813050Y46358780I26990J131250D01*
G01*
G75*
G02*
X42752550Y46329020I-87490J101490D01*
G01*
Y46384960D01*
X42836550Y44780420D02*
Y44793270D01*
X42890550D01*
Y44733770D01*
X42883200D01*
G75*
G02*
X42836550Y44780420I0J46650D01*
G01*
X42883200Y44906770D02*
X42890550D01*
Y44847270D01*
X42836550D01*
Y44860120D01*
G75*
G02*
X42883200Y44906770I46650J0D01*
G01*
X42752550Y46591520D02*
G75*
G02*
X42813050Y46561760I-26990J-131250D01*
G01*
G75*
G02*
X42873550Y46591520I87490J-101490D01*
G01*
Y46535580D01*
G75*
G03*
X42846060Y46518850I27000J-75310D01*
G01*
G75*
G02*
X42856800Y46487270I-120500J-58600D01*
G01*
X42825240D01*
X42800860D01*
X42769300D01*
G75*
G02*
X42780040Y46518850I131240J-27020D01*
G01*
G75*
G03*
X42752550Y46535580I-54490J-58580D01*
G01*
Y46591520D01*
Y47229960D02*
G75*
G03*
X42780040Y47246690I-27000J75310D01*
G01*
G75*
G02*
X42769300Y47278270I120500J58600D01*
G01*
X42800860D01*
X42825240D01*
X42856800D01*
G75*
G02*
X42846060Y47246690I-131240J27020D01*
G01*
G75*
G03*
X42873550Y47229960I54490J58580D01*
G01*
Y47174020D01*
G75*
G02*
X42813050Y47203780I26990J131250D01*
G01*
G75*
G02*
X42752550Y47174020I-87490J101490D01*
G01*
Y47229960D01*
Y47436520D02*
G75*
G02*
X42813050Y47406760I-26990J-131250D01*
G01*
G75*
G02*
X42873550Y47436520I87490J-101490D01*
G01*
Y47380580D01*
G75*
G03*
X42846060Y47363850I27000J-75310D01*
G01*
G75*
G02*
X42856800Y47332270I-120500J-58600D01*
G01*
X42825240D01*
X42800860D01*
X42769300D01*
G75*
G02*
X42780040Y47363850I131240J-27020D01*
G01*
G75*
G03*
X42752550Y47380580I-54490J-58580D01*
G01*
Y47436520D01*
X42906580Y46072770D02*
Y46127770D01*
G75*
G02*
X42921580Y46142770I15000J0D01*
G01*
X42996580D01*
G75*
G02*
X43011580Y46127770I0J-15000D01*
G01*
Y46072770D01*
G75*
G02*
X42996580Y46057770I-15000J0D01*
G01*
X42921580D01*
G75*
G02*
X42906580Y46072770I0J15000D01*
G01*
X43009410Y45882270D02*
G75*
G02*
X43130690I60640J0D01*
G01*
G75*
G02*
X43009410I-60640J0D01*
G01*
X43092550Y43230270D02*
X43235550D01*
G75*
G03*
X43265550Y43260270I0J30000D01*
G01*
Y43303270D01*
X43319550D01*
Y43237920D01*
G75*
G02*
X43257900Y43176270I-61650J0D01*
G01*
X43092550D01*
Y43230270D01*
Y43484270D02*
X43257900D01*
G75*
G02*
X43319550Y43422620I0J-61650D01*
G01*
Y43357270D01*
X43265550D01*
Y43400270D01*
G75*
G03*
X43235550Y43430270I-30000J0D01*
G01*
X43092550D01*
Y43484270D01*
X42935550Y44793270D02*
X42989550D01*
Y44780420D01*
G75*
G02*
X42942900Y44733770I-46650J0D01*
G01*
X42935550D01*
Y44793270D01*
Y44906770D02*
X42942900D01*
G75*
G02*
X42989550Y44860120I0J-46650D01*
G01*
Y44847270D01*
X42935550D01*
Y44906770D01*
X42927550Y46384960D02*
G75*
G03*
X42974380Y46429460I-27000J75310D01*
G01*
G75*
G02*
X42939300Y46495770I96170J93310D01*
G01*
X42972250D01*
G75*
G03*
X42927550Y46535580I-71700J-35500D01*
G01*
Y46591520D01*
G75*
G02*
X42951470Y46584220I-26980J-131260D01*
G01*
G75*
G02*
X43043550Y46654020I119080J-61450D01*
G01*
Y46598080D01*
G75*
G03*
X42996720Y46553580I27000J-75310D01*
G01*
G75*
G02*
X43031800Y46487270I-96170J-93310D01*
G01*
X42998850D01*
G75*
G03*
X43043550Y46447460I71700J35500D01*
G01*
Y46391520D01*
G75*
G02*
X43019630Y46398820I26980J131260D01*
G01*
G75*
G02*
X42927550Y46329020I-119080J61450D01*
G01*
Y46384960D01*
Y47229960D02*
G75*
G03*
X42975860Y47278270I-27000J75310D01*
G01*
X42977060D01*
G75*
G02*
X43025940Y47332270I93490J-35500D01*
G01*
X42975860D01*
G75*
G03*
X42927550Y47380580I-75310J-27000D01*
G01*
Y47436520D01*
G75*
G02*
X43031270Y47334730I-27000J-131250D01*
G01*
G75*
G02*
X43170550Y47242770I39280J-91960D01*
G01*
G75*
G02*
X42981060Y47198150I-100000J0D01*
G01*
G75*
G02*
X42927550Y47174020I-80500J107120D01*
G01*
Y47229960D01*
X43097550Y46447460D02*
G75*
G03*
X43145860Y46495770I-27000J75310D01*
G01*
X43201800D01*
G75*
G02*
X43097550Y46391520I-131250J27000D01*
G01*
Y46447460D01*
Y46654020D02*
G75*
G02*
X43201800Y46549770I-27000J-131250D01*
G01*
X43145860D01*
G75*
G03*
X43097550Y46598080I-75310J-27000D01*
G01*
Y46654020D01*
X43126080Y47683270D02*
G75*
G03*
X43169050Y47640300I69970J27000D01*
G01*
Y47584130D01*
G75*
G02*
X43069910Y47683270I27000J126140D01*
G01*
X43126080D01*
X43169050Y47836410D02*
Y47780240D01*
G75*
G03*
X43126080Y47737270I27000J-69970D01*
G01*
X43069910D01*
G75*
G02*
X43169050Y47836410I126140J-27000D01*
G01*
X43126080Y48133270D02*
G75*
G03*
X43169050Y48090300I69970J27000D01*
G01*
Y48034130D01*
G75*
G02*
X43069910Y48133270I27000J126140D01*
G01*
X43126080D01*
X43169050Y48286410D02*
Y48230240D01*
G75*
G03*
X43126080Y48187270I27000J-69970D01*
G01*
X43069910D01*
G75*
G02*
X43169050Y48286410I126140J-27000D01*
G01*
X43223050Y47640300D02*
G75*
G03*
X43266020Y47683270I-27000J69970D01*
G01*
X43322190D01*
G75*
G02*
X43223050Y47584130I-126140J27000D01*
G01*
Y47640300D01*
X43235550Y43620270D02*
Y44000270D01*
G75*
G02*
X43265550Y44030270I30000J0D01*
G01*
X43445550D01*
G75*
G02*
X43475550Y44000270I0J-30000D01*
G01*
Y43620270D01*
G75*
G02*
X43445550Y43590270I-30000J0D01*
G01*
X43265550D01*
G75*
G02*
X43235550Y43620270I0J30000D01*
G01*
X43241550Y44780420D02*
Y44793270D01*
X43295550D01*
Y44733770D01*
X43288200D01*
G75*
G02*
X43241550Y44780420I0J46650D01*
G01*
X43288200Y44906770D02*
X43295550D01*
Y44847270D01*
X43241550D01*
Y44860120D01*
G75*
G02*
X43288200Y44906770I46650J0D01*
G01*
X43223050Y47836410D02*
G75*
G02*
X43322190Y47737270I-27000J-126140D01*
G01*
X43266020D01*
G75*
G03*
X43223050Y47780240I-69970J-27000D01*
G01*
Y47836410D01*
Y48090300D02*
G75*
G03*
X43266020Y48133270I-27000J69970D01*
G01*
X43322190D01*
G75*
G02*
X43223050Y48034130I-126140J27000D01*
G01*
Y48090300D01*
Y48286410D02*
G75*
G02*
X43322190Y48187270I-27000J-126140D01*
G01*
X43266020D01*
G75*
G03*
X43223050Y48230240I-69970J-27000D01*
G01*
Y48286410D01*
X43340550Y44793270D02*
X43394550D01*
Y44780420D01*
G75*
G02*
X43347900Y44733770I-46650J0D01*
G01*
X43340550D01*
Y44793270D01*
Y44906770D02*
X43347900D01*
G75*
G02*
X43394550Y44860120I0J-46650D01*
G01*
Y44847270D01*
X43340550D01*
Y44906770D01*
X43429550Y45569770D02*
Y45624770D01*
G75*
G02*
X43444550Y45639770I15000J0D01*
G01*
X43519550D01*
G75*
G02*
X43534550Y45624770I0J-15000D01*
G01*
Y45569770D01*
G75*
G02*
X43519550Y45554770I-15000J0D01*
G01*
X43444550D01*
G75*
G02*
X43429550Y45569770I0J15000D01*
G01*
X43433550Y45016070D02*
Y45091070D01*
G75*
G02*
X43448550Y45106070I15000J0D01*
G01*
X43503550D01*
G75*
G02*
X43518550Y45091070I0J-15000D01*
G01*
Y45016070D01*
G75*
G02*
X43503550Y45001070I-15000J0D01*
G01*
X43448550D01*
G75*
G02*
X43433550Y45016070I0J15000D01*
G01*
X43524770Y48009320D02*
G75*
G03*
X43621050Y47913040I123280J27000D01*
G01*
Y47858150D01*
G75*
G02*
X43469880Y48009320I27000J178170D01*
G01*
X43524770D01*
X43550550Y45222770D02*
Y45277770D01*
G75*
G02*
X43565550Y45292770I15000J0D01*
G01*
X43640550D01*
G75*
G02*
X43655550Y45277770I0J-15000D01*
G01*
Y45222770D01*
G75*
G02*
X43640550Y45207770I-15000J0D01*
G01*
X43565550D01*
G75*
G02*
X43550550Y45222770I0J15000D01*
G01*
X43621050Y48214490D02*
Y48159600D01*
G75*
G03*
X43524770Y48063320I27000J-123280D01*
G01*
X43469880D01*
G75*
G02*
X43621050Y48214490I178170J-27000D01*
G01*
X43636550Y46580420D02*
Y46593270D01*
X43690550D01*
Y46533770D01*
X43683200D01*
G75*
G02*
X43636550Y46580420I0J46650D01*
G01*
X43683200Y46706770D02*
X43690550D01*
Y46647270D01*
X43636550D01*
Y46660120D01*
G75*
G02*
X43683200Y46706770I46650J0D01*
G01*
X43657410Y47492270D02*
G75*
G02*
X43778690I60640J0D01*
G01*
G75*
G02*
X43657410I-60640J0D01*
G01*
X43727680Y47248270D02*
G75*
G03*
X43731050Y47244900I30370J27000D01*
G01*
Y47184560D01*
G75*
G02*
X43667340Y47248270I27000J90710D01*
G01*
X43727680D01*
X43745770Y43303270D02*
G75*
G03*
X43842050Y43206990I123280J27000D01*
G01*
Y43152100D01*
G75*
G02*
X43690880Y43303270I27000J178170D01*
G01*
X43745770D01*
X43842050Y43508440D02*
Y43453550D01*
G75*
G03*
X43745770Y43357270I27000J-123280D01*
G01*
X43690880D01*
G75*
G02*
X43842050Y43508440I178170J-27000D01*
G01*
X43731050Y47365980D02*
Y47305640D01*
G75*
G03*
X43727680Y47302270I27000J-30370D01*
G01*
X43667340D01*
G75*
G02*
X43731050Y47365980I90710J-27000D01*
G01*
X43735550Y45222770D02*
Y45277770D01*
G75*
G02*
X43750550Y45292770I15000J0D01*
G01*
X43825550D01*
G75*
G02*
X43840550Y45277770I0J-15000D01*
G01*
Y45222770D01*
G75*
G02*
X43825550Y45207770I-15000J0D01*
G01*
X43750550D01*
G75*
G02*
X43735550Y45222770I0J15000D01*
G01*
Y46593270D02*
X43766550D01*
X43789550D01*
X43820550D01*
Y46533770D01*
X43813200D01*
G75*
G02*
X43778050Y46549750I0J46650D01*
G01*
G75*
G02*
X43742900Y46533770I-35150J30670D01*
G01*
X43735550D01*
Y46593270D01*
X43810550Y46362770D02*
Y46417770D01*
G75*
G02*
X43825550Y46432770I15000J0D01*
G01*
X43900550D01*
G75*
G02*
X43915550Y46417770I0J-15000D01*
G01*
Y46362770D01*
G75*
G02*
X43900550Y46347770I-15000J0D01*
G01*
X43825550D01*
G75*
G02*
X43810550Y46362770I0J15000D01*
G01*
X43948680Y43751270D02*
G75*
G03*
X43952050Y43747900I30370J27000D01*
G01*
Y43687560D01*
G75*
G02*
X43888340Y43751270I27000J90710D01*
G01*
X43948680D01*
X43896050Y43206990D02*
G75*
G03*
X43992330Y43303270I-27000J123280D01*
G01*
X44047220D01*
G75*
G02*
X43896050Y43152100I-178170J27000D01*
G01*
Y43206990D01*
Y43508440D02*
G75*
G02*
X44047220Y43357270I-27000J-178170D01*
G01*
X43992330D01*
G75*
G03*
X43896050Y43453550I-123280J-27000D01*
G01*
Y43508440D01*
X43952050Y43868980D02*
Y43808640D01*
G75*
G03*
X43948680Y43805270I27000J-30370D01*
G01*
X43888340D01*
G75*
G02*
X43952050Y43868980I90710J-27000D01*
G01*
X43735550Y46706770D02*
X43742900D01*
G75*
G02*
X43778050Y46690790I0J-46650D01*
G01*
G75*
G02*
X43813200Y46706770I35150J-30670D01*
G01*
X43820550D01*
Y46647270D01*
X43789550D01*
X43766550D01*
X43735550D01*
Y46706770D01*
X43675050Y47913040D02*
G75*
G03*
X43771330Y48009320I-27000J123280D01*
G01*
X43826220D01*
G75*
G02*
X43675050Y47858150I-178170J27000D01*
G01*
Y47913040D01*
X43785050Y47244900D02*
G75*
G03*
X43788420Y47248270I-27000J30370D01*
G01*
X43848760D01*
G75*
G02*
X43785050Y47184560I-90710J27000D01*
G01*
Y47244900D01*
Y47365980D02*
G75*
G02*
X43848760Y47302270I-27000J-90710D01*
G01*
X43788420D01*
G75*
G03*
X43785050Y47305640I-30370J-27000D01*
G01*
Y47365980D01*
X43675050Y48214490D02*
G75*
G02*
X43826220Y48063320I-27000J-178170D01*
G01*
X43771330D01*
G75*
G03*
X43675050Y48159600I-123280J-27000D01*
G01*
Y48214490D01*
X43865550Y46593270D02*
X43919550D01*
Y46580420D01*
G75*
G02*
X43872900Y46533770I-46650J0D01*
G01*
X43865550D01*
Y46593270D01*
Y46706770D02*
X43872900D01*
G75*
G02*
X43919550Y46660120I0J-46650D01*
G01*
Y46647270D01*
X43865550D01*
Y46706770D01*
X43932550Y45522770D02*
Y45597770D01*
G75*
G02*
X43947550Y45612770I15000J0D01*
G01*
X44002550D01*
G75*
G02*
X44017550Y45597770I0J-15000D01*
G01*
Y45522770D01*
G75*
G02*
X44002550Y45507770I-15000J0D01*
G01*
X43947550D01*
G75*
G02*
X43932550Y45522770I0J15000D01*
G01*
X44006050Y43747900D02*
G75*
G03*
X44009420Y43751270I-27000J30370D01*
G01*
X44069760D01*
G75*
G02*
X44006050Y43687560I-90710J27000D01*
G01*
Y43747900D01*
Y43868980D02*
G75*
G02*
X44069760Y43805270I-27000J-90710D01*
G01*
X44009420D01*
G75*
G03*
X44006050Y43808640I-30370J-27000D01*
G01*
Y43868980D01*
X44011550Y46505420D02*
Y46512770D01*
X44071050D01*
Y46458770D01*
X44058200D01*
G75*
G02*
X44011550Y46505420I0J46650D01*
G01*
X44058200Y46611770D02*
X44071050D01*
Y46557770D01*
X44011550D01*
Y46565120D01*
G75*
G02*
X44058200Y46611770I46650J0D01*
G01*
X44069350Y47943970D02*
X44261750D01*
Y47751570D01*
X44069350D01*
Y47943970D01*
X44153430Y44779270D02*
G75*
G03*
X44156800Y44775900I30370J27000D01*
G01*
Y44715560D01*
G75*
G02*
X44093090Y44779270I27000J90710D01*
G01*
X44153430D01*
X44093160Y44279270D02*
G75*
G02*
X44214440I60640J0D01*
G01*
G75*
G02*
X44093160I-60640J0D01*
G01*
X44156800Y44896980D02*
Y44836640D01*
G75*
G03*
X44153430Y44833270I27000J-30370D01*
G01*
X44093090D01*
G75*
G02*
X44156800Y44896980I90710J-27000D01*
G01*
X44125050Y46512770D02*
X44146550D01*
X44184550D01*
X44206050D01*
Y46458770D01*
X44193200D01*
G75*
G02*
X44165550Y46467850I0J46650D01*
G01*
G75*
G02*
X44137900Y46458770I-27650J37570D01*
G01*
X44125050D01*
Y46512770D01*
X44160550Y45224270D02*
Y45279270D01*
G75*
G02*
X44175550Y45294270I15000J0D01*
G01*
X44250550D01*
G75*
G02*
X44265550Y45279270I0J-15000D01*
G01*
Y45224270D01*
G75*
G02*
X44250550Y45209270I-15000J0D01*
G01*
X44175550D01*
G75*
G02*
X44160550Y45224270I0J15000D01*
G01*
X44210800Y44775900D02*
G75*
G03*
X44214170Y44779270I-27000J30370D01*
G01*
X44274510D01*
G75*
G02*
X44210800Y44715560I-90710J27000D01*
G01*
Y44775900D01*
Y44896980D02*
G75*
G02*
X44274510Y44833270I-27000J-90710D01*
G01*
X44214170D01*
G75*
G03*
X44210800Y44836640I-30370J-27000D01*
G01*
Y44896980D01*
X44160550Y45322770D02*
Y45377770D01*
G75*
G02*
X44175550Y45392770I15000J0D01*
G01*
X44250550D01*
G75*
G02*
X44265550Y45377770I0J-15000D01*
G01*
Y45322770D01*
G75*
G02*
X44250550Y45307770I-15000J0D01*
G01*
X44175550D01*
G75*
G02*
X44160550Y45322770I0J15000D01*
G01*
Y45422770D02*
Y45477770D01*
G75*
G02*
X44175550Y45492770I15000J0D01*
G01*
X44250550D01*
G75*
G02*
X44265550Y45477770I0J-15000D01*
G01*
Y45422770D01*
G75*
G02*
X44250550Y45407770I-15000J0D01*
G01*
X44175550D01*
G75*
G02*
X44160550Y45422770I0J15000D01*
G01*
X44125050Y46611770D02*
X44137900D01*
G75*
G02*
X44165550Y46602690I0J-46650D01*
G01*
G75*
G02*
X44193200Y46611770I27650J-37570D01*
G01*
X44206050D01*
Y46557770D01*
X44184550D01*
X44146550D01*
X44125050D01*
Y46611770D01*
X44206550Y46605420D02*
Y46618270D01*
X44260550D01*
Y46611770D01*
X44272900D01*
G75*
G02*
X44305550Y46598440I0J-46650D01*
G01*
Y46618270D01*
X44359550D01*
Y46605420D01*
G75*
G02*
X44319550Y46559250I-46650J0D01*
G01*
Y46557770D01*
X44260050D01*
Y46558770D01*
X44253200D01*
G75*
G02*
X44206550Y46605420I0J46650D01*
G01*
X44260050Y46512770D02*
X44319550D01*
Y46505420D01*
G75*
G02*
X44272900Y46458770I-46650J0D01*
G01*
X44260050D01*
Y46512770D01*
X44253200Y46731770D02*
X44260550D01*
Y46672270D01*
X44206550D01*
Y46685120D01*
G75*
G02*
X44253200Y46731770I46650J0D01*
G01*
X44074400Y48240200D02*
X44266800D01*
Y48047800D01*
X44074400D01*
Y48240200D01*
X44305550Y46731770D02*
X44312900D01*
G75*
G02*
X44359550Y46685120I0J-46650D01*
G01*
Y46672270D01*
X44305550D01*
Y46731770D01*
X44323350Y47943970D02*
X44515750D01*
Y47751570D01*
X44323350D01*
Y47943970D01*
X44396550Y45505420D02*
Y45512770D01*
X44456050D01*
Y45458770D01*
X44443200D01*
G75*
G02*
X44396550Y45505420I0J46650D01*
G01*
X44443200Y45611770D02*
X44456050D01*
Y45557770D01*
X44396550D01*
Y45565120D01*
G75*
G02*
X44443200Y45611770I46650J0D01*
G01*
X44467680Y47423270D02*
G75*
G03*
X44471050Y47419900I30370J27000D01*
G01*
Y47359560D01*
G75*
G02*
X44407340Y47423270I27000J90710D01*
G01*
X44467680D01*
X44471050Y47540980D02*
Y47480640D01*
G75*
G03*
X44467680Y47477270I27000J-30370D01*
G01*
X44407340D01*
G75*
G02*
X44471050Y47540980I90710J-27000D01*
G01*
X44493050Y46607770D02*
Y46662770D01*
G75*
G02*
X44508050Y46677770I15000J0D01*
G01*
X44583050D01*
G75*
G02*
X44597840Y46665270I0J-15000D01*
G01*
X44621350D01*
G75*
G02*
X44701850Y46584770I0J-80500D01*
G01*
Y45247470D01*
G75*
G03*
X44864050Y45085270I162200J0D01*
G01*
X44899300D01*
G75*
G02*
X44711300Y45273270I0J188000D01*
G01*
Y46784350D01*
X44699630Y46796020D01*
X44597840D01*
G75*
G02*
X44583050Y46783520I-14790J2500D01*
G01*
X44508050D01*
G75*
G02*
X44493050Y46798520I0J15000D01*
G01*
Y46853520D01*
G75*
G02*
X44508050Y46868520I15000J0D01*
G01*
X44583050D01*
G75*
G02*
X44597840Y46856020I0J-15000D01*
G01*
X44712050D01*
G75*
G02*
X44771300Y46796770I0J-59250D01*
G01*
Y45273270D01*
G75*
G03*
X44899300Y45145270I128000J0D01*
G01*
X46225760D01*
G75*
G02*
X46240550Y45157770I14790J-2500D01*
G01*
X46315550D01*
G75*
G02*
X46330550Y45142770I0J-15000D01*
G01*
Y45087770D01*
G75*
G02*
X46330340Y45085270I-15000J0D01*
G01*
X46545550D01*
Y45106520D01*
G75*
G02*
X46511550Y45151420I12650J44900D01*
G01*
Y45158770D01*
X46571050D01*
Y45123570D01*
X46625050D01*
Y45158770D01*
X46684550D01*
Y45151420D01*
G75*
G02*
X46650550Y45106520I-46650J0D01*
G01*
Y45053570D01*
G75*
G02*
X46635550Y45038570I-15000J0D01*
G01*
X46622970D01*
G75*
G02*
X46598050Y45025270I-24920J16700D01*
G01*
X44864050D01*
G75*
G02*
X44641850Y45247470I0J222200D01*
G01*
Y46584770D01*
G75*
G03*
X44621350Y46605270I-20500J0D01*
G01*
X44597840D01*
G75*
G02*
X44583050Y46592770I-14790J2500D01*
G01*
X44508050D01*
G75*
G02*
X44493050Y46607770I0J15000D01*
G01*
X46625050Y44908770D02*
X46684550D01*
Y44901420D01*
G75*
G02*
X46637900Y44854770I-46650J0D01*
G01*
X46625050D01*
Y44908770D01*
Y45007770D02*
X46637900D01*
G75*
G02*
X46684550Y44961120I0J-46650D01*
G01*
Y44953770D01*
X46625050D01*
Y45007770D01*
X44972410Y44280270D02*
G75*
G02*
X45093690I60640J0D01*
G01*
G75*
G02*
X44972410I-60640J0D01*
G01*
X44993800Y43397200D02*
X45186200D01*
Y43204800D01*
X44993800D01*
Y43397200D01*
X45175680Y43751270D02*
G75*
G03*
X45179050Y43747900I30370J27000D01*
G01*
Y43687560D01*
G75*
G02*
X45115340Y43751270I27000J90710D01*
G01*
X45175680D01*
X45179050Y43868980D02*
Y43808640D01*
G75*
G03*
X45175680Y43805270I27000J-30370D01*
G01*
X45115340D01*
G75*
G02*
X45179050Y43868980I90710J-27000D01*
G01*
X45233050Y43747900D02*
G75*
G03*
X45236420Y43751270I-27000J30370D01*
G01*
X45296760D01*
G75*
G02*
X45233050Y43687560I-90710J27000D01*
G01*
Y43747900D01*
X45247800Y43397200D02*
X45440200D01*
Y43204800D01*
X45247800D01*
Y43397200D01*
X45233050Y43868980D02*
G75*
G02*
X45296760Y43805270I-27000J-90710D01*
G01*
X45236420D01*
G75*
G03*
X45233050Y43808640I-30370J-27000D01*
G01*
Y43868980D01*
X45311550Y44705420D02*
Y44712770D01*
X45371050D01*
Y44658770D01*
X45358200D01*
G75*
G02*
X45311550Y44705420I0J46650D01*
G01*
X45352650Y44811440D02*
G75*
G02*
X45321550Y44855420I15550J43980D01*
G01*
Y44868270D01*
X45375550D01*
Y44808770D01*
X45371050D01*
Y44757770D01*
X45311550D01*
Y44765120D01*
G75*
G02*
X45352650Y44811440I46650J0D01*
G01*
X45368200Y44981770D02*
X45375550D01*
Y44922270D01*
X45321550D01*
Y44935120D01*
G75*
G02*
X45368200Y44981770I46650J0D01*
G01*
X45420550Y44868270D02*
X45474550D01*
Y44855420D01*
G75*
G02*
X45443450Y44811440I-46650J0D01*
G01*
G75*
G02*
X45484550Y44765120I-5550J-46320D01*
G01*
Y44757770D01*
X45425050D01*
Y44808770D01*
X45420550D01*
Y44868270D01*
X45425050Y44712770D02*
X45484550D01*
Y44705420D01*
G75*
G02*
X45437900Y44658770I-46650J0D01*
G01*
X45425050D01*
Y44712770D01*
X45420550Y44981770D02*
X45427900D01*
G75*
G02*
X45474550Y44935120I0J-46650D01*
G01*
Y44922270D01*
X45420550D01*
Y44981770D01*
X45501800Y43397200D02*
X45694200D01*
Y43204800D01*
X45501800D01*
Y43397200D01*
X45735550Y44702770D02*
Y44777770D01*
G75*
G02*
X45750550Y44792770I15000J0D01*
G01*
X45805550D01*
G75*
G02*
X45820550Y44777770I0J-15000D01*
G01*
Y44702770D01*
G75*
G02*
X45816730Y44692770I-15000J0D01*
G01*
X45875550D01*
G75*
G02*
X45890550Y44677770I0J-15000D01*
G01*
Y44626910D01*
G75*
G02*
X45895550Y44627770I5010J-14140D01*
G01*
X45970550D01*
G75*
G02*
X45985550Y44612770I0J-15000D01*
G01*
Y44557770D01*
G75*
G02*
X45970550Y44542770I-15000J0D01*
G01*
X45895550D01*
G75*
G02*
X45880550Y44557770I0J15000D01*
G01*
Y44608630D01*
G75*
G02*
X45875550Y44607770I-5010J14140D01*
G01*
X45800550D01*
G75*
G02*
X45785550Y44622770I0J15000D01*
G01*
Y44677770D01*
G75*
G02*
X45789370Y44687770I15000J0D01*
G01*
X45750550D01*
G75*
G02*
X45735550Y44702770I0J15000D01*
G01*
X45755800Y43397200D02*
X45948200D01*
Y43204800D01*
X45755800D01*
Y43397200D01*
X45770550Y44365270D02*
Y44420270D01*
G75*
G02*
X45785550Y44435270I15000J0D01*
G01*
X45860550D01*
G75*
G02*
X45875550Y44420270I0J-15000D01*
G01*
Y44365270D01*
G75*
G02*
X45860550Y44350270I-15000J0D01*
G01*
X45785550D01*
G75*
G02*
X45770550Y44365270I0J15000D01*
G01*
X45773050Y44482770D02*
Y44537770D01*
G75*
G02*
X45788050Y44552770I15000J0D01*
G01*
X45863050D01*
G75*
G02*
X45878050Y44537770I0J-15000D01*
G01*
Y44482770D01*
G75*
G02*
X45863050Y44467770I-15000J0D01*
G01*
X45788050D01*
G75*
G02*
X45773050Y44482770I0J15000D01*
G01*
X45878050Y44422770D02*
Y44477770D01*
G75*
G02*
X45893050Y44492770I15000J0D01*
G01*
X45968050D01*
G75*
G02*
X45983050Y44477770I0J-15000D01*
G01*
Y44422770D01*
G75*
G02*
X45968050Y44407770I-15000J0D01*
G01*
X45893050D01*
G75*
G02*
X45878050Y44422770I0J15000D01*
G01*
X46009800Y43397200D02*
X46202200D01*
Y43204800D01*
X46009800D01*
Y43397200D01*
X46108050Y43980920D02*
Y43993770D01*
X46162050D01*
Y43934270D01*
X46154700D01*
G75*
G02*
X46108050Y43980920I0J46650D01*
G01*
X46154700Y44107270D02*
X46162050D01*
Y44047770D01*
X46108050D01*
Y44060620D01*
G75*
G02*
X46154700Y44107270I46650J0D01*
G01*
X46142050Y44208270D02*
Y44283270D01*
G75*
G02*
X46157050Y44298270I15000J0D01*
G01*
X46212050D01*
G75*
G02*
X46227050Y44283270I0J-15000D01*
G01*
Y44208270D01*
G75*
G02*
X46212050Y44193270I-15000J0D01*
G01*
X46157050D01*
G75*
G02*
X46142050Y44208270I0J15000D01*
G01*
X46207050Y43993770D02*
X46261050D01*
Y43980920D01*
G75*
G02*
X46214400Y43934270I-46650J0D01*
G01*
X46207050D01*
Y43993770D01*
X46229800Y43274000D02*
X46283800D01*
Y43224800D01*
X46333000D01*
Y43170800D01*
X46229800D01*
Y43274000D01*
Y43431200D02*
X46333000D01*
Y43377200D01*
X46283800D01*
Y43328000D01*
X46229800D01*
Y43431200D01*
X46207050Y44107270D02*
X46214400D01*
G75*
G02*
X46261050Y44060620I0J-46650D01*
G01*
Y44047770D01*
X46207050D01*
Y44107270D01*
X46225550Y44485270D02*
Y44540270D01*
G75*
G02*
X46240550Y44555270I15000J0D01*
G01*
X46315550D01*
G75*
G02*
X46330550Y44540270I0J-15000D01*
G01*
Y44485270D01*
G75*
G02*
X46315550Y44470270I-15000J0D01*
G01*
X46240550D01*
G75*
G02*
X46225550Y44485270I0J15000D01*
G01*
X46310050Y43980920D02*
Y43993770D01*
X46364050D01*
Y43934270D01*
X46356700D01*
G75*
G02*
X46310050Y43980920I0J46650D01*
G01*
X46356700Y44107270D02*
X46364050D01*
Y44047770D01*
X46310050D01*
Y44060620D01*
G75*
G02*
X46356700Y44107270I46650J0D01*
G01*
X46225550Y44952770D02*
Y45007770D01*
G75*
G02*
X46240550Y45022770I15000J0D01*
G01*
X46315550D01*
G75*
G02*
X46330550Y45007770I0J-15000D01*
G01*
Y44952770D01*
G75*
G02*
X46315550Y44937770I-15000J0D01*
G01*
X46240550D01*
G75*
G02*
X46225550Y44952770I0J15000D01*
G01*
X46228050Y44580270D02*
Y44635270D01*
G75*
G02*
X46243050Y44650270I15000J0D01*
G01*
X46318050D01*
G75*
G02*
X46333050Y44635270I0J-15000D01*
G01*
Y44580270D01*
G75*
G02*
X46318050Y44565270I-15000J0D01*
G01*
X46243050D01*
G75*
G02*
X46228050Y44580270I0J15000D01*
G01*
Y44675270D02*
Y44730270D01*
G75*
G02*
X46243050Y44745270I15000J0D01*
G01*
X46318050D01*
G75*
G02*
X46333050Y44730270I0J-15000D01*
G01*
Y44675270D01*
G75*
G02*
X46318050Y44660270I-15000J0D01*
G01*
X46243050D01*
G75*
G02*
X46228050Y44675270I0J15000D01*
G01*
X46344050Y44208270D02*
Y44283270D01*
G75*
G02*
X46359050Y44298270I15000J0D01*
G01*
X46414050D01*
G75*
G02*
X46429050Y44283270I0J-15000D01*
G01*
Y44208270D01*
G75*
G02*
X46414050Y44193270I-15000J0D01*
G01*
X46359050D01*
G75*
G02*
X46344050Y44208270I0J15000D01*
G01*
X46387000Y43224800D02*
X46436200D01*
Y43274000D01*
X46483800D01*
X46490200D01*
X46537800D01*
Y43224800D01*
X46587000D01*
Y43170800D01*
X46490200D01*
X46483800D01*
X46387000D01*
Y43224800D01*
Y43431200D02*
X46483800D01*
X46490200D01*
X46587000D01*
Y43377200D01*
X46537800D01*
Y43328000D01*
X46490200D01*
X46483800D01*
X46436200D01*
Y43377200D01*
X46387000D01*
Y43431200D01*
X46409050Y43993770D02*
X46463050D01*
Y43980920D01*
G75*
G02*
X46416400Y43934270I-46650J0D01*
G01*
X46409050D01*
Y43993770D01*
Y44107270D02*
X46416400D01*
G75*
G02*
X46463050Y44060620I0J-46650D01*
G01*
Y44047770D01*
X46409050D01*
Y44107270D01*
X46511550Y44901420D02*
Y44908770D01*
X46571050D01*
Y44854770D01*
X46558200D01*
G75*
G02*
X46511550Y44901420I0J46650D01*
G01*
X46546490Y44733800D02*
X46599520Y44786830D01*
G75*
G02*
X46620720I10600J-10600D01*
G01*
X46659610Y44747940D01*
G75*
G02*
X46664000Y44737340I-10600J-10600D01*
G01*
G75*
G02*
X46659610Y44726740I-14990J0D01*
G01*
X46606580Y44673710D01*
G75*
G02*
X46585380I-10600J10600D01*
G01*
X46546490Y44712600D01*
G75*
G02*
X46542100Y44723200I10600J10600D01*
G01*
G75*
G02*
X46546490Y44733800I14990J0D01*
G01*
X46550550Y44545270D02*
Y44600270D01*
G75*
G02*
X46565550Y44615270I15000J0D01*
G01*
X46640550D01*
G75*
G02*
X46655550Y44600270I0J-15000D01*
G01*
Y44545270D01*
G75*
G02*
X46640550Y44530270I-15000J0D01*
G01*
X46565550D01*
G75*
G02*
X46550550Y44545270I0J15000D01*
G01*
X46594550Y44137770D02*
Y44212770D01*
G75*
G02*
X46609550Y44227770I15000J0D01*
G01*
X46664550D01*
G75*
G02*
X46679550Y44212770I0J-15000D01*
G01*
Y44137770D01*
G75*
G02*
X46664550Y44122770I-15000J0D01*
G01*
X46609550D01*
G75*
G02*
X46594550Y44137770I0J15000D01*
G01*
X46641000Y43224800D02*
X46690200D01*
Y43274000D01*
X46744200D01*
Y43170800D01*
X46641000D01*
Y43224800D01*
Y43431200D02*
X46744200D01*
Y43328000D01*
X46690200D01*
Y43377200D01*
X46641000D01*
Y43431200D01*
X46558200Y45007770D02*
X46571050D01*
Y44953770D01*
X46511550D01*
Y44961120D01*
G75*
G02*
X46558200Y45007770I46650J0D01*
G01*
X44740550Y44927770D02*
Y44982770D01*
G75*
G02*
X44755550Y44997770I15000J0D01*
G01*
X44830550D01*
G75*
G02*
X44845550Y44982770I0J-15000D01*
G01*
Y44927770D01*
G75*
G02*
X44830550Y44912770I-15000J0D01*
G01*
X44755550D01*
G75*
G02*
X44740550Y44927770I0J15000D01*
G01*
X44623050Y43747900D02*
G75*
G03*
X44626420Y43751270I-27000J30370D01*
G01*
X44686760D01*
G75*
G02*
X44623050Y43687560I-90710J27000D01*
G01*
Y43747900D01*
Y43868980D02*
G75*
G02*
X44686760Y43805270I-27000J-90710D01*
G01*
X44626420D01*
G75*
G03*
X44623050Y43808640I-30370J-27000D01*
G01*
Y43868980D01*
X44510050Y45512770D02*
X44569550D01*
Y45505420D01*
G75*
G02*
X44522900Y45458770I-46650J0D01*
G01*
X44510050D01*
Y45512770D01*
Y45611770D02*
X44522900D01*
G75*
G02*
X44569550Y45565120I0J-46650D01*
G01*
Y45557770D01*
X44510050D01*
Y45611770D01*
X44565680Y43751270D02*
G75*
G03*
X44569050Y43747900I30370J27000D01*
G01*
Y43687560D01*
G75*
G02*
X44505340Y43751270I27000J90710D01*
G01*
X44565680D01*
X44569050Y43868980D02*
Y43808640D01*
G75*
G03*
X44565680Y43805270I27000J-30370D01*
G01*
X44505340D01*
G75*
G02*
X44569050Y43868980I90710J-27000D01*
G01*
X44493050Y46705270D02*
Y46760270D01*
G75*
G02*
X44508050Y46775270I15000J0D01*
G01*
X44583050D01*
G75*
G02*
X44598050Y46760270I0J-15000D01*
G01*
Y46705270D01*
G75*
G02*
X44583050Y46690270I-15000J0D01*
G01*
X44508050D01*
G75*
G02*
X44493050Y46705270I0J15000D01*
G01*
X44328400Y48240200D02*
X44520800D01*
Y48047800D01*
X44328400D01*
Y48240200D01*
X44525050Y47419900D02*
G75*
G03*
X44528420Y47423270I-27000J30370D01*
G01*
X44588760D01*
G75*
G02*
X44525050Y47359560I-90710J27000D01*
G01*
Y47419900D01*
Y47540980D02*
G75*
G02*
X44588760Y47477270I-27000J-90710D01*
G01*
X44528420D01*
G75*
G03*
X44525050Y47480640I-30370J-27000D01*
G01*
Y47540980D01*
X44577350Y47943970D02*
X44769750D01*
Y47751570D01*
X44577350D01*
Y47943970D01*
X44582400Y48240200D02*
X44774800D01*
Y48047800D01*
X44582400D01*
Y48240200D01*
X44802400Y48117000D02*
X44856400D01*
Y48067800D01*
X44905600D01*
Y48013800D01*
X44802400D01*
Y48117000D01*
Y48274200D02*
X44905600D01*
Y48220200D01*
X44856400D01*
Y48171000D01*
X44802400D01*
Y48274200D01*
X44959600Y48067800D02*
X45008800D01*
Y48117000D01*
X45062800D01*
Y48013800D01*
X44959600D01*
Y48067800D01*
X44990410Y45535270D02*
G75*
G02*
X45111690I60640J0D01*
G01*
G75*
G02*
X44990410I-60640J0D01*
G01*
X45056400Y46304770D02*
X45110400D01*
Y46255570D01*
X45159600D01*
Y46201570D01*
X45056400D01*
Y46304770D01*
X45090400Y46173970D02*
X45282800D01*
Y45981570D01*
X45090400D01*
Y46173970D01*
X45056400Y46461970D02*
X45159600D01*
Y46407970D01*
X45110400D01*
Y46358770D01*
X45056400D01*
Y46461970D01*
X44959600Y48274200D02*
X45062800D01*
Y48171000D01*
X45008800D01*
Y48220200D01*
X44959600D01*
Y48274200D01*
X45090400Y46681970D02*
X45282800D01*
Y46489570D01*
X45090400D01*
Y46681970D01*
X45213600Y46255570D02*
X45262800D01*
Y46304770D01*
X45316800D01*
Y46201570D01*
X45213600D01*
Y46255570D01*
Y46461970D02*
X45316800D01*
Y46358770D01*
X45262800D01*
Y46407970D01*
X45213600D01*
Y46461970D01*
X45090400Y46935970D02*
X45282800D01*
Y46743570D01*
X45090400D01*
Y46935970D01*
Y47189970D02*
X45282800D01*
Y46997570D01*
X45090400D01*
Y47189970D01*
Y48240200D02*
X45282800D01*
Y48047800D01*
X45090400D01*
Y48240200D01*
X45344400Y46173970D02*
X45536800D01*
Y45981570D01*
X45344400D01*
Y46173970D01*
Y46427970D02*
X45536800D01*
Y46235570D01*
X45344400D01*
Y46427970D01*
Y46681970D02*
X45536800D01*
Y46489570D01*
X45344400D01*
Y46681970D01*
Y46935970D02*
X45536800D01*
Y46743570D01*
X45344400D01*
Y46935970D01*
Y47189970D02*
X45536800D01*
Y46997570D01*
X45344400D01*
Y47189970D01*
Y48240200D02*
X45536800D01*
Y48047800D01*
X45344400D01*
Y48240200D01*
X45588050Y46677770D02*
Y46732770D01*
G75*
G02*
X45603050Y46747770I15000J0D01*
G01*
X45678050D01*
G75*
G02*
X45693050Y46732770I0J-15000D01*
G01*
Y46677770D01*
G75*
G02*
X45678050Y46662770I-15000J0D01*
G01*
X45603050D01*
G75*
G02*
X45588050Y46677770I0J15000D01*
G01*
X45598400Y48240200D02*
X45790800D01*
Y48047800D01*
X45598400D01*
Y48240200D01*
X45852400D02*
X46044800D01*
Y48047800D01*
X45852400D01*
Y48240200D01*
X46018540Y45533270D02*
G75*
G03*
X46021050Y45530760I29510J27000D01*
G01*
Y45470230D01*
G75*
G02*
X45958010Y45533270I27000J90040D01*
G01*
X46018540D01*
X45977840Y45622770D02*
G75*
G02*
X45958010Y45658270I70210J62510D01*
G01*
X46018540D01*
G75*
G03*
X46021050Y45655760I29510J27000D01*
G01*
Y45650310D01*
Y45595230D01*
Y45589780D01*
G75*
G03*
X46018540Y45587270I27000J-29510D01*
G01*
X45958010D01*
G75*
G02*
X45977840Y45622770I90040J-27010D01*
G01*
Y45747770D02*
G75*
G02*
X45958010Y45783270I70210J62510D01*
G01*
X46018540D01*
G75*
G03*
X46021050Y45780760I29510J27000D01*
G01*
Y45775310D01*
Y45720230D01*
Y45714780D01*
G75*
G03*
X46018540Y45712270I27000J-29510D01*
G01*
X45958010D01*
G75*
G02*
X45977840Y45747770I90040J-27010D01*
G01*
Y45872770D02*
G75*
G02*
X45958010Y45908270I70210J62510D01*
G01*
X46018540D01*
G75*
G03*
X46021050Y45905760I29510J27000D01*
G01*
Y45900310D01*
Y45845230D01*
Y45839780D01*
G75*
G03*
X46018540Y45837270I27000J-29510D01*
G01*
X45958010D01*
G75*
G02*
X45977840Y45872770I90040J-27010D01*
G01*
Y45997770D02*
G75*
G02*
X45958010Y46033270I70210J62510D01*
G01*
X46018540D01*
G75*
G03*
X46021050Y46030760I29510J27000D01*
G01*
Y46025310D01*
Y45970230D01*
Y45964780D01*
G75*
G03*
X46018540Y45962270I27000J-29510D01*
G01*
X45958010D01*
G75*
G02*
X45977840Y45997770I90040J-27010D01*
G01*
Y46122770D02*
G75*
G02*
X45958010Y46158270I70210J62510D01*
G01*
X46018540D01*
G75*
G03*
X46021050Y46155760I29510J27000D01*
G01*
Y46150310D01*
Y46095230D01*
Y46089780D01*
G75*
G03*
X46018540Y46087270I27000J-29510D01*
G01*
X45958010D01*
G75*
G02*
X45977840Y46122770I90040J-27010D01*
G01*
Y46247770D02*
G75*
G02*
X45958010Y46283270I70210J62510D01*
G01*
X46018540D01*
G75*
G03*
X46021050Y46280760I29510J27000D01*
G01*
Y46275310D01*
Y46220230D01*
Y46214780D01*
G75*
G03*
X46018540Y46212270I27000J-29510D01*
G01*
X45958010D01*
G75*
G02*
X45977840Y46247770I90040J-27010D01*
G01*
X46021050Y46400310D02*
Y46339780D01*
G75*
G03*
X46018540Y46337270I27000J-29510D01*
G01*
X45958010D01*
G75*
G02*
X46021050Y46400310I90040J-27000D01*
G01*
X46075050Y46363020D02*
Y46400310D01*
G75*
G02*
X46138090Y46337270I-27000J-90040D01*
G01*
X46121800D01*
Y46299980D01*
G75*
G02*
X46058760Y46363020I27000J90040D01*
G01*
X46075050D01*
X46121880Y45458700D02*
G75*
G03*
X46124390Y45456190I29510J27000D01*
G01*
Y45395660D01*
G75*
G02*
X46061350Y45458700I27000J90040D01*
G01*
X46121880D01*
X46124390Y45575740D02*
Y45533270D01*
X46138090D01*
G75*
G02*
X46075050Y45470230I-90040J27000D01*
G01*
Y45512700D01*
X46061350D01*
G75*
G02*
X46124390Y45575740I90040J-27000D01*
G01*
X46075050Y45595230D02*
Y45650310D01*
Y45655760D01*
G75*
G03*
X46077560Y45658270I-27000J29510D01*
G01*
X46138090D01*
G75*
G02*
X46118260Y45622770I-90040J27010D01*
G01*
G75*
G02*
X46138090Y45587270I-70210J-62510D01*
G01*
X46077560D01*
G75*
G03*
X46075050Y45589780I-29510J-27000D01*
G01*
Y45595230D01*
Y45720230D02*
Y45775310D01*
Y45780760D01*
G75*
G03*
X46077560Y45783270I-27000J29510D01*
G01*
X46138090D01*
G75*
G02*
X46118260Y45747770I-90040J27010D01*
G01*
G75*
G02*
X46138090Y45712270I-70210J-62510D01*
G01*
X46077560D01*
G75*
G03*
X46075050Y45714780I-29510J-27000D01*
G01*
Y45720230D01*
Y45845230D02*
Y45900310D01*
Y45905760D01*
G75*
G03*
X46077560Y45908270I-27000J29510D01*
G01*
X46138090D01*
G75*
G02*
X46118260Y45872770I-90040J27010D01*
G01*
G75*
G02*
X46138090Y45837270I-70210J-62510D01*
G01*
X46077560D01*
G75*
G03*
X46075050Y45839780I-29510J-27000D01*
G01*
Y45845230D01*
Y45970230D02*
Y46025310D01*
Y46030760D01*
G75*
G03*
X46077560Y46033270I-27000J29510D01*
G01*
X46138090D01*
G75*
G02*
X46118260Y45997770I-90040J27010D01*
G01*
G75*
G02*
X46138090Y45962270I-70210J-62510D01*
G01*
X46077560D01*
G75*
G03*
X46075050Y45964780I-29510J-27000D01*
G01*
Y45970230D01*
Y46095230D02*
Y46150310D01*
Y46155760D01*
G75*
G03*
X46077560Y46158270I-27000J29510D01*
G01*
X46138090D01*
G75*
G02*
X46118260Y46122770I-90040J27010D01*
G01*
G75*
G02*
X46138090Y46087270I-70210J-62510D01*
G01*
X46077560D01*
G75*
G03*
X46075050Y46089780I-29510J-27000D01*
G01*
Y46095230D01*
Y46220230D02*
Y46275310D01*
Y46280760D01*
G75*
G03*
X46077560Y46283270I-27000J29510D01*
G01*
X46138090D01*
G75*
G02*
X46118260Y46247770I-90040J27010D01*
G01*
G75*
G02*
X46138090Y46212270I-70210J-62510D01*
G01*
X46077560D01*
G75*
G03*
X46075050Y46214780I-29510J-27000D01*
G01*
Y46220230D01*
X46121800Y46480060D02*
Y46419530D01*
G75*
G03*
X46119290Y46417020I27000J-29510D01*
G01*
X46058760D01*
G75*
G02*
X46121800Y46480060I90040J-27000D01*
G01*
X46106400Y48240200D02*
X46298800D01*
Y48047800D01*
X46106400D01*
Y48240200D01*
X46175800Y46360510D02*
G75*
G03*
X46178310Y46363020I-27000J29510D01*
G01*
X46183760D01*
X46238840D01*
X46244290D01*
G75*
G03*
X46246800Y46360510I29510J27000D01*
G01*
Y46299980D01*
G75*
G02*
X46211300Y46319810I27010J90040D01*
G01*
G75*
G02*
X46175800Y46299980I-62510J70210D01*
G01*
Y46360510D01*
X46178390Y45456190D02*
G75*
G03*
X46180900Y45458700I-27000J29510D01*
G01*
X46191350D01*
X46241430D01*
X46251880D01*
G75*
G03*
X46254390Y45456190I29510J27000D01*
G01*
Y45395660D01*
G75*
G02*
X46216390Y45417790I27000J90040D01*
G01*
G75*
G02*
X46178390Y45395660I-65000J67910D01*
G01*
Y45456190D01*
X46225550Y45192770D02*
Y45247770D01*
G75*
G02*
X46240550Y45262770I15000J0D01*
G01*
X46315550D01*
G75*
G02*
X46330550Y45247770I0J-15000D01*
G01*
Y45192770D01*
G75*
G02*
X46315550Y45177770I-15000J0D01*
G01*
X46240550D01*
G75*
G02*
X46225550Y45192770I0J15000D01*
G01*
X46178390Y45575740D02*
G75*
G02*
X46216390Y45553610I-27000J-90040D01*
G01*
G75*
G02*
X46254390Y45575740I65000J-67910D01*
G01*
Y45515210D01*
G75*
G03*
X46251880Y45512700I27000J-29510D01*
G01*
X46241430D01*
X46191350D01*
X46180900D01*
G75*
G03*
X46178390Y45515210I-29510J-27000D01*
G01*
Y45575740D01*
X46175800Y46480060D02*
G75*
G02*
X46211300Y46460230I-27010J-90040D01*
G01*
G75*
G02*
X46246800Y46480060I62510J-70210D01*
G01*
Y46419530D01*
G75*
G03*
X46244290Y46417020I27000J-29510D01*
G01*
X46238840D01*
X46183760D01*
X46178310D01*
G75*
G03*
X46175800Y46419530I-29510J-27000D01*
G01*
Y46480060D01*
X46300800Y46360510D02*
G75*
G03*
X46303310Y46363020I-27000J29510D01*
G01*
X46308760D01*
X46363840D01*
X46369290D01*
G75*
G03*
X46371800Y46360510I29510J27000D01*
G01*
Y46299980D01*
G75*
G02*
X46336300Y46319810I27010J90040D01*
G01*
G75*
G02*
X46300800Y46299980I-62510J70210D01*
G01*
Y46360510D01*
X46358890Y46157770D02*
Y46212770D01*
G75*
G02*
X46373890Y46227770I15000J0D01*
G01*
X46448890D01*
G75*
G02*
X46463890Y46212770I0J-15000D01*
G01*
Y46157770D01*
G75*
G02*
X46448890Y46142770I-15000J0D01*
G01*
X46373890D01*
G75*
G02*
X46358890Y46157770I0J15000D01*
G01*
X46438390Y45456190D02*
G75*
G03*
X46440900Y45458700I-27000J29510D01*
G01*
X46490550D01*
Y45512700D01*
X46440900D01*
G75*
G03*
X46438390Y45515210I-29510J-27000D01*
G01*
Y45575740D01*
G75*
G02*
X46496800Y45524960I-27000J-90040D01*
G01*
G75*
G02*
X46505550Y45527770I8740J-12190D01*
G01*
X46580550D01*
G75*
G02*
X46595550Y45512770I0J-15000D01*
G01*
Y45457770D01*
G75*
G02*
X46580550Y45442770I-15000J0D01*
G01*
X46505550D01*
G75*
G02*
X46496500Y45445800I-10J15000D01*
G01*
G75*
G02*
X46438390Y45395660I-85110J39900D01*
G01*
Y45456190D01*
X46558200Y45257770D02*
X46571050D01*
Y45203770D01*
X46511550D01*
Y45211120D01*
G75*
G02*
X46558200Y45257770I46650J0D01*
G01*
X46308390Y45456190D02*
G75*
G03*
X46310900Y45458700I-27000J29510D01*
G01*
X46321350D01*
X46371430D01*
X46381880D01*
G75*
G03*
X46384390Y45456190I29510J27000D01*
G01*
Y45395660D01*
G75*
G02*
X46346390Y45417790I27000J90040D01*
G01*
G75*
G02*
X46308390Y45395660I-65000J67910D01*
G01*
Y45456190D01*
Y45575740D02*
G75*
G02*
X46346390Y45553610I-27000J-90040D01*
G01*
G75*
G02*
X46384390Y45575740I65000J-67910D01*
G01*
Y45515210D01*
G75*
G03*
X46381880Y45512700I27000J-29510D01*
G01*
X46371430D01*
X46321350D01*
X46310900D01*
G75*
G03*
X46308390Y45515210I-29510J-27000D01*
G01*
Y45575740D01*
X46300800Y46480060D02*
G75*
G02*
X46336300Y46460230I-27010J-90040D01*
G01*
G75*
G02*
X46371800Y46480060I62510J-70210D01*
G01*
Y46419530D01*
G75*
G03*
X46369290Y46417020I27000J-29510D01*
G01*
X46363840D01*
X46308760D01*
X46303310D01*
G75*
G03*
X46300800Y46419530I-29510J-27000D01*
G01*
Y46480060D01*
X46360400Y48240200D02*
X46552800D01*
Y48047800D01*
X46360400D01*
Y48240200D01*
X46425800Y46360510D02*
G75*
G03*
X46428310Y46363020I-27000J29510D01*
G01*
X46428760D01*
X46488840D01*
X46489290D01*
G75*
G03*
X46491800Y46360510I29510J27000D01*
G01*
Y46299980D01*
G75*
G02*
X46458800Y46317660I27000J90040D01*
G01*
G75*
G02*
X46425800Y46299980I-60000J72360D01*
G01*
Y46360510D01*
Y46480060D02*
G75*
G02*
X46458800Y46462380I-27000J-90040D01*
G01*
G75*
G02*
X46491800Y46480060I60000J-72360D01*
G01*
Y46419530D01*
G75*
G03*
X46489290Y46417020I27000J-29510D01*
G01*
X46488840D01*
X46428760D01*
X46428310D01*
G75*
G03*
X46425800Y46419530I-29510J-27000D01*
G01*
Y46480060D01*
X46448550Y47795770D02*
Y47870770D01*
G75*
G02*
X46463550Y47885770I15000J0D01*
G01*
X46518550D01*
G75*
G02*
X46533550Y47870770I0J-15000D01*
G01*
Y47795770D01*
G75*
G02*
X46518550Y47780770I-15000J0D01*
G01*
X46463550D01*
G75*
G02*
X46448550Y47795770I0J15000D01*
G01*
X46515550Y47642770D02*
Y47697770D01*
G75*
G02*
X46530550Y47712770I15000J0D01*
G01*
X46605550D01*
G75*
G02*
X46620550Y47697770I0J-15000D01*
G01*
Y47642770D01*
G75*
G02*
X46605550Y47627770I-15000J0D01*
G01*
X46530550D01*
G75*
G02*
X46515550Y47642770I0J15000D01*
G01*
X46593540Y45762360D02*
G75*
G03*
X46596050Y45759850I29510J27000D01*
G01*
Y45699320D01*
G75*
G02*
X46533010Y45762360I27000J90040D01*
G01*
X46593540D01*
X46555140Y45854360D02*
G75*
G02*
X46533010Y45892360I67910J65000D01*
G01*
X46593540D01*
G75*
G03*
X46596050Y45889850I29510J27000D01*
G01*
Y45879400D01*
Y45829320D01*
Y45818870D01*
G75*
G03*
X46593540Y45816360I27000J-29510D01*
G01*
X46533010D01*
G75*
G02*
X46555140Y45854360I90040J-27000D01*
G01*
Y45984360D02*
G75*
G02*
X46533010Y46022360I67910J65000D01*
G01*
X46593540D01*
G75*
G03*
X46596050Y46019850I29510J27000D01*
G01*
Y46009400D01*
Y45959320D01*
Y45948870D01*
G75*
G03*
X46593540Y45946360I27000J-29510D01*
G01*
X46533010D01*
G75*
G02*
X46555140Y45984360I90040J-27000D01*
G01*
Y46114360D02*
G75*
G02*
X46533010Y46152360I67910J65000D01*
G01*
X46593540D01*
G75*
G03*
X46596050Y46149850I29510J27000D01*
G01*
Y46139400D01*
Y46089320D01*
Y46078870D01*
G75*
G03*
X46593540Y46076360I27000J-29510D01*
G01*
X46533010D01*
G75*
G02*
X46555140Y46114360I90040J-27000D01*
G01*
Y46244360D02*
G75*
G02*
X46533010Y46282360I67910J65000D01*
G01*
X46593540D01*
G75*
G03*
X46596050Y46279850I29510J27000D01*
G01*
Y46269400D01*
Y46219320D01*
Y46208870D01*
G75*
G03*
X46593540Y46206360I27000J-29510D01*
G01*
X46533010D01*
G75*
G02*
X46555140Y46244360I90040J-27000D01*
G01*
X46596050Y46399400D02*
Y46363020D01*
X46608840D01*
G75*
G02*
X46545800Y46299980I-90040J27000D01*
G01*
Y46336360D01*
X46533010D01*
G75*
G02*
X46596050Y46399400I90040J-27000D01*
G01*
X46541490Y47580440D02*
X46580380Y47619330D01*
G75*
G02*
X46601580I10600J-10600D01*
G01*
X46654610Y47566300D01*
G75*
G02*
X46659000Y47555700I-10600J-10600D01*
G01*
G75*
G02*
X46654610Y47545100I-14990J0D01*
G01*
X46615720Y47506210D01*
G75*
G02*
X46594520I-10600J10600D01*
G01*
X46541490Y47559240D01*
G75*
G02*
X46537100Y47569840I10600J10600D01*
G01*
G75*
G02*
X46541490Y47580440I14990J0D01*
G01*
X46625050Y45257770D02*
X46637900D01*
G75*
G02*
X46684550Y45211120I0J-46650D01*
G01*
Y45203770D01*
X46625050D01*
Y45257770D01*
X46650050Y45759850D02*
G75*
G03*
X46652560Y45762360I-27000J29510D01*
G01*
X46713090D01*
G75*
G02*
X46650050Y45699320I-90040J27000D01*
G01*
Y45759850D01*
X46685550Y44137770D02*
Y44212770D01*
G75*
G02*
X46700550Y44227770I15000J0D01*
G01*
X46755550D01*
G75*
G02*
X46770550Y44212770I0J-15000D01*
G01*
Y44137770D01*
G75*
G02*
X46755550Y44122770I-15000J0D01*
G01*
X46700550D01*
G75*
G02*
X46685550Y44137770I0J15000D01*
G01*
X46650050Y45829320D02*
Y45879400D01*
Y45889850D01*
G75*
G03*
X46652560Y45892360I-27000J29510D01*
G01*
X46713090D01*
G75*
G02*
X46690960Y45854360I-90040J27000D01*
G01*
G75*
G02*
X46713090Y45816360I-67910J-65000D01*
G01*
X46652560D01*
G75*
G03*
X46650050Y45818870I-29510J-27000D01*
G01*
Y45829320D01*
Y45959320D02*
Y46009400D01*
Y46019850D01*
G75*
G03*
X46652560Y46022360I-27000J29510D01*
G01*
X46713090D01*
G75*
G02*
X46690960Y45984360I-90040J27000D01*
G01*
G75*
G02*
X46713090Y45946360I-67910J-65000D01*
G01*
X46652560D01*
G75*
G03*
X46650050Y45948870I-29510J-27000D01*
G01*
Y45959320D01*
Y46089320D02*
Y46139400D01*
Y46149850D01*
G75*
G03*
X46652560Y46152360I-27000J29510D01*
G01*
X46713090D01*
G75*
G02*
X46690960Y46114360I-90040J27000D01*
G01*
G75*
G02*
X46713090Y46076360I-67910J-65000D01*
G01*
X46652560D01*
G75*
G03*
X46650050Y46078870I-29510J-27000D01*
G01*
Y46089320D01*
Y46219320D02*
Y46269400D01*
Y46279850D01*
G75*
G03*
X46652560Y46282360I-27000J29510D01*
G01*
X46713090D01*
G75*
G02*
X46690960Y46244360I-90040J27000D01*
G01*
G75*
G02*
X46713090Y46206360I-67910J-65000D01*
G01*
X46652560D01*
G75*
G03*
X46650050Y46208870I-29510J-27000D01*
G01*
Y46219320D01*
Y46399400D02*
G75*
G02*
X46713090Y46336360I-27000J-90040D01*
G01*
X46652560D01*
G75*
G03*
X46650050Y46338870I-29510J-27000D01*
G01*
Y46399400D01*
X46545800Y46480060D02*
G75*
G02*
X46608840Y46417020I-27000J-90040D01*
G01*
X46548310D01*
G75*
G03*
X46545800Y46419530I-29510J-27000D01*
G01*
Y46480060D01*
X46590550Y47795770D02*
Y47870770D01*
G75*
G02*
X46605550Y47885770I15000J0D01*
G01*
X46660550D01*
G75*
G02*
X46675550Y47870770I0J-15000D01*
G01*
Y47795770D01*
G75*
G02*
X46660550Y47780770I-15000J0D01*
G01*
X46605550D01*
G75*
G02*
X46590550Y47795770I0J15000D01*
G01*
X46631490Y47697940D02*
X46670380Y47736830D01*
G75*
G02*
X46691580I10600J-10600D01*
G01*
X46744610Y47683800D01*
G75*
G02*
X46749000Y47673200I-10600J-10600D01*
G01*
G75*
G02*
X46744610Y47662600I-14990J0D01*
G01*
X46705720Y47623710D01*
G75*
G02*
X46684520I-10600J10600D01*
G01*
X46631490Y47676740D01*
G75*
G02*
X46627100Y47687340I10600J10600D01*
G01*
G75*
G02*
X46631490Y47697940I14990J0D01*
G01*
X46768850Y48236470D02*
X46961250D01*
Y48044070D01*
X46768850D01*
Y48236470D01*
X46771800Y43397200D02*
X46964200D01*
Y43204800D01*
X46771800D01*
Y43397200D01*
X46818990Y44518800D02*
X46872020Y44571830D01*
G75*
G02*
X46893220I10600J-10600D01*
G01*
X46932110Y44532940D01*
G75*
G02*
X46936500Y44522340I-10600J-10600D01*
G01*
G75*
G02*
X46932110Y44511740I-14990J0D01*
G01*
X46879080Y44458710D01*
G75*
G02*
X46857880I-10600J10600D01*
G01*
X46818990Y44497600D01*
G75*
G02*
X46814600Y44508200I10600J10600D01*
G01*
G75*
G02*
X46818990Y44518800I14990J0D01*
G01*
X46890550Y43977770D02*
Y44052770D01*
G75*
G02*
X46905550Y44067770I15000J0D01*
G01*
X46960550D01*
G75*
G02*
X46975550Y44052770I0J-15000D01*
G01*
Y43977770D01*
G75*
G02*
X46960550Y43962770I-15000J0D01*
G01*
X46905550D01*
G75*
G02*
X46890550Y43977770I0J15000D01*
G01*
X47026680Y43764270D02*
G75*
G03*
X47030050Y43760900I30370J27000D01*
G01*
Y43700560D01*
G75*
G02*
X46966340Y43764270I27000J90710D01*
G01*
X47026680D01*
X47030050Y43881980D02*
Y43821640D01*
G75*
G03*
X47026680Y43818270I27000J-30370D01*
G01*
X46966340D01*
G75*
G02*
X47030050Y43881980I90710J-27000D01*
G01*
X46913050Y44135420D02*
Y44148270D01*
X46967050D01*
Y44088770D01*
X46959700D01*
G75*
G02*
X46913050Y44135420I0J46650D01*
G01*
X46959700Y44261770D02*
X46967050D01*
Y44202270D01*
X46913050D01*
Y44215120D01*
G75*
G02*
X46959700Y44261770I46650J0D01*
G01*
X47012050Y44148270D02*
X47066050D01*
Y44135420D01*
G75*
G02*
X47019400Y44088770I-46650J0D01*
G01*
X47012050D01*
Y44148270D01*
Y44261770D02*
X47019400D01*
G75*
G02*
X47066050Y44215120I0J-46650D01*
G01*
Y44202270D01*
X47012050D01*
Y44261770D01*
X47022850Y48236470D02*
X47215250D01*
Y48044070D01*
X47022850D01*
Y48236470D01*
X47047550Y45215420D02*
Y45222770D01*
X47107050D01*
Y45168770D01*
X47094200D01*
G75*
G02*
X47047550Y45215420I0J46650D01*
G01*
X47060550Y44446420D02*
Y44459270D01*
X47114550D01*
Y44399770D01*
X47107200D01*
G75*
G02*
X47060550Y44446420I0J46650D01*
G01*
X47084050Y43760900D02*
G75*
G03*
X47087420Y43764270I-27000J30370D01*
G01*
X47147760D01*
G75*
G02*
X47084050Y43700560I-90710J27000D01*
G01*
Y43760900D01*
Y43881980D02*
G75*
G02*
X47147760Y43818270I-27000J-90710D01*
G01*
X47087420D01*
G75*
G03*
X47084050Y43821640I-30370J-27000D01*
G01*
Y43881980D01*
X47107200Y44572770D02*
X47114550D01*
Y44513270D01*
X47060550D01*
Y44526120D01*
G75*
G02*
X47107200Y44572770I46650J0D01*
G01*
X47085550Y44782770D02*
Y44857770D01*
G75*
G02*
X47100550Y44872770I15000J0D01*
G01*
X47155550D01*
G75*
G02*
X47170550Y44857770I0J-15000D01*
G01*
Y44782770D01*
X47205550D01*
Y44857770D01*
G75*
G02*
X47220550Y44872770I15000J0D01*
G01*
X47275550D01*
G75*
G02*
X47290550Y44857770I0J-15000D01*
G01*
Y44782770D01*
G75*
G02*
X47275550Y44767770I-15000J0D01*
G01*
X47230550D01*
Y44692770D01*
G75*
G02*
X47215550Y44677770I-15000J0D01*
G01*
X47160550D01*
G75*
G02*
X47145550Y44692770I0J15000D01*
G01*
Y44767770D01*
X47100550D01*
G75*
G02*
X47085550Y44782770I0J15000D01*
G01*
X47285550Y44537770D02*
Y44612770D01*
G75*
G02*
X47300550Y44627770I15000J0D01*
G01*
X47355550D01*
G75*
G02*
X47370550Y44612770I0J-15000D01*
G01*
Y44537770D01*
G75*
G02*
X47355550Y44522770I-15000J0D01*
G01*
X47300550D01*
G75*
G02*
X47285550Y44537770I0J15000D01*
G01*
X47205550Y44627770D02*
X47260550D01*
G75*
G02*
X47275550Y44612770I0J-15000D01*
G01*
Y44537770D01*
G75*
G02*
X47260550Y44522770I-15000J0D01*
G01*
X47213550D01*
Y44513270D01*
X47159550D01*
Y44572770D01*
X47166900D01*
G75*
G02*
X47190550Y44566330I0J-46650D01*
G01*
Y44612770D01*
G75*
G02*
X47205550Y44627770I15000J0D01*
G01*
X47264800Y43397200D02*
X47457200D01*
Y43204800D01*
X47264800D01*
Y43397200D01*
X47159550Y44459270D02*
X47213550D01*
Y44446420D01*
G75*
G02*
X47166900Y44399770I-46650J0D01*
G01*
X47159550D01*
Y44459270D01*
X47145550Y43977770D02*
Y44052770D01*
G75*
G02*
X47160550Y44067770I15000J0D01*
G01*
X47215550D01*
G75*
G02*
X47230550Y44052770I0J-15000D01*
G01*
Y43977770D01*
G75*
G02*
X47215550Y43962770I-15000J0D01*
G01*
X47160550D01*
G75*
G02*
X47145550Y43977770I0J15000D01*
G01*
X47084550Y45320760D02*
Y45365270D01*
G75*
G02*
X47099550Y45380270I15000J0D01*
G01*
X47174550D01*
G75*
G02*
X47189550Y45365270I0J-15000D01*
G01*
Y45319070D01*
G75*
G02*
X47220550Y45275120I-15650J-43950D01*
G01*
Y45267770D01*
X47161050D01*
Y45295270D01*
X47107050D01*
Y45267770D01*
X47047550D01*
Y45275120D01*
G75*
G02*
X47084550Y45320760I46650J0D01*
G01*
X47161050Y45222770D02*
X47220550D01*
Y45215420D01*
G75*
G02*
X47173900Y45168770I-46650J0D01*
G01*
X47161050D01*
Y45222770D01*
X47070550Y45625270D02*
Y45700270D01*
G75*
G02*
X47085550Y45715270I15000J0D01*
G01*
X47140550D01*
G75*
G02*
X47155550Y45700270I0J-15000D01*
G01*
Y45625270D01*
G75*
G02*
X47140550Y45610270I-15000J0D01*
G01*
X47085550D01*
G75*
G02*
X47070550Y45625270I0J15000D01*
G01*
X47073050Y47060270D02*
Y47135270D01*
G75*
G02*
X47088050Y47150270I15000J0D01*
G01*
X47143050D01*
G75*
G02*
X47158050Y47135270I0J-15000D01*
G01*
Y47060270D01*
G75*
G02*
X47143050Y47045270I-15000J0D01*
G01*
X47088050D01*
G75*
G02*
X47073050Y47060270I0J15000D01*
G01*
X47135550Y46940270D02*
Y47015270D01*
G75*
G02*
X47150550Y47030270I15000J0D01*
G01*
X47205550D01*
G75*
G02*
X47220550Y47015270I0J-15000D01*
G01*
Y46940270D01*
G75*
G02*
X47205550Y46925270I-15000J0D01*
G01*
X47150550D01*
G75*
G02*
X47135550Y46940270I0J15000D01*
G01*
X47165550Y45625270D02*
Y45700270D01*
G75*
G02*
X47180550Y45715270I15000J0D01*
G01*
X47235550D01*
G75*
G02*
X47250550Y45700270I0J-15000D01*
G01*
Y45625270D01*
G75*
G02*
X47235550Y45610270I-15000J0D01*
G01*
X47180550D01*
G75*
G02*
X47165550Y45625270I0J15000D01*
G01*
X47202550Y46069900D02*
G75*
G03*
X47205920Y46073270I-27000J30370D01*
G01*
X47266260D01*
G75*
G02*
X47202550Y46009560I-90710J27000D01*
G01*
Y46069900D01*
Y46190980D02*
G75*
G02*
X47266260Y46127270I-27000J-90710D01*
G01*
X47205920D01*
G75*
G03*
X47202550Y46130640I-30370J-27000D01*
G01*
Y46190980D01*
X47075550Y45827770D02*
Y45902770D01*
G75*
G02*
X47090550Y45917770I15000J0D01*
G01*
X47145550D01*
G75*
G02*
X47160550Y45902770I0J-15000D01*
G01*
Y45827770D01*
G75*
G02*
X47145550Y45812770I-15000J0D01*
G01*
X47090550D01*
G75*
G02*
X47075550Y45827770I0J15000D01*
G01*
X47145180Y46073270D02*
G75*
G03*
X47148550Y46069900I30370J27000D01*
G01*
Y46009560D01*
G75*
G02*
X47084840Y46073270I27000J90710D01*
G01*
X47145180D01*
X47148550Y46190980D02*
Y46130640D01*
G75*
G03*
X47145180Y46127270I27000J-30370D01*
G01*
X47084840D01*
G75*
G02*
X47148550Y46190980I90710J-27000D01*
G01*
X47198050Y47057770D02*
Y47132770D01*
G75*
G02*
X47213050Y47147770I15000J0D01*
G01*
X47268050D01*
G75*
G02*
X47283050Y47132770I0J-15000D01*
G01*
Y47057770D01*
G75*
G02*
X47268050Y47042770I-15000J0D01*
G01*
X47213050D01*
G75*
G02*
X47198050Y47057770I0J15000D01*
G01*
X47255550Y46940270D02*
Y47015270D01*
G75*
G02*
X47270550Y47030270I15000J0D01*
G01*
X47325550D01*
G75*
G02*
X47340550Y47015270I0J-15000D01*
G01*
Y46940270D01*
G75*
G02*
X47325550Y46925270I-15000J0D01*
G01*
X47270550D01*
G75*
G02*
X47255550Y46940270I0J15000D01*
G01*
X47295550Y45018770D02*
Y45093770D01*
G75*
G02*
X47310550Y45108770I15000J0D01*
G01*
X47365550D01*
G75*
G02*
X47380550Y45093770I0J-15000D01*
G01*
Y45018770D01*
G75*
G02*
X47365550Y45003770I-15000J0D01*
G01*
X47310550D01*
G75*
G02*
X47295550Y45018770I0J15000D01*
G01*
X47378050Y44535270D02*
Y44610270D01*
G75*
G02*
X47393050Y44625270I15000J0D01*
G01*
X47448050D01*
G75*
G02*
X47463050Y44610270I0J-15000D01*
G01*
Y44535270D01*
G75*
G02*
X47448050Y44520270I-15000J0D01*
G01*
X47393050D01*
G75*
G02*
X47378050Y44535270I0J15000D01*
G01*
X47276850Y48236470D02*
X47469250D01*
Y48044070D01*
X47276850D01*
Y48236470D01*
X47320550Y47540270D02*
Y47595270D01*
G75*
G02*
X47335550Y47610270I15000J0D01*
G01*
X47410550D01*
G75*
G02*
X47425550Y47595270I0J-15000D01*
G01*
Y47540270D01*
G75*
G02*
X47410550Y47525270I-15000J0D01*
G01*
X47335550D01*
G75*
G02*
X47320550Y47540270I0J15000D01*
G01*
X47325550Y47437770D02*
Y47492770D01*
G75*
G02*
X47340550Y47507770I15000J0D01*
G01*
X47415550D01*
G75*
G02*
X47430550Y47492770I0J-15000D01*
G01*
Y47437770D01*
G75*
G02*
X47415550Y47422770I-15000J0D01*
G01*
X47340550D01*
G75*
G02*
X47325550Y47437770I0J15000D01*
G01*
X47320550Y47672770D02*
Y47727770D01*
G75*
G02*
X47335550Y47742770I15000J0D01*
G01*
X47410550D01*
G75*
G02*
X47425550Y47727770I0J-15000D01*
G01*
Y47672770D01*
G75*
G02*
X47410550Y47657770I-15000J0D01*
G01*
X47335550D01*
G75*
G02*
X47320550Y47672770I0J15000D01*
G01*
X47510550Y44292770D02*
Y44367770D01*
G75*
G02*
X47525550Y44382770I15000J0D01*
G01*
X47580550D01*
G75*
G02*
X47595550Y44367770I0J-15000D01*
G01*
Y44292770D01*
G75*
G02*
X47580550Y44277770I-15000J0D01*
G01*
X47525550D01*
G75*
G02*
X47510550Y44292770I0J15000D01*
G01*
X47518800Y43397200D02*
X47711200D01*
Y43204800D01*
X47518800D01*
Y43397200D01*
X47530850Y48236470D02*
X47723250D01*
Y48044070D01*
X47530850D01*
Y48236470D01*
X47538300Y46395270D02*
Y46470270D01*
G75*
G02*
X47553300Y46485270I15000J0D01*
G01*
X47608300D01*
G75*
G02*
X47623300Y46470270I0J-15000D01*
G01*
Y46395270D01*
G75*
G02*
X47608300Y46380270I-15000J0D01*
G01*
X47553300D01*
G75*
G02*
X47538300Y46395270I0J15000D01*
G01*
X47545800Y46137770D02*
Y46212770D01*
G75*
G02*
X47560800Y46227770I15000J0D01*
G01*
X47615800D01*
G75*
G02*
X47630800Y46212770I0J-15000D01*
G01*
Y46137770D01*
G75*
G02*
X47615800Y46122770I-15000J0D01*
G01*
X47560800D01*
G75*
G02*
X47545800Y46137770I0J15000D01*
G01*
X47550800Y45895270D02*
Y45970270D01*
G75*
G02*
X47565800Y45985270I15000J0D01*
G01*
X47620800D01*
G75*
G02*
X47635800Y45970270I0J-15000D01*
G01*
Y45895270D01*
G75*
G02*
X47620800Y45880270I-15000J0D01*
G01*
X47565800D01*
G75*
G02*
X47550800Y45895270I0J15000D01*
G01*
X47538300Y46645270D02*
Y46720270D01*
G75*
G02*
X47553300Y46735270I15000J0D01*
G01*
X47608300D01*
G75*
G02*
X47623300Y46720270I0J-15000D01*
G01*
Y46645270D01*
G75*
G02*
X47608300Y46630270I-15000J0D01*
G01*
X47553300D01*
G75*
G02*
X47538300Y46645270I0J15000D01*
G01*
X47568550Y47375270D02*
Y47430270D01*
G75*
G02*
X47583550Y47445270I15000J0D01*
G01*
X47658550D01*
G75*
G02*
X47673550Y47430270I0J-15000D01*
G01*
Y47375270D01*
G75*
G02*
X47658550Y47360270I-15000J0D01*
G01*
X47583550D01*
G75*
G02*
X47568550Y47375270I0J15000D01*
G01*
Y47614770D02*
Y47669770D01*
G75*
G02*
X47583550Y47684770I15000J0D01*
G01*
X47658550D01*
G75*
G02*
X47673550Y47669770I0J-15000D01*
G01*
Y47614770D01*
G75*
G02*
X47658550Y47599770I-15000J0D01*
G01*
X47583550D01*
G75*
G02*
X47568550Y47614770I0J15000D01*
G01*
X47686550Y44781120D02*
Y44788470D01*
X47746050D01*
Y44734470D01*
X47733200D01*
G75*
G02*
X47686550Y44781120I0J46650D01*
G01*
X47720550Y44885720D02*
Y44922770D01*
G75*
G02*
X47735550Y44937770I15000J0D01*
G01*
X47810550D01*
G75*
G02*
X47825550Y44922770I0J-15000D01*
G01*
Y44885720D01*
G75*
G02*
X47859550Y44840820I-12650J-44900D01*
G01*
Y44833470D01*
X47800050D01*
Y44852770D01*
X47746050D01*
Y44833470D01*
X47686550D01*
Y44840820D01*
G75*
G02*
X47720550Y44885720I46650J0D01*
G01*
X47772800Y43397200D02*
X47965200D01*
Y43204800D01*
X47772800D01*
Y43397200D01*
X47800050Y44788470D02*
X47859550D01*
Y44781120D01*
G75*
G02*
X47812900Y44734470I-46650J0D01*
G01*
X47800050D01*
Y44788470D01*
X47702320Y45301770D02*
Y45356770D01*
G75*
G02*
X47717320Y45371770I15000J0D01*
G01*
X47792320D01*
G75*
G02*
X47807320Y45356770I0J-15000D01*
G01*
Y45301770D01*
G75*
G02*
X47792320Y45286770I-15000J0D01*
G01*
X47717320D01*
G75*
G02*
X47702320Y45301770I0J15000D01*
G01*
X47784850Y48236470D02*
X47977250D01*
Y48044070D01*
X47784850D01*
Y48236470D01*
X47817420Y45301770D02*
Y45356770D01*
G75*
G02*
X47832420Y45371770I15000J0D01*
G01*
X47907420D01*
G75*
G02*
X47922420Y45356770I0J-15000D01*
G01*
Y45301770D01*
G75*
G02*
X47907420Y45286770I-15000J0D01*
G01*
X47832420D01*
G75*
G02*
X47817420Y45301770I0J15000D01*
G01*
X47932510D02*
Y45356770D01*
G75*
G02*
X47947510Y45371770I15000J0D01*
G01*
X48022510D01*
G75*
G02*
X48037510Y45356770I0J-15000D01*
G01*
Y45301770D01*
G75*
G02*
X48022510Y45286770I-15000J0D01*
G01*
X47947510D01*
G75*
G02*
X47932510Y45301770I0J15000D01*
G01*
X48026800Y43397200D02*
X48219200D01*
Y43204800D01*
X48026800D01*
Y43397200D01*
X48038850Y48236470D02*
X48231250D01*
Y48044070D01*
X48038850D01*
Y48236470D01*
X48039550Y45301770D02*
Y45356770D01*
G75*
G02*
X48054550Y45371770I15000J0D01*
G01*
X48129550D01*
G75*
G02*
X48144550Y45356770I0J-15000D01*
G01*
Y45301770D01*
G75*
G02*
X48129550Y45286770I-15000J0D01*
G01*
X48054550D01*
G75*
G02*
X48039550Y45301770I0J15000D01*
G01*
X48131550Y45127770D02*
Y45182770D01*
G75*
G02*
X48146550Y45197770I15000J0D01*
G01*
X48221550D01*
G75*
G02*
X48236550Y45182770I0J-15000D01*
G01*
Y45127770D01*
G75*
G02*
X48221550Y45112770I-15000J0D01*
G01*
X48146550D01*
G75*
G02*
X48131550Y45127770I0J15000D01*
G01*
X48155550Y45003770D02*
Y45058770D01*
G75*
G02*
X48170550Y45073770I15000J0D01*
G01*
X48245550D01*
G75*
G02*
X48260550Y45058770I0J-15000D01*
G01*
Y45003770D01*
G75*
G02*
X48245550Y44988770I-15000J0D01*
G01*
X48170550D01*
G75*
G02*
X48155550Y45003770I0J15000D01*
G01*
X48280800Y43397200D02*
X48473200D01*
Y43204800D01*
X48280800D01*
Y43397200D01*
X48346680Y44779270D02*
G75*
G03*
X48350050Y44775900I30370J27000D01*
G01*
Y44715560D01*
G75*
G02*
X48286340Y44779270I27000J90710D01*
G01*
X48346680D01*
X48350050Y44896980D02*
Y44836640D01*
G75*
G03*
X48346680Y44833270I27000J-30370D01*
G01*
X48286340D01*
G75*
G02*
X48350050Y44896980I90710J-27000D01*
G01*
X48292850Y48236470D02*
X48485250D01*
Y48044070D01*
X48292850D01*
Y48236470D01*
X48404050Y44775900D02*
G75*
G03*
X48407420Y44779270I-27000J30370D01*
G01*
X48467760D01*
G75*
G02*
X48404050Y44715560I-90710J27000D01*
G01*
Y44775900D01*
X48508210Y44167740D02*
G75*
G03*
X48604490Y44071460I123280J27000D01*
G01*
Y44016570D01*
G75*
G02*
X48453320Y44167740I27000J178170D01*
G01*
X48508210D01*
X48534800Y43397200D02*
X48727200D01*
Y43204800D01*
X48534800D01*
Y43397200D01*
X48604490Y44372910D02*
Y44318020D01*
G75*
G03*
X48508210Y44221740I27000J-123280D01*
G01*
X48453320D01*
G75*
G02*
X48604490Y44372910I178170J-27000D01*
G01*
X48404050Y44896980D02*
G75*
G02*
X48467760Y44833270I-27000J-90710D01*
G01*
X48407420D01*
G75*
G03*
X48404050Y44836640I-30370J-27000D01*
G01*
Y44896980D01*
X48507720Y47213270D02*
G75*
G03*
X48604000Y47116990I123280J27000D01*
G01*
Y47062100D01*
G75*
G02*
X48452830Y47213270I27000J178170D01*
G01*
X48507720D01*
X48510850Y46120270D02*
X48564850D01*
Y46071070D01*
X48614050D01*
Y46017070D01*
X48510850D01*
Y46120270D01*
X48544850Y45735470D02*
X48737250D01*
Y45543070D01*
X48544850D01*
Y45735470D01*
X48658490Y44071460D02*
G75*
G03*
X48754770Y44167740I-27000J123280D01*
G01*
X48809660D01*
G75*
G02*
X48658490Y44016570I-178170J27000D01*
G01*
Y44071460D01*
Y44372910D02*
G75*
G02*
X48809660Y44221740I-27000J-178170D01*
G01*
X48754770D01*
G75*
G03*
X48658490Y44318020I-123280J-27000D01*
G01*
Y44372910D01*
X48544850Y45989470D02*
X48737250D01*
Y45797070D01*
X48544850D01*
Y45989470D01*
X48510850Y46277470D02*
X48614050D01*
Y46223470D01*
X48564850D01*
Y46174270D01*
X48510850D01*
Y46277470D01*
X48544850Y46497470D02*
X48737250D01*
Y46305070D01*
X48544850D01*
Y46497470D01*
X48668050Y46071070D02*
X48717250D01*
Y46120270D01*
X48771250D01*
Y46017070D01*
X48668050D01*
Y46071070D01*
Y46277470D02*
X48771250D01*
Y46174270D01*
X48717250D01*
Y46223470D01*
X48668050D01*
Y46277470D01*
X48544850Y46751470D02*
X48737250D01*
Y46559070D01*
X48544850D01*
Y46751470D01*
X48604000Y47418440D02*
Y47363550D01*
G75*
G03*
X48507720Y47267270I27000J-123280D01*
G01*
X48452830D01*
G75*
G02*
X48604000Y47418440I178170J-27000D01*
G01*
X48546850Y48236470D02*
X48739250D01*
Y48044070D01*
X48546850D01*
Y48236470D01*
X48658000Y47116990D02*
G75*
G03*
X48754280Y47213270I-27000J123280D01*
G01*
X48809170D01*
G75*
G02*
X48658000Y47062100I-178170J27000D01*
G01*
Y47116990D01*
Y47418440D02*
G75*
G02*
X48809170Y47267270I-27000J-178170D01*
G01*
X48754280D01*
G75*
G03*
X48658000Y47363550I-123280J-27000D01*
G01*
Y47418440D01*
X42303700Y43153000D02*
G36*
X42303700Y43153000D02*
Y43152930D01*
G75*
G03*
X42390930Y43065700I87260J30D01*
G01*
X42391000D01*
X48795000D01*
X48795030D01*
G75*
G03*
X48882300Y43152980I0J87280D01*
G01*
G75*
G03*
Y43153000I-114590J10D01*
G01*
Y43239770D01*
X48727200D01*
Y43204800D01*
X48534800D01*
Y43239770D01*
X48473200D01*
Y43204800D01*
X48280800D01*
Y43239770D01*
X48219200D01*
Y43204800D01*
X48026800D01*
Y43239770D01*
X47965200D01*
Y43204800D01*
X47772800D01*
Y43239770D01*
X47711200D01*
Y43204800D01*
X47518800D01*
Y43239770D01*
X47457200D01*
Y43204800D01*
X47264800D01*
Y43239770D01*
X46964200D01*
Y43204800D01*
X46771800D01*
Y43239770D01*
X46744200D01*
Y43170800D01*
X46641000D01*
Y43224800D01*
X46690200D01*
Y43239770D01*
X46537800D01*
Y43224800D01*
X46587000D01*
Y43170800D01*
X46490200D01*
X46483800D01*
X46387000D01*
Y43224800D01*
X46436200D01*
Y43239770D01*
X46283800D01*
Y43224800D01*
X46333000D01*
Y43170800D01*
X46229800D01*
Y43239770D01*
X46202200D01*
Y43204800D01*
X46009800D01*
Y43239770D01*
X45948200D01*
Y43204800D01*
X45755800D01*
Y43239770D01*
X45694200D01*
Y43204800D01*
X45501800D01*
Y43239770D01*
X45440200D01*
Y43204800D01*
X45247800D01*
Y43239770D01*
X45186200D01*
Y43204800D01*
X44993800D01*
Y43239770D01*
X44024880D01*
G75*
G02*
X43896050Y43152100I-155830J90490D01*
G01*
Y43206990D01*
G75*
G03*
X43957000Y43239770I-27020J123300D01*
G01*
X43781090D01*
G75*
G03*
X43842050Y43206990I87950J90490D01*
G01*
Y43152100D01*
G75*
G02*
X43713210Y43239770I26970J178140D01*
G01*
X43319550D01*
Y43237920D01*
G75*
G02*
Y43237910I-114590J0D01*
G01*
G75*
G02*
X43257900Y43176270I-61650J0D01*
G01*
X43092550D01*
Y43230270D01*
X43235550D01*
G75*
G03*
X43257460Y43239770I10J30000D01*
G01*
X42873630D01*
G75*
G03*
X42895550Y43230270I21900J20480D01*
G01*
X43038550D01*
Y43176270D01*
X42873200D01*
G75*
G02*
X42811550Y43237900I0J61630D01*
G01*
G75*
G02*
Y43237920I54570J10D01*
G01*
Y43239770D01*
X42303700D01*
Y43153000D01*
G37*
Y43420770D02*
G36*
X42303700Y43420770D02*
Y43239770D01*
X42811550D01*
Y43303270D01*
X42865550D01*
Y43260270D01*
G75*
G03*
Y43260250I26040J-10D01*
G01*
G75*
G03*
X42873630Y43239770I29980J-10D01*
G01*
X43257460D01*
G75*
G03*
X43265550Y43260260I-21900J20490D01*
G01*
G75*
G03*
Y43260270I-52090J10D01*
G01*
Y43303270D01*
X43319550D01*
Y43239770D01*
X43713210D01*
G75*
G02*
X43690880Y43303270I155810J90470D01*
G01*
X43745770D01*
G75*
G03*
X43781090Y43239770I123270J26990D01*
G01*
X43957000D01*
G75*
G03*
X43992330Y43303270I-87970J90520D01*
G01*
X44047220D01*
G75*
G02*
X44024880Y43239770I-178170J27000D01*
G01*
X44993800D01*
Y43397200D01*
X45186200D01*
Y43239770D01*
X45247800D01*
Y43397200D01*
X45440200D01*
Y43239770D01*
X45501800D01*
Y43397200D01*
X45694200D01*
Y43239770D01*
X45755800D01*
Y43397200D01*
X45948200D01*
Y43239770D01*
X46009800D01*
Y43397200D01*
X46202200D01*
Y43239770D01*
X46229800D01*
Y43274000D01*
X46283800D01*
Y43239770D01*
X46436200D01*
Y43274000D01*
X46483800D01*
X46490200D01*
X46537800D01*
Y43239770D01*
X46690200D01*
Y43274000D01*
X46744200D01*
Y43239770D01*
X46771800D01*
Y43397200D01*
X46964200D01*
Y43239770D01*
X47264800D01*
Y43397200D01*
X47457200D01*
Y43239770D01*
X47518800D01*
Y43397200D01*
X47711200D01*
Y43239770D01*
X47772800D01*
Y43397200D01*
X47965200D01*
Y43239770D01*
X48026800D01*
Y43397200D01*
X48219200D01*
Y43239770D01*
X48280800D01*
Y43397200D01*
X48473200D01*
Y43239770D01*
X48534800D01*
Y43397200D01*
X48727200D01*
Y43239770D01*
X48882300D01*
Y43307000D01*
G75*
G02*
Y43307010I10420J10D01*
G01*
G75*
G02*
X48886020Y43315980I12670J0D01*
G01*
X48990810Y43420770D01*
X46744200D01*
Y43328000D01*
X46690200D01*
Y43377200D01*
X46641000D01*
Y43420770D01*
X46587000D01*
Y43377200D01*
X46537800D01*
Y43328000D01*
X46490200D01*
X46483800D01*
X46436200D01*
Y43377200D01*
X46387000D01*
Y43420770D01*
X46333000D01*
Y43377200D01*
X46283800D01*
Y43328000D01*
X46229800D01*
Y43420770D01*
X44024880D01*
G75*
G02*
X44047220Y43357270I-155850J-90510D01*
G01*
X43992330D01*
G75*
G03*
X43956990Y43420770I-123330J-27060D01*
G01*
X43781100D01*
G75*
G03*
X43745770Y43357270I87970J-90520D01*
G01*
X43690880D01*
G75*
G02*
X43713220Y43420770I178170J-27000D01*
G01*
X43319550D01*
Y43357270D01*
X43265550D01*
Y43400270D01*
G75*
G03*
X43257450Y43420770I-30010J-10D01*
G01*
X42873640D01*
G75*
G03*
X42865550Y43400280I21900J-20490D01*
G01*
G75*
G03*
Y43400270I52090J0D01*
G01*
Y43357270D01*
X42811550D01*
Y43420770D01*
X42303700D01*
G37*
Y43669770D02*
G36*
X42303700Y43669770D02*
Y43420770D01*
X42811550D01*
Y43422620D01*
G75*
G02*
Y43422630I114590J10D01*
G01*
G75*
G02*
X42873200Y43484270I61650J0D01*
G01*
X43038550D01*
Y43430270D01*
X42895550D01*
G75*
G03*
X42873640Y43420770I-10J-30000D01*
G01*
X43257450D01*
G75*
G03*
X43235550Y43430270I-21910J-20510D01*
G01*
X43092550D01*
Y43484270D01*
X43257900D01*
G75*
G02*
X43319550Y43422620I0J-61650D01*
G01*
Y43420770D01*
X43713220D01*
G75*
G02*
X43842050Y43508440I155830J-90490D01*
G01*
Y43453550D01*
G75*
G03*
X43781100Y43420770I27020J-123300D01*
G01*
X43956990D01*
G75*
G03*
X43896050Y43453550I-87990J-90550D01*
G01*
Y43508440D01*
G75*
G02*
X44024880Y43420770I-27020J-178200D01*
G01*
X46229800D01*
Y43431200D01*
X46333000D01*
Y43420770D01*
X46387000D01*
Y43431200D01*
X46483800D01*
X46490200D01*
X46587000D01*
Y43420770D01*
X46641000D01*
Y43431200D01*
X46744200D01*
Y43420770D01*
X48990810D01*
X49136300Y43566260D01*
Y43669770D01*
X43475550D01*
Y43620270D01*
G75*
G02*
Y43620260I-52090J0D01*
G01*
G75*
G02*
X43445550Y43590270I-30000J0D01*
G01*
X43265550D01*
G75*
G02*
X43235550Y43620250I0J29980D01*
G01*
G75*
G02*
Y43620270I26040J10D01*
G01*
Y43669770D01*
X42879550D01*
Y43617920D01*
G75*
G02*
Y43617910I-114590J0D01*
G01*
G75*
G02*
X42817900Y43556270I-61650J0D01*
G01*
X42752550D01*
Y43610270D01*
X42795550D01*
G75*
G03*
X42825550Y43640260I0J29990D01*
G01*
G75*
G03*
Y43640270I-52090J10D01*
G01*
Y43669770D01*
X42625550D01*
Y43640270D01*
G75*
G03*
Y43640250I26040J-10D01*
G01*
G75*
G03*
X42655550Y43610270I30000J0D01*
G01*
X42698550D01*
Y43556270D01*
X42633200D01*
G75*
G02*
X42571550Y43617900I0J61630D01*
G01*
G75*
G02*
Y43617920I54570J10D01*
G01*
Y43669770D01*
X42303700D01*
G37*
Y43719410D02*
G36*
X42303700Y43719410D02*
Y43669770D01*
X42571550D01*
Y43719410D01*
X42303700D01*
G37*
X42625550D02*
G36*
X42625550Y43719410D02*
Y43669770D01*
X42825550D01*
Y43719410D01*
X42625550D01*
G37*
X42879550D02*
G36*
X42879550Y43719410D02*
Y43669770D01*
X43235550D01*
Y43719410D01*
X42879550D01*
G37*
X43475550D02*
G36*
X43475550Y43719410D02*
Y43669770D01*
X49136300D01*
Y43719410D01*
X47118650D01*
G75*
G02*
X47084050Y43700560I-61580J71850D01*
G01*
Y43719410D01*
X47030050D01*
Y43700560D01*
G75*
G02*
X46995440Y43719410I26940J90660D01*
G01*
X45280170D01*
G75*
G02*
X45233050Y43687560I-74100J58850D01*
G01*
Y43719410D01*
X45179050D01*
Y43687560D01*
G75*
G02*
X45131920Y43719410I26940J90660D01*
G01*
X44670170D01*
G75*
G02*
X44623050Y43687560I-74100J58850D01*
G01*
Y43719410D01*
X44569050D01*
Y43687560D01*
G75*
G02*
X44521920Y43719410I26940J90660D01*
G01*
X44053170D01*
G75*
G02*
X44006050Y43687560I-74100J58850D01*
G01*
Y43719410D01*
X43952050D01*
Y43687560D01*
G75*
G02*
X43904920Y43719410I26940J90660D01*
G01*
X43475550D01*
G37*
X42303700Y43837120D02*
G36*
X42303700Y43837120D02*
Y43719410D01*
X42571550D01*
Y43783270D01*
X42625550D01*
Y43719410D01*
X42825550D01*
Y43783270D01*
X42879550D01*
Y43719410D01*
X43235550D01*
Y43837120D01*
X42303700D01*
G37*
X43475550D02*
G36*
X43475550Y43837120D02*
Y43719410D01*
X43904920D01*
G75*
G02*
X43888340Y43751270I74070J58790D01*
G01*
X43948680D01*
G75*
G03*
X43952050Y43747900I27470J24100D01*
G01*
Y43719410D01*
X44006050D01*
Y43747900D01*
G75*
G03*
X44009420Y43751270I-26690J30060D01*
G01*
X44069760D01*
G75*
G02*
X44053170Y43719410I-90690J26980D01*
G01*
X44521920D01*
G75*
G02*
X44505340Y43751270I74070J58790D01*
G01*
X44565680D01*
G75*
G03*
X44569050Y43747900I27470J24100D01*
G01*
Y43719410D01*
X44623050D01*
Y43747900D01*
G75*
G03*
X44626420Y43751270I-26690J30060D01*
G01*
X44686760D01*
G75*
G02*
X44670170Y43719410I-90690J26980D01*
G01*
X45131920D01*
G75*
G02*
X45115340Y43751270I74070J58790D01*
G01*
X45175680D01*
G75*
G03*
X45179050Y43747900I27470J24100D01*
G01*
Y43719410D01*
X45233050D01*
Y43747900D01*
G75*
G03*
X45236420Y43751270I-26690J30060D01*
G01*
X45296760D01*
G75*
G02*
X45280170Y43719410I-90690J26980D01*
G01*
X46995440D01*
G75*
G02*
X46966340Y43764270I61550J71800D01*
G01*
X47026680D01*
G75*
G03*
X47030050Y43760900I27470J24100D01*
G01*
Y43719410D01*
X47084050D01*
Y43760900D01*
G75*
G03*
X47087420Y43764270I-26690J30060D01*
G01*
X47147760D01*
G75*
G02*
X47118650Y43719410I-90690J26970D01*
G01*
X49136300D01*
Y43837120D01*
X47139840D01*
G75*
G02*
X47147760Y43818270I-82820J-45890D01*
G01*
X47087420D01*
G75*
G03*
X47084050Y43821640I-33210J-29840D01*
G01*
Y43837120D01*
X47030050D01*
Y43821640D01*
G75*
G03*
X47026680Y43818270I26690J-30060D01*
G01*
X46966340D01*
G75*
G02*
X46974250Y43837120I90690J-26970D01*
G01*
X45280170D01*
G75*
G02*
X45296760Y43805270I-74140J-58870D01*
G01*
X45236420D01*
G75*
G03*
X45233050Y43808640I-33210J-29840D01*
G01*
Y43837120D01*
X45179050D01*
Y43808640D01*
G75*
G03*
X45175680Y43805270I26690J-30060D01*
G01*
X45115340D01*
G75*
G02*
X45131920Y43837120I90690J-26970D01*
G01*
X44670170D01*
G75*
G02*
X44686760Y43805270I-74140J-58870D01*
G01*
X44626420D01*
G75*
G03*
X44623050Y43808640I-33210J-29840D01*
G01*
Y43837120D01*
X44569050D01*
Y43808640D01*
G75*
G03*
X44565680Y43805270I26690J-30060D01*
G01*
X44505340D01*
G75*
G02*
X44521920Y43837120I90690J-26970D01*
G01*
X44053170D01*
G75*
G02*
X44069760Y43805270I-74140J-58870D01*
G01*
X44009420D01*
G75*
G03*
X44006050Y43808640I-33210J-29840D01*
G01*
Y43837120D01*
X43952050D01*
Y43808640D01*
G75*
G03*
X43948680Y43805270I26690J-30060D01*
G01*
X43888340D01*
G75*
G02*
X43904920Y43837120I90690J-26970D01*
G01*
X43475550D01*
G37*
X42303700Y43950770D02*
G36*
X42303700Y43950770D02*
Y43837120D01*
X43235550D01*
Y43950770D01*
X42879550D01*
Y43837270D01*
X42825550D01*
Y43950770D01*
X42625550D01*
Y43837270D01*
X42571550D01*
Y43950770D01*
X42303700D01*
G37*
X43475550D02*
G36*
X43475550Y43950770D02*
Y43837120D01*
X43904920D01*
G75*
G02*
X43952050Y43868980I74110J-58840D01*
G01*
Y43837120D01*
X44006050D01*
Y43868980D01*
G75*
G02*
X44053170Y43837120I-27020J-90740D01*
G01*
X44521920D01*
G75*
G02*
X44569050Y43868980I74110J-58840D01*
G01*
Y43837120D01*
X44623050D01*
Y43868980D01*
G75*
G02*
X44670170Y43837120I-27020J-90740D01*
G01*
X45131920D01*
G75*
G02*
X45179050Y43868980I74110J-58840D01*
G01*
Y43837120D01*
X45233050D01*
Y43868980D01*
G75*
G02*
X45280170Y43837120I-27020J-90740D01*
G01*
X46974250D01*
G75*
G02*
X47030050Y43881980I82780J-45830D01*
G01*
Y43837120D01*
X47084050D01*
Y43881980D01*
G75*
G02*
X47139840Y43837120I-27020J-90730D01*
G01*
X49136300D01*
Y43950770D01*
X46451990D01*
G75*
G02*
X46416400Y43934270I-35600J30150D01*
G01*
X46409050D01*
Y43950770D01*
X46364050D01*
Y43934270D01*
X46356700D01*
G75*
G02*
X46321100Y43950770I-10J46630D01*
G01*
X46249990D01*
G75*
G02*
X46214400Y43934270I-35600J30150D01*
G01*
X46207050D01*
Y43950770D01*
X46162050D01*
Y43934270D01*
X46154700D01*
G75*
G02*
X46119100Y43950770I-10J46630D01*
G01*
X43475550D01*
G37*
X42303700Y44015270D02*
G36*
X42303700Y44015270D02*
Y43950770D01*
X42571550D01*
Y44002620D01*
G75*
G02*
Y44002630I114590J10D01*
G01*
G75*
G02*
X42572860Y44015270I61630J0D01*
G01*
X42303700D01*
G37*
X42625550Y43980270D02*
G36*
X42625550Y43980270D02*
Y43950770D01*
X42825550D01*
Y43980270D01*
G75*
G03*
X42795550Y44010270I-30000J0D01*
G01*
X42752550D01*
Y44015270D01*
X42698550D01*
Y44010270D01*
X42655550D01*
G75*
G03*
X42625550Y43980280I0J-29990D01*
G01*
G75*
G03*
Y43980270I52090J0D01*
G01*
G37*
X42879550Y44002620D02*
G36*
X42879550Y44002620D02*
Y43950770D01*
X43235550D01*
Y44000270D01*
G75*
G02*
Y44000280I52090J10D01*
G01*
G75*
G02*
X43239570Y44015270I29990J-10D01*
G01*
X42878240D01*
G75*
G02*
X42879550Y44002620I-60350J-12640D01*
G01*
G37*
X43475550Y44000270D02*
G36*
X43475550Y44000270D02*
Y43950770D01*
X46119100D01*
G75*
G02*
X46108050Y43980910I35590J30140D01*
G01*
G75*
G02*
Y43980920I40930J10D01*
G01*
Y43993770D01*
X46162050D01*
Y43950770D01*
X46207050D01*
Y43993770D01*
X46261050D01*
Y43980920D01*
G75*
G02*
X46249990Y43950770I-46660J10D01*
G01*
X46321100D01*
G75*
G02*
X46310050Y43980910I35590J30140D01*
G01*
G75*
G02*
Y43980920I40930J10D01*
G01*
Y43993770D01*
X46364050D01*
Y43950770D01*
X46409050D01*
Y43993770D01*
X46463050D01*
Y43980920D01*
G75*
G02*
X46451990Y43950770I-46660J10D01*
G01*
X49136300D01*
Y44015270D01*
X47230550D01*
Y43977770D01*
G75*
G02*
X47215550Y43962770I-15000J0D01*
G01*
X47160550D01*
G75*
G02*
X47145550Y43977760I0J14990D01*
G01*
G75*
G02*
Y43977770I13020J10D01*
G01*
Y44015270D01*
X46975550D01*
Y43977770D01*
G75*
G02*
X46960550Y43962770I-15000J0D01*
G01*
X46905550D01*
G75*
G02*
X46890550Y43977760I0J14990D01*
G01*
G75*
G02*
Y43977770I13020J10D01*
G01*
Y44015270D01*
X43471530D01*
G75*
G02*
X43475550Y44000270I-25990J-15000D01*
G01*
G37*
X42303700Y44077520D02*
G36*
X42303700Y44077520D02*
Y44015270D01*
X42572860D01*
G75*
G02*
X42633200Y44064270I60330J-12640D01*
G01*
X42698550D01*
Y44015270D01*
X42752550D01*
Y44064270D01*
X42817900D01*
G75*
G02*
X42878240Y44015270I-10J-61660D01*
G01*
X43239570D01*
G75*
G02*
X43265550Y44030270I25980J-14990D01*
G01*
X43445550D01*
G75*
G02*
X43471530Y44015270I-10J-30010D01*
G01*
X46890550D01*
Y44052770D01*
G75*
G02*
X46905550Y44067770I15000J0D01*
G01*
X46960550D01*
G75*
G02*
X46975550Y44052770I0J-15000D01*
G01*
Y44015270D01*
X47145550D01*
Y44052770D01*
G75*
G02*
X47160550Y44067770I15000J0D01*
G01*
X47215550D01*
G75*
G02*
X47230550Y44052770I0J-15000D01*
G01*
Y44015270D01*
X49136300D01*
Y44077520D01*
X48768360D01*
G75*
G02*
X48658490Y44016570I-136860J117210D01*
G01*
Y44071460D01*
G75*
G03*
X48678240Y44077520I-27020J123280D01*
G01*
X48584730D01*
G75*
G03*
X48604490Y44071460I46750J117210D01*
G01*
Y44016570D01*
G75*
G02*
X48494610Y44077520I26970J178140D01*
G01*
X46459870D01*
G75*
G02*
X46463050Y44060620I-43490J-16930D01*
G01*
Y44047770D01*
X46409050D01*
Y44077520D01*
X46364050D01*
Y44047770D01*
X46310050D01*
Y44060620D01*
G75*
G02*
X46313220Y44077520I46660J0D01*
G01*
X46257870D01*
G75*
G02*
X46261050Y44060620I-43490J-16930D01*
G01*
Y44047770D01*
X46207050D01*
Y44077520D01*
X46162050D01*
Y44047770D01*
X46108050D01*
Y44060620D01*
G75*
G02*
X46111220Y44077520I46660J0D01*
G01*
X42303700D01*
G37*
Y44118520D02*
G36*
X42303700Y44118520D02*
Y44077520D01*
X46111220D01*
G75*
G02*
X46154700Y44107270I43490J-16910D01*
G01*
X46162050D01*
Y44077520D01*
X46207050D01*
Y44107270D01*
X46214400D01*
G75*
G02*
X46257870Y44077520I-20J-46670D01*
G01*
X46313220D01*
G75*
G02*
X46356700Y44107270I43490J-16910D01*
G01*
X46364050D01*
Y44077520D01*
X46409050D01*
Y44107270D01*
X46416400D01*
G75*
G02*
X46459870Y44077520I-20J-46670D01*
G01*
X48494610D01*
G75*
G02*
X48468190Y44118520I136850J117200D01*
G01*
X47062880D01*
G75*
G02*
X47019400Y44088770I-43490J16910D01*
G01*
X47012050D01*
Y44118520D01*
X46967050D01*
Y44088770D01*
X46959700D01*
G75*
G02*
X46916220Y44118520I-10J46630D01*
G01*
X42303700D01*
G37*
X48530900D02*
G36*
X48530900Y44118520D02*
G75*
G03*
X48584730Y44077520I100580J76220D01*
G01*
X48678240D01*
G75*
G03*
X48732070Y44118520I-46770J117250D01*
G01*
X48530900D01*
G37*
X48794780D02*
G36*
X48794780Y44118520D02*
G75*
G02*
X48768360Y44077520I-163290J76210D01*
G01*
X49136300D01*
Y44118520D01*
X48794780D01*
G37*
X42303700Y44175270D02*
G36*
X42303700Y44175270D02*
Y44118520D01*
X46916220D01*
G75*
G02*
X46913050Y44135410I43480J16900D01*
G01*
G75*
G02*
Y44135420I40930J10D01*
G01*
Y44148270D01*
X46967050D01*
Y44118520D01*
X47012050D01*
Y44148270D01*
X47066050D01*
Y44135420D01*
G75*
G02*
X47062880Y44118520I-46660J0D01*
G01*
X48468190D01*
G75*
G02*
X48453320Y44167740I163270J76180D01*
G01*
X48508210D01*
G75*
G03*
X48530900Y44118520I123270J26990D01*
G01*
X48732070D01*
G75*
G03*
X48754770Y44167740I-100600J76240D01*
G01*
X48809660D01*
G75*
G02*
X48794780Y44118520I-178170J27000D01*
G01*
X49136300D01*
Y44175270D01*
X46770550D01*
Y44137770D01*
G75*
G02*
X46755550Y44122770I-15000J0D01*
G01*
X46700550D01*
G75*
G02*
X46685550Y44137760I0J14990D01*
G01*
G75*
G02*
Y44137770I13020J10D01*
G01*
Y44175270D01*
X46679550D01*
Y44137770D01*
G75*
G02*
X46664550Y44122770I-15000J0D01*
G01*
X46609550D01*
G75*
G02*
X46594550Y44137760I0J14990D01*
G01*
G75*
G02*
Y44137770I13020J10D01*
G01*
Y44175270D01*
X42303700D01*
G37*
Y44232020D02*
G36*
X42303700Y44232020D02*
Y44175270D01*
X46594550D01*
Y44212770D01*
G75*
G02*
X46609550Y44227770I15000J0D01*
G01*
X46664550D01*
G75*
G02*
X46679550Y44212770I0J-15000D01*
G01*
Y44175270D01*
X46685550D01*
Y44212770D01*
G75*
G02*
X46700550Y44227770I15000J0D01*
G01*
X46755550D01*
G75*
G02*
X46770550Y44212770I0J-15000D01*
G01*
Y44175270D01*
X49136300D01*
Y44232020D01*
X48807790D01*
G75*
G02*
X48809660Y44221740I-176370J-37390D01*
G01*
X48754770D01*
G75*
G03*
X48752060Y44232020I-123360J-27020D01*
G01*
X48510920D01*
G75*
G03*
X48508210Y44221740I120590J-37290D01*
G01*
X48453320D01*
G75*
G02*
X48455180Y44232020I178180J-26930D01*
G01*
X47062870D01*
G75*
G02*
X47066050Y44215120I-43490J-16930D01*
G01*
Y44202270D01*
X47012050D01*
Y44232020D01*
X46967050D01*
Y44202270D01*
X46913050D01*
Y44215120D01*
G75*
G02*
X46916220Y44232020I46660J0D01*
G01*
X46429050D01*
Y44208270D01*
G75*
G02*
X46414050Y44193270I-15000J0D01*
G01*
X46359050D01*
G75*
G02*
X46344050Y44208260I0J14990D01*
G01*
G75*
G02*
Y44208270I13020J10D01*
G01*
Y44232020D01*
X46227050D01*
Y44208270D01*
G75*
G02*
X46212050Y44193270I-15000J0D01*
G01*
X46157050D01*
G75*
G02*
X46142050Y44208260I0J14990D01*
G01*
G75*
G02*
Y44208270I13020J10D01*
G01*
Y44232020D01*
X45069780D01*
G75*
G02*
X44996320I-36730J48250D01*
G01*
X44191810D01*
G75*
G02*
X44115790I-38010J47250D01*
G01*
X42303700D01*
G37*
Y44279270D02*
G36*
X42303700Y44279270D02*
Y44232020D01*
X44115790D01*
G75*
G02*
X44093160Y44279270I38010J47250D01*
G01*
X42303700D01*
G37*
X44214440D02*
G36*
X44214440Y44279270D02*
G75*
G02*
X44191810Y44232020I-60640J0D01*
G01*
X44996320D01*
G75*
G02*
X44972420Y44279270I36730J48250D01*
G01*
X44214440D01*
G37*
X45093680D02*
G36*
X45093680Y44279270D02*
G75*
G02*
X45069780Y44232020I-60630J1000D01*
G01*
X46142050D01*
Y44279270D01*
X45093680D01*
G37*
X46227050D02*
G36*
X46227050Y44279270D02*
Y44232020D01*
X46344050D01*
Y44279270D01*
X46227050D01*
G37*
X46429050D02*
G36*
X46429050Y44279270D02*
Y44232020D01*
X46916220D01*
G75*
G02*
X46959700Y44261770I43490J-16910D01*
G01*
X46967050D01*
Y44232020D01*
X47012050D01*
Y44261770D01*
X47019400D01*
G75*
G02*
X47062870Y44232020I-20J-46670D01*
G01*
X48455180D01*
G75*
G02*
X48472340Y44279270I176310J-37290D01*
G01*
X47587080D01*
G75*
G02*
X47580550Y44277770I-6540J13500D01*
G01*
X47525550D01*
G75*
G02*
X47519000Y44279270I-10J14990D01*
G01*
X46429050D01*
G37*
X48537790D02*
G36*
X48537790Y44279270D02*
G75*
G03*
X48510920Y44232020I93720J-84560D01*
G01*
X48752060D01*
G75*
G03*
X48725180Y44279270I-120630J-37350D01*
G01*
X48537790D01*
G37*
X48790630D02*
G36*
X48790630Y44279270D02*
G75*
G02*
X48807790Y44232020I-159170J-84550D01*
G01*
X49136300D01*
Y44279270D01*
X48790630D01*
G37*
X42303700Y44392770D02*
G36*
X42303700Y44392770D02*
Y44279270D01*
X44093160D01*
G75*
G02*
X44214440I60640J0D01*
G01*
X44972420D01*
G75*
G02*
X44972410Y44280270I60690J1110D01*
G01*
G75*
G02*
X45093690I60640J0D01*
G01*
G75*
G02*
X45093680Y44279270I-60700J110D01*
G01*
X46142050D01*
Y44283270D01*
G75*
G02*
X46157050Y44298270I15000J0D01*
G01*
X46212050D01*
G75*
G02*
X46227050Y44283270I0J-15000D01*
G01*
Y44279270D01*
X46344050D01*
Y44283270D01*
G75*
G02*
X46359050Y44298270I15000J0D01*
G01*
X46414050D01*
G75*
G02*
X46429050Y44283270I0J-15000D01*
G01*
Y44279270D01*
X47519000D01*
G75*
G02*
X47510550Y44292760I6540J13490D01*
G01*
G75*
G02*
Y44292770I13020J10D01*
G01*
Y44367770D01*
G75*
G02*
X47525550Y44382770I15000J0D01*
G01*
X47580550D01*
G75*
G02*
X47595550Y44367770I0J-15000D01*
G01*
Y44292770D01*
G75*
G02*
X47587080Y44279270I-15010J10D01*
G01*
X48472340D01*
G75*
G02*
X48604490Y44372910I159140J-84520D01*
G01*
Y44318020D01*
G75*
G03*
X48537790Y44279270I27020J-123290D01*
G01*
X48725180D01*
G75*
G03*
X48658490Y44318020I-93750J-84580D01*
G01*
Y44372910D01*
G75*
G02*
X48790630Y44279270I-27020J-178190D01*
G01*
X49136300D01*
Y44392770D01*
X45875550D01*
Y44365270D01*
G75*
G02*
X45860550Y44350270I-15000J0D01*
G01*
X45785550D01*
G75*
G02*
X45770550Y44365260I0J14990D01*
G01*
G75*
G02*
Y44365270I13020J10D01*
G01*
Y44392770D01*
X42303700D01*
G37*
Y44450270D02*
G36*
X42303700Y44450270D02*
Y44392770D01*
X45770550D01*
Y44420270D01*
G75*
G02*
X45785550Y44435270I15000J0D01*
G01*
X45860550D01*
G75*
G02*
X45875550Y44420270I0J-15000D01*
G01*
Y44392770D01*
X49136300D01*
Y44450270D01*
X47213550D01*
Y44446420D01*
G75*
G02*
X47166900Y44399770I-46650J0D01*
G01*
X47159550D01*
Y44450270D01*
X47114550D01*
Y44399770D01*
X47107200D01*
G75*
G02*
X47060550Y44446410I0J46640D01*
G01*
G75*
G02*
Y44446420I40930J10D01*
G01*
Y44450270D01*
X45983050D01*
Y44422770D01*
G75*
G02*
X45968050Y44407770I-15000J0D01*
G01*
X45893050D01*
G75*
G02*
X45878050Y44422760I0J14990D01*
G01*
G75*
G02*
Y44422770I13020J10D01*
G01*
Y44450270D01*
X42303700D01*
G37*
Y44508020D02*
G36*
X42303700Y44508020D02*
Y44450270D01*
X45878050D01*
Y44477770D01*
G75*
G02*
X45893050Y44492770I15000J0D01*
G01*
X45968050D01*
G75*
G02*
X45983050Y44477770I0J-15000D01*
G01*
Y44450270D01*
X47060550D01*
Y44459270D01*
X47114550D01*
Y44450270D01*
X47159550D01*
Y44459270D01*
X47213550D01*
Y44450270D01*
X49136300D01*
Y44508020D01*
X46928390D01*
X46879080Y44458710D01*
G75*
G02*
X46857880I-10600J10570D01*
G01*
X46818990Y44497600D01*
G75*
G02*
X46814600Y44508020I10580J10590D01*
G01*
X46330550D01*
Y44485270D01*
G75*
G02*
X46315550Y44470270I-15000J0D01*
G01*
X46240550D01*
G75*
G02*
X46225550Y44485260I0J14990D01*
G01*
G75*
G02*
Y44485270I13020J10D01*
G01*
Y44508020D01*
X45878050D01*
Y44482770D01*
G75*
G02*
X45863050Y44467770I-15000J0D01*
G01*
X45788050D01*
G75*
G02*
X45773050Y44482760I0J14990D01*
G01*
G75*
G02*
Y44482770I13020J10D01*
G01*
Y44508020D01*
X42611710D01*
G75*
G02*
X42569400Y44481020I-42310J19660D01*
G01*
X42556550D01*
Y44508020D01*
X42502550D01*
Y44481020D01*
X42489700D01*
G75*
G02*
X42447390Y44508020I-10J46640D01*
G01*
X42303700D01*
G37*
Y44543020D02*
G36*
X42303700Y44543020D02*
Y44508020D01*
X42447390D01*
G75*
G02*
X42443050Y44527660I42310J19650D01*
G01*
G75*
G02*
Y44527670I40930J10D01*
G01*
Y44535020D01*
X42502550D01*
Y44508020D01*
X42556550D01*
Y44535020D01*
X42616050D01*
Y44527670D01*
G75*
G02*
X42611710Y44508020I-46650J0D01*
G01*
X45773050D01*
Y44537770D01*
G75*
G02*
X45774000Y44543020I15010J0D01*
G01*
X42303700D01*
G37*
X45878050Y44537770D02*
G36*
X45878050Y44537770D02*
Y44508020D01*
X46225550D01*
Y44540270D01*
G75*
G02*
X46225810Y44543020I15010J-30D01*
G01*
X45973270D01*
G75*
G02*
X45970550Y44542770I-2730J14740D01*
G01*
X45895550D01*
G75*
G02*
X45892810Y44543020I-10J15000D01*
G01*
X45877090D01*
G75*
G02*
X45878050Y44537770I-14070J-5280D01*
G01*
G37*
X46330550Y44540270D02*
G36*
X46330550Y44540270D02*
Y44508020D01*
X46814600D01*
G75*
G02*
Y44508190I15050J90D01*
G01*
G75*
G02*
Y44508200I13970J10D01*
G01*
G75*
G02*
X46818990Y44518800I15010J-10D01*
G01*
X46843210Y44543020D01*
X46655380D01*
G75*
G02*
X46640550Y44530270I-14840J2260D01*
G01*
X46565550D01*
G75*
G02*
X46550720Y44543020I-10J14990D01*
G01*
X46330290D01*
G75*
G02*
X46330550Y44540270I-14760J-2780D01*
G01*
G37*
X46932110Y44511740D02*
G36*
X46932110Y44511740D02*
X46928390Y44508020D01*
X49136300D01*
Y44543020D01*
X47463050D01*
Y44535270D01*
G75*
G02*
X47448050Y44520270I-15000J0D01*
G01*
X47393050D01*
G75*
G02*
X47378050Y44535260I0J14990D01*
G01*
G75*
G02*
Y44535270I13020J10D01*
G01*
Y44543020D01*
X47370550D01*
Y44537770D01*
G75*
G02*
X47355550Y44522770I-15000J0D01*
G01*
X47300550D01*
G75*
G02*
X47285550Y44537760I0J14990D01*
G01*
G75*
G02*
Y44537770I13020J10D01*
G01*
Y44543020D01*
X47275550D01*
Y44537770D01*
G75*
G02*
X47260550Y44522770I-15000J0D01*
G01*
X47213550D01*
Y44513270D01*
X47159550D01*
Y44543020D01*
X47114550D01*
Y44513270D01*
X47060550D01*
Y44526120D01*
G75*
G02*
X47063720Y44543020I46660J0D01*
G01*
X46922030D01*
X46932110Y44532940D01*
G75*
G02*
X46936500Y44522340I-10740J-10660D01*
G01*
G75*
G02*
X46932110Y44511740I-15080J40D01*
G01*
G37*
X42303700Y44607020D02*
G36*
X42303700Y44607020D02*
Y44543020D01*
X45774000D01*
G75*
G02*
X45788050Y44552770I14060J-5260D01*
G01*
X45863050D01*
G75*
G02*
X45877090Y44543020I-20J-15020D01*
G01*
X45892810D01*
G75*
G02*
X45880550Y44557760I2730J14740D01*
G01*
G75*
G02*
Y44557770I13020J10D01*
G01*
Y44607020D01*
X42611700D01*
G75*
G02*
X42616050Y44587370I-42320J-19680D01*
G01*
Y44580020D01*
X42556550D01*
Y44607020D01*
X42502550D01*
Y44580020D01*
X42443050D01*
Y44587370D01*
G75*
G02*
X42447390Y44607020I46650J0D01*
G01*
X42303700D01*
G37*
X45985550Y44557770D02*
G36*
X45985550Y44557770D02*
G75*
G02*
X45973270Y44543020I-15010J10D01*
G01*
X46225810D01*
G75*
G02*
X46240550Y44555270I14750J-2750D01*
G01*
X46315550D01*
G75*
G02*
X46330290Y44543020I-20J-15020D01*
G01*
X46550720D01*
G75*
G02*
X46550550Y44545260I14830J2250D01*
G01*
G75*
G02*
Y44545270I13020J10D01*
G01*
Y44600270D01*
G75*
G02*
X46552160Y44607020I15010J-10D01*
G01*
X46333050D01*
Y44580270D01*
G75*
G02*
X46318050Y44565270I-15000J0D01*
G01*
X46243050D01*
G75*
G02*
X46228050Y44580260I0J14990D01*
G01*
G75*
G02*
Y44580270I13020J10D01*
G01*
Y44607020D01*
X45985550D01*
Y44557770D01*
G37*
X46655550Y44545270D02*
G36*
X46655550Y44545270D02*
G75*
G02*
X46655380Y44543020I-15010J0D01*
G01*
X46843210D01*
X46872020Y44571830D01*
G75*
G02*
X46893220I10600J-10600D01*
G01*
X46922030Y44543020D01*
X47063720D01*
G75*
G02*
X47107200Y44572770I43490J-16910D01*
G01*
X47114550D01*
Y44543020D01*
X47159550D01*
Y44572770D01*
X47166900D01*
G75*
G02*
X47190550Y44566330I-20J-46720D01*
G01*
Y44607020D01*
X46653940D01*
G75*
G02*
X46655550Y44600270I-13410J-6770D01*
G01*
Y44545270D01*
G37*
X47275550Y44607020D02*
G36*
X47275550Y44607020D02*
Y44543020D01*
X47285550D01*
Y44607020D01*
X47275550D01*
G37*
X47370550D02*
G36*
X47370550Y44607020D02*
Y44543020D01*
X47378050D01*
Y44607020D01*
X47370550D01*
G37*
X47463050D02*
G36*
X47463050Y44607020D02*
Y44543020D01*
X49136300D01*
Y44607020D01*
X47463050D01*
G37*
X42303700Y44685770D02*
G36*
X42303700Y44685770D02*
Y44607020D01*
X42447390D01*
G75*
G02*
X42489700Y44634020I42310J-19660D01*
G01*
X42502550D01*
Y44607020D01*
X42556550D01*
Y44634020D01*
X42569400D01*
G75*
G02*
X42611700Y44607020I-20J-46670D01*
G01*
X45880550D01*
Y44608630D01*
G75*
G02*
X45875550Y44607770I-4940J13750D01*
G01*
X45800550D01*
G75*
G02*
X45785550Y44622760I0J14990D01*
G01*
G75*
G02*
Y44622770I13020J10D01*
G01*
Y44677770D01*
G75*
G02*
Y44677800I13530J20D01*
G01*
G75*
G02*
X45787860Y44685770I14920J0D01*
G01*
X45480210D01*
G75*
G02*
X45437900Y44658770I-42310J19660D01*
G01*
X45425050D01*
Y44685770D01*
X45371050D01*
Y44658770D01*
X45358200D01*
G75*
G02*
X45315890Y44685770I-10J46640D01*
G01*
X42303700D01*
G37*
X45890550Y44677770D02*
G36*
X45890550Y44677770D02*
Y44626910D01*
G75*
G02*
X45895550Y44627770I5030J-14300D01*
G01*
X45970550D01*
G75*
G02*
X45985550Y44612770I0J-15000D01*
G01*
Y44607020D01*
X46228050D01*
Y44635270D01*
G75*
G02*
X46243050Y44650270I15000J0D01*
G01*
X46318050D01*
G75*
G02*
X46333050Y44635270I0J-15000D01*
G01*
Y44607020D01*
X46552160D01*
G75*
G02*
X46565550Y44615270I13400J-6750D01*
G01*
X46640550D01*
G75*
G02*
X46653940Y44607020I-20J-15030D01*
G01*
X47190550D01*
Y44612770D01*
G75*
G02*
X47205550Y44627770I15000J0D01*
G01*
X47260550D01*
G75*
G02*
X47275550Y44612770I0J-15000D01*
G01*
Y44607020D01*
X47285550D01*
Y44612770D01*
G75*
G02*
X47300550Y44627770I15000J0D01*
G01*
X47355550D01*
G75*
G02*
X47370550Y44612770I0J-15000D01*
G01*
Y44607020D01*
X47378050D01*
Y44610270D01*
G75*
G02*
X47393050Y44625270I15000J0D01*
G01*
X47448050D01*
G75*
G02*
X47463050Y44610270I0J-15000D01*
G01*
Y44607020D01*
X49136300D01*
Y44685770D01*
X47228810D01*
G75*
G02*
X47215550Y44677770I-13270J7000D01*
G01*
X47160550D01*
G75*
G02*
X47147280Y44685770I-10J14990D01*
G01*
X46618640D01*
X46606580Y44673710D01*
G75*
G02*
X46585380I-10600J10570D01*
G01*
X46573320Y44685770D01*
X46333050D01*
Y44675270D01*
G75*
G02*
X46318050Y44660270I-15000J0D01*
G01*
X46243050D01*
G75*
G02*
X46228050Y44675260I0J14990D01*
G01*
G75*
G02*
Y44675270I13020J10D01*
G01*
Y44685770D01*
X45888230D01*
G75*
G02*
X45890550Y44677770I-12700J-8020D01*
G01*
G37*
X42303700Y44763520D02*
G36*
X42303700Y44763520D02*
Y44685770D01*
X45315890D01*
G75*
G02*
X45311550Y44705410I42310J19650D01*
G01*
G75*
G02*
Y44705420I40930J10D01*
G01*
Y44712770D01*
X45371050D01*
Y44685770D01*
X45425050D01*
Y44712770D01*
X45484550D01*
Y44705420D01*
G75*
G02*
X45480210Y44685770I-46650J0D01*
G01*
X45787860D01*
G75*
G02*
X45789370Y44687770I12600J-7950D01*
G01*
X45750550D01*
G75*
G02*
X45735550Y44702760I0J14990D01*
G01*
G75*
G02*
Y44702770I13020J10D01*
G01*
Y44763520D01*
X45484550D01*
Y44757770D01*
X45425050D01*
Y44763520D01*
X45371050D01*
Y44757770D01*
X45311550D01*
Y44763520D01*
X44268240D01*
G75*
G02*
X44210800Y44715560I-84420J42730D01*
G01*
Y44763520D01*
X44156800D01*
Y44715560D01*
G75*
G02*
X44099360Y44763520I26940J90640D01*
G01*
X43391380D01*
G75*
G02*
X43347900Y44733770I-43490J16910D01*
G01*
X43340550D01*
Y44763520D01*
X43295550D01*
Y44733770D01*
X43288200D01*
G75*
G02*
X43244720Y44763520I-10J46630D01*
G01*
X42986380D01*
G75*
G02*
X42942900Y44733770I-43490J16910D01*
G01*
X42935550D01*
Y44763520D01*
X42890550D01*
Y44733770D01*
X42883200D01*
G75*
G02*
X42839720Y44763520I-10J46630D01*
G01*
X42751380D01*
G75*
G02*
X42707900Y44733770I-43490J16910D01*
G01*
X42700550D01*
Y44763520D01*
X42655550D01*
Y44733770D01*
X42648200D01*
G75*
G02*
X42604720Y44763520I-10J46630D01*
G01*
X42303700D01*
G37*
X45820550D02*
G36*
X45820550Y44763520D02*
Y44702770D01*
G75*
G02*
X45816730Y44692770I-15000J0D01*
G01*
X45875550D01*
G75*
G02*
X45888230Y44685770I-20J-15020D01*
G01*
X46228050D01*
Y44730270D01*
G75*
G02*
X46243050Y44745270I15000J0D01*
G01*
X46318050D01*
G75*
G02*
X46333050Y44730270I0J-15000D01*
G01*
Y44685770D01*
X46573320D01*
X46546490Y44712600D01*
G75*
G02*
X46542100Y44723190I10580J10590D01*
G01*
G75*
G02*
Y44723200I13970J10D01*
G01*
G75*
G02*
X46546490Y44733800I15010J-10D01*
G01*
X46576210Y44763520D01*
X45820550D01*
G37*
X46659610Y44726740D02*
G36*
X46659610Y44726740D02*
X46618640Y44685770D01*
X47147280D01*
G75*
G02*
X47145550Y44692760I13260J6990D01*
G01*
G75*
G02*
Y44692770I13020J10D01*
G01*
Y44763520D01*
X46644030D01*
X46659610Y44747940D01*
G75*
G02*
X46664000Y44737340I-10740J-10660D01*
G01*
G75*
G02*
X46659610Y44726740I-15080J40D01*
G01*
G37*
X47230550Y44692770D02*
G36*
X47230550Y44692770D02*
G75*
G02*
X47228810Y44685770I-15010J10D01*
G01*
X49136300D01*
Y44763520D01*
X48461490D01*
G75*
G02*
X48404050Y44715560I-84420J42730D01*
G01*
Y44763520D01*
X48350050D01*
Y44715560D01*
G75*
G02*
X48292610Y44763520I26940J90640D01*
G01*
X47856100D01*
G75*
G02*
X47812900Y44734470I-43210J17600D01*
G01*
X47800050D01*
Y44763520D01*
X47746050D01*
Y44734470D01*
X47733200D01*
G75*
G02*
X47689990Y44763520I-10J46640D01*
G01*
X47230550D01*
Y44692770D01*
G37*
X42303700Y44877020D02*
G36*
X42303700Y44877020D02*
Y44763520D01*
X42604720D01*
G75*
G02*
X42601550Y44780410I43480J16900D01*
G01*
G75*
G02*
Y44780420I40930J10D01*
G01*
Y44793270D01*
X42655550D01*
Y44763520D01*
X42700550D01*
Y44793270D01*
X42754550D01*
Y44780420D01*
G75*
G02*
X42751380Y44763520I-46660J0D01*
G01*
X42839720D01*
G75*
G02*
X42836550Y44780410I43480J16900D01*
G01*
G75*
G02*
Y44780420I40930J10D01*
G01*
Y44793270D01*
X42890550D01*
Y44763520D01*
X42935550D01*
Y44793270D01*
X42989550D01*
Y44780420D01*
G75*
G02*
X42986380Y44763520I-46660J0D01*
G01*
X43244720D01*
G75*
G02*
X43241550Y44780410I43480J16900D01*
G01*
G75*
G02*
Y44780420I40930J10D01*
G01*
Y44793270D01*
X43295550D01*
Y44763520D01*
X43340550D01*
Y44793270D01*
X43394550D01*
Y44780420D01*
G75*
G02*
X43391380Y44763520I-46660J0D01*
G01*
X44099360D01*
G75*
G02*
X44093090Y44779270I84390J42720D01*
G01*
X44153430D01*
G75*
G03*
X44156800Y44775900I27470J24100D01*
G01*
Y44763520D01*
X44210800D01*
Y44775900D01*
G75*
G03*
X44214170Y44779270I-26690J30060D01*
G01*
X44274510D01*
G75*
G02*
X44268240Y44763520I-90700J26980D01*
G01*
X45311550D01*
Y44765120D01*
G75*
G02*
Y44765130I63660J10D01*
G01*
G75*
G02*
X45352650Y44811440I46640J0D01*
G01*
G75*
G02*
X45321550Y44855410I15530J43970D01*
G01*
G75*
G02*
Y44855420I31830J10D01*
G01*
Y44868270D01*
X45375550D01*
Y44808770D01*
X45371050D01*
Y44763520D01*
X45425050D01*
Y44808770D01*
X45420550D01*
Y44868270D01*
X45474550D01*
Y44855420D01*
G75*
G02*
X45443450Y44811440I-46660J10D01*
G01*
G75*
G02*
X45484550Y44765120I-5570J-46330D01*
G01*
Y44763520D01*
X45735550D01*
Y44777770D01*
G75*
G02*
X45750550Y44792770I15000J0D01*
G01*
X45805550D01*
G75*
G02*
X45820550Y44777770I0J-15000D01*
G01*
Y44763520D01*
X46576210D01*
X46599520Y44786830D01*
G75*
G02*
X46620720I10600J-10600D01*
G01*
X46644030Y44763520D01*
X47145550D01*
Y44767770D01*
X47100550D01*
G75*
G02*
X47085550Y44782760I0J14990D01*
G01*
G75*
G02*
Y44782770I13020J10D01*
G01*
Y44857770D01*
G75*
G02*
X47100550Y44872770I15000J0D01*
G01*
X47155550D01*
G75*
G02*
X47170550Y44857770I0J-15000D01*
G01*
Y44782770D01*
X47205550D01*
Y44857770D01*
G75*
G02*
X47220550Y44872770I15000J0D01*
G01*
X47275550D01*
G75*
G02*
X47290550Y44857770I0J-15000D01*
G01*
Y44782770D01*
G75*
G02*
X47275550Y44767770I-15000J0D01*
G01*
X47230550D01*
Y44763520D01*
X47689990D01*
G75*
G02*
X47686550Y44781110I43200J17580D01*
G01*
G75*
G02*
Y44781120I40930J10D01*
G01*
Y44788470D01*
X47746050D01*
Y44763520D01*
X47800050D01*
Y44788470D01*
X47859550D01*
Y44781120D01*
G75*
G02*
X47856100Y44763520I-46660J10D01*
G01*
X48292610D01*
G75*
G02*
X48286340Y44779270I84390J42720D01*
G01*
X48346680D01*
G75*
G03*
X48350050Y44775900I27470J24100D01*
G01*
Y44763520D01*
X48404050D01*
Y44775900D01*
G75*
G03*
X48407420Y44779270I-26690J30060D01*
G01*
X48467760D01*
G75*
G02*
X48461490Y44763520I-90700J26980D01*
G01*
X49136300D01*
Y44877020D01*
X48439910D01*
G75*
G02*
X48467760Y44833270I-62880J-70770D01*
G01*
X48407420D01*
G75*
G03*
X48404050Y44836640I-33210J-29840D01*
G01*
Y44877020D01*
X48350050D01*
Y44836640D01*
G75*
G03*
X48346680Y44833270I26690J-30060D01*
G01*
X48286340D01*
G75*
G02*
X48314180Y44877020I90690J-26980D01*
G01*
X47842320D01*
G75*
G02*
X47859550Y44840820I-29420J-36200D01*
G01*
Y44833470D01*
X47800050D01*
Y44852770D01*
X47746050D01*
Y44833470D01*
X47686550D01*
Y44840820D01*
G75*
G02*
Y44840840I45840J10D01*
G01*
G75*
G02*
X47703770Y44877020I46620J0D01*
G01*
X46677660D01*
G75*
G02*
X46637900Y44854770I-39760J24410D01*
G01*
X46625050D01*
Y44877020D01*
X46571050D01*
Y44854770D01*
X46558200D01*
G75*
G02*
X46518430Y44877020I-10J46640D01*
G01*
X44246660D01*
G75*
G02*
X44274510Y44833270I-62880J-70770D01*
G01*
X44214170D01*
G75*
G03*
X44210800Y44836640I-33210J-29840D01*
G01*
Y44877020D01*
X44156800D01*
Y44836640D01*
G75*
G03*
X44153430Y44833270I26690J-30060D01*
G01*
X44093090D01*
G75*
G02*
X44120930Y44877020I90690J-26980D01*
G01*
X43391370D01*
G75*
G02*
X43394550Y44860120I-43490J-16930D01*
G01*
Y44847270D01*
X43340550D01*
Y44877020D01*
X43295550D01*
Y44847270D01*
X43241550D01*
Y44860120D01*
G75*
G02*
X43244720Y44877020I46660J0D01*
G01*
X42986370D01*
G75*
G02*
X42989550Y44860120I-43490J-16930D01*
G01*
Y44847270D01*
X42935550D01*
Y44877020D01*
X42890550D01*
Y44847270D01*
X42836550D01*
Y44860120D01*
G75*
G02*
X42839720Y44877020I46660J0D01*
G01*
X42751370D01*
G75*
G02*
X42754550Y44860120I-43490J-16930D01*
G01*
Y44847270D01*
X42700550D01*
Y44877020D01*
X42655550D01*
Y44847270D01*
X42601550D01*
Y44860120D01*
G75*
G02*
X42604720Y44877020I46660J0D01*
G01*
X42303700D01*
G37*
Y44950270D02*
G36*
X42303700Y44950270D02*
Y44877020D01*
X42604720D01*
G75*
G02*
X42648200Y44906770I43490J-16910D01*
G01*
X42655550D01*
Y44877020D01*
X42700550D01*
Y44906770D01*
X42707900D01*
G75*
G02*
X42751370Y44877020I-20J-46670D01*
G01*
X42839720D01*
G75*
G02*
X42883200Y44906770I43490J-16910D01*
G01*
X42890550D01*
Y44877020D01*
X42935550D01*
Y44906770D01*
X42942900D01*
G75*
G02*
X42986370Y44877020I-20J-46670D01*
G01*
X43244720D01*
G75*
G02*
X43288200Y44906770I43490J-16910D01*
G01*
X43295550D01*
Y44877020D01*
X43340550D01*
Y44906770D01*
X43347900D01*
G75*
G02*
X43391370Y44877020I-20J-46670D01*
G01*
X44120930D01*
G75*
G02*
X44156800Y44896980I62850J-70740D01*
G01*
Y44877020D01*
X44210800D01*
Y44896980D01*
G75*
G02*
X44246660Y44877020I-27020J-90740D01*
G01*
X46518430D01*
G75*
G02*
X46511550Y44901410I39760J24380D01*
G01*
G75*
G02*
Y44901420I40930J10D01*
G01*
Y44908770D01*
X46571050D01*
Y44877020D01*
X46625050D01*
Y44908770D01*
X46684550D01*
Y44901420D01*
G75*
G02*
X46677660Y44877020I-46660J0D01*
G01*
X47703770D01*
G75*
G02*
X47720550Y44885720I29400J-36170D01*
G01*
Y44922770D01*
G75*
G02*
X47735550Y44937770I15000J0D01*
G01*
X47810550D01*
G75*
G02*
X47825550Y44922770I0J-15000D01*
G01*
Y44885720D01*
G75*
G02*
X47842320Y44877020I-12650J-44900D01*
G01*
X48314180D01*
G75*
G02*
X48350050Y44896980I62850J-70740D01*
G01*
Y44877020D01*
X48404050D01*
Y44896980D01*
G75*
G02*
X48439910Y44877020I-27020J-90740D01*
G01*
X49136300D01*
Y44950270D01*
X49108690D01*
G75*
G02*
X48987410I-60640J0D01*
G01*
X46330340D01*
G75*
G02*
X46315550Y44937770I-14800J2510D01*
G01*
X46240550D01*
G75*
G02*
X46225760Y44950270I-10J14990D01*
G01*
X45472020D01*
G75*
G02*
X45474550Y44935120I-44140J-15160D01*
G01*
Y44922270D01*
X45420550D01*
Y44950270D01*
X45375550D01*
Y44922270D01*
X45321550D01*
Y44935120D01*
G75*
G02*
X45324080Y44950270I46660J-10D01*
G01*
X44845550D01*
Y44927770D01*
G75*
G02*
X44830550Y44912770I-15000J0D01*
G01*
X44755550D01*
G75*
G02*
X44740550Y44927760I0J14990D01*
G01*
G75*
G02*
Y44927770I13020J10D01*
G01*
Y44950270D01*
X42303700D01*
G37*
Y44980770D02*
G36*
X42303700Y44980770D02*
Y44950270D01*
X44740550D01*
Y44980770D01*
X42303700D01*
G37*
X44845550D02*
G36*
X44845550Y44980770D02*
Y44950270D01*
X45324080D01*
G75*
G02*
X45358600Y44980770I44130J-15160D01*
G01*
X44845550D01*
G37*
X45375550D02*
G36*
X45375550Y44980770D02*
Y44950270D01*
X45420550D01*
Y44980770D01*
X45375550D01*
G37*
X45437490D02*
G36*
X45437490Y44980770D02*
G75*
G02*
X45472020Y44950270I-9610J-45670D01*
G01*
X46225760D01*
G75*
G02*
X46225550Y44952760I14790J2500D01*
G01*
G75*
G02*
Y44952770I13020J10D01*
G01*
Y44980770D01*
X45437490D01*
G37*
X46330550Y44952770D02*
G36*
X46330550Y44952770D02*
G75*
G02*
X46330340Y44950270I-15010J0D01*
G01*
X48987410D01*
G75*
G02*
X48995640Y44980770I60640J0D01*
G01*
X46680200D01*
G75*
G02*
X46684550Y44961120I-42320J-19680D01*
G01*
Y44953770D01*
X46625050D01*
Y44980770D01*
X46571050D01*
Y44953770D01*
X46511550D01*
Y44961120D01*
G75*
G02*
X46515890Y44980770I46650J0D01*
G01*
X46330550D01*
Y44952770D01*
G37*
X49100460Y44980770D02*
G36*
X49100460Y44980770D02*
G75*
G02*
X49108690Y44950270I-52410J-30500D01*
G01*
X49136300D01*
Y44980770D01*
X49100460D01*
G37*
X42303700Y45035020D02*
G36*
X42303700Y45035020D02*
Y44980770D01*
X44740550D01*
Y44982770D01*
G75*
G02*
X44755550Y44997770I15000J0D01*
G01*
X44830550D01*
G75*
G02*
X44845550Y44982770I0J-15000D01*
G01*
Y44980770D01*
X45358600D01*
G75*
G02*
X45368200Y44981770I9610J-45650D01*
G01*
X45375550D01*
Y44980770D01*
X45420550D01*
Y44981770D01*
X45427900D01*
G75*
G02*
X45437490Y44980770I-20J-46690D01*
G01*
X46225550D01*
Y45007770D01*
G75*
G02*
X46240550Y45022770I15000J0D01*
G01*
X46315550D01*
G75*
G02*
X46330550Y45007770I0J-15000D01*
G01*
Y44980770D01*
X46515890D01*
G75*
G02*
X46558200Y45007770I42310J-19660D01*
G01*
X46571050D01*
Y44980770D01*
X46625050D01*
Y45007770D01*
X46637900D01*
G75*
G02*
X46680200Y44980770I-20J-46670D01*
G01*
X48995640D01*
G75*
G02*
X49100460I52410J-30500D01*
G01*
X49136300D01*
Y45035020D01*
X48260550D01*
Y45003770D01*
G75*
G02*
X48245550Y44988770I-15000J0D01*
G01*
X48170550D01*
G75*
G02*
X48155550Y45003760I0J14990D01*
G01*
G75*
G02*
Y45003770I13020J10D01*
G01*
Y45035020D01*
X47380550D01*
Y45018770D01*
G75*
G02*
X47365550Y45003770I-15000J0D01*
G01*
X47310550D01*
G75*
G02*
X47295550Y45018760I0J14990D01*
G01*
G75*
G02*
Y45018770I13020J10D01*
G01*
Y45035020D01*
X46620180D01*
G75*
G02*
X46598050Y45025270I-22130J20230D01*
G01*
X44864050D01*
G75*
G02*
X44798950Y45035020I0J222210D01*
G01*
X43518550D01*
Y45016070D01*
G75*
G02*
X43503550Y45001070I-15000J0D01*
G01*
X43448550D01*
G75*
G02*
X43433550Y45016060I0J14990D01*
G01*
G75*
G02*
Y45016070I13020J10D01*
G01*
Y45035020D01*
X42611710D01*
G75*
G02*
X42569400Y45008020I-42310J19660D01*
G01*
X42556550D01*
Y45035020D01*
X42502550D01*
Y45008020D01*
X42489700D01*
G75*
G02*
X42447390Y45035020I-10J46640D01*
G01*
X42303700D01*
G37*
Y45134020D02*
G36*
X42303700Y45134020D02*
Y45035020D01*
X42447390D01*
G75*
G02*
X42443050Y45054660I42310J19650D01*
G01*
G75*
G02*
Y45054670I40930J10D01*
G01*
Y45062020D01*
X42502550D01*
Y45035020D01*
X42556550D01*
Y45062020D01*
X42616050D01*
Y45054670D01*
G75*
G02*
X42611710Y45035020I-46650J0D01*
G01*
X43433550D01*
Y45091070D01*
G75*
G02*
X43448550Y45106070I15000J0D01*
G01*
X43503550D01*
G75*
G02*
X43518550Y45091070I0J-15000D01*
G01*
Y45035020D01*
X44798950D01*
G75*
G02*
X44672990Y45134020I65100J212450D01*
G01*
X42611700D01*
G75*
G02*
X42616050Y45114370I-42320J-19680D01*
G01*
Y45107020D01*
X42556550D01*
Y45134020D01*
X42502550D01*
Y45107020D01*
X42443050D01*
Y45114370D01*
G75*
G02*
X42447390Y45134020I46650J0D01*
G01*
X42303700D01*
G37*
X44773010D02*
G36*
X44773010Y45134020D02*
X44748110D01*
G75*
G03*
X44864050Y45085270I115910J113430D01*
G01*
X44899300D01*
G75*
G02*
X44773010Y45134020I20J188020D01*
G01*
G37*
X46330550Y45087770D02*
G36*
X46330550Y45087770D02*
G75*
G02*
X46330340Y45085270I-17250J190D01*
G01*
X46545550D01*
Y45106520D01*
G75*
G02*
X46514910Y45134020I12600J44860D01*
G01*
X46330550D01*
Y45087770D01*
G37*
X46571050Y45134020D02*
G36*
X46571050Y45134020D02*
Y45123570D01*
X46625050D01*
Y45134020D01*
X46571050D01*
G37*
X46622970Y45038570D02*
G36*
X46622970Y45038570D02*
G75*
G02*
X46620180Y45035020I-24920J16710D01*
G01*
X47295550D01*
Y45093770D01*
G75*
G02*
X47310550Y45108770I15000J0D01*
G01*
X47365550D01*
G75*
G02*
X47380550Y45093770I0J-15000D01*
G01*
Y45035020D01*
X48155550D01*
Y45058770D01*
G75*
G02*
X48170550Y45073770I15000J0D01*
G01*
X48245550D01*
G75*
G02*
X48260550Y45058770I0J-15000D01*
G01*
Y45035020D01*
X49136300D01*
Y45134020D01*
X48236550D01*
Y45127770D01*
G75*
G02*
X48221550Y45112770I-15000J0D01*
G01*
X48146550D01*
G75*
G02*
X48131550Y45127760I0J14990D01*
G01*
G75*
G02*
Y45127770I13020J10D01*
G01*
Y45134020D01*
X46681180D01*
G75*
G02*
X46650550Y45106520I-43280J17400D01*
G01*
Y45053570D01*
G75*
G02*
X46635550Y45038570I-15000J0D01*
G01*
X46622970D01*
G37*
X42303700Y45195770D02*
G36*
X42303700Y45195770D02*
Y45134020D01*
X42447390D01*
G75*
G02*
X42489700Y45161020I42310J-19660D01*
G01*
X42502550D01*
Y45134020D01*
X42556550D01*
Y45161020D01*
X42569400D01*
G75*
G02*
X42611700Y45134020I-20J-46670D01*
G01*
X44672990D01*
G75*
G02*
X44647950Y45195770I191070J113430D01*
G01*
X42303700D01*
G37*
X44728020D02*
G36*
X44728020Y45195770D02*
X44710300D01*
G75*
G03*
X44748110Y45134020I153720J51680D01*
G01*
X44773010D01*
G75*
G02*
X44728020Y45195770I126310J139290D01*
G01*
G37*
X44797430D02*
G36*
X44797430Y45195770D02*
G75*
G03*
X44899300Y45145270I101870J77500D01*
G01*
X46225760D01*
G75*
G02*
X46240550Y45157770I14790J-2500D01*
G01*
X46315550D01*
G75*
G02*
X46330550Y45142770I0J-15000D01*
G01*
Y45134020D01*
X46514910D01*
G75*
G02*
X46511550Y45151380I43240J17370D01*
G01*
G75*
G02*
Y45151420I48760J20D01*
G01*
Y45158770D01*
X46571050D01*
Y45134020D01*
X46625050D01*
Y45158770D01*
X46684550D01*
Y45151420D01*
G75*
G02*
X46681180Y45134020I-46650J10D01*
G01*
X48131550D01*
Y45182770D01*
G75*
G02*
X48139070Y45195770I15010J0D01*
G01*
X47216210D01*
G75*
G02*
X47173900Y45168770I-42310J19660D01*
G01*
X47161050D01*
Y45195770D01*
X47107050D01*
Y45168770D01*
X47094200D01*
G75*
G02*
X47051890Y45195770I-10J46640D01*
G01*
X46330550D01*
Y45192770D01*
G75*
G02*
X46315550Y45177770I-15000J0D01*
G01*
X46240550D01*
G75*
G02*
X46225550Y45192760I0J14990D01*
G01*
G75*
G02*
Y45192770I13020J10D01*
G01*
Y45195770D01*
X44797430D01*
G37*
X48236550Y45182770D02*
G36*
X48236550Y45182770D02*
Y45134020D01*
X49136300D01*
Y45195770D01*
X48229020D01*
G75*
G02*
X48236550Y45182770I-7490J-13020D01*
G01*
G37*
X42303700Y45250270D02*
G36*
X42303700Y45250270D02*
Y45195770D01*
X44647950D01*
G75*
G02*
X44641850Y45247470I216130J51710D01*
G01*
Y45250270D01*
X44265550D01*
Y45224270D01*
G75*
G02*
X44250550Y45209270I-15000J0D01*
G01*
X44175550D01*
G75*
G02*
X44160550Y45224260I0J14990D01*
G01*
G75*
G02*
Y45224270I13020J10D01*
G01*
Y45250270D01*
X43840550D01*
Y45222770D01*
G75*
G02*
X43825550Y45207770I-15000J0D01*
G01*
X43750550D01*
G75*
G02*
X43735550Y45222760I0J14990D01*
G01*
G75*
G02*
Y45222770I13020J10D01*
G01*
Y45250270D01*
X43655550D01*
Y45222770D01*
G75*
G02*
X43640550Y45207770I-15000J0D01*
G01*
X43565550D01*
G75*
G02*
X43550550Y45222760I0J14990D01*
G01*
G75*
G02*
Y45222770I13020J10D01*
G01*
Y45250270D01*
X42303700D01*
G37*
X44701850Y45247470D02*
G36*
X44701850Y45247470D02*
G75*
G03*
Y45247450I143240J-10D01*
G01*
G75*
G03*
X44710300Y45195770I162190J-10D01*
G01*
X44728020D01*
G75*
G02*
X44712710Y45250270I171300J77520D01*
G01*
X44701850D01*
Y45247470D01*
G37*
X44773380Y45250270D02*
G36*
X44773380Y45250270D02*
G75*
G03*
X44797430Y45195770I125920J23010D01*
G01*
X46225550D01*
Y45247770D01*
G75*
G02*
X46225760Y45250270I15010J0D01*
G01*
X44773380D01*
G37*
X46330550Y45247770D02*
G36*
X46330550Y45247770D02*
Y45195770D01*
X47051890D01*
G75*
G02*
X47047550Y45215410I42310J19650D01*
G01*
G75*
G02*
Y45215420I40930J10D01*
G01*
Y45222770D01*
X47107050D01*
Y45195770D01*
X47161050D01*
Y45222770D01*
X47220550D01*
Y45215420D01*
G75*
G02*
X47216210Y45195770I-46650J0D01*
G01*
X48139070D01*
G75*
G02*
X48146550Y45197770I7490J-13010D01*
G01*
X48221550D01*
G75*
G02*
X48229020Y45195770I-20J-15030D01*
G01*
X49136300D01*
Y45250270D01*
X46663250D01*
G75*
G02*
X46684550Y45211120I-25370J-39170D01*
G01*
Y45203770D01*
X46625050D01*
Y45250270D01*
X46571050D01*
Y45203770D01*
X46511550D01*
Y45211120D01*
G75*
G02*
X46532840Y45250270I46660J-10D01*
G01*
X46330340D01*
G75*
G02*
X46330550Y45247770I-14810J-2500D01*
G01*
G37*
X42303700Y45350270D02*
G36*
X42303700Y45350270D02*
Y45250270D01*
X43550550D01*
Y45277770D01*
G75*
G02*
X43565550Y45292770I15000J0D01*
G01*
X43640550D01*
G75*
G02*
X43655550Y45277770I0J-15000D01*
G01*
Y45250270D01*
X43735550D01*
Y45277770D01*
G75*
G02*
X43750550Y45292770I15000J0D01*
G01*
X43825550D01*
G75*
G02*
X43840550Y45277770I0J-15000D01*
G01*
Y45250270D01*
X44160550D01*
Y45279270D01*
G75*
G02*
X44175550Y45294270I15000J0D01*
G01*
X44250550D01*
G75*
G02*
X44265550Y45279270I0J-15000D01*
G01*
Y45250270D01*
X44641850D01*
Y45350270D01*
X44265550D01*
Y45322770D01*
G75*
G02*
X44250550Y45307770I-15000J0D01*
G01*
X44175550D01*
G75*
G02*
X44160550Y45322760I0J14990D01*
G01*
G75*
G02*
Y45322770I13020J10D01*
G01*
Y45350270D01*
X42303700D01*
G37*
X44701850D02*
G36*
X44701850Y45350270D02*
Y45250270D01*
X44712710D01*
G75*
G02*
X44711300Y45273270I186620J22980D01*
G01*
Y45350270D01*
X44701850D01*
G37*
X44771300Y45273270D02*
G36*
X44771300Y45273270D02*
G75*
G03*
X44773380Y45250270I128010J-20D01*
G01*
X46225760D01*
G75*
G02*
X46240550Y45262770I14800J-2510D01*
G01*
X46315550D01*
G75*
G02*
X46330340Y45250270I-20J-15020D01*
G01*
X46532840D01*
G75*
G02*
X46558200Y45257770I25370J-39150D01*
G01*
X46571050D01*
Y45250270D01*
X46625050D01*
Y45257770D01*
X46637900D01*
G75*
G02*
X46663250Y45250270I-20J-46670D01*
G01*
X49136300D01*
Y45350270D01*
X48144550D01*
Y45301770D01*
G75*
G02*
X48129550Y45286770I-15000J0D01*
G01*
X48054550D01*
G75*
G02*
X48039550Y45301760I0J14990D01*
G01*
G75*
G02*
Y45301770I13020J10D01*
G01*
Y45350270D01*
X48037510D01*
Y45301770D01*
G75*
G02*
X48022510Y45286770I-15000J0D01*
G01*
X47947510D01*
G75*
G02*
X47932510Y45301760I0J14990D01*
G01*
G75*
G02*
Y45301770I13020J10D01*
G01*
Y45350270D01*
X47922420D01*
Y45301770D01*
G75*
G02*
X47907420Y45286770I-15000J0D01*
G01*
X47832420D01*
G75*
G02*
X47817420Y45301760I0J14990D01*
G01*
G75*
G02*
Y45301770I13020J10D01*
G01*
Y45350270D01*
X47807320D01*
Y45301770D01*
G75*
G02*
X47792320Y45286770I-15000J0D01*
G01*
X47717320D01*
G75*
G02*
X47702320Y45301760I0J14990D01*
G01*
G75*
G02*
Y45301770I13020J10D01*
G01*
Y45350270D01*
X47189550D01*
Y45319070D01*
G75*
G02*
X47220550Y45275120I-15660J-43950D01*
G01*
Y45267770D01*
X47161050D01*
Y45295270D01*
X47107050D01*
Y45267770D01*
X47047550D01*
Y45275120D01*
G75*
G02*
X47084550Y45320760I46660J-10D01*
G01*
Y45350270D01*
X44771300D01*
Y45273270D01*
G37*
X42303700Y45450270D02*
G36*
X42303700Y45450270D02*
Y45350270D01*
X44160550D01*
Y45377770D01*
G75*
G02*
X44175550Y45392770I15000J0D01*
G01*
X44250550D01*
G75*
G02*
X44265550Y45377770I0J-15000D01*
G01*
Y45350270D01*
X44641850D01*
Y45450270D01*
X44265550D01*
Y45422770D01*
G75*
G02*
X44250550Y45407770I-15000J0D01*
G01*
X44175550D01*
G75*
G02*
X44160550Y45422760I0J14990D01*
G01*
G75*
G02*
Y45422770I13020J10D01*
G01*
Y45450270D01*
X42303700D01*
G37*
X44701850D02*
G36*
X44701850Y45450270D02*
Y45350270D01*
X44711300D01*
Y45450270D01*
X44701850D01*
G37*
X44771300D02*
G36*
X44771300Y45450270D02*
Y45350270D01*
X47084550D01*
Y45365270D01*
G75*
G02*
X47099550Y45380270I15000J0D01*
G01*
X47174550D01*
G75*
G02*
X47189550Y45365270I0J-15000D01*
G01*
Y45350270D01*
X47702320D01*
Y45356770D01*
G75*
G02*
X47717320Y45371770I15000J0D01*
G01*
X47792320D01*
G75*
G02*
X47807320Y45356770I0J-15000D01*
G01*
Y45350270D01*
X47817420D01*
Y45356770D01*
G75*
G02*
X47832420Y45371770I15000J0D01*
G01*
X47907420D01*
G75*
G02*
X47922420Y45356770I0J-15000D01*
G01*
Y45350270D01*
X47932510D01*
Y45356770D01*
G75*
G02*
X47947510Y45371770I15000J0D01*
G01*
X48022510D01*
G75*
G02*
X48037510Y45356770I0J-15000D01*
G01*
Y45350270D01*
X48039550D01*
Y45356770D01*
G75*
G02*
X48054550Y45371770I15000J0D01*
G01*
X48129550D01*
G75*
G02*
X48144550Y45356770I0J-15000D01*
G01*
Y45350270D01*
X49136300D01*
Y45450270D01*
X46593540D01*
G75*
G02*
X46580550Y45442770I-12990J7510D01*
G01*
X46505550D01*
G75*
G02*
X46496500Y45445800I-60J14850D01*
G01*
G75*
G02*
X46438390Y45395660I-85090J39870D01*
G01*
Y45450270D01*
X46384390D01*
Y45395660D01*
G75*
G02*
X46346390Y45417790I26900J89880D01*
G01*
G75*
G02*
X46308390Y45395660I-64990J67900D01*
G01*
Y45450270D01*
X46254390D01*
Y45395660D01*
G75*
G02*
X46216390Y45417790I26900J89880D01*
G01*
G75*
G02*
X46178390Y45395660I-64990J67900D01*
G01*
Y45450270D01*
X46124390D01*
Y45395660D01*
G75*
G02*
X46064320Y45450270I26990J90030D01*
G01*
X44771300D01*
G37*
X42303700Y45485770D02*
G36*
X42303700Y45485770D02*
Y45450270D01*
X44160550D01*
Y45477770D01*
G75*
G02*
X44162860Y45485770I15000J0D01*
G01*
X42303700D01*
G37*
X44265550Y45477770D02*
G36*
X44265550Y45477770D02*
Y45450270D01*
X44641850D01*
Y45485770D01*
X44565210D01*
G75*
G02*
X44522900Y45458770I-42310J19660D01*
G01*
X44510050D01*
Y45485770D01*
X44456050D01*
Y45458770D01*
X44443200D01*
G75*
G02*
X44400890Y45485770I-10J46640D01*
G01*
X44263230D01*
G75*
G02*
X44265550Y45477770I-12700J-8020D01*
G01*
G37*
X44701850Y45485770D02*
G36*
X44701850Y45485770D02*
Y45450270D01*
X44711300D01*
Y45485770D01*
X44701850D01*
G37*
X44771300D02*
G36*
X44771300Y45485770D02*
Y45450270D01*
X46064320D01*
G75*
G02*
X46061350Y45458700I87070J35420D01*
G01*
X46121880D01*
G75*
G03*
X46124390Y45456190I23740J21230D01*
G01*
Y45450270D01*
X46178390D01*
Y45456190D01*
G75*
G03*
X46180900Y45458700I-24980J27490D01*
G01*
X46191350D01*
X46241430D01*
X46251880D01*
G75*
G03*
X46254390Y45456190I23740J21230D01*
G01*
Y45450270D01*
X46308390D01*
Y45456190D01*
G75*
G03*
X46310900Y45458700I-24980J27490D01*
G01*
X46321350D01*
X46371430D01*
X46381880D01*
G75*
G03*
X46384390Y45456190I23740J21230D01*
G01*
Y45450270D01*
X46438390D01*
Y45456190D01*
G75*
G03*
X46440900Y45458700I-24980J27490D01*
G01*
X46490550D01*
Y45485770D01*
X46105370D01*
G75*
G02*
X46075050Y45470230I-57350J74550D01*
G01*
Y45485770D01*
X46021050D01*
Y45470230D01*
G75*
G02*
X45990720Y45485770I26990J90040D01*
G01*
X45086080D01*
G75*
G02*
X45016020I-35030J49500D01*
G01*
X44771300D01*
G37*
X46595550Y45457770D02*
G36*
X46595550Y45457770D02*
G75*
G02*
X46593540Y45450270I-15000J0D01*
G01*
X49136300D01*
Y45485770D01*
X46595550D01*
Y45457770D01*
G37*
X42303700Y45560670D02*
G36*
X42303700Y45560670D02*
Y45485770D01*
X44162860D01*
G75*
G02*
X44175550Y45492770I12690J-8010D01*
G01*
X44250550D01*
G75*
G02*
X44263230Y45485770I-20J-15020D01*
G01*
X44400890D01*
G75*
G02*
X44396550Y45505410I42310J19650D01*
G01*
G75*
G02*
Y45505420I40930J10D01*
G01*
Y45512770D01*
X44456050D01*
Y45485770D01*
X44510050D01*
Y45512770D01*
X44569550D01*
Y45505420D01*
G75*
G02*
X44565210Y45485770I-46650J0D01*
G01*
X44641850D01*
Y45560670D01*
X44569550D01*
Y45557770D01*
X44510050D01*
Y45560670D01*
X44456050D01*
Y45557770D01*
X44396550D01*
Y45560670D01*
X44017550D01*
Y45522770D01*
G75*
G02*
X44002550Y45507770I-15000J0D01*
G01*
X43947550D01*
G75*
G02*
X43932550Y45522760I0J14990D01*
G01*
G75*
G02*
Y45522770I13020J10D01*
G01*
Y45560670D01*
X43531470D01*
G75*
G02*
X43519550Y45554770I-11930J9100D01*
G01*
X43444550D01*
G75*
G02*
X43432620Y45560670I-10J14990D01*
G01*
X42303700D01*
G37*
X44701850D02*
G36*
X44701850Y45560670D02*
Y45485770D01*
X44711300D01*
Y45560670D01*
X44701850D01*
G37*
X44771300D02*
G36*
X44771300Y45560670D02*
Y45485770D01*
X45016020D01*
G75*
G02*
X44990410Y45535270I35030J49500D01*
G01*
G75*
G02*
X44995990Y45560670I60640J-10D01*
G01*
X44771300D01*
G37*
X45111690Y45535270D02*
G36*
X45111690Y45535270D02*
G75*
G02*
X45086080Y45485770I-60640J0D01*
G01*
X45990720D01*
G75*
G02*
X45958010Y45533270I57320J74480D01*
G01*
X46018540D01*
G75*
G03*
X46021050Y45530760I23740J21230D01*
G01*
Y45485770D01*
X46075050D01*
Y45512700D01*
X46061350D01*
G75*
G02*
X46094690Y45560670I90070J-27030D01*
G01*
X45106110D01*
G75*
G02*
X45111690Y45535270I-55060J-25410D01*
G01*
G37*
X46124390Y45560670D02*
G36*
X46124390Y45560670D02*
Y45533270D01*
X46138090D01*
G75*
G02*
X46105370Y45485770I-90070J27020D01*
G01*
X46490550D01*
Y45512700D01*
X46440900D01*
G75*
G03*
X46438390Y45515210I-32750J-30240D01*
G01*
Y45560670D01*
X46384390D01*
Y45515210D01*
G75*
G03*
X46381880Y45512700I24980J-27490D01*
G01*
X46371430D01*
X46321350D01*
X46310900D01*
G75*
G03*
X46308390Y45515210I-32750J-30240D01*
G01*
Y45560670D01*
X46254390D01*
Y45515210D01*
G75*
G03*
X46251880Y45512700I24980J-27490D01*
G01*
X46241430D01*
X46191350D01*
X46180900D01*
G75*
G03*
X46178390Y45515210I-32750J-30240D01*
G01*
Y45560670D01*
X46124390D01*
G37*
X46208090D02*
G36*
X46208090Y45560670D02*
G75*
G02*
X46216390Y45553610I-56850J-75240D01*
G01*
G75*
G02*
X46224680Y45560670I65060J-68000D01*
G01*
X46208090D01*
G37*
X46338090D02*
G36*
X46338090Y45560670D02*
G75*
G02*
X46346390Y45553610I-56850J-75240D01*
G01*
G75*
G02*
X46354680Y45560670I65060J-68000D01*
G01*
X46338090D01*
G37*
X46468090D02*
G36*
X46468090Y45560670D02*
G75*
G02*
X46496800Y45524960I-56720J-75000D01*
G01*
G75*
G02*
X46505550Y45527770I8740J-12190D01*
G01*
X46580550D01*
G75*
G02*
X46595550Y45512770I0J-15000D01*
G01*
Y45485770D01*
X49136300D01*
Y45560670D01*
X49072250D01*
Y45509070D01*
X48969050D01*
Y45560670D01*
X48915050D01*
Y45509070D01*
X48811850D01*
Y45560670D01*
X48737250D01*
Y45543070D01*
X48544850D01*
Y45560670D01*
X46468090D01*
G37*
X42303700Y45622770D02*
G36*
X42303700Y45622770D02*
Y45560670D01*
X43432620D01*
G75*
G02*
X43429550Y45569760I11920J9090D01*
G01*
G75*
G02*
Y45569770I13020J10D01*
G01*
Y45622770D01*
X42303700D01*
G37*
X43534550Y45569770D02*
G36*
X43534550Y45569770D02*
G75*
G02*
X43531470Y45560670I-15010J10D01*
G01*
X43932550D01*
Y45597770D01*
G75*
G02*
X43947550Y45612770I15000J0D01*
G01*
X44002550D01*
G75*
G02*
X44017550Y45597770I0J-15000D01*
G01*
Y45560670D01*
X44396550D01*
Y45565120D01*
G75*
G02*
X44443200Y45611770I46650J0D01*
G01*
X44456050D01*
Y45560670D01*
X44510050D01*
Y45611770D01*
X44522900D01*
G75*
G02*
X44569550Y45565120I0J-46650D01*
G01*
Y45560670D01*
X44641850D01*
Y45622770D01*
X43534550D01*
Y45569770D01*
G37*
X44701850Y45622770D02*
G36*
X44701850Y45622770D02*
Y45560670D01*
X44711300D01*
Y45622770D01*
X44701850D01*
G37*
X44771300D02*
G36*
X44771300Y45622770D02*
Y45560670D01*
X44995990D01*
G75*
G02*
X45106110I55060J-25400D01*
G01*
X46094690D01*
G75*
G02*
X46124390Y45575740I56730J-75010D01*
G01*
Y45560670D01*
X46178390D01*
Y45575740D01*
G75*
G02*
X46208090Y45560670I-27150J-90300D01*
G01*
X46224680D01*
G75*
G02*
X46254390Y45575740I56760J-75090D01*
G01*
Y45560670D01*
X46308390D01*
Y45575740D01*
G75*
G02*
X46338090Y45560670I-27150J-90300D01*
G01*
X46354680D01*
G75*
G02*
X46384390Y45575740I56760J-75090D01*
G01*
Y45560670D01*
X46438390D01*
Y45575740D01*
G75*
G02*
X46468090Y45560670I-27020J-90060D01*
G01*
X48544850D01*
Y45622770D01*
X47250340D01*
G75*
G02*
X47235550Y45610270I-14800J2510D01*
G01*
X47180550D01*
G75*
G02*
X47165760Y45622770I-10J14990D01*
G01*
X47155340D01*
G75*
G02*
X47140550Y45610270I-14800J2510D01*
G01*
X47085550D01*
G75*
G02*
X47070760Y45622770I-10J14990D01*
G01*
X46118260D01*
G75*
G02*
X46138090Y45587270I-70550J-62690D01*
G01*
X46077560D01*
G75*
G03*
X46075050Y45589780I-32750J-30240D01*
G01*
Y45595230D01*
Y45622770D01*
X46021050D01*
Y45595230D01*
Y45589780D01*
G75*
G03*
X46018540Y45587270I24980J-27490D01*
G01*
X45958010D01*
G75*
G02*
X45977840Y45622770I90050J-27010D01*
G01*
X44771300D01*
G37*
X48737250D02*
G36*
X48737250Y45622770D02*
Y45560670D01*
X48811850D01*
Y45612270D01*
X48865850D01*
Y45563070D01*
X48915050D01*
Y45560670D01*
X48969050D01*
Y45563070D01*
X49018250D01*
Y45612270D01*
X49072250D01*
Y45560670D01*
X49136300D01*
Y45622770D01*
X48737250D01*
G37*
X42303700Y45717870D02*
G36*
X42303700Y45717870D02*
Y45622770D01*
X43429550D01*
Y45624770D01*
G75*
G02*
X43444550Y45639770I15000J0D01*
G01*
X43519550D01*
G75*
G02*
X43534550Y45624770I0J-15000D01*
G01*
Y45622770D01*
X44641850D01*
Y45717870D01*
X42303700D01*
G37*
X44701850D02*
G36*
X44701850Y45717870D02*
Y45622770D01*
X44711300D01*
Y45717870D01*
X44701850D01*
G37*
X44771300D02*
G36*
X44771300Y45717870D02*
Y45622770D01*
X45977840D01*
G75*
G02*
X45958010Y45658270I70040J62410D01*
G01*
X46018540D01*
G75*
G03*
X46021050Y45655760I23740J21230D01*
G01*
Y45650310D01*
Y45622770D01*
X46075050D01*
Y45650310D01*
Y45655760D01*
G75*
G03*
X46077560Y45658270I-24980J27490D01*
G01*
X46138090D01*
G75*
G02*
X46118260Y45622770I-90200J27090D01*
G01*
X47070760D01*
G75*
G02*
X47070550Y45625260I14790J2500D01*
G01*
G75*
G02*
Y45625270I13020J10D01*
G01*
Y45700270D01*
G75*
G02*
X47085550Y45715270I15000J0D01*
G01*
X47140550D01*
G75*
G02*
X47155550Y45700270I0J-15000D01*
G01*
Y45625270D01*
G75*
G02*
X47155340Y45622770I-15010J0D01*
G01*
X47165760D01*
G75*
G02*
X47165550Y45625260I14790J2500D01*
G01*
G75*
G02*
Y45625270I13020J10D01*
G01*
Y45700270D01*
G75*
G02*
X47180550Y45715270I15000J0D01*
G01*
X47235550D01*
G75*
G02*
X47250550Y45700270I0J-15000D01*
G01*
Y45625270D01*
G75*
G02*
X47250340Y45622770I-15010J0D01*
G01*
X48544850D01*
Y45717870D01*
X46684080D01*
G75*
G02*
X46650050Y45699320I-61060J71530D01*
G01*
Y45717870D01*
X46596050D01*
Y45699320D01*
G75*
G02*
X46562010Y45717870I26990J90030D01*
G01*
X46136210D01*
G75*
G02*
X46138090Y45712270I-88510J-32830D01*
G01*
X46077560D01*
G75*
G03*
X46075050Y45714780I-32750J-30240D01*
G01*
Y45717870D01*
X46021050D01*
Y45714780D01*
G75*
G03*
X46018540Y45712270I24980J-27490D01*
G01*
X45958010D01*
G75*
G02*
X45959880Y45717870I90060J-26960D01*
G01*
X44771300D01*
G37*
X48737250D02*
G36*
X48737250Y45717870D02*
Y45622770D01*
X49136300D01*
Y45717870D01*
X49072250D01*
Y45666270D01*
X49018250D01*
Y45715470D01*
X48969050D01*
Y45717870D01*
X48915050D01*
Y45715470D01*
X48865850D01*
Y45666270D01*
X48811850D01*
Y45717870D01*
X48737250D01*
G37*
X42303700Y45854360D02*
G36*
X42303700Y45854360D02*
Y45717870D01*
X44641850D01*
Y45854360D01*
X43123890D01*
G75*
G02*
X43016210I-53840J27910D01*
G01*
X42303700D01*
G37*
X44701850D02*
G36*
X44701850Y45854360D02*
Y45717870D01*
X44711300D01*
Y45854360D01*
X44701850D01*
G37*
X44771300D02*
G36*
X44771300Y45854360D02*
Y45717870D01*
X45959880D01*
G75*
G02*
X45977840Y45747770I88180J-32620D01*
G01*
G75*
G02*
X45958010Y45783270I70040J62410D01*
G01*
X46018540D01*
G75*
G03*
X46021050Y45780760I23740J21230D01*
G01*
Y45775310D01*
Y45720230D01*
Y45717870D01*
X46075050D01*
Y45720230D01*
Y45775310D01*
Y45780760D01*
G75*
G03*
X46077560Y45783270I-24980J27490D01*
G01*
X46138090D01*
G75*
G02*
X46118260Y45747770I-90200J27090D01*
G01*
G75*
G02*
X46136210Y45717870I-70550J-62690D01*
G01*
X46562010D01*
G75*
G02*
X46533010Y45762360I61030J71480D01*
G01*
X46593540D01*
G75*
G03*
X46596050Y45759850I23740J21230D01*
G01*
Y45717870D01*
X46650050D01*
Y45759850D01*
G75*
G03*
X46652560Y45762360I-24980J27490D01*
G01*
X46713090D01*
G75*
G02*
X46684080Y45717870I-90070J27030D01*
G01*
X48544850D01*
Y45735470D01*
X48737250D01*
Y45717870D01*
X48811850D01*
Y45769470D01*
X48915050D01*
Y45717870D01*
X48969050D01*
Y45769470D01*
X49072250D01*
Y45717870D01*
X49136300D01*
Y45854360D01*
X49038250D01*
Y45797070D01*
X48845850D01*
Y45854360D01*
X48737250D01*
Y45797070D01*
X48544850D01*
Y45854360D01*
X47160550D01*
Y45827770D01*
G75*
G02*
X47145550Y45812770I-15000J0D01*
G01*
X47090550D01*
G75*
G02*
X47075550Y45827760I0J14990D01*
G01*
G75*
G02*
Y45827770I13020J10D01*
G01*
Y45854360D01*
X46690960D01*
G75*
G02*
X46713090Y45816360I-68170J-65150D01*
G01*
X46652560D01*
G75*
G03*
X46650050Y45818870I-32750J-30240D01*
G01*
Y45829320D01*
Y45854360D01*
X46596050D01*
Y45829320D01*
Y45818870D01*
G75*
G03*
X46593540Y45816360I24980J-27490D01*
G01*
X46533010D01*
G75*
G02*
X46555140Y45854360I90030J-26990D01*
G01*
X46131060D01*
G75*
G02*
X46138090Y45837270I-83340J-44270D01*
G01*
X46077560D01*
G75*
G03*
X46075050Y45839780I-32750J-30240D01*
G01*
Y45845230D01*
Y45854360D01*
X46021050D01*
Y45845230D01*
Y45839780D01*
G75*
G03*
X46018540Y45837270I24980J-27490D01*
G01*
X45958010D01*
G75*
G02*
X45965030Y45854360I90050J-27000D01*
G01*
X44771300D01*
G37*
X42303700Y45893270D02*
G36*
X42303700Y45893270D02*
Y45854360D01*
X43016210D01*
G75*
G02*
X43009410Y45882270I53840J27900D01*
G01*
G75*
G02*
X43010420Y45893270I60640J-20D01*
G01*
X42303700D01*
G37*
X43130690Y45882270D02*
G36*
X43130690Y45882270D02*
G75*
G02*
X43123890Y45854360I-60640J-10D01*
G01*
X44641850D01*
Y45893270D01*
X43129680D01*
G75*
G02*
X43130690Y45882270I-59630J-11020D01*
G01*
G37*
X44701850Y45893270D02*
G36*
X44701850Y45893270D02*
Y45854360D01*
X44711300D01*
Y45893270D01*
X44701850D01*
G37*
X44771300D02*
G36*
X44771300Y45893270D02*
Y45854360D01*
X45965030D01*
G75*
G02*
X45977840Y45872770I83030J-44110D01*
G01*
G75*
G02*
X45963950Y45893270I70040J62410D01*
G01*
X44771300D01*
G37*
X46021050D02*
G36*
X46021050Y45893270D02*
Y45854360D01*
X46075050D01*
Y45893270D01*
X46021050D01*
G37*
X46118260Y45872770D02*
G36*
X46118260Y45872770D02*
G75*
G02*
X46131060Y45854360I-70540J-62700D01*
G01*
X46555140D01*
G75*
G02*
X46533010Y45892360I67750J64900D01*
G01*
X46593540D01*
G75*
G03*
X46596050Y45889850I23740J21230D01*
G01*
Y45879400D01*
Y45854360D01*
X46650050D01*
Y45879400D01*
Y45889850D01*
G75*
G03*
X46652560Y45892360I-24980J27490D01*
G01*
X46713090D01*
G75*
G02*
X46690960Y45854360I-90150J27060D01*
G01*
X47075550D01*
Y45893270D01*
X46132140D01*
G75*
G02*
X46118260Y45872770I-84250J42090D01*
G01*
G37*
X47160550Y45893270D02*
G36*
X47160550Y45893270D02*
Y45854360D01*
X48544850D01*
Y45893270D01*
X47635670D01*
G75*
G02*
X47620800Y45880270I-14870J2010D01*
G01*
X47565800D01*
G75*
G02*
X47550930Y45893270I-10J14990D01*
G01*
X47160550D01*
G37*
X48737250D02*
G36*
X48737250Y45893270D02*
Y45854360D01*
X48845850D01*
Y45893270D01*
X48737250D01*
G37*
X49038250D02*
G36*
X49038250Y45893270D02*
Y45854360D01*
X49136300D01*
Y45893270D01*
X49038250D01*
G37*
X42303700Y45997770D02*
G36*
X42303700Y45997770D02*
Y45893270D01*
X43010420D01*
G75*
G02*
X43129680I59630J-11000D01*
G01*
X44641850D01*
Y45997770D01*
X42303700D01*
G37*
X44701850D02*
G36*
X44701850Y45997770D02*
Y45893270D01*
X44711300D01*
Y45997770D01*
X44701850D01*
G37*
X44771300D02*
G36*
X44771300Y45997770D02*
Y45893270D01*
X45963950D01*
G75*
G02*
X45958010Y45908270I83930J41910D01*
G01*
X46018540D01*
G75*
G03*
X46021050Y45905760I23740J21230D01*
G01*
Y45900310D01*
Y45893270D01*
X46075050D01*
Y45900310D01*
Y45905760D01*
G75*
G03*
X46077560Y45908270I-24980J27490D01*
G01*
X46138090D01*
G75*
G02*
X46132140Y45893270I-90200J27100D01*
G01*
X47075550D01*
Y45902770D01*
G75*
G02*
X47090550Y45917770I15000J0D01*
G01*
X47145550D01*
G75*
G02*
X47160550Y45902770I0J-15000D01*
G01*
Y45893270D01*
X47550930D01*
G75*
G02*
X47550800Y45895260I14870J1970D01*
G01*
G75*
G02*
Y45895270I13020J10D01*
G01*
Y45970270D01*
G75*
G02*
X47565800Y45985270I15000J0D01*
G01*
X47620800D01*
G75*
G02*
X47635800Y45970270I0J-15000D01*
G01*
Y45895270D01*
G75*
G02*
X47635670Y45893270I-15000J-30D01*
G01*
X48544850D01*
Y45989470D01*
X48737250D01*
Y45893270D01*
X48845850D01*
Y45989470D01*
X49038250D01*
Y45893270D01*
X49136300D01*
Y45997770D01*
X46701630D01*
G75*
G02*
X46690960Y45984360I-78680J51660D01*
G01*
G75*
G02*
X46713090Y45946360I-68170J-65150D01*
G01*
X46652560D01*
G75*
G03*
X46650050Y45948870I-32750J-30240D01*
G01*
Y45959320D01*
Y45997770D01*
X46596050D01*
Y45959320D01*
Y45948870D01*
G75*
G03*
X46593540Y45946360I24980J-27490D01*
G01*
X46533010D01*
G75*
G02*
X46555140Y45984360I90030J-26990D01*
G01*
G75*
G02*
X46544460Y45997770I67750J64910D01*
G01*
X46118260D01*
G75*
G02*
X46138090Y45962270I-70550J-62690D01*
G01*
X46077560D01*
G75*
G03*
X46075050Y45964780I-32750J-30240D01*
G01*
Y45970230D01*
Y45997770D01*
X46021050D01*
Y45970230D01*
Y45964780D01*
G75*
G03*
X46018540Y45962270I24980J-27490D01*
G01*
X45958010D01*
G75*
G02*
X45977840Y45997770I90050J-27010D01*
G01*
X45536800D01*
Y45981570D01*
X45344400D01*
Y45997770D01*
X45282800D01*
Y45981570D01*
X45090400D01*
Y45997770D01*
X44771300D01*
G37*
X42303700Y46041410D02*
G36*
X42303700Y46041410D02*
Y45997770D01*
X44641850D01*
Y46041410D01*
X42303700D01*
G37*
X44701850D02*
G36*
X44701850Y46041410D02*
Y45997770D01*
X44711300D01*
Y46041410D01*
X44701850D01*
G37*
X44771300D02*
G36*
X44771300Y46041410D02*
Y45997770D01*
X45090400D01*
Y46041410D01*
X44771300D01*
G37*
X45282800D02*
G36*
X45282800Y46041410D02*
Y45997770D01*
X45344400D01*
Y46041410D01*
X45282800D01*
G37*
X45536800D02*
G36*
X45536800Y46041410D02*
Y45997770D01*
X45977840D01*
G75*
G02*
X45958010Y46033270I70040J62410D01*
G01*
X46018540D01*
G75*
G03*
X46021050Y46030760I23740J21230D01*
G01*
Y46025310D01*
Y45997770D01*
X46075050D01*
Y46025310D01*
Y46030760D01*
G75*
G03*
X46077560Y46033270I-24980J27490D01*
G01*
X46138090D01*
G75*
G02*
X46118260Y45997770I-90200J27090D01*
G01*
X46544460D01*
G75*
G02*
X46533010Y46022360I78430J51480D01*
G01*
X46593540D01*
G75*
G03*
X46596050Y46019850I23740J21230D01*
G01*
Y46009400D01*
Y45997770D01*
X46650050D01*
Y46009400D01*
Y46019850D01*
G75*
G03*
X46652560Y46022360I-24980J27490D01*
G01*
X46713090D01*
G75*
G02*
X46701630Y45997770I-90150J27050D01*
G01*
X49136300D01*
Y46041410D01*
X48771250D01*
Y46017070D01*
X48668050D01*
Y46041410D01*
X48614050D01*
Y46017070D01*
X48510850D01*
Y46041410D01*
X47249670D01*
G75*
G02*
X47202550Y46009560I-74100J58850D01*
G01*
Y46041410D01*
X47148550D01*
Y46009560D01*
G75*
G02*
X47101420Y46041410I26940J90660D01*
G01*
X45536800D01*
G37*
X42303700Y46100270D02*
G36*
X42303700Y46100270D02*
Y46041410D01*
X44641850D01*
Y46100270D01*
X43011580D01*
Y46072770D01*
G75*
G02*
X42996580Y46057770I-15000J0D01*
G01*
X42921580D01*
G75*
G02*
X42906580Y46072760I0J14990D01*
G01*
G75*
G02*
Y46072770I13020J10D01*
G01*
Y46100270D01*
X42303700D01*
G37*
X44701850D02*
G36*
X44701850Y46100270D02*
Y46041410D01*
X44711300D01*
Y46100270D01*
X44701850D01*
G37*
X44771300D02*
G36*
X44771300Y46100270D02*
Y46041410D01*
X45090400D01*
Y46100270D01*
X44771300D01*
G37*
X45282800D02*
G36*
X45282800Y46100270D02*
Y46041410D01*
X45344400D01*
Y46100270D01*
X45282800D01*
G37*
X45536800D02*
G36*
X45536800Y46100270D02*
Y46041410D01*
X47101420D01*
G75*
G02*
X47084840Y46073270I74070J58790D01*
G01*
X47145180D01*
G75*
G03*
X47148550Y46069900I27470J24100D01*
G01*
Y46041410D01*
X47202550D01*
Y46069900D01*
G75*
G03*
X47205920Y46073270I-26690J30060D01*
G01*
X47266260D01*
G75*
G02*
X47249670Y46041410I-90690J26980D01*
G01*
X48510850D01*
Y46100270D01*
X46702060D01*
G75*
G02*
X46713090Y46076360I-79280J-51070D01*
G01*
X46652560D01*
G75*
G03*
X46650050Y46078870I-32750J-30240D01*
G01*
Y46089320D01*
Y46100270D01*
X46596050D01*
Y46089320D01*
Y46078870D01*
G75*
G03*
X46593540Y46076360I24980J-27490D01*
G01*
X46533010D01*
G75*
G02*
X46544030Y46100270I90040J-27000D01*
G01*
X46133110D01*
G75*
G02*
X46138090Y46087270I-85390J-40170D01*
G01*
X46077560D01*
G75*
G03*
X46075050Y46089780I-32750J-30240D01*
G01*
Y46095230D01*
Y46100270D01*
X46021050D01*
Y46095230D01*
Y46089780D01*
G75*
G03*
X46018540Y46087270I24980J-27490D01*
G01*
X45958010D01*
G75*
G02*
X45962990Y46100270I90060J-27050D01*
G01*
X45536800D01*
G37*
X48564850D02*
G36*
X48564850Y46100270D02*
Y46071070D01*
X48614050D01*
Y46041410D01*
X48668050D01*
Y46071070D01*
X48717250D01*
Y46100270D01*
X48564850D01*
G37*
X48771250D02*
G36*
X48771250Y46100270D02*
Y46041410D01*
X49136300D01*
Y46100270D01*
X49038250D01*
Y46051070D01*
X48845850D01*
Y46100270D01*
X48771250D01*
G37*
X42303700Y46147270D02*
G36*
X42303700Y46147270D02*
Y46100270D01*
X42906580D01*
Y46127770D01*
G75*
G02*
X42921580Y46142770I15000J0D01*
G01*
X42996580D01*
G75*
G02*
X43011580Y46127770I0J-15000D01*
G01*
Y46100270D01*
X44641850D01*
Y46147270D01*
X42303700D01*
G37*
X44701850D02*
G36*
X44701850Y46147270D02*
Y46100270D01*
X44711300D01*
Y46147270D01*
X44701850D01*
G37*
X44771300D02*
G36*
X44771300Y46147270D02*
Y46100270D01*
X45090400D01*
Y46147270D01*
X44771300D01*
G37*
X45282800D02*
G36*
X45282800Y46147270D02*
Y46100270D01*
X45344400D01*
Y46147270D01*
X45282800D01*
G37*
X45536800D02*
G36*
X45536800Y46147270D02*
Y46100270D01*
X45962990D01*
G75*
G02*
X45977840Y46122770I85080J-40000D01*
G01*
G75*
G02*
X45962070Y46147270I70040J62410D01*
G01*
X45536800D01*
G37*
X46021050D02*
G36*
X46021050Y46147270D02*
Y46100270D01*
X46075050D01*
Y46147270D01*
X46021050D01*
G37*
X46118260Y46122770D02*
G36*
X46118260Y46122770D02*
G75*
G02*
X46133110Y46100270I-70540J-62710D01*
G01*
X46544030D01*
G75*
G02*
X46555140Y46114360I79020J-50880D01*
G01*
G75*
G02*
X46534690Y46147270I67740J64900D01*
G01*
X46459600D01*
G75*
G02*
X46448890Y46142770I-10720J10510D01*
G01*
X46373890D01*
G75*
G02*
X46363170Y46147270I-10J14990D01*
G01*
X46134020D01*
G75*
G02*
X46118260Y46122770I-86130J38080D01*
G01*
G37*
X46596050Y46139400D02*
G36*
X46596050Y46139400D02*
Y46100270D01*
X46650050D01*
Y46139400D01*
Y46147270D01*
X46596050D01*
Y46139400D01*
G37*
X46690960Y46114360D02*
G36*
X46690960Y46114360D02*
G75*
G02*
X46702060Y46100270I-68170J-65120D01*
G01*
X48510850D01*
Y46120270D01*
X48564850D01*
Y46100270D01*
X48717250D01*
Y46120270D01*
X48771250D01*
Y46100270D01*
X48845850D01*
Y46147270D01*
X47630800D01*
Y46137770D01*
G75*
G02*
X47615800Y46122770I-15000J0D01*
G01*
X47560800D01*
G75*
G02*
X47545800Y46137760I0J14990D01*
G01*
G75*
G02*
Y46137770I13020J10D01*
G01*
Y46147270D01*
X47257690D01*
G75*
G02*
X47266260Y46127270I-82170J-47050D01*
G01*
X47205920D01*
G75*
G03*
X47202550Y46130640I-33210J-29840D01*
G01*
Y46147270D01*
X47148550D01*
Y46130640D01*
G75*
G03*
X47145180Y46127270I26690J-30060D01*
G01*
X47084840D01*
G75*
G02*
X47093400Y46147270I90690J-26990D01*
G01*
X46711400D01*
G75*
G02*
X46690960Y46114360I-88460J32140D01*
G01*
G37*
X49038250Y46147270D02*
G36*
X49038250Y46147270D02*
Y46100270D01*
X49136300D01*
Y46147270D01*
X49038250D01*
G37*
X42303700Y46253170D02*
G36*
X42303700Y46253170D02*
Y46147270D01*
X44641850D01*
Y46253170D01*
X42303700D01*
G37*
X44701850D02*
G36*
X44701850Y46253170D02*
Y46147270D01*
X44711300D01*
Y46253170D01*
X44701850D01*
G37*
X44771300D02*
G36*
X44771300Y46253170D02*
Y46147270D01*
X45090400D01*
Y46173970D01*
X45282800D01*
Y46147270D01*
X45344400D01*
Y46173970D01*
X45536800D01*
Y46147270D01*
X45962070D01*
G75*
G02*
X45958010Y46158270I85820J37920D01*
G01*
X46018540D01*
G75*
G03*
X46021050Y46155760I23740J21230D01*
G01*
Y46150310D01*
Y46147270D01*
X46075050D01*
Y46150310D01*
Y46155760D01*
G75*
G03*
X46077560Y46158270I-24980J27490D01*
G01*
X46138090D01*
G75*
G02*
X46134020Y46147270I-90200J27120D01*
G01*
X46363170D01*
G75*
G02*
X46358890Y46157760I10710J10490D01*
G01*
G75*
G02*
Y46157770I13020J10D01*
G01*
Y46212770D01*
G75*
G02*
X46373890Y46227770I15000J0D01*
G01*
X46448890D01*
G75*
G02*
X46463890Y46212770I0J-15000D01*
G01*
Y46157770D01*
G75*
G02*
X46459600Y46147270I-15010J0D01*
G01*
X46534690D01*
G75*
G02*
X46533010Y46152360I88210J31940D01*
G01*
X46593540D01*
G75*
G03*
X46596050Y46149850I23740J21230D01*
G01*
Y46147270D01*
X46650050D01*
Y46149850D01*
G75*
G03*
X46652560Y46152360I-24980J27490D01*
G01*
X46713090D01*
G75*
G02*
X46711400Y46147270I-90170J27110D01*
G01*
X47093400D01*
G75*
G02*
X47148550Y46190980I82130J-46980D01*
G01*
Y46147270D01*
X47202550D01*
Y46190980D01*
G75*
G02*
X47257690Y46147270I-27030J-90730D01*
G01*
X47545800D01*
Y46212770D01*
G75*
G02*
X47560800Y46227770I15000J0D01*
G01*
X47615800D01*
G75*
G02*
X47630800Y46212770I0J-15000D01*
G01*
Y46147270D01*
X48845850D01*
Y46243470D01*
X49038250D01*
Y46147270D01*
X49136300D01*
Y46253170D01*
X48771250D01*
Y46174270D01*
X48717250D01*
Y46223470D01*
X48668050D01*
Y46253170D01*
X48614050D01*
Y46223470D01*
X48564850D01*
Y46174270D01*
X48510850D01*
Y46253170D01*
X46698410D01*
G75*
G02*
X46690960Y46244360I-75470J56260D01*
G01*
G75*
G02*
X46713090Y46206360I-68170J-65150D01*
G01*
X46652560D01*
G75*
G03*
X46650050Y46208870I-32750J-30240D01*
G01*
Y46219320D01*
Y46253170D01*
X46596050D01*
Y46219320D01*
Y46208870D01*
G75*
G03*
X46593540Y46206360I24980J-27490D01*
G01*
X46533010D01*
G75*
G02*
X46555140Y46244360I90030J-26990D01*
G01*
G75*
G02*
X46547680Y46253170I67750J64930D01*
G01*
X46122720D01*
G75*
G02*
X46118260Y46247770I-74820J57260D01*
G01*
G75*
G02*
X46138090Y46212270I-70550J-62690D01*
G01*
X46077560D01*
G75*
G03*
X46075050Y46214780I-32750J-30240D01*
G01*
Y46220230D01*
Y46253170D01*
X46021050D01*
Y46220230D01*
Y46214780D01*
G75*
G03*
X46018540Y46212270I24980J-27490D01*
G01*
X45958010D01*
G75*
G02*
X45977840Y46247770I90050J-27010D01*
G01*
G75*
G02*
X45973380Y46253170I70060J62410D01*
G01*
X45536800D01*
Y46235570D01*
X45344400D01*
Y46253170D01*
X45316800D01*
Y46201570D01*
X45213600D01*
Y46253170D01*
X45159600D01*
Y46201570D01*
X45056400D01*
Y46253170D01*
X44771300D01*
G37*
X42303700Y46331500D02*
G36*
X42303700Y46331500D02*
Y46253170D01*
X44641850D01*
Y46331500D01*
X42937610D01*
G75*
G02*
X42927550Y46329020I-37070J128750D01*
G01*
Y46331500D01*
X42873550D01*
Y46329020D01*
G75*
G02*
X42863470Y46331500I26920J131130D01*
G01*
X42762620D01*
G75*
G02*
X42752550Y46329020I-37050J128760D01*
G01*
Y46331500D01*
X42698550D01*
Y46329020D01*
G75*
G02*
X42688470Y46331500I26950J131250D01*
G01*
X42303700D01*
G37*
X44701850D02*
G36*
X44701850Y46331500D02*
Y46253170D01*
X44711300D01*
Y46331500D01*
X44701850D01*
G37*
X44771300D02*
G36*
X44771300Y46331500D02*
Y46253170D01*
X45056400D01*
Y46304770D01*
X45110400D01*
Y46255570D01*
X45159600D01*
Y46253170D01*
X45213600D01*
Y46255570D01*
X45262800D01*
Y46304770D01*
X45316800D01*
Y46253170D01*
X45344400D01*
Y46331500D01*
X44771300D01*
G37*
X45536800D02*
G36*
X45536800Y46331500D02*
Y46253170D01*
X45973380D01*
G75*
G02*
X45958010Y46283270I74510J57020D01*
G01*
X46018540D01*
G75*
G03*
X46021050Y46280760I23740J21230D01*
G01*
Y46275310D01*
Y46253170D01*
X46075050D01*
Y46275310D01*
Y46280760D01*
G75*
G03*
X46077560Y46283270I-24980J27490D01*
G01*
X46138090D01*
G75*
G02*
X46122720Y46253170I-90190J27080D01*
G01*
X46547680D01*
G75*
G02*
X46533010Y46282360I75210J56080D01*
G01*
X46593540D01*
G75*
G03*
X46596050Y46279850I23740J21230D01*
G01*
Y46269400D01*
Y46253170D01*
X46650050D01*
Y46269400D01*
Y46279850D01*
G75*
G03*
X46652560Y46282360I-24980J27490D01*
G01*
X46713090D01*
G75*
G02*
X46698410Y46253170I-90150J27050D01*
G01*
X48510850D01*
Y46277470D01*
X48614050D01*
Y46253170D01*
X48668050D01*
Y46277470D01*
X48771250D01*
Y46253170D01*
X49136300D01*
Y46331500D01*
X49038250D01*
Y46305070D01*
X48845850D01*
Y46331500D01*
X48737250D01*
Y46305070D01*
X48544850D01*
Y46331500D01*
X46592360D01*
G75*
G02*
X46545800Y46299980I-73590J58560D01*
G01*
Y46331500D01*
X46491800D01*
Y46299980D01*
G75*
G02*
X46458800Y46317660I26980J90000D01*
G01*
G75*
G02*
X46425800Y46299980I-60090J72530D01*
G01*
Y46331500D01*
X46371800D01*
Y46299980D01*
G75*
G02*
X46336300Y46319810I26910J89870D01*
G01*
G75*
G02*
X46300800Y46299980I-62510J70220D01*
G01*
Y46331500D01*
X46246800D01*
Y46299980D01*
G75*
G02*
X46211300Y46319810I26910J89870D01*
G01*
G75*
G02*
X46175800Y46299980I-62510J70220D01*
G01*
Y46331500D01*
X46121800D01*
Y46299980D01*
G75*
G02*
X46075230Y46331500I26990J90040D01*
G01*
X45536800D01*
G37*
X42303700Y46368790D02*
G36*
X42303700Y46368790D02*
Y46331500D01*
X42688470D01*
G75*
G02*
X42627620Y46368790I37030J128710D01*
G01*
X42303700D01*
G37*
X42698550D02*
G36*
X42698550Y46368790D02*
Y46331500D01*
X42752550D01*
Y46368790D01*
X42698550D01*
G37*
X42813050Y46358780D02*
G36*
X42813050Y46358780D02*
G75*
G02*
X42762620Y46331500I-87480J101460D01*
G01*
X42863470D01*
G75*
G02*
X42813050Y46358780I36990J128610D01*
G01*
G37*
X42873550Y46368790D02*
G36*
X42873550Y46368790D02*
Y46331500D01*
X42927550D01*
Y46368790D01*
X42873550D01*
G37*
X42998460D02*
G36*
X42998460Y46368790D02*
G75*
G02*
X42937610Y46331500I-97920J91500D01*
G01*
X44641850D01*
Y46368790D01*
X43915550D01*
Y46362770D01*
G75*
G02*
X43900550Y46347770I-15000J0D01*
G01*
X43825550D01*
G75*
G02*
X43810550Y46362760I0J14990D01*
G01*
G75*
G02*
Y46362770I13020J10D01*
G01*
Y46368790D01*
X42998460D01*
G37*
X44701850D02*
G36*
X44701850Y46368790D02*
Y46331500D01*
X44711300D01*
Y46368790D01*
X44701850D01*
G37*
X44771300D02*
G36*
X44771300Y46368790D02*
Y46331500D01*
X45344400D01*
Y46368790D01*
X45316800D01*
Y46358770D01*
X45262800D01*
Y46368790D01*
X45110400D01*
Y46358770D01*
X45056400D01*
Y46368790D01*
X44771300D01*
G37*
X45536800D02*
G36*
X45536800Y46368790D02*
Y46331500D01*
X46075230D01*
G75*
G02*
X46058760Y46363020I73560J58500D01*
G01*
X46075050D01*
Y46368790D01*
X46021050D01*
Y46339780D01*
G75*
G03*
X46018540Y46337270I24980J-27490D01*
G01*
X45958010D01*
G75*
G02*
X45974490Y46368790I90070J-27030D01*
G01*
X45536800D01*
G37*
X46121800Y46337270D02*
G36*
X46121800Y46337270D02*
Y46331500D01*
X46175800D01*
Y46360510D01*
G75*
G03*
X46178310Y46363020I-24980J27490D01*
G01*
X46183760D01*
X46238840D01*
X46244290D01*
G75*
G03*
X46246800Y46360510I23740J21230D01*
G01*
Y46331500D01*
X46300800D01*
Y46360510D01*
G75*
G03*
X46303310Y46363020I-24980J27490D01*
G01*
X46308760D01*
X46363840D01*
X46369290D01*
G75*
G03*
X46371800Y46360510I23740J21230D01*
G01*
Y46331500D01*
X46425800D01*
Y46360510D01*
G75*
G03*
X46428310Y46363020I-24980J27490D01*
G01*
X46428760D01*
X46488840D01*
X46489290D01*
G75*
G03*
X46491800Y46360510I23740J21230D01*
G01*
Y46331500D01*
X46545800D01*
Y46336360D01*
X46533010D01*
G75*
G02*
X46550230Y46368790I90080J-27040D01*
G01*
X46121600D01*
G75*
G02*
X46138090Y46337270I-73630J-58590D01*
G01*
X46121800D01*
G37*
X46596050Y46368790D02*
G36*
X46596050Y46368790D02*
Y46363020D01*
X46608840D01*
G75*
G02*
X46592360Y46331500I-90070J27030D01*
G01*
X48544850D01*
Y46368790D01*
X46695870D01*
G75*
G02*
X46713090Y46336360I-72890J-59490D01*
G01*
X46652560D01*
G75*
G03*
X46650050Y46338870I-32750J-30240D01*
G01*
Y46368790D01*
X46596050D01*
G37*
X48737250D02*
G36*
X48737250Y46368790D02*
Y46331500D01*
X48845850D01*
Y46368790D01*
X48737250D01*
G37*
X49038250D02*
G36*
X49038250Y46368790D02*
Y46331500D01*
X49136300D01*
Y46368790D01*
X49038250D01*
G37*
X42303700Y46401270D02*
G36*
X42303700Y46401270D02*
Y46368790D01*
X42627620D01*
G75*
G02*
X42605230Y46401270I97880J91430D01*
G01*
X42303700D01*
G37*
X42698550Y46384960D02*
G36*
X42698550Y46384960D02*
Y46368790D01*
X42752550D01*
Y46384960D01*
G75*
G03*
X42779590Y46401270I-26880J75130D01*
G01*
X42671500D01*
G75*
G03*
X42698550Y46384960I53960J58910D01*
G01*
G37*
X42873550D02*
G36*
X42873550Y46384960D02*
Y46368790D01*
X42927550D01*
Y46384960D01*
G75*
G03*
X42954580Y46401270I-27020J75330D01*
G01*
X42846510D01*
G75*
G03*
X42873550Y46384960I53780J58600D01*
G01*
G37*
X43019630Y46398820D02*
G36*
X43019630Y46398820D02*
G75*
G02*
X42998460Y46368790I-119090J61480D01*
G01*
X43810550D01*
Y46401270D01*
X43127070D01*
G75*
G02*
X43097550Y46391520I-56500J121490D01*
G01*
Y46401270D01*
X43043550D01*
Y46391520D01*
G75*
G02*
X43019630Y46398820I26950J131150D01*
G01*
G37*
X43915550Y46401270D02*
G36*
X43915550Y46401270D02*
Y46368790D01*
X44641850D01*
Y46401270D01*
X43915550D01*
G37*
X44701850D02*
G36*
X44701850Y46401270D02*
Y46368790D01*
X44711300D01*
Y46401270D01*
X44701850D01*
G37*
X44771300D02*
G36*
X44771300Y46401270D02*
Y46368790D01*
X45056400D01*
Y46401270D01*
X44771300D01*
G37*
X45110400D02*
G36*
X45110400Y46401270D02*
Y46368790D01*
X45262800D01*
Y46401270D01*
X45110400D01*
G37*
X45316800D02*
G36*
X45316800Y46401270D02*
Y46368790D01*
X45344400D01*
Y46401270D01*
X45316800D01*
G37*
X45536800D02*
G36*
X45536800Y46401270D02*
Y46368790D01*
X45974490D01*
G75*
G02*
X46021050Y46400310I73590J-58560D01*
G01*
Y46368790D01*
X46075050D01*
Y46400310D01*
G75*
G02*
X46121600Y46368790I-27070J-90120D01*
G01*
X46550230D01*
G75*
G02*
X46596050Y46399400I72860J-59460D01*
G01*
Y46368790D01*
X46650050D01*
Y46399400D01*
G75*
G02*
X46695870Y46368790I-27070J-90120D01*
G01*
X48544850D01*
Y46401270D01*
X47623300D01*
Y46395270D01*
G75*
G02*
X47608300Y46380270I-15000J0D01*
G01*
X47553300D01*
G75*
G02*
X47538300Y46395260I0J14990D01*
G01*
G75*
G02*
Y46395270I13020J10D01*
G01*
Y46401270D01*
X45536800D01*
G37*
X48737250D02*
G36*
X48737250Y46401270D02*
Y46368790D01*
X48845850D01*
Y46401270D01*
X48737250D01*
G37*
X49038250D02*
G36*
X49038250Y46401270D02*
Y46368790D01*
X49136300D01*
Y46401270D01*
X49038250D01*
G37*
X42303700Y46448540D02*
G36*
X42303700Y46448540D02*
Y46401270D01*
X42605230D01*
G75*
G02*
X42594300Y46433270I120270J58950D01*
G01*
X42650240D01*
G75*
G03*
X42671500Y46401270I75220J26910D01*
G01*
X42779590D01*
G75*
G03*
X42780040Y46401690I-53970J58280D01*
G01*
G75*
G02*
X42769300Y46433270I119930J58400D01*
G01*
X42800860D01*
X42825240D01*
X42856800D01*
G75*
G02*
X42846060Y46401690I-131820J27220D01*
G01*
G75*
G03*
X42846510Y46401270I54300J57730D01*
G01*
X42954580D01*
G75*
G03*
X42974380Y46429460I-54050J59010D01*
G01*
G75*
G02*
X42958980Y46448540I95970J93220D01*
G01*
X42303700D01*
G37*
X43043550Y46447460D02*
G36*
X43043550Y46447460D02*
Y46401270D01*
X43097550D01*
Y46447460D01*
G75*
G03*
X43100390Y46448540I-26970J75210D01*
G01*
X43040700D01*
G75*
G03*
X43043550Y46447460I29770J74250D01*
G01*
G37*
X43182120Y46448540D02*
G36*
X43182120Y46448540D02*
G75*
G02*
X43127070Y46401270I-111540J74210D01*
G01*
X43810550D01*
Y46417770D01*
G75*
G02*
X43825550Y46432770I15000J0D01*
G01*
X43900550D01*
G75*
G02*
X43915550Y46417770I0J-15000D01*
G01*
Y46401270D01*
X44641850D01*
Y46448540D01*
X43182120D01*
G37*
X44701850D02*
G36*
X44701850Y46448540D02*
Y46401270D01*
X44711300D01*
Y46448540D01*
X44701850D01*
G37*
X44771300D02*
G36*
X44771300Y46448540D02*
Y46401270D01*
X45056400D01*
Y46448540D01*
X44771300D01*
G37*
X45110400Y46407970D02*
G36*
X45110400Y46407970D02*
Y46401270D01*
X45262800D01*
Y46407970D01*
X45213600D01*
Y46448540D01*
X45159600D01*
Y46407970D01*
X45110400D01*
G37*
X45316800Y46448540D02*
G36*
X45316800Y46448540D02*
Y46401270D01*
X45344400D01*
Y46427970D01*
X45536800D01*
Y46401270D01*
X47538300D01*
Y46448540D01*
X46592350D01*
G75*
G02*
X46608840Y46417020I-73630J-58590D01*
G01*
X46548310D01*
G75*
G03*
X46545800Y46419530I-32750J-30240D01*
G01*
Y46448540D01*
X46491800D01*
Y46419530D01*
G75*
G03*
X46489290Y46417020I24980J-27490D01*
G01*
X46488840D01*
X46428760D01*
X46428310D01*
G75*
G03*
X46425800Y46419530I-32750J-30240D01*
G01*
Y46448540D01*
X46371800D01*
Y46419530D01*
G75*
G03*
X46369290Y46417020I24980J-27490D01*
G01*
X46363840D01*
X46308760D01*
X46303310D01*
G75*
G03*
X46300800Y46419530I-32750J-30240D01*
G01*
Y46448540D01*
X46246800D01*
Y46419530D01*
G75*
G03*
X46244290Y46417020I24980J-27490D01*
G01*
X46238840D01*
X46183760D01*
X46178310D01*
G75*
G03*
X46175800Y46419530I-32750J-30240D01*
G01*
Y46448540D01*
X46121800D01*
Y46419530D01*
G75*
G03*
X46119290Y46417020I24980J-27490D01*
G01*
X46058760D01*
G75*
G02*
X46075240Y46448540I90070J-27030D01*
G01*
X45316800D01*
G37*
X47623300D02*
G36*
X47623300Y46448540D02*
Y46401270D01*
X48544850D01*
Y46448540D01*
X47623300D01*
G37*
X48737250D02*
G36*
X48737250Y46448540D02*
Y46401270D01*
X48845850D01*
Y46448540D01*
X48737250D01*
G37*
X49038250D02*
G36*
X49038250Y46448540D02*
Y46401270D01*
X49136300D01*
Y46448540D01*
X49038250D01*
G37*
X42303700Y46485770D02*
G36*
X42303700Y46485770D02*
Y46448540D01*
X42958980D01*
G75*
G02*
X42941760Y46485770I111370J74110D01*
G01*
X42303700D01*
G37*
X42999610D02*
G36*
X42999610Y46485770D02*
G75*
G03*
X43040700Y46448540I70840J36900D01*
G01*
X43100390D01*
G75*
G03*
X43141490Y46485770I-29800J74200D01*
G01*
X42999610D01*
G37*
X43199340D02*
G36*
X43199340Y46485770D02*
G75*
G02*
X43182120Y46448540I-128770J36960D01*
G01*
X44641850D01*
Y46485770D01*
X44315210D01*
G75*
G02*
X44272900Y46458770I-42310J19660D01*
G01*
X44260050D01*
Y46485770D01*
X44206050D01*
Y46458770D01*
X44193200D01*
G75*
G02*
X44165550Y46467850I-60J46440D01*
G01*
G75*
G02*
X44137900Y46458770I-27600J37420D01*
G01*
X44125050D01*
Y46485770D01*
X44071050D01*
Y46458770D01*
X44058200D01*
G75*
G02*
X44015890Y46485770I-10J46640D01*
G01*
X43199340D01*
G37*
X44701850D02*
G36*
X44701850Y46485770D02*
Y46448540D01*
X44711300D01*
Y46485770D01*
X44701850D01*
G37*
X44771300D02*
G36*
X44771300Y46485770D02*
Y46448540D01*
X45056400D01*
Y46461970D01*
X45159600D01*
Y46448540D01*
X45213600D01*
Y46461970D01*
X45316800D01*
Y46448540D01*
X46075240D01*
G75*
G02*
X46121800Y46480060I73590J-58560D01*
G01*
Y46448540D01*
X46175800D01*
Y46480060D01*
G75*
G02*
X46211300Y46460230I-27190J-90380D01*
G01*
G75*
G02*
X46246800Y46480060I62590J-70370D01*
G01*
Y46448540D01*
X46300800D01*
Y46480060D01*
G75*
G02*
X46336300Y46460230I-27190J-90380D01*
G01*
G75*
G02*
X46371800Y46480060I62590J-70370D01*
G01*
Y46448540D01*
X46425800D01*
Y46480060D01*
G75*
G02*
X46458800Y46462380I-27300J-90600D01*
G01*
G75*
G02*
X46491800Y46480060I60190J-72710D01*
G01*
Y46448540D01*
X46545800D01*
Y46480060D01*
G75*
G02*
X46592350Y46448540I-27070J-90120D01*
G01*
X47538300D01*
Y46470270D01*
G75*
G02*
X47553300Y46485270I15000J0D01*
G01*
X47608300D01*
G75*
G02*
X47623300Y46470270I0J-15000D01*
G01*
Y46448540D01*
X48544850D01*
Y46485770D01*
X44771300D01*
G37*
X48737250D02*
G36*
X48737250Y46485770D02*
Y46448540D01*
X48845850D01*
Y46485770D01*
X48737250D01*
G37*
X49038250D02*
G36*
X49038250Y46485770D02*
Y46448540D01*
X49136300D01*
Y46485770D01*
X49038250D01*
G37*
X42303700Y46539390D02*
G36*
X42303700Y46539390D02*
Y46485770D01*
X42941760D01*
G75*
G02*
X42939300Y46495770I128600J36940D01*
G01*
X42972250D01*
G75*
G03*
X42927550Y46535580I-71740J-35550D01*
G01*
Y46539390D01*
X42873550D01*
Y46535580D01*
G75*
G03*
X42846060Y46518850I26960J-75250D01*
G01*
G75*
G02*
X42856800Y46487270I-121480J-58930D01*
G01*
X42825240D01*
X42800860D01*
X42769300D01*
G75*
G02*
X42780040Y46518850I131060J-26950D01*
G01*
G75*
G03*
X42752550Y46535580I-54580J-58740D01*
G01*
Y46539390D01*
X42698550D01*
Y46535580D01*
G75*
G03*
X42650240Y46487270I26960J-75270D01*
G01*
X42594300D01*
G75*
G02*
X42617400Y46539390I131230J-26980D01*
G01*
X42303700D01*
G37*
X42998850Y46487270D02*
G36*
X42998850Y46487270D02*
G75*
G03*
X42999610Y46485770I71640J35360D01*
G01*
X43141490D01*
G75*
G03*
X43145860Y46495770I-70900J36940D01*
G01*
X43201800D01*
G75*
G02*
X43199340Y46485770I-131240J26980D01*
G01*
X44015890D01*
G75*
G02*
X44011550Y46505410I42310J19650D01*
G01*
G75*
G02*
Y46505420I40930J10D01*
G01*
Y46512770D01*
X44071050D01*
Y46485770D01*
X44125050D01*
Y46512770D01*
X44146550D01*
X44184550D01*
X44206050D01*
Y46485770D01*
X44260050D01*
Y46512770D01*
X44319550D01*
Y46505420D01*
G75*
G02*
X44315210Y46485770I-46650J0D01*
G01*
X44641850D01*
Y46539390D01*
X43895090D01*
G75*
G02*
X43872900Y46533770I-22200J41030D01*
G01*
X43865550D01*
Y46539390D01*
X43820550D01*
Y46533770D01*
X43813200D01*
G75*
G02*
X43790990Y46539390I-20J46620D01*
G01*
X43765100D01*
G75*
G02*
X43742900Y46533770I-22200J41040D01*
G01*
X43735550D01*
Y46539390D01*
X43690550D01*
Y46533770D01*
X43683200D01*
G75*
G02*
X43660990Y46539390I-10J46650D01*
G01*
X43008690D01*
G75*
G02*
X43031800Y46487270I-108240J-79180D01*
G01*
X42998850D01*
G37*
X44701850Y46539390D02*
G36*
X44701850Y46539390D02*
Y46485770D01*
X44711300D01*
Y46539390D01*
X44701850D01*
G37*
X44771300D02*
G36*
X44771300Y46539390D02*
Y46485770D01*
X48544850D01*
Y46497470D01*
X48737250D01*
Y46485770D01*
X48845850D01*
Y46497470D01*
X49038250D01*
Y46485770D01*
X49136300D01*
Y46539390D01*
X45536800D01*
Y46489570D01*
X45344400D01*
Y46539390D01*
X45282800D01*
Y46489570D01*
X45090400D01*
Y46539390D01*
X44771300D01*
G37*
X42303700Y46601890D02*
G36*
X42303700Y46601890D02*
Y46539390D01*
X42617400D01*
G75*
G02*
X42698550Y46591520I108130J-79100D01*
G01*
Y46539390D01*
X42752550D01*
Y46591520D01*
G75*
G02*
X42813050Y46561760I-27100J-131470D01*
G01*
G75*
G02*
X42873550Y46591520I87540J-101580D01*
G01*
Y46539390D01*
X42927550D01*
Y46591520D01*
G75*
G02*
X42951470Y46584220I-27800J-133930D01*
G01*
G75*
G02*
X42962400Y46601890I119110J-61460D01*
G01*
X42303700D01*
G37*
X42996720Y46553580D02*
G36*
X42996720Y46553580D02*
G75*
G02*
X43008690Y46539390I-96270J-93360D01*
G01*
X43660990D01*
G75*
G02*
X43636550Y46580410I22200J41020D01*
G01*
G75*
G02*
Y46580420I40930J10D01*
G01*
Y46593270D01*
X43690550D01*
Y46539390D01*
X43735550D01*
Y46593270D01*
X43766550D01*
X43789550D01*
X43820550D01*
Y46539390D01*
X43865550D01*
Y46593270D01*
X43919550D01*
Y46580420D01*
G75*
G02*
X43895090Y46539390I-46660J10D01*
G01*
X44641850D01*
Y46584770D01*
G75*
G03*
X44632610Y46601890I-20520J-20D01*
G01*
X44596850D01*
G75*
G02*
X44583050Y46592770I-13800J5880D01*
G01*
X44508050D01*
G75*
G02*
X44494260Y46601890I-20J14950D01*
G01*
X44359420D01*
G75*
G02*
X44319550Y46559250I-46520J3540D01*
G01*
Y46557770D01*
X44260050D01*
Y46558770D01*
X44253200D01*
G75*
G02*
X44206680Y46601890I-10J46640D01*
G01*
X44206050D01*
Y46557770D01*
X44184550D01*
X44146550D01*
X44125050D01*
Y46601890D01*
X44071050D01*
Y46557770D01*
X44011550D01*
Y46565120D01*
G75*
G02*
X44029490Y46601890I46650J0D01*
G01*
X43178690D01*
G75*
G02*
X43201800Y46549770I-108150J-79140D01*
G01*
X43145860D01*
G75*
G03*
X43097550Y46598080I-75320J-27010D01*
G01*
Y46601890D01*
X43043550D01*
Y46598080D01*
G75*
G03*
X42996720Y46553580I27020J-75330D01*
G01*
G37*
X43778050Y46549750D02*
G36*
X43778050Y46549750D02*
G75*
G02*
X43765100Y46539390I-35150J30660D01*
G01*
X43790990D01*
G75*
G02*
X43778050Y46549750I22190J40980D01*
G01*
G37*
X44301600Y46601890D02*
G36*
X44301600Y46601890D02*
G75*
G02*
X44305550Y46598440I-28750J-36910D01*
G01*
Y46601890D01*
X44301600D01*
G37*
X44701850Y46584770D02*
G36*
X44701850Y46584770D02*
Y46539390D01*
X44711300D01*
Y46601890D01*
X44700010D01*
G75*
G02*
X44701850Y46584770I-78670J-17110D01*
G01*
G37*
X44771300Y46601890D02*
G36*
X44771300Y46601890D02*
Y46539390D01*
X45090400D01*
Y46601890D01*
X44771300D01*
G37*
X45282800D02*
G36*
X45282800Y46601890D02*
Y46539390D01*
X45344400D01*
Y46601890D01*
X45282800D01*
G37*
X45536800D02*
G36*
X45536800Y46601890D02*
Y46539390D01*
X49136300D01*
Y46601890D01*
X49038250D01*
Y46559070D01*
X48845850D01*
Y46601890D01*
X48737250D01*
Y46559070D01*
X48544850D01*
Y46601890D01*
X45536800D01*
G37*
X42303700Y46655270D02*
G36*
X42303700Y46655270D02*
Y46601890D01*
X42962400D01*
G75*
G02*
X43043550Y46654020I108170J-79160D01*
G01*
Y46601890D01*
X43097550D01*
Y46654020D01*
G75*
G02*
X43178690Y46601890I-27010J-131250D01*
G01*
X44029490D01*
G75*
G02*
X44058200Y46611770I28710J-36780D01*
G01*
X44071050D01*
Y46601890D01*
X44125050D01*
Y46611770D01*
X44137900D01*
G75*
G02*
X44165550Y46602690I-10J-46680D01*
G01*
G75*
G02*
X44193200Y46611770I27640J-37540D01*
G01*
X44206050D01*
Y46601890D01*
X44206680D01*
G75*
G02*
X44206550Y46605410I46530J3480D01*
G01*
G75*
G02*
Y46605420I40930J10D01*
G01*
Y46618270D01*
X44260550D01*
Y46611770D01*
X44272900D01*
G75*
G02*
X44301600Y46601890I-50J-46770D01*
G01*
X44305550D01*
Y46618270D01*
X44359550D01*
Y46605420D01*
G75*
G02*
X44359420Y46601890I-46660J-50D01*
G01*
X44494260D01*
G75*
G02*
X44493070Y46607720I13760J5840D01*
G01*
G75*
G02*
Y46607770I16460J30D01*
G01*
X44493050Y46655270D01*
X43919550D01*
Y46647270D01*
X43865550D01*
Y46655270D01*
X43820550D01*
Y46647270D01*
X43789550D01*
X43766550D01*
X43735550D01*
Y46655270D01*
X43690550D01*
Y46647270D01*
X43636550D01*
Y46655270D01*
X42303700D01*
G37*
X44597840Y46605270D02*
G36*
X44597840Y46605270D02*
G75*
G02*
X44596850Y46601890I-14790J2500D01*
G01*
X44632610D01*
G75*
G03*
X44621350Y46605270I-11280J-17140D01*
G01*
X44597840D01*
G37*
X44660200Y46655270D02*
G36*
X44660200Y46655270D02*
G75*
G02*
X44700010Y46601890I-38860J-70510D01*
G01*
X44711300D01*
Y46655270D01*
X44660200D01*
G37*
X44771300D02*
G36*
X44771300Y46655270D02*
Y46601890D01*
X45090400D01*
Y46655270D01*
X44771300D01*
G37*
X45282800D02*
G36*
X45282800Y46655270D02*
Y46601890D01*
X45344400D01*
Y46655270D01*
X45282800D01*
G37*
X45536800D02*
G36*
X45536800Y46655270D02*
Y46601890D01*
X48544850D01*
Y46655270D01*
X47623300D01*
Y46645270D01*
G75*
G02*
X47608300Y46630270I-15000J0D01*
G01*
X47553300D01*
G75*
G02*
X47538300Y46645260I0J14990D01*
G01*
G75*
G02*
Y46645270I13020J10D01*
G01*
Y46655270D01*
X45536800D01*
G37*
X48737250D02*
G36*
X48737250Y46655270D02*
Y46601890D01*
X48845850D01*
Y46655270D01*
X48737250D01*
G37*
X49038250D02*
G36*
X49038250Y46655270D02*
Y46601890D01*
X49136300D01*
Y46655270D01*
X49038250D01*
G37*
X42303700Y46702020D02*
G36*
X42303700Y46702020D02*
Y46655270D01*
X43636550D01*
Y46660120D01*
G75*
G02*
X43662700Y46702020I46660J-10D01*
G01*
X42303700D01*
G37*
X43690550D02*
G36*
X43690550Y46702020D02*
Y46655270D01*
X43735550D01*
Y46702020D01*
X43690550D01*
G37*
X43763390D02*
G36*
X43763390Y46702020D02*
G75*
G02*
X43778050Y46690790I-20530J-41990D01*
G01*
G75*
G02*
X43792700Y46702020I35170J-30710D01*
G01*
X43763390D01*
G37*
X43820550D02*
G36*
X43820550Y46702020D02*
Y46655270D01*
X43865550D01*
Y46702020D01*
X43820550D01*
G37*
X43919550Y46660120D02*
G36*
X43919550Y46660120D02*
Y46655270D01*
X44493050D01*
Y46662770D01*
G75*
G02*
X44508050Y46677770I15000J0D01*
G01*
X44583050D01*
G75*
G02*
X44597840Y46665270I-20J-15020D01*
G01*
X44621350D01*
G75*
G02*
X44660200Y46655270I-10J-80500D01*
G01*
X44711300D01*
Y46702020D01*
X44597690D01*
G75*
G02*
X44583050Y46690270I-14650J3250D01*
G01*
X44508050D01*
G75*
G02*
X44493400Y46702020I-10J14990D01*
G01*
X44356370D01*
G75*
G02*
X44359550Y46685120I-43490J-16930D01*
G01*
Y46672270D01*
X44305550D01*
Y46702020D01*
X44260550D01*
Y46672270D01*
X44206550D01*
Y46685120D01*
G75*
G02*
X44209720Y46702020I46660J0D01*
G01*
X43893390D01*
G75*
G02*
X43919550Y46660120I-20510J-41920D01*
G01*
G37*
X44771300Y46702020D02*
G36*
X44771300Y46702020D02*
Y46655270D01*
X45090400D01*
Y46681970D01*
X45282800D01*
Y46655270D01*
X45344400D01*
Y46681970D01*
X45536800D01*
Y46655270D01*
X47538300D01*
Y46702020D01*
X45693050D01*
Y46677770D01*
G75*
G02*
X45678050Y46662770I-15000J0D01*
G01*
X45603050D01*
G75*
G02*
X45588050Y46677760I0J14990D01*
G01*
G75*
G02*
Y46677770I13020J10D01*
G01*
Y46702020D01*
X44771300D01*
G37*
X47623300D02*
G36*
X47623300Y46702020D02*
Y46655270D01*
X48544850D01*
Y46702020D01*
X47623300D01*
G37*
X48737250D02*
G36*
X48737250Y46702020D02*
Y46655270D01*
X48845850D01*
Y46702020D01*
X48737250D01*
G37*
X49038250D02*
G36*
X49038250Y46702020D02*
Y46655270D01*
X49136300D01*
Y46702020D01*
X49038250D01*
G37*
X42303700Y46839770D02*
G36*
X42303700Y46839770D02*
Y46702020D01*
X43662700D01*
G75*
G02*
X43683200Y46706770I20510J-41900D01*
G01*
X43690550D01*
Y46702020D01*
X43735550D01*
Y46706770D01*
X43742900D01*
G75*
G02*
X43763390Y46702020I-40J-46750D01*
G01*
X43792700D01*
G75*
G02*
X43813200Y46706770I20520J-41960D01*
G01*
X43820550D01*
Y46702020D01*
X43865550D01*
Y46706770D01*
X43872900D01*
G75*
G02*
X43893390Y46702020I-20J-46670D01*
G01*
X44209720D01*
G75*
G02*
X44253200Y46731770I43490J-16910D01*
G01*
X44260550D01*
Y46702020D01*
X44305550D01*
Y46731770D01*
X44312900D01*
G75*
G02*
X44356370Y46702020I-20J-46670D01*
G01*
X44493400D01*
G75*
G02*
X44493050Y46705260I14640J3220D01*
G01*
G75*
G02*
Y46705270I13020J10D01*
G01*
Y46760270D01*
G75*
G02*
X44508050Y46775270I15000J0D01*
G01*
X44583050D01*
G75*
G02*
X44598050Y46760270I0J-15000D01*
G01*
Y46705270D01*
G75*
G02*
X44597690Y46702020I-15010J20D01*
G01*
X44711300D01*
Y46784350D01*
X44699630Y46796020D01*
X44597840D01*
G75*
G02*
X44583050Y46783520I-14790J2500D01*
G01*
X44508050D01*
G75*
G02*
X44493050Y46798510I0J14990D01*
G01*
G75*
G02*
Y46798520I13020J10D01*
G01*
Y46839770D01*
X42303700D01*
G37*
X44771300Y46796770D02*
G36*
X44771300Y46796770D02*
Y46702020D01*
X45588050D01*
Y46732770D01*
G75*
G02*
X45603050Y46747770I15000J0D01*
G01*
X45678050D01*
G75*
G02*
X45693050Y46732770I0J-15000D01*
G01*
Y46702020D01*
X47538300D01*
Y46720270D01*
G75*
G02*
X47553300Y46735270I15000J0D01*
G01*
X47608300D01*
G75*
G02*
X47623300Y46720270I0J-15000D01*
G01*
Y46702020D01*
X48544850D01*
Y46751470D01*
X48737250D01*
Y46702020D01*
X48845850D01*
Y46751470D01*
X49038250D01*
Y46702020D01*
X49136300D01*
Y46839770D01*
X45536800D01*
Y46743570D01*
X45344400D01*
Y46839770D01*
X45282800D01*
Y46743570D01*
X45090400D01*
Y46839770D01*
X44752800D01*
G75*
G02*
X44771300Y46796770I-40770J-43020D01*
G01*
G37*
X42303700Y46977770D02*
G36*
X42303700Y46977770D02*
Y46839770D01*
X44493050D01*
Y46853520D01*
G75*
G02*
X44508050Y46868520I15000J0D01*
G01*
X44583050D01*
G75*
G02*
X44597840Y46856020I-20J-15020D01*
G01*
X44712050D01*
G75*
G02*
X44752800Y46839770I-20J-59270D01*
G01*
X45090400D01*
Y46935970D01*
X45282800D01*
Y46839770D01*
X45344400D01*
Y46935970D01*
X45536800D01*
Y46839770D01*
X49136300D01*
Y46857740D01*
X49016270Y46977770D01*
X47340550D01*
Y46940270D01*
G75*
G02*
X47325550Y46925270I-15000J0D01*
G01*
X47270550D01*
G75*
G02*
X47255550Y46940260I0J14990D01*
G01*
G75*
G02*
Y46940270I13020J10D01*
G01*
Y46977770D01*
X47220550D01*
Y46940270D01*
G75*
G02*
X47205550Y46925270I-15000J0D01*
G01*
X47150550D01*
G75*
G02*
X47135550Y46940260I0J14990D01*
G01*
G75*
G02*
Y46940270I13020J10D01*
G01*
Y46977770D01*
X42303700D01*
G37*
Y47093770D02*
G36*
X42303700Y47093770D02*
Y46977770D01*
X47135550D01*
Y47015270D01*
G75*
G02*
X47150550Y47030270I15000J0D01*
G01*
X47205550D01*
G75*
G02*
X47220550Y47015270I0J-15000D01*
G01*
Y46977770D01*
X47255550D01*
Y47015270D01*
G75*
G02*
X47270550Y47030270I15000J0D01*
G01*
X47325550D01*
G75*
G02*
X47340550Y47015270I0J-15000D01*
G01*
Y46977770D01*
X49016270D01*
X48900270Y47093770D01*
X48735940D01*
G75*
G02*
X48658000Y47062100I-104930J146500D01*
G01*
Y47093770D01*
X48604000D01*
Y47062100D01*
G75*
G02*
X48526050Y47093770I26970J178140D01*
G01*
X47283050D01*
Y47057770D01*
G75*
G02*
X47268050Y47042770I-15000J0D01*
G01*
X47213050D01*
G75*
G02*
X47198050Y47057760I0J14990D01*
G01*
G75*
G02*
Y47057770I13020J10D01*
G01*
Y47093770D01*
X47158050D01*
Y47060270D01*
G75*
G02*
X47143050Y47045270I-15000J0D01*
G01*
X47088050D01*
G75*
G02*
X47073050Y47060260I0J14990D01*
G01*
G75*
G02*
Y47060270I13020J10D01*
G01*
Y47093770D01*
X45536800D01*
Y46997570D01*
X45344400D01*
Y47093770D01*
X45282800D01*
Y46997570D01*
X45090400D01*
Y47093770D01*
X42303700D01*
G37*
Y47226140D02*
G36*
X42303700Y47226140D02*
Y47093770D01*
X45090400D01*
Y47189970D01*
X45282800D01*
Y47093770D01*
X45344400D01*
Y47189970D01*
X45536800D01*
Y47093770D01*
X47073050D01*
Y47135270D01*
G75*
G02*
X47088050Y47150270I15000J0D01*
G01*
X47143050D01*
G75*
G02*
X47158050Y47135270I0J-15000D01*
G01*
Y47093770D01*
X47198050D01*
Y47132770D01*
G75*
G02*
X47213050Y47147770I15000J0D01*
G01*
X47268050D01*
G75*
G02*
X47283050Y47132770I0J-15000D01*
G01*
Y47093770D01*
X48526050D01*
G75*
G02*
X48452830Y47213270I104920J146470D01*
G01*
X48507720D01*
G75*
G03*
X48604000Y47116990I123270J26990D01*
G01*
Y47093770D01*
X48658000D01*
Y47116990D01*
G75*
G03*
X48754280Y47213270I-27020J123300D01*
G01*
X48809170D01*
G75*
G02*
X48735940Y47093770I-178160J26990D01*
G01*
X48900270D01*
X48886020Y47108020D01*
G75*
G02*
X48882300Y47116970I8900J8950D01*
G01*
G75*
G02*
Y47117000I12100J20D01*
G01*
Y47226140D01*
X43838950D01*
G75*
G02*
X43785050Y47184560I-80880J49120D01*
G01*
Y47226140D01*
X43731050D01*
Y47184560D01*
G75*
G02*
X43677150Y47226140I26940J90650D01*
G01*
X43169160D01*
G75*
G02*
X42981060Y47198150I-98610J16630D01*
G01*
G75*
G02*
X42927550Y47174020I-80380J106860D01*
G01*
Y47226140D01*
X42873550D01*
Y47174020D01*
G75*
G02*
X42813050Y47203780I26920J131090D01*
G01*
G75*
G02*
X42752550Y47174020I-87480J101460D01*
G01*
Y47226140D01*
X42698550D01*
Y47174020D01*
G75*
G02*
X42617400Y47226140I26950J131190D01*
G01*
X42303700D01*
G37*
Y47334120D02*
G36*
X42303700Y47334120D02*
Y47226140D01*
X42617400D01*
G75*
G02*
X42594300Y47278270I108100J79080D01*
G01*
X42650240D01*
G75*
G03*
X42698550Y47229960I75220J26910D01*
G01*
Y47226140D01*
X42752550D01*
Y47229960D01*
G75*
G03*
X42780040Y47246690I-26880J75110D01*
G01*
G75*
G02*
X42769300Y47278270I119930J58400D01*
G01*
X42800860D01*
X42825240D01*
X42856800D01*
G75*
G02*
X42846060Y47246690I-131820J27220D01*
G01*
G75*
G03*
X42873550Y47229960I54240J58170D01*
G01*
Y47226140D01*
X42927550D01*
Y47229960D01*
G75*
G03*
X42975860Y47278270I-26960J75270D01*
G01*
X42977060D01*
G75*
G02*
X43025940Y47332270I93480J-35500D01*
G01*
X42975860D01*
G75*
G03*
X42975170Y47334120I-75360J-27050D01*
G01*
X42856400D01*
G75*
G02*
X42856800Y47332270I-131960J-29500D01*
G01*
X42825240D01*
X42800860D01*
X42769300D01*
G75*
G02*
X42769690Y47334120I131220J-26700D01*
G01*
X42650930D01*
G75*
G03*
X42650240Y47332270I74610J-28880D01*
G01*
X42594300D01*
G75*
G02*
X42594690Y47334120I131380J-26730D01*
G01*
X42303700D01*
G37*
X43111200D02*
G36*
X43111200Y47334120D02*
G75*
G02*
X43170550Y47242770I-40670J-91370D01*
G01*
G75*
G02*
X43169160Y47226140I-100030J-10D01*
G01*
X43677150D01*
G75*
G02*
X43667340Y47248270I80840J49080D01*
G01*
X43727680D01*
G75*
G03*
X43731050Y47244900I27470J24100D01*
G01*
Y47226140D01*
X43785050D01*
Y47244900D01*
G75*
G03*
X43788420Y47248270I-26690J30060D01*
G01*
X43848760D01*
G75*
G02*
X43838950Y47226140I-90690J26960D01*
G01*
X48882300D01*
Y47334120D01*
X48784830D01*
G75*
G02*
X48809170Y47267270I-153850J-93870D01*
G01*
X48754280D01*
G75*
G03*
X48715360Y47334120I-123330J-27050D01*
G01*
X48546630D01*
G75*
G03*
X48507720Y47267270I84390J-93870D01*
G01*
X48452830D01*
G75*
G02*
X48477160Y47334120I178170J-26990D01*
G01*
X43832170D01*
G75*
G02*
X43848760Y47302270I-74140J-58870D01*
G01*
X43788420D01*
G75*
G03*
X43785050Y47305640I-33210J-29840D01*
G01*
Y47334120D01*
X43731050D01*
Y47305640D01*
G75*
G03*
X43727680Y47302270I26690J-30060D01*
G01*
X43667340D01*
G75*
G02*
X43683920Y47334120I90690J-26970D01*
G01*
X43111200D01*
G37*
X42303700Y47384390D02*
G36*
X42303700Y47384390D02*
Y47334120D01*
X42594690D01*
G75*
G02*
X42617400Y47384390I130840J-28840D01*
G01*
X42303700D01*
G37*
X42698550Y47380580D02*
G36*
X42698550Y47380580D02*
G75*
G03*
X42650930Y47334120I26960J-75270D01*
G01*
X42769690D01*
G75*
G02*
X42780040Y47363850I130670J-28820D01*
G01*
G75*
G03*
X42752550Y47380580I-54580J-58740D01*
G01*
Y47384390D01*
X42698550D01*
Y47380580D01*
G37*
X42846060Y47363850D02*
G36*
X42846060Y47363850D02*
G75*
G02*
X42856400Y47334120I-121480J-58910D01*
G01*
X42975170D01*
G75*
G03*
X42927550Y47380580I-74630J-28860D01*
G01*
Y47384390D01*
X42873550D01*
Y47380580D01*
G75*
G03*
X42846060Y47363850I26960J-75250D01*
G01*
G37*
X43008680Y47384390D02*
G36*
X43008680Y47384390D02*
G75*
G02*
X43031270Y47334730I-108180J-79180D01*
G01*
G75*
G02*
X43111200Y47334120I39270J-91990D01*
G01*
X43683920D01*
G75*
G02*
X43731050Y47365980I74110J-58840D01*
G01*
Y47334120D01*
X43785050D01*
Y47365980D01*
G75*
G02*
X43832170Y47334120I-27020J-90740D01*
G01*
X48477160D01*
G75*
G02*
X48522820Y47384390I153830J-93860D01*
G01*
X47673550D01*
Y47375270D01*
G75*
G02*
X47658550Y47360270I-15000J0D01*
G01*
X47583550D01*
G75*
G02*
X47568550Y47375260I0J14990D01*
G01*
G75*
G02*
Y47375270I13020J10D01*
G01*
Y47384390D01*
X44566000D01*
G75*
G02*
X44525050Y47359560I-67930J65860D01*
G01*
Y47384390D01*
X44471050D01*
Y47359560D01*
G75*
G02*
X44430090Y47384390I26940J90640D01*
G01*
X43008680D01*
G37*
X48604000Y47363550D02*
G36*
X48604000Y47363550D02*
G75*
G03*
X48546630Y47334120I27020J-123310D01*
G01*
X48715360D01*
G75*
G03*
X48658000Y47363550I-84410J-93910D01*
G01*
Y47384390D01*
X48604000D01*
Y47363550D01*
G37*
X48739170Y47384390D02*
G36*
X48739170Y47384390D02*
G75*
G02*
X48784830Y47334120I-108190J-144140D01*
G01*
X48882300D01*
Y47384390D01*
X48739170D01*
G37*
X42303700Y47492270D02*
G36*
X42303700Y47492270D02*
Y47384390D01*
X42617400D01*
G75*
G02*
X42698550Y47436520I108130J-79100D01*
G01*
Y47384390D01*
X42752550D01*
Y47436520D01*
G75*
G02*
X42813050Y47406760I-27100J-131470D01*
G01*
G75*
G02*
X42873550Y47436520I87540J-101580D01*
G01*
Y47384390D01*
X42927550D01*
Y47436520D01*
G75*
G02*
X43008680Y47384390I-27050J-131290D01*
G01*
X44430090D01*
G75*
G02*
X44407340Y47423270I67900J65830D01*
G01*
X44467680D01*
G75*
G03*
X44471050Y47419900I27470J24100D01*
G01*
Y47384390D01*
X44525050D01*
Y47419900D01*
G75*
G03*
X44528420Y47423270I-26690J30060D01*
G01*
X44588760D01*
G75*
G02*
X44566000Y47384390I-90700J26990D01*
G01*
X47568550D01*
Y47430270D01*
G75*
G02*
X47583550Y47445270I15000J0D01*
G01*
X47658550D01*
G75*
G02*
X47673550Y47430270I0J-15000D01*
G01*
Y47384390D01*
X48522820D01*
G75*
G02*
X48604000Y47418440I108170J-144110D01*
G01*
Y47384390D01*
X48658000D01*
Y47418440D01*
G75*
G02*
X48739170Y47384390I-27020J-178190D01*
G01*
X48882300D01*
Y47492270D01*
X47430550D01*
Y47437770D01*
G75*
G02*
X47415550Y47422770I-15000J0D01*
G01*
X47340550D01*
G75*
G02*
X47325550Y47437760I0J14990D01*
G01*
G75*
G02*
Y47437770I13020J10D01*
G01*
Y47492270D01*
X44582860D01*
G75*
G02*
X44588760Y47477270I-84840J-42030D01*
G01*
X44528420D01*
G75*
G03*
X44525050Y47480640I-33210J-29840D01*
G01*
Y47492270D01*
X44471050D01*
Y47480640D01*
G75*
G03*
X44467680Y47477270I26690J-30060D01*
G01*
X44407340D01*
G75*
G02*
X44413230Y47492270I90690J-26950D01*
G01*
X43778690D01*
G75*
G02*
X43657410I-60640J0D01*
G01*
X42303700D01*
G37*
Y47562770D02*
G36*
X42303700Y47562770D02*
Y47492270D01*
X43657410D01*
G75*
G02*
X43778690I60640J0D01*
G01*
X44413230D01*
G75*
G02*
X44471050Y47540980I84800J-41990D01*
G01*
Y47492270D01*
X44525050D01*
Y47540980D01*
G75*
G02*
X44582860Y47492270I-27020J-90730D01*
G01*
X47325550D01*
Y47492770D01*
G75*
G02*
X47340550Y47507770I15000J0D01*
G01*
X47415550D01*
G75*
G02*
X47430550Y47492770I0J-15000D01*
G01*
Y47492270D01*
X48882300D01*
Y47562770D01*
X47425550D01*
Y47540270D01*
G75*
G02*
X47410550Y47525270I-15000J0D01*
G01*
X47335550D01*
G75*
G02*
X47320550Y47540260I0J14990D01*
G01*
G75*
G02*
Y47540270I13020J10D01*
G01*
Y47562770D01*
X46657220D01*
G75*
G02*
X46659000Y47555700I-13340J-7120D01*
G01*
G75*
G02*
X46654610Y47545100I-15080J40D01*
G01*
X46615720Y47506210D01*
G75*
G02*
X46594520I-10600J10570D01*
G01*
X46541490Y47559240D01*
G75*
G02*
X46538870Y47562770I10580J10590D01*
G01*
X42303700D01*
G37*
Y47633700D02*
G36*
X42303700Y47633700D02*
Y47562770D01*
X46538870D01*
G75*
G02*
X46537100Y47569830I13200J7060D01*
G01*
G75*
G02*
Y47569840I13970J10D01*
G01*
G75*
G02*
X46541490Y47580440I15010J-10D01*
G01*
X46580380Y47619330D01*
G75*
G02*
X46601580I10600J-10600D01*
G01*
X46654610Y47566300D01*
G75*
G02*
X46657220Y47562770I-10730J-10670D01*
G01*
X47320550D01*
Y47595270D01*
G75*
G02*
X47335550Y47610270I15000J0D01*
G01*
X47410550D01*
G75*
G02*
X47425550Y47595270I0J-15000D01*
G01*
Y47562770D01*
X48882300D01*
Y47633700D01*
X47673550D01*
Y47614770D01*
G75*
G02*
X47658550Y47599770I-15000J0D01*
G01*
X47583550D01*
G75*
G02*
X47568550Y47614760I0J14990D01*
G01*
G75*
G02*
Y47614770I13020J10D01*
G01*
Y47633700D01*
X46715710D01*
X46705720Y47623710D01*
G75*
G02*
X46684520I-10600J10570D01*
G01*
X46674530Y47633700D01*
X46617490D01*
G75*
G02*
X46605550Y47627770I-11950J9070D01*
G01*
X46530550D01*
G75*
G02*
X46518600Y47633700I-10J14990D01*
G01*
X43299860D01*
G75*
G02*
X43223050Y47584130I-103810J76560D01*
G01*
Y47633700D01*
X43169050D01*
Y47584130D01*
G75*
G02*
X43092230Y47633700I26970J126110D01*
G01*
X42602280D01*
G75*
G02*
X42546050Y47615270I-56230J76570D01*
G01*
G75*
G02*
X42489810Y47633700I-10J94980D01*
G01*
X42303700D01*
G37*
Y47710270D02*
G36*
X42303700Y47710270D02*
Y47633700D01*
X42489810D01*
G75*
G02*
X42451050Y47710250I56220J76560D01*
G01*
G75*
G02*
Y47710270I127320J10D01*
G01*
X42303700D01*
G37*
X42641050D02*
G36*
X42641050Y47710270D02*
G75*
G02*
X42602280Y47633700I-95000J0D01*
G01*
X43092230D01*
G75*
G02*
X43069910Y47683270I103790J76540D01*
G01*
X43126080D01*
G75*
G03*
X43169050Y47640300I69880J26910D01*
G01*
Y47633700D01*
X43223050D01*
Y47640300D01*
G75*
G03*
X43266020Y47683270I-26970J69940D01*
G01*
X43322190D01*
G75*
G02*
X43299860Y47633700I-126150J27010D01*
G01*
X46518600D01*
G75*
G02*
X46515550Y47642760I11940J9060D01*
G01*
G75*
G02*
Y47642770I13020J10D01*
G01*
Y47697770D01*
G75*
G02*
X46522260Y47710270I15000J0D01*
G01*
X42641050D01*
G37*
X46620550Y47642770D02*
G36*
X46620550Y47642770D02*
G75*
G02*
X46617490Y47633700I-15010J10D01*
G01*
X46674530D01*
X46631490Y47676740D01*
G75*
G02*
X46627100Y47687330I10580J10590D01*
G01*
G75*
G02*
Y47687340I13970J10D01*
G01*
G75*
G02*
X46631490Y47697940I15010J-10D01*
G01*
X46643820Y47710270D01*
X46613830D01*
G75*
G02*
X46620550Y47697770I-8300J-12520D01*
G01*
Y47642770D01*
G37*
X46744610Y47662600D02*
G36*
X46744610Y47662600D02*
X46715710Y47633700D01*
X47568550D01*
Y47669770D01*
G75*
G02*
X47583550Y47684770I15000J0D01*
G01*
X47658550D01*
G75*
G02*
X47673550Y47669770I0J-15000D01*
G01*
Y47633700D01*
X48882300D01*
Y47710270D01*
X47425550D01*
Y47672770D01*
G75*
G02*
X47410550Y47657770I-15000J0D01*
G01*
X47335550D01*
G75*
G02*
X47320550Y47672760I0J14990D01*
G01*
G75*
G02*
Y47672770I13020J10D01*
G01*
Y47710270D01*
X46718140D01*
X46744610Y47683800D01*
G75*
G02*
X46749000Y47673200I-10740J-10660D01*
G01*
G75*
G02*
X46744610Y47662600I-15080J40D01*
G01*
G37*
X42303700Y47786840D02*
G36*
X42303700Y47786840D02*
Y47710270D01*
X42451050D01*
G75*
G02*
X42489820Y47786840I95000J0D01*
G01*
X42303700D01*
G37*
X42602270D02*
G36*
X42602270Y47786840D02*
G75*
G02*
X42641050Y47710270I-56240J-76590D01*
G01*
X46522260D01*
G75*
G02*
X46530550Y47712770I8290J-12510D01*
G01*
X46605550D01*
G75*
G02*
X46613830Y47710270I-20J-15030D01*
G01*
X46643820D01*
X46670380Y47736830D01*
G75*
G02*
X46691580I10600J-10600D01*
G01*
X46718140Y47710270D01*
X47320550D01*
Y47727770D01*
G75*
G02*
X47335550Y47742770I15000J0D01*
G01*
X47410550D01*
G75*
G02*
X47425550Y47727770I0J-15000D01*
G01*
Y47710270D01*
X48882300D01*
Y47786840D01*
X46672600D01*
G75*
G02*
X46660550Y47780770I-12060J8940D01*
G01*
X46605550D01*
G75*
G02*
X46593490Y47786840I-10J14990D01*
G01*
X46530600D01*
G75*
G02*
X46518550Y47780770I-12060J8940D01*
G01*
X46463550D01*
G75*
G02*
X46451490Y47786840I-10J14990D01*
G01*
X44769750D01*
Y47751570D01*
X44577350D01*
Y47786840D01*
X44515750D01*
Y47751570D01*
X44323350D01*
Y47786840D01*
X44261750D01*
Y47751570D01*
X44069350D01*
Y47786840D01*
X43299860D01*
G75*
G02*
X43322190Y47737270I-103840J-76590D01*
G01*
X43266020D01*
G75*
G03*
X43223050Y47780240I-69990J-27020D01*
G01*
Y47786840D01*
X43169050D01*
Y47780240D01*
G75*
G03*
X43126080Y47737270I26970J-69940D01*
G01*
X43069910D01*
G75*
G02*
X43092240Y47786840I126150J-27010D01*
G01*
X42602270D01*
G37*
X42303700Y47933730D02*
G36*
X42303700Y47933730D02*
Y47786840D01*
X42489820D01*
G75*
G02*
X42546050Y47805270I56230J-76570D01*
G01*
G75*
G02*
X42602270Y47786840I-20J-95020D01*
G01*
X43092240D01*
G75*
G02*
X43169050Y47836410I103810J-76560D01*
G01*
Y47786840D01*
X43223050D01*
Y47836410D01*
G75*
G02*
X43299860Y47786840I-27030J-126180D01*
G01*
X44069350D01*
Y47933730D01*
X43796200D01*
G75*
G02*
X43675050Y47858150I-148150J102580D01*
G01*
Y47913040D01*
G75*
G03*
X43721540Y47933730I-27020J123300D01*
G01*
X43574550D01*
G75*
G03*
X43621050Y47913040I73490J102570D01*
G01*
Y47858150D01*
G75*
G02*
X43499890Y47933730I26970J178140D01*
G01*
X42303700D01*
G37*
X44261750D02*
G36*
X44261750Y47933730D02*
Y47786840D01*
X44323350D01*
Y47933730D01*
X44261750D01*
G37*
X44515750D02*
G36*
X44515750Y47933730D02*
Y47786840D01*
X44577350D01*
Y47933730D01*
X44515750D01*
G37*
X44769750D02*
G36*
X44769750Y47933730D02*
Y47786840D01*
X46451490D01*
G75*
G02*
X46448550Y47795760I12050J8920D01*
G01*
G75*
G02*
Y47795770I13020J10D01*
G01*
Y47870770D01*
G75*
G02*
X46463550Y47885770I15000J0D01*
G01*
X46518550D01*
G75*
G02*
X46533550Y47870770I0J-15000D01*
G01*
Y47795770D01*
G75*
G02*
X46530600Y47786840I-15010J0D01*
G01*
X46593490D01*
G75*
G02*
X46590550Y47795760I12050J8920D01*
G01*
G75*
G02*
Y47795770I13020J10D01*
G01*
Y47870770D01*
G75*
G02*
X46605550Y47885770I15000J0D01*
G01*
X46660550D01*
G75*
G02*
X46675550Y47870770I0J-15000D01*
G01*
Y47795770D01*
G75*
G02*
X46672600Y47786840I-15010J0D01*
G01*
X48882300D01*
Y47933730D01*
X44769750D01*
G37*
X42303700Y48083700D02*
G36*
X42303700Y48083700D02*
Y47933730D01*
X43499890D01*
G75*
G02*
X43469880Y48009320I148130J102560D01*
G01*
X43524770D01*
G75*
G03*
X43574550Y47933730I123270J26990D01*
G01*
X43721540D01*
G75*
G03*
X43771330Y48009320I-73510J102610D01*
G01*
X43826220D01*
G75*
G02*
X43796200Y47933730I-178170J27000D01*
G01*
X44069350D01*
Y47943970D01*
X44261750D01*
Y47933730D01*
X44323350D01*
Y47943970D01*
X44515750D01*
Y47933730D01*
X44577350D01*
Y47943970D01*
X44769750D01*
Y47933730D01*
X48882300D01*
Y48083700D01*
X48739250D01*
Y48044070D01*
X48546850D01*
Y48083700D01*
X48485250D01*
Y48044070D01*
X48292850D01*
Y48083700D01*
X48231250D01*
Y48044070D01*
X48038850D01*
Y48083700D01*
X47977250D01*
Y48044070D01*
X47784850D01*
Y48083700D01*
X47723250D01*
Y48044070D01*
X47530850D01*
Y48083700D01*
X47469250D01*
Y48044070D01*
X47276850D01*
Y48083700D01*
X47215250D01*
Y48044070D01*
X47022850D01*
Y48083700D01*
X46961250D01*
Y48044070D01*
X46768850D01*
Y48083700D01*
X46552800D01*
Y48047800D01*
X46360400D01*
Y48083700D01*
X46298800D01*
Y48047800D01*
X46106400D01*
Y48083700D01*
X46044800D01*
Y48047800D01*
X45852400D01*
Y48083700D01*
X45790800D01*
Y48047800D01*
X45598400D01*
Y48083700D01*
X45536800D01*
Y48047800D01*
X45344400D01*
Y48083700D01*
X45282800D01*
Y48047800D01*
X45090400D01*
Y48083700D01*
X45062800D01*
Y48013800D01*
X44959600D01*
Y48067800D01*
X45008800D01*
Y48083700D01*
X44856400D01*
Y48067800D01*
X44905600D01*
Y48013800D01*
X44802400D01*
Y48083700D01*
X44774800D01*
Y48047800D01*
X44582400D01*
Y48083700D01*
X44520800D01*
Y48047800D01*
X44328400D01*
Y48083700D01*
X44266800D01*
Y48047800D01*
X44074400D01*
Y48083700D01*
X43821910D01*
G75*
G02*
X43826220Y48063320I-173900J-47420D01*
G01*
X43771330D01*
G75*
G03*
X43765010Y48083700I-123340J-27080D01*
G01*
X43531080D01*
G75*
G03*
X43524770Y48063320I117000J-47390D01*
G01*
X43469880D01*
G75*
G02*
X43474190Y48083700I178190J-27040D01*
G01*
X43299860D01*
G75*
G02*
X43223050Y48034130I-103810J76560D01*
G01*
Y48083700D01*
X43169050D01*
Y48034130D01*
G75*
G02*
X43092230Y48083700I26970J126110D01*
G01*
X42602280D01*
G75*
G02*
X42546050Y48065270I-56230J76570D01*
G01*
G75*
G02*
X42489810Y48083700I-10J94980D01*
G01*
X42303700D01*
G37*
Y48160270D02*
G36*
X42303700Y48160270D02*
Y48083700D01*
X42489810D01*
G75*
G02*
X42451050Y48160250I56220J76560D01*
G01*
G75*
G02*
Y48160270I127320J10D01*
G01*
X42303700D01*
G37*
X42641050D02*
G36*
X42641050Y48160270D02*
G75*
G02*
X42602280Y48083700I-95000J0D01*
G01*
X43092230D01*
G75*
G02*
X43069910Y48133270I103790J76540D01*
G01*
X43126080D01*
G75*
G03*
X43169050Y48090300I69880J26910D01*
G01*
Y48083700D01*
X43223050D01*
Y48090300D01*
G75*
G03*
X43266020Y48133270I-26970J69940D01*
G01*
X43322190D01*
G75*
G02*
X43299860Y48083700I-126150J27010D01*
G01*
X43474190D01*
G75*
G02*
X43517240Y48160270I173860J-47360D01*
G01*
X42641050D01*
G37*
X43621050Y48159600D02*
G36*
X43621050Y48159600D02*
G75*
G03*
X43531080Y48083700I27020J-123300D01*
G01*
X43765010D01*
G75*
G03*
X43675050Y48159600I-117010J-47430D01*
G01*
Y48160270D01*
X43621050D01*
Y48159600D01*
G37*
X43778850Y48160270D02*
G36*
X43778850Y48160270D02*
G75*
G02*
X43821910Y48083700I-130820J-123960D01*
G01*
X44074400D01*
Y48160270D01*
X43778850D01*
G37*
X44266800D02*
G36*
X44266800Y48160270D02*
Y48083700D01*
X44328400D01*
Y48160270D01*
X44266800D01*
G37*
X44520800D02*
G36*
X44520800Y48160270D02*
Y48083700D01*
X44582400D01*
Y48160270D01*
X44520800D01*
G37*
X44774800D02*
G36*
X44774800Y48160270D02*
Y48083700D01*
X44802400D01*
Y48117000D01*
X44856400D01*
Y48083700D01*
X45008800D01*
Y48117000D01*
X45062800D01*
Y48083700D01*
X45090400D01*
Y48160270D01*
X44774800D01*
G37*
X45282800D02*
G36*
X45282800Y48160270D02*
Y48083700D01*
X45344400D01*
Y48160270D01*
X45282800D01*
G37*
X45536800D02*
G36*
X45536800Y48160270D02*
Y48083700D01*
X45598400D01*
Y48160270D01*
X45536800D01*
G37*
X45790800D02*
G36*
X45790800Y48160270D02*
Y48083700D01*
X45852400D01*
Y48160270D01*
X45790800D01*
G37*
X46044800D02*
G36*
X46044800Y48160270D02*
Y48083700D01*
X46106400D01*
Y48160270D01*
X46044800D01*
G37*
X46298800D02*
G36*
X46298800Y48160270D02*
Y48083700D01*
X46360400D01*
Y48160270D01*
X46298800D01*
G37*
X46552800D02*
G36*
X46552800Y48160270D02*
Y48083700D01*
X46768850D01*
Y48160270D01*
X46552800D01*
G37*
X46961250D02*
G36*
X46961250Y48160270D02*
Y48083700D01*
X47022850D01*
Y48160270D01*
X46961250D01*
G37*
X47215250D02*
G36*
X47215250Y48160270D02*
Y48083700D01*
X47276850D01*
Y48160270D01*
X47215250D01*
G37*
X47469250D02*
G36*
X47469250Y48160270D02*
Y48083700D01*
X47530850D01*
Y48160270D01*
X47469250D01*
G37*
X47723250D02*
G36*
X47723250Y48160270D02*
Y48083700D01*
X47784850D01*
Y48160270D01*
X47723250D01*
G37*
X47977250D02*
G36*
X47977250Y48160270D02*
Y48083700D01*
X48038850D01*
Y48160270D01*
X47977250D01*
G37*
X48231250D02*
G36*
X48231250Y48160270D02*
Y48083700D01*
X48292850D01*
Y48160270D01*
X48231250D01*
G37*
X48485250D02*
G36*
X48485250Y48160270D02*
Y48083700D01*
X48546850D01*
Y48160270D01*
X48485250D01*
G37*
X48739250D02*
G36*
X48739250Y48160270D02*
Y48083700D01*
X48882300D01*
Y48160270D01*
X48739250D01*
G37*
X42303700Y48236840D02*
G36*
X42303700Y48236840D02*
Y48160270D01*
X42451050D01*
G75*
G02*
X42489820Y48236840I95000J0D01*
G01*
X42303700D01*
G37*
X42602270D02*
G36*
X42602270Y48236840D02*
G75*
G02*
X42641050Y48160270I-56240J-76590D01*
G01*
X43517240D01*
G75*
G02*
X43621050Y48214490I130800J-123950D01*
G01*
Y48160270D01*
X43675050D01*
Y48214490D01*
G75*
G02*
X43778850Y48160270I-27020J-178190D01*
G01*
X44074400D01*
Y48236840D01*
X43299860D01*
G75*
G02*
X43322190Y48187270I-103840J-76590D01*
G01*
X43266020D01*
G75*
G03*
X43223050Y48230240I-69990J-27020D01*
G01*
Y48236840D01*
X43169050D01*
Y48230240D01*
G75*
G03*
X43126080Y48187270I26970J-69940D01*
G01*
X43069910D01*
G75*
G02*
X43092240Y48236840I126150J-27010D01*
G01*
X42602270D01*
G37*
X44266800D02*
G36*
X44266800Y48236840D02*
Y48160270D01*
X44328400D01*
Y48236840D01*
X44266800D01*
G37*
X44520800D02*
G36*
X44520800Y48236840D02*
Y48160270D01*
X44582400D01*
Y48236840D01*
X44520800D01*
G37*
X44774800D02*
G36*
X44774800Y48236840D02*
Y48160270D01*
X45090400D01*
Y48236840D01*
X45062800D01*
Y48171000D01*
X45008800D01*
Y48220200D01*
X44959600D01*
Y48236840D01*
X44905600D01*
Y48220200D01*
X44856400D01*
Y48171000D01*
X44802400D01*
Y48236840D01*
X44774800D01*
G37*
X45282800D02*
G36*
X45282800Y48236840D02*
Y48160270D01*
X45344400D01*
Y48236840D01*
X45282800D01*
G37*
X45536800D02*
G36*
X45536800Y48236840D02*
Y48160270D01*
X45598400D01*
Y48236840D01*
X45536800D01*
G37*
X45790800D02*
G36*
X45790800Y48236840D02*
Y48160270D01*
X45852400D01*
Y48236840D01*
X45790800D01*
G37*
X46044800D02*
G36*
X46044800Y48236840D02*
Y48160270D01*
X46106400D01*
Y48236840D01*
X46044800D01*
G37*
X46298800D02*
G36*
X46298800Y48236840D02*
Y48160270D01*
X46360400D01*
Y48236840D01*
X46298800D01*
G37*
X46552800D02*
G36*
X46552800Y48236840D02*
Y48160270D01*
X46768850D01*
Y48236470D01*
X46961250D01*
Y48160270D01*
X47022850D01*
Y48236470D01*
X47215250D01*
Y48160270D01*
X47276850D01*
Y48236470D01*
X47469250D01*
Y48160270D01*
X47530850D01*
Y48236470D01*
X47723250D01*
Y48160270D01*
X47784850D01*
Y48236470D01*
X47977250D01*
Y48160270D01*
X48038850D01*
Y48236470D01*
X48231250D01*
Y48160270D01*
X48292850D01*
Y48236470D01*
X48485250D01*
Y48160270D01*
X48546850D01*
Y48236470D01*
X48739250D01*
Y48160270D01*
X48882300D01*
Y48236840D01*
X46552800D01*
G37*
X42303700Y48287000D02*
G36*
X42303700Y48287000D02*
Y48236840D01*
X42489820D01*
G75*
G02*
X42546050Y48255270I56230J-76570D01*
G01*
G75*
G02*
X42602270Y48236840I-20J-95020D01*
G01*
X43092240D01*
G75*
G02*
X43169050Y48286410I103810J-76560D01*
G01*
Y48236840D01*
X43223050D01*
Y48286410D01*
G75*
G02*
X43299860Y48236840I-27030J-126180D01*
G01*
X44074400D01*
Y48240200D01*
X44266800D01*
Y48236840D01*
X44328400D01*
Y48240200D01*
X44520800D01*
Y48236840D01*
X44582400D01*
Y48240200D01*
X44774800D01*
Y48236840D01*
X44802400D01*
Y48274200D01*
X44905600D01*
Y48236840D01*
X44959600D01*
Y48274200D01*
X45062800D01*
Y48236840D01*
X45090400D01*
Y48240200D01*
X45282800D01*
Y48236840D01*
X45344400D01*
Y48240200D01*
X45536800D01*
Y48236840D01*
X45598400D01*
Y48240200D01*
X45790800D01*
Y48236840D01*
X45852400D01*
Y48240200D01*
X46044800D01*
Y48236840D01*
X46106400D01*
Y48240200D01*
X46298800D01*
Y48236840D01*
X46360400D01*
Y48240200D01*
X46552800D01*
Y48236840D01*
X48882300D01*
Y48254740D01*
X48762740Y48374300D01*
X42391000D01*
X42390970D01*
G75*
G03*
X42303700Y48287030I0J-87270D01*
G01*
Y48287000D01*
G37*
D02*
D23*
X46048050Y45560270D03*
Y45685270D03*
Y45810270D03*
Y45935270D03*
Y46060270D03*
Y46185270D03*
Y46310270D03*
X46148800Y46390020D03*
X46151390Y45485700D03*
X46273800Y46390020D03*
X46281390Y45485700D03*
X46398800Y46390020D03*
X46411390Y45485700D03*
X46518800Y46390020D03*
X46623050Y45789360D03*
Y45919360D03*
Y46049360D03*
Y46179360D03*
Y46309360D03*
D02*
D24*
X43070050Y45882270D03*
X43718050Y47492270D03*
X43758050Y47275270D03*
X43979050Y43778270D03*
X44153800Y44279270D03*
X44183800Y44806270D03*
X44498050Y47450270D03*
X44596050Y43778270D03*
X45033050Y44280270D03*
X45051050Y45535270D03*
X45206050Y43778270D03*
X47057050Y43791270D03*
X47175550Y46100270D03*
X48377050Y44806270D03*
X49048050Y44950270D03*
D02*
D26*
X42529550Y44557520D03*
Y45084520D03*
X42959080Y46100270D03*
X43482050Y45597270D03*
X43603050Y45250270D03*
X43788050D03*
X43863050Y46390270D03*
X44098050Y46535270D03*
X44213050Y45251770D03*
Y45350270D03*
Y45450270D03*
X44233050Y46535270D03*
X44483050Y45535270D03*
X44545550Y46635270D03*
Y46732770D03*
Y46826020D03*
X44793050Y44955270D03*
X45398050Y44735270D03*
X45640550Y46705270D03*
X45823050Y44392770D03*
X45825550Y44510270D03*
X45838050Y44650270D03*
X45930550Y44450270D03*
X45933050Y44585270D03*
X46278050Y44512770D03*
Y44980270D03*
Y45115270D03*
Y45220270D03*
X46280550Y44607770D03*
Y44702770D03*
X46411390Y46185270D03*
X46543050Y45485270D03*
X46568050Y47670270D03*
X46598050Y44931270D03*
Y45081070D03*
Y45181270D03*
X46603050Y44572770D03*
X47134050Y45245270D03*
X47137050Y45337770D03*
X47373050Y47567770D03*
Y47700270D03*
X47378050Y47465270D03*
X47621050Y47402770D03*
Y47642270D03*
X47754820Y45329270D03*
X47773050Y44810970D03*
Y44895270D03*
X47869920Y45329270D03*
X47985010D03*
X48092050D03*
X48184050Y45155270D03*
X48208050Y45031270D03*
D02*
D27*
X42678050Y44820270D03*
X42913050D03*
X43318050D03*
X43476050Y45053570D03*
X43713050Y46620270D03*
X43843050D03*
X43975050Y45560270D03*
X44283050Y46645270D03*
X45398050Y44895270D03*
X45778050Y44740270D03*
X46184550Y44020770D03*
Y44245770D03*
X46386550Y44020770D03*
Y44245770D03*
X46491050Y47833270D03*
X46633050D03*
X46637050Y44175270D03*
X46728050D03*
X46933050Y44015270D03*
X46989550Y44175270D03*
X47113050Y45662770D03*
X47115550Y47097770D03*
X47118050Y45865270D03*
X47128050Y44820270D03*
X47137050Y44486270D03*
X47178050Y46977770D03*
X47188050Y44015270D03*
Y44730270D03*
X47208050Y45662770D03*
X47233050Y44575270D03*
X47240550Y47095270D03*
X47248050Y44820270D03*
X47298050Y46977770D03*
X47328050Y44575270D03*
X47338050Y45056270D03*
X47420550Y44572770D03*
X47553050Y44330270D03*
X47580800Y46432770D03*
Y46682770D03*
X47588300Y46175270D03*
X47593300Y45932770D03*
D02*
D29*
X46603050Y44730270D03*
X46875550Y44515270D03*
D02*
D72*
X46598050Y47562770D03*
X46688050Y47680270D03*
D02*
D77*
X44165550Y47847770D03*
X44170600Y48144000D03*
X44419550Y47847770D03*
X44424600Y48144000D03*
X44673550Y47847770D03*
X44678600Y48144000D03*
X44932600D03*
X45090000Y43301000D03*
X45186600Y46077770D03*
Y46331770D03*
Y46585770D03*
Y46839770D03*
Y47093770D03*
Y48144000D03*
X45344000Y43301000D03*
X45440600Y46077770D03*
Y46331770D03*
Y46585770D03*
Y46839770D03*
Y47093770D03*
Y48144000D03*
X45598000Y43301000D03*
X45694600Y48144000D03*
X45852000Y43301000D03*
X45948600Y48144000D03*
X46106000Y43301000D03*
X46202600Y48144000D03*
X46360000Y43301000D03*
X46456600Y48144000D03*
X46614000Y43301000D03*
X46865050Y48140270D03*
X46868000Y43301000D03*
X47119050Y48140270D03*
X47361000Y43301000D03*
X47373050Y48140270D03*
X47615000Y43301000D03*
X47627050Y48140270D03*
X47869000Y43301000D03*
X47881050Y48140270D03*
X48123000Y43301000D03*
X48135050Y48140270D03*
X48377000Y43301000D03*
X48389050Y48140270D03*
X48631000Y43301000D03*
X48641050Y45639270D03*
Y45893270D03*
Y46147270D03*
Y46401270D03*
Y46655270D03*
X48643050Y48140270D03*
X48942050Y45639270D03*
Y45893270D03*
Y46147270D03*
Y46401270D03*
Y46655270D03*
D02*
D85*
X42725550Y46460270D03*
Y47305270D03*
X42900550Y46460270D03*
Y47305270D03*
X43070550Y46522770D03*
Y47242770D03*
D02*
D93*
X42546050Y47710270D03*
Y48160270D03*
X43196050Y47710270D03*
Y48160270D03*
D02*
D94*
X43648050Y48036320D03*
X43869050Y43330270D03*
X48631000Y47240270D03*
X48631490Y44194740D03*
D02*
D95*
X42725550Y43810270D03*
X43355550D03*
D02*
D96*
X43065550Y43330270D03*
X0Y0D02*
M02*
