G05
M48
;#@! TF.GenerationSoftware,DesignSpark,DesignSpark PCB,13.0.
;#@! TF.CreationDate,2026-02-17T14:20:19+00:00*
;#@! TF.FileFunction,Plated,1,4,PTH
;FILE_FORMAT=3:5
;TYPE=PLATED
INCH,TZ
FMAT,2
T1C000.00787
T2C000.01575
T3C000.01600
T4C000.02500
T5C000.03500
T6C000.03937
T7C000.04528
T8C000.05118
T9C000.08071
%
T001
X1674392Y1754233
X1674392Y1774981
X1680238Y1764578
X1689490Y1764578
X1691302Y1814971
X1705435Y1764578
X1711656Y1773763
X1711892Y1795168
X1716656Y1781507
X1720986Y1835444
X1723939Y1781507
X1726104Y1835444
X1726892Y1826389
X1731301Y1793711
X1736144Y1832097
X1740671Y1781566
X1740671Y1785444
X1740671Y1789381
X1741459Y1832097
X1743427Y1836428
X1751301Y1792727
X1753762Y1839873
X1763506Y1769893
X1787325Y1761231
X1787325Y1767530
X1796872Y1838790
X1802285Y1761428
X1804057Y1747747
X1804156Y1752373
X1804648Y1757885
X1808289Y1750011
X1808388Y1755326
X1818289Y1733101
X1818289Y1741959
X1821970Y1752471
X1821970Y1770877
X1821970Y1780326
X1822069Y1756211
X1822069Y1759952
X1826242Y1733101
X1826242Y1741959
X1827220Y1818318
X1830356Y1883200
X1832404Y1790759
X1833388Y1876782
X1834569Y1872550
X1834766Y1754833
X1834766Y1761034
X1835947Y1883200
X1836104Y1739184
X1838112Y1877176
X1839687Y1739184
X1845494Y1752570
X1847758Y1732885
X1854844Y1797747
X1854943Y1854243
X1855041Y1805719
X1855435Y1764578
X1855671Y1781310
X1855789Y1784952
X1857404Y1849519
X1857797Y1732885
X1857797Y1761034
X1858585Y1797747
X1859569Y1754932
X1859864Y1854144
X1860159Y1764578
X1862128Y1849519
X1863309Y1754932
X1863703Y1773869
X1865081Y1872747
X1865081Y1877963
X1865278Y1868711
X1866951Y1754833
X1872167Y1745286
X1873260Y1828062
X1873260Y1837904
X1873555Y1817924
X1873752Y1808377
X1874844Y1866251
X1874844Y1875680
X1880111Y1784617
X1880829Y1767530
X1884643Y1784617
X1889174Y1784617
X1893388Y1784617
X1897010Y1777767
X1897955Y1772885
T002
X1812915Y1793711
X1812915Y1798633
X1812915Y1803554
X1812915Y1808475
X1812915Y1813396
X1812915Y1818318
X1812915Y1823239
X1816882Y1826379
X1816984Y1790776
X1821803Y1826379
X1822102Y1790776
X1826724Y1826379
X1827220Y1790776
X1831449Y1826379
X1835553Y1802731
X1835553Y1807849
X1835553Y1812967
X1835553Y1818085
X1835553Y1823203
T003
X1695671Y1806389
X1721183Y1869774
X1731459Y1723554
X1738339Y1743278
X1751892Y1868121
X1755750Y1723554
X1772955Y1743318
X1773663Y1792727
X1779766Y1723554
X1852640Y1724066
X1931026Y1769696
T005
X1738801Y1883770
X1739000Y1895433
X1748801Y1883770
X1749000Y1895433
X1758801Y1883770
X1759000Y1895433
X1769000Y1895433
X1775197Y1704764
X1779000Y1814085
X1779000Y1824085
X1779000Y1834085
X1779000Y1844085
X1779000Y1854085
X1779000Y1895433
X1785197Y1704764
X1789000Y1814085
X1789000Y1824085
X1789000Y1834085
X1789000Y1844085
X1789000Y1854085
X1789000Y1895433
X1795197Y1704764
X1799000Y1895433
X1805197Y1704764
X1809000Y1895433
X1815197Y1704764
X1819000Y1895433
X1825197Y1704764
X1829000Y1895433
X1835197Y1704764
X1845081Y1895286
X1845197Y1704764
X1855081Y1895286
X1864606Y1704764
X1865081Y1895286
X1874606Y1704764
X1875081Y1895286
X1884606Y1704764
X1885081Y1895286
X1894606Y1704764
X1895081Y1895286
X1904606Y1704764
X1905081Y1895286
X1914606Y1704764
X1915002Y1796822
X1915002Y1806822
X1915002Y1816822
X1915002Y1826822
X1915002Y1836822
X1915081Y1895286
X1926852Y1796822
X1926852Y1806822
X1926852Y1816822
X1926852Y1826822
X1926852Y1836822
T006
X1675041Y1878357
X1675041Y1896074
X1700632Y1878357
X1700632Y1896074
T007
X1695691Y1831605
X1695691Y1859952
T008
X1682108Y1829144
X1682108Y1862412
X1688998Y1829144
X1688998Y1862412
T009
X1718427Y1891194
X1727128Y1705916
X1914606Y1859853
X1914626Y1739950
T004
G00X1682827Y1727501
M15
G01X1682827Y1722127
X1681390Y1722127
X1681390Y1727501
X1682827Y1727501
M17
G00X1692807Y1706635
M15
G01X1698181Y1706635
X1698181Y1705198
X1692807Y1705198
X1692807Y1706635
M17
G00X1707630Y1727501
M15
G01X1707630Y1722127
X1706193Y1722127
X1706193Y1727501
X1707630Y1727501
M17
M30
