G04 DesignSpark PCB Gerber Version 13.0 Build *
%FSLAX35Y35*%
%MOMM*%
%ADD130R,0.30200X1.47700*%
%ADD123R,0.85200X1.20200*%
%ADD121R,0.90200X1.40200*%
%ADD132R,1.02200X1.47200*%
%ADD120R,1.29740X1.52600*%
%ADD118R,1.39900X1.52600*%
%ADD115R,1.60200X3.20200*%
%ADD117R,1.75200X3.20200*%
%ADD119R,1.52600X1.52600*%
%ADD129R,1.47700X0.30200*%
%ADD126R,1.20200X0.45200*%
%ADD124R,1.40200X0.45200*%
%ADD122R,1.20200X0.60200*%
%ADD134R,0.70200X0.65200*%
%ADD128R,3.43200X0.85200*%
%ADD116R,1.75200X0.95200*%
%ADD131R,1.40200X1.10200*%
%ADD135C,1.50200*%
%ADD125R,1.52600X1.29740*%
%ADD127C,1.60200*%
%ADD133R,1.52600X1.39900*%
%ADD136C,2.52600*%
%AMT137*0 Rounded Rectangle Pad at angle 0*4,1,44,-0.70020,-2.00100,0.70020,-2.00100,0.74720,-1.99720,0.79300,-1.98610,0.83650,-1.96800,0.87670,-1.94330,0.91250,-1.91260,0.94310,-1.87670,0.96770,-1.83650,0.98570,-1.79290,0.99660,-1.74700,1.00100,-1.70020,1.00100,1.70020,0.99720,1.74720,0.98610,1.79300,0.96800,1.83650,0.94330,1.87670,0.91260,1.91250,0.87670,1.94310,0.83650,1.96770,0.79290,1.98570,0.74700,1.99660,0.70020,2.00100,-0.70020,2.00100,-0.74720,1.99720,-0.79300,1.98610,-0.83650,1.96800,-0.87670,1.94330,-0.91250,1.91260,-0.94310,1.87670,-0.96770,1.83650,-0.98570,1.79290,-0.99660,1.74700,-1.00100,1.70020,-1.00100,-1.70020,-0.99720,-1.74720,-0.98610,-1.79300,-0.96800,-1.83650,-0.94330,-1.87670,-0.91260,-1.91250,-0.87670,-1.94310,-0.83650,-1.96770,-0.79290,-1.98570,-0.74700,-1.99660,-0.70020,-2.00100,0*%
%ADD137T137*%
%AMT138*0 Rounded Rectangle Pad at angle 90*4,1,44,2.00100,-0.70020,2.00100,0.70020,1.99720,0.74720,1.98610,0.79300,1.96800,0.83650,1.94330,0.87670,1.91260,0.91250,1.87670,0.94310,1.83650,0.96770,1.79290,0.98570,1.74700,0.99660,1.70020,1.00100,-1.70020,1.00100,-1.74720,0.99720,-1.79300,0.98610,-1.83650,0.96800,-1.87670,0.94330,-1.91250,0.91260,-1.94310,0.87670,-1.96770,0.83650,-1.98570,0.79290,-1.99660,0.74700,-2.00100,0.70020,-2.00100,-0.70020,-1.99720,-0.74720,-1.98610,-0.79300,-1.96800,-0.83650,-1.94330,-0.87670,-1.91260,-0.91250,-1.87670,-0.94310,-1.83650,-0.96770,-1.79290,-0.98570,-1.74700,-0.99660,-1.70020,-1.00100,1.70020,-1.00100,1.74720,-0.99720,1.79300,-0.98610,1.83650,-0.96800,1.87670,-0.94330,1.91250,-0.91260,1.94310,-0.87670,1.96770,-0.83650,1.98570,-0.79290,1.99660,-0.74700,2.00100,-0.70020,0*%
%ADD138T138*%
X0Y0D02*
D02*
D115*
X44152050Y43779270D03*
Y44279270D03*
X45038050Y43782270D03*
Y44282270D03*
D02*
D116*
X43137050Y44592270D03*
Y44822270D03*
Y45052270D03*
D02*
D117*
X42507050Y44822270D03*
D02*
D118*
X43476050Y44824970D03*
Y45053570D03*
X44185550Y44810970D03*
Y45039570D03*
X46928050Y43791970D03*
Y44020570D03*
X47071050Y45870970D03*
Y46099570D03*
X47188050Y43790970D03*
Y44019570D03*
X47282050Y45872970D03*
Y46101570D03*
D02*
D119*
X44165550Y47847770D03*
X44170600Y48144000D03*
X44419550Y47847770D03*
X44424600Y48144000D03*
X44673550Y47847770D03*
X44678600Y48144000D03*
X44932600D03*
X45090000Y43301000D03*
X45186600Y46077770D03*
Y46331770D03*
Y46585770D03*
Y46839770D03*
Y47093770D03*
Y48144000D03*
X45344000Y43301000D03*
X45440600Y46077770D03*
Y46331770D03*
Y46585770D03*
Y46839770D03*
Y47093770D03*
Y48144000D03*
X45598000Y43301000D03*
X45694600Y48144000D03*
X45852000Y43301000D03*
X45948600Y48144000D03*
X46106000Y43301000D03*
X46202600Y48144000D03*
X46360000Y43301000D03*
X46456600Y48144000D03*
X46614000Y43301000D03*
X46865050Y48140270D03*
X46868000Y43301000D03*
X47119050Y48140270D03*
X47361000Y43301000D03*
X47373050Y48140270D03*
X47615000Y43301000D03*
X47627050Y48140270D03*
X47869000Y43301000D03*
X47881050Y48140270D03*
X48123000Y43301000D03*
X48135050Y48140270D03*
X48377000Y43301000D03*
X48389050Y48140270D03*
X48631000Y43301000D03*
X48641050Y45639270D03*
Y45893270D03*
Y46147270D03*
Y46401270D03*
Y46655270D03*
X48643050Y48140270D03*
X48942050Y45639270D03*
Y45893270D03*
Y46147270D03*
Y46401270D03*
Y46655270D03*
D02*
D120*
X43520800Y46620270D03*
Y46842270D03*
Y47064270D03*
X43523800Y46394530D03*
Y47495270D03*
X43711300Y46620270D03*
Y46842270D03*
Y47064270D03*
X43714300Y46394530D03*
Y47495270D03*
X44790300Y44727770D03*
Y44950270D03*
X44980800Y44727770D03*
Y44950270D03*
X47747800Y46432770D03*
X47752800Y46177770D03*
Y46682770D03*
X47755300Y45920270D03*
X47938300Y46432770D03*
X47943300Y46177770D03*
Y46682770D03*
X47945800Y45920270D03*
D02*
D121*
X45208050Y44740270D03*
Y45050270D03*
X45398050Y44740270D03*
Y45050270D03*
X48140550Y45920270D03*
X48140560Y46180270D03*
X48143050Y46432770D03*
Y46682770D03*
X48330550Y45920270D03*
X48330560Y46180270D03*
X48333050Y46432770D03*
Y46682770D03*
D02*
D122*
X43070050Y45692270D03*
X43290050Y45597270D03*
Y45787270D03*
X43702050Y44849270D03*
Y44944270D03*
Y45039270D03*
X43952050Y44849270D03*
Y45039270D03*
X44158050Y46637770D03*
Y46732770D03*
Y46827770D03*
X44408050Y46637770D03*
Y46732770D03*
Y46827770D03*
D02*
D123*
X43425550Y46080270D03*
X43730550D03*
D02*
D124*
X43975050Y45251770D03*
Y45316770D03*
Y45381770D03*
Y45446770D03*
X44415050Y45251770D03*
Y45316770D03*
Y45381770D03*
Y45446770D03*
D02*
D125*
X44792050Y45344020D03*
Y45534520D03*
X45051050Y45344020D03*
Y45534520D03*
D02*
D126*
X43100550Y46752770D03*
Y46817770D03*
Y46882770D03*
Y46947770D03*
Y47012770D03*
D02*
D127*
X42725550Y46460270D03*
Y47305270D03*
X42900550Y46460270D03*
Y47305270D03*
X43070550Y46522770D03*
Y47242770D03*
D02*
D128*
X42689050Y45469270D03*
Y45929270D03*
D02*
D129*
X46440140Y44531270D03*
Y44581270D03*
Y44631270D03*
Y44681270D03*
Y44731270D03*
Y44781270D03*
Y44831270D03*
Y44881270D03*
Y44931270D03*
Y44981270D03*
Y45031270D03*
Y45081270D03*
Y45131270D03*
Y45181270D03*
Y45231270D03*
Y45281270D03*
X47587740Y44531270D03*
Y44581270D03*
Y44631270D03*
Y44681270D03*
Y44731270D03*
Y44781270D03*
Y44831270D03*
Y44881270D03*
Y44931270D03*
Y44981270D03*
Y45031270D03*
Y45081270D03*
Y45131270D03*
Y45181270D03*
Y45231270D03*
Y45281270D03*
D02*
D130*
X46638940Y44332470D03*
Y45480070D03*
X46688940Y44332470D03*
Y45480070D03*
X46738940Y44332470D03*
Y45480070D03*
X46788940Y44332470D03*
Y45480070D03*
X46838940Y44332470D03*
Y45480070D03*
X46888940Y44332470D03*
Y45480070D03*
X46938940Y44332470D03*
Y45480070D03*
X46988940Y44332470D03*
Y45480070D03*
X47038940Y44332470D03*
Y45480070D03*
X47088940Y44332470D03*
Y45480070D03*
X47138940Y44332470D03*
Y45480070D03*
X47188940Y44332470D03*
Y45480070D03*
X47238940Y44332470D03*
Y45480070D03*
X47288940Y44332470D03*
Y45480070D03*
X47338940Y44332470D03*
Y45480070D03*
X47388940Y44332470D03*
Y45480070D03*
D02*
D131*
X46223050Y45875770D03*
Y46035770D03*
X46443050Y45875770D03*
Y46035770D03*
D02*
D132*
X46253050Y45706770D03*
Y46206270D03*
X46413050Y45706770D03*
Y46206270D03*
D02*
D133*
X43527750Y47279270D03*
X43756350D03*
X44261250Y47455270D03*
X44489850D03*
X45704750Y44890270D03*
Y45116270D03*
X45933350Y44890270D03*
Y45116270D03*
X48143750Y44806270D03*
X48372350D03*
D02*
D134*
X47464550Y45810270D03*
Y45945270D03*
D02*
D135*
X42546050Y47710270D03*
Y48160270D03*
X43196050Y47710270D03*
Y48160270D03*
D02*
D136*
X43648050Y48036320D03*
X43869050Y43330270D03*
X48631000Y47240270D03*
X48631490Y44194740D03*
D02*
D137*
X42725550Y43810270D03*
X43355550D03*
D02*
D138*
X43065550Y43330270D03*
X0Y0D02*
M02*
