G04 DesignSpark PCB Gerber Version 13.0 Build *
%FSLAX35Y35*%
%MOMM*%
%ADD110R,0.10000X1.27500*%
%ADD104R,0.65000X1.00000*%
%ADD102R,0.70000X1.20000*%
%ADD112R,0.82000X1.27000*%
%ADD101R,1.09540X1.32400*%
%ADD100R,1.19700X1.32400*%
%ADD97R,1.40000X3.00000*%
%ADD99R,1.55000X3.00000*%
%ADD109R,1.27500X0.10000*%
%ADD107R,1.00000X0.25000*%
%ADD105R,1.20000X0.25000*%
%ADD103R,1.00000X0.40000*%
%ADD114R,0.50000X0.45000*%
%ADD108R,3.23000X0.65000*%
%ADD98R,1.55000X0.75000*%
%ADD111R,1.20000X0.90000*%
%ADD106R,1.32400X1.09540*%
%ADD113R,1.32400X1.19700*%
X0Y0D02*
D02*
D97*
X44152050Y43779270D03*
Y44279270D03*
X45038050Y43782270D03*
Y44282270D03*
D02*
D98*
X43137050Y44592270D03*
Y44822270D03*
Y45052270D03*
D02*
D99*
X42507050Y44822270D03*
D02*
D100*
X43476050Y44824970D03*
Y45053570D03*
X44185550Y44810970D03*
Y45039570D03*
X46928050Y43791970D03*
Y44020570D03*
X47071050Y45870970D03*
Y46099570D03*
X47188050Y43790970D03*
Y44019570D03*
X47282050Y45872970D03*
Y46101570D03*
D02*
D101*
X43520800Y46620270D03*
Y46842270D03*
Y47064270D03*
X43523800Y46394530D03*
Y47495270D03*
X43711300Y46620270D03*
Y46842270D03*
Y47064270D03*
X43714300Y46394530D03*
Y47495270D03*
X44790300Y44727770D03*
Y44950270D03*
X44980800Y44727770D03*
Y44950270D03*
X47747800Y46432770D03*
X47752800Y46177770D03*
Y46682770D03*
X47755300Y45920270D03*
X47938300Y46432770D03*
X47943300Y46177770D03*
Y46682770D03*
X47945800Y45920270D03*
D02*
D102*
X45208050Y44740270D03*
Y45050270D03*
X45398050Y44740270D03*
Y45050270D03*
X48140550Y45920270D03*
X48140560Y46180270D03*
X48143050Y46432770D03*
Y46682770D03*
X48330550Y45920270D03*
X48330560Y46180270D03*
X48333050Y46432770D03*
Y46682770D03*
D02*
D103*
X43070050Y45692270D03*
X43290050Y45597270D03*
Y45787270D03*
X43702050Y44849270D03*
Y44944270D03*
Y45039270D03*
X43952050Y44849270D03*
Y45039270D03*
X44158050Y46637770D03*
Y46732770D03*
Y46827770D03*
X44408050Y46637770D03*
Y46732770D03*
Y46827770D03*
D02*
D104*
X43425550Y46080270D03*
X43730550D03*
D02*
D105*
X43975050Y45251770D03*
Y45316770D03*
Y45381770D03*
Y45446770D03*
X44415050Y45251770D03*
Y45316770D03*
Y45381770D03*
Y45446770D03*
D02*
D106*
X44792050Y45344020D03*
Y45534520D03*
X45051050Y45344020D03*
Y45534520D03*
D02*
D107*
X43100550Y46752770D03*
Y46817770D03*
Y46882770D03*
Y46947770D03*
Y47012770D03*
D02*
D108*
X42689050Y45469270D03*
Y45929270D03*
D02*
D109*
X46440140Y44531270D03*
Y44581270D03*
Y44631270D03*
Y44681270D03*
Y44731270D03*
Y44781270D03*
Y44831270D03*
Y44881270D03*
Y44931270D03*
Y44981270D03*
Y45031270D03*
Y45081270D03*
Y45131270D03*
Y45181270D03*
Y45231270D03*
Y45281270D03*
X47587740Y44531270D03*
Y44581270D03*
Y44631270D03*
Y44681270D03*
Y44731270D03*
Y44781270D03*
Y44831270D03*
Y44881270D03*
Y44931270D03*
Y44981270D03*
Y45031270D03*
Y45081270D03*
Y45131270D03*
Y45181270D03*
Y45231270D03*
Y45281270D03*
D02*
D110*
X46638940Y44332470D03*
Y45480070D03*
X46688940Y44332470D03*
Y45480070D03*
X46738940Y44332470D03*
Y45480070D03*
X46788940Y44332470D03*
Y45480070D03*
X46838940Y44332470D03*
Y45480070D03*
X46888940Y44332470D03*
Y45480070D03*
X46938940Y44332470D03*
Y45480070D03*
X46988940Y44332470D03*
Y45480070D03*
X47038940Y44332470D03*
Y45480070D03*
X47088940Y44332470D03*
Y45480070D03*
X47138940Y44332470D03*
Y45480070D03*
X47188940Y44332470D03*
Y45480070D03*
X47238940Y44332470D03*
Y45480070D03*
X47288940Y44332470D03*
Y45480070D03*
X47338940Y44332470D03*
Y45480070D03*
X47388940Y44332470D03*
Y45480070D03*
D02*
D111*
X46223050Y45875770D03*
Y46035770D03*
X46443050Y45875770D03*
Y46035770D03*
D02*
D112*
X46253050Y45706770D03*
Y46206270D03*
X46413050Y45706770D03*
Y46206270D03*
D02*
D113*
X43527750Y47279270D03*
X43756350D03*
X44261250Y47455270D03*
X44489850D03*
X45704750Y44890270D03*
Y45116270D03*
X45933350Y44890270D03*
Y45116270D03*
X48143750Y44806270D03*
X48372350D03*
D02*
D114*
X47464550Y45810270D03*
Y45945270D03*
X0Y0D02*
M02*
