G04 DesignSpark PCB Gerber Version 13.0 Build *
%FSLAX35Y35*%
%MOMM*%
%AMT27*0 Rounded Rectangle Pad at angle 0*4,1,32,-0.07500,-0.32500,0.07500,-0.32500,0.10830,-0.32120,0.13990,-0.31010,0.16830,-0.29220,0.19200,-0.26850,0.20980,-0.24010,0.22090,-0.20840,0.22500,-0.17500,0.22500,0.17500,0.22120,0.20830,0.21010,0.23990,0.19220,0.26830,0.16850,0.29200,0.14010,0.30980,0.10840,0.32090,0.07500,0.32500,-0.07500,0.32500,-0.10830,0.32120,-0.13990,0.31010,-0.16830,0.29220,-0.19200,0.26850,-0.20980,0.24010,-0.22090,0.20840,-0.22500,0.17500,-0.22500,-0.17500,-0.22120,-0.20830,-0.21010,-0.23990,-0.19220,-0.26830,-0.16850,-0.29200,-0.14010,-0.30980,-0.10840,-0.32090,-0.07500,-0.32500,0*%
%ADD27T27*%
%AMT95*0 Rounded Rectangle Pad at angle 0*4,1,44,-0.70000,-2.00000,0.70000,-2.00000,0.74690,-1.99630,0.79260,-1.98530,0.83600,-1.96730,0.87610,-1.94270,0.91180,-1.91210,0.94230,-1.87630,0.96680,-1.83620,0.98480,-1.79270,0.99570,-1.74700,1.00000,-1.70000,1.00000,1.70000,0.99630,1.74690,0.98530,1.79260,0.96730,1.83600,0.94270,1.87610,0.91210,1.91180,0.87630,1.94230,0.83620,1.96680,0.79270,1.98480,0.74700,1.99570,0.70000,2.00000,-0.70000,2.00000,-0.74690,1.99630,-0.79260,1.98530,-0.83600,1.96730,-0.87610,1.94270,-0.91180,1.91210,-0.94230,1.87630,-0.96680,1.83620,-0.98480,1.79270,-0.99570,1.74700,-1.00000,1.70000,-1.00000,-1.70000,-0.99630,-1.74690,-0.98530,-1.79260,-0.96730,-1.83600,-0.94270,-1.87610,-0.91210,-1.91180,-0.87630,-1.94230,-0.83620,-1.96680,-0.79270,-1.98480,-0.74700,-1.99570,-0.70000,-2.00000,0*%
%ADD95T95*%
%ADD88R,0.30000X1.47500*%
%ADD81R,0.85000X1.20000*%
%ADD79R,0.90000X1.40000*%
%ADD90R,1.02000X1.47000*%
%ADD78R,1.29540X1.52400*%
%ADD76R,1.39700X1.52400*%
%ADD73R,1.60000X3.20000*%
%ADD75R,1.75000X3.20000*%
%ADD77R,1.52400X1.52400*%
%ADD11C,0.12700*%
%ADD18C,0.20000*%
%ADD20C,0.25400*%
%ADD28C,0.38100*%
%ADD22C,0.54000*%
%ADD23C,0.80000*%
%ADD24C,0.81280*%
%ADD25C,1.00000*%
%AMT72*0 Rounded Rectangle Pad at angle 45*4,1,32,0.17670,-0.28280,0.28280,-0.17670,0.30370,-0.15040,0.31820,-0.12010,0.32560,-0.08730,0.32550,-0.05370,0.31790,-0.02100,0.30330,0.00910,0.28280,0.03530,0.03530,0.28280,0.00900,0.30370,-0.02120,0.31820,-0.05390,0.32560,-0.08740,0.32560,-0.12000,0.31810,-0.15020,0.30350,-0.17670,0.28280,-0.28280,0.17670,-0.30370,0.15040,-0.31820,0.12010,-0.32560,0.08730,-0.32550,0.05370,-0.31790,0.02100,-0.30330,-0.00910,-0.28280,-0.03530,-0.03530,-0.28280,-0.00900,-0.30370,0.02120,-0.31820,0.05390,-0.32560,0.08740,-0.32560,0.12000,-0.31810,0.15020,-0.30350,0.17670,-0.28280,0*%
%ADD72T72*%
%AMT26*0 Rounded Rectangle Pad at angle 90*4,1,32,0.32500,-0.07500,0.32500,0.07500,0.32120,0.10830,0.31010,0.13990,0.29220,0.16830,0.26850,0.19200,0.24010,0.20980,0.20840,0.22090,0.17500,0.22500,-0.17500,0.22500,-0.20830,0.22120,-0.23990,0.21010,-0.26830,0.19220,-0.29200,0.16850,-0.30980,0.14010,-0.32090,0.10840,-0.32500,0.07500,-0.32500,-0.07500,-0.32120,-0.10830,-0.31010,-0.13990,-0.29220,-0.16830,-0.26850,-0.19200,-0.24010,-0.20980,-0.20840,-0.22090,-0.17500,-0.22500,0.17500,-0.22500,0.20830,-0.22120,0.23990,-0.21010,0.26830,-0.19220,0.29200,-0.16850,0.30980,-0.14010,0.32090,-0.10840,0.32500,-0.07500,0*%
%ADD26T26*%
%AMT29*0 Rounded Rectangle Pad at angle 135*4,1,32,0.28280,0.17670,0.17670,0.28280,0.15040,0.30370,0.12010,0.31820,0.08730,0.32560,0.05370,0.32550,0.02100,0.31790,-0.00910,0.30330,-0.03530,0.28280,-0.28280,0.03530,-0.30370,0.00900,-0.31820,-0.02120,-0.32560,-0.05390,-0.32560,-0.08740,-0.31810,-0.12000,-0.30350,-0.15020,-0.28280,-0.17670,-0.17670,-0.28280,-0.15040,-0.30370,-0.12010,-0.31820,-0.08730,-0.32560,-0.05370,-0.32550,-0.02100,-0.31790,0.00910,-0.30330,0.03530,-0.28280,0.28280,-0.03530,0.30370,-0.00900,0.31820,0.02120,0.32560,0.05390,0.32560,0.08740,0.31810,0.12000,0.30350,0.15020,0.28280,0.17670,0*%
%ADD29T29*%
%AMT96*0 Rounded Rectangle Pad at angle 90*4,1,44,2.00000,-0.70000,2.00000,0.70000,1.99630,0.74690,1.98530,0.79260,1.96730,0.83600,1.94270,0.87610,1.91210,0.91180,1.87630,0.94230,1.83620,0.96680,1.79270,0.98480,1.74700,0.99570,1.70000,1.00000,-1.70000,1.00000,-1.74690,0.99630,-1.79260,0.98530,-1.83600,0.96730,-1.87610,0.94270,-1.91180,0.91210,-1.94230,0.87630,-1.96680,0.83620,-1.98480,0.79270,-1.99570,0.74700,-2.00000,0.70000,-2.00000,-0.70000,-1.99630,-0.74690,-1.98530,-0.79260,-1.96730,-0.83600,-1.94270,-0.87610,-1.91210,-0.91180,-1.87630,-0.94230,-1.83620,-0.96680,-1.79270,-0.98480,-1.74700,-0.99570,-1.70000,-1.00000,1.70000,-1.00000,1.74690,-0.99630,1.79260,-0.98530,1.83600,-0.96730,1.87610,-0.94270,1.91180,-0.91210,1.94230,-0.87630,1.96680,-0.83620,1.98480,-0.79270,1.99570,-0.74700,2.00000,-0.70000,0*%
%ADD96T96*%
%ADD87R,1.47500X0.30000*%
%ADD84R,1.20000X0.45000*%
%ADD82R,1.40000X0.45000*%
%ADD80R,1.20000X0.60000*%
%ADD92R,0.70000X0.65000*%
%ADD86R,3.43000X0.85000*%
%ADD74R,1.75000X0.95000*%
%ADD89R,1.40000X1.10000*%
%ADD83R,1.52400X1.29540*%
%ADD93C,1.50000*%
%ADD85C,1.60000*%
%ADD91R,1.52400X1.39700*%
%ADD94C,2.52400*%
X0Y0D02*
D02*
D11*
X42423050Y45162520D02*
Y44988600D01*
X42600900D01*
Y44655900D01*
X42423050D01*
Y44488770D01*
X42663050D01*
Y44710270D01*
X43808050D01*
Y44885270D01*
X43768400D01*
Y44812900D01*
X43635700D01*
Y44885270D01*
X43588050D01*
Y44940270D01*
X42663050D01*
Y45162520D01*
X42423050D01*
X42884200Y44800160D02*
Y44840380D01*
G75*
G02*
X42902940Y44859120I18740J0D01*
G01*
X42923160D01*
G75*
G02*
X42941900Y44840380I0J-18740D01*
G01*
Y44800160D01*
G75*
G02*
X42923160Y44781420I-18740J0D01*
G01*
X42902940D01*
G75*
G02*
X42884200Y44800160I0J18740D01*
G01*
X43043200Y44876100D02*
X43230900D01*
Y44768400D01*
X43043200D01*
Y44876100D01*
X43289200Y44800160D02*
Y44840380D01*
G75*
G02*
X43307940Y44859120I18740J0D01*
G01*
X43328160D01*
G75*
G02*
X43346900Y44840380I0J-18740D01*
G01*
Y44800160D01*
G75*
G02*
X43328160Y44781420I-18740J0D01*
G01*
X43307940D01*
G75*
G02*
X43289200Y44800160I0J18740D01*
G01*
X43399850Y44907500D02*
X43552250D01*
Y44742400D01*
X43399850D01*
Y44907500D01*
X42490700Y45074410D02*
Y45094630D01*
G75*
G02*
X42509440Y45113370I18740J0D01*
G01*
X42549660D01*
G75*
G02*
X42568400Y45094630I0J-18740D01*
G01*
Y45074410D01*
G75*
G02*
X42549660Y45055670I-18740J0D01*
G01*
X42509440D01*
G75*
G02*
X42490700Y45074410I0J18740D01*
G01*
X42649200Y44800160D02*
Y44840380D01*
G75*
G02*
X42667940Y44859120I18740J0D01*
G01*
X42688160D01*
G75*
G02*
X42706900Y44840380I0J-18740D01*
G01*
Y44800160D01*
G75*
G02*
X42688160Y44781420I-18740J0D01*
G01*
X42667940D01*
G75*
G02*
X42649200Y44800160I0J18740D01*
G01*
X42490700Y44547410D02*
Y44567630D01*
G75*
G02*
X42509440Y44586370I18740J0D01*
G01*
X42549660D01*
G75*
G02*
X42568400Y44567630I0J-18740D01*
G01*
Y44547410D01*
G75*
G02*
X42549660Y44528670I-18740J0D01*
G01*
X42509440D01*
G75*
G02*
X42490700Y44547410I0J18740D01*
G01*
X42429400Y44557520D02*
G36*
X42429400Y44557520D02*
Y44495120D01*
X42663050D01*
Y44557520D01*
X42568400D01*
Y44547410D01*
G75*
G02*
Y44547400I-14690J0D01*
G01*
G75*
G02*
X42549660Y44528670I-18740J0D01*
G01*
X42509440D01*
G75*
G02*
X42490700Y44547380I-30J18710D01*
G01*
G75*
G02*
Y44547410I18680J20D01*
G01*
Y44557520D01*
X42429400D01*
G37*
Y44655900D02*
G36*
X42429400Y44655900D02*
Y44557520D01*
X42490700D01*
Y44567630D01*
G75*
G02*
Y44567640I14690J10D01*
G01*
G75*
G02*
X42509440Y44586370I18740J0D01*
G01*
X42549660D01*
G75*
G02*
X42568400Y44567630I0J-18740D01*
G01*
Y44557520D01*
X42663050D01*
Y44710270D01*
X43801700D01*
Y44820270D01*
X43768400D01*
Y44812900D01*
X43635700D01*
Y44820270D01*
X43552250D01*
Y44742400D01*
X43399850D01*
Y44820270D01*
X43346900D01*
Y44800160D01*
G75*
G02*
Y44800150I-14690J0D01*
G01*
G75*
G02*
X43328160Y44781420I-18740J0D01*
G01*
X43307940D01*
G75*
G02*
X43289200Y44800130I-30J18710D01*
G01*
G75*
G02*
Y44800160I18680J20D01*
G01*
Y44820270D01*
X43230900D01*
Y44768400D01*
X43043200D01*
Y44820270D01*
X42941900D01*
Y44800160D01*
G75*
G02*
Y44800150I-14690J0D01*
G01*
G75*
G02*
X42923160Y44781420I-18740J0D01*
G01*
X42902940D01*
G75*
G02*
X42884200Y44800130I-30J18710D01*
G01*
G75*
G02*
Y44800160I18680J20D01*
G01*
Y44820270D01*
X42706900D01*
Y44800160D01*
G75*
G02*
Y44800150I-14690J0D01*
G01*
G75*
G02*
X42688160Y44781420I-18740J0D01*
G01*
X42667940D01*
G75*
G02*
X42649200Y44800130I-30J18710D01*
G01*
G75*
G02*
Y44800160I18680J20D01*
G01*
Y44820270D01*
X42600900D01*
Y44655900D01*
X42429400D01*
G37*
Y45084520D02*
G36*
X42429400Y45084520D02*
Y44988600D01*
X42600900D01*
Y44820270D01*
X42649200D01*
Y44840380D01*
G75*
G02*
Y44840390I14690J10D01*
G01*
G75*
G02*
X42667940Y44859120I18740J0D01*
G01*
X42688160D01*
G75*
G02*
X42706900Y44840380I0J-18740D01*
G01*
Y44820270D01*
X42884200D01*
Y44840380D01*
G75*
G02*
Y44840390I14690J10D01*
G01*
G75*
G02*
X42902940Y44859120I18740J0D01*
G01*
X42923160D01*
G75*
G02*
X42941900Y44840380I0J-18740D01*
G01*
Y44820270D01*
X43043200D01*
Y44876100D01*
X43230900D01*
Y44820270D01*
X43289200D01*
Y44840380D01*
G75*
G02*
Y44840390I14690J10D01*
G01*
G75*
G02*
X43307940Y44859120I18740J0D01*
G01*
X43328160D01*
G75*
G02*
X43346900Y44840380I0J-18740D01*
G01*
Y44820270D01*
X43399850D01*
Y44907500D01*
X43552250D01*
Y44820270D01*
X43635700D01*
Y44885270D01*
X43588050D01*
Y44940270D01*
X42663050D01*
Y45084520D01*
X42568400D01*
Y45074410D01*
G75*
G02*
Y45074400I-14690J0D01*
G01*
G75*
G02*
X42549660Y45055670I-18740J0D01*
G01*
X42509440D01*
G75*
G02*
X42490700Y45074380I-30J18710D01*
G01*
G75*
G02*
Y45074410I18680J20D01*
G01*
Y45084520D01*
X42429400D01*
G37*
X43768400Y44885270D02*
G36*
X43768400Y44885270D02*
Y44820270D01*
X43801700D01*
Y44885270D01*
X43768400D01*
G37*
X42429400Y45156170D02*
G36*
X42429400Y45156170D02*
Y45084520D01*
X42490700D01*
Y45094630D01*
G75*
G02*
Y45094640I14690J10D01*
G01*
G75*
G02*
X42509440Y45113370I18740J0D01*
G01*
X42549660D01*
G75*
G02*
X42568400Y45094630I0J-18740D01*
G01*
Y45084520D01*
X42663050D01*
Y45156170D01*
X42429400D01*
G37*
X45953050Y46375770D02*
Y45470270D01*
X46006720Y45416600D01*
X46581400D01*
G75*
G02*
X46597600Y45413310I1060J-36320D01*
G01*
Y45448900D01*
X46596030D01*
G75*
G02*
X46571440Y45436420I-24590J17980D01*
G01*
X46514660D01*
G75*
G02*
X46484200Y45466880I0J30460D01*
G01*
Y45503660D01*
G75*
G02*
X46514660Y45534120I30460J0D01*
G01*
X46571440D01*
G75*
G02*
X46596060Y45521600I0J-30460D01*
G01*
X46597600D01*
Y45558900D01*
X46298050D01*
G75*
G02*
X46271530Y45570390I0J36350D01*
G01*
X46235020Y45606900D01*
X46175700D01*
Y45794400D01*
X46126700D01*
Y45957100D01*
X46319400D01*
Y45806600D01*
X46330400D01*
Y45631600D01*
X46671590D01*
G75*
G02*
X46698760Y45620980I1460J-36330D01*
G01*
X46702600Y45617140D01*
Y45667990D01*
G75*
G02*
X46699990Y45672170I29490J21320D01*
G01*
G75*
G02*
X46695690Y45689320I32050J17150D01*
G01*
G75*
G02*
X46695700Y45690150I36420J-20D01*
G01*
Y46403120D01*
X46603050Y46495770D01*
X46073050D01*
X45953050Y46375770D01*
X46335700Y46306100D02*
X46490400D01*
Y46117100D01*
X46539400D01*
Y45954400D01*
X46346700D01*
Y46106400D01*
X46335700D01*
Y46306100D01*
X45959400Y46130250D02*
G36*
X45959400Y46130250D02*
Y45463920D01*
X46003660Y45419660D01*
X46597600D01*
Y45448900D01*
X46596030D01*
G75*
G02*
X46571440Y45436420I-24570J17950D01*
G01*
X46514660D01*
G75*
G02*
X46484200Y45466870I0J30450D01*
G01*
G75*
G02*
Y45466880I63660J10D01*
G01*
Y45503660D01*
G75*
G02*
X46514660Y45534120I30460J0D01*
G01*
X46571440D01*
G75*
G02*
X46596060Y45521600I0J-30470D01*
G01*
X46597600D01*
Y45558900D01*
X46298050D01*
G75*
G02*
X46271530Y45570390I-40J36250D01*
G01*
X46235020Y45606900D01*
X46175700D01*
Y45794400D01*
X46126700D01*
Y45957100D01*
X46319400D01*
Y45806600D01*
X46330400D01*
Y45631600D01*
X46671590D01*
G75*
G02*
X46696250Y45623260I1430J-36400D01*
G01*
Y45682940D01*
G75*
G02*
X46695690Y45689290I35700J6350D01*
G01*
G75*
G02*
Y45689320I37370J20D01*
G01*
G75*
G02*
Y45689530I17880J110D01*
G01*
G75*
G02*
X46695700Y45690150I17300J30D01*
G01*
Y46130250D01*
X46490400D01*
Y46117100D01*
X46539400D01*
Y45954400D01*
X46346700D01*
Y46106400D01*
X46335700D01*
Y46130250D01*
X45959400D01*
G37*
Y46382120D02*
G36*
X45959400Y46382120D02*
Y46130250D01*
X46335700D01*
Y46306100D01*
X46490400D01*
Y46130250D01*
X46695700D01*
Y46403120D01*
X46609400Y46489420D01*
X46066700D01*
X45959400Y46382120D01*
G37*
X48273050Y46780270D02*
Y45820270D01*
X48403050D01*
Y46050270D01*
X48743050D01*
Y46235270D01*
X48413050D01*
Y46775270D01*
X48273050Y46780270D01*
X48558500Y46229800D02*
X48723600D01*
Y46064700D01*
X48558500D01*
Y46229800D01*
X48279200Y45996600D02*
X48381900D01*
Y45843900D01*
X48279200D01*
Y45996600D01*
Y46256600D02*
X48381900D01*
Y46103900D01*
X48279200D01*
Y46256600D01*
X48281700Y46509100D02*
X48384400D01*
Y46356400D01*
X48281700D01*
Y46509100D01*
Y46759100D02*
X48384400D01*
Y46606400D01*
X48281700D01*
Y46759100D01*
X48279400Y45843900D02*
G36*
X48279400Y45843900D02*
Y45826620D01*
X48403050D01*
Y45920250D01*
X48381900D01*
Y45843900D01*
X48279400D01*
G37*
Y46103900D02*
G36*
X48279400Y46103900D02*
Y45996600D01*
X48381900D01*
Y45920250D01*
X48403050D01*
Y46050270D01*
X48736700D01*
Y46147250D01*
X48723600D01*
Y46064700D01*
X48558500D01*
Y46147250D01*
X48381900D01*
Y46103900D01*
X48279400D01*
G37*
Y46432750D02*
G36*
X48279400Y46432750D02*
Y46256600D01*
X48381900D01*
Y46147250D01*
X48558500D01*
Y46229800D01*
X48723600D01*
Y46147250D01*
X48736700D01*
Y46235270D01*
X48413050D01*
Y46432750D01*
X48384400D01*
Y46356400D01*
X48281700D01*
Y46432750D01*
X48279400D01*
G37*
Y46682750D02*
G36*
X48279400Y46682750D02*
Y46432750D01*
X48281700D01*
Y46509100D01*
X48384400D01*
Y46432750D01*
X48413050D01*
Y46682750D01*
X48384400D01*
Y46606400D01*
X48281700D01*
Y46682750D01*
X48279400D01*
G37*
Y46773920D02*
G36*
X48279400Y46773920D02*
Y46682750D01*
X48281700D01*
Y46759100D01*
X48384400D01*
Y46682750D01*
X48413050D01*
Y46773920D01*
X48279400D01*
G37*
D02*
D18*
X42546050Y47710270D02*
X42548050D01*
Y47495270D01*
X42546050Y48160270D02*
Y47710270D01*
X42548050Y47495270D02*
Y47442270D01*
X42358050Y47252270D01*
Y43308270D01*
X42540050Y43126270D01*
X45541000D01*
X45598000Y43183270D01*
Y43301000D01*
X42900550Y46460270D02*
X42894300D01*
X42894050Y46460020D01*
X42725550D01*
Y46460270D01*
X43100550Y46817770D02*
X43229550D01*
X43427050Y46620270D01*
X43520800D01*
X43100550Y46882770D02*
X43282550D01*
X43323050Y46842270D01*
X43520800D01*
Y47064270D02*
X43415550D01*
X43300550Y46949270D01*
Y46947770D01*
X43100550D01*
X43523800Y46394530D02*
X43520050D01*
Y46310270D01*
G75*
G03*
X43575050Y46255270I55000J0D01*
G01*
X43778050D01*
G75*
G02*
X43880550Y46152770I0J-102500D01*
G01*
Y45860270D01*
G75*
G03*
X43973050Y45767770I92500J0D01*
G01*
X45103050D01*
G75*
G02*
X45203050Y45667770I0J-100000D01*
G01*
Y45381270D01*
G75*
G03*
X45303050Y45281270I100000J0D01*
G01*
X46440140D01*
X43523800Y47495270D02*
X42548050D01*
X43523800D02*
Y47283220D01*
X43527750Y47279270D01*
X43863050Y46390270D02*
X43714300D01*
Y46394530D01*
X43975050Y45381770D02*
Y45316770D01*
Y45446770D02*
Y45560270D01*
X44158050Y46637770D02*
X44073800D01*
X43935550Y46776020D01*
X43878800D01*
X43834550Y46820270D01*
X43797550D01*
X43775550Y46842270D01*
X43711300D01*
X44158050Y46827770D02*
X44026300D01*
X43895550Y46958520D01*
Y46966770D01*
X43798050Y47064270D01*
X43711300D01*
X44170600Y48144000D02*
X44170550Y48142770D01*
X44033050D01*
G75*
G03*
X43948050Y48057770I0J-85000D01*
G01*
Y47665270D01*
X44025550Y47587770D01*
Y47127770D01*
G75*
G03*
X44103050Y47050270I77500J0D01*
G01*
X44605550D01*
G75*
G02*
X44700550Y46955270I0J-95000D01*
G01*
Y45975270D01*
G75*
G03*
X44800550Y45875270I100000J0D01*
G01*
X45095550D01*
G75*
G02*
X45305550Y45665270I0J-210000D01*
G01*
Y45430270D01*
G75*
G03*
X45355550Y45380270I50000J0D01*
G01*
X46582450D01*
X46776750Y45185970D01*
Y45027670D01*
X46843450Y44960970D01*
X47301350D01*
X47379050Y44883270D01*
Y44802970D01*
X47399750Y44782270D01*
X47586850D01*
X47587740Y44781270D01*
X44213050Y45450270D02*
X44158050D01*
X44059050Y45351270D01*
X43975050D01*
Y45381770D01*
X44261250Y47455270D02*
X44165550D01*
Y47847770D01*
X44408050Y46637770D02*
X44483050D01*
Y46635270D01*
X44545550D01*
X44408050Y46732770D02*
X44545550D01*
X44424600Y48144000D02*
Y48232770D01*
G75*
G03*
X44374600Y48282770I-50000J0D01*
G01*
X43995550D01*
G75*
G03*
X43895550Y48182770I0J-100000D01*
G01*
Y47626970D01*
X43973050Y47549470D01*
Y47117770D01*
G75*
G03*
X44089550Y47001270I116500J0D01*
G01*
X44588050D01*
G75*
G02*
X44653050Y46936270I0J-65000D01*
G01*
Y45972770D01*
G75*
G03*
X44805550Y45820270I152500J0D01*
G01*
X45100550D01*
G75*
G02*
X45253050Y45667770I0J-152500D01*
G01*
Y45407770D01*
G75*
G03*
X45328050Y45332770I75000J0D01*
G01*
X46563150D01*
X46731350Y45164570D01*
Y45008870D01*
X46824650Y44915570D01*
X47277750D01*
X47325050Y44868270D01*
Y44776570D01*
X47371350Y44730270D01*
X47586850D01*
X47587740Y44731270D01*
X44545550Y46826020D02*
X44540550D01*
Y46827770D01*
X44408050D01*
X44678600Y48144000D02*
Y48043320D01*
X44630550Y47995270D01*
X44188050D01*
X44165550Y47972770D01*
Y47847770D01*
X44790300Y44950270D02*
Y44965520D01*
X44793050Y44962770D01*
Y44955270D01*
X44980800Y44950270D02*
X44983050D01*
X45083050Y45050270D01*
X45208050D01*
Y44740270D02*
Y44727770D01*
X44980800D01*
X45640550Y46705270D02*
Y46957770D01*
X45504550Y47093770D01*
X45440600D01*
X45778050Y44740270D02*
X46056750D01*
X46088050Y44771570D01*
Y44815270D01*
X46155550Y44882770D01*
X46308050D01*
X46309550Y44881270D01*
X46440140D01*
X45838050Y44650270D02*
X46075550D01*
X46138050Y44712770D01*
Y44780270D01*
X46188050Y44830270D01*
X46295550D01*
X46296550Y44831270D01*
X46440140D01*
X45933050Y44585270D02*
X46088450D01*
X46193450Y44690270D01*
Y44756870D01*
X46216850Y44780270D01*
X46300550D01*
X46301550Y44781270D01*
X46440140D01*
X46223050Y45875770D02*
X46240550D01*
Y45706770D01*
X46253050D01*
X46223050Y45875770D02*
X46243050D01*
Y45650270D01*
X46298050Y45595270D01*
X46673050D01*
X46688940Y45579380D01*
Y45480070D01*
X46278050Y45115270D02*
X46291050D01*
X46307050Y45131270D01*
X46440140D01*
X46411390Y46185270D02*
Y46208610D01*
X46443050Y46240270D01*
Y46035770D01*
X46413050Y46206270D02*
Y46195770D01*
X46411390D01*
Y46185270D01*
X46440140Y44531270D02*
X46348050D01*
Y44512770D01*
X46278050D01*
X46440140Y44581270D02*
X46558050D01*
X46566550Y44572770D01*
X46603050D01*
X46440140Y44631270D02*
X46283050D01*
X46280550Y44628770D01*
Y44607770D01*
X46440140Y44681270D02*
X46554050D01*
X46603050Y44730270D01*
X46440140Y44731270D02*
X46280550D01*
Y44702770D01*
X46440140Y45081270D02*
X46597850D01*
X46598050Y45081070D01*
X46633050Y47833270D02*
Y47830670D01*
X47240550Y47223170D01*
Y47095270D01*
X46638940Y44332470D02*
Y44253650D01*
X46637050D01*
Y44175270D01*
X46638940Y45480070D02*
X46638050D01*
Y45485270D01*
X46543050D01*
X46688050Y47680270D02*
X46708050D01*
X47178050Y47210270D01*
Y46977770D01*
X46688940Y44332470D02*
Y44219380D01*
X46728050Y44180270D01*
Y44175270D01*
X46738940Y45480070D02*
Y45682430D01*
X46732050Y45689320D01*
Y47255270D01*
X46423750Y47563570D01*
Y48009450D01*
X46456600Y48042300D01*
Y48144000D01*
X46746050Y47792270D02*
Y47855270D01*
X46629050Y47972270D01*
Y48227270D01*
X46576050Y48280270D01*
X45997600D01*
X45948600Y48231270D01*
Y48144000D01*
X46788940Y45480070D02*
Y45689610D01*
X46780750Y45697800D01*
Y47277570D01*
X46491050Y47567270D01*
Y47833270D01*
X46838940Y44332470D02*
Y44478660D01*
X46875550Y44515270D01*
X46933050Y44015270D02*
Y44075270D01*
X46887550Y44124270D01*
Y44333470D01*
X46888550Y44332470D01*
X46888940D01*
X46988940D02*
Y44562160D01*
X47106050Y44679270D01*
X47107050D01*
X47128050Y44700270D01*
X47038940Y44332470D02*
Y44541160D01*
X47188050Y44690270D01*
Y44730270D01*
X47088940Y45480070D02*
Y45593660D01*
X47113050Y45617770D01*
Y45662770D01*
X47115550Y47097770D02*
Y47202770D01*
X46708050Y47610270D01*
X46668050D01*
X46608050Y47670270D01*
X46568050D01*
X47128050Y44820270D02*
Y44700270D01*
X47134050Y45245270D02*
X47013050D01*
X46988940Y45269380D01*
Y45480070D01*
X47138940D02*
Y45409070D01*
X47137050D01*
Y45337770D01*
X47188940Y45480070D02*
Y45601160D01*
X47208050Y45620270D01*
Y45662770D01*
X47238940Y44332470D02*
Y44569380D01*
X47233050Y44575270D01*
X47238940Y45480070D02*
Y45276160D01*
X47208050Y45245270D01*
X47134050D01*
X47238940Y45480070D02*
X47238050D01*
X47288940Y44332470D02*
X47288050D01*
Y44472770D01*
X47328050Y44512770D01*
Y44575270D01*
X47288940Y45480070D02*
Y45658660D01*
X47363050Y45732770D01*
X47427050D01*
X47464550Y45770270D01*
Y45810270D01*
X47338940Y44332470D02*
Y44452160D01*
X47420550Y44533770D01*
Y44572770D01*
X47338940Y45480070D02*
Y45537230D01*
X47338350Y45537820D01*
Y45632670D01*
X47373650Y45667970D01*
X47463650D01*
X47568650Y45772970D01*
X48495050D01*
X48615350Y45893270D01*
X48641050D01*
X47373050Y47567770D02*
X47364550D01*
X47119050Y47813270D01*
Y48140270D01*
X47373050D02*
Y47700270D01*
X47378050Y47465270D02*
X47363050D01*
X46865050Y47963270D01*
Y48140270D01*
X47388940Y44332470D02*
X47420250D01*
X47422450Y44330270D01*
X47553050D01*
X47464550Y45945270D02*
Y46160270D01*
X47374550Y46250270D01*
X46960550D01*
X46833050Y46377770D01*
Y47340270D01*
X46610550Y47562770D01*
X46598050D01*
X47464550Y45945270D02*
X47354350D01*
X47282050Y45872970D01*
X47587740Y44531270D02*
X47668750D01*
X47672650Y44527370D01*
X47881750D01*
X47910150Y44498970D01*
Y43717920D01*
X47841750Y43649520D01*
X46092700D01*
X46011800Y43730420D01*
Y44469020D01*
X45970550Y44510270D01*
X45825550D01*
X47587740Y44581270D02*
X47772050D01*
X47773050Y44580270D01*
X47900550D01*
X47955550Y44525270D01*
Y43694020D01*
X47860550Y43599020D01*
X46072300D01*
X45964800Y43706520D01*
Y44424270D01*
X45938800Y44450270D01*
X45930550D01*
X47587740Y44631270D02*
X47686040D01*
X47687040Y44630270D01*
X47919350D01*
X48000950Y44548670D01*
Y43665620D01*
X47879350Y43544020D01*
X46051650D01*
X45917550Y43678120D01*
Y44348770D01*
X45873550Y44392770D01*
X45823050D01*
X47587740Y44681270D02*
X47378050Y44680270D01*
X47318050D01*
X47248050Y44750270D01*
Y44820270D01*
X47587740Y44981270D02*
X47351050D01*
X47338050Y44994270D01*
Y45056270D01*
X47587740Y45131270D02*
X48014050D01*
X48092050Y45209270D01*
Y45329270D01*
X47587740Y45181270D02*
X47837010D01*
X47985010Y45329270D01*
X47587740Y45231270D02*
X47810550D01*
X47869920Y45290640D01*
Y45329270D01*
X47587740Y45281270D02*
X47670050D01*
Y45282270D01*
X47717050Y45329270D01*
X47754820D01*
X47621050Y47402770D02*
X47691050D01*
X47881050Y47592770D01*
Y48140270D01*
X47621050Y47642270D02*
Y48134270D01*
X47627050Y48140270D01*
X47747800Y46432770D02*
X47580800D01*
X47752800Y46177770D02*
X47590800D01*
X47588300Y46175270D01*
X47752800Y46682770D02*
X47580800D01*
X47755300Y45920270D02*
X47605800D01*
X47593300Y45932770D01*
X47938300Y46432770D02*
X48143050D01*
X47943300Y46682770D02*
X48143050D01*
X48140550Y45920270D02*
X47945800D01*
X48140560Y46180270D02*
X47983290D01*
X47943300Y46177770D01*
X48184050Y45155270D02*
Y45154270D01*
X48111050Y45081270D01*
X47587740D01*
X48208050Y45031270D02*
X47587740D01*
X48641050Y45639270D02*
Y45640270D01*
X48568350D01*
X48485350Y45723270D01*
X47583150D01*
X47482450Y45622570D01*
X47400350D01*
X47388940Y45611160D01*
Y45480070D01*
X48641050Y46655270D02*
Y46771270D01*
X48676050Y46806270D01*
X49056550D01*
X49090550Y46772270D01*
Y45893270D01*
X48942050D01*
X49088050D01*
Y44987770D01*
G75*
G02*
X49050550Y44950270I-37500J0D01*
G01*
X49048050D01*
X48942050Y46147270D02*
Y46145270D01*
X48932050Y46135270D01*
Y46129270D01*
X48876050Y46073270D01*
Y46072270D01*
X48699050Y45895270D01*
X48649050D01*
X48647050Y45893270D01*
X48641050D01*
X49048050Y44950270D02*
Y44960270D01*
X47702050D01*
X47673050Y44931270D01*
X47587740D01*
D02*
D20*
X43070550Y46522770D02*
X42995050D01*
Y46728270D01*
X43019550Y46752770D01*
X43100550D01*
Y47012770D02*
Y47012520D01*
X42643550D01*
X42523050Y46892020D01*
Y46126270D01*
X42689050Y45960270D01*
Y45929270D01*
X43702050Y45039270D02*
X43700550D01*
X43975050Y45251770D02*
X43813050D01*
Y45250270D01*
X43788050D01*
X44415050Y45446770D02*
Y45511520D01*
X44433550Y45530020D01*
X44792050D01*
Y45534520D01*
Y45344020D02*
X44664800D01*
X44627050Y45381770D01*
X44415050D01*
X46278050Y45220270D02*
Y45231270D01*
X46440140D01*
Y44931270D02*
X46598050D01*
X46440140Y44981270D02*
X46278050Y44980270D01*
X46440140Y45181270D02*
X46598050D01*
X46938940Y44332470D02*
Y44177270D01*
X46989550Y44175270D01*
X46938940Y45480070D02*
Y45693160D01*
X47111050Y45865270D01*
X47118050D01*
X47138940Y44332470D02*
Y44409260D01*
X47137050D01*
Y44486270D01*
X47188940Y44332470D02*
Y44188160D01*
X47188050Y44187270D01*
Y44015270D01*
X47298050Y46977770D02*
Y47240270D01*
X46746050Y47792270D01*
X47587740Y44831270D02*
X47686050D01*
X47706350Y44810970D01*
X47773050D01*
X47587740Y44881270D02*
X47709050D01*
X47723050Y44895270D01*
X47773050D01*
X48143750Y44806270D02*
X47953050D01*
X47865050Y44894270D01*
Y44895270D01*
X47773050D01*
D02*
D22*
X42507050Y44689270D02*
Y44635300D01*
Y44955270D02*
Y45009300D01*
X42524050Y45084520D02*
X42470050D01*
X42526790Y44554760D02*
X42484660Y44512630D01*
X42526790Y44560280D02*
X42484660Y44602410D01*
X42529550Y45080020D02*
Y45134020D01*
Y45089020D02*
Y45035020D01*
X42532310Y44554760D02*
X42574440Y44512630D01*
X42532310Y44560280D02*
X42574440Y44602410D01*
X42535050Y45084520D02*
X42589050D01*
X42567550Y44822270D02*
X42621550D01*
X42673550Y44820270D02*
X42727550D01*
X42678050Y44814770D02*
Y44760770D01*
Y44825770D02*
Y44879770D01*
X42682550Y44820270D02*
X42628550D01*
X42689050Y45469270D02*
X42847050D01*
X43070050Y45692270D01*
X42900550Y46460270D02*
X43008050D01*
X43070550Y46522770D01*
X42908550Y44820270D02*
X42962550D01*
X42913050Y44814770D02*
Y44760770D01*
Y44820270D02*
X42678050D01*
X42913050Y44825770D02*
Y44879770D01*
X42917550Y44820270D02*
X42863550D01*
X43070050Y45692270D02*
Y45882270D01*
X43076550Y44822270D02*
X43022550D01*
X43137050Y44801770D02*
Y44747800D01*
Y44822270D02*
X43318050Y44820270D01*
X43137050Y44842770D02*
Y44896800D01*
X43197550Y44822270D02*
X43251550D01*
X43290050Y45597270D02*
X43482050D01*
X43313550Y44820270D02*
X43367550D01*
X43318050Y44814770D02*
Y44760770D01*
Y44820270D02*
X43473350Y44822270D01*
X43476050Y44824970D01*
X43318050Y44825770D02*
Y44879770D01*
X43322550Y44820270D02*
X43268550D01*
X43433200Y44824970D02*
X43379200D01*
X43476050Y45053570D02*
X43475050D01*
Y45207270D01*
X43518050Y45250270D01*
X43603050D01*
X43476050Y45053570D02*
Y45052270D01*
X43137050D01*
X43518900Y44824970D02*
X43572900D01*
X43669050Y44849270D02*
X43615050D01*
X43702050Y44846270D02*
Y44792300D01*
X43711300Y46620270D02*
X43713050D01*
X43801050D01*
Y46619270D01*
X43843050Y46620270D01*
X43714300Y47495270D02*
X43762050D01*
Y47492270D01*
X43718050D01*
X43756350Y47279270D02*
X43757050D01*
Y47275270D01*
X43758050D01*
X43843050Y46620270D02*
X43858050D01*
X43943050Y46535270D01*
X44098050D01*
X44233050D01*
X44152050Y43779270D02*
X43979050Y43778270D01*
X44152050Y44279270D02*
X43605050D01*
X43292050Y44592270D01*
X43137050D01*
X44153800Y44279270D02*
X44155300D01*
X44406300Y44028270D01*
X45205800D01*
X45324050Y43910020D01*
Y43580270D01*
X45436800Y43467520D01*
X46822550D01*
X46868000Y43422070D01*
Y43301000D01*
X44153800Y44279270D02*
X44152050D01*
X44185550Y44810970D02*
X44184430D01*
Y44806270D01*
X44183800D01*
X44233050Y46535270D02*
X44258050D01*
X44283050Y46560270D01*
Y46645270D01*
Y46710270D01*
X44260550Y46732770D01*
X44158050D01*
X44489850Y47455270D02*
X44493050D01*
X44498050Y47450270D01*
X44792050Y45344020D02*
X45051050D01*
X45033050Y44280270D02*
X45036050D01*
X45038050Y44282270D01*
Y44425270D01*
X44790300Y44673020D01*
Y44727770D01*
X45051050Y45534520D02*
Y45535270D01*
X45206050Y43778270D02*
X45035050Y43779270D01*
X45038050Y43782270D01*
X45398050Y44740270D02*
Y44921020D01*
X45419300Y44899770D01*
X45402550D01*
X45398050Y44895270D01*
Y45050270D02*
Y44921020D01*
Y45050270D02*
Y45057520D01*
X45452800Y45112270D01*
X45700750D01*
X45704750Y45116270D01*
Y44890270D02*
Y44892270D01*
X45627050D01*
Y44895270D01*
X45398050D01*
X45704750Y45116270D02*
Y44890270D01*
X46386550Y44020770D02*
X46184550D01*
X46386550Y44245770D02*
X46184550D01*
X47057050Y43791270D02*
X46929050Y43790970D01*
X46928050Y43791970D01*
X47071050Y46099570D02*
Y46100270D01*
X47175550D01*
X47118050Y45865270D02*
X47070550D01*
Y45847770D01*
X47071050D01*
Y45870970D01*
X47188050Y43790970D02*
X47057050Y43791270D01*
X47188050Y44015270D02*
Y44019570D01*
X47282050Y46101570D02*
X47073050D01*
X47071050Y46099570D01*
X48330550Y45920270D02*
Y46180260D01*
X48330560Y46180270D01*
X48330550Y45963270D02*
Y46017300D01*
X48330560Y46137270D02*
Y46083300D01*
Y46223270D02*
Y46277300D01*
X48333050Y46389770D02*
Y46335800D01*
Y46475770D02*
Y46529800D01*
Y46639770D02*
Y46585800D01*
Y46682770D02*
Y46182760D01*
X48330560Y46180270D01*
X48348560D02*
X48402600D01*
X48372350Y44806270D02*
X48377050D01*
X48591850Y46147270D02*
X48537850D01*
X48641050D02*
X48363560D01*
X48330560Y46180270D01*
D02*
D23*
X42959080Y46100270D02*
X43271050D01*
Y46080270D01*
X43425550D01*
X43730550D02*
Y45793020D01*
X43845800Y45677770D01*
X44973050D01*
X45051050Y45599770D01*
Y45534520D01*
X46048050Y45560270D03*
Y45685270D03*
Y45810270D03*
Y45935270D03*
Y46060270D03*
Y46185270D03*
Y46310270D03*
X46148800Y46390020D03*
X46151390Y45485700D03*
X46273800Y46390020D03*
X46281390Y45485700D03*
X46398800Y46390020D03*
X46411390Y45485700D03*
X46518800Y46390020D03*
X46623050Y45789360D03*
Y45919360D03*
Y46049360D03*
Y46179360D03*
Y46309360D03*
D02*
D24*
X43070050Y45882270D03*
X43718050Y47492270D03*
X43758050Y47275270D03*
X43979050Y43778270D03*
X44153800Y44279270D03*
X44183800Y44806270D03*
X44498050Y47450270D03*
X44596050Y43778270D03*
X45033050Y44280270D03*
X45051050Y45535270D03*
X45206050Y43778270D03*
X47057050Y43791270D03*
X47175550Y46100270D03*
X48377050Y44806270D03*
X49048050Y44950270D03*
D02*
D25*
X43979050Y43778270D02*
X44596050D01*
X45206050D01*
D02*
D26*
X42529550Y44557520D03*
Y45084520D03*
X42959080Y46100270D03*
X43482050Y45597270D03*
X43603050Y45250270D03*
X43788050D03*
X43863050Y46390270D03*
X44098050Y46535270D03*
X44213050Y45251770D03*
Y45350270D03*
Y45450270D03*
X44233050Y46535270D03*
X44483050Y45535270D03*
X44545550Y46635270D03*
Y46732770D03*
Y46826020D03*
X44793050Y44955270D03*
X45398050Y44735270D03*
X45640550Y46705270D03*
X45823050Y44392770D03*
X45825550Y44510270D03*
X45838050Y44650270D03*
X45930550Y44450270D03*
X45933050Y44585270D03*
X46278050Y44512770D03*
Y44980270D03*
Y45115270D03*
Y45220270D03*
X46280550Y44607770D03*
Y44702770D03*
X46411390Y46185270D03*
X46543050Y45485270D03*
X46568050Y47670270D03*
X46598050Y44931270D03*
Y45081070D03*
Y45181270D03*
X46603050Y44572770D03*
X47134050Y45245270D03*
X47137050Y45337770D03*
X47373050Y47567770D03*
Y47700270D03*
X47378050Y47465270D03*
X47621050Y47402770D03*
Y47642270D03*
X47754820Y45329270D03*
X47773050Y44810970D03*
Y44895270D03*
X47869920Y45329270D03*
X47985010D03*
X48092050D03*
X48184050Y45155270D03*
X48208050Y45031270D03*
D02*
D27*
X42678050Y44820270D03*
X42913050D03*
X43318050D03*
X43476050Y45053570D03*
X43713050Y46620270D03*
X43843050D03*
X43975050Y45560270D03*
X44283050Y46645270D03*
X45398050Y44895270D03*
X45778050Y44740270D03*
X46184550Y44020770D03*
Y44245770D03*
X46386550Y44020770D03*
Y44245770D03*
X46491050Y47833270D03*
X46633050D03*
X46637050Y44175270D03*
X46728050D03*
X46933050Y44015270D03*
X46989550Y44175270D03*
X47113050Y45662770D03*
X47115550Y47097770D03*
X47118050Y45865270D03*
X47128050Y44820270D03*
X47137050Y44486270D03*
X47178050Y46977770D03*
X47188050Y44015270D03*
Y44730270D03*
X47208050Y45662770D03*
X47233050Y44575270D03*
X47240550Y47095270D03*
X47248050Y44820270D03*
X47298050Y46977770D03*
X47328050Y44575270D03*
X47338050Y45056270D03*
X47420550Y44572770D03*
X47553050Y44330270D03*
X47580800Y46432770D03*
Y46682770D03*
X47588300Y46175270D03*
X47593300Y45932770D03*
D02*
D28*
X43290050Y45787270D02*
X43519300D01*
X43597300Y45709270D01*
X43598050D01*
X43700550Y45606770D01*
Y45039270D01*
Y44963770D01*
X43702050Y44962270D01*
Y44944270D01*
X44185550Y45039570D02*
X43952350D01*
X43952050Y45039270D01*
X44213050Y45251770D02*
X44415050D01*
Y45316770D02*
X44518050D01*
X44562050Y45272770D01*
Y44744270D01*
G75*
G02*
X44462050Y44644270I-100000J0D01*
G01*
X44052050D01*
G75*
G02*
X43952050Y44744270I0J100000D01*
G01*
Y44849270D01*
X44415050Y45316770D02*
X44305050D01*
X44271550Y45350270D01*
X44213050D01*
X45933350Y44890270D02*
Y44980270D01*
X46278050D01*
X45933350Y45116270D02*
Y44890270D01*
D02*
D29*
X46603050Y44730270D03*
X46875550Y44515270D03*
D02*
D72*
X46598050Y47562770D03*
X46688050Y47680270D03*
D02*
D73*
X44152050Y43779270D03*
Y44279270D03*
X45038050Y43782270D03*
Y44282270D03*
D02*
D74*
X43137050Y44592270D03*
Y44822270D03*
Y45052270D03*
D02*
D75*
X42507050Y44822270D03*
D02*
D76*
X43476050Y44824970D03*
Y45053570D03*
X44185550Y44810970D03*
Y45039570D03*
X46928050Y43791970D03*
Y44020570D03*
X47071050Y45870970D03*
Y46099570D03*
X47188050Y43790970D03*
Y44019570D03*
X47282050Y45872970D03*
Y46101570D03*
D02*
D77*
X44165550Y47847770D03*
X44170600Y48144000D03*
X44419550Y47847770D03*
X44424600Y48144000D03*
X44673550Y47847770D03*
X44678600Y48144000D03*
X44932600D03*
X45090000Y43301000D03*
X45186600Y46077770D03*
Y46331770D03*
Y46585770D03*
Y46839770D03*
Y47093770D03*
Y48144000D03*
X45344000Y43301000D03*
X45440600Y46077770D03*
Y46331770D03*
Y46585770D03*
Y46839770D03*
Y47093770D03*
Y48144000D03*
X45598000Y43301000D03*
X45694600Y48144000D03*
X45852000Y43301000D03*
X45948600Y48144000D03*
X46106000Y43301000D03*
X46202600Y48144000D03*
X46360000Y43301000D03*
X46456600Y48144000D03*
X46614000Y43301000D03*
X46865050Y48140270D03*
X46868000Y43301000D03*
X47119050Y48140270D03*
X47361000Y43301000D03*
X47373050Y48140270D03*
X47615000Y43301000D03*
X47627050Y48140270D03*
X47869000Y43301000D03*
X47881050Y48140270D03*
X48123000Y43301000D03*
X48135050Y48140270D03*
X48377000Y43301000D03*
X48389050Y48140270D03*
X48631000Y43301000D03*
X48641050Y45639270D03*
Y45893270D03*
Y46147270D03*
Y46401270D03*
Y46655270D03*
X48643050Y48140270D03*
X48942050Y45639270D03*
Y45893270D03*
Y46147270D03*
Y46401270D03*
Y46655270D03*
D02*
D78*
X43520800Y46620270D03*
Y46842270D03*
Y47064270D03*
X43523800Y46394530D03*
Y47495270D03*
X43711300Y46620270D03*
Y46842270D03*
Y47064270D03*
X43714300Y46394530D03*
Y47495270D03*
X44790300Y44727770D03*
Y44950270D03*
X44980800Y44727770D03*
Y44950270D03*
X47747800Y46432770D03*
X47752800Y46177770D03*
Y46682770D03*
X47755300Y45920270D03*
X47938300Y46432770D03*
X47943300Y46177770D03*
Y46682770D03*
X47945800Y45920270D03*
D02*
D79*
X45208050Y44740270D03*
Y45050270D03*
X45398050Y44740270D03*
Y45050270D03*
X48140550Y45920270D03*
X48140560Y46180270D03*
X48143050Y46432770D03*
Y46682770D03*
X48330550Y45920270D03*
X48330560Y46180270D03*
X48333050Y46432770D03*
Y46682770D03*
D02*
D80*
X43070050Y45692270D03*
X43290050Y45597270D03*
Y45787270D03*
X43702050Y44849270D03*
Y44944270D03*
Y45039270D03*
X43952050Y44849270D03*
Y45039270D03*
X44158050Y46637770D03*
Y46732770D03*
Y46827770D03*
X44408050Y46637770D03*
Y46732770D03*
Y46827770D03*
D02*
D81*
X43425550Y46080270D03*
X43730550D03*
D02*
D82*
X43975050Y45251770D03*
Y45316770D03*
Y45381770D03*
Y45446770D03*
X44415050Y45251770D03*
Y45316770D03*
Y45381770D03*
Y45446770D03*
D02*
D83*
X44792050Y45344020D03*
Y45534520D03*
X45051050Y45344020D03*
Y45534520D03*
D02*
D84*
X43100550Y46752770D03*
Y46817770D03*
Y46882770D03*
Y46947770D03*
Y47012770D03*
D02*
D85*
X42725550Y46460270D03*
Y47305270D03*
X42900550Y46460270D03*
Y47305270D03*
X43070550Y46522770D03*
Y47242770D03*
D02*
D86*
X42689050Y45469270D03*
Y45929270D03*
D02*
D87*
X46440140Y44531270D03*
Y44581270D03*
Y44631270D03*
Y44681270D03*
Y44731270D03*
Y44781270D03*
Y44831270D03*
Y44881270D03*
Y44931270D03*
Y44981270D03*
Y45031270D03*
Y45081270D03*
Y45131270D03*
Y45181270D03*
Y45231270D03*
Y45281270D03*
X47587740Y44531270D03*
Y44581270D03*
Y44631270D03*
Y44681270D03*
Y44731270D03*
Y44781270D03*
Y44831270D03*
Y44881270D03*
Y44931270D03*
Y44981270D03*
Y45031270D03*
Y45081270D03*
Y45131270D03*
Y45181270D03*
Y45231270D03*
Y45281270D03*
D02*
D88*
X46638940Y44332470D03*
Y45480070D03*
X46688940Y44332470D03*
Y45480070D03*
X46738940Y44332470D03*
Y45480070D03*
X46788940Y44332470D03*
Y45480070D03*
X46838940Y44332470D03*
Y45480070D03*
X46888940Y44332470D03*
Y45480070D03*
X46938940Y44332470D03*
Y45480070D03*
X46988940Y44332470D03*
Y45480070D03*
X47038940Y44332470D03*
Y45480070D03*
X47088940Y44332470D03*
Y45480070D03*
X47138940Y44332470D03*
Y45480070D03*
X47188940Y44332470D03*
Y45480070D03*
X47238940Y44332470D03*
Y45480070D03*
X47288940Y44332470D03*
Y45480070D03*
X47338940Y44332470D03*
Y45480070D03*
X47388940Y44332470D03*
Y45480070D03*
D02*
D89*
X46223050Y45875770D03*
Y46035770D03*
X46443050Y45875770D03*
Y46035770D03*
D02*
D90*
X46253050Y45706770D03*
Y46206270D03*
X46413050Y45706770D03*
Y46206270D03*
D02*
D91*
X43527750Y47279270D03*
X43756350D03*
X44261250Y47455270D03*
X44489850D03*
X45704750Y44890270D03*
Y45116270D03*
X45933350Y44890270D03*
Y45116270D03*
X48143750Y44806270D03*
X48372350D03*
D02*
D92*
X47464550Y45810270D03*
Y45945270D03*
D02*
D93*
X42546050Y47710270D03*
Y48160270D03*
X43196050Y47710270D03*
Y48160270D03*
D02*
D94*
X43648050Y48036320D03*
X43869050Y43330270D03*
X48631000Y47240270D03*
X48631490Y44194740D03*
D02*
D95*
X42725550Y43810270D03*
X43355550D03*
D02*
D96*
X43065550Y43330270D03*
X0Y0D02*
M02*
