G04 DesignSpark PCB Gerber Version 12.0 Build 5942*
%FSLAX35Y35*%
%MOMM*%
%AMT26*0 Rounded Rectangle Pad at angle 0*4,1,32,-0.07500,-0.32500,0.07500,-0.32500,0.10840,-0.32120,0.14010,-0.31010,0.16850,-0.29220,0.19220,-0.26850,0.21010,-0.24010,0.22120,-0.20840,0.22500,-0.17500,0.22500,0.17500,0.22120,0.20840,0.21010,0.24010,0.19220,0.26850,0.16850,0.29220,0.14010,0.31010,0.10840,0.32120,0.07500,0.32500,-0.07500,0.32500,-0.10840,0.32120,-0.14010,0.31010,-0.16850,0.29220,-0.19220,0.26850,-0.21010,0.24010,-0.22120,0.20840,-0.22500,0.17500,-0.22500,-0.17500,-0.22120,-0.20840,-0.21010,-0.24010,-0.19220,-0.26850,-0.16850,-0.29220,-0.14010,-0.31010,-0.10840,-0.32120,-0.07500,-0.32500,0*%
%ADD26T26*%
%AMT29*0 Rounded Rectangle Pad at angle 0*4,1,20,-0.90000,-2.30000,0.90000,-2.30000,0.91910,-2.29620,0.93530,-2.28540,0.94620,-2.26920,0.95000,-2.25000,0.95000,2.25000,0.94620,2.26910,0.93540,2.28530,0.91920,2.29620,0.90000,2.30000,-0.90000,2.30000,-0.91910,2.29620,-0.93530,2.28540,-0.94620,2.26920,-0.95000,2.25000,-0.95000,-2.25000,-0.94620,-2.26910,-0.93540,-2.28530,-0.91920,-2.29620,-0.90000,-2.30000,0*%
%ADD29T29*%
%ADD77R,1.52400X1.52400*%
%ADD139C,0.00001*%
%ADD20C,0.25400*%
%ADD23C,0.81280*%
%AMT28*0 Rounded Rectangle Pad at angle 45*4,1,32,0.17680,-0.28280,0.28280,-0.17680,0.30370,-0.15050,0.31830,-0.12020,0.32580,-0.08750,0.32580,-0.05390,0.31830,-0.02110,0.30370,0.00920,0.28280,0.03540,0.03540,0.28280,0.00910,0.30370,-0.02120,0.31830,-0.05390,0.32580,-0.08750,0.32580,-0.12030,0.31830,-0.15060,0.30370,-0.17680,0.28280,-0.28280,0.17680,-0.30370,0.15050,-0.31830,0.12020,-0.32580,0.08750,-0.32580,0.05390,-0.31830,0.02110,-0.30370,-0.00920,-0.28280,-0.03540,-0.03540,-0.28280,-0.00910,-0.30370,0.02120,-0.31830,0.05390,-0.32580,0.08750,-0.32580,0.12030,-0.31830,0.15060,-0.30370,0.17680,-0.28280,0*%
%ADD28T28*%
%AMT25*0 Rounded Rectangle Pad at angle 90*4,1,32,0.32500,-0.07500,0.32500,0.07500,0.32120,0.10840,0.31010,0.14010,0.29220,0.16850,0.26850,0.19220,0.24010,0.21010,0.20840,0.22120,0.17500,0.22500,-0.17500,0.22500,-0.20840,0.22120,-0.24010,0.21010,-0.26850,0.19220,-0.29220,0.16850,-0.31010,0.14010,-0.32120,0.10840,-0.32500,0.07500,-0.32500,-0.07500,-0.32120,-0.10840,-0.31010,-0.14010,-0.29220,-0.16850,-0.26850,-0.19220,-0.24010,-0.21010,-0.20840,-0.22120,-0.17500,-0.22500,0.17500,-0.22500,0.20840,-0.22120,0.24010,-0.21010,0.26850,-0.19220,0.29220,-0.16850,0.31010,-0.14010,0.32120,-0.10840,0.32500,-0.07500,0*%
%ADD25T25*%
%AMT27*0 Rounded Rectangle Pad at angle 135*4,1,32,0.28280,0.17680,0.17680,0.28280,0.15050,0.30370,0.12020,0.31830,0.08750,0.32580,0.05390,0.32580,0.02110,0.31830,-0.00920,0.30370,-0.03540,0.28280,-0.28280,0.03540,-0.30370,0.00910,-0.31830,-0.02120,-0.32580,-0.05390,-0.32580,-0.08750,-0.31830,-0.12030,-0.30370,-0.15060,-0.28280,-0.17680,-0.17680,-0.28280,-0.15050,-0.30370,-0.12020,-0.31830,-0.08750,-0.32580,-0.05390,-0.32580,-0.02110,-0.31830,0.00920,-0.30370,0.03540,-0.28280,0.28280,-0.03540,0.30370,-0.00910,0.31830,0.02120,0.32580,0.05390,0.32580,0.08750,0.31830,0.12030,0.30370,0.15060,0.28280,0.17680,0*%
%ADD27T27*%
%AMT72*0 Rounded Rectangle Pad at angle 90*4,1,20,2.30000,-0.90000,2.30000,0.90000,2.29620,0.91910,2.28540,0.93530,2.26920,0.94620,2.25000,0.95000,-2.25000,0.95000,-2.26910,0.94620,-2.28530,0.93540,-2.29620,0.91920,-2.30000,0.90000,-2.30000,-0.90000,-2.29620,-0.91910,-2.28540,-0.93530,-2.26920,-0.94620,-2.25000,-0.95000,2.25000,-0.95000,2.26910,-0.94620,2.28530,-0.93540,2.29620,-0.91920,2.30000,-0.90000,0*%
%ADD72T72*%
%ADD94C,1.50000*%
%ADD85C,1.60000*%
X0Y0D02*
D02*
D20*
X44545550Y46635270D02*
X44621350D01*
G75*
G02*
X44671850Y46584770I0J-50500D01*
G01*
Y45247470D01*
G75*
G03*
X44864050Y45055270I192200J0D01*
G01*
X46598050D01*
Y45081070D01*
X44545550Y46827770D02*
X44720750D01*
G75*
G03*
X44722250Y46829270I0J1500D01*
G01*
Y45273270D01*
G75*
G03*
X44880250Y45115270I158000J0D01*
G01*
X46283050D01*
D02*
D23*
X43070050Y45882270D03*
X43853050Y47492270D03*
X43893050Y47281270D03*
X43979050Y43778270D03*
X44355550Y44810970D03*
X44411050Y45549270D03*
X44415050Y44279270D03*
X44596050Y43778270D03*
X44638050Y47457770D03*
X44785050Y44159270D03*
X45051050Y45675270D03*
X45206050Y43778270D03*
X47057050Y43791270D03*
X47175550Y46235270D03*
X48377050Y44806270D03*
X49048050Y44950270D03*
D02*
D25*
X42878050Y46106270D03*
X43482050Y45597270D03*
X43600550Y45247770D03*
X43820550D03*
X43863050Y46390270D03*
X44232050Y45251770D03*
X44545550Y46635270D03*
Y46732770D03*
Y46827770D03*
X45640550Y46705270D03*
X45755550Y44745670D03*
X45823050Y44392770D03*
X45825550Y44510270D03*
X45930550Y44450270D03*
X46055550Y46122270D03*
X46073050Y44590270D03*
X46278050Y44512770D03*
Y44980270D03*
X46280550Y44607770D03*
Y44702770D03*
X46283050Y45115270D03*
Y45200270D03*
X46428050Y46420270D03*
X46460550Y45662770D03*
X46508050Y45850270D03*
X46568050Y47670270D03*
X46598050Y44931270D03*
Y45081070D03*
Y45181270D03*
X46603050Y44572770D03*
X47134050Y45245270D03*
X47137050Y45337770D03*
X47373050Y47567770D03*
Y47700270D03*
X47378050Y47465270D03*
X47621050Y47402770D03*
Y47642270D03*
X47754820Y44818270D03*
Y44895270D03*
Y45329270D03*
X47869920D03*
X47985010D03*
X48092050D03*
X48184050Y45030270D03*
Y45155270D03*
D02*
D26*
X43975050Y45560270D03*
X44177050Y45402270D03*
X44275050Y45353270D03*
X44670550Y45035270D03*
X45583050Y44960270D03*
X45848050Y44660270D03*
X46491050Y47833270D03*
X46633050D03*
X46637050Y44170270D03*
X46728050D03*
X46872480D03*
X46965050D03*
X47113050Y45662770D03*
X47115550Y47097770D03*
X47118050Y45865270D03*
X47128050Y44820270D03*
X47137050Y44486270D03*
X47178050Y46977770D03*
X47188050Y44730270D03*
X47208050Y45630270D03*
X47233050Y44575270D03*
X47240550Y47095270D03*
X47248050Y44820270D03*
X47298050Y46977770D03*
X47328050Y44575270D03*
X47338050Y45056270D03*
X47420550Y44572770D03*
X47553050Y44330270D03*
X47555550Y46212770D03*
Y46432770D03*
Y46682770D03*
X47568050Y45932770D03*
D02*
D27*
X46603050Y44730270D03*
X46875550Y44515270D03*
D02*
D28*
X46598050Y47562770D03*
X46688050Y47680270D03*
D02*
D29*
X42655050Y43488270D03*
X43275050D03*
D02*
D72*
X42955050Y43958270D03*
D02*
D77*
X44165550Y47847770D03*
X44170600Y48144000D03*
X44419550Y47847770D03*
X44424600Y48144000D03*
X44673550Y47847770D03*
X44678600Y48144000D03*
X44932600D03*
X45090000Y43301000D03*
X45186600Y46077770D03*
Y46331770D03*
Y46585770D03*
Y46839770D03*
Y47093770D03*
Y48144000D03*
X45344000Y43301000D03*
X45440600Y46077770D03*
Y46331770D03*
Y46585770D03*
Y46839770D03*
Y47093770D03*
Y48144000D03*
X45598000Y43301000D03*
X45694600Y48144000D03*
X45852000Y43301000D03*
X45948600Y48144000D03*
X46106000Y43301000D03*
X46202600Y48144000D03*
X46360000Y43301000D03*
X46456600Y48144000D03*
X46614000Y43301000D03*
X46865050Y48140270D03*
X46868000Y43301000D03*
X47119050Y48140270D03*
X47361000Y43301000D03*
X47373050Y48140270D03*
X47615000Y43301000D03*
X47627050Y48140270D03*
X47869000Y43301000D03*
X47881050Y48140270D03*
X48123000Y43301000D03*
X48135050Y48140270D03*
X48377000Y43301000D03*
X48389050Y48140270D03*
X48631000Y43301000D03*
X48641050Y45639270D03*
Y45893270D03*
Y46147270D03*
Y46401270D03*
Y46655270D03*
X48643050Y48140270D03*
X48942050Y45639270D03*
Y45893270D03*
Y46147270D03*
Y46401270D03*
Y46655270D03*
D02*
D85*
X42725550Y46460270D03*
Y47305270D03*
X42900550Y46460270D03*
Y47305270D03*
X43070550Y46522770D03*
Y47242770D03*
D02*
D94*
X42546050Y47710270D03*
Y48160270D03*
X43196050Y47710270D03*
Y48160270D03*
D02*
D139*
X42303700Y48287000D02*
Y43153000D01*
G75*
G03*
X42391000Y43065700I87300J0D01*
G01*
X48795000D01*
G75*
G03*
X48882300Y43153000I0J87300D01*
G01*
Y43307000D01*
G75*
G02*
X48886020Y43315980I12700J0D01*
G01*
X49136300Y43566260D01*
Y46857740D01*
X48886020Y47108020D01*
G75*
G02*
X48882300Y47117000I8980J8980D01*
G01*
Y48254740D01*
X48762740Y48374300D01*
X42391000D01*
G75*
G03*
X42303700Y48287000I0J-87300D01*
G01*
X48811850Y45612270D02*
X48865850D01*
Y45563070D01*
X48915050D01*
Y45509070D01*
X48811850D01*
Y45612270D01*
Y45769470D02*
X48915050D01*
Y45715470D01*
X48865850D01*
Y45666270D01*
X48811850D01*
Y45769470D01*
X48845850Y45989470D02*
X49038250D01*
Y45797070D01*
X48845850D01*
Y45989470D01*
X48969050Y45563070D02*
X49018250D01*
Y45612270D01*
X49072250D01*
Y45509070D01*
X48969050D01*
Y45563070D01*
X48987410Y44950270D02*
G75*
G02*
X49108690I60640J0D01*
G01*
G75*
G02*
X48987410I-60640J0D01*
G01*
X48969050Y45769470D02*
X49072250D01*
Y45666270D01*
X49018250D01*
Y45715470D01*
X48969050D01*
Y45769470D01*
X48845850Y46243470D02*
X49038250D01*
Y46051070D01*
X48845850D01*
Y46243470D01*
Y46497470D02*
X49038250D01*
Y46305070D01*
X48845850D01*
Y46497470D01*
Y46751470D02*
X49038250D01*
Y46559070D01*
X48845850D01*
Y46751470D01*
X42546050Y47805270D02*
G75*
G02*
X42641050Y47710270I0J-95000D01*
G01*
G75*
G02*
X42546050Y47615270I-95000J0D01*
G01*
G75*
G02*
X42451050Y47710270I0J95000D01*
G01*
G75*
G02*
X42546050Y47805270I95000J0D01*
G01*
X42650240Y46433270D02*
G75*
G03*
X42698550Y46384960I75310J27000D01*
G01*
Y46329020D01*
G75*
G02*
X42594300Y46433270I27000J131250D01*
G01*
X42650240D01*
X42682050Y43258270D02*
X42745050D01*
G75*
G03*
X42750050Y43263270I0J5000D01*
G01*
Y43461270D01*
X42804050D01*
Y43240920D01*
G75*
G02*
X42767400Y43204270I-36650J0D01*
G01*
X42682050D01*
Y43258270D01*
Y43772270D02*
X42767400D01*
G75*
G02*
X42804050Y43735620I0J-36650D01*
G01*
Y43515270D01*
X42750050D01*
Y43713270D01*
G75*
G03*
X42745050Y43718270I-5000J0D01*
G01*
X42682050D01*
Y43772270D01*
X42698550Y46591520D02*
Y46535580D01*
G75*
G03*
X42650240Y46487270I27000J-75310D01*
G01*
X42594300D01*
G75*
G02*
X42698550Y46591520I131250J-27000D01*
G01*
X42650240Y47278270D02*
G75*
G03*
X42698550Y47229960I75310J27000D01*
G01*
Y47174020D01*
G75*
G02*
X42594300Y47278270I27000J131250D01*
G01*
X42650240D01*
X42698550Y47436520D02*
Y47380580D01*
G75*
G03*
X42650240Y47332270I27000J-75310D01*
G01*
X42594300D01*
G75*
G02*
X42698550Y47436520I131250J-27000D01*
G01*
X42506050Y43240920D02*
Y43461270D01*
X42560050D01*
Y43263270D01*
G75*
G03*
X42565050Y43258270I5000J0D01*
G01*
X42628050D01*
Y43204270D01*
X42542700D01*
G75*
G02*
X42506050Y43240920I0J36650D01*
G01*
X42542700Y43772270D02*
X42628050D01*
Y43718270D01*
X42565050D01*
G75*
G03*
X42560050Y43713270I0J-5000D01*
G01*
Y43515270D01*
X42506050D01*
Y43735620D01*
G75*
G02*
X42542700Y43772270I36650J0D01*
G01*
X42546050Y48255270D02*
G75*
G02*
X42641050Y48160270I0J-95000D01*
G01*
G75*
G02*
X42546050Y48065270I-95000J0D01*
G01*
G75*
G02*
X42451050Y48160270I0J95000D01*
G01*
G75*
G02*
X42546050Y48255270I95000J0D01*
G01*
X42705050Y43848270D02*
Y44068270D01*
G75*
G02*
X42710050Y44073270I5000J0D01*
G01*
X43200050D01*
G75*
G02*
X43205050Y44068270I0J-5000D01*
G01*
Y43848270D01*
G75*
G02*
X43200050Y43843270I-5000J0D01*
G01*
X42710050D01*
G75*
G02*
X42705050Y43848270I0J5000D01*
G01*
X43126050Y43240920D02*
Y43461270D01*
X43180050D01*
Y43263270D01*
G75*
G03*
X43185050Y43258270I5000J0D01*
G01*
X43248050D01*
Y43204270D01*
X43162700D01*
G75*
G02*
X43126050Y43240920I0J36650D01*
G01*
X43162700Y43772270D02*
X43248050D01*
Y43718270D01*
X43185050D01*
G75*
G03*
X43180050Y43713270I0J-5000D01*
G01*
Y43515270D01*
X43126050D01*
Y43735620D01*
G75*
G02*
X43162700Y43772270I36650J0D01*
G01*
X42752550Y46384960D02*
G75*
G03*
X42780040Y46401690I-27000J75310D01*
G01*
G75*
G02*
X42769300Y46433270I120500J58600D01*
G01*
X42800860D01*
X42825240D01*
X42856800D01*
G75*
G02*
X42846060Y46401690I-131240J27020D01*
G01*
G75*
G03*
X42873550Y46384960I54490J58580D01*
G01*
Y46329020D01*
G75*
G02*
X42813050Y46358780I26990J131250D01*
G01*
G75*
G02*
X42752550Y46329020I-87490J101490D01*
G01*
Y46384960D01*
X42825550Y46078770D02*
Y46133770D01*
G75*
G02*
X42840550Y46148770I15000J0D01*
G01*
X42915550D01*
G75*
G02*
X42930550Y46133770I0J-15000D01*
G01*
Y46078770D01*
G75*
G02*
X42915550Y46063770I-15000J0D01*
G01*
X42840550D01*
G75*
G02*
X42825550Y46078770I0J15000D01*
G01*
X42752550Y46591520D02*
G75*
G02*
X42813050Y46561760I-26990J-131250D01*
G01*
G75*
G02*
X42873550Y46591520I87490J-101490D01*
G01*
Y46535580D01*
G75*
G03*
X42846060Y46518850I27000J-75310D01*
G01*
G75*
G02*
X42856800Y46487270I-120500J-58600D01*
G01*
X42825240D01*
X42800860D01*
X42769300D01*
G75*
G02*
X42780040Y46518850I131240J-27020D01*
G01*
G75*
G03*
X42752550Y46535580I-54490J-58580D01*
G01*
Y46591520D01*
Y47229960D02*
G75*
G03*
X42780040Y47246690I-27000J75310D01*
G01*
G75*
G02*
X42769300Y47278270I120500J58600D01*
G01*
X42800860D01*
X42825240D01*
X42856800D01*
G75*
G02*
X42846060Y47246690I-131240J27020D01*
G01*
G75*
G03*
X42873550Y47229960I54490J58580D01*
G01*
Y47174020D01*
G75*
G02*
X42813050Y47203780I26990J131250D01*
G01*
G75*
G02*
X42752550Y47174020I-87490J101490D01*
G01*
Y47229960D01*
Y47436520D02*
G75*
G02*
X42813050Y47406760I-26990J-131250D01*
G01*
G75*
G02*
X42873550Y47436520I87490J-101490D01*
G01*
Y47380580D01*
G75*
G03*
X42846060Y47363850I27000J-75310D01*
G01*
G75*
G02*
X42856800Y47332270I-120500J-58600D01*
G01*
X42825240D01*
X42800860D01*
X42769300D01*
G75*
G02*
X42780040Y47363850I131240J-27020D01*
G01*
G75*
G03*
X42752550Y47380580I-54490J-58580D01*
G01*
Y47436520D01*
X42927550Y46384960D02*
G75*
G03*
X42974380Y46429460I-27000J75310D01*
G01*
G75*
G02*
X42939300Y46495770I96170J93310D01*
G01*
X42972250D01*
G75*
G03*
X42927550Y46535580I-71700J-35500D01*
G01*
Y46591520D01*
G75*
G02*
X42951470Y46584220I-26980J-131260D01*
G01*
G75*
G02*
X43043550Y46654020I119080J-61450D01*
G01*
Y46598080D01*
G75*
G03*
X42996720Y46553580I27000J-75310D01*
G01*
G75*
G02*
X43031800Y46487270I-96170J-93310D01*
G01*
X42998850D01*
G75*
G03*
X43043550Y46447460I71700J35500D01*
G01*
Y46391520D01*
G75*
G02*
X43019630Y46398820I26980J131260D01*
G01*
G75*
G02*
X42927550Y46329020I-119080J61450D01*
G01*
Y46384960D01*
X43009410Y45882270D02*
G75*
G02*
X43130690I60640J0D01*
G01*
G75*
G02*
X43009410I-60640J0D01*
G01*
X42927550Y47229960D02*
G75*
G03*
X42975860Y47278270I-27000J75310D01*
G01*
X42977060D01*
G75*
G02*
X43025940Y47332270I93490J-35500D01*
G01*
X42975860D01*
G75*
G03*
X42927550Y47380580I-75310J-27000D01*
G01*
Y47436520D01*
G75*
G02*
X43031270Y47334730I-27000J-131250D01*
G01*
G75*
G02*
X43170550Y47242770I39280J-91960D01*
G01*
G75*
G02*
X42981060Y47198150I-100000J0D01*
G01*
G75*
G02*
X42927550Y47174020I-80500J107120D01*
G01*
Y47229960D01*
X43097550Y46447460D02*
G75*
G03*
X43145860Y46495770I-27000J75310D01*
G01*
X43201800D01*
G75*
G02*
X43097550Y46391520I-131250J27000D01*
G01*
Y46447460D01*
Y46654020D02*
G75*
G02*
X43201800Y46549770I-27000J-131250D01*
G01*
X43145860D01*
G75*
G03*
X43097550Y46598080I-75310J-27000D01*
G01*
Y46654020D01*
X43126080Y47683270D02*
G75*
G03*
X43169050Y47640300I69970J27000D01*
G01*
Y47584130D01*
G75*
G02*
X43069910Y47683270I27000J126140D01*
G01*
X43126080D01*
X43169050Y47836410D02*
Y47780240D01*
G75*
G03*
X43126080Y47737270I27000J-69970D01*
G01*
X43069910D01*
G75*
G02*
X43169050Y47836410I126140J-27000D01*
G01*
X43126080Y48133270D02*
G75*
G03*
X43169050Y48090300I69970J27000D01*
G01*
Y48034130D01*
G75*
G02*
X43069910Y48133270I27000J126140D01*
G01*
X43126080D01*
X43169050Y48286410D02*
Y48230240D01*
G75*
G03*
X43126080Y48187270I27000J-69970D01*
G01*
X43069910D01*
G75*
G02*
X43169050Y48286410I126140J-27000D01*
G01*
X43223050Y47640300D02*
G75*
G03*
X43266020Y47683270I-27000J69970D01*
G01*
X43322190D01*
G75*
G02*
X43223050Y47584130I-126140J27000D01*
G01*
Y47640300D01*
X43302050Y43258270D02*
X43365050D01*
G75*
G03*
X43370050Y43263270I0J5000D01*
G01*
Y43461270D01*
X43424050D01*
Y43240920D01*
G75*
G02*
X43387400Y43204270I-36650J0D01*
G01*
X43302050D01*
Y43258270D01*
Y43772270D02*
X43387400D01*
G75*
G02*
X43424050Y43735620I0J-36650D01*
G01*
Y43515270D01*
X43370050D01*
Y43713270D01*
G75*
G03*
X43365050Y43718270I-5000J0D01*
G01*
X43302050D01*
Y43772270D01*
X43223050Y47836410D02*
G75*
G02*
X43322190Y47737270I-27000J-126140D01*
G01*
X43266020D01*
G75*
G03*
X43223050Y47780240I-69970J-27000D01*
G01*
Y47836410D01*
Y48090300D02*
G75*
G03*
X43266020Y48133270I-27000J69970D01*
G01*
X43322190D01*
G75*
G02*
X43223050Y48034130I-126140J27000D01*
G01*
Y48090300D01*
Y48286410D02*
G75*
G02*
X43322190Y48187270I-27000J-126140D01*
G01*
X43266020D01*
G75*
G03*
X43223050Y48230240I-69970J-27000D01*
G01*
Y48286410D01*
X43429550Y45569770D02*
Y45624770D01*
G75*
G02*
X43444550Y45639770I15000J0D01*
G01*
X43519550D01*
G75*
G02*
X43534550Y45624770I0J-15000D01*
G01*
Y45569770D01*
G75*
G02*
X43519550Y45554770I-15000J0D01*
G01*
X43444550D01*
G75*
G02*
X43429550Y45569770I0J15000D01*
G01*
X43501850Y48045270D02*
G75*
G02*
X43794250I146200J0D01*
G01*
G75*
G02*
X43501850I-146200J0D01*
G01*
X43548050Y45220270D02*
Y45275270D01*
G75*
G02*
X43563050Y45290270I15000J0D01*
G01*
X43638050D01*
G75*
G02*
X43653050Y45275270I0J-15000D01*
G01*
Y45220270D01*
G75*
G02*
X43638050Y45205270I-15000J0D01*
G01*
X43563050D01*
G75*
G02*
X43548050Y45220270I0J15000D01*
G01*
X43721850Y43330270D02*
G75*
G02*
X44014250I146200J0D01*
G01*
G75*
G02*
X43721850I-146200J0D01*
G01*
X43768050Y45220270D02*
Y45275270D01*
G75*
G02*
X43783050Y45290270I15000J0D01*
G01*
X43858050D01*
G75*
G02*
X43873050Y45275270I0J-15000D01*
G01*
Y45220270D01*
G75*
G02*
X43858050Y45205270I-15000J0D01*
G01*
X43783050D01*
G75*
G02*
X43768050Y45220270I0J15000D01*
G01*
X43792410Y47492270D02*
G75*
G02*
X43913690I60640J0D01*
G01*
G75*
G02*
X43792410I-60640J0D01*
G01*
X43862680Y47254270D02*
G75*
G03*
X43866050Y47250900I30370J27000D01*
G01*
Y47190560D01*
G75*
G02*
X43802340Y47254270I27000J90710D01*
G01*
X43862680D01*
X43810550Y46362770D02*
Y46417770D01*
G75*
G02*
X43825550Y46432770I15000J0D01*
G01*
X43900550D01*
G75*
G02*
X43915550Y46417770I0J-15000D01*
G01*
Y46362770D01*
G75*
G02*
X43900550Y46347770I-15000J0D01*
G01*
X43825550D01*
G75*
G02*
X43810550Y46362770I0J15000D01*
G01*
X43948680Y43751270D02*
G75*
G03*
X43952050Y43747900I30370J27000D01*
G01*
Y43687560D01*
G75*
G02*
X43888340Y43751270I27000J90710D01*
G01*
X43948680D01*
X43952050Y43868980D02*
Y43808640D01*
G75*
G03*
X43948680Y43805270I27000J-30370D01*
G01*
X43888340D01*
G75*
G02*
X43952050Y43868980I90710J-27000D01*
G01*
X43866050Y47371980D02*
Y47311640D01*
G75*
G03*
X43862680Y47308270I27000J-30370D01*
G01*
X43802340D01*
G75*
G02*
X43866050Y47371980I90710J-27000D01*
G01*
X43920050Y47250900D02*
G75*
G03*
X43923420Y47254270I-27000J30370D01*
G01*
X43983760D01*
G75*
G02*
X43920050Y47190560I-90710J27000D01*
G01*
Y47250900D01*
X43932550Y45522770D02*
Y45597770D01*
G75*
G02*
X43947550Y45612770I15000J0D01*
G01*
X44002550D01*
G75*
G02*
X44017550Y45597770I0J-15000D01*
G01*
Y45522770D01*
G75*
G02*
X44002550Y45507770I-15000J0D01*
G01*
X43947550D01*
G75*
G02*
X43932550Y45522770I0J15000D01*
G01*
X44006050Y43747900D02*
G75*
G03*
X44009420Y43751270I-27000J30370D01*
G01*
X44069760D01*
G75*
G02*
X44006050Y43687560I-90710J27000D01*
G01*
Y43747900D01*
Y43868980D02*
G75*
G02*
X44069760Y43805270I-27000J-90710D01*
G01*
X44009420D01*
G75*
G03*
X44006050Y43808640I-30370J-27000D01*
G01*
Y43868980D01*
X43920050Y47371980D02*
G75*
G02*
X43983760Y47308270I-27000J-90710D01*
G01*
X43923420D01*
G75*
G03*
X43920050Y47311640I-30370J-27000D01*
G01*
Y47371980D01*
X44069350Y47943970D02*
X44261750D01*
Y47751570D01*
X44069350D01*
Y47943970D01*
X44134550Y45364770D02*
Y45439770D01*
G75*
G02*
X44149550Y45454770I15000J0D01*
G01*
X44204550D01*
G75*
G02*
X44219550Y45439770I0J-15000D01*
G01*
Y45364770D01*
G75*
G02*
X44204550Y45349770I-15000J0D01*
G01*
X44149550D01*
G75*
G02*
X44134550Y45364770I0J15000D01*
G01*
X44179550Y45224270D02*
Y45279270D01*
G75*
G02*
X44194550Y45294270I15000J0D01*
G01*
X44269550D01*
G75*
G02*
X44284550Y45279270I0J-15000D01*
G01*
Y45224270D01*
G75*
G02*
X44269550Y45209270I-15000J0D01*
G01*
X44194550D01*
G75*
G02*
X44179550Y45224270I0J15000D01*
G01*
X44325180Y44783970D02*
G75*
G03*
X44328550Y44780600I30370J27000D01*
G01*
Y44720260D01*
G75*
G02*
X44264840Y44783970I27000J90710D01*
G01*
X44325180D01*
X44328550Y44901680D02*
Y44841340D01*
G75*
G03*
X44325180Y44837970I27000J-30370D01*
G01*
X44264840D01*
G75*
G02*
X44328550Y44901680I90710J-27000D01*
G01*
X44232550Y45315770D02*
Y45390770D01*
G75*
G02*
X44247550Y45405770I15000J0D01*
G01*
X44302550D01*
G75*
G02*
X44317550Y45390770I0J-15000D01*
G01*
Y45315770D01*
G75*
G02*
X44302550Y45300770I-15000J0D01*
G01*
X44247550D01*
G75*
G02*
X44232550Y45315770I0J15000D01*
G01*
X44074400Y48240200D02*
X44266800D01*
Y48047800D01*
X44074400D01*
Y48240200D01*
X44380680Y45522270D02*
G75*
G03*
X44384050Y45518900I30370J27000D01*
G01*
Y45458560D01*
G75*
G02*
X44320340Y45522270I27000J90710D01*
G01*
X44380680D01*
X44354410Y44279270D02*
G75*
G02*
X44475690I60640J0D01*
G01*
G75*
G02*
X44354410I-60640J0D01*
G01*
X44382550Y44780600D02*
G75*
G03*
X44385920Y44783970I-27000J30370D01*
G01*
X44446260D01*
G75*
G02*
X44382550Y44720260I-90710J27000D01*
G01*
Y44780600D01*
Y44901680D02*
G75*
G02*
X44446260Y44837970I-27000J-90710D01*
G01*
X44385920D01*
G75*
G03*
X44382550Y44841340I-30370J-27000D01*
G01*
Y44901680D01*
X44384050Y45639980D02*
Y45579640D01*
G75*
G03*
X44380680Y45576270I27000J-30370D01*
G01*
X44320340D01*
G75*
G02*
X44384050Y45639980I90710J-27000D01*
G01*
X44323350Y47943970D02*
X44515750D01*
Y47751570D01*
X44323350D01*
Y47943970D01*
X44438050Y45518900D02*
G75*
G03*
X44441420Y45522270I-27000J30370D01*
G01*
X44501760D01*
G75*
G02*
X44438050Y45458560I-90710J27000D01*
G01*
Y45518900D01*
Y45639980D02*
G75*
G02*
X44501760Y45576270I-27000J-90710D01*
G01*
X44441420D01*
G75*
G03*
X44438050Y45579640I-30370J-27000D01*
G01*
Y45639980D01*
X44493050Y46607770D02*
Y46662770D01*
G75*
G02*
X44508050Y46677770I15000J0D01*
G01*
X44583050D01*
G75*
G02*
X44597120Y46667970I0J-15000D01*
G01*
X44621350D01*
G75*
G02*
X44689550Y46632430I0J-83200D01*
G01*
Y46795070D01*
X44597120D01*
G75*
G02*
X44583050Y46785270I-14070J5200D01*
G01*
X44508050D01*
G75*
G02*
X44493050Y46800270I0J15000D01*
G01*
Y46855270D01*
G75*
G02*
X44508050Y46870270I15000J0D01*
G01*
X44583050D01*
G75*
G02*
X44597120Y46860470I0J-15000D01*
G01*
X44712470D01*
G75*
G02*
X44754950Y46829270I9780J-31200D01*
G01*
Y45273270D01*
G75*
G03*
X44880250Y45147970I125300J0D01*
G01*
X46231480D01*
G75*
G02*
X46245550Y45157770I14070J-5200D01*
G01*
G75*
G02*
X46230550Y45172770I0J15000D01*
G01*
Y45227770D01*
G75*
G02*
X46245550Y45242770I15000J0D01*
G01*
X46320550D01*
G75*
G02*
X46335550Y45227770I0J-15000D01*
G01*
Y45172770D01*
G75*
G02*
X46320550Y45157770I-15000J0D01*
G01*
G75*
G02*
X46335550Y45142770I0J-15000D01*
G01*
Y45087970D01*
X46545550D01*
Y45106520D01*
G75*
G02*
X46511550Y45151420I12650J44900D01*
G01*
Y45158770D01*
X46571050D01*
Y45123570D01*
X46625050D01*
Y45158770D01*
X46684550D01*
Y45151420D01*
G75*
G02*
X46650550Y45106520I-46650J0D01*
G01*
Y45053570D01*
G75*
G02*
X46635550Y45038570I-15000J0D01*
G01*
X46626160D01*
G75*
G02*
X46598050Y45022570I-28110J16700D01*
G01*
X46317990D01*
G75*
G02*
X46330550Y45007770I-2440J-14800D01*
G01*
Y44952770D01*
G75*
G02*
X46315550Y44937770I-15000J0D01*
G01*
X46240550D01*
G75*
G02*
X46225550Y44952770I0J15000D01*
G01*
Y45007770D01*
G75*
G02*
X46238110Y45022570I15000J0D01*
G01*
X45653790D01*
G75*
G02*
X45659550Y45000120I-40890J-22450D01*
G01*
Y44987270D01*
X45605550D01*
Y45022570D01*
X45560550D01*
Y44987270D01*
X45506550D01*
Y45000120D01*
G75*
G02*
X45512310Y45022570I46650J0D01*
G01*
X44864050D01*
G75*
G02*
X44639150Y45247470I0J224900D01*
G01*
Y46584770D01*
G75*
G03*
X44621350Y46602570I-17800J0D01*
G01*
X44597120D01*
G75*
G02*
X44583050Y46592770I-14070J5200D01*
G01*
X44508050D01*
G75*
G02*
X44493050Y46607770I0J15000D01*
G01*
X46625050Y44908770D02*
X46684550D01*
Y44901420D01*
G75*
G02*
X46637900Y44854770I-46650J0D01*
G01*
X46625050D01*
Y44908770D01*
Y45007770D02*
X46637900D01*
G75*
G02*
X46684550Y44961120I0J-46650D01*
G01*
Y44953770D01*
X46625050D01*
Y45007770D01*
X46387000Y43224800D02*
X46436200D01*
Y43274000D01*
X46483800D01*
X46490200D01*
X46537800D01*
Y43224800D01*
X46587000D01*
Y43170800D01*
X46490200D01*
X46483800D01*
X46387000D01*
Y43224800D01*
Y43431200D02*
X46483800D01*
X46490200D01*
X46587000D01*
Y43377200D01*
X46537800D01*
Y43328000D01*
X46490200D01*
X46483800D01*
X46436200D01*
Y43377200D01*
X46387000D01*
Y43431200D01*
X46511550Y44901420D02*
Y44908770D01*
X46571050D01*
Y44854770D01*
X46558200D01*
G75*
G02*
X46511550Y44901420I0J46650D01*
G01*
X46546480Y44733810D02*
X46599510Y44786840D01*
G75*
G02*
X46620730I10610J-10610D01*
G01*
X46659620Y44747950D01*
G75*
G02*
X46664010Y44737340I-10610J-10600D01*
G01*
G75*
G02*
X46659620Y44726730I-15000J-10D01*
G01*
X46606590Y44673700D01*
G75*
G02*
X46585370I-10610J10610D01*
G01*
X46546480Y44712590D01*
G75*
G02*
X46542090Y44723200I10610J10600D01*
G01*
G75*
G02*
X46546480Y44733810I15000J10D01*
G01*
X46550550Y44545270D02*
Y44600270D01*
G75*
G02*
X46565550Y44615270I15000J0D01*
G01*
X46640550D01*
G75*
G02*
X46655550Y44600270I0J-15000D01*
G01*
Y44545270D01*
G75*
G02*
X46640550Y44530270I-15000J0D01*
G01*
X46565550D01*
G75*
G02*
X46550550Y44545270I0J15000D01*
G01*
X46594550Y44132770D02*
Y44207770D01*
G75*
G02*
X46609550Y44222770I15000J0D01*
G01*
X46664550D01*
G75*
G02*
X46679550Y44207770I0J-15000D01*
G01*
Y44132770D01*
G75*
G02*
X46664550Y44117770I-15000J0D01*
G01*
X46609550D01*
G75*
G02*
X46594550Y44132770I0J15000D01*
G01*
X46641000Y43224800D02*
X46690200D01*
Y43274000D01*
X46744200D01*
Y43170800D01*
X46641000D01*
Y43224800D01*
Y43431200D02*
X46744200D01*
Y43328000D01*
X46690200D01*
Y43377200D01*
X46641000D01*
Y43431200D01*
X46558200Y45007770D02*
X46571050D01*
Y44953770D01*
X46511550D01*
Y44961120D01*
G75*
G02*
X46558200Y45007770I46650J0D01*
G01*
X46228050Y44580270D02*
Y44635270D01*
G75*
G02*
X46243050Y44650270I15000J0D01*
G01*
X46318050D01*
G75*
G02*
X46333050Y44635270I0J-15000D01*
G01*
Y44580270D01*
G75*
G02*
X46318050Y44565270I-15000J0D01*
G01*
X46243050D01*
G75*
G02*
X46228050Y44580270I0J15000D01*
G01*
Y44675270D02*
Y44730270D01*
G75*
G02*
X46243050Y44745270I15000J0D01*
G01*
X46318050D01*
G75*
G02*
X46333050Y44730270I0J-15000D01*
G01*
Y44675270D01*
G75*
G02*
X46318050Y44660270I-15000J0D01*
G01*
X46243050D01*
G75*
G02*
X46228050Y44675270I0J15000D01*
G01*
X45703050Y44718170D02*
Y44773170D01*
G75*
G02*
X45718050Y44788170I15000J0D01*
G01*
X45793050D01*
G75*
G02*
X45808050Y44773170I0J-15000D01*
G01*
Y44718170D01*
G75*
G02*
X45793050Y44703170I-15000J0D01*
G01*
X45718050D01*
G75*
G02*
X45703050Y44718170I0J15000D01*
G01*
X45805550Y44622770D02*
Y44697770D01*
G75*
G02*
X45820550Y44712770I15000J0D01*
G01*
X45875550D01*
G75*
G02*
X45890550Y44697770I0J-15000D01*
G01*
Y44622770D01*
G75*
G02*
X45875550Y44607770I-15000J0D01*
G01*
X45820550D01*
G75*
G02*
X45805550Y44622770I0J15000D01*
G01*
X45755800Y43397200D02*
X45948200D01*
Y43204800D01*
X45755800D01*
Y43397200D01*
X45770550Y44365270D02*
Y44420270D01*
G75*
G02*
X45785550Y44435270I15000J0D01*
G01*
X45860550D01*
G75*
G02*
X45875550Y44420270I0J-15000D01*
G01*
Y44365270D01*
G75*
G02*
X45860550Y44350270I-15000J0D01*
G01*
X45785550D01*
G75*
G02*
X45770550Y44365270I0J15000D01*
G01*
X45773050Y44482770D02*
Y44537770D01*
G75*
G02*
X45788050Y44552770I15000J0D01*
G01*
X45863050D01*
G75*
G02*
X45878050Y44537770I0J-15000D01*
G01*
Y44482770D01*
G75*
G02*
X45863050Y44467770I-15000J0D01*
G01*
X45788050D01*
G75*
G02*
X45773050Y44482770I0J15000D01*
G01*
X45878050Y44422770D02*
Y44477770D01*
G75*
G02*
X45893050Y44492770I15000J0D01*
G01*
X45968050D01*
G75*
G02*
X45983050Y44477770I0J-15000D01*
G01*
Y44422770D01*
G75*
G02*
X45968050Y44407770I-15000J0D01*
G01*
X45893050D01*
G75*
G02*
X45878050Y44422770I0J15000D01*
G01*
X46009800Y43397200D02*
X46202200D01*
Y43204800D01*
X46009800D01*
Y43397200D01*
X46020550Y44562770D02*
Y44617770D01*
G75*
G02*
X46035550Y44632770I15000J0D01*
G01*
X46110550D01*
G75*
G02*
X46125550Y44617770I0J-15000D01*
G01*
Y44562770D01*
G75*
G02*
X46110550Y44547770I-15000J0D01*
G01*
X46035550D01*
G75*
G02*
X46020550Y44562770I0J15000D01*
G01*
X46225550Y44485270D02*
Y44540270D01*
G75*
G02*
X46240550Y44555270I15000J0D01*
G01*
X46315550D01*
G75*
G02*
X46330550Y44540270I0J-15000D01*
G01*
Y44485270D01*
G75*
G02*
X46315550Y44470270I-15000J0D01*
G01*
X46240550D01*
G75*
G02*
X46225550Y44485270I0J15000D01*
G01*
X46229800Y43274000D02*
X46283800D01*
Y43224800D01*
X46333000D01*
Y43170800D01*
X46229800D01*
Y43274000D01*
Y43431200D02*
X46333000D01*
Y43377200D01*
X46283800D01*
Y43328000D01*
X46229800D01*
Y43431200D01*
X45605550Y44933270D02*
X45659550D01*
Y44920420D01*
G75*
G02*
X45612900Y44873770I-46650J0D01*
G01*
X45605550D01*
Y44933270D01*
X44993800Y43397200D02*
X45186200D01*
Y43204800D01*
X44993800D01*
Y43397200D01*
X45175680Y43751270D02*
G75*
G03*
X45179050Y43747900I30370J27000D01*
G01*
Y43687560D01*
G75*
G02*
X45115340Y43751270I27000J90710D01*
G01*
X45175680D01*
X45179050Y43868980D02*
Y43808640D01*
G75*
G03*
X45175680Y43805270I27000J-30370D01*
G01*
X45115340D01*
G75*
G02*
X45179050Y43868980I90710J-27000D01*
G01*
X45233050Y43747900D02*
G75*
G03*
X45236420Y43751270I-27000J30370D01*
G01*
X45296760D01*
G75*
G02*
X45233050Y43687560I-90710J27000D01*
G01*
Y43747900D01*
X45247800Y43397200D02*
X45440200D01*
Y43204800D01*
X45247800D01*
Y43397200D01*
X45233050Y43868980D02*
G75*
G02*
X45296760Y43805270I-27000J-90710D01*
G01*
X45236420D01*
G75*
G03*
X45233050Y43808640I-30370J-27000D01*
G01*
Y43868980D01*
X45501800Y43397200D02*
X45694200D01*
Y43204800D01*
X45501800D01*
Y43397200D01*
X45506550Y44920420D02*
Y44933270D01*
X45560550D01*
Y44873770D01*
X45553200D01*
G75*
G02*
X45506550Y44920420I0J46650D01*
G01*
X44724410Y44159270D02*
G75*
G02*
X44845690I60640J0D01*
G01*
G75*
G02*
X44724410I-60640J0D01*
G01*
X44623050Y43747900D02*
G75*
G03*
X44626420Y43751270I-27000J30370D01*
G01*
X44686760D01*
G75*
G02*
X44623050Y43687560I-90710J27000D01*
G01*
Y43747900D01*
Y43868980D02*
G75*
G02*
X44686760Y43805270I-27000J-90710D01*
G01*
X44626420D01*
G75*
G03*
X44623050Y43808640I-30370J-27000D01*
G01*
Y43868980D01*
X44628050Y44997770D02*
Y45072770D01*
G75*
G02*
X44643050Y45087770I15000J0D01*
G01*
X44698050D01*
G75*
G02*
X44713050Y45072770I0J-15000D01*
G01*
Y44997770D01*
G75*
G02*
X44698050Y44982770I-15000J0D01*
G01*
X44643050D01*
G75*
G02*
X44628050Y44997770I0J15000D01*
G01*
X44565680Y43751270D02*
G75*
G03*
X44569050Y43747900I30370J27000D01*
G01*
Y43687560D01*
G75*
G02*
X44505340Y43751270I27000J90710D01*
G01*
X44565680D01*
X44569050Y43868980D02*
Y43808640D01*
G75*
G03*
X44565680Y43805270I27000J-30370D01*
G01*
X44505340D01*
G75*
G02*
X44569050Y43868980I90710J-27000D01*
G01*
X44493050Y46705270D02*
Y46760270D01*
G75*
G02*
X44508050Y46775270I15000J0D01*
G01*
X44583050D01*
G75*
G02*
X44598050Y46760270I0J-15000D01*
G01*
Y46705270D01*
G75*
G02*
X44583050Y46690270I-15000J0D01*
G01*
X44508050D01*
G75*
G02*
X44493050Y46705270I0J15000D01*
G01*
X44328400Y48240200D02*
X44520800D01*
Y48047800D01*
X44328400D01*
Y48240200D01*
X44607680Y47430770D02*
G75*
G03*
X44611050Y47427400I30370J27000D01*
G01*
Y47367060D01*
G75*
G02*
X44547340Y47430770I27000J90710D01*
G01*
X44607680D01*
X44611050Y47548480D02*
Y47488140D01*
G75*
G03*
X44607680Y47484770I27000J-30370D01*
G01*
X44547340D01*
G75*
G02*
X44611050Y47548480I90710J-27000D01*
G01*
X44577350Y47943970D02*
X44769750D01*
Y47751570D01*
X44577350D01*
Y47943970D01*
X44665050Y47427400D02*
G75*
G03*
X44668420Y47430770I-27000J30370D01*
G01*
X44728760D01*
G75*
G02*
X44665050Y47367060I-90710J27000D01*
G01*
Y47427400D01*
Y47548480D02*
G75*
G02*
X44728760Y47484770I-27000J-90710D01*
G01*
X44668420D01*
G75*
G03*
X44665050Y47488140I-30370J-27000D01*
G01*
Y47548480D01*
X44582400Y48240200D02*
X44774800D01*
Y48047800D01*
X44582400D01*
Y48240200D01*
X44802400Y48117000D02*
X44856400D01*
Y48067800D01*
X44905600D01*
Y48013800D01*
X44802400D01*
Y48117000D01*
Y48274200D02*
X44905600D01*
Y48220200D01*
X44856400D01*
Y48171000D01*
X44802400D01*
Y48274200D01*
X44959600Y48067800D02*
X45008800D01*
Y48117000D01*
X45062800D01*
Y48013800D01*
X44959600D01*
Y48067800D01*
X44990410Y45675270D02*
G75*
G02*
X45111690I60640J0D01*
G01*
G75*
G02*
X44990410I-60640J0D01*
G01*
X44959600Y48274200D02*
X45062800D01*
Y48171000D01*
X45008800D01*
Y48220200D01*
X44959600D01*
Y48274200D01*
X45090400Y46173970D02*
X45282800D01*
Y45981570D01*
X45090400D01*
Y46173970D01*
Y46427970D02*
X45282800D01*
Y46235570D01*
X45090400D01*
Y46427970D01*
Y46681970D02*
X45282800D01*
Y46489570D01*
X45090400D01*
Y46681970D01*
Y46935970D02*
X45282800D01*
Y46743570D01*
X45090400D01*
Y46935970D01*
Y47189970D02*
X45282800D01*
Y46997570D01*
X45090400D01*
Y47189970D01*
Y48240200D02*
X45282800D01*
Y48047800D01*
X45090400D01*
Y48240200D01*
X45344400Y46173970D02*
X45536800D01*
Y45981570D01*
X45344400D01*
Y46173970D01*
Y46427970D02*
X45536800D01*
Y46235570D01*
X45344400D01*
Y46427970D01*
Y46681970D02*
X45536800D01*
Y46489570D01*
X45344400D01*
Y46681970D01*
Y46935970D02*
X45536800D01*
Y46743570D01*
X45344400D01*
Y46935970D01*
Y47189970D02*
X45536800D01*
Y46997570D01*
X45344400D01*
Y47189970D01*
Y48240200D02*
X45536800D01*
Y48047800D01*
X45344400D01*
Y48240200D01*
X45588050Y46677770D02*
Y46732770D01*
G75*
G02*
X45603050Y46747770I15000J0D01*
G01*
X45678050D01*
G75*
G02*
X45693050Y46732770I0J-15000D01*
G01*
Y46677770D01*
G75*
G02*
X45678050Y46662770I-15000J0D01*
G01*
X45603050D01*
G75*
G02*
X45588050Y46677770I0J15000D01*
G01*
X45598400Y48240200D02*
X45790800D01*
Y48047800D01*
X45598400D01*
Y48240200D01*
X45852400D02*
X46044800D01*
Y48047800D01*
X45852400D01*
Y48240200D01*
X45969050Y46092420D02*
Y46099770D01*
X46028550D01*
Y46045770D01*
X46015700D01*
G75*
G02*
X45969050Y46092420I0J46650D01*
G01*
X46015700Y46198770D02*
X46028550D01*
Y46144770D01*
X45969050D01*
Y46152120D01*
G75*
G02*
X46015700Y46198770I46650J0D01*
G01*
X46082550Y46099770D02*
X46142050D01*
Y46092420D01*
G75*
G02*
X46095400Y46045770I-46650J0D01*
G01*
X46082550D01*
Y46099770D01*
Y46198770D02*
X46095400D01*
G75*
G02*
X46142050Y46152120I0J-46650D01*
G01*
Y46144770D01*
X46082550D01*
Y46198770D01*
X46106400Y48240200D02*
X46298800D01*
Y48047800D01*
X46106400D01*
Y48240200D01*
X46360400D02*
X46552800D01*
Y48047800D01*
X46360400D01*
Y48240200D01*
X46375550Y46392770D02*
Y46447770D01*
G75*
G02*
X46390550Y46462770I15000J0D01*
G01*
X46465550D01*
G75*
G02*
X46480550Y46447770I0J-15000D01*
G01*
Y46392770D01*
G75*
G02*
X46465550Y46377770I-15000J0D01*
G01*
X46390550D01*
G75*
G02*
X46375550Y46392770I0J15000D01*
G01*
X46408050Y45635270D02*
Y45690270D01*
G75*
G02*
X46423050Y45705270I15000J0D01*
G01*
X46498050D01*
G75*
G02*
X46513050Y45690270I0J-15000D01*
G01*
Y45635270D01*
G75*
G02*
X46498050Y45620270I-15000J0D01*
G01*
X46423050D01*
G75*
G02*
X46408050Y45635270I0J15000D01*
G01*
X46558200Y45257770D02*
X46571050D01*
Y45203770D01*
X46511550D01*
Y45211120D01*
G75*
G02*
X46558200Y45257770I46650J0D01*
G01*
X46421550Y45820420D02*
Y45827770D01*
X46481050D01*
Y45773770D01*
X46468200D01*
G75*
G02*
X46421550Y45820420I0J46650D01*
G01*
X46468200Y45926770D02*
X46481050D01*
Y45872770D01*
X46421550D01*
Y45880120D01*
G75*
G02*
X46468200Y45926770I46650J0D01*
G01*
X46448550Y47795770D02*
Y47870770D01*
G75*
G02*
X46463550Y47885770I15000J0D01*
G01*
X46518550D01*
G75*
G02*
X46533550Y47870770I0J-15000D01*
G01*
Y47795770D01*
G75*
G02*
X46518550Y47780770I-15000J0D01*
G01*
X46463550D01*
G75*
G02*
X46448550Y47795770I0J15000D01*
G01*
X46515550Y47642770D02*
Y47697770D01*
G75*
G02*
X46530550Y47712770I15000J0D01*
G01*
X46605550D01*
G75*
G02*
X46620550Y47697770I0J-15000D01*
G01*
Y47642770D01*
G75*
G02*
X46605550Y47627770I-15000J0D01*
G01*
X46530550D01*
G75*
G02*
X46515550Y47642770I0J15000D01*
G01*
X46535050Y45827770D02*
X46594550D01*
Y45820420D01*
G75*
G02*
X46547900Y45773770I-46650J0D01*
G01*
X46535050D01*
Y45827770D01*
Y45926770D02*
X46547900D01*
G75*
G02*
X46594550Y45880120I0J-46650D01*
G01*
Y45872770D01*
X46535050D01*
Y45926770D01*
X46541480Y47580450D02*
X46580370Y47619340D01*
G75*
G02*
X46601590I10610J-10610D01*
G01*
X46654620Y47566310D01*
G75*
G02*
X46659010Y47555700I-10610J-10600D01*
G01*
G75*
G02*
X46654620Y47545090I-15000J-10D01*
G01*
X46615730Y47506200D01*
G75*
G02*
X46594510I-10610J10610D01*
G01*
X46541480Y47559230D01*
G75*
G02*
X46537090Y47569840I10610J10600D01*
G01*
G75*
G02*
X46541480Y47580450I15000J10D01*
G01*
X46625050Y45257770D02*
X46637900D01*
G75*
G02*
X46684550Y45211120I0J-46650D01*
G01*
Y45203770D01*
X46625050D01*
Y45257770D01*
X46590550Y47795770D02*
Y47870770D01*
G75*
G02*
X46605550Y47885770I15000J0D01*
G01*
X46660550D01*
G75*
G02*
X46675550Y47870770I0J-15000D01*
G01*
Y47795770D01*
G75*
G02*
X46660550Y47780770I-15000J0D01*
G01*
X46605550D01*
G75*
G02*
X46590550Y47795770I0J15000D01*
G01*
X46631480Y47697950D02*
X46670370Y47736840D01*
G75*
G02*
X46691590I10610J-10610D01*
G01*
X46744620Y47683810D01*
G75*
G02*
X46749010Y47673200I-10610J-10600D01*
G01*
G75*
G02*
X46744620Y47662590I-15000J-10D01*
G01*
X46705730Y47623700D01*
G75*
G02*
X46684510I-10610J10610D01*
G01*
X46631480Y47676730D01*
G75*
G02*
X46627090Y47687340I10610J10600D01*
G01*
G75*
G02*
X46631480Y47697950I15000J10D01*
G01*
X46685550Y44132770D02*
Y44207770D01*
G75*
G02*
X46700550Y44222770I15000J0D01*
G01*
X46755550D01*
G75*
G02*
X46770550Y44207770I0J-15000D01*
G01*
Y44132770D01*
G75*
G02*
X46755550Y44117770I-15000J0D01*
G01*
X46700550D01*
G75*
G02*
X46685550Y44132770I0J15000D01*
G01*
X46768850Y48236470D02*
X46961250D01*
Y48044070D01*
X46768850D01*
Y48236470D01*
X46771800Y43397200D02*
X46964200D01*
Y43204800D01*
X46771800D01*
Y43397200D01*
X46818980Y44518810D02*
X46872010Y44571840D01*
G75*
G02*
X46893230I10610J-10610D01*
G01*
X46932120Y44532950D01*
G75*
G02*
X46936510Y44522340I-10610J-10600D01*
G01*
G75*
G02*
X46932120Y44511730I-15000J-10D01*
G01*
X46879090Y44458700D01*
G75*
G02*
X46857870I-10610J10610D01*
G01*
X46818980Y44497590D01*
G75*
G02*
X46814590Y44508200I10610J10600D01*
G01*
G75*
G02*
X46818980Y44518810I15000J10D01*
G01*
X46829980Y44132770D02*
Y44207770D01*
G75*
G02*
X46844980Y44222770I15000J0D01*
G01*
X46890300D01*
G75*
G02*
X46935200Y44256770I44900J-12650D01*
G01*
X46942550D01*
Y44197270D01*
X46914980D01*
Y44143270D01*
X46942550D01*
Y44083770D01*
X46935200D01*
G75*
G02*
X46890300Y44117770I0J46650D01*
G01*
X46844980D01*
G75*
G02*
X46829980Y44132770I0J15000D01*
G01*
X47026680Y43764270D02*
G75*
G03*
X47030050Y43760900I30370J27000D01*
G01*
Y43700560D01*
G75*
G02*
X46966340Y43764270I27000J90710D01*
G01*
X47026680D01*
X47030050Y43881980D02*
Y43821640D01*
G75*
G03*
X47026680Y43818270I27000J-30370D01*
G01*
X46966340D01*
G75*
G02*
X47030050Y43881980I90710J-27000D01*
G01*
X46987550Y44143270D02*
X47041550D01*
Y44130420D01*
G75*
G02*
X46994900Y44083770I-46650J0D01*
G01*
X46987550D01*
Y44143270D01*
Y44256770D02*
X46994900D01*
G75*
G02*
X47041550Y44210120I0J-46650D01*
G01*
Y44197270D01*
X46987550D01*
Y44256770D01*
X47022850Y48236470D02*
X47215250D01*
Y48044070D01*
X47022850D01*
Y48236470D01*
X47047550Y45215420D02*
Y45222770D01*
X47107050D01*
Y45168770D01*
X47094200D01*
G75*
G02*
X47047550Y45215420I0J46650D01*
G01*
X47060550Y44446420D02*
Y44459270D01*
X47114550D01*
Y44399770D01*
X47107200D01*
G75*
G02*
X47060550Y44446420I0J46650D01*
G01*
X47084050Y43760900D02*
G75*
G03*
X47087420Y43764270I-27000J30370D01*
G01*
X47147760D01*
G75*
G02*
X47084050Y43700560I-90710J27000D01*
G01*
Y43760900D01*
Y43881980D02*
G75*
G02*
X47147760Y43818270I-27000J-90710D01*
G01*
X47087420D01*
G75*
G03*
X47084050Y43821640I-30370J-27000D01*
G01*
Y43881980D01*
X47107200Y44572770D02*
X47114550D01*
Y44513270D01*
X47060550D01*
Y44526120D01*
G75*
G02*
X47107200Y44572770I46650J0D01*
G01*
X47085550Y44782770D02*
Y44857770D01*
G75*
G02*
X47100550Y44872770I15000J0D01*
G01*
X47155550D01*
G75*
G02*
X47170550Y44857770I0J-15000D01*
G01*
Y44782770D01*
X47205550D01*
Y44857770D01*
G75*
G02*
X47220550Y44872770I15000J0D01*
G01*
X47275550D01*
G75*
G02*
X47290550Y44857770I0J-15000D01*
G01*
Y44782770D01*
G75*
G02*
X47275550Y44767770I-15000J0D01*
G01*
X47230550D01*
Y44692770D01*
G75*
G02*
X47215550Y44677770I-15000J0D01*
G01*
X47160550D01*
G75*
G02*
X47145550Y44692770I0J15000D01*
G01*
Y44767770D01*
X47100550D01*
G75*
G02*
X47085550Y44782770I0J15000D01*
G01*
X47285550Y44537770D02*
Y44612770D01*
G75*
G02*
X47300550Y44627770I15000J0D01*
G01*
X47355550D01*
G75*
G02*
X47370550Y44612770I0J-15000D01*
G01*
Y44537770D01*
G75*
G02*
X47355550Y44522770I-15000J0D01*
G01*
X47300550D01*
G75*
G02*
X47285550Y44537770I0J15000D01*
G01*
X47205550Y44627770D02*
X47260550D01*
G75*
G02*
X47275550Y44612770I0J-15000D01*
G01*
Y44537770D01*
G75*
G02*
X47260550Y44522770I-15000J0D01*
G01*
X47213550D01*
Y44513270D01*
X47159550D01*
Y44572770D01*
X47166900D01*
G75*
G02*
X47190550Y44566330I0J-46650D01*
G01*
Y44612770D01*
G75*
G02*
X47205550Y44627770I15000J0D01*
G01*
X47264800Y43397200D02*
X47457200D01*
Y43204800D01*
X47264800D01*
Y43397200D01*
X47159550Y44459270D02*
X47213550D01*
Y44446420D01*
G75*
G02*
X47166900Y44399770I-46650J0D01*
G01*
X47159550D01*
Y44459270D01*
X47084550Y45320760D02*
Y45365270D01*
G75*
G02*
X47099550Y45380270I15000J0D01*
G01*
X47174550D01*
G75*
G02*
X47189550Y45365270I0J-15000D01*
G01*
Y45319070D01*
G75*
G02*
X47220550Y45275120I-15650J-43950D01*
G01*
Y45267770D01*
X47161050D01*
Y45295270D01*
X47107050D01*
Y45267770D01*
X47047550D01*
Y45275120D01*
G75*
G02*
X47084550Y45320760I46650J0D01*
G01*
X47161050Y45222770D02*
X47220550D01*
Y45215420D01*
G75*
G02*
X47173900Y45168770I-46650J0D01*
G01*
X47161050D01*
Y45222770D01*
X47070550Y45625270D02*
Y45700270D01*
G75*
G02*
X47085550Y45715270I15000J0D01*
G01*
X47140550D01*
G75*
G02*
X47155550Y45700270I0J-15000D01*
G01*
Y45625270D01*
G75*
G02*
X47140550Y45610270I-15000J0D01*
G01*
X47085550D01*
G75*
G02*
X47070550Y45625270I0J15000D01*
G01*
X47073050Y47060270D02*
Y47135270D01*
G75*
G02*
X47088050Y47150270I15000J0D01*
G01*
X47143050D01*
G75*
G02*
X47158050Y47135270I0J-15000D01*
G01*
Y47060270D01*
G75*
G02*
X47143050Y47045270I-15000J0D01*
G01*
X47088050D01*
G75*
G02*
X47073050Y47060270I0J15000D01*
G01*
X47135550Y46940270D02*
Y47015270D01*
G75*
G02*
X47150550Y47030270I15000J0D01*
G01*
X47205550D01*
G75*
G02*
X47220550Y47015270I0J-15000D01*
G01*
Y46940270D01*
G75*
G02*
X47205550Y46925270I-15000J0D01*
G01*
X47150550D01*
G75*
G02*
X47135550Y46940270I0J15000D01*
G01*
X47165550Y45592770D02*
Y45667770D01*
G75*
G02*
X47180550Y45682770I15000J0D01*
G01*
X47235550D01*
G75*
G02*
X47250550Y45667770I0J-15000D01*
G01*
Y45592770D01*
G75*
G02*
X47235550Y45577770I-15000J0D01*
G01*
X47180550D01*
G75*
G02*
X47165550Y45592770I0J15000D01*
G01*
X47202550Y46204900D02*
G75*
G03*
X47205920Y46208270I-27000J30370D01*
G01*
X47266260D01*
G75*
G02*
X47202550Y46144560I-90710J27000D01*
G01*
Y46204900D01*
Y46325980D02*
G75*
G02*
X47266260Y46262270I-27000J-90710D01*
G01*
X47205920D01*
G75*
G03*
X47202550Y46265640I-30370J-27000D01*
G01*
Y46325980D01*
X47075550Y45827770D02*
Y45902770D01*
G75*
G02*
X47090550Y45917770I15000J0D01*
G01*
X47145550D01*
G75*
G02*
X47160550Y45902770I0J-15000D01*
G01*
Y45827770D01*
G75*
G02*
X47145550Y45812770I-15000J0D01*
G01*
X47090550D01*
G75*
G02*
X47075550Y45827770I0J15000D01*
G01*
X47145180Y46208270D02*
G75*
G03*
X47148550Y46204900I30370J27000D01*
G01*
Y46144560D01*
G75*
G02*
X47084840Y46208270I27000J90710D01*
G01*
X47145180D01*
X47148550Y46325980D02*
Y46265640D01*
G75*
G03*
X47145180Y46262270I27000J-30370D01*
G01*
X47084840D01*
G75*
G02*
X47148550Y46325980I90710J-27000D01*
G01*
X47198050Y47057770D02*
Y47132770D01*
G75*
G02*
X47213050Y47147770I15000J0D01*
G01*
X47268050D01*
G75*
G02*
X47283050Y47132770I0J-15000D01*
G01*
Y47057770D01*
G75*
G02*
X47268050Y47042770I-15000J0D01*
G01*
X47213050D01*
G75*
G02*
X47198050Y47057770I0J15000D01*
G01*
X47255550Y46940270D02*
Y47015270D01*
G75*
G02*
X47270550Y47030270I15000J0D01*
G01*
X47325550D01*
G75*
G02*
X47340550Y47015270I0J-15000D01*
G01*
Y46940270D01*
G75*
G02*
X47325550Y46925270I-15000J0D01*
G01*
X47270550D01*
G75*
G02*
X47255550Y46940270I0J15000D01*
G01*
X47295550Y45018770D02*
Y45093770D01*
G75*
G02*
X47310550Y45108770I15000J0D01*
G01*
X47365550D01*
G75*
G02*
X47380550Y45093770I0J-15000D01*
G01*
Y45018770D01*
G75*
G02*
X47365550Y45003770I-15000J0D01*
G01*
X47310550D01*
G75*
G02*
X47295550Y45018770I0J15000D01*
G01*
X47378050Y44535270D02*
Y44610270D01*
G75*
G02*
X47393050Y44625270I15000J0D01*
G01*
X47448050D01*
G75*
G02*
X47463050Y44610270I0J-15000D01*
G01*
Y44535270D01*
G75*
G02*
X47448050Y44520270I-15000J0D01*
G01*
X47393050D01*
G75*
G02*
X47378050Y44535270I0J15000D01*
G01*
X47276850Y48236470D02*
X47469250D01*
Y48044070D01*
X47276850D01*
Y48236470D01*
X47320550Y47540270D02*
Y47595270D01*
G75*
G02*
X47335550Y47610270I15000J0D01*
G01*
X47410550D01*
G75*
G02*
X47425550Y47595270I0J-15000D01*
G01*
Y47540270D01*
G75*
G02*
X47410550Y47525270I-15000J0D01*
G01*
X47335550D01*
G75*
G02*
X47320550Y47540270I0J15000D01*
G01*
X47325550Y47437770D02*
Y47492770D01*
G75*
G02*
X47340550Y47507770I15000J0D01*
G01*
X47415550D01*
G75*
G02*
X47430550Y47492770I0J-15000D01*
G01*
Y47437770D01*
G75*
G02*
X47415550Y47422770I-15000J0D01*
G01*
X47340550D01*
G75*
G02*
X47325550Y47437770I0J15000D01*
G01*
X47320550Y47672770D02*
Y47727770D01*
G75*
G02*
X47335550Y47742770I15000J0D01*
G01*
X47410550D01*
G75*
G02*
X47425550Y47727770I0J-15000D01*
G01*
Y47672770D01*
G75*
G02*
X47410550Y47657770I-15000J0D01*
G01*
X47335550D01*
G75*
G02*
X47320550Y47672770I0J15000D01*
G01*
X47510550Y44292770D02*
Y44367770D01*
G75*
G02*
X47525550Y44382770I15000J0D01*
G01*
X47580550D01*
G75*
G02*
X47595550Y44367770I0J-15000D01*
G01*
Y44292770D01*
G75*
G02*
X47580550Y44277770I-15000J0D01*
G01*
X47525550D01*
G75*
G02*
X47510550Y44292770I0J15000D01*
G01*
X47518800Y43397200D02*
X47711200D01*
Y43204800D01*
X47518800D01*
Y43397200D01*
X47513050Y46175270D02*
Y46250270D01*
G75*
G02*
X47528050Y46265270I15000J0D01*
G01*
X47583050D01*
G75*
G02*
X47598050Y46250270I0J-15000D01*
G01*
Y46175270D01*
G75*
G02*
X47583050Y46160270I-15000J0D01*
G01*
X47528050D01*
G75*
G02*
X47513050Y46175270I0J15000D01*
G01*
X47525550Y45895270D02*
Y45970270D01*
G75*
G02*
X47540550Y45985270I15000J0D01*
G01*
X47595550D01*
G75*
G02*
X47610550Y45970270I0J-15000D01*
G01*
Y45895270D01*
G75*
G02*
X47595550Y45880270I-15000J0D01*
G01*
X47540550D01*
G75*
G02*
X47525550Y45895270I0J15000D01*
G01*
X47513050Y46395270D02*
Y46470270D01*
G75*
G02*
X47528050Y46485270I15000J0D01*
G01*
X47583050D01*
G75*
G02*
X47598050Y46470270I0J-15000D01*
G01*
Y46395270D01*
G75*
G02*
X47583050Y46380270I-15000J0D01*
G01*
X47528050D01*
G75*
G02*
X47513050Y46395270I0J15000D01*
G01*
Y46645270D02*
Y46720270D01*
G75*
G02*
X47528050Y46735270I15000J0D01*
G01*
X47583050D01*
G75*
G02*
X47598050Y46720270I0J-15000D01*
G01*
Y46645270D01*
G75*
G02*
X47583050Y46630270I-15000J0D01*
G01*
X47528050D01*
G75*
G02*
X47513050Y46645270I0J15000D01*
G01*
X47530850Y48236470D02*
X47723250D01*
Y48044070D01*
X47530850D01*
Y48236470D01*
X47568550Y47375270D02*
Y47430270D01*
G75*
G02*
X47583550Y47445270I15000J0D01*
G01*
X47658550D01*
G75*
G02*
X47673550Y47430270I0J-15000D01*
G01*
Y47375270D01*
G75*
G02*
X47658550Y47360270I-15000J0D01*
G01*
X47583550D01*
G75*
G02*
X47568550Y47375270I0J15000D01*
G01*
X47668320Y44788420D02*
Y44795770D01*
X47727820D01*
Y44741770D01*
X47714970D01*
G75*
G02*
X47668320Y44788420I0J46650D01*
G01*
X47702320Y44893020D02*
Y44922770D01*
G75*
G02*
X47717320Y44937770I15000J0D01*
G01*
X47792320D01*
G75*
G02*
X47807320Y44922770I0J-15000D01*
G01*
Y44893020D01*
G75*
G02*
X47841320Y44848120I-12650J-44900D01*
G01*
Y44840770D01*
X47781820D01*
Y44852770D01*
X47727820D01*
Y44840770D01*
X47668320D01*
Y44848120D01*
G75*
G02*
X47702320Y44893020I46650J0D01*
G01*
X47772800Y43397200D02*
X47965200D01*
Y43204800D01*
X47772800D01*
Y43397200D01*
X47781820Y44795770D02*
X47841320D01*
Y44788420D01*
G75*
G02*
X47794670Y44741770I-46650J0D01*
G01*
X47781820D01*
Y44795770D01*
X47568550Y47614770D02*
Y47669770D01*
G75*
G02*
X47583550Y47684770I15000J0D01*
G01*
X47658550D01*
G75*
G02*
X47673550Y47669770I0J-15000D01*
G01*
Y47614770D01*
G75*
G02*
X47658550Y47599770I-15000J0D01*
G01*
X47583550D01*
G75*
G02*
X47568550Y47614770I0J15000D01*
G01*
X47702320Y45301770D02*
Y45356770D01*
G75*
G02*
X47717320Y45371770I15000J0D01*
G01*
X47792320D01*
G75*
G02*
X47807320Y45356770I0J-15000D01*
G01*
Y45301770D01*
G75*
G02*
X47792320Y45286770I-15000J0D01*
G01*
X47717320D01*
G75*
G02*
X47702320Y45301770I0J15000D01*
G01*
X47784850Y48236470D02*
X47977250D01*
Y48044070D01*
X47784850D01*
Y48236470D01*
X47817420Y45301770D02*
Y45356770D01*
G75*
G02*
X47832420Y45371770I15000J0D01*
G01*
X47907420D01*
G75*
G02*
X47922420Y45356770I0J-15000D01*
G01*
Y45301770D01*
G75*
G02*
X47907420Y45286770I-15000J0D01*
G01*
X47832420D01*
G75*
G02*
X47817420Y45301770I0J15000D01*
G01*
X47932510D02*
Y45356770D01*
G75*
G02*
X47947510Y45371770I15000J0D01*
G01*
X48022510D01*
G75*
G02*
X48037510Y45356770I0J-15000D01*
G01*
Y45301770D01*
G75*
G02*
X48022510Y45286770I-15000J0D01*
G01*
X47947510D01*
G75*
G02*
X47932510Y45301770I0J15000D01*
G01*
X48026800Y43397200D02*
X48219200D01*
Y43204800D01*
X48026800D01*
Y43397200D01*
X48038850Y48236470D02*
X48231250D01*
Y48044070D01*
X48038850D01*
Y48236470D01*
X48039550Y45301770D02*
Y45356770D01*
G75*
G02*
X48054550Y45371770I15000J0D01*
G01*
X48129550D01*
G75*
G02*
X48144550Y45356770I0J-15000D01*
G01*
Y45301770D01*
G75*
G02*
X48129550Y45286770I-15000J0D01*
G01*
X48054550D01*
G75*
G02*
X48039550Y45301770I0J15000D01*
G01*
X48131550Y45002770D02*
Y45057770D01*
G75*
G02*
X48146550Y45072770I15000J0D01*
G01*
X48221550D01*
G75*
G02*
X48236550Y45057770I0J-15000D01*
G01*
Y45002770D01*
G75*
G02*
X48221550Y44987770I-15000J0D01*
G01*
X48146550D01*
G75*
G02*
X48131550Y45002770I0J15000D01*
G01*
Y45127770D02*
Y45182770D01*
G75*
G02*
X48146550Y45197770I15000J0D01*
G01*
X48221550D01*
G75*
G02*
X48236550Y45182770I0J-15000D01*
G01*
Y45127770D01*
G75*
G02*
X48221550Y45112770I-15000J0D01*
G01*
X48146550D01*
G75*
G02*
X48131550Y45127770I0J15000D01*
G01*
X48280800Y43397200D02*
X48473200D01*
Y43204800D01*
X48280800D01*
Y43397200D01*
X48346680Y44779270D02*
G75*
G03*
X48350050Y44775900I30370J27000D01*
G01*
Y44715560D01*
G75*
G02*
X48286340Y44779270I27000J90710D01*
G01*
X48346680D01*
X48350050Y44896980D02*
Y44836640D01*
G75*
G03*
X48346680Y44833270I27000J-30370D01*
G01*
X48286340D01*
G75*
G02*
X48350050Y44896980I90710J-27000D01*
G01*
X48292850Y48236470D02*
X48485250D01*
Y48044070D01*
X48292850D01*
Y48236470D01*
X48404050Y44775900D02*
G75*
G03*
X48407420Y44779270I-27000J30370D01*
G01*
X48467760D01*
G75*
G02*
X48404050Y44715560I-90710J27000D01*
G01*
Y44775900D01*
Y44896980D02*
G75*
G02*
X48467760Y44833270I-27000J-90710D01*
G01*
X48407420D01*
G75*
G03*
X48404050Y44836640I-30370J-27000D01*
G01*
Y44896980D01*
X48486850Y44195270D02*
G75*
G02*
X48779250I146200J0D01*
G01*
G75*
G02*
X48486850I-146200J0D01*
G01*
X48534800Y43397200D02*
X48727200D01*
Y43204800D01*
X48534800D01*
Y43397200D01*
X48486850Y47240270D02*
G75*
G02*
X48779250I146200J0D01*
G01*
G75*
G02*
X48486850I-146200J0D01*
G01*
X48510850Y46120270D02*
X48564850D01*
Y46071070D01*
X48614050D01*
Y46017070D01*
X48510850D01*
Y46120270D01*
X48544850Y45735470D02*
X48737250D01*
Y45543070D01*
X48544850D01*
Y45735470D01*
Y45989470D02*
X48737250D01*
Y45797070D01*
X48544850D01*
Y45989470D01*
X48510850Y46277470D02*
X48614050D01*
Y46223470D01*
X48564850D01*
Y46174270D01*
X48510850D01*
Y46277470D01*
X48544850Y46497470D02*
X48737250D01*
Y46305070D01*
X48544850D01*
Y46497470D01*
X48668050Y46071070D02*
X48717250D01*
Y46120270D01*
X48771250D01*
Y46017070D01*
X48668050D01*
Y46071070D01*
Y46277470D02*
X48771250D01*
Y46174270D01*
X48717250D01*
Y46223470D01*
X48668050D01*
Y46277470D01*
X48544850Y46751470D02*
X48737250D01*
Y46559070D01*
X48544850D01*
Y46751470D01*
X48546850Y48236470D02*
X48739250D01*
Y48044070D01*
X48546850D01*
Y48236470D01*
X42303700Y43222400D02*
G36*
X42303700Y43222400D02*
Y43153000D01*
G75*
G03*
X42391000Y43065700I87300J0D01*
G01*
X48795000D01*
G75*
G03*
X48882300Y43153000I0J87300D01*
G01*
Y43222400D01*
X48727200D01*
Y43204800D01*
X48534800D01*
Y43222400D01*
X48473200D01*
Y43204800D01*
X48280800D01*
Y43222400D01*
X48219200D01*
Y43204800D01*
X48026800D01*
Y43222400D01*
X47965200D01*
Y43204800D01*
X47772800D01*
Y43222400D01*
X47711200D01*
Y43204800D01*
X47518800D01*
Y43222400D01*
X47457200D01*
Y43204800D01*
X47264800D01*
Y43222400D01*
X46964200D01*
Y43204800D01*
X46771800D01*
Y43222400D01*
X46744200D01*
Y43170800D01*
X46641000D01*
Y43222400D01*
X46587000D01*
Y43170800D01*
X46490200D01*
X46483800D01*
X46387000D01*
Y43222400D01*
X46333000D01*
Y43170800D01*
X46229800D01*
Y43222400D01*
X46202200D01*
Y43204800D01*
X46009800D01*
Y43222400D01*
X45948200D01*
Y43204800D01*
X45755800D01*
Y43222400D01*
X45694200D01*
Y43204800D01*
X45501800D01*
Y43222400D01*
X45440200D01*
Y43204800D01*
X45247800D01*
Y43222400D01*
X45186200D01*
Y43204800D01*
X44993800D01*
Y43222400D01*
X43966730D01*
G75*
G02*
X43769370I-98680J107870D01*
G01*
X43419030D01*
G75*
G02*
X43387400Y43204270I-31620J18500D01*
G01*
X43302050D01*
Y43222400D01*
X43248050D01*
Y43204270D01*
X43162700D01*
G75*
G02*
X43131070Y43222400I-10J36630D01*
G01*
X42799030D01*
G75*
G02*
X42767400Y43204270I-31620J18500D01*
G01*
X42682050D01*
Y43222400D01*
X42628050D01*
Y43204270D01*
X42542700D01*
G75*
G02*
X42511070Y43222400I-10J36630D01*
G01*
X42303700D01*
G37*
Y43332770D02*
G36*
X42303700Y43332770D02*
Y43222400D01*
X42511070D01*
G75*
G02*
X42506050Y43240900I31610J18510D01*
G01*
G75*
G02*
Y43240920I47750J10D01*
G01*
Y43332770D01*
X42303700D01*
G37*
X42560050Y43263270D02*
G36*
X42560050Y43263270D02*
G75*
G03*
Y43263250I6590J-10D01*
G01*
G75*
G03*
X42565050Y43258270I5000J0D01*
G01*
X42628050D01*
Y43222400D01*
X42682050D01*
Y43258270D01*
X42745050D01*
G75*
G03*
X42750050Y43263250I0J4980D01*
G01*
G75*
G03*
Y43263270I-6590J10D01*
G01*
Y43332770D01*
X42560050D01*
Y43263270D01*
G37*
X42804050Y43332770D02*
G36*
X42804050Y43332770D02*
Y43240920D01*
G75*
G02*
Y43240900I-47750J-10D01*
G01*
G75*
G02*
X42799030Y43222400I-36630J10D01*
G01*
X43131070D01*
G75*
G02*
X43126050Y43240900I31610J18510D01*
G01*
G75*
G02*
Y43240920I47750J10D01*
G01*
Y43332770D01*
X42804050D01*
G37*
X43180050Y43263270D02*
G36*
X43180050Y43263270D02*
G75*
G03*
Y43263250I6590J-10D01*
G01*
G75*
G03*
X43185050Y43258270I5000J0D01*
G01*
X43248050D01*
Y43222400D01*
X43302050D01*
Y43258270D01*
X43365050D01*
G75*
G03*
X43370050Y43263250I0J4980D01*
G01*
G75*
G03*
Y43263270I-6590J10D01*
G01*
Y43332770D01*
X43180050D01*
Y43263270D01*
G37*
X43424050Y43332770D02*
G36*
X43424050Y43332770D02*
Y43240920D01*
G75*
G02*
Y43240900I-47750J-10D01*
G01*
G75*
G02*
X43419030Y43222400I-36630J10D01*
G01*
X43769370D01*
G75*
G02*
X43721850Y43330270I98680J107870D01*
G01*
G75*
G02*
X43721870Y43332770I146320J80D01*
G01*
X43424050D01*
G37*
X44014250Y43330270D02*
G36*
X44014250Y43330270D02*
G75*
G02*
X43966730Y43222400I-146200J0D01*
G01*
X44993800D01*
Y43332770D01*
X44014230D01*
G75*
G02*
X44014250Y43330270I-146300J-2420D01*
G01*
G37*
X45186200Y43332770D02*
G36*
X45186200Y43332770D02*
Y43222400D01*
X45247800D01*
Y43332770D01*
X45186200D01*
G37*
X45440200D02*
G36*
X45440200Y43332770D02*
Y43222400D01*
X45501800D01*
Y43332770D01*
X45440200D01*
G37*
X45694200D02*
G36*
X45694200Y43332770D02*
Y43222400D01*
X45755800D01*
Y43332770D01*
X45694200D01*
G37*
X45948200D02*
G36*
X45948200Y43332770D02*
Y43222400D01*
X46009800D01*
Y43332770D01*
X45948200D01*
G37*
X46202200D02*
G36*
X46202200Y43332770D02*
Y43222400D01*
X46229800D01*
Y43274000D01*
X46283800D01*
Y43224800D01*
X46333000D01*
Y43222400D01*
X46387000D01*
Y43224800D01*
X46436200D01*
Y43274000D01*
X46483800D01*
X46490200D01*
X46537800D01*
Y43224800D01*
X46587000D01*
Y43222400D01*
X46641000D01*
Y43224800D01*
X46690200D01*
Y43274000D01*
X46744200D01*
Y43222400D01*
X46771800D01*
Y43332770D01*
X46744200D01*
Y43328000D01*
X46690200D01*
Y43332770D01*
X46537800D01*
Y43328000D01*
X46490200D01*
X46483800D01*
X46436200D01*
Y43332770D01*
X46283800D01*
Y43328000D01*
X46229800D01*
Y43332770D01*
X46202200D01*
G37*
X46964200D02*
G36*
X46964200Y43332770D02*
Y43222400D01*
X47264800D01*
Y43332770D01*
X46964200D01*
G37*
X47457200D02*
G36*
X47457200Y43332770D02*
Y43222400D01*
X47518800D01*
Y43332770D01*
X47457200D01*
G37*
X47711200D02*
G36*
X47711200Y43332770D02*
Y43222400D01*
X47772800D01*
Y43332770D01*
X47711200D01*
G37*
X47965200D02*
G36*
X47965200Y43332770D02*
Y43222400D01*
X48026800D01*
Y43332770D01*
X47965200D01*
G37*
X48219200D02*
G36*
X48219200Y43332770D02*
Y43222400D01*
X48280800D01*
Y43332770D01*
X48219200D01*
G37*
X48473200D02*
G36*
X48473200Y43332770D02*
Y43222400D01*
X48534800D01*
Y43332770D01*
X48473200D01*
G37*
X48727200D02*
G36*
X48727200Y43332770D02*
Y43222400D01*
X48882300D01*
Y43307000D01*
G75*
G02*
X48886020Y43315980I12730J-10D01*
G01*
X48902810Y43332770D01*
X48727200D01*
G37*
X42303700Y43643770D02*
G36*
X42303700Y43643770D02*
Y43332770D01*
X42506050D01*
Y43461270D01*
X42560050D01*
Y43332770D01*
X42750050D01*
Y43461270D01*
X42804050D01*
Y43332770D01*
X43126050D01*
Y43461270D01*
X43180050D01*
Y43332770D01*
X43370050D01*
Y43461270D01*
X43424050D01*
Y43332770D01*
X43721870D01*
G75*
G02*
X44014230I146180J-2500D01*
G01*
X44993800D01*
Y43397200D01*
X45186200D01*
Y43332770D01*
X45247800D01*
Y43397200D01*
X45440200D01*
Y43332770D01*
X45501800D01*
Y43397200D01*
X45694200D01*
Y43332770D01*
X45755800D01*
Y43397200D01*
X45948200D01*
Y43332770D01*
X46009800D01*
Y43397200D01*
X46202200D01*
Y43332770D01*
X46229800D01*
Y43431200D01*
X46333000D01*
Y43377200D01*
X46283800D01*
Y43332770D01*
X46436200D01*
Y43377200D01*
X46387000D01*
Y43431200D01*
X46483800D01*
X46490200D01*
X46587000D01*
Y43377200D01*
X46537800D01*
Y43332770D01*
X46690200D01*
Y43377200D01*
X46641000D01*
Y43431200D01*
X46744200D01*
Y43332770D01*
X46771800D01*
Y43397200D01*
X46964200D01*
Y43332770D01*
X47264800D01*
Y43397200D01*
X47457200D01*
Y43332770D01*
X47518800D01*
Y43397200D01*
X47711200D01*
Y43332770D01*
X47772800D01*
Y43397200D01*
X47965200D01*
Y43332770D01*
X48026800D01*
Y43397200D01*
X48219200D01*
Y43332770D01*
X48280800D01*
Y43397200D01*
X48473200D01*
Y43332770D01*
X48534800D01*
Y43397200D01*
X48727200D01*
Y43332770D01*
X48902810D01*
X49136300Y43566260D01*
Y43643770D01*
X43424050D01*
Y43515270D01*
X43370050D01*
Y43643770D01*
X43180050D01*
Y43515270D01*
X43126050D01*
Y43643770D01*
X42804050D01*
Y43515270D01*
X42750050D01*
Y43643770D01*
X42560050D01*
Y43515270D01*
X42506050D01*
Y43643770D01*
X42303700D01*
G37*
Y43719410D02*
G36*
X42303700Y43719410D02*
Y43643770D01*
X42506050D01*
Y43719410D01*
X42303700D01*
G37*
X42560050Y43713270D02*
G36*
X42560050Y43713270D02*
Y43643770D01*
X42750050D01*
Y43713270D01*
G75*
G03*
Y43713290I-6590J10D01*
G01*
G75*
G03*
X42745050Y43718270I-5000J0D01*
G01*
X42682050D01*
Y43719410D01*
X42628050D01*
Y43718270D01*
X42565050D01*
G75*
G03*
X42560050Y43713290I0J-4980D01*
G01*
G75*
G03*
Y43713270I6590J-10D01*
G01*
G37*
X42804050Y43719410D02*
G36*
X42804050Y43719410D02*
Y43643770D01*
X43126050D01*
Y43719410D01*
X42804050D01*
G37*
X43180050Y43713270D02*
G36*
X43180050Y43713270D02*
Y43643770D01*
X43370050D01*
Y43713270D01*
G75*
G03*
Y43713290I-6590J10D01*
G01*
G75*
G03*
X43365050Y43718270I-5000J0D01*
G01*
X43302050D01*
Y43719410D01*
X43248050D01*
Y43718270D01*
X43185050D01*
G75*
G03*
X43180050Y43713290I0J-4980D01*
G01*
G75*
G03*
Y43713270I6590J-10D01*
G01*
G37*
X43424050Y43719410D02*
G36*
X43424050Y43719410D02*
Y43643770D01*
X49136300D01*
Y43719410D01*
X47118640D01*
G75*
G02*
X47084050Y43700560I-61610J71900D01*
G01*
Y43719410D01*
X47030050D01*
Y43700560D01*
G75*
G02*
X46995460Y43719410I27020J90750D01*
G01*
X45280160D01*
G75*
G02*
X45233050Y43687560I-74130J58890D01*
G01*
Y43719410D01*
X45179050D01*
Y43687560D01*
G75*
G02*
X45131940Y43719410I27020J90740D01*
G01*
X44670160D01*
G75*
G02*
X44623050Y43687560I-74130J58890D01*
G01*
Y43719410D01*
X44569050D01*
Y43687560D01*
G75*
G02*
X44521940Y43719410I27020J90740D01*
G01*
X44053160D01*
G75*
G02*
X44006050Y43687560I-74130J58890D01*
G01*
Y43719410D01*
X43952050D01*
Y43687560D01*
G75*
G02*
X43904940Y43719410I27020J90740D01*
G01*
X43424050D01*
G37*
X42303700Y43837120D02*
G36*
X42303700Y43837120D02*
Y43719410D01*
X42506050D01*
Y43735620D01*
G75*
G02*
Y43735640I47750J10D01*
G01*
G75*
G02*
X42542700Y43772270I36650J0D01*
G01*
X42628050D01*
Y43719410D01*
X42682050D01*
Y43772270D01*
X42767400D01*
G75*
G02*
X42804050Y43735640I0J-36630D01*
G01*
G75*
G02*
Y43735620I-47750J-10D01*
G01*
Y43719410D01*
X43126050D01*
Y43735620D01*
G75*
G02*
Y43735640I47750J10D01*
G01*
G75*
G02*
X43162700Y43772270I36650J0D01*
G01*
X43248050D01*
Y43719410D01*
X43302050D01*
Y43772270D01*
X43387400D01*
G75*
G02*
X43424050Y43735640I0J-36630D01*
G01*
G75*
G02*
Y43735620I-47750J-10D01*
G01*
Y43719410D01*
X43904940D01*
G75*
G02*
X43888340Y43751270I74130J58880D01*
G01*
X43948680D01*
G75*
G03*
X43952050Y43747900I33210J29840D01*
G01*
Y43719410D01*
X44006050D01*
Y43747900D01*
G75*
G03*
X44009420Y43751270I-29840J33210D01*
G01*
X44069760D01*
G75*
G02*
X44053160Y43719410I-90730J27020D01*
G01*
X44521940D01*
G75*
G02*
X44505340Y43751270I74130J58880D01*
G01*
X44565680D01*
G75*
G03*
X44569050Y43747900I33210J29840D01*
G01*
Y43719410D01*
X44623050D01*
Y43747900D01*
G75*
G03*
X44626420Y43751270I-29840J33210D01*
G01*
X44686760D01*
G75*
G02*
X44670160Y43719410I-90730J27020D01*
G01*
X45131940D01*
G75*
G02*
X45115340Y43751270I74130J58880D01*
G01*
X45175680D01*
G75*
G03*
X45179050Y43747900I33210J29840D01*
G01*
Y43719410D01*
X45233050D01*
Y43747900D01*
G75*
G03*
X45236420Y43751270I-29840J33210D01*
G01*
X45296760D01*
G75*
G02*
X45280160Y43719410I-90730J27020D01*
G01*
X46995460D01*
G75*
G02*
X46966340Y43764270I61610J71880D01*
G01*
X47026680D01*
G75*
G03*
X47030050Y43760900I33210J29840D01*
G01*
Y43719410D01*
X47084050D01*
Y43760900D01*
G75*
G03*
X47087420Y43764270I-29840J33210D01*
G01*
X47147760D01*
G75*
G02*
X47118640Y43719410I-90730J27020D01*
G01*
X49136300D01*
Y43837120D01*
X47139840D01*
G75*
G02*
X47147760Y43818270I-82820J-45890D01*
G01*
X47087420D01*
G75*
G03*
X47084050Y43821640I-33210J-29840D01*
G01*
Y43837120D01*
X47030050D01*
Y43821640D01*
G75*
G03*
X47026680Y43818270I29840J-33210D01*
G01*
X46966340D01*
G75*
G02*
X46974260Y43837120I90740J-27040D01*
G01*
X45280170D01*
G75*
G02*
X45296760Y43805270I-74140J-58870D01*
G01*
X45236420D01*
G75*
G03*
X45233050Y43808640I-33210J-29840D01*
G01*
Y43837120D01*
X45179050D01*
Y43808640D01*
G75*
G03*
X45175680Y43805270I29840J-33210D01*
G01*
X45115340D01*
G75*
G02*
X45131930Y43837120I90730J-27020D01*
G01*
X44670170D01*
G75*
G02*
X44686760Y43805270I-74140J-58870D01*
G01*
X44626420D01*
G75*
G03*
X44623050Y43808640I-33210J-29840D01*
G01*
Y43837120D01*
X44569050D01*
Y43808640D01*
G75*
G03*
X44565680Y43805270I29840J-33210D01*
G01*
X44505340D01*
G75*
G02*
X44521930Y43837120I90730J-27020D01*
G01*
X44053170D01*
G75*
G02*
X44069760Y43805270I-74140J-58870D01*
G01*
X44009420D01*
G75*
G03*
X44006050Y43808640I-33210J-29840D01*
G01*
Y43837120D01*
X43952050D01*
Y43808640D01*
G75*
G03*
X43948680Y43805270I29840J-33210D01*
G01*
X43888340D01*
G75*
G02*
X43904930Y43837120I90730J-27020D01*
G01*
X42303700D01*
G37*
Y43958270D02*
G36*
X42303700Y43958270D02*
Y43837120D01*
X43904930D01*
G75*
G02*
X43952050Y43868980I74140J-58880D01*
G01*
Y43837120D01*
X44006050D01*
Y43868980D01*
G75*
G02*
X44053170Y43837120I-27020J-90740D01*
G01*
X44521930D01*
G75*
G02*
X44569050Y43868980I74140J-58880D01*
G01*
Y43837120D01*
X44623050D01*
Y43868980D01*
G75*
G02*
X44670170Y43837120I-27020J-90740D01*
G01*
X45131930D01*
G75*
G02*
X45179050Y43868980I74140J-58880D01*
G01*
Y43837120D01*
X45233050D01*
Y43868980D01*
G75*
G02*
X45280170Y43837120I-27020J-90740D01*
G01*
X46974260D01*
G75*
G02*
X47030050Y43881980I82810J-45870D01*
G01*
Y43837120D01*
X47084050D01*
Y43881980D01*
G75*
G02*
X47139840Y43837120I-27020J-90730D01*
G01*
X49136300D01*
Y43958270D01*
X43205050D01*
Y43848270D01*
G75*
G02*
Y43848250I-6590J-10D01*
G01*
G75*
G02*
X43200050Y43843270I-5000J0D01*
G01*
X42710050D01*
G75*
G02*
X42705050Y43848250I0J4980D01*
G01*
G75*
G02*
Y43848270I6590J10D01*
G01*
Y43958270D01*
X42303700D01*
G37*
Y44113520D02*
G36*
X42303700Y44113520D02*
Y43958270D01*
X42705050D01*
Y44068270D01*
G75*
G02*
Y44068290I6590J10D01*
G01*
G75*
G02*
X42710050Y44073270I5000J0D01*
G01*
X43200050D01*
G75*
G02*
X43205050Y44068290I0J-4980D01*
G01*
G75*
G02*
Y44068270I-6590J-10D01*
G01*
Y43958270D01*
X49136300D01*
Y44113520D01*
X48754260D01*
G75*
G02*
X48511840I-121210J81750D01*
G01*
X47038380D01*
G75*
G02*
X46994900Y44083770I-43470J16880D01*
G01*
X46987550D01*
Y44113520D01*
X46942550D01*
Y44083770D01*
X46935200D01*
G75*
G02*
X46891720Y44113520I0J46650D01*
G01*
X44824850D01*
G75*
G02*
X44745250I-39800J45750D01*
G01*
X42303700D01*
G37*
Y44170270D02*
G36*
X42303700Y44170270D02*
Y44113520D01*
X44745250D01*
G75*
G02*
X44724410Y44159270I39800J45750D01*
G01*
G75*
G02*
X44725420Y44170270I60640J-20D01*
G01*
X42303700D01*
G37*
X44845690Y44159270D02*
G36*
X44845690Y44159270D02*
G75*
G02*
X44824850Y44113520I-60640J0D01*
G01*
X46891720D01*
G75*
G02*
X46890300Y44117770I43490J16890D01*
G01*
X46844980D01*
G75*
G02*
X46829980Y44132760I0J14990D01*
G01*
G75*
G02*
Y44132770I13020J10D01*
G01*
Y44170270D01*
X46770550D01*
Y44132770D01*
G75*
G02*
Y44132760I-13020J0D01*
G01*
G75*
G02*
X46755550Y44117770I-15000J0D01*
G01*
X46700550D01*
G75*
G02*
X46685550Y44132760I0J14990D01*
G01*
G75*
G02*
Y44132770I13020J10D01*
G01*
Y44170270D01*
X46679550D01*
Y44132770D01*
G75*
G02*
Y44132760I-13020J0D01*
G01*
G75*
G02*
X46664550Y44117770I-15000J0D01*
G01*
X46609550D01*
G75*
G02*
X46594550Y44132760I0J14990D01*
G01*
G75*
G02*
Y44132770I13020J10D01*
G01*
Y44170270D01*
X44844680D01*
G75*
G02*
X44845690Y44159270I-59630J-11020D01*
G01*
G37*
X46914980Y44170270D02*
G36*
X46914980Y44170270D02*
Y44143270D01*
X46942550D01*
Y44113520D01*
X46987550D01*
Y44143270D01*
X47041550D01*
Y44130420D01*
G75*
G02*
Y44130410I-40930J0D01*
G01*
G75*
G02*
X47038380Y44113520I-46650J10D01*
G01*
X48511840D01*
G75*
G02*
X48489000Y44170270I121210J81750D01*
G01*
X46914980D01*
G37*
X48777100D02*
G36*
X48777100Y44170270D02*
G75*
G02*
X48754260Y44113520I-144050J25000D01*
G01*
X49136300D01*
Y44170270D01*
X48777100D01*
G37*
X42303700Y44227020D02*
G36*
X42303700Y44227020D02*
Y44170270D01*
X44725420D01*
G75*
G02*
X44844680I59630J-11000D01*
G01*
X46594550D01*
Y44207770D01*
G75*
G02*
Y44207780I13020J10D01*
G01*
G75*
G02*
X46609550Y44222770I15000J0D01*
G01*
X46664550D01*
G75*
G02*
X46679550Y44207780I0J-14990D01*
G01*
G75*
G02*
Y44207770I-13020J0D01*
G01*
Y44170270D01*
X46685550D01*
Y44207770D01*
G75*
G02*
Y44207780I13020J10D01*
G01*
G75*
G02*
X46700550Y44222770I15000J0D01*
G01*
X46755550D01*
G75*
G02*
X46770550Y44207780I0J-14990D01*
G01*
G75*
G02*
Y44207770I-13020J0D01*
G01*
Y44170270D01*
X46829980D01*
Y44207770D01*
G75*
G02*
Y44207780I13020J10D01*
G01*
G75*
G02*
X46844980Y44222770I15000J0D01*
G01*
X46890300D01*
G75*
G02*
X46891720Y44227020I44910J-12640D01*
G01*
X44445830D01*
G75*
G02*
X44384270I-30780J52260D01*
G01*
X42303700D01*
G37*
X46914980Y44197270D02*
G36*
X46914980Y44197270D02*
Y44170270D01*
X48489000D01*
G75*
G02*
X48486850Y44195270I144060J24980D01*
G01*
G75*
G02*
X48490340Y44227020I146210J0D01*
G01*
X47038380D01*
G75*
G02*
X47041550Y44210130I-43480J-16900D01*
G01*
G75*
G02*
Y44210120I-40930J0D01*
G01*
Y44197270D01*
X46987550D01*
Y44227020D01*
X46942550D01*
Y44197270D01*
X46914980D01*
G37*
X48779250Y44195270D02*
G36*
X48779250Y44195270D02*
G75*
G02*
X48777100Y44170270I-146210J-20D01*
G01*
X49136300D01*
Y44227020D01*
X48775760D01*
G75*
G02*
X48779250Y44195270I-142720J-31750D01*
G01*
G37*
X42303700Y44279270D02*
G36*
X42303700Y44279270D02*
Y44227020D01*
X44384270D01*
G75*
G02*
X44354410Y44279270I30780J52250D01*
G01*
X42303700D01*
G37*
X44475690D02*
G36*
X44475690Y44279270D02*
G75*
G02*
X44445830Y44227020I-60640J0D01*
G01*
X46891720D01*
G75*
G02*
X46935200Y44256770I43480J-16900D01*
G01*
X46942550D01*
Y44227020D01*
X46987550D01*
Y44256770D01*
X46994900D01*
G75*
G02*
X47038380Y44227020I10J-46630D01*
G01*
X48490340D01*
G75*
G02*
X48513390Y44279270I142710J-31750D01*
G01*
X47587100D01*
G75*
G02*
X47580550Y44277770I-6540J13490D01*
G01*
X47525550D01*
G75*
G02*
X47519000Y44279270I-10J14990D01*
G01*
X44475690D01*
G37*
X48752710D02*
G36*
X48752710Y44279270D02*
G75*
G02*
X48775760Y44227020I-119660J-84000D01*
G01*
X49136300D01*
Y44279270D01*
X48752710D01*
G37*
X42303700Y44392770D02*
G36*
X42303700Y44392770D02*
Y44279270D01*
X44354410D01*
G75*
G02*
X44475690I60640J0D01*
G01*
X47519000D01*
G75*
G02*
X47510550Y44292760I6540J13490D01*
G01*
G75*
G02*
Y44292770I13020J10D01*
G01*
Y44367770D01*
G75*
G02*
Y44367780I13020J10D01*
G01*
G75*
G02*
X47525550Y44382770I15000J0D01*
G01*
X47580550D01*
G75*
G02*
X47595550Y44367780I0J-14990D01*
G01*
G75*
G02*
Y44367770I-13020J0D01*
G01*
Y44292770D01*
G75*
G02*
Y44292760I-13020J0D01*
G01*
G75*
G02*
X47587100Y44279270I-14990J0D01*
G01*
X48513390D01*
G75*
G02*
X48752710I119660J-84000D01*
G01*
X49136300D01*
Y44392770D01*
X45875550D01*
Y44365270D01*
G75*
G02*
Y44365260I-13020J0D01*
G01*
G75*
G02*
X45860550Y44350270I-15000J0D01*
G01*
X45785550D01*
G75*
G02*
X45770550Y44365260I0J14990D01*
G01*
G75*
G02*
Y44365270I13020J10D01*
G01*
Y44392770D01*
X42303700D01*
G37*
Y44450270D02*
G36*
X42303700Y44450270D02*
Y44392770D01*
X45770550D01*
Y44420270D01*
G75*
G02*
Y44420280I13020J10D01*
G01*
G75*
G02*
X45785550Y44435270I15000J0D01*
G01*
X45860550D01*
G75*
G02*
X45875550Y44420280I0J-14990D01*
G01*
G75*
G02*
Y44420270I-13020J0D01*
G01*
Y44392770D01*
X49136300D01*
Y44450270D01*
X47213550D01*
Y44446420D01*
G75*
G02*
Y44446410I-40930J0D01*
G01*
G75*
G02*
X47166900Y44399770I-46650J0D01*
G01*
X47159550D01*
Y44450270D01*
X47114550D01*
Y44399770D01*
X47107200D01*
G75*
G02*
X47060550Y44446410I0J46640D01*
G01*
G75*
G02*
Y44446420I40930J10D01*
G01*
Y44450270D01*
X45983050D01*
Y44422770D01*
G75*
G02*
Y44422760I-13020J0D01*
G01*
G75*
G02*
X45968050Y44407770I-15000J0D01*
G01*
X45893050D01*
G75*
G02*
X45878050Y44422760I0J14990D01*
G01*
G75*
G02*
Y44422770I13020J10D01*
G01*
Y44450270D01*
X42303700D01*
G37*
Y44510270D02*
G36*
X42303700Y44510270D02*
Y44450270D01*
X45878050D01*
Y44477770D01*
G75*
G02*
Y44477780I13020J10D01*
G01*
G75*
G02*
X45893050Y44492770I15000J0D01*
G01*
X45968050D01*
G75*
G02*
X45983050Y44477780I0J-14990D01*
G01*
G75*
G02*
Y44477770I-13020J0D01*
G01*
Y44450270D01*
X47060550D01*
Y44459270D01*
X47114550D01*
Y44450270D01*
X47159550D01*
Y44459270D01*
X47213550D01*
Y44450270D01*
X49136300D01*
Y44510270D01*
X46930660D01*
X46879090Y44458700D01*
G75*
G02*
X46857870I-10610J10630D01*
G01*
X46818980Y44497590D01*
G75*
G02*
X46814590Y44508200I10620J10610D01*
G01*
G75*
G02*
X46814730Y44510270I15020J20D01*
G01*
X46330550D01*
Y44485270D01*
G75*
G02*
Y44485260I-13020J0D01*
G01*
G75*
G02*
X46315550Y44470270I-15000J0D01*
G01*
X46240550D01*
G75*
G02*
X46225550Y44485260I0J14990D01*
G01*
G75*
G02*
Y44485270I13020J10D01*
G01*
Y44510270D01*
X45878050D01*
Y44482770D01*
G75*
G02*
Y44482760I-13020J0D01*
G01*
G75*
G02*
X45863050Y44467770I-15000J0D01*
G01*
X45788050D01*
G75*
G02*
X45773050Y44482760I0J14990D01*
G01*
G75*
G02*
Y44482770I13020J10D01*
G01*
Y44510270D01*
X42303700D01*
G37*
Y44572770D02*
G36*
X42303700Y44572770D02*
Y44510270D01*
X45773050D01*
Y44537770D01*
G75*
G02*
Y44537780I13020J10D01*
G01*
G75*
G02*
X45788050Y44552770I15000J0D01*
G01*
X45863050D01*
G75*
G02*
X45878050Y44537780I0J-14990D01*
G01*
G75*
G02*
Y44537770I-13020J0D01*
G01*
Y44510270D01*
X46225550D01*
Y44540270D01*
G75*
G02*
Y44540280I13020J10D01*
G01*
G75*
G02*
X46240550Y44555270I15000J0D01*
G01*
X46315550D01*
G75*
G02*
X46330550Y44540280I0J-14990D01*
G01*
G75*
G02*
Y44540270I-13020J0D01*
G01*
Y44510270D01*
X46814730D01*
G75*
G02*
X46818980Y44518810I14870J-2070D01*
G01*
X46872010Y44571840D01*
G75*
G02*
X46873030Y44572770I10610J-10610D01*
G01*
X46655550D01*
Y44545270D01*
G75*
G02*
Y44545260I-13020J0D01*
G01*
G75*
G02*
X46640550Y44530270I-15000J0D01*
G01*
X46565550D01*
G75*
G02*
X46550550Y44545260I0J14990D01*
G01*
G75*
G02*
Y44545270I13020J10D01*
G01*
Y44572770D01*
X46331050D01*
G75*
G02*
X46318050Y44565270I-12990J7490D01*
G01*
X46243050D01*
G75*
G02*
X46230050Y44572770I-10J14990D01*
G01*
X46125550D01*
Y44562770D01*
G75*
G02*
Y44562760I-13020J0D01*
G01*
G75*
G02*
X46110550Y44547770I-15000J0D01*
G01*
X46035550D01*
G75*
G02*
X46020550Y44562760I0J14990D01*
G01*
G75*
G02*
Y44562770I13020J10D01*
G01*
Y44572770D01*
X42303700D01*
G37*
X46892210D02*
G36*
X46892210Y44572770D02*
G75*
G02*
X46893230Y44571840I-9590J-11540D01*
G01*
X46932120Y44532950D01*
G75*
G02*
X46936510Y44522340I-10620J-10610D01*
G01*
G75*
G02*
X46932120Y44511730I-15010J0D01*
G01*
X46930660Y44510270D01*
X49136300D01*
Y44572770D01*
X47463050D01*
Y44535270D01*
G75*
G02*
Y44535260I-13020J0D01*
G01*
G75*
G02*
X47448050Y44520270I-15000J0D01*
G01*
X47393050D01*
G75*
G02*
X47378050Y44535260I0J14990D01*
G01*
G75*
G02*
Y44535270I13020J10D01*
G01*
Y44572770D01*
X47370550D01*
Y44537770D01*
G75*
G02*
Y44537760I-13020J0D01*
G01*
G75*
G02*
X47355550Y44522770I-15000J0D01*
G01*
X47300550D01*
G75*
G02*
X47285550Y44537760I0J14990D01*
G01*
G75*
G02*
Y44537770I13020J10D01*
G01*
Y44572770D01*
X47275550D01*
Y44537770D01*
G75*
G02*
Y44537760I-13020J0D01*
G01*
G75*
G02*
X47260550Y44522770I-15000J0D01*
G01*
X47213550D01*
Y44513270D01*
X47159550D01*
Y44572770D01*
X47114550D01*
Y44513270D01*
X47060550D01*
Y44526120D01*
G75*
G02*
Y44526130I40930J10D01*
G01*
G75*
G02*
X47107180Y44572770I46630J0D01*
G01*
X46892210D01*
G37*
X47166900D02*
G36*
X47166900Y44572770D02*
G75*
G02*
X47190550Y44566330I0J-46650D01*
G01*
Y44572770D01*
X47166900D01*
G37*
X42303700Y44702770D02*
G36*
X42303700Y44702770D02*
Y44572770D01*
X46020550D01*
Y44617770D01*
G75*
G02*
Y44617780I13020J10D01*
G01*
G75*
G02*
X46035550Y44632770I15000J0D01*
G01*
X46110550D01*
G75*
G02*
X46125550Y44617780I0J-14990D01*
G01*
G75*
G02*
Y44617770I-13020J0D01*
G01*
Y44572770D01*
X46230050D01*
G75*
G02*
X46228050Y44580260I12990J7480D01*
G01*
G75*
G02*
Y44580270I13020J10D01*
G01*
Y44635270D01*
G75*
G02*
Y44635280I13020J10D01*
G01*
G75*
G02*
X46243050Y44650270I15000J0D01*
G01*
X46318050D01*
G75*
G02*
X46333050Y44635280I0J-14990D01*
G01*
G75*
G02*
Y44635270I-13020J0D01*
G01*
Y44580270D01*
G75*
G02*
Y44580260I-13020J0D01*
G01*
G75*
G02*
X46331050Y44572770I-14990J-10D01*
G01*
X46550550D01*
Y44600270D01*
G75*
G02*
Y44600280I13020J10D01*
G01*
G75*
G02*
X46565550Y44615270I15000J0D01*
G01*
X46640550D01*
G75*
G02*
X46655550Y44600280I0J-14990D01*
G01*
G75*
G02*
Y44600270I-13020J0D01*
G01*
Y44572770D01*
X46873030D01*
G75*
G02*
X46892210I9590J-11560D01*
G01*
X47107180D01*
G75*
G02*
X47107200I10J-39510D01*
G01*
X47114550D01*
X47159550D01*
X47166900D01*
X47190550D01*
Y44612770D01*
G75*
G02*
Y44612780I13020J10D01*
G01*
G75*
G02*
X47205550Y44627770I15000J0D01*
G01*
X47260550D01*
G75*
G02*
X47275550Y44612780I0J-14990D01*
G01*
G75*
G02*
Y44612770I-13020J0D01*
G01*
Y44572770D01*
X47285550D01*
Y44612770D01*
G75*
G02*
Y44612780I13020J10D01*
G01*
G75*
G02*
X47300550Y44627770I15000J0D01*
G01*
X47355550D01*
G75*
G02*
X47370550Y44612780I0J-14990D01*
G01*
G75*
G02*
Y44612770I-13020J0D01*
G01*
Y44572770D01*
X47378050D01*
Y44610270D01*
G75*
G02*
Y44610280I13020J10D01*
G01*
G75*
G02*
X47393050Y44625270I15000J0D01*
G01*
X47448050D01*
G75*
G02*
X47463050Y44610280I0J-14990D01*
G01*
G75*
G02*
Y44610270I-13020J0D01*
G01*
Y44572770D01*
X49136300D01*
Y44702770D01*
X47230550D01*
Y44692770D01*
G75*
G02*
Y44692760I-13020J0D01*
G01*
G75*
G02*
X47215550Y44677770I-15000J0D01*
G01*
X47160550D01*
G75*
G02*
X47145550Y44692760I0J14990D01*
G01*
G75*
G02*
Y44692770I13020J10D01*
G01*
Y44702770D01*
X46635660D01*
X46606590Y44673700D01*
G75*
G02*
X46585370I-10610J10630D01*
G01*
X46556300Y44702770D01*
X46333050D01*
Y44675270D01*
G75*
G02*
Y44675260I-13020J0D01*
G01*
G75*
G02*
X46318050Y44660270I-15000J0D01*
G01*
X46243050D01*
G75*
G02*
X46228050Y44675260I0J14990D01*
G01*
G75*
G02*
Y44675270I13020J10D01*
G01*
Y44702770D01*
X45889700D01*
G75*
G02*
X45890550Y44697780I-14140J-4980D01*
G01*
G75*
G02*
Y44697770I-13020J0D01*
G01*
Y44622770D01*
G75*
G02*
Y44622760I-13020J0D01*
G01*
G75*
G02*
X45875550Y44607770I-15000J0D01*
G01*
X45820550D01*
G75*
G02*
X45805550Y44622760I0J14990D01*
G01*
G75*
G02*
Y44622770I13020J10D01*
G01*
Y44697770D01*
G75*
G02*
Y44697780I13020J10D01*
G01*
G75*
G02*
X45806400Y44702770I14990J10D01*
G01*
X42303700D01*
G37*
Y44752110D02*
G36*
X42303700Y44752110D02*
Y44702770D01*
X45806400D01*
G75*
G02*
X45820550Y44712770I14140J-4990D01*
G01*
X45875550D01*
G75*
G02*
X45889700Y44702770I10J-14990D01*
G01*
X46228050D01*
Y44730270D01*
G75*
G02*
Y44730280I13020J10D01*
G01*
G75*
G02*
X46243050Y44745270I15000J0D01*
G01*
X46318050D01*
G75*
G02*
X46333050Y44730280I0J-14990D01*
G01*
G75*
G02*
Y44730270I-13020J0D01*
G01*
Y44702770D01*
X46556300D01*
X46546480Y44712590D01*
G75*
G02*
X46542090Y44723200I10620J10610D01*
G01*
G75*
G02*
X46546480Y44733810I15010J0D01*
G01*
X46564780Y44752110D01*
X45808050D01*
Y44718170D01*
G75*
G02*
Y44718160I-13020J0D01*
G01*
G75*
G02*
X45793050Y44703170I-15000J0D01*
G01*
X45718050D01*
G75*
G02*
X45703050Y44718160I0J14990D01*
G01*
G75*
G02*
Y44718170I13020J10D01*
G01*
Y44752110D01*
X44429660D01*
G75*
G02*
X44382550Y44720260I-74130J58890D01*
G01*
Y44752110D01*
X44328550D01*
Y44720260D01*
G75*
G02*
X44281440Y44752110I27020J90740D01*
G01*
X42303700D01*
G37*
X46659620Y44726730D02*
G36*
X46659620Y44726730D02*
X46635660Y44702770D01*
X47145550D01*
Y44752110D01*
X46655460D01*
X46659620Y44747950D01*
G75*
G02*
X46664010Y44737340I-10620J-10610D01*
G01*
G75*
G02*
X46659620Y44726730I-15010J0D01*
G01*
G37*
X47230550Y44752110D02*
G36*
X47230550Y44752110D02*
Y44702770D01*
X49136300D01*
Y44752110D01*
X48454660D01*
G75*
G02*
X48404050Y44715560I-77630J54180D01*
G01*
Y44752110D01*
X48350050D01*
Y44715560D01*
G75*
G02*
X48299440Y44752110I27020J90730D01*
G01*
X47823970D01*
G75*
G02*
X47794670Y44741770I-29290J36300D01*
G01*
X47781820D01*
Y44752110D01*
X47727820D01*
Y44741770D01*
X47714970D01*
G75*
G02*
X47685670Y44752110I-10J46640D01*
G01*
X47230550D01*
G37*
X42303700Y44869820D02*
G36*
X42303700Y44869820D02*
Y44752110D01*
X44281440D01*
G75*
G02*
X44264840Y44783970I74130J58880D01*
G01*
X44325180D01*
G75*
G03*
X44328550Y44780600I33210J29840D01*
G01*
Y44752110D01*
X44382550D01*
Y44780600D01*
G75*
G03*
X44385920Y44783970I-29840J33210D01*
G01*
X44446260D01*
G75*
G02*
X44429660Y44752110I-90730J27020D01*
G01*
X45703050D01*
Y44773170D01*
G75*
G02*
Y44773180I13020J10D01*
G01*
G75*
G02*
X45718050Y44788170I15000J0D01*
G01*
X45793050D01*
G75*
G02*
X45808050Y44773180I0J-14990D01*
G01*
G75*
G02*
Y44773170I-13020J0D01*
G01*
Y44752110D01*
X46564780D01*
X46599510Y44786840D01*
G75*
G02*
X46620730I10610J-10630D01*
G01*
X46655460Y44752110D01*
X47145550D01*
Y44767770D01*
X47100550D01*
G75*
G02*
X47085550Y44782760I0J14990D01*
G01*
G75*
G02*
Y44782770I13020J10D01*
G01*
Y44857770D01*
G75*
G02*
Y44857780I13020J10D01*
G01*
G75*
G02*
X47091610Y44869820I14990J0D01*
G01*
X46672220D01*
G75*
G02*
X46637900Y44854770I-34310J31580D01*
G01*
X46625050D01*
Y44869820D01*
X46571050D01*
Y44854770D01*
X46558200D01*
G75*
G02*
X46523880Y44869820I-10J46630D01*
G01*
X44429670D01*
G75*
G02*
X44446260Y44837970I-74140J-58870D01*
G01*
X44385920D01*
G75*
G03*
X44382550Y44841340I-33210J-29840D01*
G01*
Y44869820D01*
X44328550D01*
Y44841340D01*
G75*
G03*
X44325180Y44837970I29840J-33210D01*
G01*
X44264840D01*
G75*
G02*
X44281430Y44869820I90730J-27020D01*
G01*
X42303700D01*
G37*
X47170550Y44857770D02*
G36*
X47170550Y44857770D02*
Y44782770D01*
X47205550D01*
Y44857770D01*
G75*
G02*
Y44857780I13020J10D01*
G01*
G75*
G02*
X47211610Y44869820I14990J0D01*
G01*
X47164490D01*
G75*
G02*
X47170550Y44857780I-8930J-12040D01*
G01*
G75*
G02*
Y44857770I-13020J0D01*
G01*
G37*
X47230550Y44767770D02*
G36*
X47230550Y44767770D02*
Y44752110D01*
X47685670D01*
G75*
G02*
X47668320Y44788410I29290J36300D01*
G01*
G75*
G02*
Y44788420I40930J10D01*
G01*
Y44795770D01*
X47727820D01*
Y44752110D01*
X47781820D01*
Y44795770D01*
X47841320D01*
Y44788420D01*
G75*
G02*
Y44788410I-40930J0D01*
G01*
G75*
G02*
X47823970Y44752110I-46640J0D01*
G01*
X48299440D01*
G75*
G02*
X48286340Y44779270I77640J54180D01*
G01*
X48346680D01*
G75*
G03*
X48350050Y44775900I33210J29840D01*
G01*
Y44752110D01*
X48404050D01*
Y44775900D01*
G75*
G03*
X48407420Y44779270I-29840J33210D01*
G01*
X48467760D01*
G75*
G02*
X48454660Y44752110I-90740J27020D01*
G01*
X49136300D01*
Y44869820D01*
X48447180D01*
G75*
G02*
X48467760Y44833270I-70150J-63570D01*
G01*
X48407420D01*
G75*
G03*
X48404050Y44836640I-33210J-29840D01*
G01*
Y44869820D01*
X48350050D01*
Y44836640D01*
G75*
G03*
X48346680Y44833270I29840J-33210D01*
G01*
X48286340D01*
G75*
G02*
X48306920Y44869820I90730J-27020D01*
G01*
X47835960D01*
G75*
G02*
X47841320Y44848120I-41290J-21710D01*
G01*
Y44840770D01*
X47781820D01*
Y44852770D01*
X47727820D01*
Y44840770D01*
X47668320D01*
Y44848120D01*
G75*
G02*
X47673680Y44869820I46650J-10D01*
G01*
X47284490D01*
G75*
G02*
X47290550Y44857780I-8930J-12040D01*
G01*
G75*
G02*
Y44857770I-13020J0D01*
G01*
Y44782770D01*
G75*
G02*
Y44782760I-13020J0D01*
G01*
G75*
G02*
X47275550Y44767770I-15000J0D01*
G01*
X47230550D01*
G37*
X42303700Y44903520D02*
G36*
X42303700Y44903520D02*
Y44869820D01*
X44281430D01*
G75*
G02*
X44328550Y44901680I74140J-58880D01*
G01*
Y44869820D01*
X44382550D01*
Y44901680D01*
G75*
G02*
X44429670Y44869820I-27020J-90740D01*
G01*
X46523880D01*
G75*
G02*
X46511550Y44901410I34310J31590D01*
G01*
G75*
G02*
Y44901420I40930J10D01*
G01*
Y44903520D01*
X45656380D01*
G75*
G02*
X45612900Y44873770I-43470J16880D01*
G01*
X45605550D01*
Y44903520D01*
X45560550D01*
Y44873770D01*
X45553200D01*
G75*
G02*
X45509720Y44903520I-10J46630D01*
G01*
X42303700D01*
G37*
X46571050D02*
G36*
X46571050Y44903520D02*
Y44869820D01*
X46625050D01*
Y44903520D01*
X46571050D01*
G37*
X46684550D02*
G36*
X46684550Y44903520D02*
Y44901420D01*
G75*
G02*
Y44901410I-40930J0D01*
G01*
G75*
G02*
X46672220Y44869820I-46640J0D01*
G01*
X47091610D01*
G75*
G02*
X47100550Y44872770I8930J-12040D01*
G01*
X47155550D01*
G75*
G02*
X47164490Y44869820I10J-14990D01*
G01*
X47211610D01*
G75*
G02*
X47220550Y44872770I8930J-12040D01*
G01*
X47275550D01*
G75*
G02*
X47284490Y44869820I10J-14990D01*
G01*
X47673680D01*
G75*
G02*
X47702320Y44893020I41290J-21700D01*
G01*
Y44903520D01*
X46684550D01*
G37*
X47807320D02*
G36*
X47807320Y44903520D02*
Y44893020D01*
G75*
G02*
X47835960Y44869820I-12650J-44900D01*
G01*
X48306920D01*
G75*
G02*
X48350050Y44896980I70150J-63580D01*
G01*
Y44869820D01*
X48404050D01*
Y44896980D01*
G75*
G02*
X48447180Y44869820I-27020J-90740D01*
G01*
X49136300D01*
Y44903520D01*
X49086670D01*
G75*
G02*
X49009430I-38620J46750D01*
G01*
X47807320D01*
G37*
X42303700Y44950270D02*
G36*
X42303700Y44950270D02*
Y44903520D01*
X45509720D01*
G75*
G02*
X45506550Y44920410I43480J16900D01*
G01*
G75*
G02*
Y44920420I40930J10D01*
G01*
Y44933270D01*
X45560550D01*
Y44903520D01*
X45605550D01*
Y44933270D01*
X45659550D01*
Y44920420D01*
G75*
G02*
Y44920410I-40930J0D01*
G01*
G75*
G02*
X45656380Y44903520I-46650J10D01*
G01*
X46511550D01*
Y44908770D01*
X46571050D01*
Y44903520D01*
X46625050D01*
Y44908770D01*
X46684550D01*
Y44903520D01*
X47702320D01*
Y44922770D01*
G75*
G02*
Y44922780I13020J10D01*
G01*
G75*
G02*
X47717320Y44937770I15000J0D01*
G01*
X47792320D01*
G75*
G02*
X47807320Y44922780I0J-14990D01*
G01*
G75*
G02*
Y44922770I-13020J0D01*
G01*
Y44903520D01*
X49009430D01*
G75*
G02*
X48987410Y44950270I38620J46750D01*
G01*
X46329880D01*
X46328540Y44945270D01*
X46323050Y44939780D01*
X46315550Y44937770D01*
X46240550D01*
X46233050Y44939780D01*
X46227560Y44945270D01*
X46226220Y44950270D01*
X42303700D01*
G37*
X49108690D02*
G36*
X49108690Y44950270D02*
G75*
G02*
X49086670Y44903520I-60640J0D01*
G01*
X49136300D01*
Y44950270D01*
X49108690D01*
G37*
X42303700Y44980770D02*
G36*
X42303700Y44980770D02*
Y44950270D01*
X46226220D01*
X46225550Y44952770D01*
Y44980770D01*
X42303700D01*
G37*
X46330550Y44952770D02*
G36*
X46330550Y44952770D02*
X46329880Y44950270D01*
X48987410D01*
G75*
G02*
X48995640Y44980770I60640J0D01*
G01*
X46680210D01*
G75*
G02*
X46684550Y44961130I-42310J-19650D01*
G01*
G75*
G02*
Y44961120I-40930J0D01*
G01*
Y44953770D01*
X46625050D01*
Y44980770D01*
X46571050D01*
Y44953770D01*
X46511550D01*
Y44961120D01*
G75*
G02*
Y44961130I40930J10D01*
G01*
G75*
G02*
X46515890Y44980770I46650J-10D01*
G01*
X46330550D01*
Y44952770D01*
G37*
X49100460Y44980770D02*
G36*
X49100460Y44980770D02*
G75*
G02*
X49108690Y44950270I-52410J-30500D01*
G01*
X49136300D01*
Y44980770D01*
X49100460D01*
G37*
X42303700Y45035270D02*
G36*
X42303700Y45035270D02*
Y44980770D01*
X46225550D01*
Y45007770D01*
X46229110Y45017480D01*
X46238110Y45022570D01*
X45653790D01*
X45658090Y45011710D01*
X45659550Y45000120D01*
Y44987270D01*
X45605550D01*
Y45022570D01*
X45560550D01*
Y44987270D01*
X45506550D01*
Y45000120D01*
X45508010Y45011710D01*
X45512310Y45022570D01*
X44864050D01*
X44825000Y45025990D01*
X44790380Y45035270D01*
X44713050D01*
Y44997770D01*
G75*
G02*
Y44997760I-13020J0D01*
G01*
G75*
G02*
X44698050Y44982770I-15000J0D01*
G01*
X44643050D01*
G75*
G02*
X44628050Y44997760I0J14990D01*
G01*
G75*
G02*
Y44997770I13020J10D01*
G01*
Y45035270D01*
X42303700D01*
G37*
X46317990Y45022570D02*
G36*
X46317990Y45022570D02*
X46326990Y45017480D01*
X46330550Y45007770D01*
Y44980770D01*
X46515890D01*
G75*
G02*
X46558200Y45007770I42300J-19640D01*
G01*
X46571050D01*
Y44980770D01*
X46625050D01*
Y45007770D01*
X46637900D01*
G75*
G02*
X46680210Y44980770I10J-46640D01*
G01*
X48995640D01*
G75*
G02*
X49100460I52410J-30500D01*
G01*
X49136300D01*
Y45035270D01*
X48236550D01*
Y45002770D01*
G75*
G02*
Y45002760I-13020J0D01*
G01*
G75*
G02*
X48221550Y44987770I-15000J0D01*
G01*
X48146550D01*
G75*
G02*
X48131550Y45002760I0J14990D01*
G01*
G75*
G02*
Y45002770I13020J10D01*
G01*
Y45035270D01*
X47380550D01*
Y45018770D01*
G75*
G02*
Y45018760I-13020J0D01*
G01*
G75*
G02*
X47365550Y45003770I-15000J0D01*
G01*
X47310550D01*
G75*
G02*
X47295550Y45018760I0J14990D01*
G01*
G75*
G02*
Y45018770I13020J10D01*
G01*
Y45035270D01*
X46623330D01*
X46618860Y45030050D01*
X46609110Y45024500D01*
X46598050Y45022570D01*
X46317990D01*
G37*
X42303700Y45195770D02*
G36*
X42303700Y45195770D02*
Y45035270D01*
X44628050D01*
Y45072770D01*
G75*
G02*
Y45072780I13020J10D01*
G01*
G75*
G02*
X44643050Y45087770I15000J0D01*
G01*
X44698050D01*
G75*
G02*
X44713050Y45072780I0J-14990D01*
G01*
G75*
G02*
Y45072770I-13020J0D01*
G01*
Y45035270D01*
X44790380D01*
X44787130Y45036140D01*
X44751600Y45052710D01*
X44719490Y45075200D01*
X44691770Y45102920D01*
X44669290Y45135030D01*
X44652720Y45170560D01*
X44645970Y45195770D01*
X42303700D01*
G37*
X44781900D02*
G36*
X44781900Y45195770D02*
X44782290Y45195150D01*
X44802130Y45175310D01*
X44825890Y45160380D01*
X44852370Y45151110D01*
X44880250Y45147970D01*
X46231480D01*
X46236980Y45155080D01*
X46245550Y45157770D01*
X46238050Y45159780D01*
X46232560Y45165270D01*
X46230550Y45172770D01*
Y45195770D01*
X44781900D01*
G37*
X46320550Y45157770D02*
G36*
X46320550Y45157770D02*
X46328050Y45155760D01*
X46333540Y45150270D01*
X46335550Y45142770D01*
Y45087970D01*
X46545550D01*
Y45106520D01*
X46531910Y45112880D01*
X46521010Y45123260D01*
X46513980Y45136570D01*
X46511550Y45151420D01*
Y45158770D01*
X46571050D01*
Y45123570D01*
X46625050D01*
Y45158770D01*
X46684550D01*
Y45151420D01*
X46682120Y45136570D01*
X46675090Y45123260D01*
X46664190Y45112880D01*
X46650550Y45106520D01*
Y45053570D01*
X46648540Y45046070D01*
X46643050Y45040580D01*
X46635550Y45038570D01*
X46626160D01*
X46623330Y45035270D01*
X47295550D01*
Y45093770D01*
G75*
G02*
Y45093780I13020J10D01*
G01*
G75*
G02*
X47310550Y45108770I15000J0D01*
G01*
X47365550D01*
G75*
G02*
X47380550Y45093780I0J-14990D01*
G01*
G75*
G02*
Y45093770I-13020J0D01*
G01*
Y45035270D01*
X48131550D01*
Y45057770D01*
G75*
G02*
Y45057780I13020J10D01*
G01*
G75*
G02*
X48146550Y45072770I15000J0D01*
G01*
X48221550D01*
G75*
G02*
X48236550Y45057780I0J-14990D01*
G01*
G75*
G02*
Y45057770I-13020J0D01*
G01*
Y45035270D01*
X49136300D01*
Y45195770D01*
X48229040D01*
G75*
G02*
X48236550Y45182780I-7480J-12990D01*
G01*
G75*
G02*
Y45182770I-13020J0D01*
G01*
Y45127770D01*
G75*
G02*
Y45127760I-13020J0D01*
G01*
G75*
G02*
X48221550Y45112770I-15000J0D01*
G01*
X48146550D01*
G75*
G02*
X48131550Y45127760I0J14990D01*
G01*
G75*
G02*
Y45127770I13020J10D01*
G01*
Y45182770D01*
G75*
G02*
Y45182780I13020J10D01*
G01*
G75*
G02*
X48139060Y45195770I14990J0D01*
G01*
X47216210D01*
G75*
G02*
X47173900Y45168770I-42300J19640D01*
G01*
X47161050D01*
Y45195770D01*
X47107050D01*
Y45168770D01*
X47094200D01*
G75*
G02*
X47051890Y45195770I-10J46640D01*
G01*
X46335550D01*
Y45172770D01*
X46333540Y45165270D01*
X46328050Y45159780D01*
X46320550Y45157770D01*
G37*
X42303700Y45247770D02*
G36*
X42303700Y45247770D02*
Y45195770D01*
X44645970D01*
X44642580Y45208430D01*
X44639150Y45247470D01*
Y45247770D01*
X44284550D01*
Y45224270D01*
G75*
G02*
Y45224260I-13020J0D01*
G01*
G75*
G02*
X44269550Y45209270I-15000J0D01*
G01*
X44194550D01*
G75*
G02*
X44179550Y45224260I0J14990D01*
G01*
G75*
G02*
Y45224270I13020J10D01*
G01*
Y45247770D01*
X43873050D01*
Y45220270D01*
G75*
G02*
Y45220260I-13020J0D01*
G01*
G75*
G02*
X43858050Y45205270I-15000J0D01*
G01*
X43783050D01*
G75*
G02*
X43768050Y45220260I0J14990D01*
G01*
G75*
G02*
Y45220270I13020J10D01*
G01*
Y45247770D01*
X43653050D01*
Y45220270D01*
G75*
G02*
Y45220260I-13020J0D01*
G01*
G75*
G02*
X43638050Y45205270I-15000J0D01*
G01*
X43563050D01*
G75*
G02*
X43548050Y45220260I0J14990D01*
G01*
G75*
G02*
Y45220270I13020J10D01*
G01*
Y45247770D01*
X42303700D01*
G37*
X44757820D02*
G36*
X44757820Y45247770D02*
X44758090Y45245390D01*
X44767360Y45218910D01*
X44781900Y45195770D01*
X46230550D01*
Y45227770D01*
X46232560Y45235270D01*
X46238050Y45240760D01*
X46245550Y45242770D01*
X46320550D01*
X46328050Y45240760D01*
X46333540Y45235270D01*
X46335550Y45227770D01*
Y45195770D01*
X47051890D01*
G75*
G02*
X47047550Y45215410I42310J19650D01*
G01*
G75*
G02*
Y45215420I40930J10D01*
G01*
Y45222770D01*
X47107050D01*
Y45195770D01*
X47161050D01*
Y45222770D01*
X47220550D01*
Y45215420D01*
G75*
G02*
Y45215410I-40930J0D01*
G01*
G75*
G02*
X47216210Y45195770I-46650J10D01*
G01*
X48139060D01*
G75*
G02*
X48146550Y45197770I7480J-12990D01*
G01*
X48221550D01*
G75*
G02*
X48229040Y45195770I10J-14990D01*
G01*
X49136300D01*
Y45247770D01*
X46666770D01*
G75*
G02*
X46684550Y45211130I-28860J-36640D01*
G01*
G75*
G02*
Y45211120I-40930J0D01*
G01*
Y45203770D01*
X46625050D01*
Y45247770D01*
X46571050D01*
Y45203770D01*
X46511550D01*
Y45211120D01*
G75*
G02*
Y45211130I40930J10D01*
G01*
G75*
G02*
X46529330Y45247770I46640J0D01*
G01*
X44757820D01*
G37*
X42303700Y45324020D02*
G36*
X42303700Y45324020D02*
Y45247770D01*
X43548050D01*
Y45275270D01*
G75*
G02*
Y45275280I13020J10D01*
G01*
G75*
G02*
X43563050Y45290270I15000J0D01*
G01*
X43638050D01*
G75*
G02*
X43653050Y45275280I0J-14990D01*
G01*
G75*
G02*
Y45275270I-13020J0D01*
G01*
Y45247770D01*
X43768050D01*
Y45275270D01*
G75*
G02*
Y45275280I13020J10D01*
G01*
G75*
G02*
X43783050Y45290270I15000J0D01*
G01*
X43858050D01*
G75*
G02*
X43873050Y45275280I0J-14990D01*
G01*
G75*
G02*
Y45275270I-13020J0D01*
G01*
Y45247770D01*
X44179550D01*
Y45279270D01*
G75*
G02*
Y45279280I13020J10D01*
G01*
G75*
G02*
X44194550Y45294270I15000J0D01*
G01*
X44269550D01*
G75*
G02*
X44284550Y45279280I0J-14990D01*
G01*
G75*
G02*
Y45279270I-13020J0D01*
G01*
Y45247770D01*
X44639150D01*
Y45324020D01*
X44317550D01*
Y45315770D01*
G75*
G02*
Y45315760I-13020J0D01*
G01*
G75*
G02*
X44302550Y45300770I-15000J0D01*
G01*
X44247550D01*
G75*
G02*
X44232550Y45315760I0J14990D01*
G01*
G75*
G02*
Y45315770I13020J10D01*
G01*
Y45324020D01*
X42303700D01*
G37*
X44754950D02*
G36*
X44754950Y45324020D02*
Y45273270D01*
X44757820Y45247770D01*
X46529330D01*
G75*
G02*
X46558200Y45257770I28860J-36640D01*
G01*
X46571050D01*
Y45247770D01*
X46625050D01*
Y45257770D01*
X46637900D01*
G75*
G02*
X46666770Y45247770I10J-46640D01*
G01*
X49136300D01*
Y45324020D01*
X48144550D01*
Y45301770D01*
G75*
G02*
Y45301760I-13020J0D01*
G01*
G75*
G02*
X48129550Y45286770I-15000J0D01*
G01*
X48054550D01*
G75*
G02*
X48039550Y45301760I0J14990D01*
G01*
G75*
G02*
Y45301770I13020J10D01*
G01*
Y45324020D01*
X48037510D01*
Y45301770D01*
G75*
G02*
Y45301760I-13020J0D01*
G01*
G75*
G02*
X48022510Y45286770I-15000J0D01*
G01*
X47947510D01*
G75*
G02*
X47932510Y45301760I0J14990D01*
G01*
G75*
G02*
Y45301770I13020J10D01*
G01*
Y45324020D01*
X47922420D01*
Y45301770D01*
G75*
G02*
Y45301760I-13020J0D01*
G01*
G75*
G02*
X47907420Y45286770I-15000J0D01*
G01*
X47832420D01*
G75*
G02*
X47817420Y45301760I0J14990D01*
G01*
G75*
G02*
Y45301770I13020J10D01*
G01*
Y45324020D01*
X47807320D01*
Y45301770D01*
G75*
G02*
Y45301760I-13020J0D01*
G01*
G75*
G02*
X47792320Y45286770I-15000J0D01*
G01*
X47717320D01*
G75*
G02*
X47702320Y45301760I0J14990D01*
G01*
G75*
G02*
Y45301770I13020J10D01*
G01*
Y45324020D01*
X47189550D01*
Y45319070D01*
G75*
G02*
X47220550Y45275120I-15660J-43950D01*
G01*
Y45267770D01*
X47161050D01*
Y45295270D01*
X47107050D01*
Y45267770D01*
X47047550D01*
Y45275120D01*
G75*
G02*
Y45275130I47750J10D01*
G01*
G75*
G02*
X47084550Y45320760I46640J0D01*
G01*
Y45324020D01*
X44754950D01*
G37*
X42303700Y45402270D02*
G36*
X42303700Y45402270D02*
Y45324020D01*
X44232550D01*
Y45390770D01*
G75*
G02*
Y45390780I13020J10D01*
G01*
G75*
G02*
X44237910Y45402270I14990J0D01*
G01*
X44219550D01*
Y45364770D01*
G75*
G02*
Y45364760I-13020J0D01*
G01*
G75*
G02*
X44204550Y45349770I-15000J0D01*
G01*
X44149550D01*
G75*
G02*
X44134550Y45364760I0J14990D01*
G01*
G75*
G02*
Y45364770I13020J10D01*
G01*
Y45402270D01*
X42303700D01*
G37*
X44317550Y45390770D02*
G36*
X44317550Y45390770D02*
Y45324020D01*
X44639150D01*
Y45402270D01*
X44312190D01*
G75*
G02*
X44317550Y45390780I-9630J-11490D01*
G01*
G75*
G02*
Y45390770I-13020J0D01*
G01*
G37*
X44754950Y45402270D02*
G36*
X44754950Y45402270D02*
Y45324020D01*
X47084550D01*
Y45365270D01*
G75*
G02*
Y45365280I13020J10D01*
G01*
G75*
G02*
X47099550Y45380270I15000J0D01*
G01*
X47174550D01*
G75*
G02*
X47189550Y45365280I0J-14990D01*
G01*
G75*
G02*
Y45365270I-13020J0D01*
G01*
Y45324020D01*
X47702320D01*
Y45356770D01*
G75*
G02*
Y45356780I13020J10D01*
G01*
G75*
G02*
X47717320Y45371770I15000J0D01*
G01*
X47792320D01*
G75*
G02*
X47807320Y45356780I0J-14990D01*
G01*
G75*
G02*
Y45356770I-13020J0D01*
G01*
Y45324020D01*
X47817420D01*
Y45356770D01*
G75*
G02*
Y45356780I13020J10D01*
G01*
G75*
G02*
X47832420Y45371770I15000J0D01*
G01*
X47907420D01*
G75*
G02*
X47922420Y45356780I0J-14990D01*
G01*
G75*
G02*
Y45356770I-13020J0D01*
G01*
Y45324020D01*
X47932510D01*
Y45356770D01*
G75*
G02*
Y45356780I13020J10D01*
G01*
G75*
G02*
X47947510Y45371770I15000J0D01*
G01*
X48022510D01*
G75*
G02*
X48037510Y45356780I0J-14990D01*
G01*
G75*
G02*
Y45356770I-13020J0D01*
G01*
Y45324020D01*
X48039550D01*
Y45356770D01*
G75*
G02*
Y45356780I13020J10D01*
G01*
G75*
G02*
X48054550Y45371770I15000J0D01*
G01*
X48129550D01*
G75*
G02*
X48144550Y45356780I0J-14990D01*
G01*
G75*
G02*
Y45356770I-13020J0D01*
G01*
Y45324020D01*
X49136300D01*
Y45402270D01*
X44754950D01*
G37*
X42303700Y45490410D02*
G36*
X42303700Y45490410D02*
Y45402270D01*
X44134550D01*
Y45439770D01*
G75*
G02*
Y45439780I13020J10D01*
G01*
G75*
G02*
X44149550Y45454770I15000J0D01*
G01*
X44204550D01*
G75*
G02*
X44219550Y45439780I0J-14990D01*
G01*
G75*
G02*
Y45439770I-13020J0D01*
G01*
Y45402270D01*
X44237910D01*
G75*
G02*
X44247550Y45405770I9630J-11490D01*
G01*
X44302550D01*
G75*
G02*
X44312190Y45402270I10J-14990D01*
G01*
X44639150D01*
Y45490410D01*
X44485160D01*
G75*
G02*
X44438050Y45458560I-74130J58890D01*
G01*
Y45490410D01*
X44384050D01*
Y45458560D01*
G75*
G02*
X44336940Y45490410I27020J90740D01*
G01*
X42303700D01*
G37*
X44754950D02*
G36*
X44754950Y45490410D02*
Y45402270D01*
X49136300D01*
Y45490410D01*
X44754950D01*
G37*
X42303700Y45560670D02*
G36*
X42303700Y45560670D02*
Y45490410D01*
X44336940D01*
G75*
G02*
X44320340Y45522270I74130J58880D01*
G01*
X44380680D01*
G75*
G03*
X44384050Y45518900I33210J29840D01*
G01*
Y45490410D01*
X44438050D01*
Y45518900D01*
G75*
G03*
X44441420Y45522270I-29840J33210D01*
G01*
X44501760D01*
G75*
G02*
X44485160Y45490410I-90730J27020D01*
G01*
X44639150D01*
Y45560670D01*
X44017550D01*
Y45522770D01*
G75*
G02*
Y45522760I-13020J0D01*
G01*
G75*
G02*
X44002550Y45507770I-15000J0D01*
G01*
X43947550D01*
G75*
G02*
X43932550Y45522760I0J14990D01*
G01*
G75*
G02*
Y45522770I13020J10D01*
G01*
Y45560670D01*
X43531480D01*
G75*
G02*
X43519550Y45554770I-11920J9090D01*
G01*
X43444550D01*
G75*
G02*
X43432620Y45560670I-10J14990D01*
G01*
X42303700D01*
G37*
X44754950D02*
G36*
X44754950Y45560670D02*
Y45490410D01*
X49136300D01*
Y45560670D01*
X49072250D01*
Y45509070D01*
X48969050D01*
Y45560670D01*
X48915050D01*
Y45509070D01*
X48811850D01*
Y45560670D01*
X48737250D01*
Y45543070D01*
X48544850D01*
Y45560670D01*
X44754950D01*
G37*
X42303700Y45608120D02*
G36*
X42303700Y45608120D02*
Y45560670D01*
X43432620D01*
G75*
G02*
X43429550Y45569760I11920J9090D01*
G01*
G75*
G02*
Y45569770I13020J10D01*
G01*
Y45608120D01*
X42303700D01*
G37*
X43534550D02*
G36*
X43534550Y45608120D02*
Y45569770D01*
G75*
G02*
Y45569760I-13020J0D01*
G01*
G75*
G02*
X43531480Y45560670I-14990J0D01*
G01*
X43932550D01*
Y45597770D01*
G75*
G02*
Y45597780I13020J10D01*
G01*
G75*
G02*
X43936690Y45608120I14990J0D01*
G01*
X43534550D01*
G37*
X44017550Y45597770D02*
G36*
X44017550Y45597770D02*
Y45560670D01*
X44639150D01*
Y45608120D01*
X44485170D01*
G75*
G02*
X44501760Y45576270I-74140J-58870D01*
G01*
X44441420D01*
G75*
G03*
X44438050Y45579640I-33210J-29840D01*
G01*
Y45608120D01*
X44384050D01*
Y45579640D01*
G75*
G03*
X44380680Y45576270I29840J-33210D01*
G01*
X44320340D01*
G75*
G02*
X44336930Y45608120I90730J-27020D01*
G01*
X44013410D01*
G75*
G02*
X44017550Y45597780I-10850J-10340D01*
G01*
G75*
G02*
Y45597770I-13020J0D01*
G01*
G37*
X44754950Y45608120D02*
G36*
X44754950Y45608120D02*
Y45560670D01*
X48544850D01*
Y45608120D01*
X47250550D01*
Y45592770D01*
G75*
G02*
Y45592760I-13020J0D01*
G01*
G75*
G02*
X47235550Y45577770I-15000J0D01*
G01*
X47180550D01*
G75*
G02*
X47165550Y45592760I0J14990D01*
G01*
G75*
G02*
Y45592770I13020J10D01*
G01*
Y45608120D01*
X44754950D01*
G37*
X48737250D02*
G36*
X48737250Y45608120D02*
Y45560670D01*
X48811850D01*
Y45608120D01*
X48737250D01*
G37*
X48865850D02*
G36*
X48865850Y45608120D02*
Y45563070D01*
X48915050D01*
Y45560670D01*
X48969050D01*
Y45563070D01*
X49018250D01*
Y45608120D01*
X48865850D01*
G37*
X49072250D02*
G36*
X49072250Y45608120D02*
Y45560670D01*
X49136300D01*
Y45608120D01*
X49072250D01*
G37*
X42303700Y45662770D02*
G36*
X42303700Y45662770D02*
Y45608120D01*
X43429550D01*
Y45624770D01*
G75*
G02*
Y45624780I13020J10D01*
G01*
G75*
G02*
X43444550Y45639770I15000J0D01*
G01*
X43519550D01*
G75*
G02*
X43534550Y45624780I0J-14990D01*
G01*
G75*
G02*
Y45624770I-13020J0D01*
G01*
Y45608120D01*
X43936690D01*
G75*
G02*
X43947550Y45612770I10850J-10330D01*
G01*
X44002550D01*
G75*
G02*
X44013410Y45608120I10J-14980D01*
G01*
X44336930D01*
G75*
G02*
X44384050Y45639980I74140J-58880D01*
G01*
Y45608120D01*
X44438050D01*
Y45639980D01*
G75*
G02*
X44485170Y45608120I-27020J-90740D01*
G01*
X44639150D01*
Y45662770D01*
X42303700D01*
G37*
X44754950D02*
G36*
X44754950Y45662770D02*
Y45608120D01*
X47165550D01*
Y45662770D01*
X47155550D01*
Y45625270D01*
G75*
G02*
Y45625260I-13020J0D01*
G01*
G75*
G02*
X47140550Y45610270I-15000J0D01*
G01*
X47085550D01*
G75*
G02*
X47070550Y45625260I0J14990D01*
G01*
G75*
G02*
Y45625270I13020J10D01*
G01*
Y45662770D01*
X46513050D01*
Y45635270D01*
G75*
G02*
Y45635260I-13020J0D01*
G01*
G75*
G02*
X46498050Y45620270I-15000J0D01*
G01*
X46423050D01*
G75*
G02*
X46408050Y45635260I0J14990D01*
G01*
G75*
G02*
Y45635270I13020J10D01*
G01*
Y45662770D01*
X45110390D01*
G75*
G02*
X44991710I-59340J12500D01*
G01*
X44754950D01*
G37*
X47250550D02*
G36*
X47250550Y45662770D02*
Y45608120D01*
X48544850D01*
Y45662770D01*
X47250550D01*
G37*
X48737250D02*
G36*
X48737250Y45662770D02*
Y45608120D01*
X48811850D01*
Y45612270D01*
X48865850D01*
Y45608120D01*
X49018250D01*
Y45612270D01*
X49072250D01*
Y45608120D01*
X49136300D01*
Y45662770D01*
X48737250D01*
G37*
X42303700Y45717870D02*
G36*
X42303700Y45717870D02*
Y45662770D01*
X44639150D01*
Y45717870D01*
X42303700D01*
G37*
X44754950D02*
G36*
X44754950Y45717870D02*
Y45662770D01*
X44991710D01*
G75*
G02*
X44990410Y45675270I59340J12490D01*
G01*
G75*
G02*
X45007890Y45717870I60640J0D01*
G01*
X44754950D01*
G37*
X45111690Y45675270D02*
G36*
X45111690Y45675270D02*
G75*
G02*
X45110390Y45662770I-60640J-10D01*
G01*
X46408050D01*
Y45690270D01*
G75*
G02*
Y45690280I13020J10D01*
G01*
G75*
G02*
X46423050Y45705270I15000J0D01*
G01*
X46498050D01*
G75*
G02*
X46513050Y45690280I0J-14990D01*
G01*
G75*
G02*
Y45690270I-13020J0D01*
G01*
Y45662770D01*
X47070550D01*
Y45700270D01*
G75*
G02*
Y45700280I13020J10D01*
G01*
G75*
G02*
X47085550Y45715270I15000J0D01*
G01*
X47140550D01*
G75*
G02*
X47155550Y45700280I0J-14990D01*
G01*
G75*
G02*
Y45700270I-13020J0D01*
G01*
Y45662770D01*
X47165550D01*
Y45667770D01*
G75*
G02*
Y45667780I13020J10D01*
G01*
G75*
G02*
X47180550Y45682770I15000J0D01*
G01*
X47235550D01*
G75*
G02*
X47250550Y45667780I0J-14990D01*
G01*
G75*
G02*
Y45667770I-13020J0D01*
G01*
Y45662770D01*
X48544850D01*
Y45717870D01*
X45094210D01*
G75*
G02*
X45111690Y45675270I-43160J-42600D01*
G01*
G37*
X48737250Y45717870D02*
G36*
X48737250Y45717870D02*
Y45662770D01*
X49136300D01*
Y45717870D01*
X49072250D01*
Y45666270D01*
X49018250D01*
Y45715470D01*
X48969050D01*
Y45717870D01*
X48915050D01*
Y45715470D01*
X48865850D01*
Y45666270D01*
X48811850D01*
Y45717870D01*
X48737250D01*
G37*
X42303700Y45800770D02*
G36*
X42303700Y45800770D02*
Y45717870D01*
X44639150D01*
Y45800770D01*
X42303700D01*
G37*
X44754950D02*
G36*
X44754950Y45800770D02*
Y45717870D01*
X45007890D01*
G75*
G02*
X45094210I43160J-42600D01*
G01*
X48544850D01*
Y45735470D01*
X48737250D01*
Y45717870D01*
X48811850D01*
Y45769470D01*
X48915050D01*
Y45717870D01*
X48969050D01*
Y45769470D01*
X49072250D01*
Y45717870D01*
X49136300D01*
Y45800770D01*
X49038250D01*
Y45797070D01*
X48845850D01*
Y45800770D01*
X48737250D01*
Y45797070D01*
X48544850D01*
Y45800770D01*
X46590210D01*
G75*
G02*
X46547900Y45773770I-42300J19640D01*
G01*
X46535050D01*
Y45800770D01*
X46481050D01*
Y45773770D01*
X46468200D01*
G75*
G02*
X46425890Y45800770I-10J46640D01*
G01*
X44754950D01*
G37*
X42303700Y45893270D02*
G36*
X42303700Y45893270D02*
Y45800770D01*
X44639150D01*
Y45893270D01*
X43129680D01*
G75*
G02*
X43130690Y45882270I-59630J-11020D01*
G01*
G75*
G02*
X43009410I-60640J0D01*
G01*
G75*
G02*
X43010420Y45893270I60640J-20D01*
G01*
X42303700D01*
G37*
X44754950D02*
G36*
X44754950Y45893270D02*
Y45800770D01*
X46425890D01*
G75*
G02*
X46421550Y45820410I42310J19650D01*
G01*
G75*
G02*
Y45820420I40930J10D01*
G01*
Y45827770D01*
X46481050D01*
Y45800770D01*
X46535050D01*
Y45827770D01*
X46594550D01*
Y45820420D01*
G75*
G02*
Y45820410I-40930J0D01*
G01*
G75*
G02*
X46590210Y45800770I-46650J10D01*
G01*
X48544850D01*
Y45893270D01*
X47610420D01*
G75*
G02*
X47595550Y45880270I-14860J1990D01*
G01*
X47540550D01*
G75*
G02*
X47525680Y45893270I-10J14990D01*
G01*
X47160550D01*
Y45827770D01*
G75*
G02*
Y45827760I-13020J0D01*
G01*
G75*
G02*
X47145550Y45812770I-15000J0D01*
G01*
X47090550D01*
G75*
G02*
X47075550Y45827760I0J14990D01*
G01*
G75*
G02*
Y45827770I13020J10D01*
G01*
Y45893270D01*
X46592660D01*
G75*
G02*
X46594550Y45880130I-44760J-13140D01*
G01*
G75*
G02*
Y45880120I-40930J0D01*
G01*
Y45872770D01*
X46535050D01*
Y45893270D01*
X46481050D01*
Y45872770D01*
X46421550D01*
Y45880120D01*
G75*
G02*
Y45880130I40930J10D01*
G01*
G75*
G02*
X46423440Y45893270I46650J0D01*
G01*
X44754950D01*
G37*
X48737250D02*
G36*
X48737250Y45893270D02*
Y45800770D01*
X48845850D01*
Y45893270D01*
X48737250D01*
G37*
X49038250D02*
G36*
X49038250Y45893270D02*
Y45800770D01*
X49136300D01*
Y45893270D01*
X49038250D01*
G37*
X42303700Y46072770D02*
G36*
X42303700Y46072770D02*
Y45893270D01*
X43010420D01*
G75*
G02*
X43129680I59630J-11000D01*
G01*
X44639150D01*
Y46072770D01*
X42929300D01*
G75*
G02*
X42915550Y46063770I-13740J5990D01*
G01*
X42840550D01*
G75*
G02*
X42826800Y46072770I-10J14990D01*
G01*
X42303700D01*
G37*
X44754950D02*
G36*
X44754950Y46072770D02*
Y45893270D01*
X46423440D01*
G75*
G02*
X46468200Y45926770I44750J-13140D01*
G01*
X46481050D01*
Y45893270D01*
X46535050D01*
Y45926770D01*
X46547900D01*
G75*
G02*
X46592660Y45893270I10J-46640D01*
G01*
X47075550D01*
Y45902770D01*
G75*
G02*
Y45902780I13020J10D01*
G01*
G75*
G02*
X47090550Y45917770I15000J0D01*
G01*
X47145550D01*
G75*
G02*
X47160550Y45902780I0J-14990D01*
G01*
G75*
G02*
Y45902770I-13020J0D01*
G01*
Y45893270D01*
X47525680D01*
G75*
G02*
X47525550Y45895260I14870J1970D01*
G01*
G75*
G02*
Y45895270I13020J10D01*
G01*
Y45970270D01*
G75*
G02*
Y45970280I13020J10D01*
G01*
G75*
G02*
X47540550Y45985270I15000J0D01*
G01*
X47595550D01*
G75*
G02*
X47610550Y45970280I0J-14990D01*
G01*
G75*
G02*
Y45970270I-13020J0D01*
G01*
Y45895270D01*
G75*
G02*
Y45895260I-13020J0D01*
G01*
G75*
G02*
X47610420Y45893270I-15000J-20D01*
G01*
X48544850D01*
Y45989470D01*
X48737250D01*
Y45893270D01*
X48845850D01*
Y45989470D01*
X49038250D01*
Y45893270D01*
X49136300D01*
Y46072770D01*
X49038250D01*
Y46051070D01*
X48845850D01*
Y46072770D01*
X48771250D01*
Y46017070D01*
X48668050D01*
Y46071070D01*
X48717250D01*
Y46072770D01*
X48564850D01*
Y46071070D01*
X48614050D01*
Y46017070D01*
X48510850D01*
Y46072770D01*
X46137710D01*
G75*
G02*
X46095400Y46045770I-42300J19640D01*
G01*
X46082550D01*
Y46072770D01*
X46028550D01*
Y46045770D01*
X46015700D01*
G75*
G02*
X45973390Y46072770I-10J46640D01*
G01*
X45536800D01*
Y45981570D01*
X45344400D01*
Y46072770D01*
X45282800D01*
Y45981570D01*
X45090400D01*
Y46072770D01*
X44754950D01*
G37*
X42303700Y46147270D02*
G36*
X42303700Y46147270D02*
Y46072770D01*
X42826800D01*
G75*
G02*
X42825550Y46078760I13740J5990D01*
G01*
G75*
G02*
Y46078770I13020J10D01*
G01*
Y46133770D01*
G75*
G02*
Y46133780I13020J10D01*
G01*
G75*
G02*
X42834000Y46147270I14990J0D01*
G01*
X42303700D01*
G37*
X42930550Y46133770D02*
G36*
X42930550Y46133770D02*
Y46078770D01*
G75*
G02*
Y46078760I-13020J0D01*
G01*
G75*
G02*
X42929300Y46072770I-14990J0D01*
G01*
X44639150D01*
Y46147270D01*
X42922100D01*
G75*
G02*
X42930550Y46133780I-6540J-13490D01*
G01*
G75*
G02*
Y46133770I-13020J0D01*
G01*
G37*
X44754950Y46147270D02*
G36*
X44754950Y46147270D02*
Y46072770D01*
X45090400D01*
Y46147270D01*
X44754950D01*
G37*
X45282800D02*
G36*
X45282800Y46147270D02*
Y46072770D01*
X45344400D01*
Y46147270D01*
X45282800D01*
G37*
X45536800D02*
G36*
X45536800Y46147270D02*
Y46072770D01*
X45973390D01*
G75*
G02*
X45969050Y46092410I42310J19650D01*
G01*
G75*
G02*
Y46092420I40930J10D01*
G01*
Y46099770D01*
X46028550D01*
Y46072770D01*
X46082550D01*
Y46099770D01*
X46142050D01*
Y46092420D01*
G75*
G02*
Y46092410I-40930J0D01*
G01*
G75*
G02*
X46137710Y46072770I-46650J10D01*
G01*
X48510850D01*
Y46120270D01*
X48564850D01*
Y46072770D01*
X48717250D01*
Y46120270D01*
X48771250D01*
Y46072770D01*
X48845850D01*
Y46147270D01*
X47210380D01*
G75*
G02*
X47202550Y46144560I-34860J88040D01*
G01*
Y46147270D01*
X47148550D01*
Y46144560D01*
G75*
G02*
X47140720Y46147270I27030J90750D01*
G01*
X46142050D01*
Y46144770D01*
X46082550D01*
Y46147270D01*
X46028550D01*
Y46144770D01*
X45969050D01*
Y46147270D01*
X45536800D01*
G37*
X49038250D02*
G36*
X49038250Y46147270D02*
Y46072770D01*
X49136300D01*
Y46147270D01*
X49038250D01*
G37*
X42303700Y46212770D02*
G36*
X42303700Y46212770D02*
Y46147270D01*
X42834000D01*
G75*
G02*
X42840550Y46148770I6540J-13490D01*
G01*
X42915550D01*
G75*
G02*
X42922100Y46147270I10J-14990D01*
G01*
X44639150D01*
Y46212770D01*
X42303700D01*
G37*
X44754950D02*
G36*
X44754950Y46212770D02*
Y46147270D01*
X45090400D01*
Y46173970D01*
X45282800D01*
Y46147270D01*
X45344400D01*
Y46173970D01*
X45536800D01*
Y46147270D01*
X45969050D01*
Y46152120D01*
G75*
G02*
Y46152130I40930J10D01*
G01*
G75*
G02*
X46015700Y46198770I46650J0D01*
G01*
X46028550D01*
Y46147270D01*
X46082550D01*
Y46198770D01*
X46095400D01*
G75*
G02*
X46142050Y46152130I0J-46640D01*
G01*
G75*
G02*
Y46152120I-40930J0D01*
G01*
Y46147270D01*
X47140720D01*
G75*
G02*
X47084840Y46208270I34850J88020D01*
G01*
X47145180D01*
G75*
G03*
X47148550Y46204900I33210J29840D01*
G01*
Y46147270D01*
X47202550D01*
Y46204900D01*
G75*
G03*
X47205920Y46208270I-29840J33210D01*
G01*
X47266260D01*
G75*
G02*
X47210380Y46147270I-90730J27020D01*
G01*
X48845850D01*
Y46212770D01*
X48771250D01*
Y46174270D01*
X48717250D01*
Y46212770D01*
X48564850D01*
Y46174270D01*
X48510850D01*
Y46212770D01*
X47598050D01*
Y46175270D01*
G75*
G02*
Y46175260I-13020J0D01*
G01*
G75*
G02*
X47583050Y46160270I-15000J0D01*
G01*
X47528050D01*
G75*
G02*
X47513050Y46175260I0J14990D01*
G01*
G75*
G02*
Y46175270I13020J10D01*
G01*
Y46212770D01*
X44754950D01*
G37*
X49038250D02*
G36*
X49038250Y46212770D02*
Y46147270D01*
X49136300D01*
Y46212770D01*
X49038250D01*
G37*
X42303700Y46294120D02*
G36*
X42303700Y46294120D02*
Y46212770D01*
X44639150D01*
Y46294120D01*
X42303700D01*
G37*
X44754950D02*
G36*
X44754950Y46294120D02*
Y46212770D01*
X47513050D01*
Y46250270D01*
G75*
G02*
Y46250280I13020J10D01*
G01*
G75*
G02*
X47528050Y46265270I15000J0D01*
G01*
X47583050D01*
G75*
G02*
X47598050Y46250280I0J-14990D01*
G01*
G75*
G02*
Y46250270I-13020J0D01*
G01*
Y46212770D01*
X48510850D01*
Y46277470D01*
X48614050D01*
Y46223470D01*
X48564850D01*
Y46212770D01*
X48717250D01*
Y46223470D01*
X48668050D01*
Y46277470D01*
X48771250D01*
Y46212770D01*
X48845850D01*
Y46243470D01*
X49038250D01*
Y46212770D01*
X49136300D01*
Y46294120D01*
X47249670D01*
G75*
G02*
X47266260Y46262270I-74140J-58870D01*
G01*
X47205920D01*
G75*
G03*
X47202550Y46265640I-33210J-29840D01*
G01*
Y46294120D01*
X47148550D01*
Y46265640D01*
G75*
G03*
X47145180Y46262270I29840J-33210D01*
G01*
X47084840D01*
G75*
G02*
X47101430Y46294120I90730J-27020D01*
G01*
X45536800D01*
Y46235570D01*
X45344400D01*
Y46294120D01*
X45282800D01*
Y46235570D01*
X45090400D01*
Y46294120D01*
X44754950D01*
G37*
X42303700Y46401270D02*
G36*
X42303700Y46401270D02*
Y46294120D01*
X44639150D01*
Y46401270D01*
X43915550D01*
Y46362770D01*
G75*
G02*
Y46362760I-13020J0D01*
G01*
G75*
G02*
X43900550Y46347770I-15000J0D01*
G01*
X43825550D01*
G75*
G02*
X43810550Y46362760I0J14990D01*
G01*
G75*
G02*
Y46362770I13020J10D01*
G01*
Y46401270D01*
X43127060D01*
G75*
G02*
X43097550Y46391520I-56520J121530D01*
G01*
Y46401270D01*
X43043550D01*
Y46391520D01*
G75*
G02*
X43019630Y46398820I26950J131150D01*
G01*
G75*
G02*
X42927550Y46329020I-119100J61480D01*
G01*
Y46384960D01*
G75*
G03*
X42954590Y46401270I-26960J75270D01*
G01*
X42846510D01*
G75*
G03*
X42873550Y46384960I54000J58950D01*
G01*
Y46329020D01*
G75*
G02*
X42813050Y46358780I26980J131220D01*
G01*
G75*
G02*
X42752550Y46329020I-87480J101460D01*
G01*
Y46384960D01*
G75*
G03*
X42779580Y46401270I-27100J75460D01*
G01*
X42671520D01*
G75*
G03*
X42698550Y46384960I54040J59010D01*
G01*
Y46329020D01*
G75*
G02*
X42605240Y46401270I27010J131260D01*
G01*
X42303700D01*
G37*
X44754950D02*
G36*
X44754950Y46401270D02*
Y46294120D01*
X45090400D01*
Y46401270D01*
X44754950D01*
G37*
X45282800D02*
G36*
X45282800Y46401270D02*
Y46294120D01*
X45344400D01*
Y46401270D01*
X45282800D01*
G37*
X45536800D02*
G36*
X45536800Y46401270D02*
Y46294120D01*
X47101430D01*
G75*
G02*
X47148550Y46325980I74140J-58880D01*
G01*
Y46294120D01*
X47202550D01*
Y46325980D01*
G75*
G02*
X47249670Y46294120I-27020J-90740D01*
G01*
X49136300D01*
Y46401270D01*
X49038250D01*
Y46305070D01*
X48845850D01*
Y46401270D01*
X48737250D01*
Y46305070D01*
X48544850D01*
Y46401270D01*
X47598050D01*
Y46395270D01*
G75*
G02*
Y46395260I-13020J0D01*
G01*
G75*
G02*
X47583050Y46380270I-15000J0D01*
G01*
X47528050D01*
G75*
G02*
X47513050Y46395260I0J14990D01*
G01*
G75*
G02*
Y46395270I13020J10D01*
G01*
Y46401270D01*
X46480550D01*
Y46392770D01*
G75*
G02*
Y46392760I-13020J0D01*
G01*
G75*
G02*
X46465550Y46377770I-15000J0D01*
G01*
X46390550D01*
G75*
G02*
X46375550Y46392760I0J14990D01*
G01*
G75*
G02*
Y46392770I13020J10D01*
G01*
Y46401270D01*
X45536800D01*
G37*
X42303700Y46539390D02*
G36*
X42303700Y46539390D02*
Y46401270D01*
X42605240D01*
G75*
G02*
X42594300Y46433270I120320J59000D01*
G01*
X42650240D01*
G75*
G03*
X42671520Y46401270I75320J27020D01*
G01*
X42779580D01*
G75*
G03*
X42780040Y46401690I-54210J59840D01*
G01*
G75*
G02*
X42769300Y46433270I119930J58400D01*
G01*
X42800860D01*
X42825240D01*
X42856800D01*
G75*
G02*
X42846060Y46401690I-130670J26820D01*
G01*
G75*
G03*
X42846510Y46401270I54550J57990D01*
G01*
X42954590D01*
G75*
G03*
X42974380Y46429460I-54010J58950D01*
G01*
G75*
G02*
X42939300Y46495770I96270J93360D01*
G01*
X42972250D01*
G75*
G03*
X42927550Y46535580I-71740J-35550D01*
G01*
Y46539390D01*
X42873550D01*
Y46535580D01*
G75*
G03*
X42846060Y46518850I27090J-75470D01*
G01*
G75*
G02*
X42856800Y46487270I-119930J-58400D01*
G01*
X42825240D01*
X42800860D01*
X42769300D01*
G75*
G02*
X42780040Y46518850I130670J-26820D01*
G01*
G75*
G03*
X42752550Y46535580I-54450J-58520D01*
G01*
Y46539390D01*
X42698550D01*
Y46535580D01*
G75*
G03*
X42650240Y46487270I27010J-75320D01*
G01*
X42594300D01*
G75*
G02*
X42617410Y46539390I131260J-27020D01*
G01*
X42303700D01*
G37*
X43031800Y46487270D02*
G36*
X43031800Y46487270D02*
X42998850D01*
G75*
G03*
X43043550Y46447460I71740J35550D01*
G01*
Y46401270D01*
X43097550D01*
Y46447460D01*
G75*
G03*
X43145860Y46495770I-27010J75320D01*
G01*
X43201800D01*
G75*
G02*
X43127060Y46401270I-131260J27010D01*
G01*
X43810550D01*
Y46417770D01*
G75*
G02*
Y46417780I13020J10D01*
G01*
G75*
G02*
X43825550Y46432770I15000J0D01*
G01*
X43900550D01*
G75*
G02*
X43915550Y46417780I0J-14990D01*
G01*
G75*
G02*
Y46417770I-13020J0D01*
G01*
Y46401270D01*
X44639150D01*
Y46539390D01*
X43008690D01*
G75*
G02*
X43031800Y46487270I-108240J-79180D01*
G01*
G37*
X44754950Y46539390D02*
G36*
X44754950Y46539390D02*
Y46401270D01*
X45090400D01*
Y46427970D01*
X45282800D01*
Y46401270D01*
X45344400D01*
Y46427970D01*
X45536800D01*
Y46401270D01*
X46375550D01*
Y46447770D01*
G75*
G02*
Y46447780I13020J10D01*
G01*
G75*
G02*
X46390550Y46462770I15000J0D01*
G01*
X46465550D01*
G75*
G02*
X46480550Y46447780I0J-14990D01*
G01*
G75*
G02*
Y46447770I-13020J0D01*
G01*
Y46401270D01*
X47513050D01*
Y46470270D01*
G75*
G02*
Y46470280I13020J10D01*
G01*
G75*
G02*
X47528050Y46485270I15000J0D01*
G01*
X47583050D01*
G75*
G02*
X47598050Y46470280I0J-14990D01*
G01*
G75*
G02*
Y46470270I-13020J0D01*
G01*
Y46401270D01*
X48544850D01*
Y46497470D01*
X48737250D01*
Y46401270D01*
X48845850D01*
Y46497470D01*
X49038250D01*
Y46401270D01*
X49136300D01*
Y46539390D01*
X45536800D01*
Y46489570D01*
X45344400D01*
Y46539390D01*
X45282800D01*
Y46489570D01*
X45090400D01*
Y46539390D01*
X44754950D01*
G37*
X42303700Y46601890D02*
G36*
X42303700Y46601890D02*
Y46539390D01*
X42617410D01*
G75*
G02*
X42698550Y46591520I108150J-79120D01*
G01*
Y46539390D01*
X42752550D01*
Y46591520D01*
G75*
G02*
X42813050Y46561760I-26980J-131220D01*
G01*
G75*
G02*
X42873550Y46591520I87480J-101460D01*
G01*
Y46539390D01*
X42927550D01*
Y46591520D01*
G75*
G02*
X42951470Y46584220I-26950J-131150D01*
G01*
G75*
G02*
X42962400Y46601890I119110J-61460D01*
G01*
X42303700D01*
G37*
X42996720Y46553580D02*
G36*
X42996720Y46553580D02*
G75*
G02*
X43008690Y46539390I-96270J-93360D01*
G01*
X44639150D01*
Y46584770D01*
X44636770Y46593670D01*
X44630250Y46600190D01*
X44623890Y46601890D01*
X44596590D01*
X44591620Y46595460D01*
X44583050Y46592770D01*
X44508050D01*
X44500550Y46594780D01*
X44495060Y46600270D01*
X44494630Y46601890D01*
X43178690D01*
G75*
G02*
X43201800Y46549770I-108150J-79140D01*
G01*
X43145860D01*
G75*
G03*
X43097550Y46598080I-75320J-27010D01*
G01*
Y46601890D01*
X43043550D01*
Y46598080D01*
G75*
G03*
X42996720Y46553580I26970J-75270D01*
G01*
G37*
X44754950Y46601890D02*
G36*
X44754950Y46601890D02*
Y46539390D01*
X45090400D01*
Y46601890D01*
X44754950D01*
G37*
X45282800D02*
G36*
X45282800Y46601890D02*
Y46539390D01*
X45344400D01*
Y46601890D01*
X45282800D01*
G37*
X45536800D02*
G36*
X45536800Y46601890D02*
Y46539390D01*
X49136300D01*
Y46601890D01*
X49038250D01*
Y46559070D01*
X48845850D01*
Y46601890D01*
X48737250D01*
Y46559070D01*
X48544850D01*
Y46601890D01*
X45536800D01*
G37*
X42303700Y46655270D02*
G36*
X42303700Y46655270D02*
Y46601890D01*
X42962400D01*
G75*
G02*
X43043550Y46654020I108170J-79160D01*
G01*
Y46601890D01*
X43097550D01*
Y46654020D01*
G75*
G02*
X43178690Y46601890I-27010J-131250D01*
G01*
X44494630D01*
X44493050Y46607770D01*
Y46655270D01*
X42303700D01*
G37*
X44597120Y46602570D02*
G36*
X44597120Y46602570D02*
X44596590Y46601890D01*
X44623890D01*
X44621350Y46602570D01*
X44597120D01*
G37*
X44664590Y46655270D02*
G36*
X44664590Y46655270D02*
X44676250Y46647280D01*
X44689550Y46632430D01*
Y46655270D01*
X44664590D01*
G37*
X44754950D02*
G36*
X44754950Y46655270D02*
Y46601890D01*
X45090400D01*
Y46655270D01*
X44754950D01*
G37*
X45282800D02*
G36*
X45282800Y46655270D02*
Y46601890D01*
X45344400D01*
Y46655270D01*
X45282800D01*
G37*
X45536800D02*
G36*
X45536800Y46655270D02*
Y46601890D01*
X48544850D01*
Y46655270D01*
X47598050D01*
Y46645270D01*
G75*
G02*
Y46645260I-13020J0D01*
G01*
G75*
G02*
X47583050Y46630270I-15000J0D01*
G01*
X47528050D01*
G75*
G02*
X47513050Y46645260I0J14990D01*
G01*
G75*
G02*
Y46645270I13020J10D01*
G01*
Y46655270D01*
X45536800D01*
G37*
X48737250D02*
G36*
X48737250Y46655270D02*
Y46601890D01*
X48845850D01*
Y46655270D01*
X48737250D01*
G37*
X49038250D02*
G36*
X49038250Y46655270D02*
Y46601890D01*
X49136300D01*
Y46655270D01*
X49038250D01*
G37*
X42303700Y46732770D02*
G36*
X42303700Y46732770D02*
Y46655270D01*
X44493050D01*
Y46662770D01*
X44495060Y46670270D01*
X44500550Y46675760D01*
X44508050Y46677770D01*
X44583050D01*
X44591620Y46675080D01*
X44597120Y46667970D01*
X44621350D01*
X44641140Y46665580D01*
X44659800Y46658550D01*
X44664590Y46655270D01*
X44689550D01*
Y46732770D01*
X44598050D01*
Y46705270D01*
G75*
G02*
Y46705260I-13020J0D01*
G01*
G75*
G02*
X44583050Y46690270I-15000J0D01*
G01*
X44508050D01*
G75*
G02*
X44493050Y46705260I0J14990D01*
G01*
G75*
G02*
Y46705270I13020J10D01*
G01*
Y46732770D01*
X42303700D01*
G37*
X44754950D02*
G36*
X44754950Y46732770D02*
Y46655270D01*
X45090400D01*
Y46681970D01*
X45282800D01*
Y46655270D01*
X45344400D01*
Y46681970D01*
X45536800D01*
Y46655270D01*
X47513050D01*
Y46720270D01*
G75*
G02*
Y46720280I13020J10D01*
G01*
G75*
G02*
X47519750Y46732770I14990J0D01*
G01*
X45693050D01*
Y46677770D01*
G75*
G02*
Y46677760I-13020J0D01*
G01*
G75*
G02*
X45678050Y46662770I-15000J0D01*
G01*
X45603050D01*
G75*
G02*
X45588050Y46677760I0J14990D01*
G01*
G75*
G02*
Y46677770I13020J10D01*
G01*
Y46732770D01*
X44754950D01*
G37*
X47598050Y46720270D02*
G36*
X47598050Y46720270D02*
Y46655270D01*
X48544850D01*
Y46732770D01*
X47591350D01*
G75*
G02*
X47598050Y46720280I-8290J-12490D01*
G01*
G75*
G02*
Y46720270I-13020J0D01*
G01*
G37*
X48737250Y46732770D02*
G36*
X48737250Y46732770D02*
Y46655270D01*
X48845850D01*
Y46732770D01*
X48737250D01*
G37*
X49038250D02*
G36*
X49038250Y46732770D02*
Y46655270D01*
X49136300D01*
Y46732770D01*
X49038250D01*
G37*
X42303700Y46839770D02*
G36*
X42303700Y46839770D02*
Y46732770D01*
X44493050D01*
Y46760270D01*
G75*
G02*
Y46760280I13020J10D01*
G01*
G75*
G02*
X44508050Y46775270I15000J0D01*
G01*
X44583050D01*
G75*
G02*
X44598050Y46760280I0J-14990D01*
G01*
G75*
G02*
Y46760270I-13020J0D01*
G01*
Y46732770D01*
X44689550D01*
Y46795070D01*
X44597120D01*
X44591620Y46787960D01*
X44583050Y46785270D01*
X44508050D01*
X44500550Y46787280D01*
X44495060Y46792770D01*
X44493050Y46800270D01*
Y46839770D01*
X42303700D01*
G37*
X44754950Y46829270D02*
G36*
X44754950Y46829270D02*
Y46732770D01*
X45588050D01*
G75*
G02*
Y46732780I13020J10D01*
G01*
G75*
G02*
X45603050Y46747770I15000J0D01*
G01*
X45678050D01*
G75*
G02*
X45693050Y46732780I0J-14990D01*
G01*
G75*
G02*
Y46732770I-13020J0D01*
G01*
X47519750D01*
G75*
G02*
X47528050Y46735270I8290J-12490D01*
G01*
X47583050D01*
G75*
G02*
X47591350Y46732770I10J-14990D01*
G01*
X48544850D01*
Y46751470D01*
X48737250D01*
Y46732770D01*
X48845850D01*
Y46751470D01*
X49038250D01*
Y46732770D01*
X49136300D01*
Y46839770D01*
X45536800D01*
Y46743570D01*
X45344400D01*
Y46839770D01*
X45282800D01*
Y46743570D01*
X45090400D01*
Y46839770D01*
X44752440D01*
X44754950Y46829270D01*
G37*
X42303700Y46977770D02*
G36*
X42303700Y46977770D02*
Y46839770D01*
X44493050D01*
Y46855270D01*
X44495060Y46862770D01*
X44500550Y46868260D01*
X44508050Y46870270D01*
X44583050D01*
X44591620Y46867580D01*
X44597120Y46860470D01*
X44712470D01*
X44727620Y46861520D01*
X44741610Y46855620D01*
X44751420Y46844040D01*
X44752440Y46839770D01*
X45090400D01*
Y46935970D01*
X45282800D01*
Y46839770D01*
X45344400D01*
Y46935970D01*
X45536800D01*
Y46839770D01*
X49136300D01*
Y46857740D01*
X49016270Y46977770D01*
X47340550D01*
Y46940270D01*
G75*
G02*
Y46940260I-13020J0D01*
G01*
G75*
G02*
X47325550Y46925270I-15000J0D01*
G01*
X47270550D01*
G75*
G02*
X47255550Y46940260I0J14990D01*
G01*
G75*
G02*
Y46940270I13020J10D01*
G01*
Y46977770D01*
X47220550D01*
Y46940270D01*
G75*
G02*
Y46940260I-13020J0D01*
G01*
G75*
G02*
X47205550Y46925270I-15000J0D01*
G01*
X47150550D01*
G75*
G02*
X47135550Y46940260I0J14990D01*
G01*
G75*
G02*
Y46940270I13020J10D01*
G01*
Y46977770D01*
X42303700D01*
G37*
Y47093770D02*
G36*
X42303700Y47093770D02*
Y46977770D01*
X47135550D01*
Y47015270D01*
G75*
G02*
Y47015280I13020J10D01*
G01*
G75*
G02*
X47150550Y47030270I15000J0D01*
G01*
X47205550D01*
G75*
G02*
X47220550Y47015280I0J-14990D01*
G01*
G75*
G02*
Y47015270I-13020J0D01*
G01*
Y46977770D01*
X47255550D01*
Y47015270D01*
G75*
G02*
Y47015280I13020J10D01*
G01*
G75*
G02*
X47270550Y47030270I15000J0D01*
G01*
X47325550D01*
G75*
G02*
X47340550Y47015280I0J-14990D01*
G01*
G75*
G02*
Y47015270I-13020J0D01*
G01*
Y46977770D01*
X49016270D01*
X48900270Y47093770D01*
X47283050D01*
Y47057770D01*
G75*
G02*
Y47057760I-13020J0D01*
G01*
G75*
G02*
X47268050Y47042770I-15000J0D01*
G01*
X47213050D01*
G75*
G02*
X47198050Y47057760I0J14990D01*
G01*
G75*
G02*
Y47057770I13020J10D01*
G01*
Y47093770D01*
X47158050D01*
Y47060270D01*
G75*
G02*
Y47060260I-13020J0D01*
G01*
G75*
G02*
X47143050Y47045270I-15000J0D01*
G01*
X47088050D01*
G75*
G02*
X47073050Y47060260I0J14990D01*
G01*
G75*
G02*
Y47060270I13020J10D01*
G01*
Y47093770D01*
X45536800D01*
Y46997570D01*
X45344400D01*
Y47093770D01*
X45282800D01*
Y46997570D01*
X45090400D01*
Y47093770D01*
X42303700D01*
G37*
Y47226140D02*
G36*
X42303700Y47226140D02*
Y47093770D01*
X45090400D01*
Y47189970D01*
X45282800D01*
Y47093770D01*
X45344400D01*
Y47189970D01*
X45536800D01*
Y47093770D01*
X47073050D01*
Y47135270D01*
G75*
G02*
Y47135280I13020J10D01*
G01*
G75*
G02*
X47088050Y47150270I15000J0D01*
G01*
X47143050D01*
G75*
G02*
X47158050Y47135280I0J-14990D01*
G01*
G75*
G02*
Y47135270I-13020J0D01*
G01*
Y47093770D01*
X47198050D01*
Y47132770D01*
G75*
G02*
Y47132780I13020J10D01*
G01*
G75*
G02*
X47213050Y47147770I15000J0D01*
G01*
X47268050D01*
G75*
G02*
X47283050Y47132780I0J-14990D01*
G01*
G75*
G02*
Y47132770I-13020J0D01*
G01*
Y47093770D01*
X48900270D01*
X48886020Y47108020D01*
G75*
G02*
X48882300Y47117000I9010J8990D01*
G01*
Y47226140D01*
X48778570D01*
G75*
G02*
X48487530I-145520J14130D01*
G01*
X43969970D01*
G75*
G02*
X43920050Y47190560I-76950J55150D01*
G01*
Y47226140D01*
X43866050D01*
Y47190560D01*
G75*
G02*
X43816130Y47226140I27030J90730D01*
G01*
X43169160D01*
G75*
G02*
X42981060Y47198150I-98610J16630D01*
G01*
G75*
G02*
X42927550Y47174020I-80540J107200D01*
G01*
Y47226140D01*
X42873550D01*
Y47174020D01*
G75*
G02*
X42813050Y47203780I26980J131220D01*
G01*
G75*
G02*
X42752550Y47174020I-87480J101460D01*
G01*
Y47226140D01*
X42698550D01*
Y47174020D01*
G75*
G02*
X42617410Y47226140I27010J131260D01*
G01*
X42303700D01*
G37*
Y47340120D02*
G36*
X42303700Y47340120D02*
Y47226140D01*
X42617410D01*
G75*
G02*
X42594300Y47278270I108150J79130D01*
G01*
X42650240D01*
G75*
G03*
X42698550Y47229960I75320J27010D01*
G01*
Y47226140D01*
X42752550D01*
Y47229960D01*
G75*
G03*
X42780040Y47246690I-27090J75470D01*
G01*
G75*
G02*
X42769300Y47278270I119930J58400D01*
G01*
X42800860D01*
X42825240D01*
X42856800D01*
G75*
G02*
X42846060Y47246690I-130670J26820D01*
G01*
G75*
G03*
X42873550Y47229960I54450J58520D01*
G01*
Y47226140D01*
X42927550D01*
Y47229960D01*
G75*
G03*
X42975860Y47278270I-27010J75320D01*
G01*
X42977060D01*
G75*
G02*
X43025940Y47332270I93490J-35500D01*
G01*
X42975860D01*
G75*
G03*
X42972560Y47340120I-75330J-27050D01*
G01*
X42854940D01*
G75*
G02*
X42856800Y47332270I-128830J-34670D01*
G01*
X42825240D01*
X42800860D01*
X42769300D01*
G75*
G02*
X42771160Y47340120I130690J-26820D01*
G01*
X42653540D01*
G75*
G03*
X42650240Y47332270I72030J-34900D01*
G01*
X42594300D01*
G75*
G02*
X42596160Y47340120I131260J-26960D01*
G01*
X42303700D01*
G37*
X43029940D02*
G36*
X43029940Y47340120D02*
G75*
G02*
X43031270Y47334730I-129400J-34790D01*
G01*
G75*
G02*
X43047690Y47340120I39280J-91960D01*
G01*
X43029940D01*
G37*
X43170550Y47242770D02*
G36*
X43170550Y47242770D02*
G75*
G02*
X43169160Y47226140I-100030J-10D01*
G01*
X43816130D01*
G75*
G02*
X43802340Y47254270I76950J55170D01*
G01*
X43862680D01*
G75*
G03*
X43866050Y47250900I33210J29840D01*
G01*
Y47226140D01*
X43920050D01*
Y47250900D01*
G75*
G03*
X43923420Y47254270I-29840J33210D01*
G01*
X43983760D01*
G75*
G02*
X43969970Y47226140I-90740J27040D01*
G01*
X48487530D01*
G75*
G02*
X48486850Y47240270I145520J14080D01*
G01*
G75*
G02*
X48526260Y47340120I146200J0D01*
G01*
X43967170D01*
G75*
G02*
X43983760Y47308270I-74140J-58870D01*
G01*
X43923420D01*
G75*
G03*
X43920050Y47311640I-33210J-29840D01*
G01*
Y47340120D01*
X43866050D01*
Y47311640D01*
G75*
G03*
X43862680Y47308270I29840J-33210D01*
G01*
X43802340D01*
G75*
G02*
X43818930Y47340120I90730J-27020D01*
G01*
X43093410D01*
G75*
G02*
X43170550Y47242770I-22860J-97350D01*
G01*
G37*
X48779250Y47240270D02*
G36*
X48779250Y47240270D02*
G75*
G02*
X48778570Y47226140I-146200J-50D01*
G01*
X48882300D01*
Y47340120D01*
X48739840D01*
G75*
G02*
X48779250Y47240270I-106790J-99850D01*
G01*
G37*
X42303700Y47384390D02*
G36*
X42303700Y47384390D02*
Y47340120D01*
X42596160D01*
G75*
G02*
X42617410Y47384390I129400J-34880D01*
G01*
X42303700D01*
G37*
X42698550Y47380580D02*
G36*
X42698550Y47380580D02*
G75*
G03*
X42653540Y47340120I27020J-75320D01*
G01*
X42771160D01*
G75*
G02*
X42780040Y47363850I128810J-34680D01*
G01*
G75*
G03*
X42752550Y47380580I-54450J-58520D01*
G01*
Y47384390D01*
X42698550D01*
Y47380580D01*
G37*
X42846060Y47363850D02*
G36*
X42846060Y47363850D02*
G75*
G02*
X42854940Y47340120I-119930J-58410D01*
G01*
X42972560D01*
G75*
G03*
X42927550Y47380580I-72030J-34860D01*
G01*
Y47384390D01*
X42873550D01*
Y47380580D01*
G75*
G03*
X42846060Y47363850I27090J-75470D01*
G01*
G37*
X43008700Y47384390D02*
G36*
X43008700Y47384390D02*
G75*
G02*
X43029940Y47340120I-108130J-79110D01*
G01*
X43047690D01*
G75*
G02*
X43093410I22860J-97340D01*
G01*
X43818930D01*
G75*
G02*
X43866050Y47371980I74140J-58880D01*
G01*
Y47340120D01*
X43920050D01*
Y47371980D01*
G75*
G02*
X43967170Y47340120I-27020J-90740D01*
G01*
X48526260D01*
G75*
G02*
X48608480Y47384390I106790J-99860D01*
G01*
X47673550D01*
Y47375270D01*
G75*
G02*
Y47375260I-13020J0D01*
G01*
G75*
G02*
X47658550Y47360270I-15000J0D01*
G01*
X47583550D01*
G75*
G02*
X47568550Y47375260I0J14990D01*
G01*
G75*
G02*
Y47375270I13020J10D01*
G01*
Y47384390D01*
X44697820D01*
G75*
G02*
X44665050Y47367060I-59790J73420D01*
G01*
Y47384390D01*
X44611050D01*
Y47367060D01*
G75*
G02*
X44578280Y47384390I27020J90750D01*
G01*
X43008700D01*
G37*
X48657620D02*
G36*
X48657620Y47384390D02*
G75*
G02*
X48739840Y47340120I-24570J-144130D01*
G01*
X48882300D01*
Y47384390D01*
X48657620D01*
G37*
X42303700Y47492270D02*
G36*
X42303700Y47492270D02*
Y47384390D01*
X42617410D01*
G75*
G02*
X42698550Y47436520I108150J-79120D01*
G01*
Y47384390D01*
X42752550D01*
Y47436520D01*
G75*
G02*
X42813050Y47406760I-26980J-131220D01*
G01*
G75*
G02*
X42873550Y47436520I87480J-101460D01*
G01*
Y47384390D01*
X42927550D01*
Y47436520D01*
G75*
G02*
X43008700Y47384390I-26980J-131230D01*
G01*
X44578280D01*
G75*
G02*
X44547340Y47430770I59790J73400D01*
G01*
X44607680D01*
G75*
G03*
X44611050Y47427400I33210J29840D01*
G01*
Y47384390D01*
X44665050D01*
Y47427400D01*
G75*
G03*
X44668420Y47430770I-29840J33210D01*
G01*
X44728760D01*
G75*
G02*
X44697820Y47384390I-90730J27020D01*
G01*
X47568550D01*
Y47430270D01*
G75*
G02*
Y47430280I13020J10D01*
G01*
G75*
G02*
X47583550Y47445270I15000J0D01*
G01*
X47658550D01*
G75*
G02*
X47673550Y47430280I0J-14990D01*
G01*
G75*
G02*
Y47430270I-13020J0D01*
G01*
Y47384390D01*
X48608480D01*
G75*
G02*
X48657620I24570J-144100D01*
G01*
X48882300D01*
Y47492270D01*
X47430550D01*
Y47437770D01*
G75*
G02*
Y47437760I-13020J0D01*
G01*
G75*
G02*
X47415550Y47422770I-15000J0D01*
G01*
X47340550D01*
G75*
G02*
X47325550Y47437760I0J14990D01*
G01*
G75*
G02*
Y47437770I13020J10D01*
G01*
Y47492270D01*
X44726180D01*
G75*
G02*
X44728760Y47484770I-88160J-34520D01*
G01*
X44668420D01*
G75*
G03*
X44665050Y47488140I-33210J-29840D01*
G01*
Y47492270D01*
X44611050D01*
Y47488140D01*
G75*
G03*
X44607680Y47484770I29840J-33210D01*
G01*
X44547340D01*
G75*
G02*
X44549920Y47492270I90740J-27020D01*
G01*
X43913690D01*
G75*
G02*
X43792410I-60640J0D01*
G01*
X42303700D01*
G37*
Y47562770D02*
G36*
X42303700Y47562770D02*
Y47492270D01*
X43792410D01*
G75*
G02*
X43913690I60640J0D01*
G01*
X44549920D01*
G75*
G02*
X44611050Y47548480I88150J-34520D01*
G01*
Y47492270D01*
X44665050D01*
Y47548480D01*
G75*
G02*
X44726180Y47492270I-27020J-90730D01*
G01*
X47325550D01*
Y47492770D01*
G75*
G02*
Y47492780I13020J10D01*
G01*
G75*
G02*
X47340550Y47507770I15000J0D01*
G01*
X47415550D01*
G75*
G02*
X47430550Y47492780I0J-14990D01*
G01*
G75*
G02*
Y47492770I-13020J0D01*
G01*
Y47492270D01*
X48882300D01*
Y47562770D01*
X47425550D01*
Y47540270D01*
G75*
G02*
Y47540260I-13020J0D01*
G01*
G75*
G02*
X47410550Y47525270I-15000J0D01*
G01*
X47335550D01*
G75*
G02*
X47320550Y47540260I0J14990D01*
G01*
G75*
G02*
Y47540270I13020J10D01*
G01*
Y47562770D01*
X46657240D01*
G75*
G02*
X46659010Y47555700I-13250J-7070D01*
G01*
G75*
G02*
X46654620Y47545090I-15010J0D01*
G01*
X46615730Y47506200D01*
G75*
G02*
X46594510I-10610J10630D01*
G01*
X46541480Y47559230D01*
G75*
G02*
X46538860Y47562770I10620J10600D01*
G01*
X42303700D01*
G37*
Y47633700D02*
G36*
X42303700Y47633700D02*
Y47562770D01*
X46538860D01*
G75*
G02*
X46537090Y47569840I13250J7070D01*
G01*
G75*
G02*
X46541480Y47580450I15010J0D01*
G01*
X46580370Y47619340D01*
G75*
G02*
X46601590I10610J-10630D01*
G01*
X46654620Y47566310D01*
G75*
G02*
X46657240Y47562770I-10620J-10600D01*
G01*
X47320550D01*
Y47595270D01*
G75*
G02*
Y47595280I13020J10D01*
G01*
G75*
G02*
X47335550Y47610270I15000J0D01*
G01*
X47410550D01*
G75*
G02*
X47425550Y47595280I0J-14990D01*
G01*
G75*
G02*
Y47595270I-13020J0D01*
G01*
Y47562770D01*
X48882300D01*
Y47633700D01*
X47673550D01*
Y47614770D01*
G75*
G02*
Y47614760I-13020J0D01*
G01*
G75*
G02*
X47658550Y47599770I-15000J0D01*
G01*
X47583550D01*
G75*
G02*
X47568550Y47614760I0J14990D01*
G01*
G75*
G02*
Y47614770I13020J10D01*
G01*
Y47633700D01*
X46715730D01*
X46705730Y47623700D01*
G75*
G02*
X46684510I-10610J10630D01*
G01*
X46674510Y47633700D01*
X46617500D01*
G75*
G02*
X46605550Y47627770I-11940J9060D01*
G01*
X46530550D01*
G75*
G02*
X46518600Y47633700I-10J14990D01*
G01*
X43299860D01*
G75*
G02*
X43223050Y47584130I-103810J76560D01*
G01*
Y47633700D01*
X43169050D01*
Y47584130D01*
G75*
G02*
X43092240Y47633700I27000J126130D01*
G01*
X42602290D01*
G75*
G02*
X42546050Y47615270I-56230J76550D01*
G01*
G75*
G02*
X42489810Y47633700I-10J94980D01*
G01*
X42303700D01*
G37*
Y47710270D02*
G36*
X42303700Y47710270D02*
Y47633700D01*
X42489810D01*
G75*
G02*
X42451050Y47710250I56220J76560D01*
G01*
G75*
G02*
Y47710270I127320J10D01*
G01*
X42303700D01*
G37*
X42641050Y47710250D02*
G36*
X42641050Y47710250D02*
G75*
G02*
X42602290Y47633700I-94980J10D01*
G01*
X43092240D01*
G75*
G02*
X43069910Y47683270I103820J76580D01*
G01*
X43126080D01*
G75*
G03*
X43169050Y47640300I69990J27020D01*
G01*
Y47633700D01*
X43223050D01*
Y47640300D01*
G75*
G03*
X43266020Y47683270I-27020J69990D01*
G01*
X43322190D01*
G75*
G02*
X43299860Y47633700I-126150J27010D01*
G01*
X46518600D01*
G75*
G02*
X46515550Y47642760I11940J9060D01*
G01*
G75*
G02*
Y47642770I13020J10D01*
G01*
Y47697770D01*
G75*
G02*
Y47697780I13020J10D01*
G01*
G75*
G02*
X46522250Y47710270I14990J0D01*
G01*
X42641050D01*
G75*
G02*
Y47710250I-127320J-10D01*
G01*
G37*
X46620550Y47697770D02*
G36*
X46620550Y47697770D02*
Y47642770D01*
G75*
G02*
Y47642760I-13020J0D01*
G01*
G75*
G02*
X46617500Y47633700I-14990J0D01*
G01*
X46674510D01*
X46631480Y47676730D01*
G75*
G02*
X46627090Y47687340I10620J10610D01*
G01*
G75*
G02*
X46631480Y47697950I15010J0D01*
G01*
X46643800Y47710270D01*
X46613850D01*
G75*
G02*
X46620550Y47697780I-8290J-12490D01*
G01*
G75*
G02*
Y47697770I-13020J0D01*
G01*
G37*
X46744620Y47662590D02*
G36*
X46744620Y47662590D02*
X46715730Y47633700D01*
X47568550D01*
Y47669770D01*
G75*
G02*
Y47669780I13020J10D01*
G01*
G75*
G02*
X47583550Y47684770I15000J0D01*
G01*
X47658550D01*
G75*
G02*
X47673550Y47669780I0J-14990D01*
G01*
G75*
G02*
Y47669770I-13020J0D01*
G01*
Y47633700D01*
X48882300D01*
Y47710270D01*
X47425550D01*
Y47672770D01*
G75*
G02*
Y47672760I-13020J0D01*
G01*
G75*
G02*
X47410550Y47657770I-15000J0D01*
G01*
X47335550D01*
G75*
G02*
X47320550Y47672760I0J14990D01*
G01*
G75*
G02*
Y47672770I13020J10D01*
G01*
Y47710270D01*
X46718160D01*
X46744620Y47683810D01*
G75*
G02*
X46749010Y47673200I-10620J-10610D01*
G01*
G75*
G02*
X46744620Y47662590I-15010J0D01*
G01*
G37*
X42303700Y47786840D02*
G36*
X42303700Y47786840D02*
Y47710270D01*
X42451050D01*
G75*
G02*
Y47710290I127320J10D01*
G01*
G75*
G02*
X42489810Y47786840I94980J-10D01*
G01*
X42303700D01*
G37*
X42641050Y47710290D02*
G36*
X42641050Y47710290D02*
G75*
G02*
Y47710270I-127320J-10D01*
G01*
X46522250D01*
G75*
G02*
X46530550Y47712770I8290J-12490D01*
G01*
X46605550D01*
G75*
G02*
X46613850Y47710270I10J-14990D01*
G01*
X46643800D01*
X46670370Y47736840D01*
G75*
G02*
X46691590I10610J-10630D01*
G01*
X46718160Y47710270D01*
X47320550D01*
Y47727770D01*
G75*
G02*
Y47727780I13020J10D01*
G01*
G75*
G02*
X47335550Y47742770I15000J0D01*
G01*
X47410550D01*
G75*
G02*
X47425550Y47727780I0J-14990D01*
G01*
G75*
G02*
Y47727770I-13020J0D01*
G01*
Y47710270D01*
X48882300D01*
Y47786840D01*
X46672610D01*
G75*
G02*
X46660550Y47780770I-12050J8920D01*
G01*
X46605550D01*
G75*
G02*
X46593490Y47786840I-10J14990D01*
G01*
X46530610D01*
G75*
G02*
X46518550Y47780770I-12050J8920D01*
G01*
X46463550D01*
G75*
G02*
X46451490Y47786840I-10J14990D01*
G01*
X44769750D01*
Y47751570D01*
X44577350D01*
Y47786840D01*
X44515750D01*
Y47751570D01*
X44323350D01*
Y47786840D01*
X44261750D01*
Y47751570D01*
X44069350D01*
Y47786840D01*
X43299860D01*
G75*
G02*
X43322190Y47737270I-103820J-76580D01*
G01*
X43266020D01*
G75*
G03*
X43223050Y47780240I-69990J-27020D01*
G01*
Y47786840D01*
X43169050D01*
Y47780240D01*
G75*
G03*
X43126080Y47737270I27020J-69990D01*
G01*
X43069910D01*
G75*
G02*
X43092240Y47786840I126150J-27010D01*
G01*
X42602290D01*
G75*
G02*
X42641050Y47710290I-56220J-76560D01*
G01*
G37*
X42303700Y48083700D02*
G36*
X42303700Y48083700D02*
Y47786840D01*
X42489810D01*
G75*
G02*
X42546050Y47805270I56230J-76550D01*
G01*
G75*
G02*
X42602290Y47786840I10J-94980D01*
G01*
X43092240D01*
G75*
G02*
X43169050Y47836410I103810J-76560D01*
G01*
Y47786840D01*
X43223050D01*
Y47836410D01*
G75*
G02*
X43299860Y47786840I-27000J-126130D01*
G01*
X44069350D01*
Y47943970D01*
X44261750D01*
Y47786840D01*
X44323350D01*
Y47943970D01*
X44515750D01*
Y47786840D01*
X44577350D01*
Y47943970D01*
X44769750D01*
Y47786840D01*
X46451490D01*
G75*
G02*
X46448550Y47795760I12050J8920D01*
G01*
G75*
G02*
Y47795770I13020J10D01*
G01*
Y47870770D01*
G75*
G02*
Y47870780I13020J10D01*
G01*
G75*
G02*
X46463550Y47885770I15000J0D01*
G01*
X46518550D01*
G75*
G02*
X46533550Y47870780I0J-14990D01*
G01*
G75*
G02*
Y47870770I-13020J0D01*
G01*
Y47795770D01*
G75*
G02*
Y47795760I-13020J0D01*
G01*
G75*
G02*
X46530610Y47786840I-14990J0D01*
G01*
X46593490D01*
G75*
G02*
X46590550Y47795760I12050J8920D01*
G01*
G75*
G02*
Y47795770I13020J10D01*
G01*
Y47870770D01*
G75*
G02*
Y47870780I13020J10D01*
G01*
G75*
G02*
X46605550Y47885770I15000J0D01*
G01*
X46660550D01*
G75*
G02*
X46675550Y47870780I0J-14990D01*
G01*
G75*
G02*
Y47870770I-13020J0D01*
G01*
Y47795770D01*
G75*
G02*
Y47795760I-13020J0D01*
G01*
G75*
G02*
X46672610Y47786840I-14990J0D01*
G01*
X48882300D01*
Y48083700D01*
X48739250D01*
Y48044070D01*
X48546850D01*
Y48083700D01*
X48485250D01*
Y48044070D01*
X48292850D01*
Y48083700D01*
X48231250D01*
Y48044070D01*
X48038850D01*
Y48083700D01*
X47977250D01*
Y48044070D01*
X47784850D01*
Y48083700D01*
X47723250D01*
Y48044070D01*
X47530850D01*
Y48083700D01*
X47469250D01*
Y48044070D01*
X47276850D01*
Y48083700D01*
X47215250D01*
Y48044070D01*
X47022850D01*
Y48083700D01*
X46961250D01*
Y48044070D01*
X46768850D01*
Y48083700D01*
X46552800D01*
Y48047800D01*
X46360400D01*
Y48083700D01*
X46298800D01*
Y48047800D01*
X46106400D01*
Y48083700D01*
X46044800D01*
Y48047800D01*
X45852400D01*
Y48083700D01*
X45790800D01*
Y48047800D01*
X45598400D01*
Y48083700D01*
X45536800D01*
Y48047800D01*
X45344400D01*
Y48083700D01*
X45282800D01*
Y48047800D01*
X45090400D01*
Y48083700D01*
X45062800D01*
Y48013800D01*
X44959600D01*
Y48067800D01*
X45008800D01*
Y48083700D01*
X44856400D01*
Y48067800D01*
X44905600D01*
Y48013800D01*
X44802400D01*
Y48083700D01*
X44774800D01*
Y48047800D01*
X44582400D01*
Y48083700D01*
X44520800D01*
Y48047800D01*
X44328400D01*
Y48083700D01*
X44266800D01*
Y48047800D01*
X44074400D01*
Y48083700D01*
X43789110D01*
G75*
G02*
X43794250Y48045270I-141070J-38430D01*
G01*
G75*
G02*
X43501850I-146200J0D01*
G01*
G75*
G02*
X43506990Y48083700I146210J0D01*
G01*
X43299860D01*
G75*
G02*
X43223050Y48034130I-103810J76560D01*
G01*
Y48083700D01*
X43169050D01*
Y48034130D01*
G75*
G02*
X43092240Y48083700I27000J126130D01*
G01*
X42602290D01*
G75*
G02*
X42546050Y48065270I-56230J76550D01*
G01*
G75*
G02*
X42489810Y48083700I-10J94980D01*
G01*
X42303700D01*
G37*
Y48160270D02*
G36*
X42303700Y48160270D02*
Y48083700D01*
X42489810D01*
G75*
G02*
X42451050Y48160250I56220J76560D01*
G01*
G75*
G02*
Y48160270I127320J10D01*
G01*
X42303700D01*
G37*
X42641050Y48160250D02*
G36*
X42641050Y48160250D02*
G75*
G02*
X42602290Y48083700I-94980J10D01*
G01*
X43092240D01*
G75*
G02*
X43069910Y48133270I103820J76580D01*
G01*
X43126080D01*
G75*
G03*
X43169050Y48090300I69990J27020D01*
G01*
Y48083700D01*
X43223050D01*
Y48090300D01*
G75*
G03*
X43266020Y48133270I-27020J69990D01*
G01*
X43322190D01*
G75*
G02*
X43299860Y48083700I-126150J27010D01*
G01*
X43506990D01*
G75*
G02*
X43557780Y48160270I141060J-38440D01*
G01*
X42641050D01*
G75*
G02*
Y48160250I-127320J-10D01*
G01*
G37*
X43738320Y48160270D02*
G36*
X43738320Y48160270D02*
G75*
G02*
X43789110Y48083700I-90270J-115010D01*
G01*
X44074400D01*
Y48160270D01*
X43738320D01*
G37*
X44266800D02*
G36*
X44266800Y48160270D02*
Y48083700D01*
X44328400D01*
Y48160270D01*
X44266800D01*
G37*
X44520800D02*
G36*
X44520800Y48160270D02*
Y48083700D01*
X44582400D01*
Y48160270D01*
X44520800D01*
G37*
X44774800D02*
G36*
X44774800Y48160270D02*
Y48083700D01*
X44802400D01*
Y48117000D01*
X44856400D01*
Y48083700D01*
X45008800D01*
Y48117000D01*
X45062800D01*
Y48083700D01*
X45090400D01*
Y48160270D01*
X44774800D01*
G37*
X45282800D02*
G36*
X45282800Y48160270D02*
Y48083700D01*
X45344400D01*
Y48160270D01*
X45282800D01*
G37*
X45536800D02*
G36*
X45536800Y48160270D02*
Y48083700D01*
X45598400D01*
Y48160270D01*
X45536800D01*
G37*
X45790800D02*
G36*
X45790800Y48160270D02*
Y48083700D01*
X45852400D01*
Y48160270D01*
X45790800D01*
G37*
X46044800D02*
G36*
X46044800Y48160270D02*
Y48083700D01*
X46106400D01*
Y48160270D01*
X46044800D01*
G37*
X46298800D02*
G36*
X46298800Y48160270D02*
Y48083700D01*
X46360400D01*
Y48160270D01*
X46298800D01*
G37*
X46552800D02*
G36*
X46552800Y48160270D02*
Y48083700D01*
X46768850D01*
Y48160270D01*
X46552800D01*
G37*
X46961250D02*
G36*
X46961250Y48160270D02*
Y48083700D01*
X47022850D01*
Y48160270D01*
X46961250D01*
G37*
X47215250D02*
G36*
X47215250Y48160270D02*
Y48083700D01*
X47276850D01*
Y48160270D01*
X47215250D01*
G37*
X47469250D02*
G36*
X47469250Y48160270D02*
Y48083700D01*
X47530850D01*
Y48160270D01*
X47469250D01*
G37*
X47723250D02*
G36*
X47723250Y48160270D02*
Y48083700D01*
X47784850D01*
Y48160270D01*
X47723250D01*
G37*
X47977250D02*
G36*
X47977250Y48160270D02*
Y48083700D01*
X48038850D01*
Y48160270D01*
X47977250D01*
G37*
X48231250D02*
G36*
X48231250Y48160270D02*
Y48083700D01*
X48292850D01*
Y48160270D01*
X48231250D01*
G37*
X48485250D02*
G36*
X48485250Y48160270D02*
Y48083700D01*
X48546850D01*
Y48160270D01*
X48485250D01*
G37*
X48739250D02*
G36*
X48739250Y48160270D02*
Y48083700D01*
X48882300D01*
Y48160270D01*
X48739250D01*
G37*
X42303700Y48236840D02*
G36*
X42303700Y48236840D02*
Y48160270D01*
X42451050D01*
G75*
G02*
Y48160290I127320J10D01*
G01*
G75*
G02*
X42489810Y48236840I94980J-10D01*
G01*
X42303700D01*
G37*
X42641050Y48160290D02*
G36*
X42641050Y48160290D02*
G75*
G02*
Y48160270I-127320J-10D01*
G01*
X43557780D01*
G75*
G02*
X43738320I90270J-115000D01*
G01*
X44074400D01*
Y48236840D01*
X43299860D01*
G75*
G02*
X43322190Y48187270I-103820J-76580D01*
G01*
X43266020D01*
G75*
G03*
X43223050Y48230240I-69990J-27020D01*
G01*
Y48236840D01*
X43169050D01*
Y48230240D01*
G75*
G03*
X43126080Y48187270I27020J-69990D01*
G01*
X43069910D01*
G75*
G02*
X43092240Y48236840I126150J-27010D01*
G01*
X42602290D01*
G75*
G02*
X42641050Y48160290I-56220J-76560D01*
G01*
G37*
X44266800Y48236840D02*
G36*
X44266800Y48236840D02*
Y48160270D01*
X44328400D01*
Y48236840D01*
X44266800D01*
G37*
X44520800D02*
G36*
X44520800Y48236840D02*
Y48160270D01*
X44582400D01*
Y48236840D01*
X44520800D01*
G37*
X44774800D02*
G36*
X44774800Y48236840D02*
Y48160270D01*
X45090400D01*
Y48236840D01*
X45062800D01*
Y48171000D01*
X45008800D01*
Y48220200D01*
X44959600D01*
Y48236840D01*
X44905600D01*
Y48220200D01*
X44856400D01*
Y48171000D01*
X44802400D01*
Y48236840D01*
X44774800D01*
G37*
X45282800D02*
G36*
X45282800Y48236840D02*
Y48160270D01*
X45344400D01*
Y48236840D01*
X45282800D01*
G37*
X45536800D02*
G36*
X45536800Y48236840D02*
Y48160270D01*
X45598400D01*
Y48236840D01*
X45536800D01*
G37*
X45790800D02*
G36*
X45790800Y48236840D02*
Y48160270D01*
X45852400D01*
Y48236840D01*
X45790800D01*
G37*
X46044800D02*
G36*
X46044800Y48236840D02*
Y48160270D01*
X46106400D01*
Y48236840D01*
X46044800D01*
G37*
X46298800D02*
G36*
X46298800Y48236840D02*
Y48160270D01*
X46360400D01*
Y48236840D01*
X46298800D01*
G37*
X46552800D02*
G36*
X46552800Y48236840D02*
Y48160270D01*
X46768850D01*
Y48236470D01*
X46961250D01*
Y48160270D01*
X47022850D01*
Y48236470D01*
X47215250D01*
Y48160270D01*
X47276850D01*
Y48236470D01*
X47469250D01*
Y48160270D01*
X47530850D01*
Y48236470D01*
X47723250D01*
Y48160270D01*
X47784850D01*
Y48236470D01*
X47977250D01*
Y48160270D01*
X48038850D01*
Y48236470D01*
X48231250D01*
Y48160270D01*
X48292850D01*
Y48236470D01*
X48485250D01*
Y48160270D01*
X48546850D01*
Y48236470D01*
X48739250D01*
Y48160270D01*
X48882300D01*
Y48236840D01*
X46552800D01*
G37*
X42303700Y48287000D02*
G36*
X42303700Y48287000D02*
Y48236840D01*
X42489810D01*
G75*
G02*
X42546050Y48255270I56230J-76550D01*
G01*
G75*
G02*
X42602290Y48236840I10J-94980D01*
G01*
X43092240D01*
G75*
G02*
X43169050Y48286410I103810J-76560D01*
G01*
Y48236840D01*
X43223050D01*
Y48286410D01*
G75*
G02*
X43299860Y48236840I-27000J-126130D01*
G01*
X44074400D01*
Y48240200D01*
X44266800D01*
Y48236840D01*
X44328400D01*
Y48240200D01*
X44520800D01*
Y48236840D01*
X44582400D01*
Y48240200D01*
X44774800D01*
Y48236840D01*
X44802400D01*
Y48274200D01*
X44905600D01*
Y48236840D01*
X44959600D01*
Y48274200D01*
X45062800D01*
Y48236840D01*
X45090400D01*
Y48240200D01*
X45282800D01*
Y48236840D01*
X45344400D01*
Y48240200D01*
X45536800D01*
Y48236840D01*
X45598400D01*
Y48240200D01*
X45790800D01*
Y48236840D01*
X45852400D01*
Y48240200D01*
X46044800D01*
Y48236840D01*
X46106400D01*
Y48240200D01*
X46298800D01*
Y48236840D01*
X46360400D01*
Y48240200D01*
X46552800D01*
Y48236840D01*
X48882300D01*
Y48254740D01*
X48762740Y48374300D01*
X42391000D01*
G75*
G03*
X42303700Y48287000I0J-87300D01*
G01*
G37*
X0Y0D02*
M02*
