G04 DesignSpark PCB Gerber Version 12.0 Build 5942*
%FSLAX35Y35*%
%MOMM*%
%AMT25*0 Rounded Rectangle Pad at angle 0*4,1,32,-0.07500,-0.32500,0.07500,-0.32500,0.10840,-0.32120,0.14010,-0.31010,0.16850,-0.29220,0.19220,-0.26850,0.21010,-0.24010,0.22120,-0.20840,0.22500,-0.17500,0.22500,0.17500,0.22120,0.20840,0.21010,0.24010,0.19220,0.26850,0.16850,0.29220,0.14010,0.31010,0.10840,0.32120,0.07500,0.32500,-0.07500,0.32500,-0.10840,0.32120,-0.14010,0.31010,-0.16850,0.29220,-0.19220,0.26850,-0.21010,0.24010,-0.22120,0.20840,-0.22500,0.17500,-0.22500,-0.17500,-0.22120,-0.20840,-0.21010,-0.24010,-0.19220,-0.26850,-0.16850,-0.29220,-0.14010,-0.31010,-0.10840,-0.32120,-0.07500,-0.32500,0*%
%ADD25T25*%
%AMT28*0 Rounded Rectangle Pad at angle 0*4,1,20,-0.90000,-2.30000,0.90000,-2.30000,0.91910,-2.29620,0.93530,-2.28540,0.94620,-2.26920,0.95000,-2.25000,0.95000,2.25000,0.94620,2.26910,0.93540,2.28530,0.91920,2.29620,0.90000,2.30000,-0.90000,2.30000,-0.91910,2.29620,-0.93530,2.28540,-0.94620,2.26920,-0.95000,2.25000,-0.95000,-2.25000,-0.94620,-2.26910,-0.93540,-2.28530,-0.91920,-2.29620,-0.90000,-2.30000,0*%
%ADD28T28*%
%ADD76R,1.52400X1.52400*%
%ADD71C,0.20320*%
%ADD10C,0.25400*%
%ADD21C,0.38100*%
%ADD22C,0.81280*%
%AMT27*0 Rounded Rectangle Pad at angle 45*4,1,32,0.17680,-0.28280,0.28280,-0.17680,0.30370,-0.15050,0.31830,-0.12020,0.32580,-0.08750,0.32580,-0.05390,0.31830,-0.02110,0.30370,0.00920,0.28280,0.03540,0.03540,0.28280,0.00910,0.30370,-0.02120,0.31830,-0.05390,0.32580,-0.08750,0.32580,-0.12030,0.31830,-0.15060,0.30370,-0.17680,0.28280,-0.28280,0.17680,-0.30370,0.15050,-0.31830,0.12020,-0.32580,0.08750,-0.32580,0.05390,-0.31830,0.02110,-0.30370,-0.00920,-0.28280,-0.03540,-0.03540,-0.28280,-0.00910,-0.30370,0.02120,-0.31830,0.05390,-0.32580,0.08750,-0.32580,0.12030,-0.31830,0.15060,-0.30370,0.17680,-0.28280,0*%
%ADD27T27*%
%AMT24*0 Rounded Rectangle Pad at angle 90*4,1,32,0.32500,-0.07500,0.32500,0.07500,0.32120,0.10840,0.31010,0.14010,0.29220,0.16850,0.26850,0.19220,0.24010,0.21010,0.20840,0.22120,0.17500,0.22500,-0.17500,0.22500,-0.20840,0.22120,-0.24010,0.21010,-0.26850,0.19220,-0.29220,0.16850,-0.31010,0.14010,-0.32120,0.10840,-0.32500,0.07500,-0.32500,-0.07500,-0.32120,-0.10840,-0.31010,-0.14010,-0.29220,-0.16850,-0.26850,-0.19220,-0.24010,-0.21010,-0.20840,-0.22120,-0.17500,-0.22500,0.17500,-0.22500,0.20840,-0.22120,0.24010,-0.21010,0.26850,-0.19220,0.29220,-0.16850,0.31010,-0.14010,0.32120,-0.10840,0.32500,-0.07500,0*%
%ADD24T24*%
%AMT26*0 Rounded Rectangle Pad at angle 135*4,1,32,0.28280,0.17680,0.17680,0.28280,0.15050,0.30370,0.12020,0.31830,0.08750,0.32580,0.05390,0.32580,0.02110,0.31830,-0.00920,0.30370,-0.03540,0.28280,-0.28280,0.03540,-0.30370,0.00910,-0.31830,-0.02120,-0.32580,-0.05390,-0.32580,-0.08750,-0.31830,-0.12030,-0.30370,-0.15060,-0.28280,-0.17680,-0.17680,-0.28280,-0.15050,-0.30370,-0.12020,-0.31830,-0.08750,-0.32580,-0.05390,-0.32580,-0.02110,-0.31830,0.00920,-0.30370,0.03540,-0.28280,0.28280,-0.03540,0.30370,-0.00910,0.31830,0.02120,0.32580,0.05390,0.32580,0.08750,0.31830,0.12030,0.30370,0.15060,0.28280,0.17680,0*%
%ADD26T26*%
%AMT29*0 Rounded Rectangle Pad at angle 90*4,1,20,2.30000,-0.90000,2.30000,0.90000,2.29620,0.91910,2.28540,0.93530,2.26920,0.94620,2.25000,0.95000,-2.25000,0.95000,-2.26910,0.94620,-2.28530,0.93540,-2.29620,0.91920,-2.30000,0.90000,-2.30000,-0.90000,-2.29620,-0.91910,-2.28540,-0.93530,-2.26920,-0.94620,-2.25000,-0.95000,2.25000,-0.95000,2.26910,-0.94620,2.28530,-0.93540,2.29620,-0.91920,2.30000,-0.90000,0*%
%ADD29T29*%
%ADD94C,1.50000*%
%ADD84C,1.60000*%
X0Y0D02*
D02*
D10*
X43975050Y45560270D02*
Y46337270D01*
X44010550Y46372770D01*
Y47540270D01*
X43965550Y47585270D01*
Y48215270D01*
G75*
G02*
X44030550Y48280270I65000J0D01*
G01*
X45214050D01*
X45215050Y48281270D01*
X45228050D01*
X44670550Y45035270D02*
X44658050D01*
G75*
G02*
X44598050Y45095270I0J60000D01*
G01*
Y45350270D01*
G75*
G03*
X44500550Y45447770I-97500J0D01*
G01*
X44217050D01*
G75*
G03*
X44177050Y45407770I0J-40000D01*
G01*
Y45402270D01*
X45186600Y48144000D02*
X45185550Y48255270D01*
Y48280270D01*
X45186600Y48281270D01*
X45228050D01*
X46541050D01*
X46601050Y48221270D01*
Y47859270D01*
X46627050Y47833270D01*
X46633050D01*
X45440600Y46077770D02*
X45773050D01*
X45840550Y46010270D01*
Y44790670D01*
X45795550Y44745670D01*
X45755550D01*
X45440600Y46331770D02*
X45781550D01*
X45895550Y46217770D01*
Y44707770D01*
X45848050Y44660270D01*
X45440600Y46585770D02*
X45732550D01*
X45948050Y46370270D01*
Y44617770D01*
X45975550Y44590270D01*
X46073050D01*
X45694600Y48144000D02*
Y48073720D01*
X45812050Y47956270D01*
X46267050D01*
X46477050Y47746270D01*
X46622050D01*
X46688050Y47680270D01*
X45823050Y44392770D02*
X45726350D01*
X45575150Y44543970D01*
Y44819070D01*
X45700150Y44944070D01*
Y45634370D01*
X45569250Y45765270D01*
X44919250D01*
X44822650Y45861870D01*
Y46987770D01*
X44928650Y47093770D01*
X45186600D01*
X45825550Y44510270D02*
X45737250D01*
X45665950Y44581570D01*
Y44781470D01*
X45790950Y44906470D01*
Y45678670D01*
X45606850Y45862770D01*
X44956850D01*
X44913450Y45906170D01*
Y46465270D01*
X45033950Y46585770D01*
X45186600D01*
X45930550Y44450270D02*
X45733050D01*
X45620550Y44562770D01*
Y44800270D01*
X45745550Y44925270D01*
Y45657770D01*
X45588050Y45815270D01*
X44938050D01*
X44868050Y45885270D01*
Y46770270D01*
X44937550Y46839770D01*
X45186600D01*
X46202600Y48144000D02*
Y48115720D01*
X46485050Y47833270D01*
X46491050D01*
X46460550Y45662770D02*
Y45667770D01*
X46428050Y45700270D01*
Y46420270D01*
X46568050Y47670270D02*
X46487050D01*
X46248050Y47909270D01*
X45560600D01*
X45440600Y48029270D01*
Y48144000D01*
X46598050Y47562770D02*
X46558050Y47602770D01*
X46483050D01*
X46230550Y47855270D01*
X45535550D01*
X45403050Y47987770D01*
X44469550D01*
X44419550Y47937770D01*
Y47847770D01*
X46875550Y44515270D02*
X47049950Y44689670D01*
Y47284670D01*
X47168050Y47402770D01*
X47621050D01*
X47128050Y44820270D02*
Y45132070D01*
X47265050Y45269070D01*
Y46170270D01*
X47265550Y46170770D01*
Y46422770D01*
X47115550Y46572770D01*
Y47097770D01*
X47188050Y44730270D02*
Y45113270D01*
X47315050Y45240270D01*
Y46122770D01*
X47315550Y46123270D01*
Y46445270D01*
X47178050Y46582770D01*
Y46977770D01*
X47248050Y44820270D02*
Y45096470D01*
X47383050Y45231470D01*
Y46465270D01*
X47240550Y46607770D01*
Y47095270D01*
X47338050Y45056270D02*
Y45113270D01*
X47433050Y45208270D01*
Y46490270D01*
X47298050Y46625270D01*
Y46977770D01*
X47361000Y43301000D02*
Y43485720D01*
X47415550Y43540270D01*
X47818050D01*
X47913050Y43635270D01*
Y45097040D01*
X47754820Y45255270D01*
Y45329270D01*
X47373050Y47567770D02*
X47177450D01*
X46953050Y47343370D01*
Y44748070D01*
X46637050Y44432070D01*
Y44170270D01*
X47373050Y47700270D02*
X47160550D01*
X46858050Y47397770D01*
Y44785670D01*
X46645150Y44572770D01*
X46603050D01*
X47378050Y47465270D02*
X47148050D01*
X47000550Y47317770D01*
Y44729270D01*
X46728050Y44456770D01*
Y44170270D01*
X47555550Y46212770D02*
X47608050D01*
X47663050Y46157770D01*
Y45895470D01*
X47535350Y45767770D01*
Y45154470D01*
X47450550Y45069670D01*
Y44967170D01*
X47360350Y44876970D01*
Y44682770D01*
X47328050Y44650470D01*
Y44575270D01*
X47555550Y46432770D02*
X47638050D01*
X47708050Y46362770D01*
X47555550Y46682770D02*
X47673050D01*
X47765550Y46590270D01*
Y45850270D01*
X47630550Y45715270D01*
Y45102770D01*
X47553050Y45025270D01*
Y44330270D01*
X47568050Y45932770D02*
Y45870870D01*
X47489950Y45792770D01*
Y45175370D01*
X47403050Y45088470D01*
Y44985970D01*
X47314950Y44897870D01*
Y44745270D01*
X47233050Y44663370D01*
Y44575270D01*
X47580750Y45747770D02*
Y45128570D01*
X47503050Y45050870D01*
Y44948370D01*
X47405750Y44851070D01*
Y44682770D01*
X47420550Y44667970D01*
Y44572770D01*
X47615000Y43301000D02*
X47634050D01*
Y43452770D01*
X47659050Y43477770D01*
X47837050D01*
X47968050Y43608770D01*
Y45114270D01*
X47869920Y45212400D01*
Y45329270D01*
X47621050Y47642270D02*
X47171850D01*
X46905550Y47375970D01*
Y44766870D01*
X46651450Y44512770D01*
X46278050D01*
X47869000Y43301000D02*
X47879050D01*
Y43441320D01*
X48015050Y43577320D01*
Y45135270D01*
X47980010Y45170310D01*
Y45329270D01*
X47985010D01*
X48123000Y43301000D02*
X48138000Y43484860D01*
X48063050Y43559810D01*
Y45180270D01*
X48092050Y45209270D01*
Y45329270D01*
X48135050Y48140270D02*
Y47798270D01*
X48097050Y47760270D01*
X47139450D01*
X46810550Y47431370D01*
Y44855270D01*
X46588050Y44632770D01*
X46280550D01*
Y44607770D01*
X48184050Y45030270D02*
Y44934270D01*
X48174050Y44924270D01*
Y43659270D01*
X48326050Y43507270D01*
X48518050D01*
X48646000Y43379320D01*
X48631000Y43301000D01*
X48377000D02*
X48391320D01*
X48115050Y43577270D01*
Y45086270D01*
X48185050Y45156270D01*
Y45155270D01*
X48184050D01*
X48389050Y48140270D02*
Y48220270D01*
X48344050Y48265270D01*
X48041050D01*
X48008050Y48232270D01*
Y47858770D01*
X47959550Y47810270D01*
X47120550D01*
X46760550Y47450270D01*
Y44887770D01*
X46603050Y44730270D01*
X48643050Y48140270D02*
Y48242270D01*
X48559050Y48326270D01*
X47792050D01*
X47758050Y48292270D01*
Y47897270D01*
X47721050Y47860270D01*
X47095300D01*
X46708050Y47473020D01*
Y44932770D01*
X46478050Y44702770D01*
X46280550D01*
X48942050Y46401270D02*
X48869050D01*
X48789050Y46321270D01*
Y45719270D01*
X48709050Y45639270D01*
X48641050D01*
X49048050Y44950270D02*
Y43582770D01*
X48808050Y43342770D01*
Y43200270D01*
G75*
G02*
X48748050Y43140270I-60000J0D01*
G01*
X46285550D01*
X46230550Y43195270D01*
Y43405270D01*
X46185550Y43450270D01*
X45640550D01*
X45598000Y43407720D01*
Y43301000D01*
D02*
D71*
X47708050Y46362770D02*
Y45875070D01*
X47580750Y45747770D01*
D02*
D21*
X42955050Y43958270D02*
Y43966270D01*
X42475050Y44446270D01*
Y45246270D01*
X42394050Y45327270D01*
Y45994270D01*
X42506050Y46106270D01*
X42878050D01*
X43070050Y45882270D02*
Y46142270D01*
X43320050Y46392270D01*
X43916050D01*
X43918050Y46394270D01*
Y46395270D01*
X43482050Y45597270D02*
X43802550D01*
X44148050Y45251770D01*
X44232050D01*
X43820550Y45247770D02*
X43600550D01*
X43820550D02*
X43992550D01*
X44148050Y45092270D01*
Y44314270D01*
X44303050Y44159270D01*
X44785050D01*
X45051050Y45675270D02*
Y44592270D01*
X44738050Y44279270D01*
X44415050D01*
X45344000Y43301000D02*
Y43388320D01*
X45282050Y43450270D01*
X44896050D01*
X44787050Y43559270D01*
Y44157270D01*
X44785050Y44159270D01*
X46106000Y43301000D02*
Y43205220D01*
X46032050Y43131270D01*
X45402000D01*
X45344000Y43189270D01*
Y43301000D01*
D02*
D22*
X43070050Y45882270D03*
X43853050Y47492270D03*
X43893050Y47281270D03*
X43927050Y46619270D03*
X43979050Y43778270D03*
X44355550Y44810970D03*
X44411050Y45549270D03*
X44415050Y44279270D03*
X44596050Y43778270D03*
X44638050Y47457770D03*
X44785050Y44159270D03*
X45051050Y45675270D03*
X45206050Y43778270D03*
X45563050Y44982770D03*
X47057050Y43791270D03*
X47175550Y46235270D03*
X48377050Y44806270D03*
X49048050Y44950270D03*
D02*
D24*
X42878050Y46106270D03*
X43482050Y45597270D03*
X43600550Y45247770D03*
X43820550D03*
X43918050Y46395270D03*
X43930550Y46862770D03*
X44232050Y45251770D03*
X44510550Y46795270D03*
Y46930270D03*
X45640550Y46705270D03*
X45755550Y44745670D03*
X45823050Y44392770D03*
X45825550Y44510270D03*
X45930550Y44450270D03*
X46055550Y46122270D03*
X46073050Y44590270D03*
X46278050Y44512770D03*
Y44980270D03*
X46280550Y44607770D03*
Y44702770D03*
X46283050Y45115270D03*
Y45200270D03*
X46428050Y46420270D03*
X46460550Y45662770D03*
X46508050Y45850270D03*
X46568050Y47670270D03*
X46598050Y44931270D03*
Y45081070D03*
Y45181270D03*
X46603050Y44572770D03*
X47134050Y45245270D03*
X47137050Y45337770D03*
X47373050Y47567770D03*
Y47700270D03*
X47378050Y47465270D03*
X47621050Y47402770D03*
Y47642270D03*
X47754820Y44818270D03*
Y44895270D03*
Y45329270D03*
X47869920D03*
X47985010D03*
X48092050D03*
X48184050Y45030270D03*
Y45155270D03*
D02*
D25*
X43975050Y45560270D03*
X44177050Y45402270D03*
X44275050Y45353270D03*
X44670550Y45035270D03*
X45848050Y44660270D03*
X46491050Y47833270D03*
X46633050D03*
X46637050Y44170270D03*
X46728050D03*
X46872480D03*
X46965050D03*
X47113050Y45662770D03*
X47115550Y47097770D03*
X47118050Y45865270D03*
X47128050Y44820270D03*
X47137050Y44486270D03*
X47178050Y46977770D03*
X47188050Y44730270D03*
X47208050Y45630270D03*
X47233050Y44575270D03*
X47240550Y47095270D03*
X47248050Y44820270D03*
X47298050Y46977770D03*
X47328050Y44575270D03*
X47338050Y45056270D03*
X47420550Y44572770D03*
X47553050Y44330270D03*
X47555550Y46212770D03*
Y46432770D03*
Y46682770D03*
X47568050Y45932770D03*
D02*
D26*
X46603050Y44730270D03*
X46875550Y44515270D03*
D02*
D27*
X46598050Y47562770D03*
X46688050Y47680270D03*
D02*
D28*
X42655050Y43488270D03*
X43275050D03*
D02*
D29*
X42955050Y43958270D03*
D02*
D76*
X44165550Y47847770D03*
X44170600Y48144000D03*
X44419550Y47847770D03*
X44424600Y48144000D03*
X44673550Y47847770D03*
X44678600Y48144000D03*
X44932600D03*
X45090000Y43301000D03*
X45186600Y46077770D03*
Y46331770D03*
Y46585770D03*
Y46839770D03*
Y47093770D03*
Y48144000D03*
X45344000Y43301000D03*
X45440600Y46077770D03*
Y46331770D03*
Y46585770D03*
Y46839770D03*
Y47093770D03*
Y48144000D03*
X45598000Y43301000D03*
X45694600Y48144000D03*
X45852000Y43301000D03*
X45948600Y48144000D03*
X46106000Y43301000D03*
X46202600Y48144000D03*
X46360000Y43301000D03*
X46456600Y48144000D03*
X46614000Y43301000D03*
X46865050Y48140270D03*
X46868000Y43301000D03*
X47119050Y48140270D03*
X47361000Y43301000D03*
X47373050Y48140270D03*
X47615000Y43301000D03*
X47627050Y48140270D03*
X47869000Y43301000D03*
X47881050Y48140270D03*
X48123000Y43301000D03*
X48135050Y48140270D03*
X48377000Y43301000D03*
X48389050Y48140270D03*
X48631000Y43301000D03*
X48641050Y45639270D03*
Y45893270D03*
Y46147270D03*
Y46401270D03*
Y46655270D03*
X48643050Y48140270D03*
X48942050Y45639270D03*
Y45893270D03*
Y46147270D03*
Y46401270D03*
Y46655270D03*
D02*
D84*
X42725550Y46460270D03*
Y47305270D03*
X42900550Y46460270D03*
Y47305270D03*
X43070550Y46522770D03*
Y47242770D03*
D02*
D94*
X42546050Y47710270D03*
Y48160270D03*
X43196050Y47710270D03*
Y48160270D03*
X0Y0D02*
M02*
