G04 DesignSpark PCB Gerber Version 12.0 Build 5942*
%FSLAX35Y35*%
%MOMM*%
%AMT25*0 Rounded Rectangle Pad at angle 0*4,1,32,-0.07500,-0.32500,0.07500,-0.32500,0.10840,-0.32120,0.14010,-0.31010,0.16850,-0.29220,0.19220,-0.26850,0.21010,-0.24010,0.22120,-0.20840,0.22500,-0.17500,0.22500,0.17500,0.22120,0.20840,0.21010,0.24010,0.19220,0.26850,0.16850,0.29220,0.14010,0.31010,0.10840,0.32120,0.07500,0.32500,-0.07500,0.32500,-0.10840,0.32120,-0.14010,0.31010,-0.16850,0.29220,-0.19220,0.26850,-0.21010,0.24010,-0.22120,0.20840,-0.22500,0.17500,-0.22500,-0.17500,-0.22120,-0.20840,-0.21010,-0.24010,-0.19220,-0.26850,-0.16850,-0.29220,-0.14010,-0.31010,-0.10840,-0.32120,-0.07500,-0.32500,0*%
%ADD25T25*%
%AMT28*0 Rounded Rectangle Pad at angle 0*4,1,20,-0.90000,-2.30000,0.90000,-2.30000,0.91910,-2.29620,0.93530,-2.28540,0.94620,-2.26920,0.95000,-2.25000,0.95000,2.25000,0.94620,2.26910,0.93540,2.28530,0.91920,2.29620,0.90000,2.30000,-0.90000,2.30000,-0.91910,2.29620,-0.93530,2.28540,-0.94620,2.26920,-0.95000,2.25000,-0.95000,-2.25000,-0.94620,-2.26910,-0.93540,-2.28530,-0.91920,-2.29620,-0.90000,-2.30000,0*%
%ADD28T28*%
%ADD76R,1.52400X1.52400*%
%ADD140C,0.00001*%
%ADD10C,0.25400*%
%ADD22C,0.81280*%
%AMT27*0 Rounded Rectangle Pad at angle 45*4,1,32,0.17680,-0.28280,0.28280,-0.17680,0.30370,-0.15050,0.31830,-0.12020,0.32580,-0.08750,0.32580,-0.05390,0.31830,-0.02110,0.30370,0.00920,0.28280,0.03540,0.03540,0.28280,0.00910,0.30370,-0.02120,0.31830,-0.05390,0.32580,-0.08750,0.32580,-0.12030,0.31830,-0.15060,0.30370,-0.17680,0.28280,-0.28280,0.17680,-0.30370,0.15050,-0.31830,0.12020,-0.32580,0.08750,-0.32580,0.05390,-0.31830,0.02110,-0.30370,-0.00920,-0.28280,-0.03540,-0.03540,-0.28280,-0.00910,-0.30370,0.02120,-0.31830,0.05390,-0.32580,0.08750,-0.32580,0.12030,-0.31830,0.15060,-0.30370,0.17680,-0.28280,0*%
%ADD27T27*%
%AMT24*0 Rounded Rectangle Pad at angle 90*4,1,32,0.32500,-0.07500,0.32500,0.07500,0.32120,0.10840,0.31010,0.14010,0.29220,0.16850,0.26850,0.19220,0.24010,0.21010,0.20840,0.22120,0.17500,0.22500,-0.17500,0.22500,-0.20840,0.22120,-0.24010,0.21010,-0.26850,0.19220,-0.29220,0.16850,-0.31010,0.14010,-0.32120,0.10840,-0.32500,0.07500,-0.32500,-0.07500,-0.32120,-0.10840,-0.31010,-0.14010,-0.29220,-0.16850,-0.26850,-0.19220,-0.24010,-0.21010,-0.20840,-0.22120,-0.17500,-0.22500,0.17500,-0.22500,0.20840,-0.22120,0.24010,-0.21010,0.26850,-0.19220,0.29220,-0.16850,0.31010,-0.14010,0.32120,-0.10840,0.32500,-0.07500,0*%
%ADD24T24*%
%AMT26*0 Rounded Rectangle Pad at angle 135*4,1,32,0.28280,0.17680,0.17680,0.28280,0.15050,0.30370,0.12020,0.31830,0.08750,0.32580,0.05390,0.32580,0.02110,0.31830,-0.00920,0.30370,-0.03540,0.28280,-0.28280,0.03540,-0.30370,0.00910,-0.31830,-0.02120,-0.32580,-0.05390,-0.32580,-0.08750,-0.31830,-0.12030,-0.30370,-0.15060,-0.28280,-0.17680,-0.17680,-0.28280,-0.15050,-0.30370,-0.12020,-0.31830,-0.08750,-0.32580,-0.05390,-0.32580,-0.02110,-0.31830,0.00920,-0.30370,0.03540,-0.28280,0.28280,-0.03540,0.30370,-0.00910,0.31830,0.02120,0.32580,0.05390,0.32580,0.08750,0.31830,0.12030,0.30370,0.15060,0.28280,0.17680,0*%
%ADD26T26*%
%AMT29*0 Rounded Rectangle Pad at angle 90*4,1,20,2.30000,-0.90000,2.30000,0.90000,2.29620,0.91910,2.28540,0.93530,2.26920,0.94620,2.25000,0.95000,-2.25000,0.95000,-2.26910,0.94620,-2.28530,0.93540,-2.29620,0.91920,-2.30000,0.90000,-2.30000,-0.90000,-2.29620,-0.91910,-2.28540,-0.93530,-2.26920,-0.94620,-2.25000,-0.95000,2.25000,-0.95000,2.26910,-0.94620,2.28530,-0.93540,2.29620,-0.91920,2.30000,-0.90000,0*%
%ADD29T29*%
%ADD94C,1.50000*%
%ADD84C,1.60000*%
X0Y0D02*
D02*
D10*
X45440600Y46839770D02*
Y46815270D01*
X47113050Y45662770D02*
X47020550D01*
X46920550Y45762770D01*
Y46542770D01*
X46695550Y46767770D01*
X45600550D01*
X45553050Y46720270D01*
X45088050D01*
X45035550Y46667770D01*
Y46137770D01*
X45095550Y46077770D01*
X45186600D01*
X47137050Y45337770D02*
X47118050D01*
Y45392770D01*
X46870550Y45640270D01*
Y46520270D01*
X46685550Y46705270D01*
X45640550D01*
X47208050Y45630270D02*
Y45677770D01*
X47153050Y45732770D01*
X47020550D01*
X46968050Y45785270D01*
Y46572770D01*
X46720550Y46820270D01*
X45467600D01*
X45448100Y46839770D01*
X45440600D01*
D02*
D22*
X43070050Y45882270D03*
X43853050Y47492270D03*
X43893050Y47281270D03*
X43927050Y46619270D03*
X43979050Y43778270D03*
X44355550Y44810970D03*
X44411050Y45549270D03*
X44415050Y44279270D03*
X44596050Y43778270D03*
X44638050Y47457770D03*
X44785050Y44159270D03*
X45051050Y45675270D03*
X45206050Y43778270D03*
X45563050Y44982770D03*
X47057050Y43791270D03*
X47175550Y46235270D03*
X48377050Y44806270D03*
X49048050Y44950270D03*
D02*
D24*
X42878050Y46106270D03*
X43482050Y45597270D03*
X43600550Y45247770D03*
X43820550D03*
X43918050Y46395270D03*
X43930550Y46862770D03*
X44232050Y45251770D03*
X44510550Y46795270D03*
Y46930270D03*
X45640550Y46705270D03*
X45755550Y44745670D03*
X45823050Y44392770D03*
X45825550Y44510270D03*
X45930550Y44450270D03*
X46055550Y46122270D03*
X46073050Y44590270D03*
X46278050Y44512770D03*
Y44980270D03*
X46280550Y44607770D03*
Y44702770D03*
X46283050Y45115270D03*
Y45200270D03*
X46428050Y46420270D03*
X46460550Y45662770D03*
X46508050Y45850270D03*
X46568050Y47670270D03*
X46598050Y44931270D03*
Y45081070D03*
Y45181270D03*
X46603050Y44572770D03*
X47134050Y45245270D03*
X47137050Y45337770D03*
X47373050Y47567770D03*
Y47700270D03*
X47378050Y47465270D03*
X47621050Y47402770D03*
Y47642270D03*
X47754820Y44818270D03*
Y44895270D03*
Y45329270D03*
X47869920D03*
X47985010D03*
X48092050D03*
X48184050Y45030270D03*
Y45155270D03*
D02*
D25*
X43975050Y45560270D03*
X44177050Y45402270D03*
X44275050Y45353270D03*
X44670550Y45035270D03*
X45848050Y44660270D03*
X46491050Y47833270D03*
X46633050D03*
X46637050Y44170270D03*
X46728050D03*
X46872480D03*
X46965050D03*
X47113050Y45662770D03*
X47115550Y47097770D03*
X47118050Y45865270D03*
X47128050Y44820270D03*
X47137050Y44486270D03*
X47178050Y46977770D03*
X47188050Y44730270D03*
X47208050Y45630270D03*
X47233050Y44575270D03*
X47240550Y47095270D03*
X47248050Y44820270D03*
X47298050Y46977770D03*
X47328050Y44575270D03*
X47338050Y45056270D03*
X47420550Y44572770D03*
X47553050Y44330270D03*
X47555550Y46212770D03*
Y46432770D03*
Y46682770D03*
X47568050Y45932770D03*
D02*
D26*
X46603050Y44730270D03*
X46875550Y44515270D03*
D02*
D27*
X46598050Y47562770D03*
X46688050Y47680270D03*
D02*
D28*
X42655050Y43488270D03*
X43275050D03*
D02*
D29*
X42955050Y43958270D03*
D02*
D76*
X44165550Y47847770D03*
X44170600Y48144000D03*
X44419550Y47847770D03*
X44424600Y48144000D03*
X44673550Y47847770D03*
X44678600Y48144000D03*
X44932600D03*
X45090000Y43301000D03*
X45186600Y46077770D03*
Y46331770D03*
Y46585770D03*
Y46839770D03*
Y47093770D03*
Y48144000D03*
X45344000Y43301000D03*
X45440600Y46077770D03*
Y46331770D03*
Y46585770D03*
Y46839770D03*
Y47093770D03*
Y48144000D03*
X45598000Y43301000D03*
X45694600Y48144000D03*
X45852000Y43301000D03*
X45948600Y48144000D03*
X46106000Y43301000D03*
X46202600Y48144000D03*
X46360000Y43301000D03*
X46456600Y48144000D03*
X46614000Y43301000D03*
X46865050Y48140270D03*
X46868000Y43301000D03*
X47119050Y48140270D03*
X47361000Y43301000D03*
X47373050Y48140270D03*
X47615000Y43301000D03*
X47627050Y48140270D03*
X47869000Y43301000D03*
X47881050Y48140270D03*
X48123000Y43301000D03*
X48135050Y48140270D03*
X48377000Y43301000D03*
X48389050Y48140270D03*
X48631000Y43301000D03*
X48641050Y45639270D03*
Y45893270D03*
Y46147270D03*
Y46401270D03*
Y46655270D03*
X48643050Y48140270D03*
X48942050Y45639270D03*
Y45893270D03*
Y46147270D03*
Y46401270D03*
Y46655270D03*
D02*
D84*
X42725550Y46460270D03*
Y47305270D03*
X42900550Y46460270D03*
Y47305270D03*
X43070550Y46522770D03*
Y47242770D03*
D02*
D94*
X42546050Y47710270D03*
Y48160270D03*
X43196050Y47710270D03*
Y48160270D03*
D02*
D140*
X42303700Y48287000D02*
Y43153000D01*
G75*
G03*
X42391000Y43065700I87300J0D01*
G01*
X48795000D01*
G75*
G03*
X48882300Y43153000I0J87300D01*
G01*
Y43307000D01*
G75*
G02*
X48886020Y43315980I12700J0D01*
G01*
X49136300Y43566260D01*
Y46857740D01*
X48886020Y47108020D01*
G75*
G02*
X48882300Y47117000I8980J8980D01*
G01*
Y48254740D01*
X48762740Y48374300D01*
X42391000D01*
G75*
G03*
X42303700Y48287000I0J-87300D01*
G01*
X48954750Y46579070D02*
X49018250D01*
Y46642570D01*
X49038250D01*
Y46559070D01*
X48954750D01*
Y46579070D01*
Y46751470D02*
X49038250D01*
Y46667970D01*
X49018250D01*
Y46731470D01*
X48954750D01*
Y46751470D01*
X48845850Y45735470D02*
X49038250D01*
Y45543070D01*
X48845850D01*
Y45735470D01*
X48987410Y44950270D02*
G75*
G02*
X49108690I60640J0D01*
G01*
G75*
G02*
X48987410I-60640J0D01*
G01*
X48845850Y45989470D02*
X49038250D01*
Y45797070D01*
X48845850D01*
Y45989470D01*
Y46243470D02*
X49038250D01*
Y46051070D01*
X48845850D01*
Y46243470D01*
Y46497470D02*
X49038250D01*
Y46305070D01*
X48845850D01*
Y46497470D01*
Y46642570D02*
X48865850D01*
Y46579070D01*
X48929350D01*
Y46559070D01*
X48845850D01*
Y46642570D01*
Y46751470D02*
X48929350D01*
Y46731470D01*
X48865850D01*
Y46667970D01*
X48845850D01*
Y46751470D01*
X42546050Y47805270D02*
G75*
G02*
X42641050Y47710270I0J-95000D01*
G01*
G75*
G02*
X42546050Y47615270I-95000J0D01*
G01*
G75*
G02*
X42451050Y47710270I0J95000D01*
G01*
G75*
G02*
X42546050Y47805270I95000J0D01*
G01*
X42625550Y46460270D02*
G75*
G02*
X42813050Y46508680I100000J0D01*
G01*
G75*
G02*
X42970920Y46531320I87500J-48410D01*
G01*
G75*
G02*
X43170550Y46522770I99630J-8550D01*
G01*
G75*
G02*
X43000180Y46451720I-100000J0D01*
G01*
G75*
G02*
X42813050Y46411860I-99630J8550D01*
G01*
G75*
G02*
X42625550Y46460270I-87500J48410D01*
G01*
X43009410Y45882270D02*
G75*
G02*
X43130690I60640J0D01*
G01*
G75*
G02*
X43009410I-60640J0D01*
G01*
X42825550Y46078770D02*
Y46133770D01*
G75*
G02*
X42840550Y46148770I15000J0D01*
G01*
X42915550D01*
G75*
G02*
X42930550Y46133770I0J-15000D01*
G01*
Y46078770D01*
G75*
G02*
X42915550Y46063770I-15000J0D01*
G01*
X42840550D01*
G75*
G02*
X42825550Y46078770I0J15000D01*
G01*
X42705050Y43848270D02*
Y44068270D01*
G75*
G02*
X42710050Y44073270I5000J0D01*
G01*
X43200050D01*
G75*
G02*
X43205050Y44068270I0J-5000D01*
G01*
Y43848270D01*
G75*
G02*
X43200050Y43843270I-5000J0D01*
G01*
X42710050D01*
G75*
G02*
X42705050Y43848270I0J5000D01*
G01*
X43160050Y43243270D02*
Y43733270D01*
G75*
G02*
X43165050Y43738270I5000J0D01*
G01*
X43385050D01*
G75*
G02*
X43390050Y43733270I0J-5000D01*
G01*
Y43243270D01*
G75*
G02*
X43385050Y43238270I-5000J0D01*
G01*
X43165050D01*
G75*
G02*
X43160050Y43243270I0J5000D01*
G01*
X42625550Y47305270D02*
G75*
G02*
X42813050Y47353680I100000J0D01*
G01*
G75*
G02*
X43000180Y47313820I87500J-48410D01*
G01*
G75*
G02*
X43170550Y47242770I70370J-71050D01*
G01*
G75*
G02*
X42970920Y47234220I-100000J0D01*
G01*
G75*
G02*
X42813050Y47256860I-70370J71050D01*
G01*
G75*
G02*
X42625550Y47305270I-87500J48410D01*
G01*
X42540050Y43243270D02*
Y43733270D01*
G75*
G02*
X42545050Y43738270I5000J0D01*
G01*
X42765050D01*
G75*
G02*
X42770050Y43733270I0J-5000D01*
G01*
Y43243270D01*
G75*
G02*
X42765050Y43238270I-5000J0D01*
G01*
X42545050D01*
G75*
G02*
X42540050Y43243270I0J5000D01*
G01*
X42546050Y48255270D02*
G75*
G02*
X42641050Y48160270I0J-95000D01*
G01*
G75*
G02*
X42546050Y48065270I-95000J0D01*
G01*
G75*
G02*
X42451050Y48160270I0J95000D01*
G01*
G75*
G02*
X42546050Y48255270I95000J0D01*
G01*
X43196050Y47805270D02*
G75*
G02*
X43291050Y47710270I0J-95000D01*
G01*
G75*
G02*
X43196050Y47615270I-95000J0D01*
G01*
G75*
G02*
X43101050Y47710270I0J95000D01*
G01*
G75*
G02*
X43196050Y47805270I95000J0D01*
G01*
Y48255270D02*
G75*
G02*
X43291050Y48160270I0J-95000D01*
G01*
G75*
G02*
X43196050Y48065270I-95000J0D01*
G01*
G75*
G02*
X43101050Y48160270I0J95000D01*
G01*
G75*
G02*
X43196050Y48255270I95000J0D01*
G01*
X43429550Y45569770D02*
Y45624770D01*
G75*
G02*
X43444550Y45639770I15000J0D01*
G01*
X43519550D01*
G75*
G02*
X43534550Y45624770I0J-15000D01*
G01*
Y45569770D01*
G75*
G02*
X43519550Y45554770I-15000J0D01*
G01*
X43444550D01*
G75*
G02*
X43429550Y45569770I0J15000D01*
G01*
X43548050Y45220270D02*
Y45275270D01*
G75*
G02*
X43563050Y45290270I15000J0D01*
G01*
X43638050D01*
G75*
G02*
X43653050Y45275270I0J-15000D01*
G01*
Y45220270D01*
G75*
G02*
X43638050Y45205270I-15000J0D01*
G01*
X43563050D01*
G75*
G02*
X43548050Y45220270I0J15000D01*
G01*
X43768050D02*
Y45275270D01*
G75*
G02*
X43783050Y45290270I15000J0D01*
G01*
X43858050D01*
G75*
G02*
X43873050Y45275270I0J-15000D01*
G01*
Y45220270D01*
G75*
G02*
X43858050Y45205270I-15000J0D01*
G01*
X43783050D01*
G75*
G02*
X43768050Y45220270I0J15000D01*
G01*
X43814450Y47479570D02*
G75*
G03*
X43840350Y47453670I38600J12700D01*
G01*
Y47432970D01*
G75*
G02*
X43793750Y47479570I12700J59300D01*
G01*
X43814450D01*
X43832410Y47281270D02*
G75*
G02*
X43953690I60640J0D01*
G01*
G75*
G02*
X43832410I-60640J0D01*
G01*
X43865550Y46367770D02*
Y46422770D01*
G75*
G02*
X43880550Y46437770I15000J0D01*
G01*
X43955550D01*
G75*
G02*
X43970550Y46422770I0J-15000D01*
G01*
Y46367770D01*
G75*
G02*
X43955550Y46352770I-15000J0D01*
G01*
X43880550D01*
G75*
G02*
X43865550Y46367770I0J15000D01*
G01*
X43918410Y43778270D02*
G75*
G02*
X44039690I60640J0D01*
G01*
G75*
G02*
X43918410I-60640J0D01*
G01*
X43932550Y45522770D02*
Y45597770D01*
G75*
G02*
X43947550Y45612770I15000J0D01*
G01*
X44002550D01*
G75*
G02*
X44017550Y45597770I0J-15000D01*
G01*
Y45522770D01*
G75*
G02*
X44002550Y45507770I-15000J0D01*
G01*
X43947550D01*
G75*
G02*
X43932550Y45522770I0J15000D01*
G01*
X43866410Y46619270D02*
G75*
G02*
X43987690I60640J0D01*
G01*
G75*
G02*
X43866410I-60640J0D01*
G01*
X43878050Y46835270D02*
Y46890270D01*
G75*
G02*
X43893050Y46905270I15000J0D01*
G01*
X43968050D01*
G75*
G02*
X43983050Y46890270I0J-15000D01*
G01*
Y46835270D01*
G75*
G02*
X43968050Y46820270I-15000J0D01*
G01*
X43893050D01*
G75*
G02*
X43878050Y46835270I0J15000D01*
G01*
X43840350Y47551570D02*
Y47530870D01*
G75*
G03*
X43814450Y47504970I12700J-38600D01*
G01*
X43793750D01*
G75*
G02*
X43840350Y47551570I59300J-12700D01*
G01*
X43865750Y47453670D02*
G75*
G03*
X43891650Y47479570I-12700J38600D01*
G01*
X43912350D01*
G75*
G02*
X43865750Y47432970I-59300J12700D01*
G01*
Y47453670D01*
Y47551570D02*
G75*
G02*
X43912350Y47504970I-12700J-59300D01*
G01*
X43891650D01*
G75*
G03*
X43865750Y47530870I-38600J-12700D01*
G01*
Y47551570D01*
X44069350Y47943970D02*
X44261750D01*
Y47751570D01*
X44069350D01*
Y47943970D01*
X44134550Y45364770D02*
Y45439770D01*
G75*
G02*
X44149550Y45454770I15000J0D01*
G01*
X44204550D01*
G75*
G02*
X44219550Y45439770I0J-15000D01*
G01*
Y45364770D01*
G75*
G02*
X44204550Y45349770I-15000J0D01*
G01*
X44149550D01*
G75*
G02*
X44134550Y45364770I0J15000D01*
G01*
X44179550Y45224270D02*
Y45279270D01*
G75*
G02*
X44194550Y45294270I15000J0D01*
G01*
X44269550D01*
G75*
G02*
X44284550Y45279270I0J-15000D01*
G01*
Y45224270D01*
G75*
G02*
X44269550Y45209270I-15000J0D01*
G01*
X44194550D01*
G75*
G02*
X44179550Y45224270I0J15000D01*
G01*
X44232550Y45327510D02*
Y45340570D01*
X44252550D01*
Y45335770D01*
G75*
G03*
X44262350Y45321700I15000J0D01*
G01*
Y45300770D01*
X44259290D01*
G75*
G02*
X44232550Y45327510I0J26740D01*
G01*
X44259290Y45405770D02*
X44262350D01*
Y45384840D01*
G75*
G03*
X44252550Y45370770I5200J-14070D01*
G01*
Y45365970D01*
X44232550D01*
Y45379030D01*
G75*
G02*
X44259290Y45405770I26740J0D01*
G01*
X44074400Y48240200D02*
X44266800D01*
Y48047800D01*
X44074400D01*
Y48240200D01*
X44287750Y45321700D02*
G75*
G03*
X44297550Y45335770I-5200J14070D01*
G01*
Y45340570D01*
X44317550D01*
Y45327510D01*
G75*
G02*
X44290810Y45300770I-26740J0D01*
G01*
X44287750D01*
Y45321700D01*
X44294910Y44810970D02*
G75*
G02*
X44416190I60640J0D01*
G01*
G75*
G02*
X44294910I-60640J0D01*
G01*
X44354410Y44279270D02*
G75*
G02*
X44475690I60640J0D01*
G01*
G75*
G02*
X44354410I-60640J0D01*
G01*
X44287750Y45405770D02*
X44290810D01*
G75*
G02*
X44317550Y45379030I0J-26740D01*
G01*
Y45365970D01*
X44297550D01*
Y45370770D01*
G75*
G03*
X44287750Y45384840I-15000J0D01*
G01*
Y45405770D01*
X44323350Y47943970D02*
X44515750D01*
Y47751570D01*
X44323350D01*
Y47943970D01*
X44350410Y45549270D02*
G75*
G02*
X44471690I60640J0D01*
G01*
G75*
G02*
X44350410I-60640J0D01*
G01*
X44458050Y46767770D02*
Y46822770D01*
G75*
G02*
X44473050Y46837770I15000J0D01*
G01*
X44548050D01*
G75*
G02*
X44563050Y46822770I0J-15000D01*
G01*
Y46767770D01*
G75*
G02*
X44548050Y46752770I-15000J0D01*
G01*
X44473050D01*
G75*
G02*
X44458050Y46767770I0J15000D01*
G01*
X44535410Y43778270D02*
G75*
G02*
X44656690I60640J0D01*
G01*
G75*
G02*
X44535410I-60640J0D01*
G01*
X44458050Y46902770D02*
Y46957770D01*
G75*
G02*
X44473050Y46972770I15000J0D01*
G01*
X44548050D01*
G75*
G02*
X44563050Y46957770I0J-15000D01*
G01*
Y46902770D01*
G75*
G02*
X44548050Y46887770I-15000J0D01*
G01*
X44473050D01*
G75*
G02*
X44458050Y46902770I0J15000D01*
G01*
X44328400Y48240200D02*
X44520800D01*
Y48047800D01*
X44328400D01*
Y48240200D01*
X44577350Y47835070D02*
X44597350D01*
Y47771570D01*
X44660850D01*
Y47751570D01*
X44577350D01*
Y47835070D01*
X44577410Y47457770D02*
G75*
G02*
X44698690I60640J0D01*
G01*
G75*
G02*
X44577410I-60640J0D01*
G01*
X44628050Y44997770D02*
Y45072770D01*
G75*
G02*
X44643050Y45087770I15000J0D01*
G01*
X44698050D01*
G75*
G02*
X44713050Y45072770I0J-15000D01*
G01*
Y44997770D01*
G75*
G02*
X44698050Y44982770I-15000J0D01*
G01*
X44643050D01*
G75*
G02*
X44628050Y44997770I0J15000D01*
G01*
X44577350Y47943970D02*
X44660850D01*
Y47923970D01*
X44597350D01*
Y47860470D01*
X44577350D01*
Y47943970D01*
X44582400Y48240200D02*
X44774800D01*
Y48047800D01*
X44582400D01*
Y48240200D01*
X44686250Y47771570D02*
X44749750D01*
Y47835070D01*
X44769750D01*
Y47751570D01*
X44686250D01*
Y47771570D01*
X44724410Y44159270D02*
G75*
G02*
X44845690I60640J0D01*
G01*
G75*
G02*
X44724410I-60640J0D01*
G01*
X44686250Y47943970D02*
X44769750D01*
Y47860470D01*
X44749750D01*
Y47923970D01*
X44686250D01*
Y47943970D01*
X44836400Y48240200D02*
X45028800D01*
Y48047800D01*
X44836400D01*
Y48240200D01*
X44990410Y45675270D02*
G75*
G02*
X45111690I60640J0D01*
G01*
G75*
G02*
X44990410I-60640J0D01*
G01*
X44993800Y43397200D02*
X45186200D01*
Y43204800D01*
X44993800D01*
Y43397200D01*
X45002850Y46667770D02*
G75*
G02*
X45012430Y46690890I32700J0D01*
G01*
X45064930Y46743390D01*
G75*
G02*
X45088050Y46752970I23120J-23120D01*
G01*
X45090400D01*
Y46935970D01*
X45282800D01*
Y46752970D01*
X45344400D01*
Y46935970D01*
X45536800D01*
Y46852970D01*
X46720550D01*
G75*
G02*
X46743670Y46843390I0J-32700D01*
G01*
X46991170Y46595890D01*
G75*
G02*
X47000750Y46572770I-23120J-23120D01*
G01*
Y45798810D01*
X47034090Y45765470D01*
X47153050D01*
G75*
G02*
X47176170Y45755890I0J-32700D01*
G01*
X47231170Y45700890D01*
G75*
G02*
X47240480Y45681940I-23120J-23120D01*
G01*
G75*
G02*
X47250550Y45667770I-4930J-14170D01*
G01*
Y45592770D01*
G75*
G02*
X47235550Y45577770I-15000J0D01*
G01*
X47180550D01*
G75*
G02*
X47165550Y45592770I0J15000D01*
G01*
Y45667770D01*
G75*
G02*
X47166520Y45673060I15000J-20D01*
G01*
X47155550Y45684030D01*
Y45625270D01*
G75*
G02*
X47140550Y45610270I-15000J0D01*
G01*
X47085550D01*
G75*
G02*
X47070550Y45625270I0J15000D01*
G01*
Y45630070D01*
X47020550D01*
G75*
G02*
X46997430Y45639650I0J32700D01*
G01*
X46903250Y45733830D01*
Y45653810D01*
X47141170Y45415890D01*
G75*
G02*
X47150750Y45392770I-23120J-23120D01*
G01*
Y45380270D01*
X47174550D01*
G75*
G02*
X47189550Y45365270I0J-15000D01*
G01*
Y45310270D01*
G75*
G02*
X47174550Y45295270I-15000J0D01*
G01*
X47099550D01*
G75*
G02*
X47084550Y45310270I0J15000D01*
G01*
Y45365270D01*
G75*
G02*
X47085350Y45370100I15000J0D01*
G01*
Y45379230D01*
X46847430Y45617150D01*
G75*
G02*
X46837850Y45640270I23120J23120D01*
G01*
Y46506730D01*
X46672010Y46672570D01*
X45692120D01*
G75*
G02*
X45678050Y46662770I-14070J5200D01*
G01*
X45603050D01*
G75*
G02*
X45588050Y46677770I0J15000D01*
G01*
Y46709030D01*
X45576170Y46697150D01*
G75*
G02*
X45553050Y46687570I-23120J23120D01*
G01*
X45101590D01*
X45095990Y46681970D01*
X45282800D01*
Y46489570D01*
X45090400D01*
Y46676380D01*
X45068250Y46654230D01*
Y46151310D01*
X45090400Y46129160D01*
Y46173970D01*
X45282800D01*
Y45981570D01*
X45090400D01*
Y46045480D01*
G75*
G02*
X45072430Y46054650I5150J32290D01*
G01*
X45012430Y46114650D01*
G75*
G02*
X45002850Y46137770I23120J23120D01*
G01*
Y46667770D01*
X47220550Y44872770D02*
X47275550D01*
G75*
G02*
X47290550Y44857770I0J-15000D01*
G01*
Y44782770D01*
G75*
G02*
X47275550Y44767770I-15000J0D01*
G01*
X47230550D01*
Y44692770D01*
G75*
G02*
X47215550Y44677770I-15000J0D01*
G01*
X47160550D01*
G75*
G02*
X47145550Y44692770I0J15000D01*
G01*
Y44767770D01*
X47100550D01*
G75*
G02*
X47085550Y44782770I0J15000D01*
G01*
Y44857770D01*
G75*
G02*
X47100550Y44872770I15000J0D01*
G01*
X47155550D01*
G75*
G02*
X47170550Y44857770I0J-15000D01*
G01*
Y44782770D01*
X47205550D01*
Y44857770D01*
G75*
G02*
X47220550Y44872770I15000J0D01*
G01*
X47285550Y44537770D02*
Y44612770D01*
G75*
G02*
X47300550Y44627770I15000J0D01*
G01*
X47355550D01*
G75*
G02*
X47370550Y44612770I0J-15000D01*
G01*
Y44537770D01*
G75*
G02*
X47355550Y44522770I-15000J0D01*
G01*
X47300550D01*
G75*
G02*
X47285550Y44537770I0J15000D01*
G01*
X47190550D02*
Y44612770D01*
G75*
G02*
X47205550Y44627770I15000J0D01*
G01*
X47260550D01*
G75*
G02*
X47275550Y44612770I0J-15000D01*
G01*
Y44537770D01*
G75*
G02*
X47260550Y44522770I-15000J0D01*
G01*
X47205550D01*
G75*
G02*
X47190550Y44537770I0J15000D01*
G01*
X47264800Y43397200D02*
X47457200D01*
Y43204800D01*
X47264800D01*
Y43397200D01*
X47094550Y44448770D02*
Y44523770D01*
G75*
G02*
X47109550Y44538770I15000J0D01*
G01*
X47164550D01*
G75*
G02*
X47179550Y44523770I0J-15000D01*
G01*
Y44448770D01*
G75*
G02*
X47164550Y44433770I-15000J0D01*
G01*
X47109550D01*
G75*
G02*
X47094550Y44448770I0J15000D01*
G01*
X47081550Y45217770D02*
Y45272770D01*
G75*
G02*
X47096550Y45287770I15000J0D01*
G01*
X47171550D01*
G75*
G02*
X47186550Y45272770I0J-15000D01*
G01*
Y45217770D01*
G75*
G02*
X47171550Y45202770I-15000J0D01*
G01*
X47096550D01*
G75*
G02*
X47081550Y45217770I0J15000D01*
G01*
X46685550Y44132770D02*
Y44207770D01*
G75*
G02*
X46700550Y44222770I15000J0D01*
G01*
X46755550D01*
G75*
G02*
X46770550Y44207770I0J-15000D01*
G01*
Y44132770D01*
G75*
G02*
X46755550Y44117770I-15000J0D01*
G01*
X46700550D01*
G75*
G02*
X46685550Y44132770I0J15000D01*
G01*
X46771800Y43397200D02*
X46964200D01*
Y43204800D01*
X46771800D01*
Y43397200D01*
X46818980Y44518810D02*
X46872010Y44571840D01*
G75*
G02*
X46893230I10610J-10610D01*
G01*
X46932120Y44532950D01*
G75*
G02*
X46936510Y44522340I-10610J-10600D01*
G01*
G75*
G02*
X46932120Y44511730I-15000J-10D01*
G01*
X46879090Y44458700D01*
G75*
G02*
X46857870I-10610J10610D01*
G01*
X46818980Y44497590D01*
G75*
G02*
X46814590Y44508200I10610J10600D01*
G01*
G75*
G02*
X46818980Y44518810I15000J10D01*
G01*
X46885180Y44138700D02*
G75*
G03*
X46894980Y44152770I-5200J14070D01*
G01*
Y44157570D01*
X46914980D01*
Y44144510D01*
G75*
G02*
X46888240Y44117770I-26740J0D01*
G01*
X46885180D01*
Y44138700D01*
Y44222770D02*
X46888240D01*
G75*
G02*
X46914980Y44196030I0J-26740D01*
G01*
Y44182970D01*
X46894980D01*
Y44187770D01*
G75*
G03*
X46885180Y44201840I-15000J0D01*
G01*
Y44222770D01*
X46922550Y44132770D02*
Y44207770D01*
G75*
G02*
X46937550Y44222770I15000J0D01*
G01*
X46992550D01*
G75*
G02*
X47007550Y44207770I0J-15000D01*
G01*
Y44132770D01*
G75*
G02*
X46992550Y44117770I-15000J0D01*
G01*
X46937550D01*
G75*
G02*
X46922550Y44132770I0J15000D01*
G01*
X46996410Y43791270D02*
G75*
G02*
X47117690I60640J0D01*
G01*
G75*
G02*
X46996410I-60640J0D01*
G01*
X46829980Y44144510D02*
Y44157570D01*
X46849980D01*
Y44152770D01*
G75*
G03*
X46859780Y44138700I15000J0D01*
G01*
Y44117770D01*
X46856720D01*
G75*
G02*
X46829980Y44144510I0J26740D01*
G01*
X46856720Y44222770D02*
X46859780D01*
Y44201840D01*
G75*
G03*
X46849980Y44187770I5200J-14070D01*
G01*
Y44182970D01*
X46829980D01*
Y44196030D01*
G75*
G02*
X46856720Y44222770I26740J0D01*
G01*
X45703050Y44718170D02*
Y44773170D01*
G75*
G02*
X45718050Y44788170I15000J0D01*
G01*
X45793050D01*
G75*
G02*
X45808050Y44773170I0J-15000D01*
G01*
Y44718170D01*
G75*
G02*
X45793050Y44703170I-15000J0D01*
G01*
X45718050D01*
G75*
G02*
X45703050Y44718170I0J15000D01*
G01*
X45805550Y44622770D02*
Y44697770D01*
G75*
G02*
X45820550Y44712770I15000J0D01*
G01*
X45875550D01*
G75*
G02*
X45890550Y44697770I0J-15000D01*
G01*
Y44622770D01*
G75*
G02*
X45875550Y44607770I-15000J0D01*
G01*
X45820550D01*
G75*
G02*
X45805550Y44622770I0J15000D01*
G01*
X45755800Y43288300D02*
X45775800D01*
Y43224800D01*
X45839300D01*
Y43204800D01*
X45755800D01*
Y43288300D01*
Y43397200D02*
X45839300D01*
Y43377200D01*
X45775800D01*
Y43313700D01*
X45755800D01*
Y43397200D01*
X45770550Y44365270D02*
Y44420270D01*
G75*
G02*
X45785550Y44435270I15000J0D01*
G01*
X45860550D01*
G75*
G02*
X45875550Y44420270I0J-15000D01*
G01*
Y44365270D01*
G75*
G02*
X45860550Y44350270I-15000J0D01*
G01*
X45785550D01*
G75*
G02*
X45770550Y44365270I0J15000D01*
G01*
X45864700Y43224800D02*
X45928200D01*
Y43288300D01*
X45948200D01*
Y43204800D01*
X45864700D01*
Y43224800D01*
Y43397200D02*
X45948200D01*
Y43313700D01*
X45928200D01*
Y43377200D01*
X45864700D01*
Y43397200D01*
X45773050Y44482770D02*
Y44537770D01*
G75*
G02*
X45788050Y44552770I15000J0D01*
G01*
X45863050D01*
G75*
G02*
X45878050Y44537770I0J-15000D01*
G01*
Y44482770D01*
G75*
G02*
X45863050Y44467770I-15000J0D01*
G01*
X45788050D01*
G75*
G02*
X45773050Y44482770I0J15000D01*
G01*
X45878050Y44422770D02*
Y44477770D01*
G75*
G02*
X45893050Y44492770I15000J0D01*
G01*
X45968050D01*
G75*
G02*
X45983050Y44477770I0J-15000D01*
G01*
Y44422770D01*
G75*
G02*
X45968050Y44407770I-15000J0D01*
G01*
X45893050D01*
G75*
G02*
X45878050Y44422770I0J15000D01*
G01*
X46003050Y46094770D02*
Y46149770D01*
G75*
G02*
X46018050Y46164770I15000J0D01*
G01*
X46093050D01*
G75*
G02*
X46108050Y46149770I0J-15000D01*
G01*
Y46094770D01*
G75*
G02*
X46093050Y46079770I-15000J0D01*
G01*
X46018050D01*
G75*
G02*
X46003050Y46094770I0J15000D01*
G01*
X46020550Y44562770D02*
Y44617770D01*
G75*
G02*
X46035550Y44632770I15000J0D01*
G01*
X46110550D01*
G75*
G02*
X46125550Y44617770I0J-15000D01*
G01*
Y44562770D01*
G75*
G02*
X46110550Y44547770I-15000J0D01*
G01*
X46035550D01*
G75*
G02*
X46020550Y44562770I0J15000D01*
G01*
X46009800Y43397200D02*
X46202200D01*
Y43204800D01*
X46009800D01*
Y43397200D01*
X46225550Y44964510D02*
Y44967570D01*
X46246480D01*
G75*
G03*
X46260550Y44957770I14070J5200D01*
G01*
X46265350D01*
Y44937770D01*
X46252290D01*
G75*
G02*
X46225550Y44964510I0J26740D01*
G01*
Y44485270D02*
Y44540270D01*
G75*
G02*
X46240550Y44555270I15000J0D01*
G01*
X46315550D01*
G75*
G02*
X46330550Y44540270I0J-15000D01*
G01*
Y44485270D01*
G75*
G02*
X46315550Y44470270I-15000J0D01*
G01*
X46240550D01*
G75*
G02*
X46225550Y44485270I0J15000D01*
G01*
X46263800Y43397200D02*
X46456200D01*
Y43204800D01*
X46263800D01*
Y43397200D01*
X46228050Y44580270D02*
Y44635270D01*
G75*
G02*
X46243050Y44650270I15000J0D01*
G01*
X46318050D01*
G75*
G02*
X46333050Y44635270I0J-15000D01*
G01*
Y44580270D01*
G75*
G02*
X46318050Y44565270I-15000J0D01*
G01*
X46243050D01*
G75*
G02*
X46228050Y44580270I0J15000D01*
G01*
Y44675270D02*
Y44730270D01*
G75*
G02*
X46243050Y44745270I15000J0D01*
G01*
X46318050D01*
G75*
G02*
X46333050Y44730270I0J-15000D01*
G01*
Y44675270D01*
G75*
G02*
X46318050Y44660270I-15000J0D01*
G01*
X46243050D01*
G75*
G02*
X46228050Y44675270I0J15000D01*
G01*
X46252290Y45022770D02*
X46265350D01*
Y45002770D01*
X46260550D01*
G75*
G03*
X46246480Y44992970I0J-15000D01*
G01*
X46225550D01*
Y44996030D01*
G75*
G02*
X46252290Y45022770I26740J0D01*
G01*
X46230550Y45184510D02*
Y45187570D01*
X46251480D01*
G75*
G03*
X46265550Y45177770I14070J5200D01*
G01*
X46270350D01*
Y45157770D01*
X46295750D01*
Y45177770D01*
X46300550D01*
G75*
G03*
X46314620Y45187570I0J15000D01*
G01*
X46335550D01*
Y45184510D01*
G75*
G02*
X46308810Y45157770I-26740J0D01*
G01*
X46320550D01*
G75*
G02*
X46335550Y45142770I0J-15000D01*
G01*
Y45087770D01*
G75*
G02*
X46320550Y45072770I-15000J0D01*
G01*
X46245550D01*
G75*
G02*
X46230550Y45087770I0J15000D01*
G01*
Y45142770D01*
G75*
G02*
X46245550Y45157770I15000J0D01*
G01*
X46257290D01*
G75*
G02*
X46230550Y45184510I0J26740D01*
G01*
X46290750Y44957770D02*
X46295550D01*
G75*
G03*
X46309620Y44967570I0J15000D01*
G01*
X46330550D01*
Y44964510D01*
G75*
G02*
X46303810Y44937770I-26740J0D01*
G01*
X46290750D01*
Y44957770D01*
Y45022770D02*
X46303810D01*
G75*
G02*
X46330550Y44996030I0J-26740D01*
G01*
Y44992970D01*
X46309620D01*
G75*
G03*
X46295550Y45002770I-14070J-5200D01*
G01*
X46290750D01*
Y45022770D01*
X46257290Y45242770D02*
X46270350D01*
Y45222770D01*
X46265550D01*
G75*
G03*
X46251480Y45212970I0J-15000D01*
G01*
X46230550D01*
Y45216030D01*
G75*
G02*
X46257290Y45242770I26740J0D01*
G01*
X46295750D02*
X46308810D01*
G75*
G02*
X46335550Y45216030I0J-26740D01*
G01*
Y45212970D01*
X46314620D01*
G75*
G03*
X46300550Y45222770I-14070J-5200D01*
G01*
X46295750D01*
Y45242770D01*
X46375550Y46392770D02*
Y46447770D01*
G75*
G02*
X46390550Y46462770I15000J0D01*
G01*
X46465550D01*
G75*
G02*
X46480550Y46447770I0J-15000D01*
G01*
Y46392770D01*
G75*
G02*
X46465550Y46377770I-15000J0D01*
G01*
X46390550D01*
G75*
G02*
X46375550Y46392770I0J15000D01*
G01*
X46408050Y45635270D02*
Y45690270D01*
G75*
G02*
X46423050Y45705270I15000J0D01*
G01*
X46498050D01*
G75*
G02*
X46513050Y45690270I0J-15000D01*
G01*
Y45635270D01*
G75*
G02*
X46498050Y45620270I-15000J0D01*
G01*
X46423050D01*
G75*
G02*
X46408050Y45635270I0J15000D01*
G01*
X46455550Y45822770D02*
Y45877770D01*
G75*
G02*
X46470550Y45892770I15000J0D01*
G01*
X46545550D01*
G75*
G02*
X46560550Y45877770I0J-15000D01*
G01*
Y45822770D01*
G75*
G02*
X46545550Y45807770I-15000J0D01*
G01*
X46470550D01*
G75*
G02*
X46455550Y45822770I0J15000D01*
G01*
X46517800Y43397200D02*
X46710200D01*
Y43204800D01*
X46517800D01*
Y43397200D01*
X46546480Y44733810D02*
X46599510Y44786840D01*
G75*
G02*
X46620730I10610J-10610D01*
G01*
X46659620Y44747950D01*
G75*
G02*
X46664010Y44737340I-10610J-10600D01*
G01*
G75*
G02*
X46659620Y44726730I-15000J-10D01*
G01*
X46606590Y44673700D01*
G75*
G02*
X46585370I-10610J10610D01*
G01*
X46546480Y44712590D01*
G75*
G02*
X46542090Y44723200I10610J10600D01*
G01*
G75*
G02*
X46546480Y44733810I15000J10D01*
G01*
X46550550Y44545270D02*
Y44600270D01*
G75*
G02*
X46565550Y44615270I15000J0D01*
G01*
X46640550D01*
G75*
G02*
X46655550Y44600270I0J-15000D01*
G01*
Y44545270D01*
G75*
G02*
X46640550Y44530270I-15000J0D01*
G01*
X46565550D01*
G75*
G02*
X46550550Y44545270I0J15000D01*
G01*
X46594550Y44132770D02*
Y44207770D01*
G75*
G02*
X46609550Y44222770I15000J0D01*
G01*
X46664550D01*
G75*
G02*
X46679550Y44207770I0J-15000D01*
G01*
Y44132770D01*
G75*
G02*
X46664550Y44117770I-15000J0D01*
G01*
X46609550D01*
G75*
G02*
X46594550Y44132770I0J15000D01*
G01*
X46545550Y44903770D02*
Y44958770D01*
G75*
G02*
X46560550Y44973770I15000J0D01*
G01*
X46635550D01*
G75*
G02*
X46650550Y44958770I0J-15000D01*
G01*
Y44903770D01*
G75*
G02*
X46635550Y44888770I-15000J0D01*
G01*
X46560550D01*
G75*
G02*
X46545550Y44903770I0J15000D01*
G01*
Y45053570D02*
Y45108570D01*
G75*
G02*
X46560550Y45123570I15000J0D01*
G01*
X46635550D01*
G75*
G02*
X46650550Y45108570I0J-15000D01*
G01*
Y45053570D01*
G75*
G02*
X46635550Y45038570I-15000J0D01*
G01*
X46560550D01*
G75*
G02*
X46545550Y45053570I0J15000D01*
G01*
Y45153770D02*
Y45208770D01*
G75*
G02*
X46560550Y45223770I15000J0D01*
G01*
X46635550D01*
G75*
G02*
X46650550Y45208770I0J-15000D01*
G01*
Y45153770D01*
G75*
G02*
X46635550Y45138770I-15000J0D01*
G01*
X46560550D01*
G75*
G02*
X46545550Y45153770I0J15000D01*
G01*
X45344400Y46173970D02*
X45536800D01*
Y45981570D01*
X45344400D01*
Y46173970D01*
X45501800Y43397200D02*
X45694200D01*
Y43204800D01*
X45501800D01*
Y43397200D01*
X45502410Y44982770D02*
G75*
G02*
X45623690I60640J0D01*
G01*
G75*
G02*
X45502410I-60640J0D01*
G01*
X45344400Y46427970D02*
X45536800D01*
Y46235570D01*
X45344400D01*
Y46427970D01*
Y46681970D02*
X45536800D01*
Y46489570D01*
X45344400D01*
Y46681970D01*
X45090400Y46427970D02*
X45282800D01*
Y46235570D01*
X45090400D01*
Y46427970D01*
X45145410Y43778270D02*
G75*
G02*
X45266690I60640J0D01*
G01*
G75*
G02*
X45145410I-60640J0D01*
G01*
X45247800Y43397200D02*
X45440200D01*
Y43204800D01*
X45247800D01*
Y43397200D01*
X45090400Y47189970D02*
X45282800D01*
Y46997570D01*
X45090400D01*
Y47189970D01*
Y48240200D02*
X45282800D01*
Y48047800D01*
X45090400D01*
Y48240200D01*
X45344400Y47189970D02*
X45536800D01*
Y46997570D01*
X45344400D01*
Y47189970D01*
Y48240200D02*
X45536800D01*
Y48047800D01*
X45344400D01*
Y48240200D01*
X45598400D02*
X45790800D01*
Y48047800D01*
X45598400D01*
Y48240200D01*
X45852400D02*
X46044800D01*
Y48047800D01*
X45852400D01*
Y48240200D01*
X46106400D02*
X46298800D01*
Y48047800D01*
X46106400D01*
Y48240200D01*
X46360400D02*
X46552800D01*
Y48047800D01*
X46360400D01*
Y48240200D01*
X46448550Y47795770D02*
Y47870770D01*
G75*
G02*
X46463550Y47885770I15000J0D01*
G01*
X46518550D01*
G75*
G02*
X46533550Y47870770I0J-15000D01*
G01*
Y47795770D01*
G75*
G02*
X46518550Y47780770I-15000J0D01*
G01*
X46463550D01*
G75*
G02*
X46448550Y47795770I0J15000D01*
G01*
X46515550Y47642770D02*
Y47697770D01*
G75*
G02*
X46530550Y47712770I15000J0D01*
G01*
X46605550D01*
G75*
G02*
X46620550Y47697770I0J-15000D01*
G01*
Y47642770D01*
G75*
G02*
X46605550Y47627770I-15000J0D01*
G01*
X46530550D01*
G75*
G02*
X46515550Y47642770I0J15000D01*
G01*
X46541480Y47580450D02*
X46580370Y47619340D01*
G75*
G02*
X46601590I10610J-10610D01*
G01*
X46654620Y47566310D01*
G75*
G02*
X46659010Y47555700I-10610J-10600D01*
G01*
G75*
G02*
X46654620Y47545090I-15000J-10D01*
G01*
X46615730Y47506200D01*
G75*
G02*
X46594510I-10610J10610D01*
G01*
X46541480Y47559230D01*
G75*
G02*
X46537090Y47569840I10610J10600D01*
G01*
G75*
G02*
X46541480Y47580450I15000J10D01*
G01*
X46590550Y47795770D02*
Y47870770D01*
G75*
G02*
X46605550Y47885770I15000J0D01*
G01*
X46660550D01*
G75*
G02*
X46675550Y47870770I0J-15000D01*
G01*
Y47795770D01*
G75*
G02*
X46660550Y47780770I-15000J0D01*
G01*
X46605550D01*
G75*
G02*
X46590550Y47795770I0J15000D01*
G01*
X46631480Y47697950D02*
X46670370Y47736840D01*
G75*
G02*
X46691590I10610J-10610D01*
G01*
X46744620Y47683810D01*
G75*
G02*
X46749010Y47673200I-10610J-10600D01*
G01*
G75*
G02*
X46744620Y47662590I-15000J-10D01*
G01*
X46705730Y47623700D01*
G75*
G02*
X46684510I-10610J10610D01*
G01*
X46631480Y47676730D01*
G75*
G02*
X46627090Y47687340I10610J10600D01*
G01*
G75*
G02*
X46631480Y47697950I15000J10D01*
G01*
X46768850Y48236470D02*
X46961250D01*
Y48044070D01*
X46768850D01*
Y48236470D01*
X47022850D02*
X47215250D01*
Y48044070D01*
X47022850D01*
Y48236470D01*
X47073050Y47060270D02*
Y47135270D01*
G75*
G02*
X47088050Y47150270I15000J0D01*
G01*
X47143050D01*
G75*
G02*
X47158050Y47135270I0J-15000D01*
G01*
Y47060270D01*
G75*
G02*
X47143050Y47045270I-15000J0D01*
G01*
X47088050D01*
G75*
G02*
X47073050Y47060270I0J15000D01*
G01*
X47114910Y46235270D02*
G75*
G02*
X47236190I60640J0D01*
G01*
G75*
G02*
X47114910I-60640J0D01*
G01*
X47130750Y45833700D02*
G75*
G03*
X47140550Y45847770I-5200J14070D01*
G01*
Y45852570D01*
X47160550D01*
Y45839510D01*
G75*
G02*
X47133810Y45812770I-26740J0D01*
G01*
X47130750D01*
Y45833700D01*
Y45917770D02*
X47133810D01*
G75*
G02*
X47160550Y45891030I0J-26740D01*
G01*
Y45877970D01*
X47140550D01*
Y45882770D01*
G75*
G03*
X47130750Y45896840I-15000J0D01*
G01*
Y45917770D01*
X47135550Y46940270D02*
Y47015270D01*
G75*
G02*
X47150550Y47030270I15000J0D01*
G01*
X47205550D01*
G75*
G02*
X47220550Y47015270I0J-15000D01*
G01*
Y46940270D01*
G75*
G02*
X47205550Y46925270I-15000J0D01*
G01*
X47150550D01*
G75*
G02*
X47135550Y46940270I0J15000D01*
G01*
X47075550Y45839510D02*
Y45852570D01*
X47095550D01*
Y45847770D01*
G75*
G03*
X47105350Y45833700I15000J0D01*
G01*
Y45812770D01*
X47102290D01*
G75*
G02*
X47075550Y45839510I0J26740D01*
G01*
X47102290Y45917770D02*
X47105350D01*
Y45896840D01*
G75*
G03*
X47095550Y45882770I5200J-14070D01*
G01*
Y45877970D01*
X47075550D01*
Y45891030D01*
G75*
G02*
X47102290Y45917770I26740J0D01*
G01*
X47198050Y47057770D02*
Y47132770D01*
G75*
G02*
X47213050Y47147770I15000J0D01*
G01*
X47268050D01*
G75*
G02*
X47283050Y47132770I0J-15000D01*
G01*
Y47057770D01*
G75*
G02*
X47268050Y47042770I-15000J0D01*
G01*
X47213050D01*
G75*
G02*
X47198050Y47057770I0J15000D01*
G01*
X47255550Y46940270D02*
Y47015270D01*
G75*
G02*
X47270550Y47030270I15000J0D01*
G01*
X47325550D01*
G75*
G02*
X47340550Y47015270I0J-15000D01*
G01*
Y46940270D01*
G75*
G02*
X47325550Y46925270I-15000J0D01*
G01*
X47270550D01*
G75*
G02*
X47255550Y46940270I0J15000D01*
G01*
X47295550Y45018770D02*
Y45093770D01*
G75*
G02*
X47310550Y45108770I15000J0D01*
G01*
X47365550D01*
G75*
G02*
X47380550Y45093770I0J-15000D01*
G01*
Y45018770D01*
G75*
G02*
X47365550Y45003770I-15000J0D01*
G01*
X47310550D01*
G75*
G02*
X47295550Y45018770I0J15000D01*
G01*
X47378050Y44535270D02*
Y44610270D01*
G75*
G02*
X47393050Y44625270I15000J0D01*
G01*
X47448050D01*
G75*
G02*
X47463050Y44610270I0J-15000D01*
G01*
Y44535270D01*
G75*
G02*
X47448050Y44520270I-15000J0D01*
G01*
X47393050D01*
G75*
G02*
X47378050Y44535270I0J15000D01*
G01*
X47276850Y48236470D02*
X47469250D01*
Y48044070D01*
X47276850D01*
Y48236470D01*
X47320550Y47540270D02*
Y47595270D01*
G75*
G02*
X47335550Y47610270I15000J0D01*
G01*
X47410550D01*
G75*
G02*
X47425550Y47595270I0J-15000D01*
G01*
Y47540270D01*
G75*
G02*
X47410550Y47525270I-15000J0D01*
G01*
X47335550D01*
G75*
G02*
X47320550Y47540270I0J15000D01*
G01*
X47325550Y47437770D02*
Y47492770D01*
G75*
G02*
X47340550Y47507770I15000J0D01*
G01*
X47415550D01*
G75*
G02*
X47430550Y47492770I0J-15000D01*
G01*
Y47437770D01*
G75*
G02*
X47415550Y47422770I-15000J0D01*
G01*
X47340550D01*
G75*
G02*
X47325550Y47437770I0J15000D01*
G01*
X47320550Y47672770D02*
Y47727770D01*
G75*
G02*
X47335550Y47742770I15000J0D01*
G01*
X47410550D01*
G75*
G02*
X47425550Y47727770I0J-15000D01*
G01*
Y47672770D01*
G75*
G02*
X47410550Y47657770I-15000J0D01*
G01*
X47335550D01*
G75*
G02*
X47320550Y47672770I0J15000D01*
G01*
X47510550Y44292770D02*
Y44367770D01*
G75*
G02*
X47525550Y44382770I15000J0D01*
G01*
X47580550D01*
G75*
G02*
X47595550Y44367770I0J-15000D01*
G01*
Y44292770D01*
G75*
G02*
X47580550Y44277770I-15000J0D01*
G01*
X47525550D01*
G75*
G02*
X47510550Y44292770I0J15000D01*
G01*
X47518800Y43397200D02*
X47711200D01*
Y43204800D01*
X47518800D01*
Y43397200D01*
X47513050Y46175270D02*
Y46250270D01*
G75*
G02*
X47528050Y46265270I15000J0D01*
G01*
X47583050D01*
G75*
G02*
X47598050Y46250270I0J-15000D01*
G01*
Y46175270D01*
G75*
G02*
X47583050Y46160270I-15000J0D01*
G01*
X47528050D01*
G75*
G02*
X47513050Y46175270I0J15000D01*
G01*
X47525550Y45895270D02*
Y45970270D01*
G75*
G02*
X47540550Y45985270I15000J0D01*
G01*
X47595550D01*
G75*
G02*
X47610550Y45970270I0J-15000D01*
G01*
Y45895270D01*
G75*
G02*
X47595550Y45880270I-15000J0D01*
G01*
X47540550D01*
G75*
G02*
X47525550Y45895270I0J15000D01*
G01*
X47513050Y46395270D02*
Y46470270D01*
G75*
G02*
X47528050Y46485270I15000J0D01*
G01*
X47583050D01*
G75*
G02*
X47598050Y46470270I0J-15000D01*
G01*
Y46395270D01*
G75*
G02*
X47583050Y46380270I-15000J0D01*
G01*
X47528050D01*
G75*
G02*
X47513050Y46395270I0J15000D01*
G01*
Y46645270D02*
Y46720270D01*
G75*
G02*
X47528050Y46735270I15000J0D01*
G01*
X47583050D01*
G75*
G02*
X47598050Y46720270I0J-15000D01*
G01*
Y46645270D01*
G75*
G02*
X47583050Y46630270I-15000J0D01*
G01*
X47528050D01*
G75*
G02*
X47513050Y46645270I0J15000D01*
G01*
X47530850Y48236470D02*
X47723250D01*
Y48044070D01*
X47530850D01*
Y48236470D01*
X47568550Y47375270D02*
Y47430270D01*
G75*
G02*
X47583550Y47445270I15000J0D01*
G01*
X47658550D01*
G75*
G02*
X47673550Y47430270I0J-15000D01*
G01*
Y47375270D01*
G75*
G02*
X47658550Y47360270I-15000J0D01*
G01*
X47583550D01*
G75*
G02*
X47568550Y47375270I0J15000D01*
G01*
Y47614770D02*
Y47669770D01*
G75*
G02*
X47583550Y47684770I15000J0D01*
G01*
X47658550D01*
G75*
G02*
X47673550Y47669770I0J-15000D01*
G01*
Y47614770D01*
G75*
G02*
X47658550Y47599770I-15000J0D01*
G01*
X47583550D01*
G75*
G02*
X47568550Y47614770I0J15000D01*
G01*
X47702320Y44879510D02*
Y44882570D01*
X47723250D01*
G75*
G03*
X47737320Y44872770I14070J5200D01*
G01*
X47742120D01*
Y44860770D01*
X47767520D01*
Y44872770D01*
X47772320D01*
G75*
G03*
X47786390Y44882570I0J15000D01*
G01*
X47807320D01*
Y44879510D01*
G75*
G02*
X47798330Y44859510I-26740J0D01*
G01*
G75*
G02*
X47807320Y44845770I-6010J-13740D01*
G01*
Y44790770D01*
G75*
G02*
X47792320Y44775770I-15000J0D01*
G01*
X47717320D01*
G75*
G02*
X47702320Y44790770I0J15000D01*
G01*
Y44845770D01*
G75*
G02*
X47711310Y44859510I15000J0D01*
G01*
G75*
G02*
X47702320Y44879510I17750J20000D01*
G01*
X47772800Y43397200D02*
X47965200D01*
Y43204800D01*
X47772800D01*
Y43397200D01*
X47729060Y44937770D02*
X47742120D01*
Y44917770D01*
X47737320D01*
G75*
G03*
X47723250Y44907970I0J-15000D01*
G01*
X47702320D01*
Y44911030D01*
G75*
G02*
X47729060Y44937770I26740J0D01*
G01*
X47702320Y45301770D02*
Y45356770D01*
G75*
G02*
X47717320Y45371770I15000J0D01*
G01*
X47792320D01*
G75*
G02*
X47807320Y45356770I0J-15000D01*
G01*
Y45301770D01*
G75*
G02*
X47792320Y45286770I-15000J0D01*
G01*
X47717320D01*
G75*
G02*
X47702320Y45301770I0J15000D01*
G01*
X47767520Y44937770D02*
X47780580D01*
G75*
G02*
X47807320Y44911030I0J-26740D01*
G01*
Y44907970D01*
X47786390D01*
G75*
G03*
X47772320Y44917770I-14070J-5200D01*
G01*
X47767520D01*
Y44937770D01*
X47784850Y48236470D02*
X47977250D01*
Y48044070D01*
X47784850D01*
Y48236470D01*
X47817420Y45301770D02*
Y45356770D01*
G75*
G02*
X47832420Y45371770I15000J0D01*
G01*
X47907420D01*
G75*
G02*
X47922420Y45356770I0J-15000D01*
G01*
Y45301770D01*
G75*
G02*
X47907420Y45286770I-15000J0D01*
G01*
X47832420D01*
G75*
G02*
X47817420Y45301770I0J15000D01*
G01*
X47932510D02*
Y45356770D01*
G75*
G02*
X47947510Y45371770I15000J0D01*
G01*
X48022510D01*
G75*
G02*
X48037510Y45356770I0J-15000D01*
G01*
Y45301770D01*
G75*
G02*
X48022510Y45286770I-15000J0D01*
G01*
X47947510D01*
G75*
G02*
X47932510Y45301770I0J15000D01*
G01*
X48026800Y43397200D02*
X48219200D01*
Y43204800D01*
X48026800D01*
Y43397200D01*
X48038850Y48236470D02*
X48231250D01*
Y48044070D01*
X48038850D01*
Y48236470D01*
X48039550Y45301770D02*
Y45356770D01*
G75*
G02*
X48054550Y45371770I15000J0D01*
G01*
X48129550D01*
G75*
G02*
X48144550Y45356770I0J-15000D01*
G01*
Y45301770D01*
G75*
G02*
X48129550Y45286770I-15000J0D01*
G01*
X48054550D01*
G75*
G02*
X48039550Y45301770I0J15000D01*
G01*
X48131550Y45002770D02*
Y45057770D01*
G75*
G02*
X48146550Y45072770I15000J0D01*
G01*
X48221550D01*
G75*
G02*
X48236550Y45057770I0J-15000D01*
G01*
Y45002770D01*
G75*
G02*
X48221550Y44987770I-15000J0D01*
G01*
X48146550D01*
G75*
G02*
X48131550Y45002770I0J15000D01*
G01*
Y45127770D02*
Y45182770D01*
G75*
G02*
X48146550Y45197770I15000J0D01*
G01*
X48221550D01*
G75*
G02*
X48236550Y45182770I0J-15000D01*
G01*
Y45127770D01*
G75*
G02*
X48221550Y45112770I-15000J0D01*
G01*
X48146550D01*
G75*
G02*
X48131550Y45127770I0J15000D01*
G01*
X48280800Y43397200D02*
X48473200D01*
Y43204800D01*
X48280800D01*
Y43397200D01*
X48292850Y48236470D02*
X48485250D01*
Y48044070D01*
X48292850D01*
Y48236470D01*
X48316410Y44806270D02*
G75*
G02*
X48437690I60640J0D01*
G01*
G75*
G02*
X48316410I-60640J0D01*
G01*
X48534800Y43397200D02*
X48727200D01*
Y43204800D01*
X48534800D01*
Y43397200D01*
X48544850Y45735470D02*
X48737250D01*
Y45543070D01*
X48544850D01*
Y45735470D01*
Y45989470D02*
X48737250D01*
Y45797070D01*
X48544850D01*
Y45989470D01*
Y46243470D02*
X48737250D01*
Y46051070D01*
X48544850D01*
Y46243470D01*
Y46388570D02*
X48564850D01*
Y46325070D01*
X48628350D01*
Y46305070D01*
X48544850D01*
Y46388570D01*
Y46497470D02*
X48628350D01*
Y46477470D01*
X48564850D01*
Y46413970D01*
X48544850D01*
Y46497470D01*
Y46751470D02*
X48737250D01*
Y46559070D01*
X48544850D01*
Y46751470D01*
X48653750Y46325070D02*
X48717250D01*
Y46388570D01*
X48737250D01*
Y46305070D01*
X48653750D01*
Y46325070D01*
Y46497470D02*
X48737250D01*
Y46413970D01*
X48717250D01*
Y46477470D01*
X48653750D01*
Y46497470D01*
X48546850Y48236470D02*
X48739250D01*
Y48044070D01*
X48546850D01*
Y48236470D01*
X42303700Y43246550D02*
G36*
X42303700Y43246550D02*
Y43153000D01*
G75*
G03*
X42391000Y43065700I87300J0D01*
G01*
X48795000D01*
G75*
G03*
X48882300Y43153000I0J87300D01*
G01*
Y43246550D01*
X48727200D01*
Y43204800D01*
X48534800D01*
Y43246550D01*
X48473200D01*
Y43204800D01*
X48280800D01*
Y43246550D01*
X48219200D01*
Y43204800D01*
X48026800D01*
Y43246550D01*
X47965200D01*
Y43204800D01*
X47772800D01*
Y43246550D01*
X47711200D01*
Y43204800D01*
X47518800D01*
Y43246550D01*
X47457200D01*
Y43204800D01*
X47264800D01*
Y43246550D01*
X46964200D01*
Y43204800D01*
X46771800D01*
Y43246550D01*
X46710200D01*
Y43204800D01*
X46517800D01*
Y43246550D01*
X46456200D01*
Y43204800D01*
X46263800D01*
Y43246550D01*
X46202200D01*
Y43204800D01*
X46009800D01*
Y43246550D01*
X45948200D01*
Y43204800D01*
X45864700D01*
Y43224800D01*
X45928200D01*
Y43246550D01*
X45775800D01*
Y43224800D01*
X45839300D01*
Y43204800D01*
X45755800D01*
Y43246550D01*
X45694200D01*
Y43204800D01*
X45501800D01*
Y43246550D01*
X45440200D01*
Y43204800D01*
X45247800D01*
Y43246550D01*
X45186200D01*
Y43204800D01*
X44993800D01*
Y43246550D01*
X43390050D01*
Y43243270D01*
G75*
G02*
Y43243250I-6590J-10D01*
G01*
G75*
G02*
X43385050Y43238270I-5000J0D01*
G01*
X43165050D01*
G75*
G02*
X43160050Y43243250I0J4980D01*
G01*
G75*
G02*
Y43243270I6590J10D01*
G01*
Y43246550D01*
X42770050D01*
Y43243270D01*
G75*
G02*
Y43243250I-6590J-10D01*
G01*
G75*
G02*
X42765050Y43238270I-5000J0D01*
G01*
X42545050D01*
G75*
G02*
X42540050Y43243250I0J4980D01*
G01*
G75*
G02*
Y43243270I6590J10D01*
G01*
Y43246550D01*
X42303700D01*
G37*
Y43301000D02*
G36*
X42303700Y43301000D02*
Y43246550D01*
X42540050D01*
Y43301000D01*
X42303700D01*
G37*
X42770050D02*
G36*
X42770050Y43301000D02*
Y43246550D01*
X43160050D01*
Y43301000D01*
X42770050D01*
G37*
X43390050D02*
G36*
X43390050Y43301000D02*
Y43246550D01*
X44993800D01*
Y43301000D01*
X43390050D01*
G37*
X45186200D02*
G36*
X45186200Y43301000D02*
Y43246550D01*
X45247800D01*
Y43301000D01*
X45186200D01*
G37*
X45440200D02*
G36*
X45440200Y43301000D02*
Y43246550D01*
X45501800D01*
Y43301000D01*
X45440200D01*
G37*
X45694200D02*
G36*
X45694200Y43301000D02*
Y43246550D01*
X45755800D01*
Y43288300D01*
X45775800D01*
Y43246550D01*
X45928200D01*
Y43288300D01*
X45948200D01*
Y43246550D01*
X46009800D01*
Y43301000D01*
X45694200D01*
G37*
X46202200D02*
G36*
X46202200Y43301000D02*
Y43246550D01*
X46263800D01*
Y43301000D01*
X46202200D01*
G37*
X46456200D02*
G36*
X46456200Y43301000D02*
Y43246550D01*
X46517800D01*
Y43301000D01*
X46456200D01*
G37*
X46710200D02*
G36*
X46710200Y43301000D02*
Y43246550D01*
X46771800D01*
Y43301000D01*
X46710200D01*
G37*
X46964200D02*
G36*
X46964200Y43301000D02*
Y43246550D01*
X47264800D01*
Y43301000D01*
X46964200D01*
G37*
X47457200D02*
G36*
X47457200Y43301000D02*
Y43246550D01*
X47518800D01*
Y43301000D01*
X47457200D01*
G37*
X47711200D02*
G36*
X47711200Y43301000D02*
Y43246550D01*
X47772800D01*
Y43301000D01*
X47711200D01*
G37*
X47965200D02*
G36*
X47965200Y43301000D02*
Y43246550D01*
X48026800D01*
Y43301000D01*
X47965200D01*
G37*
X48219200D02*
G36*
X48219200Y43301000D02*
Y43246550D01*
X48280800D01*
Y43301000D01*
X48219200D01*
G37*
X48473200D02*
G36*
X48473200Y43301000D02*
Y43246550D01*
X48534800D01*
Y43301000D01*
X48473200D01*
G37*
X48727200D02*
G36*
X48727200Y43301000D02*
Y43246550D01*
X48882300D01*
Y43301000D01*
X48727200D01*
G37*
X42303700Y43355450D02*
G36*
X42303700Y43355450D02*
Y43301000D01*
X42540050D01*
Y43355450D01*
X42303700D01*
G37*
X42770050D02*
G36*
X42770050Y43355450D02*
Y43301000D01*
X43160050D01*
Y43355450D01*
X42770050D01*
G37*
X43390050D02*
G36*
X43390050Y43355450D02*
Y43301000D01*
X44993800D01*
Y43355450D01*
X43390050D01*
G37*
X45186200D02*
G36*
X45186200Y43355450D02*
Y43301000D01*
X45247800D01*
Y43355450D01*
X45186200D01*
G37*
X45440200D02*
G36*
X45440200Y43355450D02*
Y43301000D01*
X45501800D01*
Y43355450D01*
X45440200D01*
G37*
X45694200D02*
G36*
X45694200Y43355450D02*
Y43301000D01*
X46009800D01*
Y43355450D01*
X45948200D01*
Y43313700D01*
X45928200D01*
Y43355450D01*
X45775800D01*
Y43313700D01*
X45755800D01*
Y43355450D01*
X45694200D01*
G37*
X46202200D02*
G36*
X46202200Y43355450D02*
Y43301000D01*
X46263800D01*
Y43355450D01*
X46202200D01*
G37*
X46456200D02*
G36*
X46456200Y43355450D02*
Y43301000D01*
X46517800D01*
Y43355450D01*
X46456200D01*
G37*
X46710200D02*
G36*
X46710200Y43355450D02*
Y43301000D01*
X46771800D01*
Y43355450D01*
X46710200D01*
G37*
X46964200D02*
G36*
X46964200Y43355450D02*
Y43301000D01*
X47264800D01*
Y43355450D01*
X46964200D01*
G37*
X47457200D02*
G36*
X47457200Y43355450D02*
Y43301000D01*
X47518800D01*
Y43355450D01*
X47457200D01*
G37*
X47711200D02*
G36*
X47711200Y43355450D02*
Y43301000D01*
X47772800D01*
Y43355450D01*
X47711200D01*
G37*
X47965200D02*
G36*
X47965200Y43355450D02*
Y43301000D01*
X48026800D01*
Y43355450D01*
X47965200D01*
G37*
X48219200D02*
G36*
X48219200Y43355450D02*
Y43301000D01*
X48280800D01*
Y43355450D01*
X48219200D01*
G37*
X48473200D02*
G36*
X48473200Y43355450D02*
Y43301000D01*
X48534800D01*
Y43355450D01*
X48473200D01*
G37*
X48727200D02*
G36*
X48727200Y43355450D02*
Y43301000D01*
X48882300D01*
Y43307000D01*
G75*
G02*
X48886020Y43315980I12730J-10D01*
G01*
X48925490Y43355450D01*
X48727200D01*
G37*
X42303700Y43488270D02*
G36*
X42303700Y43488270D02*
Y43355450D01*
X42540050D01*
Y43488270D01*
X42303700D01*
G37*
X42770050D02*
G36*
X42770050Y43488270D02*
Y43355450D01*
X43160050D01*
Y43488270D01*
X42770050D01*
G37*
X43390050D02*
G36*
X43390050Y43488270D02*
Y43355450D01*
X44993800D01*
Y43397200D01*
X45186200D01*
Y43355450D01*
X45247800D01*
Y43397200D01*
X45440200D01*
Y43355450D01*
X45501800D01*
Y43397200D01*
X45694200D01*
Y43355450D01*
X45755800D01*
Y43397200D01*
X45839300D01*
Y43377200D01*
X45775800D01*
Y43355450D01*
X45928200D01*
Y43377200D01*
X45864700D01*
Y43397200D01*
X45948200D01*
Y43355450D01*
X46009800D01*
Y43397200D01*
X46202200D01*
Y43355450D01*
X46263800D01*
Y43397200D01*
X46456200D01*
Y43355450D01*
X46517800D01*
Y43397200D01*
X46710200D01*
Y43355450D01*
X46771800D01*
Y43397200D01*
X46964200D01*
Y43355450D01*
X47264800D01*
Y43397200D01*
X47457200D01*
Y43355450D01*
X47518800D01*
Y43397200D01*
X47711200D01*
Y43355450D01*
X47772800D01*
Y43397200D01*
X47965200D01*
Y43355450D01*
X48026800D01*
Y43397200D01*
X48219200D01*
Y43355450D01*
X48280800D01*
Y43397200D01*
X48473200D01*
Y43355450D01*
X48534800D01*
Y43397200D01*
X48727200D01*
Y43355450D01*
X48925490D01*
X49058310Y43488270D01*
X43390050D01*
G37*
X42303700Y43778270D02*
G36*
X42303700Y43778270D02*
Y43488270D01*
X42540050D01*
Y43733270D01*
G75*
G02*
Y43733290I6590J10D01*
G01*
G75*
G02*
X42545050Y43738270I5000J0D01*
G01*
X42765050D01*
G75*
G02*
X42770050Y43733290I0J-4980D01*
G01*
G75*
G02*
Y43733270I-6590J-10D01*
G01*
Y43488270D01*
X43160050D01*
Y43733270D01*
G75*
G02*
Y43733290I6590J10D01*
G01*
G75*
G02*
X43165050Y43738270I5000J0D01*
G01*
X43385050D01*
G75*
G02*
X43390050Y43733290I0J-4980D01*
G01*
G75*
G02*
Y43733270I-6590J-10D01*
G01*
Y43488270D01*
X49058310D01*
X49136300Y43566260D01*
Y43778270D01*
X47116280D01*
G75*
G02*
X46997820I-59230J13000D01*
G01*
X45266690D01*
G75*
G02*
X45145410I-60640J0D01*
G01*
X44656690D01*
G75*
G02*
X44535410I-60640J0D01*
G01*
X44039690D01*
G75*
G02*
X43918410I-60640J0D01*
G01*
X42303700D01*
G37*
Y43958270D02*
G36*
X42303700Y43958270D02*
Y43778270D01*
X43918410D01*
G75*
G02*
X44039690I60640J0D01*
G01*
X44535410D01*
G75*
G02*
X44656690I60640J0D01*
G01*
X45145410D01*
G75*
G02*
X45266690I60640J0D01*
G01*
X46997820D01*
G75*
G02*
X46996410Y43791270I59230J13000D01*
G01*
G75*
G02*
X47117690I60640J0D01*
G01*
G75*
G02*
X47116280Y43778270I-60640J0D01*
G01*
X49136300D01*
Y43958270D01*
X43205050D01*
Y43848270D01*
G75*
G02*
Y43848250I-6590J-10D01*
G01*
G75*
G02*
X43200050Y43843270I-5000J0D01*
G01*
X42710050D01*
G75*
G02*
X42705050Y43848250I0J4980D01*
G01*
G75*
G02*
Y43848270I6590J10D01*
G01*
Y43958270D01*
X42303700D01*
G37*
Y44137670D02*
G36*
X42303700Y44137670D02*
Y43958270D01*
X42705050D01*
Y44068270D01*
G75*
G02*
Y44068290I6590J10D01*
G01*
G75*
G02*
X42710050Y44073270I5000J0D01*
G01*
X43200050D01*
G75*
G02*
X43205050Y44068290I0J-4980D01*
G01*
G75*
G02*
Y44068270I-6590J-10D01*
G01*
Y43958270D01*
X49136300D01*
Y44137670D01*
X47007550D01*
Y44132770D01*
G75*
G02*
Y44132760I-13020J0D01*
G01*
G75*
G02*
X46992550Y44117770I-15000J0D01*
G01*
X46937550D01*
G75*
G02*
X46922550Y44132760I0J14990D01*
G01*
G75*
G02*
Y44132770I13020J10D01*
G01*
Y44137670D01*
X46914090D01*
G75*
G02*
X46888240Y44117770I-25840J6830D01*
G01*
X46885180D01*
Y44137670D01*
X46859780D01*
Y44117770D01*
X46856720D01*
G75*
G02*
X46830870Y44137670I-10J26730D01*
G01*
X46770550D01*
Y44132770D01*
G75*
G02*
Y44132760I-13020J0D01*
G01*
G75*
G02*
X46755550Y44117770I-15000J0D01*
G01*
X46700550D01*
G75*
G02*
X46685550Y44132760I0J14990D01*
G01*
G75*
G02*
Y44132770I13020J10D01*
G01*
Y44137670D01*
X46679550D01*
Y44132770D01*
G75*
G02*
Y44132760I-13020J0D01*
G01*
G75*
G02*
X46664550Y44117770I-15000J0D01*
G01*
X46609550D01*
G75*
G02*
X46594550Y44132760I0J14990D01*
G01*
G75*
G02*
Y44132770I13020J10D01*
G01*
Y44137670D01*
X44841710D01*
G75*
G02*
X44728390I-56660J21600D01*
G01*
X42303700D01*
G37*
Y44159270D02*
G36*
X42303700Y44159270D02*
Y44137670D01*
X44728390D01*
G75*
G02*
X44724410Y44159270I56660J21610D01*
G01*
X42303700D01*
G37*
X44845690D02*
G36*
X44845690Y44159270D02*
G75*
G02*
X44841710Y44137670I-60640J10D01*
G01*
X46594550D01*
Y44159270D01*
X44845690D01*
G37*
X46679550D02*
G36*
X46679550Y44159270D02*
Y44137670D01*
X46685550D01*
Y44159270D01*
X46679550D01*
G37*
X46770550D02*
G36*
X46770550Y44159270D02*
Y44137670D01*
X46830870D01*
G75*
G02*
X46829980Y44144500I25830J6840D01*
G01*
G75*
G02*
Y44144510I40930J10D01*
G01*
Y44157570D01*
X46849980D01*
Y44152770D01*
G75*
G03*
X46859780Y44138700I15000J0D01*
G01*
Y44137670D01*
X46885180D01*
Y44138700D01*
G75*
G03*
X46894980Y44152770I-5200J14070D01*
G01*
Y44157570D01*
X46914980D01*
Y44144510D01*
G75*
G02*
Y44144500I-40930J0D01*
G01*
G75*
G02*
X46914090Y44137670I-26720J10D01*
G01*
X46922550D01*
Y44159270D01*
X46770550D01*
G37*
X47007550D02*
G36*
X47007550Y44159270D02*
Y44137670D01*
X49136300D01*
Y44159270D01*
X47007550D01*
G37*
X42303700Y44202870D02*
G36*
X42303700Y44202870D02*
Y44159270D01*
X44724410D01*
G75*
G02*
X44742900Y44202870I60640J0D01*
G01*
X42303700D01*
G37*
X44827200D02*
G36*
X44827200Y44202870D02*
G75*
G02*
X44845690Y44159270I-42150J-43600D01*
G01*
X46594550D01*
Y44202870D01*
X44827200D01*
G37*
X46679550D02*
G36*
X46679550Y44202870D02*
Y44159270D01*
X46685550D01*
Y44202870D01*
X46679550D01*
G37*
X46770550D02*
G36*
X46770550Y44202870D02*
Y44159270D01*
X46922550D01*
Y44202870D01*
X46914090D01*
G75*
G02*
X46914980Y44196040I-25830J-6840D01*
G01*
G75*
G02*
Y44196030I-40930J0D01*
G01*
Y44182970D01*
X46894980D01*
Y44187770D01*
G75*
G03*
X46885180Y44201840I-15000J0D01*
G01*
Y44202870D01*
X46859780D01*
Y44201840D01*
G75*
G03*
X46849980Y44187770I5200J-14070D01*
G01*
Y44182970D01*
X46829980D01*
Y44196030D01*
G75*
G02*
Y44196040I40930J10D01*
G01*
G75*
G02*
X46830870Y44202870I26720J-10D01*
G01*
X46770550D01*
G37*
X47007550D02*
G36*
X47007550Y44202870D02*
Y44159270D01*
X49136300D01*
Y44202870D01*
X47007550D01*
G37*
X42303700Y44279270D02*
G36*
X42303700Y44279270D02*
Y44202870D01*
X44742900D01*
G75*
G02*
X44827200I42150J-43600D01*
G01*
X46594550D01*
Y44207770D01*
G75*
G02*
Y44207780I13020J10D01*
G01*
G75*
G02*
X46609550Y44222770I15000J0D01*
G01*
X46664550D01*
G75*
G02*
X46679550Y44207780I0J-14990D01*
G01*
G75*
G02*
Y44207770I-13020J0D01*
G01*
Y44202870D01*
X46685550D01*
Y44207770D01*
G75*
G02*
Y44207780I13020J10D01*
G01*
G75*
G02*
X46700550Y44222770I15000J0D01*
G01*
X46755550D01*
G75*
G02*
X46770550Y44207780I0J-14990D01*
G01*
G75*
G02*
Y44207770I-13020J0D01*
G01*
Y44202870D01*
X46830870D01*
G75*
G02*
X46856720Y44222770I25840J-6830D01*
G01*
X46859780D01*
Y44202870D01*
X46885180D01*
Y44222770D01*
X46888240D01*
G75*
G02*
X46914090Y44202870I10J-26730D01*
G01*
X46922550D01*
Y44207770D01*
G75*
G02*
Y44207780I13020J10D01*
G01*
G75*
G02*
X46937550Y44222770I15000J0D01*
G01*
X46992550D01*
G75*
G02*
X47007550Y44207780I0J-14990D01*
G01*
G75*
G02*
Y44207770I-13020J0D01*
G01*
Y44202870D01*
X49136300D01*
Y44279270D01*
X47587100D01*
G75*
G02*
X47580550Y44277770I-6540J13490D01*
G01*
X47525550D01*
G75*
G02*
X47519000Y44279270I-10J14990D01*
G01*
X44475690D01*
G75*
G02*
X44354410I-60640J0D01*
G01*
X42303700D01*
G37*
Y44392770D02*
G36*
X42303700Y44392770D02*
Y44279270D01*
X44354410D01*
G75*
G02*
X44475690I60640J0D01*
G01*
X47519000D01*
G75*
G02*
X47510550Y44292760I6540J13490D01*
G01*
G75*
G02*
Y44292770I13020J10D01*
G01*
Y44367770D01*
G75*
G02*
Y44367780I13020J10D01*
G01*
G75*
G02*
X47525550Y44382770I15000J0D01*
G01*
X47580550D01*
G75*
G02*
X47595550Y44367780I0J-14990D01*
G01*
G75*
G02*
Y44367770I-13020J0D01*
G01*
Y44292770D01*
G75*
G02*
Y44292760I-13020J0D01*
G01*
G75*
G02*
X47587100Y44279270I-14990J0D01*
G01*
X49136300D01*
Y44392770D01*
X45875550D01*
Y44365270D01*
G75*
G02*
Y44365260I-13020J0D01*
G01*
G75*
G02*
X45860550Y44350270I-15000J0D01*
G01*
X45785550D01*
G75*
G02*
X45770550Y44365260I0J14990D01*
G01*
G75*
G02*
Y44365270I13020J10D01*
G01*
Y44392770D01*
X42303700D01*
G37*
Y44486270D02*
G36*
X42303700Y44486270D02*
Y44392770D01*
X45770550D01*
Y44420270D01*
G75*
G02*
Y44420280I13020J10D01*
G01*
G75*
G02*
X45785550Y44435270I15000J0D01*
G01*
X45860550D01*
G75*
G02*
X45875550Y44420280I0J-14990D01*
G01*
G75*
G02*
Y44420270I-13020J0D01*
G01*
Y44392770D01*
X49136300D01*
Y44486270D01*
X47179550D01*
Y44448770D01*
G75*
G02*
Y44448760I-13020J0D01*
G01*
G75*
G02*
X47164550Y44433770I-15000J0D01*
G01*
X47109550D01*
G75*
G02*
X47094550Y44448760I0J14990D01*
G01*
G75*
G02*
Y44448770I13020J10D01*
G01*
Y44486270D01*
X46906660D01*
X46879090Y44458700D01*
G75*
G02*
X46857870I-10610J10630D01*
G01*
X46830300Y44486270D01*
X46330550D01*
Y44485270D01*
G75*
G02*
Y44485260I-13020J0D01*
G01*
G75*
G02*
X46315550Y44470270I-15000J0D01*
G01*
X46240550D01*
G75*
G02*
X46225550Y44485260I0J14990D01*
G01*
G75*
G02*
Y44485270I13020J10D01*
G01*
Y44486270D01*
X45980410D01*
G75*
G02*
X45983050Y44477780I-12350J-8500D01*
G01*
G75*
G02*
Y44477770I-13020J0D01*
G01*
Y44422770D01*
G75*
G02*
Y44422760I-13020J0D01*
G01*
G75*
G02*
X45968050Y44407770I-15000J0D01*
G01*
X45893050D01*
G75*
G02*
X45878050Y44422760I0J14990D01*
G01*
G75*
G02*
Y44422770I13020J10D01*
G01*
Y44477770D01*
G75*
G02*
Y44477780I13020J10D01*
G01*
G75*
G02*
X45880690Y44486270I14990J-10D01*
G01*
X45878050D01*
Y44482770D01*
G75*
G02*
Y44482760I-13020J0D01*
G01*
G75*
G02*
X45863050Y44467770I-15000J0D01*
G01*
X45788050D01*
G75*
G02*
X45773050Y44482760I0J14990D01*
G01*
G75*
G02*
Y44482770I13020J10D01*
G01*
Y44486270D01*
X42303700D01*
G37*
Y44575270D02*
G36*
X42303700Y44575270D02*
Y44486270D01*
X45773050D01*
Y44537770D01*
G75*
G02*
Y44537780I13020J10D01*
G01*
G75*
G02*
X45788050Y44552770I15000J0D01*
G01*
X45863050D01*
G75*
G02*
X45878050Y44537780I0J-14990D01*
G01*
G75*
G02*
Y44537770I-13020J0D01*
G01*
Y44486270D01*
X45880690D01*
G75*
G02*
X45893050Y44492770I12350J-8480D01*
G01*
X45968050D01*
G75*
G02*
X45980410Y44486270I10J-14980D01*
G01*
X46225550D01*
Y44540270D01*
G75*
G02*
Y44540280I13020J10D01*
G01*
G75*
G02*
X46240550Y44555270I15000J0D01*
G01*
X46315550D01*
G75*
G02*
X46330550Y44540280I0J-14990D01*
G01*
G75*
G02*
Y44540270I-13020J0D01*
G01*
Y44486270D01*
X46830300D01*
X46818980Y44497590D01*
G75*
G02*
X46814590Y44508200I10620J10610D01*
G01*
G75*
G02*
X46818980Y44518810I15010J0D01*
G01*
X46872010Y44571840D01*
G75*
G02*
X46877340Y44575270I10610J-10630D01*
G01*
X46655550D01*
Y44545270D01*
G75*
G02*
Y44545260I-13020J0D01*
G01*
G75*
G02*
X46640550Y44530270I-15000J0D01*
G01*
X46565550D01*
G75*
G02*
X46550550Y44545260I0J14990D01*
G01*
G75*
G02*
Y44545270I13020J10D01*
G01*
Y44575270D01*
X46332200D01*
G75*
G02*
X46318050Y44565270I-14140J4990D01*
G01*
X46243050D01*
G75*
G02*
X46228900Y44575270I-10J14990D01*
G01*
X46125550D01*
Y44562770D01*
G75*
G02*
Y44562760I-13020J0D01*
G01*
G75*
G02*
X46110550Y44547770I-15000J0D01*
G01*
X46035550D01*
G75*
G02*
X46020550Y44562760I0J14990D01*
G01*
G75*
G02*
Y44562770I13020J10D01*
G01*
Y44575270D01*
X42303700D01*
G37*
X46887900D02*
G36*
X46887900Y44575270D02*
G75*
G02*
X46893230Y44571840I-5280J-14060D01*
G01*
X46932120Y44532950D01*
G75*
G02*
X46936510Y44522340I-10620J-10610D01*
G01*
G75*
G02*
X46932120Y44511730I-15010J0D01*
G01*
X46906660Y44486270D01*
X47094550D01*
Y44523770D01*
G75*
G02*
Y44523780I13020J10D01*
G01*
G75*
G02*
X47109550Y44538770I15000J0D01*
G01*
X47164550D01*
G75*
G02*
X47179550Y44523780I0J-14990D01*
G01*
G75*
G02*
Y44523770I-13020J0D01*
G01*
Y44486270D01*
X49136300D01*
Y44575270D01*
X47463050D01*
Y44535270D01*
G75*
G02*
Y44535260I-13020J0D01*
G01*
G75*
G02*
X47448050Y44520270I-15000J0D01*
G01*
X47393050D01*
G75*
G02*
X47378050Y44535260I0J14990D01*
G01*
G75*
G02*
Y44535270I13020J10D01*
G01*
Y44575270D01*
X47370550D01*
Y44537770D01*
G75*
G02*
Y44537760I-13020J0D01*
G01*
G75*
G02*
X47355550Y44522770I-15000J0D01*
G01*
X47300550D01*
G75*
G02*
X47285550Y44537760I0J14990D01*
G01*
G75*
G02*
Y44537770I13020J10D01*
G01*
Y44575270D01*
X47275550D01*
Y44537770D01*
G75*
G02*
Y44537760I-13020J0D01*
G01*
G75*
G02*
X47260550Y44522770I-15000J0D01*
G01*
X47205550D01*
G75*
G02*
X47190550Y44537760I0J14990D01*
G01*
G75*
G02*
Y44537770I13020J10D01*
G01*
Y44575270D01*
X46887900D01*
G37*
X42303700Y44660270D02*
G36*
X42303700Y44660270D02*
Y44575270D01*
X46020550D01*
Y44617770D01*
G75*
G02*
Y44617780I13020J10D01*
G01*
G75*
G02*
X46035550Y44632770I15000J0D01*
G01*
X46110550D01*
G75*
G02*
X46125550Y44617780I0J-14990D01*
G01*
G75*
G02*
Y44617770I-13020J0D01*
G01*
Y44575270D01*
X46228900D01*
G75*
G02*
X46228050Y44580260I14140J4980D01*
G01*
G75*
G02*
Y44580270I13020J10D01*
G01*
Y44635270D01*
G75*
G02*
Y44635280I13020J10D01*
G01*
G75*
G02*
X46243050Y44650270I15000J0D01*
G01*
X46318050D01*
G75*
G02*
X46333050Y44635280I0J-14990D01*
G01*
G75*
G02*
Y44635270I-13020J0D01*
G01*
Y44580270D01*
G75*
G02*
Y44580260I-13020J0D01*
G01*
G75*
G02*
X46332200Y44575270I-14990J-10D01*
G01*
X46550550D01*
Y44600270D01*
G75*
G02*
Y44600280I13020J10D01*
G01*
G75*
G02*
X46565550Y44615270I15000J0D01*
G01*
X46640550D01*
G75*
G02*
X46655550Y44600280I0J-14990D01*
G01*
G75*
G02*
Y44600270I-13020J0D01*
G01*
Y44575270D01*
X46877340D01*
G75*
G02*
X46887900I5280J-14050D01*
G01*
X47190550D01*
Y44612770D01*
G75*
G02*
Y44612780I13020J10D01*
G01*
G75*
G02*
X47205550Y44627770I15000J0D01*
G01*
X47260550D01*
G75*
G02*
X47275550Y44612780I0J-14990D01*
G01*
G75*
G02*
Y44612770I-13020J0D01*
G01*
Y44575270D01*
X47285550D01*
Y44612770D01*
G75*
G02*
Y44612780I13020J10D01*
G01*
G75*
G02*
X47300550Y44627770I15000J0D01*
G01*
X47355550D01*
G75*
G02*
X47370550Y44612780I0J-14990D01*
G01*
G75*
G02*
Y44612770I-13020J0D01*
G01*
Y44575270D01*
X47378050D01*
Y44610270D01*
G75*
G02*
Y44610280I13020J10D01*
G01*
G75*
G02*
X47393050Y44625270I15000J0D01*
G01*
X47448050D01*
G75*
G02*
X47463050Y44610280I0J-14990D01*
G01*
G75*
G02*
Y44610270I-13020J0D01*
G01*
Y44575270D01*
X49136300D01*
Y44660270D01*
X46318070D01*
G75*
G02*
X46318050I-10J13020D01*
G01*
X46243050D01*
G75*
G02*
X46243030I-10J13020D01*
G01*
X45890550D01*
Y44622770D01*
G75*
G02*
Y44622760I-13020J0D01*
G01*
G75*
G02*
X45875550Y44607770I-15000J0D01*
G01*
X45820550D01*
G75*
G02*
X45805550Y44622760I0J14990D01*
G01*
G75*
G02*
Y44622770I13020J10D01*
G01*
Y44660270D01*
X42303700D01*
G37*
Y44745670D02*
G36*
X42303700Y44745670D02*
Y44660270D01*
X45805550D01*
Y44697770D01*
G75*
G02*
Y44697780I13020J10D01*
G01*
G75*
G02*
X45820550Y44712770I15000J0D01*
G01*
X45875550D01*
G75*
G02*
X45890550Y44697780I0J-14990D01*
G01*
G75*
G02*
Y44697770I-13020J0D01*
G01*
Y44660270D01*
X46243030D01*
G75*
G02*
X46228050Y44675260I0J14990D01*
G01*
G75*
G02*
Y44675270I13020J10D01*
G01*
Y44730270D01*
G75*
G02*
Y44730280I13020J10D01*
G01*
G75*
G02*
X46243050Y44745270I15000J0D01*
G01*
X46318050D01*
G75*
G02*
X46333050Y44730280I0J-14990D01*
G01*
G75*
G02*
Y44730270I-13020J0D01*
G01*
Y44675270D01*
G75*
G02*
Y44675260I-13020J0D01*
G01*
G75*
G02*
X46318070Y44660270I-14980J0D01*
G01*
X49136300D01*
Y44745670D01*
X48379250D01*
G75*
G02*
X48374850I-2200J60550D01*
G01*
X47230550D01*
Y44692770D01*
G75*
G02*
Y44692760I-13020J0D01*
G01*
G75*
G02*
X47215550Y44677770I-15000J0D01*
G01*
X47160550D01*
G75*
G02*
X47145550Y44692760I0J14990D01*
G01*
G75*
G02*
Y44692770I13020J10D01*
G01*
Y44745670D01*
X46661490D01*
G75*
G02*
X46664010Y44737340I-12490J-8330D01*
G01*
G75*
G02*
X46659620Y44726730I-15010J0D01*
G01*
X46606590Y44673700D01*
G75*
G02*
X46585370I-10610J10630D01*
G01*
X46546480Y44712590D01*
G75*
G02*
X46542090Y44723200I10620J10610D01*
G01*
G75*
G02*
X46546480Y44733810I15010J0D01*
G01*
X46558340Y44745670D01*
X45808050D01*
Y44718170D01*
G75*
G02*
Y44718160I-13020J0D01*
G01*
G75*
G02*
X45793050Y44703170I-15000J0D01*
G01*
X45718050D01*
G75*
G02*
X45703050Y44718160I0J14990D01*
G01*
G75*
G02*
Y44718170I13020J10D01*
G01*
Y44745670D01*
X42303700D01*
G37*
Y44810970D02*
G36*
X42303700Y44810970D02*
Y44745670D01*
X45703050D01*
Y44773170D01*
G75*
G02*
Y44773180I13020J10D01*
G01*
G75*
G02*
X45718050Y44788170I15000J0D01*
G01*
X45793050D01*
G75*
G02*
X45808050Y44773180I0J-14990D01*
G01*
G75*
G02*
Y44773170I-13020J0D01*
G01*
Y44745670D01*
X46558340D01*
X46599510Y44786840D01*
G75*
G02*
X46620730I10610J-10630D01*
G01*
X46659620Y44747950D01*
G75*
G02*
X46661490Y44745670I-10620J-10620D01*
G01*
X47145550D01*
Y44767770D01*
X47100550D01*
G75*
G02*
X47085550Y44782760I0J14990D01*
G01*
G75*
G02*
Y44782770I13020J10D01*
G01*
Y44810970D01*
X44416190D01*
G75*
G02*
X44294910I-60640J0D01*
G01*
X42303700D01*
G37*
X47170550D02*
G36*
X47170550Y44810970D02*
Y44782770D01*
X47205550D01*
Y44810970D01*
X47170550D01*
G37*
X47230550Y44767770D02*
G36*
X47230550Y44767770D02*
Y44745670D01*
X48374850D01*
G75*
G02*
X48316410Y44806270I2200J60600D01*
G01*
G75*
G02*
X48316590Y44810970I60640J30D01*
G01*
X47807320D01*
Y44790770D01*
G75*
G02*
Y44790760I-13020J0D01*
G01*
G75*
G02*
X47792320Y44775770I-15000J0D01*
G01*
X47717320D01*
G75*
G02*
X47702320Y44790760I0J14990D01*
G01*
G75*
G02*
Y44790770I13020J10D01*
G01*
Y44810970D01*
X47290550D01*
Y44782770D01*
G75*
G02*
Y44782760I-13020J0D01*
G01*
G75*
G02*
X47275550Y44767770I-15000J0D01*
G01*
X47230550D01*
G37*
X48437690Y44806270D02*
G36*
X48437690Y44806270D02*
G75*
G02*
X48379250Y44745670I-60640J0D01*
G01*
X49136300D01*
Y44810970D01*
X48437510D01*
G75*
G02*
X48437690Y44806270I-60460J-4670D01*
G01*
G37*
X42303700Y44922870D02*
G36*
X42303700Y44922870D02*
Y44810970D01*
X44294910D01*
G75*
G02*
X44416190I60640J0D01*
G01*
X47085550D01*
Y44857770D01*
G75*
G02*
Y44857780I13020J10D01*
G01*
G75*
G02*
X47100550Y44872770I15000J0D01*
G01*
X47155550D01*
G75*
G02*
X47170550Y44857780I0J-14990D01*
G01*
G75*
G02*
Y44857770I-13020J0D01*
G01*
Y44810970D01*
X47205550D01*
Y44857770D01*
G75*
G02*
Y44857780I13020J10D01*
G01*
G75*
G02*
X47220550Y44872770I15000J0D01*
G01*
X47275550D01*
G75*
G02*
X47290550Y44857780I0J-14990D01*
G01*
G75*
G02*
Y44857770I-13020J0D01*
G01*
Y44810970D01*
X47702320D01*
Y44845770D01*
G75*
G02*
X47711310Y44859510I15010J-10D01*
G01*
G75*
G02*
X47702320Y44879510I17760J20000D01*
G01*
Y44882570D01*
X47723250D01*
G75*
G03*
X47737320Y44872770I14070J5200D01*
G01*
X47742120D01*
Y44860770D01*
X47767520D01*
Y44872770D01*
X47772320D01*
G75*
G03*
X47786390Y44882570I0J15000D01*
G01*
X47807320D01*
Y44879510D01*
G75*
G02*
X47798330Y44859510I-26750J0D01*
G01*
G75*
G02*
X47807320Y44845770I-6020J-13750D01*
G01*
Y44810970D01*
X48316590D01*
G75*
G02*
X48437510I60460J-4700D01*
G01*
X49136300D01*
Y44922870D01*
X49102150D01*
G75*
G02*
X48993950I-54100J27400D01*
G01*
X47804560D01*
G75*
G02*
X47807320Y44911040I-23970J-11830D01*
G01*
G75*
G02*
Y44911030I-40930J0D01*
G01*
Y44907970D01*
X47786390D01*
G75*
G03*
X47772320Y44917770I-14070J-5200D01*
G01*
X47767520D01*
Y44922870D01*
X47742120D01*
Y44917770D01*
X47737320D01*
G75*
G03*
X47723250Y44907970I0J-15000D01*
G01*
X47702320D01*
Y44911030D01*
G75*
G02*
Y44911040I40930J10D01*
G01*
G75*
G02*
X47705080Y44922870I26730J0D01*
G01*
X46650550D01*
Y44903770D01*
G75*
G02*
Y44903760I-13020J0D01*
G01*
G75*
G02*
X46635550Y44888770I-15000J0D01*
G01*
X46560550D01*
G75*
G02*
X46545550Y44903760I0J14990D01*
G01*
G75*
G02*
Y44903770I13020J10D01*
G01*
Y44922870D01*
X45572490D01*
G75*
G02*
X45553610I-9440J59870D01*
G01*
X42303700D01*
G37*
Y44950270D02*
G36*
X42303700Y44950270D02*
Y44922870D01*
X45553610D01*
G75*
G02*
X45511850Y44950270I9440J59910D01*
G01*
X42303700D01*
G37*
X45614250D02*
G36*
X45614250Y44950270D02*
G75*
G02*
X45572490Y44922870I-51200J32510D01*
G01*
X46545550D01*
Y44950270D01*
X46326450D01*
G75*
G02*
X46303810Y44937770I-22630J14240D01*
G01*
X46290750D01*
Y44950270D01*
X46265350D01*
Y44937770D01*
X46252290D01*
G75*
G02*
X46229650Y44950270I-10J26740D01*
G01*
X45614250D01*
G37*
X46650550D02*
G36*
X46650550Y44950270D02*
Y44922870D01*
X47705080D01*
G75*
G02*
X47729060Y44937770I23970J-11830D01*
G01*
X47742120D01*
Y44922870D01*
X47767520D01*
Y44937770D01*
X47780580D01*
G75*
G02*
X47804560Y44922870I10J-26730D01*
G01*
X48993950D01*
G75*
G02*
X48987410Y44950270I54100J27390D01*
G01*
X46650550D01*
G37*
X49108690D02*
G36*
X49108690Y44950270D02*
G75*
G02*
X49102150Y44922870I-60640J-10D01*
G01*
X49136300D01*
Y44950270D01*
X49108690D01*
G37*
X42303700Y45007870D02*
G36*
X42303700Y45007870D02*
Y44950270D01*
X45511850D01*
G75*
G02*
X45502410Y44982770I51200J32490D01*
G01*
G75*
G02*
X45507850Y45007870I60640J0D01*
G01*
X44713050D01*
Y44997770D01*
G75*
G02*
Y44997760I-13020J0D01*
G01*
G75*
G02*
X44698050Y44982770I-15000J0D01*
G01*
X44643050D01*
G75*
G02*
X44628050Y44997760I0J14990D01*
G01*
G75*
G02*
Y44997770I13020J10D01*
G01*
Y45007870D01*
X42303700D01*
G37*
X45623690Y44982770D02*
G36*
X45623690Y44982770D02*
G75*
G02*
X45614250Y44950270I-60640J-10D01*
G01*
X46229650D01*
G75*
G02*
X46225550Y44964500I22630J14220D01*
G01*
G75*
G02*
Y44964510I40930J10D01*
G01*
Y44967570D01*
X46246480D01*
G75*
G03*
X46260550Y44957770I14070J5200D01*
G01*
X46265350D01*
Y44950270D01*
X46290750D01*
Y44957770D01*
X46295550D01*
G75*
G03*
X46309620Y44967570I0J15000D01*
G01*
X46330550D01*
Y44964510D01*
G75*
G02*
Y44964500I-40930J0D01*
G01*
G75*
G02*
X46326450Y44950270I-26730J-10D01*
G01*
X46545550D01*
Y44958770D01*
G75*
G02*
Y44958780I13020J10D01*
G01*
G75*
G02*
X46560550Y44973770I15000J0D01*
G01*
X46635550D01*
G75*
G02*
X46650550Y44958780I0J-14990D01*
G01*
G75*
G02*
Y44958770I-13020J0D01*
G01*
Y44950270D01*
X48987410D01*
G75*
G02*
X49029090Y45007870I60640J0D01*
G01*
X48236550D01*
Y45002770D01*
G75*
G02*
Y45002760I-13020J0D01*
G01*
G75*
G02*
X48221550Y44987770I-15000J0D01*
G01*
X48146550D01*
G75*
G02*
X48131550Y45002760I0J14990D01*
G01*
G75*
G02*
Y45002770I13020J10D01*
G01*
Y45007870D01*
X47375860D01*
G75*
G02*
X47365550Y45003770I-10300J10890D01*
G01*
X47310550D01*
G75*
G02*
X47300240Y45007870I-10J14990D01*
G01*
X46327790D01*
G75*
G02*
X46330550Y44996040I-23970J-11830D01*
G01*
G75*
G02*
Y44996030I-40930J0D01*
G01*
Y44992970D01*
X46309620D01*
G75*
G03*
X46295550Y45002770I-14070J-5200D01*
G01*
X46290750D01*
Y45007870D01*
X46265350D01*
Y45002770D01*
X46260550D01*
G75*
G03*
X46246480Y44992970I0J-15000D01*
G01*
X46225550D01*
Y44996030D01*
G75*
G02*
Y44996040I40930J10D01*
G01*
G75*
G02*
X46228310Y45007870I26730J0D01*
G01*
X45618250D01*
G75*
G02*
X45623690Y44982770I-55200J-25100D01*
G01*
G37*
X49067010Y45007870D02*
G36*
X49067010Y45007870D02*
G75*
G02*
X49108690Y44950270I-18960J-57600D01*
G01*
X49136300D01*
Y45007870D01*
X49067010D01*
G37*
X42303700Y45035270D02*
G36*
X42303700Y45035270D02*
Y45007870D01*
X44628050D01*
Y45035270D01*
X42303700D01*
G37*
X44713050D02*
G36*
X44713050Y45035270D02*
Y45007870D01*
X45507850D01*
G75*
G02*
X45532700Y45035270I55200J-25090D01*
G01*
X44713050D01*
G37*
X45593400D02*
G36*
X45593400Y45035270D02*
G75*
G02*
X45618250Y45007870I-30350J-52490D01*
G01*
X46228310D01*
G75*
G02*
X46252290Y45022770I23970J-11830D01*
G01*
X46265350D01*
Y45007870D01*
X46290750D01*
Y45022770D01*
X46303810D01*
G75*
G02*
X46327790Y45007870I10J-26730D01*
G01*
X47300240D01*
G75*
G02*
X47295550Y45018760I10300J10890D01*
G01*
G75*
G02*
Y45018770I13020J10D01*
G01*
Y45035270D01*
X45593400D01*
G37*
X47380550D02*
G36*
X47380550Y45035270D02*
Y45018770D01*
G75*
G02*
Y45018760I-13020J0D01*
G01*
G75*
G02*
X47375860Y45007870I-14990J0D01*
G01*
X48131550D01*
Y45035270D01*
X47380550D01*
G37*
X48236550D02*
G36*
X48236550Y45035270D02*
Y45007870D01*
X49029090D01*
G75*
G02*
X49067010I18960J-57600D01*
G01*
X49136300D01*
Y45035270D01*
X48236550D01*
G37*
X42303700Y45081070D02*
G36*
X42303700Y45081070D02*
Y45035270D01*
X44628050D01*
Y45072770D01*
G75*
G02*
Y45072780I13020J10D01*
G01*
G75*
G02*
X44630550Y45081070I14990J0D01*
G01*
X42303700D01*
G37*
X44713050Y45072770D02*
G36*
X44713050Y45072770D02*
Y45035270D01*
X45532700D01*
G75*
G02*
X45593400I30350J-52510D01*
G01*
X47295550D01*
Y45081070D01*
X46650550D01*
Y45053570D01*
G75*
G02*
Y45053560I-13020J0D01*
G01*
G75*
G02*
X46635550Y45038570I-15000J0D01*
G01*
X46560550D01*
G75*
G02*
X46545550Y45053560I0J14990D01*
G01*
G75*
G02*
Y45053570I13020J10D01*
G01*
Y45081070D01*
X46333750D01*
X46333540Y45080270D01*
X46328050Y45074780D01*
X46320550Y45072770D01*
X46245550D01*
X46238050Y45074780D01*
X46232560Y45080270D01*
X46232350Y45081070D01*
X44710550D01*
G75*
G02*
X44713050Y45072780I-12490J-8290D01*
G01*
G75*
G02*
Y45072770I-13020J0D01*
G01*
G37*
X47380550Y45081070D02*
G36*
X47380550Y45081070D02*
Y45035270D01*
X48131550D01*
Y45057770D01*
G75*
G02*
Y45057780I13020J10D01*
G01*
G75*
G02*
X48146550Y45072770I15000J0D01*
G01*
X48221550D01*
G75*
G02*
X48236550Y45057780I0J-14990D01*
G01*
G75*
G02*
Y45057770I-13020J0D01*
G01*
Y45035270D01*
X49136300D01*
Y45081070D01*
X47380550D01*
G37*
X42303700Y45130170D02*
G36*
X42303700Y45130170D02*
Y45081070D01*
X44630550D01*
G75*
G02*
X44643050Y45087770I12490J-8290D01*
G01*
X44698050D01*
G75*
G02*
X44710550Y45081070I10J-14990D01*
G01*
X46232350D01*
X46230550Y45087770D01*
Y45130170D01*
X42303700D01*
G37*
X46335550Y45087770D02*
G36*
X46335550Y45087770D02*
X46333750Y45081070D01*
X46545550D01*
Y45108570D01*
G75*
G02*
Y45108580I13020J10D01*
G01*
G75*
G02*
X46560550Y45123570I15000J0D01*
G01*
X46635550D01*
G75*
G02*
X46650550Y45108580I0J-14990D01*
G01*
G75*
G02*
Y45108570I-13020J0D01*
G01*
Y45081070D01*
X47295550D01*
Y45093770D01*
G75*
G02*
Y45093780I13020J10D01*
G01*
G75*
G02*
X47310550Y45108770I15000J0D01*
G01*
X47365550D01*
G75*
G02*
X47380550Y45093780I0J-14990D01*
G01*
G75*
G02*
Y45093770I-13020J0D01*
G01*
Y45081070D01*
X49136300D01*
Y45130170D01*
X48236550D01*
Y45127770D01*
G75*
G02*
Y45127760I-13020J0D01*
G01*
G75*
G02*
X48221550Y45112770I-15000J0D01*
G01*
X48146550D01*
G75*
G02*
X48131550Y45127760I0J14990D01*
G01*
G75*
G02*
Y45127770I13020J10D01*
G01*
Y45130170D01*
X46335550D01*
Y45087770D01*
G37*
X42303700Y45181270D02*
G36*
X42303700Y45181270D02*
Y45130170D01*
X46230550D01*
Y45142770D01*
X46232560Y45150270D01*
X46238050Y45155760D01*
X46245550Y45157770D01*
X46257290D01*
X46243920Y45161350D01*
X46234130Y45171140D01*
X46231420Y45181270D01*
X42303700D01*
G37*
X46256350D02*
G36*
X46256350Y45181270D02*
X46256980Y45180460D01*
X46265550Y45177770D01*
X46270350D01*
Y45157770D01*
X46295750D01*
Y45177770D01*
X46300550D01*
X46309120Y45180460D01*
X46309750Y45181270D01*
X46256350D01*
G37*
X46308810Y45157770D02*
G36*
X46308810Y45157770D02*
X46320550D01*
X46328050Y45155760D01*
X46333540Y45150270D01*
X46335550Y45142770D01*
Y45130170D01*
X48131550D01*
Y45181270D01*
X46650550D01*
Y45153770D01*
G75*
G02*
Y45153760I-13020J0D01*
G01*
G75*
G02*
X46635550Y45138770I-15000J0D01*
G01*
X46560550D01*
G75*
G02*
X46545550Y45153760I0J14990D01*
G01*
G75*
G02*
Y45153770I13020J10D01*
G01*
Y45181270D01*
X46334680D01*
X46331970Y45171140D01*
X46322180Y45161350D01*
X46308810Y45157770D01*
G37*
X48236550Y45181270D02*
G36*
X48236550Y45181270D02*
Y45130170D01*
X49136300D01*
Y45181270D01*
X48236550D01*
G37*
X42303700Y45227870D02*
G36*
X42303700Y45227870D02*
Y45181270D01*
X46231420D01*
X46230550Y45184510D01*
Y45187570D01*
X46251480D01*
X46256350Y45181270D01*
X46309750D01*
X46314620Y45187570D01*
X46335550D01*
Y45184510D01*
X46334680Y45181270D01*
X46545550D01*
Y45208770D01*
G75*
G02*
Y45208780I13020J10D01*
G01*
G75*
G02*
X46560550Y45223770I15000J0D01*
G01*
X46635550D01*
G75*
G02*
X46650550Y45208780I0J-14990D01*
G01*
G75*
G02*
Y45208770I-13020J0D01*
G01*
Y45181270D01*
X48131550D01*
Y45182770D01*
G75*
G02*
Y45182780I13020J10D01*
G01*
G75*
G02*
X48146550Y45197770I15000J0D01*
G01*
X48221550D01*
G75*
G02*
X48236550Y45182780I0J-14990D01*
G01*
G75*
G02*
Y45182770I-13020J0D01*
G01*
Y45181270D01*
X49136300D01*
Y45227870D01*
X47186550D01*
Y45217770D01*
G75*
G02*
Y45217760I-13020J0D01*
G01*
G75*
G02*
X47171550Y45202770I-15000J0D01*
G01*
X47096550D01*
G75*
G02*
X47081550Y45217760I0J14990D01*
G01*
G75*
G02*
Y45217770I13020J10D01*
G01*
Y45227870D01*
X46332790D01*
G75*
G02*
X46335550Y45216040I-23970J-11830D01*
G01*
G75*
G02*
Y45216030I-40930J0D01*
G01*
Y45212970D01*
X46314620D01*
G75*
G03*
X46300550Y45222770I-14070J-5200D01*
G01*
X46295750D01*
Y45227870D01*
X46270350D01*
Y45222770D01*
X46265550D01*
G75*
G03*
X46251480Y45212970I0J-15000D01*
G01*
X46230550D01*
Y45216030D01*
G75*
G02*
Y45216040I40930J10D01*
G01*
G75*
G02*
X46233310Y45227870I26730J0D01*
G01*
X44284550D01*
Y45224270D01*
G75*
G02*
Y45224260I-13020J0D01*
G01*
G75*
G02*
X44269550Y45209270I-15000J0D01*
G01*
X44194550D01*
G75*
G02*
X44179550Y45224260I0J14990D01*
G01*
G75*
G02*
Y45224270I13020J10D01*
G01*
Y45227870D01*
X43873050D01*
Y45220270D01*
G75*
G02*
Y45220260I-13020J0D01*
G01*
G75*
G02*
X43858050Y45205270I-15000J0D01*
G01*
X43783050D01*
G75*
G02*
X43768050Y45220260I0J14990D01*
G01*
G75*
G02*
Y45220270I13020J10D01*
G01*
Y45227870D01*
X43653050D01*
Y45220270D01*
G75*
G02*
Y45220260I-13020J0D01*
G01*
G75*
G02*
X43638050Y45205270I-15000J0D01*
G01*
X43563050D01*
G75*
G02*
X43548050Y45220260I0J14990D01*
G01*
G75*
G02*
Y45220270I13020J10D01*
G01*
Y45227870D01*
X42303700D01*
G37*
Y45247770D02*
G36*
X42303700Y45247770D02*
Y45227870D01*
X43548050D01*
Y45247770D01*
X42303700D01*
G37*
X43653050D02*
G36*
X43653050Y45247770D02*
Y45227870D01*
X43768050D01*
Y45247770D01*
X43653050D01*
G37*
X43873050D02*
G36*
X43873050Y45247770D02*
Y45227870D01*
X44179550D01*
Y45247770D01*
X43873050D01*
G37*
X44284550D02*
G36*
X44284550Y45247770D02*
Y45227870D01*
X46233310D01*
G75*
G02*
X46257290Y45242770I23970J-11830D01*
G01*
X46270350D01*
Y45227870D01*
X46295750D01*
Y45242770D01*
X46308810D01*
G75*
G02*
X46332790Y45227870I10J-26730D01*
G01*
X47081550D01*
Y45247770D01*
X44284550D01*
G37*
X47186550D02*
G36*
X47186550Y45247770D02*
Y45227870D01*
X49136300D01*
Y45247770D01*
X47186550D01*
G37*
X42303700Y45320670D02*
G36*
X42303700Y45320670D02*
Y45247770D01*
X43548050D01*
Y45275270D01*
G75*
G02*
Y45275280I13020J10D01*
G01*
G75*
G02*
X43563050Y45290270I15000J0D01*
G01*
X43638050D01*
G75*
G02*
X43653050Y45275280I0J-14990D01*
G01*
G75*
G02*
Y45275270I-13020J0D01*
G01*
Y45247770D01*
X43768050D01*
Y45275270D01*
G75*
G02*
Y45275280I13020J10D01*
G01*
G75*
G02*
X43783050Y45290270I15000J0D01*
G01*
X43858050D01*
G75*
G02*
X43873050Y45275280I0J-14990D01*
G01*
G75*
G02*
Y45275270I-13020J0D01*
G01*
Y45247770D01*
X44179550D01*
Y45279270D01*
G75*
G02*
Y45279280I13020J10D01*
G01*
G75*
G02*
X44194550Y45294270I15000J0D01*
G01*
X44269550D01*
G75*
G02*
X44284550Y45279280I0J-14990D01*
G01*
G75*
G02*
Y45279270I-13020J0D01*
G01*
Y45247770D01*
X47081550D01*
Y45272770D01*
G75*
G02*
Y45272780I13020J10D01*
G01*
G75*
G02*
X47096550Y45287770I15000J0D01*
G01*
X47171550D01*
G75*
G02*
X47186550Y45272780I0J-14990D01*
G01*
G75*
G02*
Y45272770I-13020J0D01*
G01*
Y45247770D01*
X49136300D01*
Y45320670D01*
X48144550D01*
Y45301770D01*
G75*
G02*
Y45301760I-13020J0D01*
G01*
G75*
G02*
X48129550Y45286770I-15000J0D01*
G01*
X48054550D01*
G75*
G02*
X48039550Y45301760I0J14990D01*
G01*
G75*
G02*
Y45301770I13020J10D01*
G01*
Y45320670D01*
X48037510D01*
Y45301770D01*
G75*
G02*
Y45301760I-13020J0D01*
G01*
G75*
G02*
X48022510Y45286770I-15000J0D01*
G01*
X47947510D01*
G75*
G02*
X47932510Y45301760I0J14990D01*
G01*
G75*
G02*
Y45301770I13020J10D01*
G01*
Y45320670D01*
X47922420D01*
Y45301770D01*
G75*
G02*
Y45301760I-13020J0D01*
G01*
G75*
G02*
X47907420Y45286770I-15000J0D01*
G01*
X47832420D01*
G75*
G02*
X47817420Y45301760I0J14990D01*
G01*
G75*
G02*
Y45301770I13020J10D01*
G01*
Y45320670D01*
X47807320D01*
Y45301770D01*
G75*
G02*
Y45301760I-13020J0D01*
G01*
G75*
G02*
X47792320Y45286770I-15000J0D01*
G01*
X47717320D01*
G75*
G02*
X47702320Y45301760I0J14990D01*
G01*
G75*
G02*
Y45301770I13020J10D01*
G01*
Y45320670D01*
X47189550D01*
Y45310270D01*
G75*
G02*
Y45310260I-13020J0D01*
G01*
G75*
G02*
X47174550Y45295270I-15000J0D01*
G01*
X47099550D01*
G75*
G02*
X47084550Y45310260I0J14990D01*
G01*
G75*
G02*
Y45310270I13020J10D01*
G01*
Y45320670D01*
X44316660D01*
G75*
G02*
X44290810Y45300770I-25840J6830D01*
G01*
X44287750D01*
Y45320670D01*
X44262350D01*
Y45300770D01*
X44259290D01*
G75*
G02*
X44233440Y45320670I-10J26730D01*
G01*
X42303700D01*
G37*
Y45402270D02*
G36*
X42303700Y45402270D02*
Y45320670D01*
X44233440D01*
G75*
G02*
X44232550Y45327500I25830J6840D01*
G01*
G75*
G02*
Y45327510I40930J10D01*
G01*
Y45340570D01*
X44252550D01*
Y45335770D01*
G75*
G03*
X44262350Y45321700I15000J0D01*
G01*
Y45320670D01*
X44287750D01*
Y45321700D01*
G75*
G03*
X44297550Y45335770I-5200J14070D01*
G01*
Y45340570D01*
X44317550D01*
Y45327510D01*
G75*
G02*
Y45327500I-40930J0D01*
G01*
G75*
G02*
X44316660Y45320670I-26720J10D01*
G01*
X47084550D01*
Y45365270D01*
G75*
G02*
Y45365290I14690J10D01*
G01*
G75*
G02*
X47085350Y45370100I14860J0D01*
G01*
Y45379230D01*
X47062310Y45402270D01*
X44304040D01*
G75*
G02*
X44317550Y45379040I-13220J-23230D01*
G01*
G75*
G02*
Y45379030I-40930J0D01*
G01*
Y45365970D01*
X44297550D01*
Y45370770D01*
G75*
G03*
X44287750Y45384840I-15000J0D01*
G01*
Y45402270D01*
X44262350D01*
Y45384840D01*
G75*
G03*
X44252550Y45370770I5200J-14070D01*
G01*
Y45365970D01*
X44232550D01*
Y45379030D01*
G75*
G02*
Y45379040I40930J10D01*
G01*
G75*
G02*
X44246060Y45402270I26730J0D01*
G01*
X44219550D01*
Y45364770D01*
G75*
G02*
Y45364760I-13020J0D01*
G01*
G75*
G02*
X44204550Y45349770I-15000J0D01*
G01*
X44149550D01*
G75*
G02*
X44134550Y45364760I0J14990D01*
G01*
G75*
G02*
Y45364770I13020J10D01*
G01*
Y45402270D01*
X42303700D01*
G37*
X47150750Y45392770D02*
G36*
X47150750Y45392770D02*
Y45380270D01*
X47174550D01*
G75*
G02*
X47189550Y45365280I0J-14990D01*
G01*
G75*
G02*
Y45365270I-13020J0D01*
G01*
Y45320670D01*
X47702320D01*
Y45356770D01*
G75*
G02*
Y45356780I13020J10D01*
G01*
G75*
G02*
X47717320Y45371770I15000J0D01*
G01*
X47792320D01*
G75*
G02*
X47807320Y45356780I0J-14990D01*
G01*
G75*
G02*
Y45356770I-13020J0D01*
G01*
Y45320670D01*
X47817420D01*
Y45356770D01*
G75*
G02*
Y45356780I13020J10D01*
G01*
G75*
G02*
X47832420Y45371770I15000J0D01*
G01*
X47907420D01*
G75*
G02*
X47922420Y45356780I0J-14990D01*
G01*
G75*
G02*
Y45356770I-13020J0D01*
G01*
Y45320670D01*
X47932510D01*
Y45356770D01*
G75*
G02*
Y45356780I13020J10D01*
G01*
G75*
G02*
X47947510Y45371770I15000J0D01*
G01*
X48022510D01*
G75*
G02*
X48037510Y45356780I0J-14990D01*
G01*
G75*
G02*
Y45356770I-13020J0D01*
G01*
Y45320670D01*
X48039550D01*
Y45356770D01*
G75*
G02*
Y45356780I13020J10D01*
G01*
G75*
G02*
X48054550Y45371770I15000J0D01*
G01*
X48129550D01*
G75*
G02*
X48144550Y45356780I0J-14990D01*
G01*
G75*
G02*
Y45356770I-13020J0D01*
G01*
Y45320670D01*
X49136300D01*
Y45402270D01*
X47149340D01*
G75*
G02*
X47150750Y45392770I-31290J-9500D01*
G01*
G37*
X42303700Y45560270D02*
G36*
X42303700Y45560270D02*
Y45402270D01*
X44134550D01*
Y45439770D01*
G75*
G02*
Y45439780I13020J10D01*
G01*
G75*
G02*
X44149550Y45454770I15000J0D01*
G01*
X44204550D01*
G75*
G02*
X44219550Y45439780I0J-14990D01*
G01*
G75*
G02*
Y45439770I-13020J0D01*
G01*
Y45402270D01*
X44246060D01*
G75*
G02*
X44259290Y45405770I13220J-23230D01*
G01*
X44262350D01*
Y45402270D01*
X44287750D01*
Y45405770D01*
X44290810D01*
G75*
G02*
X44304040Y45402270I10J-26730D01*
G01*
X47062310D01*
X46904310Y45560270D01*
X44470680D01*
G75*
G02*
X44471690Y45549270I-59630J-11020D01*
G01*
G75*
G02*
X44350410I-60640J0D01*
G01*
G75*
G02*
X44351420Y45560270I60640J-20D01*
G01*
X44017550D01*
Y45522770D01*
G75*
G02*
Y45522760I-13020J0D01*
G01*
G75*
G02*
X44002550Y45507770I-15000J0D01*
G01*
X43947550D01*
G75*
G02*
X43932550Y45522760I0J14990D01*
G01*
G75*
G02*
Y45522770I13020J10D01*
G01*
Y45560270D01*
X43531160D01*
G75*
G02*
X43519550Y45554770I-11600J9480D01*
G01*
X43444550D01*
G75*
G02*
X43432940Y45560270I-10J14980D01*
G01*
X42303700D01*
G37*
X46996790D02*
G36*
X46996790Y45560270D02*
X47141170Y45415890D01*
G75*
G02*
X47149340Y45402270I-23120J-23130D01*
G01*
X49136300D01*
Y45560270D01*
X49038250D01*
Y45543070D01*
X48845850D01*
Y45560270D01*
X48737250D01*
Y45543070D01*
X48544850D01*
Y45560270D01*
X46996790D01*
G37*
X42303700Y45639270D02*
G36*
X42303700Y45639270D02*
Y45560270D01*
X43432940D01*
G75*
G02*
X43429550Y45569760I11600J9500D01*
G01*
G75*
G02*
Y45569770I13020J10D01*
G01*
Y45624770D01*
G75*
G02*
Y45624780I13020J10D01*
G01*
G75*
G02*
X43440700Y45639270I14990J0D01*
G01*
X42303700D01*
G37*
X43534550Y45624770D02*
G36*
X43534550Y45624770D02*
Y45569770D01*
G75*
G02*
Y45569760I-13020J0D01*
G01*
G75*
G02*
X43531160Y45560270I-14990J10D01*
G01*
X43932550D01*
Y45597770D01*
G75*
G02*
Y45597780I13020J10D01*
G01*
G75*
G02*
X43947550Y45612770I15000J0D01*
G01*
X44002550D01*
G75*
G02*
X44017550Y45597780I0J-14990D01*
G01*
G75*
G02*
Y45597770I-13020J0D01*
G01*
Y45560270D01*
X44351420D01*
G75*
G02*
X44470680I59630J-11000D01*
G01*
X46904310D01*
X46847430Y45617150D01*
G75*
G02*
X46837870Y45639270I23130J23120D01*
G01*
X46513050D01*
Y45635270D01*
G75*
G02*
Y45635260I-13020J0D01*
G01*
G75*
G02*
X46498050Y45620270I-15000J0D01*
G01*
X46423050D01*
G75*
G02*
X46408050Y45635260I0J14990D01*
G01*
G75*
G02*
Y45635270I13020J10D01*
G01*
Y45639270D01*
X45099850D01*
G75*
G02*
X45002250I-48800J36000D01*
G01*
X43523400D01*
G75*
G02*
X43534550Y45624780I-3840J-14490D01*
G01*
G75*
G02*
Y45624770I-13020J0D01*
G01*
G37*
X46917790Y45639270D02*
G36*
X46917790Y45639270D02*
X46996790Y45560270D01*
X48544850D01*
Y45639270D01*
X47250550D01*
Y45592770D01*
G75*
G02*
Y45592760I-13020J0D01*
G01*
G75*
G02*
X47235550Y45577770I-15000J0D01*
G01*
X47180550D01*
G75*
G02*
X47165550Y45592760I0J14990D01*
G01*
G75*
G02*
Y45592770I13020J10D01*
G01*
Y45639270D01*
X47155550D01*
Y45625270D01*
G75*
G02*
Y45625260I-13020J0D01*
G01*
G75*
G02*
X47140550Y45610270I-15000J0D01*
G01*
X47085550D01*
G75*
G02*
X47070550Y45625260I0J14990D01*
G01*
G75*
G02*
Y45625270I13020J10D01*
G01*
Y45630070D01*
X47020550D01*
G75*
G02*
X46997820Y45639270I10J32700D01*
G01*
X46917790D01*
G37*
X48737250D02*
G36*
X48737250Y45639270D02*
Y45560270D01*
X48845850D01*
Y45639270D01*
X48737250D01*
G37*
X49038250D02*
G36*
X49038250Y45639270D02*
Y45560270D01*
X49136300D01*
Y45639270D01*
X49038250D01*
G37*
X42303700Y45850270D02*
G36*
X42303700Y45850270D02*
Y45639270D01*
X43440700D01*
G75*
G02*
X43444550Y45639770I3840J-14490D01*
G01*
X43519550D01*
G75*
G02*
X43523400Y45639270I10J-14990D01*
G01*
X45002250D01*
G75*
G02*
X44990410Y45675270I48800J36000D01*
G01*
G75*
G02*
X45111690I60640J0D01*
G01*
G75*
G02*
X45099850Y45639270I-60640J0D01*
G01*
X46408050D01*
Y45690270D01*
G75*
G02*
Y45690280I13020J10D01*
G01*
G75*
G02*
X46423050Y45705270I15000J0D01*
G01*
X46498050D01*
G75*
G02*
X46513050Y45690280I0J-14990D01*
G01*
G75*
G02*
Y45690270I-13020J0D01*
G01*
Y45639270D01*
X46837870D01*
G75*
G02*
X46837850Y45640270I32690J1150D01*
G01*
Y45850270D01*
X46560550D01*
Y45822770D01*
G75*
G02*
Y45822760I-13020J0D01*
G01*
G75*
G02*
X46545550Y45807770I-15000J0D01*
G01*
X46470550D01*
G75*
G02*
X46455550Y45822760I0J14990D01*
G01*
G75*
G02*
Y45822770I13020J10D01*
G01*
Y45850270D01*
X43121560D01*
G75*
G02*
X43018540I-51510J32000D01*
G01*
X42303700D01*
G37*
X46903250Y45733830D02*
G36*
X46903250Y45733830D02*
Y45653810D01*
X46917790Y45639270D01*
X46997820D01*
G75*
G02*
X46997430Y45639650I22750J23740D01*
G01*
X46903250Y45733830D01*
G37*
X47000750Y45850270D02*
G36*
X47000750Y45850270D02*
Y45798810D01*
X47034090Y45765470D01*
X47153050D01*
G75*
G02*
X47176170Y45755890I-10J-32710D01*
G01*
X47231170Y45700890D01*
G75*
G02*
X47240480Y45681940I-23050J-23090D01*
G01*
G75*
G02*
X47250550Y45667780I-4920J-14160D01*
G01*
G75*
G02*
Y45667770I-22920J0D01*
G01*
Y45639270D01*
X48544850D01*
Y45735470D01*
X48737250D01*
Y45639270D01*
X48845850D01*
Y45735470D01*
X49038250D01*
Y45639270D01*
X49136300D01*
Y45850270D01*
X49038250D01*
Y45797070D01*
X48845850D01*
Y45850270D01*
X48737250D01*
Y45797070D01*
X48544850D01*
Y45850270D01*
X47160550D01*
Y45839510D01*
G75*
G02*
Y45839500I-40930J0D01*
G01*
G75*
G02*
X47133810Y45812770I-26740J0D01*
G01*
X47130750D01*
Y45833700D01*
G75*
G03*
X47140550Y45847770I-5200J14070D01*
G01*
Y45850270D01*
X47095550D01*
Y45847770D01*
G75*
G03*
X47105350Y45833700I15000J0D01*
G01*
Y45812770D01*
X47102290D01*
G75*
G02*
X47075550Y45839500I0J26730D01*
G01*
G75*
G02*
Y45839510I40930J10D01*
G01*
Y45850270D01*
X47000750D01*
G37*
X47155550Y45684030D02*
G36*
X47155550Y45684030D02*
Y45639270D01*
X47165550D01*
Y45667770D01*
G75*
G02*
X47166520Y45673060I15230J-60D01*
G01*
X47155550Y45684030D01*
G37*
X42303700Y45893270D02*
G36*
X42303700Y45893270D02*
Y45850270D01*
X43018540D01*
G75*
G02*
X43009410Y45882270I51510J32000D01*
G01*
G75*
G02*
X43010420Y45893270I60640J-20D01*
G01*
X42303700D01*
G37*
X43130690Y45882270D02*
G36*
X43130690Y45882270D02*
G75*
G02*
X43121560Y45850270I-60640J0D01*
G01*
X46455550D01*
Y45877770D01*
G75*
G02*
Y45877780I13020J10D01*
G01*
G75*
G02*
X46470550Y45892770I15000J0D01*
G01*
X46545550D01*
G75*
G02*
X46560550Y45877780I0J-14990D01*
G01*
G75*
G02*
Y45877770I-13020J0D01*
G01*
Y45850270D01*
X46837850D01*
Y45893270D01*
X43129680D01*
G75*
G02*
X43130690Y45882270I-59630J-11020D01*
G01*
G37*
X47000750Y45893270D02*
G36*
X47000750Y45893270D02*
Y45850270D01*
X47075550D01*
Y45852570D01*
X47095550D01*
Y45850270D01*
X47140550D01*
Y45852570D01*
X47160550D01*
Y45850270D01*
X48544850D01*
Y45893270D01*
X47610420D01*
G75*
G02*
X47595550Y45880270I-14860J1990D01*
G01*
X47540550D01*
G75*
G02*
X47525680Y45893270I-10J14990D01*
G01*
X47160460D01*
G75*
G02*
X47160550Y45891040I-26600J-2190D01*
G01*
G75*
G02*
Y45891030I-40930J0D01*
G01*
Y45877970D01*
X47140550D01*
Y45882770D01*
G75*
G03*
X47136260Y45893270I-15000J0D01*
G01*
X47099840D01*
G75*
G03*
X47095550Y45882770I10710J-10500D01*
G01*
Y45877970D01*
X47075550D01*
Y45891030D01*
G75*
G02*
Y45891040I40930J10D01*
G01*
G75*
G02*
X47075640Y45893270I26690J40D01*
G01*
X47000750D01*
G37*
X48737250D02*
G36*
X48737250Y45893270D02*
Y45850270D01*
X48845850D01*
Y45893270D01*
X48737250D01*
G37*
X49038250D02*
G36*
X49038250Y45893270D02*
Y45850270D01*
X49136300D01*
Y45893270D01*
X49038250D01*
G37*
X42303700Y46147270D02*
G36*
X42303700Y46147270D02*
Y45893270D01*
X43010420D01*
G75*
G02*
X43129680I59630J-11000D01*
G01*
X46837850D01*
Y46147270D01*
X46108050D01*
Y46094770D01*
G75*
G02*
Y46094760I-13020J0D01*
G01*
G75*
G02*
X46093050Y46079770I-15000J0D01*
G01*
X46018050D01*
G75*
G02*
X46003050Y46094760I0J14990D01*
G01*
G75*
G02*
Y46094770I13020J10D01*
G01*
Y46147270D01*
X45536800D01*
Y45981570D01*
X45344400D01*
Y46147270D01*
X45282800D01*
Y45981570D01*
X45090400D01*
Y46045480D01*
G75*
G02*
X45072430Y46054650I5120J32220D01*
G01*
X45012430Y46114650D01*
G75*
G02*
X45002850Y46137770I23130J23130D01*
G01*
Y46147270D01*
X42922100D01*
G75*
G02*
X42930550Y46133780I-6540J-13490D01*
G01*
G75*
G02*
Y46133770I-13020J0D01*
G01*
Y46078770D01*
G75*
G02*
Y46078760I-13020J0D01*
G01*
G75*
G02*
X42915550Y46063770I-15000J0D01*
G01*
X42840550D01*
G75*
G02*
X42825550Y46078760I0J14990D01*
G01*
G75*
G02*
Y46078770I13020J10D01*
G01*
Y46133770D01*
G75*
G02*
Y46133780I13020J10D01*
G01*
G75*
G02*
X42834000Y46147270I14990J0D01*
G01*
X42303700D01*
G37*
X45072290D02*
G36*
X45072290Y46147270D02*
X45090400Y46129160D01*
Y46147270D01*
X45072290D01*
G37*
X47000750D02*
G36*
X47000750Y46147270D02*
Y45893270D01*
X47075640D01*
G75*
G02*
X47102290Y45917770I26640J-2240D01*
G01*
X47105350D01*
Y45896840D01*
G75*
G03*
X47099840Y45893270I5200J-14070D01*
G01*
X47136260D01*
G75*
G03*
X47130750Y45896840I-10710J-10500D01*
G01*
Y45917770D01*
X47133810D01*
G75*
G02*
X47160460Y45893270I10J-26740D01*
G01*
X47525680D01*
G75*
G02*
X47525550Y45895260I14870J1970D01*
G01*
G75*
G02*
Y45895270I13020J10D01*
G01*
Y45970270D01*
G75*
G02*
Y45970280I13020J10D01*
G01*
G75*
G02*
X47540550Y45985270I15000J0D01*
G01*
X47595550D01*
G75*
G02*
X47610550Y45970280I0J-14990D01*
G01*
G75*
G02*
Y45970270I-13020J0D01*
G01*
Y45895270D01*
G75*
G02*
Y45895260I-13020J0D01*
G01*
G75*
G02*
X47610420Y45893270I-15000J-20D01*
G01*
X48544850D01*
Y45989470D01*
X48737250D01*
Y45893270D01*
X48845850D01*
Y45989470D01*
X49038250D01*
Y45893270D01*
X49136300D01*
Y46147270D01*
X49038250D01*
Y46051070D01*
X48845850D01*
Y46147270D01*
X48737250D01*
Y46051070D01*
X48544850D01*
Y46147270D01*
X47000750D01*
G37*
X42303700Y46235270D02*
G36*
X42303700Y46235270D02*
Y46147270D01*
X42834000D01*
G75*
G02*
X42840550Y46148770I6540J-13490D01*
G01*
X42915550D01*
G75*
G02*
X42922100Y46147270I10J-14990D01*
G01*
X45002850D01*
Y46235270D01*
X42303700D01*
G37*
X45068250D02*
G36*
X45068250Y46235270D02*
Y46151310D01*
X45072290Y46147270D01*
X45090400D01*
Y46173970D01*
X45282800D01*
Y46147270D01*
X45344400D01*
Y46173970D01*
X45536800D01*
Y46147270D01*
X46003050D01*
Y46149770D01*
G75*
G02*
Y46149780I13020J10D01*
G01*
G75*
G02*
X46018050Y46164770I15000J0D01*
G01*
X46093050D01*
G75*
G02*
X46108050Y46149780I0J-14990D01*
G01*
G75*
G02*
Y46149770I-13020J0D01*
G01*
Y46147270D01*
X46837850D01*
Y46235270D01*
X45068250D01*
G37*
X47000750D02*
G36*
X47000750Y46235270D02*
Y46147270D01*
X48544850D01*
Y46235270D01*
X47598050D01*
Y46175270D01*
G75*
G02*
Y46175260I-13020J0D01*
G01*
G75*
G02*
X47583050Y46160270I-15000J0D01*
G01*
X47528050D01*
G75*
G02*
X47513050Y46175260I0J14990D01*
G01*
G75*
G02*
Y46175270I13020J10D01*
G01*
Y46235270D01*
X47236190D01*
G75*
G02*
X47114910I-60640J0D01*
G01*
X47000750D01*
G37*
X48737250D02*
G36*
X48737250Y46235270D02*
Y46147270D01*
X48845850D01*
Y46235270D01*
X48737250D01*
G37*
X49038250D02*
G36*
X49038250Y46235270D02*
Y46147270D01*
X49136300D01*
Y46235270D01*
X49038250D01*
G37*
X42303700Y46346820D02*
G36*
X42303700Y46346820D02*
Y46235270D01*
X45002850D01*
Y46346820D01*
X42303700D01*
G37*
X45068250D02*
G36*
X45068250Y46346820D02*
Y46235270D01*
X46837850D01*
Y46346820D01*
X45536800D01*
Y46235570D01*
X45344400D01*
Y46346820D01*
X45282800D01*
Y46235570D01*
X45090400D01*
Y46346820D01*
X45068250D01*
G37*
X47000750D02*
G36*
X47000750Y46346820D02*
Y46235270D01*
X47114910D01*
G75*
G02*
X47236190I60640J0D01*
G01*
X47513050D01*
Y46250270D01*
G75*
G02*
Y46250280I13020J10D01*
G01*
G75*
G02*
X47528050Y46265270I15000J0D01*
G01*
X47583050D01*
G75*
G02*
X47598050Y46250280I0J-14990D01*
G01*
G75*
G02*
Y46250270I-13020J0D01*
G01*
Y46235270D01*
X48544850D01*
Y46243470D01*
X48737250D01*
Y46235270D01*
X48845850D01*
Y46243470D01*
X49038250D01*
Y46235270D01*
X49136300D01*
Y46346820D01*
X49038250D01*
Y46305070D01*
X48845850D01*
Y46346820D01*
X48737250D01*
Y46305070D01*
X48653750D01*
Y46325070D01*
X48717250D01*
Y46346820D01*
X48564850D01*
Y46325070D01*
X48628350D01*
Y46305070D01*
X48544850D01*
Y46346820D01*
X47000750D01*
G37*
X42303700Y46401270D02*
G36*
X42303700Y46401270D02*
Y46346820D01*
X45002850D01*
Y46401270D01*
X43970550D01*
Y46367770D01*
G75*
G02*
Y46367760I-13020J0D01*
G01*
G75*
G02*
X43955550Y46352770I-15000J0D01*
G01*
X43880550D01*
G75*
G02*
X43865550Y46367760I0J14990D01*
G01*
G75*
G02*
Y46367770I13020J10D01*
G01*
Y46401270D01*
X42981280D01*
G75*
G02*
X42819810I-80730J59000D01*
G01*
X42806290D01*
G75*
G02*
X42644810I-80740J59010D01*
G01*
X42303700D01*
G37*
X45068250D02*
G36*
X45068250Y46401270D02*
Y46346820D01*
X45090400D01*
Y46401270D01*
X45068250D01*
G37*
X45282800D02*
G36*
X45282800Y46401270D02*
Y46346820D01*
X45344400D01*
Y46401270D01*
X45282800D01*
G37*
X45536800D02*
G36*
X45536800Y46401270D02*
Y46346820D01*
X46837850D01*
Y46401270D01*
X46480550D01*
Y46392770D01*
G75*
G02*
Y46392760I-13020J0D01*
G01*
G75*
G02*
X46465550Y46377770I-15000J0D01*
G01*
X46390550D01*
G75*
G02*
X46375550Y46392760I0J14990D01*
G01*
G75*
G02*
Y46392770I13020J10D01*
G01*
Y46401270D01*
X45536800D01*
G37*
X47000750D02*
G36*
X47000750Y46401270D02*
Y46346820D01*
X48544850D01*
Y46388570D01*
X48564850D01*
Y46346820D01*
X48717250D01*
Y46388570D01*
X48737250D01*
Y46346820D01*
X48845850D01*
Y46401270D01*
X47598050D01*
Y46395270D01*
G75*
G02*
Y46395260I-13020J0D01*
G01*
G75*
G02*
X47583050Y46380270I-15000J0D01*
G01*
X47528050D01*
G75*
G02*
X47513050Y46395260I0J14990D01*
G01*
G75*
G02*
Y46395270I13020J10D01*
G01*
Y46401270D01*
X47000750D01*
G37*
X49038250D02*
G36*
X49038250Y46401270D02*
Y46346820D01*
X49136300D01*
Y46401270D01*
X49038250D01*
G37*
X42303700Y46455720D02*
G36*
X42303700Y46455720D02*
Y46401270D01*
X42644810D01*
G75*
G02*
X42625650Y46455720I80740J59010D01*
G01*
X42303700D01*
G37*
X42813050Y46411860D02*
G36*
X42813050Y46411860D02*
G75*
G02*
X42806290Y46401270I-87510J48410D01*
G01*
X42819810D01*
G75*
G02*
X42813050Y46411860I80750J59000D01*
G01*
G37*
X43000180Y46451720D02*
G36*
X43000180Y46451720D02*
G75*
G02*
X42981280Y46401270I-99630J8560D01*
G01*
X43865550D01*
Y46422770D01*
G75*
G02*
Y46422780I13020J10D01*
G01*
G75*
G02*
X43880550Y46437770I15000J0D01*
G01*
X43955550D01*
G75*
G02*
X43970550Y46422780I0J-14990D01*
G01*
G75*
G02*
Y46422770I-13020J0D01*
G01*
Y46401270D01*
X45002850D01*
Y46455720D01*
X43144750D01*
G75*
G02*
X43000180Y46451720I-74200J67050D01*
G01*
G37*
X45068250Y46455720D02*
G36*
X45068250Y46455720D02*
Y46401270D01*
X45090400D01*
Y46427970D01*
X45282800D01*
Y46401270D01*
X45344400D01*
Y46427970D01*
X45536800D01*
Y46401270D01*
X46375550D01*
Y46447770D01*
G75*
G02*
Y46447780I13020J10D01*
G01*
G75*
G02*
X46377820Y46455720I14990J10D01*
G01*
X45068250D01*
G37*
X46480550Y46447770D02*
G36*
X46480550Y46447770D02*
Y46401270D01*
X46837850D01*
Y46455720D01*
X46478280D01*
G75*
G02*
X46480550Y46447780I-12720J-7930D01*
G01*
G75*
G02*
Y46447770I-13020J0D01*
G01*
G37*
X47000750Y46455720D02*
G36*
X47000750Y46455720D02*
Y46401270D01*
X47513050D01*
Y46455720D01*
X47000750D01*
G37*
X47598050D02*
G36*
X47598050Y46455720D02*
Y46401270D01*
X48845850D01*
Y46455720D01*
X48737250D01*
Y46413970D01*
X48717250D01*
Y46455720D01*
X48564850D01*
Y46413970D01*
X48544850D01*
Y46455720D01*
X47598050D01*
G37*
X49038250D02*
G36*
X49038250Y46455720D02*
Y46401270D01*
X49136300D01*
Y46455720D01*
X49038250D01*
G37*
X42303700Y46600820D02*
G36*
X42303700Y46600820D02*
Y46455720D01*
X42625650D01*
G75*
G02*
X42625550Y46460270I99930J4470D01*
G01*
G75*
G02*
X42813050Y46508680I100000J-10D01*
G01*
G75*
G02*
X42970920Y46531320I87500J-48400D01*
G01*
G75*
G02*
X43008040Y46600820I99640J-8550D01*
G01*
X42303700D01*
G37*
X43170550Y46522770D02*
G36*
X43170550Y46522770D02*
G75*
G02*
Y46522760I-190990J0D01*
G01*
G75*
G02*
X43144750Y46455720I-99990J0D01*
G01*
X45002850D01*
Y46600820D01*
X43984820D01*
G75*
G02*
X43869280I-57770J18450D01*
G01*
X43133070D01*
G75*
G02*
X43170550Y46522770I-62520J-78050D01*
G01*
G37*
X45068250Y46600820D02*
G36*
X45068250Y46600820D02*
Y46455720D01*
X46377820D01*
G75*
G02*
X46390550Y46462770I12720J-7940D01*
G01*
X46465550D01*
G75*
G02*
X46478280Y46455720I10J-14990D01*
G01*
X46837850D01*
Y46506730D01*
X46743760Y46600820D01*
X45536800D01*
Y46489570D01*
X45344400D01*
Y46600820D01*
X45282800D01*
Y46489570D01*
X45090400D01*
Y46600820D01*
X45068250D01*
G37*
X46986240D02*
G36*
X46986240Y46600820D02*
X46991170Y46595890D01*
G75*
G02*
X47000750Y46572770I-23130J-23130D01*
G01*
Y46455720D01*
X47513050D01*
Y46470270D01*
G75*
G02*
Y46470280I13020J10D01*
G01*
G75*
G02*
X47528050Y46485270I15000J0D01*
G01*
X47583050D01*
G75*
G02*
X47598050Y46470280I0J-14990D01*
G01*
G75*
G02*
Y46470270I-13020J0D01*
G01*
Y46455720D01*
X48544850D01*
Y46497470D01*
X48628350D01*
Y46477470D01*
X48564850D01*
Y46455720D01*
X48717250D01*
Y46477470D01*
X48653750D01*
Y46497470D01*
X48737250D01*
Y46455720D01*
X48845850D01*
Y46497470D01*
X49038250D01*
Y46455720D01*
X49136300D01*
Y46600820D01*
X49038250D01*
Y46559070D01*
X48954750D01*
Y46579070D01*
X49018250D01*
Y46600820D01*
X48865850D01*
Y46579070D01*
X48929350D01*
Y46559070D01*
X48845850D01*
Y46600820D01*
X48737250D01*
Y46559070D01*
X48544850D01*
Y46600820D01*
X46986240D01*
G37*
X42303700Y46709720D02*
G36*
X42303700Y46709720D02*
Y46600820D01*
X43008040D01*
G75*
G02*
X43133070I62520J-78050D01*
G01*
X43869280D01*
G75*
G02*
X43866410Y46619270I57770J18430D01*
G01*
G75*
G02*
X43987690I60640J0D01*
G01*
G75*
G02*
X43984820Y46600820I-60640J-20D01*
G01*
X45002850D01*
Y46667770D01*
G75*
G02*
X45012430Y46690890I32710J-10D01*
G01*
X45031260Y46709720D01*
X42303700D01*
G37*
X45068250Y46654230D02*
G36*
X45068250Y46654230D02*
Y46600820D01*
X45090400D01*
Y46676380D01*
X45068250Y46654230D01*
G37*
X45101590Y46687570D02*
G36*
X45101590Y46687570D02*
X45095990Y46681970D01*
X45282800D01*
Y46600820D01*
X45344400D01*
Y46681970D01*
X45536800D01*
Y46600820D01*
X46743760D01*
X46672010Y46672570D01*
X45692120D01*
G75*
G02*
X45678050Y46662770I-14070J5200D01*
G01*
X45603050D01*
G75*
G02*
X45588050Y46677760I0J14990D01*
G01*
G75*
G02*
Y46677770I13020J10D01*
G01*
Y46709030D01*
X45576170Y46697150D01*
G75*
G02*
X45553050Y46687570I-23130J23130D01*
G01*
X45101590D01*
G37*
X46877340Y46709720D02*
G36*
X46877340Y46709720D02*
X46986240Y46600820D01*
X48544850D01*
Y46709720D01*
X47598050D01*
Y46645270D01*
G75*
G02*
Y46645260I-13020J0D01*
G01*
G75*
G02*
X47583050Y46630270I-15000J0D01*
G01*
X47528050D01*
G75*
G02*
X47513050Y46645260I0J14990D01*
G01*
G75*
G02*
Y46645270I13020J10D01*
G01*
Y46709720D01*
X46877340D01*
G37*
X48737250D02*
G36*
X48737250Y46709720D02*
Y46600820D01*
X48845850D01*
Y46642570D01*
X48865850D01*
Y46600820D01*
X49018250D01*
Y46642570D01*
X49038250D01*
Y46600820D01*
X49136300D01*
Y46709720D01*
X49038250D01*
Y46667970D01*
X49018250D01*
Y46709720D01*
X48865850D01*
Y46667970D01*
X48845850D01*
Y46709720D01*
X48737250D01*
G37*
X42303700Y46795270D02*
G36*
X42303700Y46795270D02*
Y46709720D01*
X45031260D01*
X45064930Y46743390D01*
G75*
G02*
X45088050Y46752970I23130J-23130D01*
G01*
X45090400D01*
Y46795270D01*
X44563050D01*
Y46767770D01*
G75*
G02*
Y46767760I-13020J0D01*
G01*
G75*
G02*
X44548050Y46752770I-15000J0D01*
G01*
X44473050D01*
G75*
G02*
X44458050Y46767760I0J14990D01*
G01*
G75*
G02*
Y46767770I13020J10D01*
G01*
Y46795270D01*
X42303700D01*
G37*
X45282800D02*
G36*
X45282800Y46795270D02*
Y46752970D01*
X45344400D01*
Y46795270D01*
X45282800D01*
G37*
X46791790D02*
G36*
X46791790Y46795270D02*
X46877340Y46709720D01*
X47513050D01*
Y46720270D01*
G75*
G02*
Y46720280I13020J10D01*
G01*
G75*
G02*
X47528050Y46735270I15000J0D01*
G01*
X47583050D01*
G75*
G02*
X47598050Y46720280I0J-14990D01*
G01*
G75*
G02*
Y46720270I-13020J0D01*
G01*
Y46709720D01*
X48544850D01*
Y46751470D01*
X48737250D01*
Y46709720D01*
X48845850D01*
Y46751470D01*
X48929350D01*
Y46731470D01*
X48865850D01*
Y46709720D01*
X49018250D01*
Y46731470D01*
X48954750D01*
Y46751470D01*
X49038250D01*
Y46709720D01*
X49136300D01*
Y46795270D01*
X46791790D01*
G37*
X42303700Y46862770D02*
G36*
X42303700Y46862770D02*
Y46795270D01*
X44458050D01*
Y46822770D01*
G75*
G02*
Y46822780I13020J10D01*
G01*
G75*
G02*
X44473050Y46837770I15000J0D01*
G01*
X44548050D01*
G75*
G02*
X44563050Y46822780I0J-14990D01*
G01*
G75*
G02*
Y46822770I-13020J0D01*
G01*
Y46795270D01*
X45090400D01*
Y46862770D01*
X43983050D01*
Y46835270D01*
G75*
G02*
Y46835260I-13020J0D01*
G01*
G75*
G02*
X43968050Y46820270I-15000J0D01*
G01*
X43893050D01*
G75*
G02*
X43878050Y46835260I0J14990D01*
G01*
G75*
G02*
Y46835270I13020J10D01*
G01*
Y46862770D01*
X42303700D01*
G37*
X45282800D02*
G36*
X45282800Y46862770D02*
Y46795270D01*
X45344400D01*
Y46862770D01*
X45282800D01*
G37*
X45536800D02*
G36*
X45536800Y46862770D02*
Y46852970D01*
X46720550D01*
G75*
G02*
X46743670Y46843390I-10J-32710D01*
G01*
X46791790Y46795270D01*
X49136300D01*
Y46857740D01*
X49131270Y46862770D01*
X45536800D01*
G37*
X42303700Y46930270D02*
G36*
X42303700Y46930270D02*
Y46862770D01*
X43878050D01*
Y46890270D01*
G75*
G02*
Y46890280I13020J10D01*
G01*
G75*
G02*
X43893050Y46905270I15000J0D01*
G01*
X43968050D01*
G75*
G02*
X43983050Y46890280I0J-14990D01*
G01*
G75*
G02*
Y46890270I-13020J0D01*
G01*
Y46862770D01*
X45090400D01*
Y46930270D01*
X44563050D01*
Y46902770D01*
G75*
G02*
Y46902760I-13020J0D01*
G01*
G75*
G02*
X44548050Y46887770I-15000J0D01*
G01*
X44473050D01*
G75*
G02*
X44458050Y46902760I0J14990D01*
G01*
G75*
G02*
Y46902770I13020J10D01*
G01*
Y46930270D01*
X42303700D01*
G37*
X45282800D02*
G36*
X45282800Y46930270D02*
Y46862770D01*
X45344400D01*
Y46930270D01*
X45282800D01*
G37*
X45536800D02*
G36*
X45536800Y46930270D02*
Y46862770D01*
X49131270D01*
X49063770Y46930270D01*
X47336740D01*
G75*
G02*
X47325550Y46925270I-11180J9990D01*
G01*
X47270550D01*
G75*
G02*
X47259360Y46930270I-10J14990D01*
G01*
X47216740D01*
G75*
G02*
X47205550Y46925270I-11180J9990D01*
G01*
X47150550D01*
G75*
G02*
X47139360Y46930270I-10J14990D01*
G01*
X45536800D01*
G37*
X42303700Y47093770D02*
G36*
X42303700Y47093770D02*
Y46930270D01*
X44458050D01*
Y46957770D01*
G75*
G02*
Y46957780I13020J10D01*
G01*
G75*
G02*
X44473050Y46972770I15000J0D01*
G01*
X44548050D01*
G75*
G02*
X44563050Y46957780I0J-14990D01*
G01*
G75*
G02*
Y46957770I-13020J0D01*
G01*
Y46930270D01*
X45090400D01*
Y46935970D01*
X45282800D01*
Y46930270D01*
X45344400D01*
Y46935970D01*
X45536800D01*
Y46930270D01*
X47139360D01*
G75*
G02*
X47135550Y46940260I11180J9990D01*
G01*
G75*
G02*
Y46940270I13020J10D01*
G01*
Y47015270D01*
G75*
G02*
Y47015280I13020J10D01*
G01*
G75*
G02*
X47150550Y47030270I15000J0D01*
G01*
X47205550D01*
G75*
G02*
X47220550Y47015280I0J-14990D01*
G01*
G75*
G02*
Y47015270I-13020J0D01*
G01*
Y46940270D01*
G75*
G02*
Y46940260I-13020J0D01*
G01*
G75*
G02*
X47216740Y46930270I-14990J0D01*
G01*
X47259360D01*
G75*
G02*
X47255550Y46940260I11180J9990D01*
G01*
G75*
G02*
Y46940270I13020J10D01*
G01*
Y47015270D01*
G75*
G02*
Y47015280I13020J10D01*
G01*
G75*
G02*
X47270550Y47030270I15000J0D01*
G01*
X47325550D01*
G75*
G02*
X47340550Y47015280I0J-14990D01*
G01*
G75*
G02*
Y47015270I-13020J0D01*
G01*
Y46940270D01*
G75*
G02*
Y46940260I-13020J0D01*
G01*
G75*
G02*
X47336740Y46930270I-14990J0D01*
G01*
X49063770D01*
X48900270Y47093770D01*
X47283050D01*
Y47057770D01*
G75*
G02*
Y47057760I-13020J0D01*
G01*
G75*
G02*
X47268050Y47042770I-15000J0D01*
G01*
X47213050D01*
G75*
G02*
X47198050Y47057760I0J14990D01*
G01*
G75*
G02*
Y47057770I13020J10D01*
G01*
Y47093770D01*
X47158050D01*
Y47060270D01*
G75*
G02*
Y47060260I-13020J0D01*
G01*
G75*
G02*
X47143050Y47045270I-15000J0D01*
G01*
X47088050D01*
G75*
G02*
X47073050Y47060260I0J14990D01*
G01*
G75*
G02*
Y47060270I13020J10D01*
G01*
Y47093770D01*
X45536800D01*
Y46997570D01*
X45344400D01*
Y47093770D01*
X45282800D01*
Y46997570D01*
X45090400D01*
Y47093770D01*
X42303700D01*
G37*
Y47274020D02*
G36*
X42303700Y47274020D02*
Y47093770D01*
X45090400D01*
Y47189970D01*
X45282800D01*
Y47093770D01*
X45344400D01*
Y47189970D01*
X45536800D01*
Y47093770D01*
X47073050D01*
Y47135270D01*
G75*
G02*
Y47135280I13020J10D01*
G01*
G75*
G02*
X47088050Y47150270I15000J0D01*
G01*
X47143050D01*
G75*
G02*
X47158050Y47135280I0J-14990D01*
G01*
G75*
G02*
Y47135270I-13020J0D01*
G01*
Y47093770D01*
X47198050D01*
Y47132770D01*
G75*
G02*
Y47132780I13020J10D01*
G01*
G75*
G02*
X47213050Y47147770I15000J0D01*
G01*
X47268050D01*
G75*
G02*
X47283050Y47132780I0J-14990D01*
G01*
G75*
G02*
Y47132770I-13020J0D01*
G01*
Y47093770D01*
X48900270D01*
X48886020Y47108020D01*
G75*
G02*
X48882300Y47117000I9010J8990D01*
G01*
Y47274020D01*
X43953260D01*
G75*
G02*
X43832840I-60210J7250D01*
G01*
X43165540D01*
G75*
G02*
X43170550Y47242780I-94980J-31250D01*
G01*
G75*
G02*
Y47242770I-190990J0D01*
G01*
G75*
G02*
X42970920Y47234220I-100000J0D01*
G01*
G75*
G02*
X42813050Y47256860I-70370J71040D01*
G01*
G75*
G02*
X42630560Y47274020I-87500J48420D01*
G01*
X42303700D01*
G37*
Y47402770D02*
G36*
X42303700Y47402770D02*
Y47274020D01*
X42630560D01*
G75*
G02*
X42625550Y47305270I95000J31260D01*
G01*
G75*
G02*
X42703350Y47402770I100000J-10D01*
G01*
X42303700D01*
G37*
X42747750D02*
G36*
X42747750Y47402770D02*
G75*
G02*
X42813050Y47353680I-22200J-97510D01*
G01*
G75*
G02*
X42878350Y47402770I87500J-48410D01*
G01*
X42747750D01*
G37*
X42922740D02*
G36*
X42922740Y47402770D02*
G75*
G02*
X43000180Y47313820I-22190J-97510D01*
G01*
G75*
G02*
X43165540Y47274020I70370J-71040D01*
G01*
X43832840D01*
G75*
G02*
X43832410Y47281270I60210J7210D01*
G01*
G75*
G02*
X43953690I60640J0D01*
G01*
G75*
G02*
X43953260Y47274020I-60640J-40D01*
G01*
X48882300D01*
Y47402770D01*
X47673550D01*
Y47375270D01*
G75*
G02*
Y47375260I-13020J0D01*
G01*
G75*
G02*
X47658550Y47360270I-15000J0D01*
G01*
X47583550D01*
G75*
G02*
X47568550Y47375260I0J14990D01*
G01*
G75*
G02*
Y47375270I13020J10D01*
G01*
Y47402770D01*
X44663590D01*
G75*
G02*
X44612510I-25540J55000D01*
G01*
X42922740D01*
G37*
X42303700Y47456270D02*
G36*
X42303700Y47456270D02*
Y47402770D01*
X42703350D01*
G75*
G02*
X42747750I22200J-97500D01*
G01*
X42878350D01*
G75*
G02*
X42922740I22200J-97510D01*
G01*
X44612510D01*
G75*
G02*
X44577430Y47456270I25540J55000D01*
G01*
X43901850D01*
G75*
G02*
X43865750Y47432970I-48810J36010D01*
G01*
Y47453670D01*
G75*
G03*
X43871890Y47456270I-12740J38630D01*
G01*
X43834210D01*
G75*
G03*
X43840350Y47453670I18880J36030D01*
G01*
Y47432970D01*
G75*
G02*
X43804250Y47456270I12710J59310D01*
G01*
X42303700D01*
G37*
X44698670D02*
G36*
X44698670Y47456270D02*
G75*
G02*
X44663590Y47402770I-60620J1500D01*
G01*
X47568550D01*
Y47430270D01*
G75*
G02*
Y47430280I13020J10D01*
G01*
G75*
G02*
X47583550Y47445270I15000J0D01*
G01*
X47658550D01*
G75*
G02*
X47673550Y47430280I0J-14990D01*
G01*
G75*
G02*
Y47430270I-13020J0D01*
G01*
Y47402770D01*
X48882300D01*
Y47456270D01*
X47430550D01*
Y47437770D01*
G75*
G02*
Y47437760I-13020J0D01*
G01*
G75*
G02*
X47415550Y47422770I-15000J0D01*
G01*
X47340550D01*
G75*
G02*
X47325550Y47437760I0J14990D01*
G01*
G75*
G02*
Y47437770I13020J10D01*
G01*
Y47456270D01*
X44698670D01*
G37*
X42303700Y47528270D02*
G36*
X42303700Y47528270D02*
Y47456270D01*
X43804250D01*
G75*
G02*
X43793750Y47479570I48820J36010D01*
G01*
X43814450D01*
G75*
G03*
X43834210Y47456270I38640J12740D01*
G01*
X43871890D01*
G75*
G03*
X43891650Y47479570I-18880J36040D01*
G01*
X43912350D01*
G75*
G02*
X43901850Y47456270I-59320J12710D01*
G01*
X44577430D01*
G75*
G02*
X44577410Y47457770I60640J1560D01*
G01*
G75*
G02*
X44698690I60640J0D01*
G01*
G75*
G02*
X44698670Y47456270I-60660J60D01*
G01*
X47325550D01*
Y47492770D01*
G75*
G02*
Y47492780I13020J10D01*
G01*
G75*
G02*
X47340550Y47507770I15000J0D01*
G01*
X47415550D01*
G75*
G02*
X47430550Y47492780I0J-14990D01*
G01*
G75*
G02*
Y47492770I-13020J0D01*
G01*
Y47456270D01*
X48882300D01*
Y47528270D01*
X47419560D01*
G75*
G02*
X47410550Y47525270I-9000J11990D01*
G01*
X47335550D01*
G75*
G02*
X47326540Y47528270I-10J14990D01*
G01*
X46637800D01*
X46615730Y47506200D01*
G75*
G02*
X46594510I-10610J10630D01*
G01*
X46572440Y47528270D01*
X43901850D01*
G75*
G02*
X43912350Y47504970I-48820J-36010D01*
G01*
X43891650D01*
G75*
G03*
X43871890Y47528270I-38640J-12740D01*
G01*
X43834210D01*
G75*
G03*
X43814450Y47504970I18880J-36040D01*
G01*
X43793750D01*
G75*
G02*
X43804250Y47528270I59320J-12710D01*
G01*
X42303700D01*
G37*
Y47642270D02*
G36*
X42303700Y47642270D02*
Y47528270D01*
X43804250D01*
G75*
G02*
X43840350Y47551570I48810J-36010D01*
G01*
Y47530870D01*
G75*
G03*
X43834210Y47528270I12740J-38630D01*
G01*
X43871890D01*
G75*
G03*
X43865750Y47530870I-18880J-36030D01*
G01*
Y47551570D01*
G75*
G02*
X43901850Y47528270I-12710J-59310D01*
G01*
X46572440D01*
X46541480Y47559230D01*
G75*
G02*
X46537090Y47569840I10620J10610D01*
G01*
G75*
G02*
X46541480Y47580450I15010J0D01*
G01*
X46580370Y47619340D01*
G75*
G02*
X46601590I10610J-10630D01*
G01*
X46654620Y47566310D01*
G75*
G02*
X46659010Y47555700I-10620J-10610D01*
G01*
G75*
G02*
X46654620Y47545090I-15010J0D01*
G01*
X46637800Y47528270D01*
X47326540D01*
G75*
G02*
X47320550Y47540260I9000J11990D01*
G01*
G75*
G02*
Y47540270I13020J10D01*
G01*
Y47595270D01*
G75*
G02*
Y47595280I13020J10D01*
G01*
G75*
G02*
X47335550Y47610270I15000J0D01*
G01*
X47410550D01*
G75*
G02*
X47425550Y47595280I0J-14990D01*
G01*
G75*
G02*
Y47595270I-13020J0D01*
G01*
Y47540270D01*
G75*
G02*
Y47540260I-13020J0D01*
G01*
G75*
G02*
X47419560Y47528270I-14990J0D01*
G01*
X48882300D01*
Y47642270D01*
X47673550D01*
Y47614770D01*
G75*
G02*
Y47614760I-13020J0D01*
G01*
G75*
G02*
X47658550Y47599770I-15000J0D01*
G01*
X47583550D01*
G75*
G02*
X47568550Y47614760I0J14990D01*
G01*
G75*
G02*
Y47614770I13020J10D01*
G01*
Y47642270D01*
X46724300D01*
X46705730Y47623700D01*
G75*
G02*
X46684510I-10610J10630D01*
G01*
X46665940Y47642270D01*
X46620540D01*
G75*
G02*
X46605550Y47627770I-14980J490D01*
G01*
X46530550D01*
G75*
G02*
X46515560Y47642270I-10J14990D01*
G01*
X43262400D01*
G75*
G02*
X43196050Y47615270I-66330J67980D01*
G01*
G75*
G02*
X43129700Y47642270I-20J94980D01*
G01*
X42612400D01*
G75*
G02*
X42546050Y47615270I-66330J67980D01*
G01*
G75*
G02*
X42479700Y47642270I-20J94980D01*
G01*
X42303700D01*
G37*
Y47710270D02*
G36*
X42303700Y47710270D02*
Y47642270D01*
X42479700D01*
G75*
G02*
X42451050Y47710250I66330J67980D01*
G01*
G75*
G02*
Y47710270I127320J10D01*
G01*
X42303700D01*
G37*
X42641050Y47710250D02*
G36*
X42641050Y47710250D02*
G75*
G02*
X42612400Y47642270I-94980J0D01*
G01*
X43129700D01*
G75*
G02*
X43101050Y47710250I66330J67980D01*
G01*
G75*
G02*
Y47710270I127320J10D01*
G01*
X42641050D01*
G75*
G02*
Y47710250I-127320J-10D01*
G01*
G37*
X43291050D02*
G36*
X43291050Y47710250D02*
G75*
G02*
X43262400Y47642270I-94980J0D01*
G01*
X46515560D01*
G75*
G02*
X46515550Y47642760I15030J550D01*
G01*
G75*
G02*
Y47642770I13020J10D01*
G01*
Y47697770D01*
G75*
G02*
Y47697780I13020J10D01*
G01*
G75*
G02*
X46522250Y47710270I14990J0D01*
G01*
X43291050D01*
G75*
G02*
Y47710250I-127320J-10D01*
G01*
G37*
X46620550Y47697770D02*
G36*
X46620550Y47697770D02*
Y47642770D01*
G75*
G02*
Y47642760I-13020J0D01*
G01*
G75*
G02*
X46620540Y47642270I-15040J60D01*
G01*
X46665940D01*
X46631480Y47676730D01*
G75*
G02*
X46627090Y47687340I10620J10610D01*
G01*
G75*
G02*
X46631480Y47697950I15010J0D01*
G01*
X46643800Y47710270D01*
X46613850D01*
G75*
G02*
X46620550Y47697780I-8290J-12490D01*
G01*
G75*
G02*
Y47697770I-13020J0D01*
G01*
G37*
X46744620Y47662590D02*
G36*
X46744620Y47662590D02*
X46724300Y47642270D01*
X47568550D01*
Y47669770D01*
G75*
G02*
Y47669780I13020J10D01*
G01*
G75*
G02*
X47583550Y47684770I15000J0D01*
G01*
X47658550D01*
G75*
G02*
X47673550Y47669780I0J-14990D01*
G01*
G75*
G02*
Y47669770I-13020J0D01*
G01*
Y47642270D01*
X48882300D01*
Y47710270D01*
X47425550D01*
Y47672770D01*
G75*
G02*
Y47672760I-13020J0D01*
G01*
G75*
G02*
X47410550Y47657770I-15000J0D01*
G01*
X47335550D01*
G75*
G02*
X47320550Y47672760I0J14990D01*
G01*
G75*
G02*
Y47672770I13020J10D01*
G01*
Y47710270D01*
X46718160D01*
X46744620Y47683810D01*
G75*
G02*
X46749010Y47673200I-10620J-10610D01*
G01*
G75*
G02*
X46744620Y47662590I-15010J0D01*
G01*
G37*
X42303700Y47793320D02*
G36*
X42303700Y47793320D02*
Y47710270D01*
X42451050D01*
G75*
G02*
Y47710290I127320J10D01*
G01*
G75*
G02*
X42499910Y47793320I94980J0D01*
G01*
X42303700D01*
G37*
X42641050Y47710290D02*
G36*
X42641050Y47710290D02*
G75*
G02*
Y47710270I-127320J-10D01*
G01*
X43101050D01*
G75*
G02*
Y47710290I127320J10D01*
G01*
G75*
G02*
X43149910Y47793320I94980J0D01*
G01*
X42592190D01*
G75*
G02*
X42641050Y47710290I-46120J-83030D01*
G01*
G37*
X43291050D02*
G36*
X43291050Y47710290D02*
G75*
G02*
Y47710270I-127320J-10D01*
G01*
X46522250D01*
G75*
G02*
X46530550Y47712770I8290J-12490D01*
G01*
X46605550D01*
G75*
G02*
X46613850Y47710270I10J-14990D01*
G01*
X46643800D01*
X46670370Y47736840D01*
G75*
G02*
X46691590I10610J-10630D01*
G01*
X46718160Y47710270D01*
X47320550D01*
Y47727770D01*
G75*
G02*
Y47727780I13020J10D01*
G01*
G75*
G02*
X47335550Y47742770I15000J0D01*
G01*
X47410550D01*
G75*
G02*
X47425550Y47727780I0J-14990D01*
G01*
G75*
G02*
Y47727770I-13020J0D01*
G01*
Y47710270D01*
X48882300D01*
Y47793320D01*
X46675350D01*
G75*
G02*
X46660550Y47780770I-14790J2440D01*
G01*
X46605550D01*
G75*
G02*
X46590750Y47793320I-10J14990D01*
G01*
X46533350D01*
G75*
G02*
X46518550Y47780770I-14790J2440D01*
G01*
X46463550D01*
G75*
G02*
X46448750Y47793320I-10J14990D01*
G01*
X44769750D01*
Y47751570D01*
X44686250D01*
Y47771570D01*
X44749750D01*
Y47793320D01*
X44597350D01*
Y47771570D01*
X44660850D01*
Y47751570D01*
X44577350D01*
Y47793320D01*
X44515750D01*
Y47751570D01*
X44323350D01*
Y47793320D01*
X44261750D01*
Y47751570D01*
X44069350D01*
Y47793320D01*
X43242190D01*
G75*
G02*
X43291050Y47710290I-46120J-83030D01*
G01*
G37*
X42303700Y47847770D02*
G36*
X42303700Y47847770D02*
Y47793320D01*
X42499910D01*
G75*
G02*
X42546050Y47805270I46120J-83040D01*
G01*
G75*
G02*
X42592190Y47793320I20J-94990D01*
G01*
X43149910D01*
G75*
G02*
X43196050Y47805270I46120J-83040D01*
G01*
G75*
G02*
X43242190Y47793320I20J-94990D01*
G01*
X44069350D01*
Y47847770D01*
X42303700D01*
G37*
X44261750D02*
G36*
X44261750Y47847770D02*
Y47793320D01*
X44323350D01*
Y47847770D01*
X44261750D01*
G37*
X44515750D02*
G36*
X44515750Y47847770D02*
Y47793320D01*
X44577350D01*
Y47835070D01*
X44597350D01*
Y47793320D01*
X44749750D01*
Y47835070D01*
X44769750D01*
Y47793320D01*
X46448750D01*
G75*
G02*
X46448550Y47795760I14800J2440D01*
G01*
G75*
G02*
Y47795770I13020J10D01*
G01*
Y47847770D01*
X44515750D01*
G37*
X46533550D02*
G36*
X46533550Y47847770D02*
Y47795770D01*
G75*
G02*
Y47795760I-13020J0D01*
G01*
G75*
G02*
X46533350Y47793320I-15000J0D01*
G01*
X46590750D01*
G75*
G02*
X46590550Y47795760I14800J2440D01*
G01*
G75*
G02*
Y47795770I13020J10D01*
G01*
Y47847770D01*
X46533550D01*
G37*
X46675550D02*
G36*
X46675550Y47847770D02*
Y47795770D01*
G75*
G02*
Y47795760I-13020J0D01*
G01*
G75*
G02*
X46675350Y47793320I-15000J0D01*
G01*
X48882300D01*
Y47847770D01*
X46675550D01*
G37*
X42303700Y47902220D02*
G36*
X42303700Y47902220D02*
Y47847770D01*
X44069350D01*
Y47902220D01*
X42303700D01*
G37*
X44261750D02*
G36*
X44261750Y47902220D02*
Y47847770D01*
X44323350D01*
Y47902220D01*
X44261750D01*
G37*
X44515750D02*
G36*
X44515750Y47902220D02*
Y47847770D01*
X46448550D01*
Y47870770D01*
G75*
G02*
Y47870780I13020J10D01*
G01*
G75*
G02*
X46463550Y47885770I15000J0D01*
G01*
X46518550D01*
G75*
G02*
X46533550Y47870780I0J-14990D01*
G01*
G75*
G02*
Y47870770I-13020J0D01*
G01*
Y47847770D01*
X46590550D01*
Y47870770D01*
G75*
G02*
Y47870780I13020J10D01*
G01*
G75*
G02*
X46605550Y47885770I15000J0D01*
G01*
X46660550D01*
G75*
G02*
X46675550Y47870780I0J-14990D01*
G01*
G75*
G02*
Y47870770I-13020J0D01*
G01*
Y47847770D01*
X48882300D01*
Y47902220D01*
X44769750D01*
Y47860470D01*
X44749750D01*
Y47902220D01*
X44597350D01*
Y47860470D01*
X44577350D01*
Y47902220D01*
X44515750D01*
G37*
X42303700Y48160270D02*
G36*
X42303700Y48160270D02*
Y47902220D01*
X44069350D01*
Y47943970D01*
X44261750D01*
Y47902220D01*
X44323350D01*
Y47943970D01*
X44515750D01*
Y47902220D01*
X44577350D01*
Y47943970D01*
X44660850D01*
Y47923970D01*
X44597350D01*
Y47902220D01*
X44749750D01*
Y47923970D01*
X44686250D01*
Y47943970D01*
X44769750D01*
Y47902220D01*
X48882300D01*
Y48160270D01*
X48739250D01*
Y48044070D01*
X48546850D01*
Y48160270D01*
X48485250D01*
Y48044070D01*
X48292850D01*
Y48160270D01*
X48231250D01*
Y48044070D01*
X48038850D01*
Y48160270D01*
X47977250D01*
Y48044070D01*
X47784850D01*
Y48160270D01*
X47723250D01*
Y48044070D01*
X47530850D01*
Y48160270D01*
X47469250D01*
Y48044070D01*
X47276850D01*
Y48160270D01*
X47215250D01*
Y48044070D01*
X47022850D01*
Y48160270D01*
X46961250D01*
Y48044070D01*
X46768850D01*
Y48160270D01*
X46552800D01*
Y48047800D01*
X46360400D01*
Y48160270D01*
X46298800D01*
Y48047800D01*
X46106400D01*
Y48160270D01*
X46044800D01*
Y48047800D01*
X45852400D01*
Y48160270D01*
X45790800D01*
Y48047800D01*
X45598400D01*
Y48160270D01*
X45536800D01*
Y48047800D01*
X45344400D01*
Y48160270D01*
X45282800D01*
Y48047800D01*
X45090400D01*
Y48160270D01*
X45028800D01*
Y48047800D01*
X44836400D01*
Y48160270D01*
X44774800D01*
Y48047800D01*
X44582400D01*
Y48160270D01*
X44520800D01*
Y48047800D01*
X44328400D01*
Y48160270D01*
X44266800D01*
Y48047800D01*
X44074400D01*
Y48160270D01*
X43291050D01*
G75*
G02*
Y48160250I-127320J-10D01*
G01*
G75*
G02*
X43196050Y48065270I-95000J0D01*
G01*
G75*
G02*
X43101050Y48160250I0J94980D01*
G01*
G75*
G02*
Y48160270I127320J10D01*
G01*
X42641050D01*
G75*
G02*
Y48160250I-127320J-10D01*
G01*
G75*
G02*
X42546050Y48065270I-95000J0D01*
G01*
G75*
G02*
X42451050Y48160250I0J94980D01*
G01*
G75*
G02*
Y48160270I127320J10D01*
G01*
X42303700D01*
G37*
Y48287000D02*
G36*
X42303700Y48287000D02*
Y48160270D01*
X42451050D01*
G75*
G02*
Y48160290I127320J10D01*
G01*
G75*
G02*
X42546050Y48255270I95000J0D01*
G01*
G75*
G02*
X42641050Y48160290I0J-94980D01*
G01*
G75*
G02*
Y48160270I-127320J-10D01*
G01*
X43101050D01*
G75*
G02*
Y48160290I127320J10D01*
G01*
G75*
G02*
X43196050Y48255270I95000J0D01*
G01*
G75*
G02*
X43291050Y48160290I0J-94980D01*
G01*
G75*
G02*
Y48160270I-127320J-10D01*
G01*
X44074400D01*
Y48240200D01*
X44266800D01*
Y48160270D01*
X44328400D01*
Y48240200D01*
X44520800D01*
Y48160270D01*
X44582400D01*
Y48240200D01*
X44774800D01*
Y48160270D01*
X44836400D01*
Y48240200D01*
X45028800D01*
Y48160270D01*
X45090400D01*
Y48240200D01*
X45282800D01*
Y48160270D01*
X45344400D01*
Y48240200D01*
X45536800D01*
Y48160270D01*
X45598400D01*
Y48240200D01*
X45790800D01*
Y48160270D01*
X45852400D01*
Y48240200D01*
X46044800D01*
Y48160270D01*
X46106400D01*
Y48240200D01*
X46298800D01*
Y48160270D01*
X46360400D01*
Y48240200D01*
X46552800D01*
Y48160270D01*
X46768850D01*
Y48236470D01*
X46961250D01*
Y48160270D01*
X47022850D01*
Y48236470D01*
X47215250D01*
Y48160270D01*
X47276850D01*
Y48236470D01*
X47469250D01*
Y48160270D01*
X47530850D01*
Y48236470D01*
X47723250D01*
Y48160270D01*
X47784850D01*
Y48236470D01*
X47977250D01*
Y48160270D01*
X48038850D01*
Y48236470D01*
X48231250D01*
Y48160270D01*
X48292850D01*
Y48236470D01*
X48485250D01*
Y48160270D01*
X48546850D01*
Y48236470D01*
X48739250D01*
Y48160270D01*
X48882300D01*
Y48254740D01*
X48762740Y48374300D01*
X42391000D01*
G75*
G03*
X42303700Y48287000I0J-87300D01*
G01*
G37*
X45536800Y46787570D02*
Y46752970D01*
X45539510D01*
X45574110Y46787570D01*
X45536800D01*
G36*
X45536800Y46787570D02*
Y46752970D01*
X45539510D01*
X45574110Y46787570D01*
X45536800D01*
G37*
X47029490Y45700070D02*
X47034090Y45695470D01*
X47070550D01*
Y45700070D01*
X47029490D01*
G36*
X47029490Y45700070D02*
X47034090Y45695470D01*
X47070550D01*
Y45700070D01*
X47029490D01*
G37*
X0Y0D02*
M02*
