G04 DesignSpark PCB Gerber Version 12.0 Build 5942*
%FSLAX35Y35*%
%MOMM*%
%AMT25*0 Rounded Rectangle Pad at angle 0*4,1,32,-0.07500,-0.32500,0.07500,-0.32500,0.10840,-0.32120,0.14010,-0.31010,0.16850,-0.29220,0.19220,-0.26850,0.21010,-0.24010,0.22120,-0.20840,0.22500,-0.17500,0.22500,0.17500,0.22120,0.20840,0.21010,0.24010,0.19220,0.26850,0.16850,0.29220,0.14010,0.31010,0.10840,0.32120,0.07500,0.32500,-0.07500,0.32500,-0.10840,0.32120,-0.14010,0.31010,-0.16850,0.29220,-0.19220,0.26850,-0.21010,0.24010,-0.22120,0.20840,-0.22500,0.17500,-0.22500,-0.17500,-0.22120,-0.20840,-0.21010,-0.24010,-0.19220,-0.26850,-0.16850,-0.29220,-0.14010,-0.31010,-0.10840,-0.32120,-0.07500,-0.32500,0*%
%ADD25T25*%
%AMT28*0 Rounded Rectangle Pad at angle 0*4,1,20,-0.90000,-2.30000,0.90000,-2.30000,0.91910,-2.29620,0.93530,-2.28540,0.94620,-2.26920,0.95000,-2.25000,0.95000,2.25000,0.94620,2.26910,0.93540,2.28530,0.91920,2.29620,0.90000,2.30000,-0.90000,2.30000,-0.91910,2.29620,-0.93530,2.28540,-0.94620,2.26920,-0.95000,2.25000,-0.95000,-2.25000,-0.94620,-2.26910,-0.93540,-2.28530,-0.91920,-2.29620,-0.90000,-2.30000,0*%
%ADD28T28*%
%ADD88R,0.30000X1.47500*%
%ADD80R,0.85000X1.20000*%
%ADD78R,0.90000X1.40000*%
%ADD90R,1.02000X1.47000*%
%ADD77R,1.29540X1.52400*%
%ADD75R,1.39700X1.52400*%
%ADD72R,1.60000X3.20000*%
%ADD74R,1.75000X3.20000*%
%ADD76R,1.52400X1.52400*%
%ADD12C,0.12700*%
%ADD71C,0.20320*%
%ADD10C,0.25400*%
%ADD21C,0.38100*%
%ADD22C,0.81280*%
%ADD23C,1.00000*%
%AMT27*0 Rounded Rectangle Pad at angle 45*4,1,32,0.17680,-0.28280,0.28280,-0.17680,0.30370,-0.15050,0.31830,-0.12020,0.32580,-0.08750,0.32580,-0.05390,0.31830,-0.02110,0.30370,0.00920,0.28280,0.03540,0.03540,0.28280,0.00910,0.30370,-0.02120,0.31830,-0.05390,0.32580,-0.08750,0.32580,-0.12030,0.31830,-0.15060,0.30370,-0.17680,0.28280,-0.28280,0.17680,-0.30370,0.15050,-0.31830,0.12020,-0.32580,0.08750,-0.32580,0.05390,-0.31830,0.02110,-0.30370,-0.00920,-0.28280,-0.03540,-0.03540,-0.28280,-0.00910,-0.30370,0.02120,-0.31830,0.05390,-0.32580,0.08750,-0.32580,0.12030,-0.31830,0.15060,-0.30370,0.17680,-0.28280,0*%
%ADD27T27*%
%AMT24*0 Rounded Rectangle Pad at angle 90*4,1,32,0.32500,-0.07500,0.32500,0.07500,0.32120,0.10840,0.31010,0.14010,0.29220,0.16850,0.26850,0.19220,0.24010,0.21010,0.20840,0.22120,0.17500,0.22500,-0.17500,0.22500,-0.20840,0.22120,-0.24010,0.21010,-0.26850,0.19220,-0.29220,0.16850,-0.31010,0.14010,-0.32120,0.10840,-0.32500,0.07500,-0.32500,-0.07500,-0.32120,-0.10840,-0.31010,-0.14010,-0.29220,-0.16850,-0.26850,-0.19220,-0.24010,-0.21010,-0.20840,-0.22120,-0.17500,-0.22500,0.17500,-0.22500,0.20840,-0.22120,0.24010,-0.21010,0.26850,-0.19220,0.29220,-0.16850,0.31010,-0.14010,0.32120,-0.10840,0.32500,-0.07500,0*%
%ADD24T24*%
%AMT26*0 Rounded Rectangle Pad at angle 135*4,1,32,0.28280,0.17680,0.17680,0.28280,0.15050,0.30370,0.12020,0.31830,0.08750,0.32580,0.05390,0.32580,0.02110,0.31830,-0.00920,0.30370,-0.03540,0.28280,-0.28280,0.03540,-0.30370,0.00910,-0.31830,-0.02120,-0.32580,-0.05390,-0.32580,-0.08750,-0.31830,-0.12030,-0.30370,-0.15060,-0.28280,-0.17680,-0.17680,-0.28280,-0.15050,-0.30370,-0.12020,-0.31830,-0.08750,-0.32580,-0.05390,-0.32580,-0.02110,-0.31830,0.00920,-0.30370,0.03540,-0.28280,0.28280,-0.03540,0.30370,-0.00910,0.31830,0.02120,0.32580,0.05390,0.32580,0.08750,0.31830,0.12030,0.30370,0.15060,0.28280,0.17680,0*%
%ADD26T26*%
%AMT29*0 Rounded Rectangle Pad at angle 90*4,1,20,2.30000,-0.90000,2.30000,0.90000,2.29620,0.91910,2.28540,0.93530,2.26920,0.94620,2.25000,0.95000,-2.25000,0.95000,-2.26910,0.94620,-2.28530,0.93540,-2.29620,0.91920,-2.30000,0.90000,-2.30000,-0.90000,-2.29620,-0.91910,-2.28540,-0.93530,-2.26920,-0.94620,-2.25000,-0.95000,2.25000,-0.95000,2.26910,-0.94620,2.28530,-0.93540,2.29620,-0.91920,2.30000,-0.90000,0*%
%ADD29T29*%
%ADD86R,0.99000X0.30000*%
%ADD87R,1.47500X0.30000*%
%ADD83R,1.20000X0.45000*%
%ADD81R,1.40000X0.45000*%
%ADD79R,1.20000X0.60000*%
%ADD93R,0.70000X0.65000*%
%ADD85R,3.43000X0.85000*%
%ADD73R,1.75000X0.95000*%
%ADD89R,1.40000X1.10000*%
%ADD82R,1.52400X1.29540*%
%ADD94C,1.50000*%
%ADD84C,1.60000*%
%ADD92R,1.80000X1.30000*%
%ADD91R,1.52400X1.39700*%
X0Y0D02*
D02*
D10*
X42546050Y47495270D02*
Y47435270D01*
X42363050Y47252270D01*
Y43308270D01*
X42545050Y43126270D01*
X45541000D01*
X45598000Y43183270D01*
Y43301000D01*
X42546050Y47710270D02*
Y47495270D01*
X42547050Y47493270D01*
X42546050Y47710270D02*
Y47495270D01*
Y48160270D02*
Y47710270D01*
X42662050Y46484270D02*
X42876550D01*
X42900550Y46460270D01*
X43070050Y45692270D02*
Y45882270D01*
X43100550Y46817770D02*
X43229550D01*
X43427050Y46620270D01*
X43520800D01*
X43100550Y46882770D02*
X43282550D01*
X43323050Y46842270D01*
X43520800D01*
X43290050Y45787270D02*
X43562050D01*
X43702050Y45647270D01*
Y45039270D01*
X43520550Y46394270D02*
X43523800D01*
X43520800Y47064270D02*
X43415550D01*
X43300550Y46949270D01*
Y46947770D01*
X43100550D01*
X43523800Y46394270D02*
X43520550D01*
Y46367770D01*
X43555550D01*
Y46395270D01*
X43528050D01*
Y46310270D01*
G75*
G03*
X43583050Y46255270I55000J0D01*
G01*
X43778050D01*
G75*
G02*
X43880550Y46152770I0J-102500D01*
G01*
Y45860270D01*
G75*
G03*
X43973050Y45767770I92500J0D01*
G01*
X45103050D01*
G75*
G02*
X45203050Y45667770I0J-100000D01*
G01*
Y45381270D01*
G75*
G03*
X45303050Y45281270I100000J0D01*
G01*
X46438250D01*
X43523800Y47495270D02*
X42546050D01*
X43523800D02*
Y47283220D01*
X43527750Y47279270D01*
X43702050Y44944270D02*
Y45039270D01*
X43918050Y46395270D02*
X43714300D01*
Y46394270D01*
X43975050Y45381770D02*
Y45316770D01*
Y45446770D02*
Y45560270D01*
X44170600Y48144000D02*
X44170550Y48142770D01*
X44033050D01*
G75*
G03*
X43948050Y48057770I0J-85000D01*
G01*
Y47665270D01*
X44025550Y47587770D01*
Y47127770D01*
G75*
G03*
X44103050Y47050270I77500J0D01*
G01*
X44605550D01*
G75*
G02*
X44700550Y46955270I0J-95000D01*
G01*
Y45975270D01*
G75*
G03*
X44800550Y45875270I100000J0D01*
G01*
X45095550D01*
G75*
G02*
X45305550Y45665270I0J-210000D01*
G01*
Y45430270D01*
G75*
G03*
X45355550Y45380270I50000J0D01*
G01*
X46582450D01*
X46776750Y45185970D01*
Y45027670D01*
X46843450Y44960970D01*
X47301350D01*
X47379050Y44883270D01*
Y44802970D01*
X47399750Y44782270D01*
X47589050D01*
X44177050Y45402270D02*
X44126050Y45351270D01*
X43975050D01*
Y45381770D01*
X44185550Y45039570D02*
X43952350D01*
X43952050Y45039270D01*
X44208550Y46809270D02*
Y46795270D01*
X43853050D01*
X43820050Y46828270D01*
X43711300D01*
Y46842270D01*
X44208550Y46909270D02*
X43988050D01*
X43834050Y47063270D01*
Y47066170D01*
X43826200D01*
Y47064270D01*
X43711300D01*
X44261250Y47455270D02*
X44165550D01*
Y47847770D01*
X44366050Y46909270D02*
Y46910270D01*
X44395550D01*
X44415550Y46930270D01*
X44510550D01*
X44369550Y46809270D02*
X44434050D01*
X44448050Y46795270D01*
X44510550D01*
X44369550Y46859270D02*
X44541550D01*
G75*
G02*
X44598050Y46802770I6990J-49510D01*
G01*
Y46445270D01*
G75*
G02*
X44548050Y46395270I-50000J0D01*
G01*
X43918050D01*
X44678600Y48144000D02*
Y48043320D01*
X44630550Y47995270D01*
X44188050D01*
X44165550Y47972770D01*
Y47847770D01*
X44790300Y44950270D02*
Y44965520D01*
X44720550Y45035270D01*
X44670550D01*
X44792050Y45336020D02*
X45043050D01*
X45051050Y45344020D01*
X44792050Y45336020D02*
X44602800D01*
X44557050Y45381770D01*
X44415050D01*
X44980800Y44950270D02*
X44983050D01*
X45083050Y45050270D01*
X45208050D01*
Y44740270D02*
Y44727770D01*
X44980800D01*
X45640550Y46705270D02*
Y46957770D01*
X45504550Y47093770D01*
X45440600D01*
X45755550Y44745670D02*
X46076750D01*
X46102650Y44771570D01*
Y44806170D01*
X46179250Y44882770D01*
X46308050D01*
X46309550Y44881270D01*
X46438250D01*
X45848050Y44660270D02*
X46095550D01*
X46148050Y44712770D01*
Y44780270D01*
X46198050Y44830270D01*
X46295550D01*
X46296550Y44831270D01*
X46438250D01*
X46042680Y46109400D02*
X46005880Y46072600D01*
X46042680Y46135140D02*
X46005880Y46171940D01*
X46055550Y45631970D02*
Y45586600D01*
Y45753570D02*
Y45799000D01*
X46068420Y46109400D02*
X46105220Y46072600D01*
X46068420Y46135140D02*
X46105220Y46171940D01*
X46073050Y44590270D02*
X46165550D01*
X46193450Y44618170D01*
Y44756870D01*
X46216850Y44780270D01*
X46300550D01*
X46301550Y44781270D01*
X46438250D01*
X46119750Y46420270D02*
X46074350D01*
X46158050Y46359470D02*
Y46314100D01*
Y46481070D02*
Y46526500D01*
X46190750Y46123270D02*
X46145350D01*
X46248050Y45963270D02*
X46240550D01*
Y45692770D01*
X46215550D01*
X46248050Y45963270D02*
Y45899270D01*
X46377050Y45770270D01*
X46564550D01*
X46687050Y45647770D01*
Y45480070D01*
X46248050Y46165570D02*
Y46211000D01*
X46283050Y45115270D02*
X46291050D01*
X46307050Y45131270D01*
X46438250D01*
X46283050Y45200270D02*
Y45231270D01*
X46438250D01*
X46305350Y46123270D02*
X46350750D01*
X46318050Y46420270D02*
X46428050D01*
X46410750Y45963270D02*
X46365350D01*
X46428050Y46420270D02*
Y46123270D01*
X46468050D01*
X46438250Y44531270D02*
X46348050D01*
Y44512770D01*
X46278050D01*
X46438250Y44581270D02*
X46558050D01*
X46566550Y44572770D01*
X46603050D01*
X46438250Y44631270D02*
X46283050D01*
X46280550Y44628770D01*
Y44607770D01*
X46438250Y44681270D02*
X46554050D01*
X46603050Y44730270D01*
X46438250Y44731270D02*
X46280550D01*
Y44702770D01*
X46438250Y44931270D02*
X46598050D01*
X46438250Y44981270D02*
X46278050Y44980270D01*
X46438250Y45081270D02*
X46597850D01*
X46598050Y45081070D01*
X46438250Y45181270D02*
X46598050D01*
X46488250Y45850270D02*
X46442850D01*
X46525350Y45963270D02*
X46570750D01*
X46527850Y45850270D02*
X46573250D01*
X46633050Y47833270D02*
Y47830670D01*
X47240550Y47223170D01*
Y47095270D01*
X46637050Y44332470D02*
Y44170270D01*
Y45480070D02*
X46638050D01*
Y45542770D01*
X46518050Y45662770D01*
X46460550D01*
X46687050Y44332470D02*
Y44221270D01*
X46728050Y44180270D01*
Y44170270D01*
X46688050Y47680270D02*
X46708050D01*
X47178050Y47210270D01*
Y46977770D01*
X46737050Y45480070D02*
Y45684320D01*
X46732050Y45689320D01*
Y47255270D01*
X46423750Y47563570D01*
Y48009450D01*
X46456600Y48042300D01*
Y48144000D01*
X46746050Y47792270D02*
Y47855270D01*
X46629050Y47972270D01*
Y48227270D01*
X46576050Y48280270D01*
X45997600D01*
X45948600Y48231270D01*
Y48144000D01*
X46787050Y45480070D02*
Y45691500D01*
X46780750Y45697800D01*
Y47277570D01*
X46491050Y47567270D01*
Y47833270D01*
X46837050Y44332470D02*
Y44476770D01*
X46875550Y44515270D01*
X46871050Y44126270D02*
Y44226270D01*
X46887050Y44242270D01*
Y44332470D01*
X46889050Y44336270D02*
Y44240270D01*
X46888050D01*
X46872480Y44224700D01*
Y44170270D01*
X46937050Y44332470D02*
Y44177270D01*
X46965050Y44170270D01*
X46937050Y45480070D02*
Y45691270D01*
X47111050Y45865270D01*
X46987050Y44332470D02*
Y44560270D01*
X47106050Y44679270D01*
X47107050D01*
X47128050Y44700270D01*
X47037050Y44332470D02*
Y44539270D01*
X47188050Y44690270D01*
Y44730270D01*
X47087050Y45480070D02*
Y45591770D01*
X47113050Y45617770D01*
Y45662770D01*
X47115550Y47097770D02*
Y47202770D01*
X46708050Y47610270D01*
X46668050D01*
X46608050Y47670270D01*
X46568050D01*
X47128050Y44820270D02*
Y44700270D01*
X47134050Y45245270D02*
X47013050D01*
X46987050Y45271270D01*
Y45480070D01*
X47137050Y44332470D02*
Y44486270D01*
Y45480070D02*
Y45337770D01*
X47187050Y44332470D02*
Y44188270D01*
Y45480070D02*
Y45599270D01*
X47208050Y45620270D01*
Y45630270D01*
X47237050Y44332470D02*
Y44571270D01*
X47233050Y44575270D01*
X47237050Y45480070D02*
Y45274270D01*
X47208050Y45245270D01*
X47134050D01*
X47237050Y45480070D02*
X47238050D01*
X47287050Y44332470D02*
X47288050D01*
Y44472770D01*
X47328050Y44512770D01*
Y44575270D01*
X47287050Y45480070D02*
Y45656770D01*
X47363050Y45732770D01*
X47427050D01*
X47464550Y45770270D01*
Y45810270D01*
X47337050Y44332470D02*
Y44450270D01*
X47420550Y44533770D01*
Y44572770D01*
X47337050Y45480070D02*
Y45536520D01*
X47338350Y45537820D01*
Y45632670D01*
X47373650Y45667970D01*
X47463650D01*
X47568650Y45772970D01*
X48495050D01*
X48615350Y45893270D01*
X48641050D01*
X47373050Y47567770D02*
X47364550D01*
X47119050Y47813270D01*
Y48140270D01*
X47373050D02*
Y47700270D01*
X47378050Y47465270D02*
X47363050D01*
X46865050Y47963270D01*
Y48140270D01*
X47387050Y44332470D02*
X47420250D01*
X47422450Y44330270D01*
X47553050D01*
X47464550Y45945270D02*
Y46201270D01*
X47250550Y46415270D01*
X46948050D01*
X46820550Y46542770D01*
Y47340270D01*
X46598050Y47562770D01*
X47464550Y45945270D02*
X47354350D01*
X47282050Y45872970D01*
X47579050Y44729570D02*
X47362350D01*
X47325050Y44766870D01*
Y44868270D01*
X47277750Y44915570D01*
X46824650D01*
X46731350Y45008870D01*
Y45164570D01*
X46563150Y45332770D01*
X45328050D01*
G75*
G02*
X45253050Y45407770I0J75000D01*
G01*
Y45667770D01*
G75*
G03*
X45100550Y45820270I-152500J0D01*
G01*
X44805550D01*
G75*
G02*
X44653050Y45972770I0J152500D01*
G01*
Y46936270D01*
G75*
G03*
X44588050Y47001270I-65000J0D01*
G01*
X44089550D01*
G75*
G02*
X43973050Y47117770I0J116500D01*
G01*
Y47549470D01*
X43895550Y47626970D01*
Y48182770D01*
G75*
G02*
X43995550Y48282770I100000J0D01*
G01*
X44374600D01*
G75*
G02*
X44424600Y48232770I0J-50000D01*
G01*
Y48144000D01*
X47585850Y44531270D02*
X47668750D01*
X47672650Y44527370D01*
X47881750D01*
X47910150Y44498970D01*
Y43606570D01*
X47841750Y43538170D01*
X46286850D01*
X46205950Y43619070D01*
Y44309070D01*
X46004750Y44510270D01*
X45825550D01*
X47585850Y44581270D02*
X47772050D01*
X47773050Y44580270D01*
X47900550D01*
X47955550Y44525270D01*
Y43587770D01*
X47860550Y43492770D01*
X46268050D01*
X46160550Y43600270D01*
Y44290270D01*
X46000550Y44450270D01*
X45930550D01*
X47585850Y44631270D02*
X47686040D01*
X47687040Y44630270D01*
X47919350D01*
X48000950Y44548670D01*
Y43568970D01*
X47879350Y43447370D01*
X46249250D01*
X46115150Y43581470D01*
Y44271470D01*
X45993850Y44392770D01*
X45823050D01*
X47585850Y44681270D02*
X47378050Y44680270D01*
X47318050D01*
X47248050Y44750270D01*
Y44820270D01*
X47585850Y44831270D02*
X47686050D01*
X47699050Y44818270D01*
X47754820D01*
X47585850Y44981270D02*
X47351050D01*
X47338050Y44994270D01*
Y45056270D01*
X47585850Y45131270D02*
X48014050D01*
X48092050Y45209270D01*
Y45329270D01*
X47585850Y45181270D02*
X47837010D01*
X47985010Y45329270D01*
X47585850Y45231270D02*
X47810550D01*
X47869920Y45290640D01*
Y45329270D01*
X47585850Y45281270D02*
X47670050D01*
Y45282270D01*
X47717050Y45329270D01*
X47754820D01*
X47621050Y47402770D02*
X47691050D01*
X47881050Y47592770D01*
Y48140270D01*
X47621050Y47642270D02*
Y48134270D01*
X47627050Y48140270D01*
X47729050Y45030270D02*
X48184050D01*
X47743050Y44881270D02*
X47574050D01*
X47747800Y46432770D02*
X47555550D01*
X47752800Y46177770D02*
X47590550D01*
X47555550Y46212770D01*
X47752800Y46682770D02*
X47555550D01*
X47755300Y45920270D02*
X47580550D01*
X47568050Y45932770D01*
X47938300Y46432770D02*
X48143050D01*
X47943300Y46682770D02*
X48143050D01*
X48140550Y45920270D02*
X47945800D01*
X48140560Y46180270D02*
X47983290D01*
X47943300Y46177770D01*
X48184050Y45155270D02*
Y45154270D01*
X48111050Y45081270D01*
X47585850D01*
X48641050Y45639270D02*
Y45640270D01*
X48568350D01*
X48485350Y45723270D01*
X47583150D01*
X47482450Y45622570D01*
X47400350D01*
X47387050Y45609270D01*
Y45480070D01*
X48641050Y46655270D02*
Y46771270D01*
X48676050Y46806270D01*
X49056550D01*
X49090550Y46772270D01*
Y45893270D01*
X48942050D01*
X49088050D01*
Y44987770D01*
G75*
G02*
X49050550Y44950270I-37500J0D01*
G01*
X49048050D01*
X48942050Y46147270D02*
X48895050D01*
X48641050Y45893270D01*
X49048050Y44950270D02*
X47702050D01*
X47683050Y44931270D01*
X47585850D01*
D02*
D12*
X45964850Y45419300D02*
X46581320D01*
G75*
G02*
X46595700Y45417000I1130J-39020D01*
G01*
Y45529900D01*
X46506270Y45619330D01*
G75*
G02*
X46488940Y45613920I-17330J25050D01*
G01*
X46432160D01*
G75*
G02*
X46401700Y45644380I0J30460D01*
G01*
Y45681160D01*
G75*
G02*
X46432160Y45711620I30460J0D01*
G01*
X46488940D01*
G75*
G02*
X46511340Y45701800I0J-30460D01*
G01*
X46516920D01*
G75*
G02*
X46545660Y45690380I1130J-39030D01*
G01*
X46648000Y45588040D01*
Y45631600D01*
X46548400Y45731200D01*
X46377050D01*
G75*
G02*
X46348620Y45743480I0J39050D01*
G01*
X46279600Y45812500D01*
Y45792600D01*
X46292900D01*
Y45592900D01*
X46138200D01*
Y45792600D01*
X46201500D01*
Y45881900D01*
X46151700D01*
Y46204600D01*
X46344400D01*
Y45881900D01*
X46320640D01*
X46393240Y45809300D01*
X46459220D01*
G75*
G02*
X46449200Y45831880I20440J22580D01*
G01*
Y45868660D01*
G75*
G02*
X46452230Y45881900I30460J0D01*
G01*
X46371700D01*
Y46204600D01*
X46389000D01*
Y46320400D01*
X46240700D01*
Y46520100D01*
X46395400D01*
Y46468820D01*
G75*
G02*
X46399660Y46469120I4260J-30160D01*
G01*
X46456440D01*
G75*
G02*
X46486900Y46438660I0J-30460D01*
G01*
Y46401880D01*
G75*
G02*
X46467100Y46373350I-30460J0D01*
G01*
Y46204600D01*
X46564400D01*
Y45881900D01*
X46563870D01*
G75*
G02*
X46566900Y45868660I-27430J-13240D01*
G01*
Y45831880D01*
G75*
G02*
X46556880Y45809300I-30460J0D01*
G01*
X46563420D01*
G75*
G02*
X46592160Y45797880I1130J-39030D01*
G01*
X46693000Y45697040D01*
Y45732820D01*
X46668050Y45757770D01*
Y46542770D01*
X46000550D01*
X45964850Y45419300D01*
X46080700Y46520100D02*
X46235400D01*
Y46320400D01*
X46080700D01*
Y46520100D01*
X45978200Y45792600D02*
X46132900D01*
Y45592900D01*
X45978200D01*
Y45792600D01*
X45996700Y46103880D02*
Y46140660D01*
G75*
G02*
X46027160Y46171120I30460J0D01*
G01*
X46083940D01*
G75*
G02*
X46114400Y46140660I0J-30460D01*
G01*
Y46103880D01*
G75*
G02*
X46083940Y46073420I-30460J0D01*
G01*
X46027160D01*
G75*
G02*
X45996700Y46103880I0J30460D01*
G01*
X45971200Y45619130D02*
G36*
X45971200Y45619130D02*
Y45423350D01*
X46595700D01*
Y45529900D01*
X46506270Y45619330D01*
G75*
G02*
X46488940Y45613920I-17300J24960D01*
G01*
X46432160D01*
G75*
G02*
X46401700Y45644370I0J30450D01*
G01*
G75*
G02*
Y45644380I63660J10D01*
G01*
Y45681160D01*
G75*
G02*
Y45681170I63660J10D01*
G01*
G75*
G02*
X46403990Y45692750I30440J0D01*
G01*
X46292900D01*
Y45592900D01*
X46138200D01*
Y45692750D01*
X46132900D01*
Y45592900D01*
X45978200D01*
Y45692750D01*
X45973540D01*
X45971200Y45619130D01*
G37*
X46543070Y45692750D02*
G36*
X46543070Y45692750D02*
G75*
G02*
X46545660Y45690380I-25000J-29920D01*
G01*
X46648000Y45588040D01*
Y45631600D01*
X46586850Y45692750D01*
X46543070D01*
G37*
X45973540D02*
G36*
X45973540Y45692750D02*
X45978200D01*
Y45792600D01*
X46132900D01*
Y45692750D01*
X46138200D01*
Y45792600D01*
X46201500D01*
Y45881900D01*
X46151700D01*
Y46122270D01*
X46114400D01*
Y46103880D01*
G75*
G02*
Y46103870I-63660J0D01*
G01*
G75*
G02*
X46083940Y46073420I-30460J0D01*
G01*
X46027160D01*
G75*
G02*
X45996700Y46103870I0J30450D01*
G01*
G75*
G02*
Y46103880I63660J10D01*
G01*
Y46122270D01*
X45987190D01*
X45973540Y45692750D01*
G37*
X46279600Y45812500D02*
G36*
X46279600Y45812500D02*
Y45792600D01*
X46292900D01*
Y45692750D01*
X46403990D01*
G75*
G02*
X46432160Y45711620I28170J-11580D01*
G01*
X46488940D01*
G75*
G02*
X46511340Y45701800I10J-30430D01*
G01*
X46516920D01*
G75*
G02*
X46543070Y45692750I1150J-38990D01*
G01*
X46586850D01*
X46548400Y45731200D01*
X46377050D01*
G75*
G02*
X46348620Y45743480I0J39060D01*
G01*
X46279600Y45812500D01*
G37*
X46344400Y45881900D02*
G36*
X46344400Y45881900D02*
X46320640D01*
X46393240Y45809300D01*
X46459220D01*
G75*
G02*
X46449200Y45831880I20460J22590D01*
G01*
Y45868660D01*
G75*
G02*
X46452230Y45881900I30560J-30D01*
G01*
X46371700D01*
Y46122270D01*
X46344400D01*
Y45881900D01*
G37*
X46556880Y45809300D02*
G36*
X46556880Y45809300D02*
X46563420D01*
G75*
G02*
X46592160Y45797880I1150J-38990D01*
G01*
X46686650Y45703390D01*
Y45739170D01*
X46668050Y45757770D01*
Y46122270D01*
X46564400D01*
Y45881900D01*
X46563870D01*
G75*
G02*
X46566900Y45868660I-27530J-13270D01*
G01*
Y45831880D01*
G75*
G02*
X46556880Y45809300I-30480J10D01*
G01*
G37*
X45996660Y46420250D02*
G36*
X45996660Y46420250D02*
X45987190Y46122270D01*
X45996700D01*
Y46140660D01*
G75*
G02*
Y46140670I63660J10D01*
G01*
G75*
G02*
X46027160Y46171120I30460J0D01*
G01*
X46083940D01*
G75*
G02*
X46114400Y46140670I0J-30450D01*
G01*
G75*
G02*
Y46140660I-63660J0D01*
G01*
Y46122270D01*
X46151700D01*
Y46204600D01*
X46344400D01*
Y46122270D01*
X46371700D01*
Y46204600D01*
X46389000D01*
Y46320400D01*
X46240700D01*
Y46420250D01*
X46235400D01*
Y46320400D01*
X46080700D01*
Y46420250D01*
X45996660D01*
G37*
X46467100Y46373350D02*
G36*
X46467100Y46373350D02*
Y46204600D01*
X46564400D01*
Y46122270D01*
X46668050D01*
Y46420250D01*
X46486900D01*
Y46401880D01*
G75*
G02*
X46467100Y46373350I-30480J20D01*
G01*
G37*
X46000350Y46536420D02*
G36*
X46000350Y46536420D02*
X45996660Y46420250D01*
X46080700D01*
Y46520100D01*
X46235400D01*
Y46420250D01*
X46240700D01*
Y46520100D01*
X46395400D01*
Y46468820D01*
G75*
G02*
X46399660Y46469120I4400J-32060D01*
G01*
X46456440D01*
G75*
G02*
X46486900Y46438670I0J-30450D01*
G01*
G75*
G02*
Y46438660I-63660J0D01*
G01*
Y46420250D01*
X46668050D01*
Y46536420D01*
X46000350D01*
G37*
D02*
D71*
X44208550Y46859270D02*
X44076550D01*
X44073050Y46862770D01*
X43930550D01*
X47298050Y46977770D02*
Y47240270D01*
X46746050Y47792270D01*
X47585850Y45031270D02*
X47728050D01*
X47729050Y45030270D01*
D02*
D21*
X42689050Y45469270D02*
X42847050D01*
X43070050Y45692270D01*
X42878050Y46106270D02*
X43153050D01*
Y46080270D01*
X43425550D01*
X42900550Y46460270D02*
X43008050D01*
X43070550Y46522770D01*
X42995050D01*
Y46728270D01*
X43019550Y46752770D01*
X43100550D01*
Y47012770D02*
X42643550D01*
X42523050Y46892270D01*
Y46126270D01*
X42689050Y45960270D01*
Y45929270D01*
X43137050Y44822270D02*
X43473350D01*
X43476050Y44824970D01*
X43290050Y45597270D02*
X43482050D01*
X43476050Y45053570D02*
X43475050D01*
Y45207270D01*
X43515550Y45247770D01*
X43600550D01*
X43476050Y45053570D02*
Y45052270D01*
X43137050D01*
X43702050Y44849270D02*
X43500350D01*
X43476050Y44824970D01*
X43711300Y46620270D02*
X43801050D01*
Y46619270D01*
X43927050D01*
X43714300Y47495270D02*
X43762050D01*
Y47492270D01*
X43853050D01*
X43730550Y46080270D02*
Y45735270D01*
X43788050Y45677770D01*
X45051050D01*
Y45534520D01*
X43756350Y47279270D02*
X43757050D01*
Y47281270D01*
X43893050D01*
X43975050Y45251770D02*
X43855550D01*
Y45247770D01*
X43820550D01*
X44152050Y43779270D02*
X43979050Y43778270D01*
X44152050Y44279270D02*
X43605050D01*
X43292050Y44592270D01*
X43137050D01*
X44185550Y44810970D02*
X44355550D01*
X44232050Y45251770D02*
X44415050D01*
Y44279270D02*
X44152050D01*
X44415050Y45316770D02*
X44518050D01*
X44562050Y45272770D01*
Y44744270D01*
G75*
G02*
X44462050Y44644270I-100000J0D01*
G01*
X44052050D01*
G75*
G02*
X43952050Y44744270I0J100000D01*
G01*
Y44849270D01*
X44415050Y45316770D02*
X44311550D01*
X44275050Y45353270D01*
X44415050Y45446770D02*
Y45545270D01*
X44411050Y45549270D01*
X44489850Y47455270D02*
X44635550D01*
X44638050Y47457770D01*
X44785050Y44159270D02*
X44915050D01*
X45038050Y44282270D01*
X44792050Y45526520D02*
X44790300Y45528270D01*
X44792050Y45526520D02*
X44642300D01*
X44581050Y45465270D01*
X44433550D01*
X44415050Y45446770D01*
X45038050Y44282270D02*
Y44480020D01*
X44790300Y44727770D01*
X45051050Y45534520D02*
Y45675270D01*
X45206050Y43778270D02*
X45035050Y43779270D01*
X45038050Y43782270D01*
X45563050Y44982770D02*
X45717750D01*
Y44890270D02*
Y44982770D01*
Y45087570D01*
X45689050Y45116270D01*
X45946050Y44982570D02*
Y44890570D01*
X45946350Y44890270D01*
Y44980270D01*
X46278050D01*
X45946350Y44890270D02*
Y45113570D01*
X45949050Y45116270D01*
X46055550Y46122270D02*
X46162980D01*
X46163550Y46122840D01*
X46055550Y46122270D02*
Y45692770D01*
X46158050Y46420270D02*
Y46385770D01*
X46163550Y46380270D01*
Y46122840D01*
X46248050Y46123270D02*
X46163550Y46122840D01*
X46508050Y45850270D02*
Y45910270D01*
X46468050D01*
Y45963270D01*
X46868000Y43301000D02*
Y43176220D01*
X46826050Y43134270D01*
X45756050D01*
X45724050Y43166270D01*
Y43439270D01*
X45675050Y43488270D01*
X45387050D01*
X45324050Y43551270D01*
Y43992270D01*
X45288050Y44028270D01*
X44486050D01*
X44415050Y44099270D01*
Y44279270D01*
X46928050Y44020570D02*
Y44069270D01*
X46871050Y44126270D01*
X47057050Y43791270D02*
X46929050Y43790970D01*
X46928050Y43791970D01*
X47071050Y46099570D02*
Y46100270D01*
X47175550D01*
Y46235270D01*
X47111050Y45865270D02*
X47118050D01*
X47070550D01*
Y45847770D01*
X47071050D01*
Y45870970D01*
X47187050Y44188270D02*
X47188050Y44187270D01*
Y44019570D01*
Y43790970D02*
X47057050Y43791270D01*
X47282050Y46101570D02*
X47073050D01*
X47071050Y46099570D01*
X47754820Y44895270D02*
X47757050D01*
X47743050Y44881270D01*
X47976750Y44806270D02*
X47953050D01*
X47865050Y44894270D01*
Y44895270D01*
X47754820D01*
X48205350Y44806270D02*
X48377050D01*
X48330550Y45920270D02*
Y46180260D01*
X48330560Y46180270D01*
X48333050Y46682770D02*
Y46182760D01*
X48330560Y46180270D01*
X48641050Y46147270D02*
X48363560D01*
X48330560Y46180270D01*
D02*
D22*
X43070050Y45882270D03*
X43853050Y47492270D03*
X43893050Y47281270D03*
X43927050Y46619270D03*
X43979050Y43778270D03*
X44355550Y44810970D03*
X44411050Y45549270D03*
X44415050Y44279270D03*
X44596050Y43778270D03*
X44638050Y47457770D03*
X44785050Y44159270D03*
X45051050Y45675270D03*
X45206050Y43778270D03*
X45563050Y44982770D03*
X47057050Y43791270D03*
X47175550Y46235270D03*
X48377050Y44806270D03*
X49048050Y44950270D03*
D02*
D23*
X43979050Y43778270D02*
X44596050D01*
X45206050D01*
D02*
D24*
X42878050Y46106270D03*
X43482050Y45597270D03*
X43600550Y45247770D03*
X43820550D03*
X43918050Y46395270D03*
X43930550Y46862770D03*
X44232050Y45251770D03*
X44510550Y46795270D03*
Y46930270D03*
X45640550Y46705270D03*
X45755550Y44745670D03*
X45823050Y44392770D03*
X45825550Y44510270D03*
X45930550Y44450270D03*
X46055550Y46122270D03*
X46073050Y44590270D03*
X46278050Y44512770D03*
Y44980270D03*
X46280550Y44607770D03*
Y44702770D03*
X46283050Y45115270D03*
Y45200270D03*
X46428050Y46420270D03*
X46460550Y45662770D03*
X46508050Y45850270D03*
X46568050Y47670270D03*
X46598050Y44931270D03*
Y45081070D03*
Y45181270D03*
X46603050Y44572770D03*
X47134050Y45245270D03*
X47137050Y45337770D03*
X47373050Y47567770D03*
Y47700270D03*
X47378050Y47465270D03*
X47621050Y47402770D03*
Y47642270D03*
X47754820Y44818270D03*
Y44895270D03*
Y45329270D03*
X47869920D03*
X47985010D03*
X48092050D03*
X48184050Y45030270D03*
Y45155270D03*
D02*
D25*
X43975050Y45560270D03*
X44177050Y45402270D03*
X44275050Y45353270D03*
X44670550Y45035270D03*
X45848050Y44660270D03*
X46491050Y47833270D03*
X46633050D03*
X46637050Y44170270D03*
X46728050D03*
X46872480D03*
X46965050D03*
X47113050Y45662770D03*
X47115550Y47097770D03*
X47118050Y45865270D03*
X47128050Y44820270D03*
X47137050Y44486270D03*
X47178050Y46977770D03*
X47188050Y44730270D03*
X47208050Y45630270D03*
X47233050Y44575270D03*
X47240550Y47095270D03*
X47248050Y44820270D03*
X47298050Y46977770D03*
X47328050Y44575270D03*
X47338050Y45056270D03*
X47420550Y44572770D03*
X47553050Y44330270D03*
X47555550Y46212770D03*
Y46432770D03*
Y46682770D03*
X47568050Y45932770D03*
D02*
D26*
X46603050Y44730270D03*
X46875550Y44515270D03*
D02*
D27*
X46598050Y47562770D03*
X46688050Y47680270D03*
D02*
D28*
X42655050Y43488270D03*
X43275050D03*
D02*
D29*
X42955050Y43958270D03*
D02*
D72*
X44152050Y43779270D03*
Y44279270D03*
X45038050Y43782270D03*
Y44282270D03*
D02*
D73*
X43137050Y44592270D03*
Y44822270D03*
Y45052270D03*
D02*
D74*
X42507050Y44822270D03*
D02*
D75*
X43476050Y44824970D03*
Y45053570D03*
X44185550Y44810970D03*
Y45039570D03*
X46928050Y43791970D03*
Y44020570D03*
X47071050Y45870970D03*
Y46099570D03*
X47188050Y43790970D03*
Y44019570D03*
X47282050Y45872970D03*
Y46101570D03*
D02*
D76*
X44165550Y47847770D03*
X44170600Y48144000D03*
X44419550Y47847770D03*
X44424600Y48144000D03*
X44673550Y47847770D03*
X44678600Y48144000D03*
X44932600D03*
X45090000Y43301000D03*
X45186600Y46077770D03*
Y46331770D03*
Y46585770D03*
Y46839770D03*
Y47093770D03*
Y48144000D03*
X45344000Y43301000D03*
X45440600Y46077770D03*
Y46331770D03*
Y46585770D03*
Y46839770D03*
Y47093770D03*
Y48144000D03*
X45598000Y43301000D03*
X45694600Y48144000D03*
X45852000Y43301000D03*
X45948600Y48144000D03*
X46106000Y43301000D03*
X46202600Y48144000D03*
X46360000Y43301000D03*
X46456600Y48144000D03*
X46614000Y43301000D03*
X46865050Y48140270D03*
X46868000Y43301000D03*
X47119050Y48140270D03*
X47361000Y43301000D03*
X47373050Y48140270D03*
X47615000Y43301000D03*
X47627050Y48140270D03*
X47869000Y43301000D03*
X47881050Y48140270D03*
X48123000Y43301000D03*
X48135050Y48140270D03*
X48377000Y43301000D03*
X48389050Y48140270D03*
X48631000Y43301000D03*
X48641050Y45639270D03*
Y45893270D03*
Y46147270D03*
Y46401270D03*
Y46655270D03*
X48643050Y48140270D03*
X48942050Y45639270D03*
Y45893270D03*
Y46147270D03*
Y46401270D03*
Y46655270D03*
D02*
D77*
X43520800Y46620270D03*
Y46842270D03*
Y47064270D03*
X43523800Y46394270D03*
Y47495270D03*
X43711300Y46620270D03*
Y46842270D03*
Y47064270D03*
X43714300Y46394270D03*
Y47495270D03*
X44790300Y44727770D03*
Y44950270D03*
X44980800Y44727770D03*
Y44950270D03*
X47747800Y46432770D03*
X47752800Y46177770D03*
Y46682770D03*
X47755300Y45920270D03*
X47938300Y46432770D03*
X47943300Y46177770D03*
Y46682770D03*
X47945800Y45920270D03*
D02*
D78*
X45208050Y44740270D03*
Y45050270D03*
X45398050Y44740270D03*
Y45050270D03*
X48140550Y45920270D03*
X48140560Y46180270D03*
X48143050Y46432770D03*
Y46682770D03*
X48330550Y45920270D03*
X48330560Y46180270D03*
X48333050Y46432770D03*
Y46682770D03*
D02*
D79*
X43070050Y45692270D03*
X43290050Y45597270D03*
Y45787270D03*
X43702050Y44849270D03*
Y44944270D03*
Y45039270D03*
X43952050Y44849270D03*
Y45039270D03*
D02*
D80*
X43425550Y46080270D03*
X43730550D03*
D02*
D81*
X43975050Y45251770D03*
Y45316770D03*
Y45381770D03*
Y45446770D03*
X44415050Y45251770D03*
Y45316770D03*
Y45381770D03*
Y45446770D03*
D02*
D82*
X44792050Y45336020D03*
Y45526520D03*
X45051050Y45344020D03*
Y45534520D03*
D02*
D83*
X43100550Y46752770D03*
Y46817770D03*
Y46882770D03*
Y46947770D03*
Y47012770D03*
D02*
D84*
X42725550Y46460270D03*
Y47305270D03*
X42900550Y46460270D03*
Y47305270D03*
X43070550Y46522770D03*
Y47242770D03*
D02*
D85*
X42689050Y45469270D03*
Y45929270D03*
D02*
D86*
X44208550Y46809270D03*
Y46859270D03*
Y46909270D03*
X44369550Y46809270D03*
Y46859270D03*
Y46909270D03*
D02*
D87*
X46438250Y44531270D03*
Y44581270D03*
Y44631270D03*
Y44681270D03*
Y44731270D03*
Y44781270D03*
Y44831270D03*
Y44881270D03*
Y44931270D03*
Y44981270D03*
Y45031270D03*
Y45081270D03*
Y45131270D03*
Y45181270D03*
Y45231270D03*
Y45281270D03*
X47585850Y44531270D03*
Y44581270D03*
Y44631270D03*
Y44681270D03*
Y44731270D03*
Y44781270D03*
Y44831270D03*
Y44881270D03*
Y44931270D03*
Y44981270D03*
Y45031270D03*
Y45081270D03*
Y45131270D03*
Y45181270D03*
Y45231270D03*
Y45281270D03*
D02*
D88*
X46637050Y44332470D03*
Y45480070D03*
X46687050Y44332470D03*
Y45480070D03*
X46737050Y44332470D03*
Y45480070D03*
X46787050Y44332470D03*
Y45480070D03*
X46837050Y44332470D03*
Y45480070D03*
X46887050Y44332470D03*
Y45480070D03*
X46937050Y44332470D03*
Y45480070D03*
X46987050Y44332470D03*
Y45480070D03*
X47037050Y44332470D03*
Y45480070D03*
X47087050Y44332470D03*
Y45480070D03*
X47137050Y44332470D03*
Y45480070D03*
X47187050Y44332470D03*
Y45480070D03*
X47237050Y44332470D03*
Y45480070D03*
X47287050Y44332470D03*
Y45480070D03*
X47337050Y44332470D03*
Y45480070D03*
X47387050Y44332470D03*
Y45480070D03*
D02*
D89*
X46248050Y45963270D03*
Y46123270D03*
X46468050Y45963270D03*
Y46123270D03*
D02*
D90*
X46055550Y45692770D03*
X46158050Y46420270D03*
X46215550Y45692770D03*
X46318050Y46420270D03*
D02*
D91*
X43527750Y47279270D03*
X43756350D03*
X44261250Y47455270D03*
X44489850D03*
X45717750Y44890270D03*
X45946350D03*
X47976750Y44806270D03*
X48205350D03*
D02*
D92*
X45689050Y45116270D03*
X45949050D03*
D02*
D93*
X47464550Y45810270D03*
Y45945270D03*
D02*
D94*
X42546050Y47710270D03*
Y48160270D03*
X43196050Y47710270D03*
Y48160270D03*
X0Y0D02*
M02*
