G04 DesignSpark PCB Gerber Version 12.0 Build 5942*
%FSLAX35Y35*%
%MOMM*%
%ADD109R,0.12000X1.29500*%
%ADD102R,0.67000X1.02000*%
%ADD100R,0.72000X1.22000*%
%ADD111R,0.84000X1.29000*%
%ADD99R,1.11540X1.34400*%
%ADD98R,1.21700X1.34400*%
%ADD95R,1.42000X3.02000*%
%ADD97R,1.57000X3.02000*%
%ADD107R,0.81000X0.12000*%
%ADD108R,1.29500X0.12000*%
%ADD105R,1.02000X0.27000*%
%ADD103R,1.22000X0.27000*%
%ADD101R,1.02000X0.42000*%
%ADD114R,0.52000X0.47000*%
%ADD106R,3.25000X0.67000*%
%ADD96R,1.57000X0.77000*%
%ADD110R,1.22000X0.92000*%
%ADD104R,1.34400X1.11540*%
%ADD113R,1.62000X1.12000*%
%ADD112R,1.34400X1.21700*%
X0Y0D02*
D02*
D95*
X44152050Y43779270D03*
Y44279270D03*
X45038050Y43782270D03*
Y44282270D03*
D02*
D96*
X43137050Y44592270D03*
Y44822270D03*
Y45052270D03*
D02*
D97*
X42507050Y44822270D03*
D02*
D98*
X43476050Y44824970D03*
Y45053570D03*
X44185550Y44810970D03*
Y45039570D03*
X46928050Y43791970D03*
Y44020570D03*
X47071050Y45870970D03*
Y46099570D03*
X47188050Y43790970D03*
Y44019570D03*
X47282050Y45872970D03*
Y46101570D03*
D02*
D99*
X43520800Y46620270D03*
Y46842270D03*
Y47064270D03*
X43523800Y46394270D03*
Y47495270D03*
X43711300Y46620270D03*
Y46842270D03*
Y47064270D03*
X43714300Y46394270D03*
Y47495270D03*
X44790300Y44727770D03*
Y44950270D03*
X44980800Y44727770D03*
Y44950270D03*
X47747800Y46432770D03*
X47752800Y46177770D03*
Y46682770D03*
X47755300Y45920270D03*
X47938300Y46432770D03*
X47943300Y46177770D03*
Y46682770D03*
X47945800Y45920270D03*
D02*
D100*
X45208050Y44740270D03*
Y45050270D03*
X45398050Y44740270D03*
Y45050270D03*
X48140550Y45920270D03*
X48140560Y46180270D03*
X48143050Y46432770D03*
Y46682770D03*
X48330550Y45920270D03*
X48330560Y46180270D03*
X48333050Y46432770D03*
Y46682770D03*
D02*
D101*
X43070050Y45692270D03*
X43290050Y45597270D03*
Y45787270D03*
X43702050Y44849270D03*
Y44944270D03*
Y45039270D03*
X43952050Y44849270D03*
Y45039270D03*
D02*
D102*
X43425550Y46080270D03*
X43730550D03*
D02*
D103*
X43975050Y45251770D03*
Y45316770D03*
Y45381770D03*
Y45446770D03*
X44415050Y45251770D03*
Y45316770D03*
Y45381770D03*
Y45446770D03*
D02*
D104*
X44792050Y45336020D03*
Y45526520D03*
X45051050Y45344020D03*
Y45534520D03*
D02*
D105*
X43100550Y46752770D03*
Y46817770D03*
Y46882770D03*
Y46947770D03*
Y47012770D03*
D02*
D106*
X42689050Y45469270D03*
Y45929270D03*
D02*
D107*
X44208550Y46809270D03*
Y46859270D03*
Y46909270D03*
X44369550Y46809270D03*
Y46859270D03*
Y46909270D03*
D02*
D108*
X46438250Y44531270D03*
Y44581270D03*
Y44631270D03*
Y44681270D03*
Y44731270D03*
Y44781270D03*
Y44831270D03*
Y44881270D03*
Y44931270D03*
Y44981270D03*
Y45031270D03*
Y45081270D03*
Y45131270D03*
Y45181270D03*
Y45231270D03*
Y45281270D03*
X47585850Y44531270D03*
Y44581270D03*
Y44631270D03*
Y44681270D03*
Y44731270D03*
Y44781270D03*
Y44831270D03*
Y44881270D03*
Y44931270D03*
Y44981270D03*
Y45031270D03*
Y45081270D03*
Y45131270D03*
Y45181270D03*
Y45231270D03*
Y45281270D03*
D02*
D109*
X46637050Y44332470D03*
Y45480070D03*
X46687050Y44332470D03*
Y45480070D03*
X46737050Y44332470D03*
Y45480070D03*
X46787050Y44332470D03*
Y45480070D03*
X46837050Y44332470D03*
Y45480070D03*
X46887050Y44332470D03*
Y45480070D03*
X46937050Y44332470D03*
Y45480070D03*
X46987050Y44332470D03*
Y45480070D03*
X47037050Y44332470D03*
Y45480070D03*
X47087050Y44332470D03*
Y45480070D03*
X47137050Y44332470D03*
Y45480070D03*
X47187050Y44332470D03*
Y45480070D03*
X47237050Y44332470D03*
Y45480070D03*
X47287050Y44332470D03*
Y45480070D03*
X47337050Y44332470D03*
Y45480070D03*
X47387050Y44332470D03*
Y45480070D03*
D02*
D110*
X46248050Y45963270D03*
Y46123270D03*
X46468050Y45963270D03*
Y46123270D03*
D02*
D111*
X46055550Y45692770D03*
X46158050Y46420270D03*
X46215550Y45692770D03*
X46318050Y46420270D03*
D02*
D112*
X43527750Y47279270D03*
X43756350D03*
X44261250Y47455270D03*
X44489850D03*
X45717750Y44890270D03*
X45946350D03*
X47976750Y44806270D03*
X48205350D03*
D02*
D113*
X45689050Y45116270D03*
X45949050D03*
D02*
D114*
X47464550Y45810270D03*
Y45945270D03*
X0Y0D02*
M02*
