G04 DesignSpark PCB Gerber Version 12.0 Build 5942*
%FSLAX35Y35*%
%MOMM*%
%ADD16C,0.02540*%
%ADD19C,0.05000*%
%ADD15C,0.08000*%
%ADD18C,0.10000*%
%ADD14C,0.11170*%
%ADD11C,0.12700*%
%ADD13C,0.16760*%
%ADD17C,0.20000*%
%ADD70C,0.20320*%
%ADD71C,0.25000*%
%ADD20C,0.25400*%
%ADD10C,0.30480*%
%ADD12C,0.31750*%
X0Y0D02*
D02*
D10*
X46248750Y47637770D02*
X45435950D01*
X45321650Y47752070D01*
X47315550Y47637770D02*
X48128350D01*
X48242650Y47752070D01*
D02*
D11*
X42875550Y43667460D02*
X42883490Y43659520D01*
X42899360Y43651580D01*
X42915240Y43659520D01*
X42923180Y43667460D01*
Y43746830D01*
X42939050D01*
X42923180D02*
X42891430D01*
X43018430Y43651580D02*
X43050180D01*
X43034300D02*
Y43746830D01*
X43018430Y43730960D01*
X43564950Y44736070D02*
Y45142470D01*
X43387150D01*
Y44736070D01*
X43564950D01*
X43845250Y47368170D02*
X43438850D01*
Y47190370D01*
X43845250D01*
Y47368170D01*
X44030900Y48283700D02*
X46595100D01*
Y48004300D01*
X44094400D01*
X44030900Y48067800D01*
Y48283700D01*
X44172350Y47366370D02*
X44578750D01*
Y47544170D01*
X44172350D01*
Y47366370D01*
X44274450Y44722070D02*
Y45128470D01*
X44096650D01*
Y44722070D01*
X44274450D01*
X44352240Y44591890D02*
X44344300Y44599830D01*
X44336360Y44615710D01*
Y44639520D01*
X44344300Y44655390D01*
X44352240Y44663330D01*
X44368110Y44671270D01*
X44399860D01*
X44415740Y44663330D01*
X44423680Y44655390D01*
X44431610Y44639520D01*
Y44615710D01*
X44423680Y44599830D01*
X44415740Y44591890D01*
X44336360Y44480770D02*
Y44544270D01*
X44391930Y44488710D01*
X44407800Y44480770D01*
X44423680Y44488710D01*
X44431610Y44504580D01*
Y44528390D01*
X44423680Y44544270D01*
X44950300Y43440700D02*
X47007700D01*
Y43161300D01*
X45013800D01*
X44950300Y43224800D01*
Y43440700D01*
X46035250Y44979170D02*
X45628850D01*
Y44801370D01*
X46035250D01*
Y44979170D01*
X46218050Y43878960D02*
Y43783710D01*
X46162490D01*
X46146610Y43791640D01*
X46138670Y43807520D01*
X46146610Y43823390D01*
X46162490Y43831330D01*
X46218050D01*
X46091050Y43847210D02*
Y43815460D01*
X46083110Y43799580D01*
X46075170Y43791640D01*
X46059300Y43783710D01*
X46043420D01*
X46027550Y43791640D01*
X46019610Y43799580D01*
X46011670Y43815460D01*
Y43847210D01*
X46019610Y43863080D01*
X46027550Y43871020D01*
X46043420Y43878960D01*
X46059300D01*
X46075170Y43871020D01*
X46083110Y43863080D01*
X46091050Y43847210D01*
X45964050Y43783710D02*
X45956110Y43878960D01*
X45924360Y43831330D01*
X45892610Y43878960D01*
X45884670Y43783710D01*
X45837050Y43878960D02*
Y43783710D01*
X45757670D01*
X45773550Y43831330D02*
X45837050D01*
Y43878960D02*
X45757670D01*
X45710050D02*
Y43783710D01*
X45654490D01*
X45638610Y43791640D01*
X45630670Y43807520D01*
X45638610Y43823390D01*
X45654490Y43831330D01*
X45710050D01*
X45654490D02*
X45630670Y43878960D01*
X46725350Y48279970D02*
X48782750D01*
Y48000570D01*
X46788850D01*
X46725350Y48064070D01*
Y48279970D01*
X46839150Y44109470D02*
Y43703070D01*
X47016950D01*
Y44109470D01*
X46839150D01*
X47099150Y44108470D02*
Y43702070D01*
X47276950D01*
Y44108470D01*
X47099150D01*
X47159950Y45782070D02*
Y46188470D01*
X46982150D01*
Y45782070D01*
X47159950D01*
X47221300Y43440700D02*
X48763500D01*
Y43161300D01*
X47284800D01*
X47221300Y43224800D01*
Y43440700D01*
X47370950Y45784070D02*
Y46190470D01*
X47193150D01*
Y45784070D01*
X47370950D01*
X47887850Y44717370D02*
X48294250D01*
Y44895170D01*
X47887850D01*
Y44717370D01*
X48620550Y43878960D02*
X48580860Y43783710D01*
X48541170Y43878960D01*
X48604670Y43839270D02*
X48557050D01*
X48493550Y43878960D02*
Y43783710D01*
X48414170Y43878960D01*
Y43783710D01*
X48366550Y43878960D02*
X48326860Y43783710D01*
X48287170Y43878960D01*
X48350670Y43839270D02*
X48303050D01*
X48239550Y43783710D02*
Y43878960D01*
X48160170D01*
X48112550Y43847210D02*
Y43815460D01*
X48104610Y43799580D01*
X48096670Y43791640D01*
X48080800Y43783710D01*
X48064920D01*
X48049050Y43791640D01*
X48041110Y43799580D01*
X48033170Y43815460D01*
Y43847210D01*
X48041110Y43863080D01*
X48049050Y43871020D01*
X48064920Y43878960D01*
X48080800D01*
X48096670Y43871020D01*
X48104610Y43863080D01*
X48112550Y43847210D01*
X47929990Y43839270D02*
X47906170D01*
Y43847210D01*
X47914110Y43863080D01*
X47922050Y43871020D01*
X47937920Y43878960D01*
X47953800D01*
X47969670Y43871020D01*
X47977610Y43863080D01*
X47985550Y43847210D01*
Y43815460D01*
X47977610Y43799580D01*
X47969670Y43791640D01*
X47953800Y43783710D01*
X47937920D01*
X47922050Y43791640D01*
X47914110Y43799580D01*
X47906170Y43815460D01*
X47707740Y43878960D02*
X47675990D01*
X47691860D02*
Y43783710D01*
X47707740D02*
X47675990D01*
X47604550Y43878960D02*
Y43783710D01*
X47525170Y43878960D01*
Y43783710D01*
X48643050Y46857770D02*
X48698050Y46912770D01*
X48589300Y46911520D01*
X48643050Y46857770D01*
G36*
X48643050Y46857770D02*
X48698050Y46912770D01*
X48589300Y46911520D01*
X48643050Y46857770D01*
G37*
D02*
D12*
X45885390Y46919650D02*
X45925080Y46899800D01*
X45964770D01*
X46004460Y46919650D01*
X46024300Y46959330D01*
X46004460Y46999020D01*
X45964770Y47018860D01*
X45925080D01*
X45964770D02*
X46004460Y47038710D01*
X46024300Y47078400D01*
X46004460Y47118080D01*
X45964770Y47137930D01*
X45925080D01*
X45885390Y47118080D01*
X46341800Y46899800D02*
X46183050D01*
X46321960Y47038710D01*
X46341800Y47078400D01*
X46321960Y47118080D01*
X46282270Y47137930D01*
X46222740D01*
X46183050Y47118080D01*
X46500550Y46899800D02*
Y47137930D01*
X46599770Y47018860D01*
X46698990Y47137930D01*
Y46899800D01*
X46818050Y47137930D02*
X47016490D01*
X46818050Y46899800D01*
X47016490D01*
X47135550D02*
X47333990D01*
X47453050Y47137930D02*
Y46959330D01*
X47472890Y46919650D01*
X47512580Y46899800D01*
X47591960D01*
X47631640Y46919650D01*
X47651490Y46959330D01*
Y47137930D01*
X47770550Y46899800D02*
Y47137930D01*
X47968990Y46899800D01*
Y47137930D01*
X48088050Y46979180D02*
Y47058550D01*
X48107890Y47098240D01*
X48127740Y47118080D01*
X48167430Y47137930D01*
X48207110D01*
X48246800Y47118080D01*
X48266640Y47098240D01*
X48286490Y47058550D01*
Y46979180D01*
X48266640Y46939490D01*
X48246800Y46919650D01*
X48207110Y46899800D01*
X48167430D01*
X48127740Y46919650D01*
X48107890Y46939490D01*
X48088050Y46979180D01*
D02*
D13*
X46315890Y47602120D02*
Y47727850D01*
X46378760D01*
X46399710Y47717380D01*
X46410190Y47706900D01*
X46420670Y47685940D01*
Y47644030D01*
X46410190Y47623080D01*
X46399710Y47612600D01*
X46378760Y47602120D01*
X46315890D01*
X46514960D02*
X46556870D01*
X46535920D02*
Y47727850D01*
X46514960D02*
X46556870D01*
X46724510Y47654510D02*
X46755950D01*
Y47644030D01*
X46745470Y47623080D01*
X46734990Y47612600D01*
X46714040Y47602120D01*
X46693080D01*
X46672130Y47612600D01*
X46661650Y47623080D01*
X46651170Y47644030D01*
Y47685940D01*
X46661650Y47706900D01*
X46672130Y47717380D01*
X46693080Y47727850D01*
X46714040D01*
X46734990Y47717380D01*
X46745470Y47706900D01*
X46755950Y47685940D01*
X46850240Y47602120D02*
X46892150D01*
X46871200D02*
Y47727850D01*
X46850240D02*
X46892150D01*
X47038840Y47602120D02*
Y47727850D01*
X46986450D02*
X47091230D01*
X47154090Y47602120D02*
X47206480Y47727850D01*
X47258870Y47602120D01*
X47175050Y47654510D02*
X47237910D01*
X47321730Y47727850D02*
Y47602120D01*
X47426510D01*
D02*
D14*
X46531960Y47455530D02*
X46517990D01*
Y47539350D01*
X46531960D01*
X46615780Y47455530D02*
X46629750Y47539350D01*
X46657690D02*
X46643720Y47455530D01*
X46664680Y47476480D02*
X46601810D01*
X46608800Y47518390D02*
X46671660D01*
X46713570Y47469500D02*
X46769450D01*
Y47497440D02*
X46713570D01*
X46825330Y47455530D02*
Y47539350D01*
X46874230D01*
X46888200Y47532360D01*
X46895180Y47518390D01*
X46888200Y47504420D01*
X46874230Y47497440D01*
X46825330D01*
X46937090Y47539350D02*
X46944080Y47455530D01*
X46972020Y47497440D01*
X46999960Y47455530D01*
X47006940Y47539350D01*
X47048850Y47455530D02*
Y47539350D01*
X47083780Y47497440D01*
X47118700Y47539350D01*
Y47455530D01*
X47174580D02*
X47188550D01*
Y47539350D01*
X47174580D01*
D02*
D15*
X42633050Y46852180D02*
Y46883930D01*
Y46879960D02*
X42636230Y46883930D01*
X42642580D01*
X42645750Y46879960D01*
Y46868050D01*
Y46879960D02*
X42648920Y46883930D01*
X42655270D01*
X42658450Y46879960D01*
Y46852180D01*
X42696550D02*
Y46883930D01*
Y46895830D02*
X42760050Y46879960D02*
X42753700Y46883930D01*
X42744180D01*
X42737830Y46879960D01*
X42734650Y46872020D01*
Y46864080D01*
X42737830Y46856150D01*
X42744180Y46852180D01*
X42753700D01*
X42760050Y46856150D01*
X42785450Y46852180D02*
Y46883930D01*
Y46872020D02*
X42788630Y46879960D01*
X42794980Y46883930D01*
X42801320D01*
X42807670Y46879960D01*
X42836250Y46864080D02*
X42839430Y46856150D01*
X42845780Y46852180D01*
X42852120D01*
X42858470Y46856150D01*
X42861650Y46864080D01*
Y46872020D01*
X42858470Y46879960D01*
X42852120Y46883930D01*
X42845780D01*
X42839430Y46879960D01*
X42836250Y46872020D01*
Y46864080D01*
X42887050Y46899800D02*
Y46864080D01*
X42890230Y46856150D01*
X42896580Y46852180D01*
X42909270D01*
X42915630Y46856150D01*
X42918800Y46864080D01*
Y46899800D01*
X42937850Y46864080D02*
X42941030Y46856150D01*
X42947380Y46852180D01*
X42960070D01*
X42966430Y46856150D01*
X42969600Y46864080D01*
X42966430Y46872020D01*
X42960070Y46875990D01*
X42947380D01*
X42941030Y46879960D01*
X42937850Y46887900D01*
X42941030Y46895830D01*
X42947380Y46899800D01*
X42960070D01*
X42966430Y46895830D01*
X42969600Y46887900D01*
X43010870Y46875990D02*
X43017230Y46872020D01*
X43020400Y46864080D01*
X43017230Y46856150D01*
X43010870Y46852180D01*
X42988650D01*
Y46899800D01*
X43010870D01*
X43017230Y46895830D01*
X43020400Y46887900D01*
X43017230Y46879960D01*
X43010870Y46875990D01*
X42988650D01*
X42640050Y45732180D02*
Y45779800D01*
X42671800D01*
X42665450Y45755990D02*
X42640050D01*
X42697200Y45732180D02*
X42709900D01*
X42703550D02*
Y45779800D01*
X42697200Y45771860D01*
X42782230Y44811150D02*
X42788580Y44807180D01*
X42794920D01*
X42801270Y44811150D01*
X42804450Y44819080D01*
X42801270Y44827020D01*
X42794920Y44830990D01*
X42788580D01*
X42794920D02*
X42801270Y44834960D01*
X42804450Y44842900D01*
X42801270Y44850830D01*
X42794920Y44854800D01*
X42788580D01*
X42782230Y44850830D01*
X42829850Y44838930D02*
X42842550Y44807180D01*
X42855250Y44838930D01*
X42823050Y47941580D02*
X42826230Y47933650D01*
X42832580Y47929680D01*
X42845270D01*
X42851630Y47933650D01*
X42854800Y47941580D01*
X42851630Y47949520D01*
X42845270Y47953490D01*
X42832580D01*
X42826230Y47957460D01*
X42823050Y47965400D01*
X42826230Y47973330D01*
X42832580Y47977300D01*
X42845270D01*
X42851630Y47973330D01*
X42854800Y47965400D01*
X42880200Y47929680D02*
X42892900D01*
X42886550D02*
Y47977300D01*
X42880200Y47969360D01*
X43299800Y47289110D02*
X43296630Y47285150D01*
X43290270Y47281180D01*
X43280750D01*
X43274400Y47285150D01*
X43271230Y47289110D01*
X43268050Y47297050D01*
Y47312930D01*
X43271230Y47320860D01*
X43274400Y47324830D01*
X43280750Y47328800D01*
X43290270D01*
X43296630Y47324830D01*
X43299800Y47320860D01*
X43325200Y47281180D02*
X43337900D01*
X43331550D02*
Y47328800D01*
X43325200Y47320860D01*
X43372830Y47285150D02*
X43379180Y47281180D01*
X43385520D01*
X43391870Y47285150D01*
X43395050Y47293080D01*
X43391870Y47301020D01*
X43385520Y47304990D01*
X43379180D01*
X43385520D02*
X43391870Y47308960D01*
X43395050Y47316900D01*
X43391870Y47324830D01*
X43385520Y47328800D01*
X43379180D01*
X43372830Y47324830D01*
X43331550Y46382180D02*
Y46429800D01*
X43353770D01*
X43360130Y46425830D01*
X43363300Y46417900D01*
X43360130Y46409960D01*
X43353770Y46405990D01*
X43331550D01*
X43353770D02*
X43363300Y46382180D01*
X43391880Y46405990D02*
X43398220D01*
X43404570Y46409960D01*
X43407750Y46417900D01*
X43404570Y46425830D01*
X43398220Y46429800D01*
X43391880D01*
X43385530Y46425830D01*
X43382350Y46417900D01*
X43385530Y46409960D01*
X43391880Y46405990D01*
X43385530Y46402020D01*
X43382350Y46394080D01*
X43385530Y46386150D01*
X43391880Y46382180D01*
X43398220D01*
X43404570Y46386150D01*
X43407750Y46394080D01*
X43404570Y46402020D01*
X43398220Y46405990D01*
X43331550Y46596180D02*
Y46643800D01*
X43353770D01*
X43360130Y46639830D01*
X43363300Y46631900D01*
X43360130Y46623960D01*
X43353770Y46619990D01*
X43331550D01*
X43353770D02*
X43363300Y46596180D01*
X43382350D02*
X43407750Y46643800D01*
X43382350D01*
X43331550Y46832180D02*
Y46879800D01*
X43353770D01*
X43360130Y46875830D01*
X43363300Y46867900D01*
X43360130Y46859960D01*
X43353770Y46855990D01*
X43331550D01*
X43353770D02*
X43363300Y46832180D01*
X43382350Y46844080D02*
X43385530Y46852020D01*
X43391880Y46855990D01*
X43398220D01*
X43404570Y46852020D01*
X43407750Y46844080D01*
X43404570Y46836150D01*
X43398220Y46832180D01*
X43391880D01*
X43385530Y46836150D01*
X43382350Y46844080D01*
Y46855990D01*
X43385530Y46867900D01*
X43391880Y46875830D01*
X43398220Y46879800D01*
X43331550Y47052180D02*
Y47099800D01*
X43353770D01*
X43360130Y47095830D01*
X43363300Y47087900D01*
X43360130Y47079960D01*
X43353770Y47075990D01*
X43331550D01*
X43353770D02*
X43363300Y47052180D01*
X43382350Y47056150D02*
X43388700Y47052180D01*
X43398220D01*
X43404570Y47056150D01*
X43407750Y47064080D01*
Y47068050D01*
X43404570Y47075990D01*
X43398220Y47079960D01*
X43382350D01*
Y47099800D01*
X43407750D01*
X43331550Y47468180D02*
Y47515800D01*
X43353770D01*
X43360130Y47511830D01*
X43363300Y47503900D01*
X43360130Y47495960D01*
X43353770Y47491990D01*
X43331550D01*
X43353770D02*
X43363300Y47468180D01*
X43391880D02*
X43398220Y47472150D01*
X43404570Y47480080D01*
X43407750Y47491990D01*
Y47503900D01*
X43404570Y47511830D01*
X43398220Y47515800D01*
X43391880D01*
X43385530Y47511830D01*
X43382350Y47503900D01*
X43385530Y47495960D01*
X43391880Y47491990D01*
X43398220D01*
X43404570Y47495960D01*
X43407750Y47503900D01*
X43532270Y46080990D02*
X43538630Y46077020D01*
X43541800Y46069080D01*
X43538630Y46061150D01*
X43532270Y46057180D01*
X43510050D01*
Y46104800D01*
X43532270D01*
X43538630Y46100830D01*
X43541800Y46092900D01*
X43538630Y46084960D01*
X43532270Y46080990D01*
X43510050D01*
X43560850Y46057180D02*
Y46104800D01*
X43583070D01*
X43589430Y46100830D01*
X43592600Y46092900D01*
X43589430Y46084960D01*
X43583070Y46080990D01*
X43560850D01*
X43583070D02*
X43592600Y46057180D01*
X43618000D02*
X43630700D01*
X43624350D02*
Y46104800D01*
X43618000Y46096860D01*
X43510270Y45662770D02*
X43494390D01*
X43486460Y45665950D01*
X43482490Y45669120D01*
X43478520Y45675470D01*
Y45681820D01*
X43482490Y45688170D01*
X43486460Y45691350D01*
X43494390Y45694520D01*
X43510270D01*
X43518210Y45691350D01*
X43522170Y45688170D01*
X43526140Y45681820D01*
Y45675470D01*
X43522170Y45669120D01*
X43518210Y45665950D01*
X43510270Y45662770D01*
X43514240Y45684990D02*
X43526140Y45694520D01*
Y45719920D02*
Y45732620D01*
Y45726270D02*
X43478520D01*
X43486460Y45719920D01*
X44139800Y43997610D02*
X44136630Y43993650D01*
X44130270Y43989680D01*
X44120750D01*
X44114400Y43993650D01*
X44111230Y43997610D01*
X44108050Y44005550D01*
Y44021430D01*
X44111230Y44029360D01*
X44114400Y44033330D01*
X44120750Y44037300D01*
X44130270D01*
X44136630Y44033330D01*
X44139800Y44029360D01*
X44162030Y43993650D02*
X44168380Y43989680D01*
X44174720D01*
X44181070Y43993650D01*
X44184250Y44001580D01*
X44181070Y44009520D01*
X44174720Y44013490D01*
X44168380D01*
X44174720D02*
X44181070Y44017460D01*
X44184250Y44025400D01*
X44181070Y44033330D01*
X44174720Y44037300D01*
X44168380D01*
X44162030Y44033330D01*
X44344800Y47302610D02*
X44341630Y47298650D01*
X44335270Y47294680D01*
X44325750D01*
X44319400Y47298650D01*
X44316230Y47302610D01*
X44313050Y47310550D01*
Y47326430D01*
X44316230Y47334360D01*
X44319400Y47338330D01*
X44325750Y47342300D01*
X44335270D01*
X44341630Y47338330D01*
X44344800Y47334360D01*
X44370200Y47294680D02*
X44382900D01*
X44376550D02*
Y47342300D01*
X44370200Y47334360D01*
X44430520Y47294680D02*
Y47342300D01*
X44414650Y47310550D01*
X44440050D01*
X44608050Y44707180D02*
Y44754800D01*
X44630270D01*
X44636630Y44750830D01*
X44639800Y44742900D01*
X44636630Y44734960D01*
X44630270Y44730990D01*
X44608050D01*
X44630270D02*
X44639800Y44707180D01*
X44665200D02*
X44677900D01*
X44671550D02*
Y44754800D01*
X44665200Y44746860D01*
X44615550Y44854680D02*
Y44902300D01*
X44637770D01*
X44644130Y44898330D01*
X44647300Y44890400D01*
X44644130Y44882460D01*
X44637770Y44878490D01*
X44615550D01*
X44637770D02*
X44647300Y44854680D01*
X44682220D02*
Y44902300D01*
X44666350Y44870550D01*
X44691750D01*
X44772460Y45237770D02*
X44820080D01*
Y45215550D01*
X44816110Y45209190D01*
X44808180Y45206020D01*
X44800240Y45209190D01*
X44796270Y45215550D01*
Y45237770D01*
Y45215550D02*
X44772460Y45206020D01*
X44776430Y45183790D02*
X44772460Y45177440D01*
Y45171100D01*
X44776430Y45164750D01*
X44784360Y45161570D01*
X44792300Y45164750D01*
X44796270Y45171100D01*
Y45177440D01*
Y45171100D02*
X44800240Y45164750D01*
X44808180Y45161570D01*
X44816110Y45164750D01*
X44820080Y45171100D01*
Y45177440D01*
X44816110Y45183790D01*
X44807050Y46052180D02*
Y46099800D01*
X44829270D01*
X44835630Y46095830D01*
X44838800Y46087900D01*
X44835630Y46079960D01*
X44829270Y46075990D01*
X44807050D01*
X44829270D02*
X44838800Y46052180D01*
X44880070Y46075990D02*
X44886430Y46072020D01*
X44889600Y46064080D01*
X44886430Y46056150D01*
X44880070Y46052180D01*
X44857850D01*
Y46099800D01*
X44880070D01*
X44886430Y46095830D01*
X44889600Y46087900D01*
X44886430Y46079960D01*
X44880070Y46075990D01*
X44857850D01*
X44915000Y46052180D02*
X44927700D01*
X44921350D02*
Y46099800D01*
X44915000Y46091860D01*
X44962630Y46056150D02*
X44968980Y46052180D01*
X44975320D01*
X44981670Y46056150D01*
X44984850Y46064080D01*
Y46087900D01*
X44981670Y46095830D01*
X44975320Y46099800D01*
X44968980D01*
X44962630Y46095830D01*
X44959450Y46087900D01*
Y46064080D01*
X44962630Y46056150D01*
X44981670Y46095830D01*
X44892770Y46319520D02*
X44902300D01*
Y46315550D01*
X44899130Y46307610D01*
X44895950Y46303650D01*
X44889600Y46299680D01*
X44883250D01*
X44876900Y46303650D01*
X44873730Y46307610D01*
X44870550Y46315550D01*
Y46331430D01*
X44873730Y46339360D01*
X44876900Y46343330D01*
X44883250Y46347300D01*
X44889600D01*
X44895950Y46343330D01*
X44899130Y46339360D01*
X44902300Y46331430D01*
X44921350Y46299680D02*
Y46347300D01*
X44953100Y46299680D01*
Y46347300D01*
X44972150Y46299680D02*
Y46347300D01*
X44991200D01*
X44997550Y46343330D01*
X45000730Y46339360D01*
X45003900Y46331430D01*
Y46315550D01*
X45000730Y46307610D01*
X44997550Y46303650D01*
X44991200Y46299680D01*
X44972150D01*
X44870550Y46554680D02*
Y46602300D01*
X44892770D01*
X44899130Y46598330D01*
X44902300Y46590400D01*
X44899130Y46582460D01*
X44892770Y46578490D01*
X44870550D01*
X44892770D02*
X44902300Y46554680D01*
X44921350D02*
Y46602300D01*
X44953100D01*
X44946750Y46578490D02*
X44921350D01*
Y46554680D02*
X44953100D01*
X44972150Y46558650D02*
X44978500Y46554680D01*
X44988020D01*
X44994370Y46558650D01*
X44997550Y46566580D01*
Y46570550D01*
X44994370Y46578490D01*
X44988020Y46582460D01*
X44972150D01*
Y46602300D01*
X44997550D01*
X44870550Y46819680D02*
Y46867300D01*
X44892770D01*
X44899130Y46863330D01*
X44902300Y46855400D01*
X44899130Y46847460D01*
X44892770Y46843490D01*
X44870550D01*
X44892770D02*
X44902300Y46819680D01*
X44921350D02*
Y46867300D01*
X44953100D01*
X44946750Y46843490D02*
X44921350D01*
Y46819680D02*
X44953100D01*
X44972150Y46831580D02*
X44975330Y46839520D01*
X44981680Y46843490D01*
X44988020D01*
X44994370Y46839520D01*
X44997550Y46831580D01*
X44994370Y46823650D01*
X44988020Y46819680D01*
X44981680D01*
X44975330Y46823650D01*
X44972150Y46831580D01*
Y46843490D01*
X44975330Y46855400D01*
X44981680Y46863330D01*
X44988020Y46867300D01*
X44870550Y47059680D02*
Y47107300D01*
X44892770D01*
X44899130Y47103330D01*
X44902300Y47095400D01*
X44899130Y47087460D01*
X44892770Y47083490D01*
X44870550D01*
X44892770D02*
X44902300Y47059680D01*
X44921350D02*
Y47107300D01*
X44953100D01*
X44946750Y47083490D02*
X44921350D01*
Y47059680D02*
X44953100D01*
X44972150D02*
X44997550Y47107300D01*
X44972150D01*
X44918800Y47826050D02*
Y47837960D01*
X44922770D01*
X44930710Y47833990D01*
X44934670Y47830020D01*
X44938640Y47822080D01*
Y47814150D01*
X44934670Y47806210D01*
X44930710Y47802240D01*
X44922770Y47798270D01*
X44906890D01*
X44898960Y47802240D01*
X44894990Y47806210D01*
X44891020Y47814150D01*
Y47822080D01*
X44894990Y47830020D01*
X44898960Y47833990D01*
X44906890Y47837960D01*
X44938640Y47861770D02*
X44891020D01*
X44938640Y47901460D01*
X44891020D01*
X44938640Y47925270D02*
X44891020D01*
Y47949080D01*
X44894990Y47957020D01*
X44898960Y47960990D01*
X44906890Y47964960D01*
X44922770D01*
X44930710Y47960990D01*
X44934670Y47957020D01*
X44938640Y47949080D01*
Y47925270D01*
X44987800Y43987110D02*
X44984630Y43983150D01*
X44978270Y43979180D01*
X44968750D01*
X44962400Y43983150D01*
X44959230Y43987110D01*
X44956050Y43995050D01*
Y44010930D01*
X44959230Y44018860D01*
X44962400Y44022830D01*
X44968750Y44026800D01*
X44978270D01*
X44984630Y44022830D01*
X44987800Y44018860D01*
X45013200Y43979180D02*
X45025900D01*
X45019550D02*
Y44026800D01*
X45013200Y44018860D01*
X45022460Y45245270D02*
X45070080D01*
Y45223050D01*
X45066110Y45216690D01*
X45058180Y45213520D01*
X45050240Y45216690D01*
X45046270Y45223050D01*
Y45245270D01*
Y45223050D02*
X45022460Y45213520D01*
Y45169070D02*
Y45194470D01*
X45050240Y45172250D01*
X45058180Y45169070D01*
X45066110Y45172250D01*
X45070080Y45178600D01*
Y45188120D01*
X45066110Y45194470D01*
X45191140Y47869710D02*
Y47885580D01*
Y47877650D02*
X45143520D01*
X45151460Y47869710D01*
X45187170Y47929240D02*
X45191140Y47937180D01*
Y47945110D01*
X45187170Y47953050D01*
X45179240Y47957020D01*
X45171300Y47953050D01*
X45167330Y47945110D01*
Y47937180D01*
Y47945110D02*
X45163360Y47953050D01*
X45155420Y47957020D01*
X45147490Y47953050D01*
X45143520Y47945110D01*
Y47937180D01*
X45147490Y47929240D01*
X45230990Y45179680D02*
X45246860D01*
X45238930D02*
Y45227300D01*
X45230990Y45219360D01*
X45318300Y45179680D02*
X45286550D01*
X45314330Y45207460D01*
X45318300Y45215400D01*
X45314330Y45223330D01*
X45306390Y45227300D01*
X45294490D01*
X45286550Y45223330D01*
X45350050Y45227300D02*
X45369890Y45179680D01*
X45389740Y45227300D01*
X45248050Y44871150D02*
X45254400Y44867180D01*
X45263920D01*
X45270270Y44871150D01*
X45273450Y44879080D01*
Y44883050D01*
X45270270Y44890990D01*
X45263920Y44894960D01*
X45248050D01*
Y44914800D01*
X45273450D01*
X45298850D02*
X45314720Y44867180D01*
X45330600Y44914800D01*
X45362270Y43470270D02*
X45366240Y43478210D01*
Y43490110D01*
X45362270Y43498050D01*
X45354340Y43502020D01*
X45350370D01*
X45342430Y43498050D01*
X45338460Y43490110D01*
Y43470270D01*
X45318620D01*
Y43502020D01*
Y43533770D02*
X45366240Y43553610D01*
X45318620Y43573460D01*
X45463640Y47869710D02*
Y47885580D01*
Y47877650D02*
X45416020D01*
X45423960Y47869710D01*
X45463640Y47957020D02*
Y47925270D01*
X45435860Y47953050D01*
X45427920Y47957020D01*
X45419990Y47953050D01*
X45416020Y47945110D01*
Y47933210D01*
X45419990Y47925270D01*
X45595550Y46049680D02*
Y46097300D01*
X45617770D01*
X45624130Y46093330D01*
X45627300Y46085400D01*
X45624130Y46077460D01*
X45617770Y46073490D01*
X45595550D01*
X45617770D02*
X45627300Y46049680D01*
X45646350D02*
Y46097300D01*
X45678100D01*
X45671750Y46073490D02*
X45646350D01*
X45697150Y46053650D02*
X45703500Y46049680D01*
X45713020D01*
X45719370Y46053650D01*
X45722550Y46061580D01*
Y46065550D01*
X45719370Y46073490D01*
X45713020Y46077460D01*
X45697150D01*
Y46097300D01*
X45722550D01*
X45747950Y46049680D02*
X45779700Y46097300D01*
X45798750Y46061580D02*
X45801930Y46053650D01*
X45808280Y46049680D01*
X45820970D01*
X45827330Y46053650D01*
X45830500Y46061580D01*
X45827330Y46069520D01*
X45820970Y46073490D01*
X45808280D01*
X45801930Y46077460D01*
X45798750Y46085400D01*
X45801930Y46093330D01*
X45808280Y46097300D01*
X45820970D01*
X45827330Y46093330D01*
X45830500Y46085400D01*
X45849550Y46049680D02*
Y46097300D01*
X45868600D01*
X45874950Y46093330D01*
X45878130Y46089360D01*
X45881300Y46081430D01*
Y46065550D01*
X45878130Y46057610D01*
X45874950Y46053650D01*
X45868600Y46049680D01*
X45849550D01*
X45900350D02*
X45916220Y46097300D01*
X45932100Y46049680D01*
X45906700Y46069520D02*
X45925750D01*
X45951150Y46053650D02*
X45957500Y46049680D01*
X45967020D01*
X45973370Y46053650D01*
X45976550Y46061580D01*
Y46065550D01*
X45973370Y46073490D01*
X45967020Y46077460D01*
X45951150D01*
Y46097300D01*
X45976550D01*
X45595550Y46299680D02*
Y46347300D01*
X45617770D01*
X45624130Y46343330D01*
X45627300Y46335400D01*
X45624130Y46327460D01*
X45617770Y46323490D01*
X45595550D01*
X45617770D02*
X45627300Y46299680D01*
X45646350D02*
Y46347300D01*
X45678100D01*
X45671750Y46323490D02*
X45646350D01*
X45713020Y46299680D02*
Y46347300D01*
X45697150Y46315550D01*
X45722550D01*
X45747950Y46299680D02*
X45779700Y46347300D01*
X45798750Y46311580D02*
X45801930Y46303650D01*
X45808280Y46299680D01*
X45820970D01*
X45827330Y46303650D01*
X45830500Y46311580D01*
X45827330Y46319520D01*
X45820970Y46323490D01*
X45808280D01*
X45801930Y46327460D01*
X45798750Y46335400D01*
X45801930Y46343330D01*
X45808280Y46347300D01*
X45820970D01*
X45827330Y46343330D01*
X45830500Y46335400D01*
X45881300Y46307610D02*
X45878130Y46303650D01*
X45871770Y46299680D01*
X45862250D01*
X45855900Y46303650D01*
X45852730Y46307610D01*
X45849550Y46315550D01*
Y46331430D01*
X45852730Y46339360D01*
X45855900Y46343330D01*
X45862250Y46347300D01*
X45871770D01*
X45878130Y46343330D01*
X45881300Y46339360D01*
X45900350Y46347300D02*
Y46299680D01*
X45932100D01*
X45951150Y46303650D02*
X45957500Y46299680D01*
X45967020D01*
X45973370Y46303650D01*
X45976550Y46311580D01*
Y46315550D01*
X45973370Y46323490D01*
X45967020Y46327460D01*
X45951150D01*
Y46347300D01*
X45976550D01*
X45595550Y46552180D02*
Y46599800D01*
X45617770D01*
X45624130Y46595830D01*
X45627300Y46587900D01*
X45624130Y46579960D01*
X45617770Y46575990D01*
X45595550D01*
X45617770D02*
X45627300Y46552180D01*
X45646350D02*
Y46599800D01*
X45665400D01*
X45671750Y46595830D01*
X45674930Y46591860D01*
X45678100Y46583930D01*
Y46568050D01*
X45674930Y46560110D01*
X45671750Y46556150D01*
X45665400Y46552180D01*
X45646350D01*
X45706680D02*
X45713020Y46556150D01*
X45719370Y46564080D01*
X45722550Y46575990D01*
Y46587900D01*
X45719370Y46595830D01*
X45713020Y46599800D01*
X45706680D01*
X45700330Y46595830D01*
X45697150Y46587900D01*
X45700330Y46579960D01*
X45706680Y46575990D01*
X45713020D01*
X45719370Y46579960D01*
X45722550Y46587900D01*
X45595550Y46804680D02*
Y46852300D01*
X45617770D01*
X45624130Y46848330D01*
X45627300Y46840400D01*
X45624130Y46832460D01*
X45617770Y46828490D01*
X45595550D01*
X45617770D02*
X45627300Y46804680D01*
X45668570Y46828490D02*
X45674930Y46824520D01*
X45678100Y46816580D01*
X45674930Y46808650D01*
X45668570Y46804680D01*
X45646350D01*
Y46852300D01*
X45668570D01*
X45674930Y46848330D01*
X45678100Y46840400D01*
X45674930Y46832460D01*
X45668570Y46828490D01*
X45646350D01*
X45706680D02*
X45713020D01*
X45719370Y46832460D01*
X45722550Y46840400D01*
X45719370Y46848330D01*
X45713020Y46852300D01*
X45706680D01*
X45700330Y46848330D01*
X45697150Y46840400D01*
X45700330Y46832460D01*
X45706680Y46828490D01*
X45700330Y46824520D01*
X45697150Y46816580D01*
X45700330Y46808650D01*
X45706680Y46804680D01*
X45713020D01*
X45719370Y46808650D01*
X45722550Y46816580D01*
X45719370Y46824520D01*
X45713020Y46828490D01*
X45595550Y47052180D02*
Y47099800D01*
X45617770D01*
X45624130Y47095830D01*
X45627300Y47087900D01*
X45624130Y47079960D01*
X45617770Y47075990D01*
X45595550D01*
X45617770D02*
X45627300Y47052180D01*
X45668570Y47075990D02*
X45674930Y47072020D01*
X45678100Y47064080D01*
X45674930Y47056150D01*
X45668570Y47052180D01*
X45646350D01*
Y47099800D01*
X45668570D01*
X45674930Y47095830D01*
X45678100Y47087900D01*
X45674930Y47079960D01*
X45668570Y47075990D01*
X45646350D01*
X45706680Y47052180D02*
X45713020Y47056150D01*
X45719370Y47064080D01*
X45722550Y47075990D01*
Y47087900D01*
X45719370Y47095830D01*
X45713020Y47099800D01*
X45706680D01*
X45700330Y47095830D01*
X45697150Y47087900D01*
X45700330Y47079960D01*
X45706680Y47075990D01*
X45713020D01*
X45719370Y47079960D01*
X45722550Y47087900D01*
X45609240Y43462770D02*
X45561620D01*
Y43490550D01*
X45565590Y43498490D01*
X45573520Y43502460D01*
X45581460Y43498490D01*
X45585430Y43490550D01*
Y43462770D01*
Y43490550D02*
X45609240Y43502460D01*
Y43526270D02*
X45561620D01*
Y43565960D01*
X45585430Y43558020D02*
Y43526270D01*
X45609240D02*
Y43565960D01*
X45597340Y43589770D02*
X45605270Y43593740D01*
X45609240Y43601680D01*
Y43617550D01*
X45605270Y43625490D01*
X45597340Y43629460D01*
X45589400Y43625490D01*
X45585430Y43617550D01*
Y43601680D01*
X45581460Y43593740D01*
X45573520Y43589770D01*
X45565590Y43593740D01*
X45561620Y43601680D01*
Y43617550D01*
X45565590Y43625490D01*
X45573520Y43629460D01*
X45609240Y43653270D02*
X45561620D01*
Y43692960D01*
X45585430Y43685020D02*
Y43653270D01*
X45609240D02*
Y43692960D01*
Y43736610D02*
X45561620D01*
Y43716770D02*
Y43756460D01*
X45698640Y47869710D02*
Y47885580D01*
Y47877650D02*
X45651020D01*
X45658960Y47869710D01*
X45698640Y47933210D02*
Y47949080D01*
Y47941150D02*
X45651020D01*
X45658960Y47933210D01*
X45899800Y45667620D02*
X45896630Y45663660D01*
X45890270Y45659690D01*
X45880750D01*
X45874400Y45663660D01*
X45871230Y45667620D01*
X45868050Y45675560D01*
Y45691440D01*
X45871230Y45699370D01*
X45874400Y45703340D01*
X45880750Y45707310D01*
X45890270D01*
X45896630Y45703340D01*
X45899800Y45699370D01*
X45918850Y45671590D02*
X45922030Y45679530D01*
X45928380Y45683500D01*
X45934720D01*
X45941070Y45679530D01*
X45944250Y45671590D01*
X45941070Y45663660D01*
X45934720Y45659690D01*
X45928380D01*
X45922030Y45663660D01*
X45918850Y45671590D01*
Y45683500D01*
X45922030Y45695410D01*
X45928380Y45703340D01*
X45934720Y45707310D01*
X45865270Y43461740D02*
X45869240Y43469680D01*
Y43477610D01*
X45865270Y43485550D01*
X45857340Y43489520D01*
X45849400Y43485550D01*
X45845430Y43477610D01*
Y43469680D01*
Y43477610D02*
X45841460Y43485550D01*
X45833520Y43489520D01*
X45825590Y43485550D01*
X45821620Y43477610D01*
Y43469680D01*
X45825590Y43461740D01*
X45869240Y43525240D02*
X45865270Y43529210D01*
X45861310Y43525240D01*
X45865270Y43521270D01*
X45869240Y43525240D01*
X45865270Y43588740D02*
X45869240Y43596680D01*
Y43604610D01*
X45865270Y43612550D01*
X45857340Y43616520D01*
X45849400Y43612550D01*
X45845430Y43604610D01*
Y43596680D01*
Y43604610D02*
X45841460Y43612550D01*
X45833520Y43616520D01*
X45825590Y43612550D01*
X45821620Y43604610D01*
Y43596680D01*
X45825590Y43588740D01*
X45821620Y43648270D02*
X45869240Y43668110D01*
X45821620Y43687960D01*
X45971140Y47869710D02*
Y47885580D01*
Y47877650D02*
X45923520D01*
X45931460Y47869710D01*
X45967170Y47929240D02*
X45971140Y47937180D01*
Y47945110D01*
X45967170Y47953050D01*
X45959240Y47957020D01*
X45935420D01*
X45927490Y47953050D01*
X45923520Y47945110D01*
Y47937180D01*
X45927490Y47929240D01*
X45935420Y47925270D01*
X45959240D01*
X45967170Y47929240D01*
X45927490Y47953050D01*
X46102300Y45105110D02*
X46099130Y45101150D01*
X46092770Y45097180D01*
X46083250D01*
X46076900Y45101150D01*
X46073730Y45105110D01*
X46070550Y45113050D01*
Y45128930D01*
X46073730Y45136860D01*
X46076900Y45140830D01*
X46083250Y45144800D01*
X46092770D01*
X46099130Y45140830D01*
X46102300Y45136860D01*
X46127700Y45097180D02*
X46140400D01*
X46134050D02*
Y45144800D01*
X46127700Y45136860D01*
X46197550Y45097180D02*
X46172150D01*
X46194370Y45124960D01*
X46197550Y45132900D01*
X46194370Y45140830D01*
X46188020Y45144800D01*
X46178500D01*
X46172150Y45140830D01*
X46104800Y44882610D02*
X46101630Y44878650D01*
X46095270Y44874680D01*
X46085750D01*
X46079400Y44878650D01*
X46076230Y44882610D01*
X46073050Y44890550D01*
Y44906430D01*
X46076230Y44914360D01*
X46079400Y44918330D01*
X46085750Y44922300D01*
X46095270D01*
X46101630Y44918330D01*
X46104800Y44914360D01*
X46139720Y44874680D02*
Y44922300D01*
X46123850Y44890550D01*
X46149250D01*
X46112770Y43457770D02*
X46116740Y43465710D01*
Y43477610D01*
X46112770Y43485550D01*
X46104840Y43489520D01*
X46100870D01*
X46092930Y43485550D01*
X46088960Y43477610D01*
Y43457770D01*
X46069120D01*
Y43489520D01*
Y43521270D02*
X46116740Y43541110D01*
X46069120Y43560960D01*
X46239800Y46537610D02*
X46236630Y46533650D01*
X46230270Y46529680D01*
X46220750D01*
X46214400Y46533650D01*
X46211230Y46537610D01*
X46208050Y46545550D01*
Y46561430D01*
X46211230Y46569360D01*
X46214400Y46573330D01*
X46220750Y46577300D01*
X46230270D01*
X46236630Y46573330D01*
X46239800Y46569360D01*
X46258850Y46529680D02*
X46284250Y46577300D01*
X46258850D01*
X46226140Y47869710D02*
X46178520Y47877650D01*
Y47893520D02*
X46226140Y47885580D01*
X46214240Y47897490D02*
Y47861770D01*
X46190420Y47865740D02*
Y47901460D01*
X46226140Y47937180D02*
X46222170Y47945110D01*
X46214240Y47953050D01*
X46202330Y47957020D01*
X46190420D01*
X46182490Y47953050D01*
X46178520Y47945110D01*
Y47937180D01*
X46182490Y47929240D01*
X46190420Y47925270D01*
X46198360Y47929240D01*
X46202330Y47937180D01*
Y47945110D01*
X46198360Y47953050D01*
X46190420Y47957020D01*
X46326920Y45835180D02*
Y45858990D01*
X46311050Y45882800D01*
X46326920Y45858990D02*
X46342800Y45882800D01*
X46368200Y45835180D02*
X46380900D01*
X46374550D02*
Y45882800D01*
X46368200Y45874860D01*
X46366900Y43485550D02*
Y43497460D01*
X46370870D01*
X46378810Y43493490D01*
X46382770Y43489520D01*
X46386740Y43481580D01*
Y43473650D01*
X46382770Y43465710D01*
X46378810Y43461740D01*
X46370870Y43457770D01*
X46354990D01*
X46347060Y43461740D01*
X46343090Y43465710D01*
X46339120Y43473650D01*
Y43481580D01*
X46343090Y43489520D01*
X46347060Y43493490D01*
X46354990Y43497460D01*
X46386740Y43521270D02*
X46339120D01*
X46386740Y43560960D01*
X46339120D01*
X46386740Y43584770D02*
X46339120D01*
Y43608580D01*
X46343090Y43616520D01*
X46347060Y43620490D01*
X46354990Y43624460D01*
X46370870D01*
X46378810Y43620490D01*
X46382770Y43616520D01*
X46386740Y43608580D01*
Y43584770D01*
X46456140Y47869710D02*
X46408520Y47877650D01*
Y47893520D02*
X46456140Y47885580D01*
X46444240Y47897490D02*
Y47861770D01*
X46420420Y47865740D02*
Y47901460D01*
X46432330Y47937180D02*
Y47945110D01*
X46428360Y47953050D01*
X46420420Y47957020D01*
X46412490Y47953050D01*
X46408520Y47945110D01*
Y47937180D01*
X46412490Y47929240D01*
X46420420Y47925270D01*
X46428360Y47929240D01*
X46432330Y47937180D01*
X46436300Y47929240D01*
X46444240Y47925270D01*
X46452170Y47929240D01*
X46456140Y47937180D01*
Y47945110D01*
X46452170Y47953050D01*
X46444240Y47957020D01*
X46436300Y47953050D01*
X46432330Y47945110D01*
X46611900Y43485550D02*
Y43497460D01*
X46615870D01*
X46623810Y43493490D01*
X46627770Y43489520D01*
X46631740Y43481580D01*
Y43473650D01*
X46627770Y43465710D01*
X46623810Y43461740D01*
X46615870Y43457770D01*
X46599990D01*
X46592060Y43461740D01*
X46588090Y43465710D01*
X46584120Y43473650D01*
Y43481580D01*
X46588090Y43489520D01*
X46592060Y43493490D01*
X46599990Y43497460D01*
X46631740Y43521270D02*
X46584120D01*
X46631740Y43560960D01*
X46584120D01*
X46631740Y43584770D02*
X46584120D01*
Y43608580D01*
X46588090Y43616520D01*
X46592060Y43620490D01*
X46599990Y43624460D01*
X46615870D01*
X46623810Y43620490D01*
X46627770Y43616520D01*
X46631740Y43608580D01*
Y43584770D01*
X46876140Y47869710D02*
X46828520Y47877650D01*
Y47893520D02*
X46876140Y47885580D01*
X46864240Y47897490D02*
Y47861770D01*
X46840420Y47865740D02*
Y47901460D01*
X46876140Y47925270D02*
X46828520Y47957020D01*
Y47925270D01*
X46847220Y43457770D02*
X46894840Y43477610D01*
X46847220Y43497460D01*
X46894840Y43533180D02*
Y43549050D01*
Y43541110D02*
X46847220D01*
Y43533180D02*
Y43549050D01*
X46894840Y43584770D02*
X46847220D01*
X46894840Y43624460D01*
X46847220D01*
X46961580Y44896180D02*
X46974270D01*
X46967920D02*
Y44943800D01*
X46961580D02*
X46974270D01*
X47034600Y44904110D02*
X47031430Y44900150D01*
X47025070Y44896180D01*
X47015550D01*
X47009200Y44900150D01*
X47006030Y44904110D01*
X47002850Y44912050D01*
Y44927930D01*
X47006030Y44935860D01*
X47009200Y44939830D01*
X47015550Y44943800D01*
X47025070D01*
X47031430Y44939830D01*
X47034600Y44935860D01*
X47069520Y44896180D02*
Y44943800D01*
X47053650Y44912050D01*
X47079050D01*
X47042300Y46207610D02*
X47039130Y46203650D01*
X47032770Y46199680D01*
X47023250D01*
X47016900Y46203650D01*
X47013730Y46207610D01*
X47010550Y46215550D01*
Y46231430D01*
X47013730Y46239360D01*
X47016900Y46243330D01*
X47023250Y46247300D01*
X47032770D01*
X47039130Y46243330D01*
X47042300Y46239360D01*
X47070880Y46223490D02*
X47077220D01*
X47083570Y46227460D01*
X47086750Y46235400D01*
X47083570Y46243330D01*
X47077220Y46247300D01*
X47070880D01*
X47064530Y46243330D01*
X47061350Y46235400D01*
X47064530Y46227460D01*
X47070880Y46223490D01*
X47064530Y46219520D01*
X47061350Y46211580D01*
X47064530Y46203650D01*
X47070880Y46199680D01*
X47077220D01*
X47083570Y46203650D01*
X47086750Y46211580D01*
X47083570Y46219520D01*
X47077220Y46223490D01*
X47134840Y47869710D02*
X47087220Y47877650D01*
Y47893520D02*
X47134840Y47885580D01*
X47122940Y47897490D02*
Y47861770D01*
X47099120Y47865740D02*
Y47901460D01*
X47122940Y47925270D02*
X47115000Y47929240D01*
X47111030Y47937180D01*
Y47945110D01*
X47115000Y47953050D01*
X47122940Y47957020D01*
X47130870Y47953050D01*
X47134840Y47945110D01*
Y47937180D01*
X47130870Y47929240D01*
X47122940Y47925270D01*
X47111030D01*
X47099120Y47929240D01*
X47091190Y47937180D01*
X47087220Y47945110D01*
X47282300Y46217610D02*
X47279130Y46213650D01*
X47272770Y46209680D01*
X47263250D01*
X47256900Y46213650D01*
X47253730Y46217610D01*
X47250550Y46225550D01*
Y46241430D01*
X47253730Y46249360D01*
X47256900Y46253330D01*
X47263250Y46257300D01*
X47272770D01*
X47279130Y46253330D01*
X47282300Y46249360D01*
X47307700Y46209680D02*
X47320400D01*
X47314050D02*
Y46257300D01*
X47307700Y46249360D01*
X47358500Y46209680D02*
X47371200D01*
X47364850D02*
Y46257300D01*
X47358500Y46249360D01*
X47384240Y43470270D02*
X47336620Y43490110D01*
X47384240Y43509960D01*
X47364400Y43478210D02*
Y43502020D01*
X47380270Y43537740D02*
X47384240Y43545680D01*
Y43553610D01*
X47380270Y43561550D01*
X47372340Y43565520D01*
X47348520D01*
X47340590Y43561550D01*
X47336620Y43553610D01*
Y43545680D01*
X47340590Y43537740D01*
X47348520Y43533770D01*
X47372340D01*
X47380270Y43537740D01*
X47340590Y43561550D01*
X47384240Y43597270D02*
X47336620D01*
Y43625050D01*
X47340590Y43632990D01*
X47348520Y43636960D01*
X47356460Y43632990D01*
X47360430Y43625050D01*
Y43597270D01*
X47384240Y43660770D02*
X47336620Y43700460D01*
X47360430Y43752050D02*
X47364400Y43759990D01*
X47372340Y43763960D01*
X47380270Y43759990D01*
X47384240Y43752050D01*
Y43724270D01*
X47336620D01*
Y43752050D01*
X47340590Y43759990D01*
X47348520Y43763960D01*
X47356460Y43759990D01*
X47360430Y43752050D01*
Y43724270D01*
X47380270Y43791740D02*
X47384240Y43799680D01*
Y43807610D01*
X47380270Y43815550D01*
X47372340Y43819520D01*
X47348520D01*
X47340590Y43815550D01*
X47336620Y43807610D01*
Y43799680D01*
X47340590Y43791740D01*
X47348520Y43787770D01*
X47372340D01*
X47380270Y43791740D01*
X47340590Y43815550D01*
X47394840Y47869710D02*
X47347220Y47877650D01*
Y47893520D02*
X47394840Y47885580D01*
X47382940Y47897490D02*
Y47861770D01*
X47359120Y47865740D02*
Y47901460D01*
X47390870Y47925270D02*
X47394840Y47933210D01*
Y47945110D01*
X47390870Y47953050D01*
X47382940Y47957020D01*
X47378970D01*
X47371030Y47953050D01*
X47367060Y47945110D01*
Y47925270D01*
X47347220D01*
Y47957020D01*
X47427460Y45702770D02*
X47475080D01*
Y45663080D01*
X47451270Y45671020D02*
Y45702770D01*
Y45611490D02*
X47447300Y45603550D01*
X47439360Y45599580D01*
X47431430Y45603550D01*
X47427460Y45611490D01*
Y45639270D01*
X47475080D01*
Y45611490D01*
X47471110Y45603550D01*
X47463180Y45599580D01*
X47455240Y45603550D01*
X47451270Y45611490D01*
Y45639270D01*
X47427460Y45567830D02*
Y45551960D01*
Y45559890D02*
X47475080D01*
X47467140Y45567830D01*
X47589960Y46747770D02*
X47637580D01*
Y46719990D01*
X47633610Y46712050D01*
X47625680Y46708080D01*
X47617740Y46712050D01*
X47613770Y46719990D01*
Y46747770D01*
Y46719990D02*
X47589960Y46708080D01*
Y46676330D02*
Y46660460D01*
Y46668390D02*
X47637580D01*
X47629640Y46676330D01*
X47593930Y46616800D02*
X47589960Y46608860D01*
Y46600930D01*
X47593930Y46592990D01*
X47601860Y46589020D01*
X47609800Y46592990D01*
X47613770Y46600930D01*
Y46608860D01*
Y46600930D02*
X47617740Y46592990D01*
X47625680Y46589020D01*
X47633610Y46592990D01*
X47637580Y46600930D01*
Y46608860D01*
X47633610Y46616800D01*
X47597460Y46507770D02*
X47645080D01*
Y46479990D01*
X47641110Y46472050D01*
X47633180Y46468080D01*
X47625240Y46472050D01*
X47621270Y46479990D01*
Y46507770D01*
Y46479990D02*
X47597460Y46468080D01*
Y46436330D02*
Y46420460D01*
Y46428390D02*
X47645080D01*
X47637140Y46436330D01*
X47597460Y46349020D02*
Y46380770D01*
X47625240Y46352990D01*
X47633180Y46349020D01*
X47641110Y46352990D01*
X47645080Y46360930D01*
Y46372830D01*
X47641110Y46380770D01*
X47602460Y45992770D02*
X47650080D01*
Y45964990D01*
X47646110Y45957050D01*
X47638180Y45953080D01*
X47630240Y45957050D01*
X47626270Y45964990D01*
Y45992770D01*
Y45964990D02*
X47602460Y45953080D01*
Y45921330D02*
Y45905460D01*
Y45913390D02*
X47650080D01*
X47642140Y45921330D01*
X47606430Y45861800D02*
X47602460Y45853860D01*
Y45845930D01*
X47606430Y45837990D01*
X47614360Y45834020D01*
X47638180D01*
X47646110Y45837990D01*
X47650080Y45845930D01*
Y45853860D01*
X47646110Y45861800D01*
X47638180Y45865770D01*
X47614360D01*
X47606430Y45861800D01*
X47646110Y45837990D01*
X47604960Y46240280D02*
X47652580D01*
Y46212500D01*
X47648610Y46204560D01*
X47640680Y46200590D01*
X47632740Y46204560D01*
X47628770Y46212500D01*
Y46240280D01*
Y46212500D02*
X47604960Y46200590D01*
Y46168840D02*
Y46152970D01*
Y46160900D02*
X47652580D01*
X47644640Y46168840D01*
X47604960Y46105340D02*
Y46089470D01*
Y46097400D02*
X47652580D01*
X47644640Y46105340D01*
X47643640Y43470270D02*
X47596020Y43490110D01*
X47643640Y43509960D01*
X47623800Y43478210D02*
Y43502020D01*
X47643640Y43541710D02*
Y43557580D01*
Y43549650D02*
X47596020D01*
X47603960Y43541710D01*
X47659840Y47869710D02*
X47612220Y47877650D01*
Y47893520D02*
X47659840Y47885580D01*
X47647940Y47897490D02*
Y47861770D01*
X47624120Y47865740D02*
Y47901460D01*
X47659840Y47945110D02*
X47612220D01*
X47643970Y47925270D01*
Y47957020D01*
X47898640Y43470270D02*
X47851020Y43490110D01*
X47898640Y43509960D01*
X47878800Y43478210D02*
Y43502020D01*
X47898640Y43565520D02*
Y43533770D01*
X47870860Y43561550D01*
X47862920Y43565520D01*
X47854990Y43561550D01*
X47851020Y43553610D01*
Y43541710D01*
X47854990Y43533770D01*
X47899840Y47869710D02*
X47852220Y47877650D01*
Y47893520D02*
X47899840Y47885580D01*
X47887940Y47897490D02*
Y47861770D01*
X47864120Y47865740D02*
Y47901460D01*
X47895870Y47929240D02*
X47899840Y47937180D01*
Y47945110D01*
X47895870Y47953050D01*
X47887940Y47957020D01*
X47880000Y47953050D01*
X47876030Y47945110D01*
Y47937180D01*
Y47945110D02*
X47872060Y47953050D01*
X47864120Y47957020D01*
X47856190Y47953050D01*
X47852220Y47945110D01*
Y47937180D01*
X47856190Y47929240D01*
X48072300Y44940110D02*
X48069130Y44936150D01*
X48062770Y44932180D01*
X48053250D01*
X48046900Y44936150D01*
X48043730Y44940110D01*
X48040550Y44948050D01*
Y44963930D01*
X48043730Y44971860D01*
X48046900Y44975830D01*
X48053250Y44979800D01*
X48062770D01*
X48069130Y44975830D01*
X48072300Y44971860D01*
X48091350Y44936150D02*
X48097700Y44932180D01*
X48107220D01*
X48113570Y44936150D01*
X48116750Y44944080D01*
Y44948050D01*
X48113570Y44955990D01*
X48107220Y44959960D01*
X48091350D01*
Y44979800D01*
X48116750D01*
X48147340Y47869710D02*
X48099720Y47877650D01*
Y47893520D02*
X48147340Y47885580D01*
X48135440Y47897490D02*
Y47861770D01*
X48111620Y47865740D02*
Y47901460D01*
X48147340Y47957020D02*
Y47925270D01*
X48119560Y47953050D01*
X48111620Y47957020D01*
X48103690Y47953050D01*
X48099720Y47945110D01*
Y47933210D01*
X48103690Y47925270D01*
X48159240Y43470270D02*
X48111620Y43490110D01*
X48159240Y43509960D01*
X48139400Y43478210D02*
Y43502020D01*
X48155270Y43537740D02*
X48159240Y43545680D01*
Y43553610D01*
X48155270Y43561550D01*
X48147340Y43565520D01*
X48139400Y43561550D01*
X48135430Y43553610D01*
Y43545680D01*
Y43553610D02*
X48131460Y43561550D01*
X48123520Y43565520D01*
X48115590Y43561550D01*
X48111620Y43553610D01*
Y43545680D01*
X48115590Y43537740D01*
X48398640Y47933210D02*
Y47949080D01*
Y47941150D02*
X48351020D01*
X48358960Y47933210D01*
X48401740Y43470270D02*
X48354120Y43490110D01*
X48401740Y43509960D01*
X48381900Y43478210D02*
Y43502020D01*
X48401740Y43553610D02*
X48354120D01*
X48385870Y43533770D01*
Y43565520D01*
X48460550Y46403050D02*
X48485950D01*
X48473250Y46387180D02*
Y46418930D01*
X48619960Y45450270D02*
X48667580D01*
Y45428050D01*
X48663610Y45421690D01*
X48655680Y45418520D01*
X48647740Y45421690D01*
X48643770Y45428050D01*
Y45450270D01*
X48619960Y45399470D02*
X48667580D01*
Y45377250D01*
X48663610Y45370890D01*
X48655680Y45367720D01*
X48647740Y45370890D01*
X48643770Y45377250D01*
Y45399470D01*
Y45377250D02*
X48619960Y45367720D01*
X48639800Y45326450D02*
Y45316920D01*
X48635830D01*
X48627890Y45320090D01*
X48623930Y45323270D01*
X48619960Y45329620D01*
Y45335970D01*
X48623930Y45342320D01*
X48627890Y45345490D01*
X48635830Y45348670D01*
X48651710D01*
X48659640Y45345490D01*
X48663610Y45342320D01*
X48667580Y45335970D01*
Y45329620D01*
X48663610Y45323270D01*
X48659640Y45320090D01*
X48651710Y45316920D01*
X48619960Y45297870D02*
Y45266120D01*
X48651710Y45247070D02*
X48631860D01*
X48623930Y45243890D01*
X48619960Y45237540D01*
Y45231200D01*
X48623930Y45224850D01*
X48631860Y45221670D01*
X48651710D02*
X48619960D01*
Y45196270D02*
X48667580Y45164520D01*
Y45196270D02*
X48619960Y45164520D01*
X48647170Y47929240D02*
X48651140Y47937180D01*
Y47945110D01*
X48647170Y47953050D01*
X48639240Y47957020D01*
X48615420D01*
X48607490Y47953050D01*
X48603520Y47945110D01*
Y47937180D01*
X48607490Y47929240D01*
X48615420Y47925270D01*
X48639240D01*
X48647170Y47929240D01*
X48607490Y47953050D01*
X48651740Y43470270D02*
X48604120Y43490110D01*
X48651740Y43509960D01*
X48631900Y43478210D02*
Y43502020D01*
X48647770Y43533770D02*
X48651740Y43541710D01*
Y43553610D01*
X48647770Y43561550D01*
X48639840Y43565520D01*
X48635870D01*
X48627930Y43561550D01*
X48623960Y43553610D01*
Y43533770D01*
X48604120D01*
Y43565520D01*
X48922460Y45447770D02*
X48970080D01*
Y45425550D01*
X48966110Y45419190D01*
X48958180Y45416020D01*
X48950240Y45419190D01*
X48946270Y45425550D01*
Y45447770D01*
X48922460Y45396970D02*
X48970080D01*
Y45374750D01*
X48966110Y45368390D01*
X48958180Y45365220D01*
X48950240Y45368390D01*
X48946270Y45374750D01*
Y45396970D01*
Y45374750D02*
X48922460Y45365220D01*
X48942300Y45323950D02*
Y45314420D01*
X48938330D01*
X48930390Y45317590D01*
X48926430Y45320770D01*
X48922460Y45327120D01*
Y45333470D01*
X48926430Y45339820D01*
X48930390Y45342990D01*
X48938330Y45346170D01*
X48954210D01*
X48962140Y45342990D01*
X48966110Y45339820D01*
X48970080Y45333470D01*
Y45327120D01*
X48966110Y45320770D01*
X48962140Y45317590D01*
X48954210Y45314420D01*
X48922460Y45295370D02*
Y45263620D01*
X48954210Y45244570D02*
X48934360D01*
X48926430Y45241390D01*
X48922460Y45235040D01*
Y45228700D01*
X48926430Y45222350D01*
X48934360Y45219170D01*
X48954210D02*
X48922460D01*
X48930390Y45162020D02*
X48926430Y45165190D01*
X48922460Y45171550D01*
Y45181070D01*
X48926430Y45187420D01*
X48930390Y45190590D01*
X48938330Y45193770D01*
X48954210D01*
X48962140Y45190590D01*
X48966110Y45187420D01*
X48970080Y45181070D01*
Y45171550D01*
X48966110Y45165190D01*
X48962140Y45162020D01*
X48928050Y46880550D02*
X48953450D01*
X48940750Y46864680D02*
Y46896430D01*
D02*
D16*
X44048050Y47632180D02*
X44067890Y47679800D01*
X44087740Y47632180D01*
X44055990Y47652020D02*
X44079800D01*
X44111550Y47632180D02*
Y47679800D01*
X44139330D01*
X44147270Y47675830D01*
X44151240Y47667900D01*
X44147270Y47659960D01*
X44139330Y47655990D01*
X44111550D01*
X44139330D02*
X44151240Y47632180D01*
X44175050D02*
Y47679800D01*
X44214740D01*
X44206800Y47655990D02*
X44175050D01*
Y47632180D02*
X44214740D01*
X44238550D02*
Y47679800D01*
X44278240D01*
X44270300Y47655990D02*
X44238550D01*
X44343050Y47632180D02*
X44362890Y47679800D01*
X44382740Y47632180D01*
X44350990Y47652020D02*
X44374800D01*
X44406550Y47632180D02*
Y47679800D01*
X44446240Y47632180D01*
Y47679800D01*
X44474020Y47636150D02*
X44481960Y47632180D01*
X44489890D01*
X44497830Y47636150D01*
X44501800Y47644080D01*
Y47667900D01*
X44497830Y47675830D01*
X44489890Y47679800D01*
X44481960D01*
X44474020Y47675830D01*
X44470050Y47667900D01*
Y47644080D01*
X44474020Y47636150D01*
X44497830Y47675830D01*
X44594520Y47638650D02*
X44602460Y47634680D01*
X44610390D01*
X44618330Y47638650D01*
X44622300Y47646580D01*
X44618330Y47654520D01*
X44610390Y47658490D01*
X44602460D01*
X44610390D02*
X44618330Y47662460D01*
X44622300Y47670400D01*
X44618330Y47678330D01*
X44610390Y47682300D01*
X44602460D01*
X44594520Y47678330D01*
X44658020Y47634680D02*
X44661990Y47638650D01*
X44658020Y47642610D01*
X44654050Y47638650D01*
X44658020Y47634680D01*
X44721520Y47638650D02*
X44729460Y47634680D01*
X44737390D01*
X44745330Y47638650D01*
X44749300Y47646580D01*
X44745330Y47654520D01*
X44737390Y47658490D01*
X44729460D01*
X44737390D02*
X44745330Y47662460D01*
X44749300Y47670400D01*
X44745330Y47678330D01*
X44737390Y47682300D01*
X44729460D01*
X44721520Y47678330D01*
X44781050Y47682300D02*
X44800890Y47634680D01*
X44820740Y47682300D01*
X46775890Y44073080D02*
X46771930Y44077050D01*
X46767960Y44084990D01*
Y44096890D01*
X46771930Y44104830D01*
X46775890Y44108800D01*
X46783830Y44112770D01*
X46799710D01*
X46807640Y44108800D01*
X46811610Y44104830D01*
X46815580Y44096890D01*
Y44084990D01*
X46811610Y44077050D01*
X46807640Y44073080D01*
X46767960Y44041330D02*
Y44025460D01*
Y44033390D02*
X46815580D01*
X46807640Y44041330D01*
X46771930Y43981800D02*
X46767960Y43973860D01*
Y43965930D01*
X46771930Y43957990D01*
X46779860Y43954020D01*
X46803680D01*
X46811610Y43957990D01*
X46815580Y43965930D01*
Y43973860D01*
X46811610Y43981800D01*
X46803680Y43985770D01*
X46779860D01*
X46771930Y43981800D01*
X46811610Y43957990D01*
X47312890Y44065580D02*
X47308930Y44069550D01*
X47304960Y44077490D01*
Y44089390D01*
X47308930Y44097330D01*
X47312890Y44101300D01*
X47320830Y44105270D01*
X47336710D01*
X47344640Y44101300D01*
X47348610Y44097330D01*
X47352580Y44089390D01*
Y44077490D01*
X47348610Y44069550D01*
X47344640Y44065580D01*
X47304960Y44029860D02*
X47308930Y44021930D01*
X47316860Y44013990D01*
X47328770Y44010020D01*
X47340680D01*
X47348610Y44013990D01*
X47352580Y44021930D01*
Y44029860D01*
X47348610Y44037800D01*
X47340680Y44041770D01*
X47332740Y44037800D01*
X47328770Y44029860D01*
Y44021930D01*
X47332740Y44013990D01*
X47340680Y44010020D01*
D02*
D17*
X42598050Y47347770D02*
X42430550D01*
Y46417770D01*
X42598050D01*
X42760050Y44173270D02*
X41890050D01*
X41885050Y43273270D01*
X42430050D01*
X42841050Y45699270D02*
X42537050D01*
X42997050Y44497270D02*
X42647050D01*
Y45147270D01*
X42997050D01*
Y44497270D01*
X43120050Y44173270D02*
X43335050D01*
Y43813270D01*
X43195050Y45546270D02*
X43165050D01*
Y45838270D01*
X43195050D01*
Y45546270D01*
X43224550Y44509770D02*
X43049550D01*
X43350050Y45542270D02*
X43230050D01*
X43642050Y45094270D02*
X43762050D01*
X43658050Y46000270D02*
X43498050D01*
X43658050Y46160270D02*
X43498050D01*
X43797050Y45089270D02*
X43857050D01*
Y44799270D01*
X43797050D01*
Y45089270D01*
X44002050Y44359270D02*
X43822050Y44179270D01*
Y43699270D01*
X44002050D01*
X44098050Y46892770D02*
X44218050D01*
X44253050Y46878970D02*
X44313050D01*
Y46586570D01*
X44253050D01*
Y46878970D01*
X44302050Y44359270D02*
X44482050Y44179270D01*
Y43699270D01*
X44302050D01*
X44310050Y45199270D02*
X44080050D01*
Y45499270D01*
X44310050D01*
Y45199270D01*
X44482050Y43699270D02*
X44485050Y45194270D02*
X44345050D01*
X44888050Y44362270D02*
X44708050Y44182270D01*
Y43702270D01*
X44888050D01*
X45188050Y44362270D02*
X45368050Y44182270D01*
Y43702270D01*
X45188050D01*
X45208050Y44635270D02*
X45478050D01*
Y44845270D01*
X45208050D01*
Y44945270D02*
X45478050D01*
Y45155270D01*
X45208050D01*
X45368050Y43702270D02*
X45659050Y45033770D02*
X46039050D01*
X45979050Y45198770D02*
X45659050D01*
X47477050Y44441270D02*
X46547050D01*
Y45371270D01*
X47477050D01*
Y44441270D01*
X47494550Y45877270D02*
X47434550D01*
X48140550Y45815270D02*
X48410550D01*
Y46025270D01*
X48140550D01*
X48140560Y46075270D02*
X48410560D01*
Y46285270D01*
X48140560D01*
X48143050Y46327770D02*
X48413050D01*
Y46537770D01*
X48143050D01*
Y46577770D02*
X48413050D01*
Y46787770D01*
X48143050D01*
D02*
D18*
X42571050Y47835270D02*
Y48035270D01*
X42671050Y47635270D02*
X43071050D01*
X42671050Y48235270D02*
X43071050D01*
X43171050Y47835270D02*
Y48035270D01*
X43208050Y47012770D02*
X43218050D02*
G75*
G03*
X43208050I-5000J0D01*
G01*
X43218050D02*
G75*
G02*
X43208050I-5000J0D01*
G01*
X43600050Y43453270D02*
Y43463270D02*
G75*
G03*
Y43453270I0J-5000D01*
G01*
Y43463270D02*
G75*
G02*
Y43453270I0J-5000D01*
G01*
X43818050Y46080270D02*
Y46090270D02*
G75*
G03*
Y46080270I0J-5000D01*
G01*
Y46090270D02*
G75*
G02*
Y46080270I0J-5000D01*
G01*
X46118050Y45963270D02*
X46128050D02*
G75*
G03*
X46118050I-5000J0D01*
G01*
X46128050D02*
G75*
G02*
X46118050I-5000J0D01*
G01*
D02*
D19*
X44152050Y44511770D02*
G75*
G03*
Y44516770I0J2500D01*
G01*
Y44511770D02*
G75*
G02*
Y44516770I0J2500D01*
G01*
X45038050Y44514770D02*
G75*
G03*
Y44519770I0J2500D01*
G01*
Y44514770D02*
G75*
G02*
Y44519770I0J2500D01*
G01*
X47463050Y45874770D02*
G75*
G03*
Y45880770I0J3000D01*
G01*
G75*
G03*
Y45874770I0J-3000D01*
G01*
D02*
D70*
X43446330Y46305370D02*
Y46483170D01*
X43791770D01*
Y46305370D01*
X43446330D01*
Y47406370D02*
Y47584170D01*
X43791770D01*
Y47406370D01*
X43446330D01*
X43788770Y46709170D02*
Y46531370D01*
X43443330D01*
Y46709170D01*
X43788770D01*
Y46931170D02*
Y46753370D01*
X43443330D01*
Y46931170D01*
X43788770D01*
Y47153170D02*
Y46975370D01*
X43443330D01*
Y47153170D01*
X43788770D01*
X44712830Y44861370D02*
Y45039170D01*
X45058270D01*
Y44861370D01*
X44712830D01*
X44880950Y45258550D02*
X44703150D01*
Y45603990D01*
X44880950D01*
Y45258550D01*
X44962150Y45611990D02*
X45139950D01*
Y45266550D01*
X44962150D01*
Y45611990D01*
X45058270Y44816670D02*
Y44638870D01*
X44712830D01*
Y44816670D01*
X45058270D01*
X48015770Y46521670D02*
Y46343870D01*
X47670330D01*
Y46521670D01*
X48015770D01*
X48020770Y46266670D02*
Y46088870D01*
X47675330D01*
Y46266670D01*
X48020770D01*
Y46771670D02*
Y46593870D01*
X47675330D01*
Y46771670D01*
X48020770D01*
X48023270Y46009170D02*
Y45831370D01*
X47677830D01*
Y46009170D01*
X48023270D01*
D02*
D71*
X47622050Y44456270D02*
G75*
G02*
X47647050I12500J0D01*
G01*
X47622050D02*
G75*
G02*
X47647050I12500J0D01*
G01*
G75*
G02*
X47622050I-12500J0D01*
G01*
D02*
D20*
X44038550Y47720770D02*
X44800550D01*
Y47974770D01*
X44038550D01*
Y47720770D01*
X45059600Y47220770D02*
Y45950770D01*
X45313600D01*
Y47220770D01*
X45059600D01*
X45567600Y45950770D02*
Y47220770D01*
X45313600D01*
Y45950770D01*
X45567600D01*
X48514050Y46782270D02*
Y45512270D01*
X48768050D01*
Y46782270D01*
X48514050D01*
X48815050D02*
Y45512270D01*
X49069050D01*
Y46782270D01*
X48815050D01*
X48895000Y43153000D02*
Y43307000D01*
X49149000Y43561000D01*
Y46863000D01*
X48895000Y47117000D01*
Y48260000D01*
X48768000Y48387000D01*
X42391000D01*
G75*
G03*
X42291000Y48287000I0J-100000D01*
G01*
Y43153000D01*
G75*
G03*
X42391000Y43053000I100000J0D01*
G01*
X48795000D01*
G75*
G03*
X48895000Y43153000I0J100000D01*
G01*
X0Y0D02*
M02*
