G04 DesignSpark PCB Gerber Version 12.0 Build 5942*
%FSLAX35Y35*%
%MOMM*%
%AMT115*0 Rounded Rectangle Pad at angle 0*4,1,20,-0.88940,-2.27500,0.88940,-2.27500,0.90300,-2.27230,0.91460,-2.26460,0.92230,-2.25300,0.92500,-2.23940,0.92500,2.23940,0.92230,2.25300,0.91460,2.26460,0.90300,2.27230,0.88940,2.27500,-0.88940,2.27500,-0.90300,2.27230,-0.91460,2.26460,-0.92230,2.25300,-0.92500,2.23940,-0.92500,-2.23940,-0.92230,-2.25300,-0.91460,-2.26460,-0.90300,-2.27230,-0.88940,-2.27500,0*%
%ADD115T115*%
%ADD132R,0.25000X1.42500*%
%ADD125R,0.80000X1.15000*%
%ADD123R,0.85000X1.35000*%
%ADD134R,0.97000X1.42000*%
%ADD122R,1.24540X1.47400*%
%ADD120R,1.34700X1.47400*%
%ADD117R,1.55000X3.15000*%
%ADD119R,1.70000X3.15000*%
%ADD121R,1.47400X1.47400*%
%AMT116*0 Rounded Rectangle Pad at angle 90*4,1,20,2.27500,-0.88940,2.27500,0.88940,2.27230,0.90300,2.26460,0.91460,2.25300,0.92230,2.23940,0.92500,-2.23940,0.92500,-2.25300,0.92230,-2.26460,0.91460,-2.27230,0.90300,-2.27500,0.88940,-2.27500,-0.88940,-2.27230,-0.90300,-2.26460,-0.91460,-2.25300,-0.92230,-2.23940,-0.92500,2.23940,-0.92500,2.25300,-0.92230,2.26460,-0.91460,2.27230,-0.90300,2.27500,-0.88940,0*%
%ADD116T116*%
%ADD131R,1.42500X0.25000*%
%ADD128R,1.15000X0.40000*%
%ADD126R,1.35000X0.40000*%
%ADD124R,1.15000X0.55000*%
%ADD137R,0.65000X0.60000*%
%ADD130R,3.38000X0.80000*%
%ADD118R,1.70000X0.90000*%
%ADD133R,1.35000X1.05000*%
%ADD127R,1.47400X1.24540*%
%ADD136R,1.75000X1.25000*%
%ADD138C,1.45000*%
%ADD129C,1.55000*%
%ADD135R,1.47400X1.34700*%
%ADD114C,2.47400*%
X0Y0D02*
D02*
D114*
X43648050Y48045270D03*
X43868050Y43330270D03*
X48633050Y44195270D03*
Y47240270D03*
D02*
D115*
X42655050Y43488270D03*
X43275050D03*
D02*
D116*
X42955050Y43958270D03*
D02*
D117*
X44152050Y43779270D03*
Y44279270D03*
X45038050Y43782270D03*
Y44282270D03*
D02*
D118*
X43137050Y44592270D03*
Y44822270D03*
Y45052270D03*
D02*
D119*
X42507050Y44822270D03*
D02*
D120*
X43476050Y44824970D03*
Y45053570D03*
X44185550Y44810970D03*
Y45039570D03*
X46928050Y43791970D03*
Y44020570D03*
X47071050Y45870970D03*
Y46099570D03*
X47188050Y43790970D03*
Y44019570D03*
X47282050Y45872970D03*
Y46101570D03*
D02*
D121*
X44165550Y47847770D03*
X44170600Y48144000D03*
X44419550Y47847770D03*
X44424600Y48144000D03*
X44673550Y47847770D03*
X44678600Y48144000D03*
X44932600D03*
X45090000Y43301000D03*
X45186600Y46077770D03*
Y46331770D03*
Y46585770D03*
Y46839770D03*
Y47093770D03*
Y48144000D03*
X45344000Y43301000D03*
X45440600Y46077770D03*
Y46331770D03*
Y46585770D03*
Y46839770D03*
Y47093770D03*
Y48144000D03*
X45598000Y43301000D03*
X45694600Y48144000D03*
X45852000Y43301000D03*
X45948600Y48144000D03*
X46106000Y43301000D03*
X46202600Y48144000D03*
X46360000Y43301000D03*
X46456600Y48144000D03*
X46614000Y43301000D03*
X46865050Y48140270D03*
X46868000Y43301000D03*
X47119050Y48140270D03*
X47361000Y43301000D03*
X47373050Y48140270D03*
X47615000Y43301000D03*
X47627050Y48140270D03*
X47869000Y43301000D03*
X47881050Y48140270D03*
X48123000Y43301000D03*
X48135050Y48140270D03*
X48377000Y43301000D03*
X48389050Y48140270D03*
X48631000Y43301000D03*
X48641050Y45639270D03*
Y45893270D03*
Y46147270D03*
Y46401270D03*
Y46655270D03*
X48643050Y48140270D03*
X48942050Y45639270D03*
Y45893270D03*
Y46147270D03*
Y46401270D03*
Y46655270D03*
D02*
D122*
X43520800Y46620270D03*
Y46842270D03*
Y47064270D03*
X43523800Y46394270D03*
Y47495270D03*
X43711300Y46620270D03*
Y46842270D03*
Y47064270D03*
X43714300Y46394270D03*
Y47495270D03*
X44790300Y44727770D03*
Y44950270D03*
X44980800Y44727770D03*
Y44950270D03*
X47747800Y46432770D03*
X47752800Y46177770D03*
Y46682770D03*
X47755300Y45920270D03*
X47938300Y46432770D03*
X47943300Y46177770D03*
Y46682770D03*
X47945800Y45920270D03*
D02*
D123*
X45208050Y44740270D03*
Y45050270D03*
X45398050Y44740270D03*
Y45050270D03*
X48140550Y45920270D03*
X48140560Y46180270D03*
X48143050Y46432770D03*
Y46682770D03*
X48330550Y45920270D03*
X48330560Y46180270D03*
X48333050Y46432770D03*
Y46682770D03*
D02*
D124*
X43070050Y45692270D03*
X43290050Y45597270D03*
Y45787270D03*
X43702050Y44849270D03*
Y44944270D03*
Y45039270D03*
X43952050Y44849270D03*
Y45039270D03*
X44158050Y46637770D03*
Y46732770D03*
Y46827770D03*
X44408050Y46637770D03*
Y46732770D03*
Y46827770D03*
D02*
D125*
X43425550Y46080270D03*
X43730550D03*
D02*
D126*
X43975050Y45251770D03*
Y45316770D03*
Y45381770D03*
Y45446770D03*
X44415050Y45251770D03*
Y45316770D03*
Y45381770D03*
Y45446770D03*
D02*
D127*
X44792050Y45336020D03*
Y45526520D03*
X45051050Y45344020D03*
Y45534520D03*
D02*
D128*
X43100550Y46752770D03*
Y46817770D03*
Y46882770D03*
Y46947770D03*
Y47012770D03*
D02*
D129*
X42725550Y46460270D03*
Y47305270D03*
X42900550Y46460270D03*
Y47305270D03*
X43070550Y46522770D03*
Y47242770D03*
D02*
D130*
X42689050Y45469270D03*
Y45929270D03*
D02*
D131*
X46438250Y44531270D03*
Y44581270D03*
Y44631270D03*
Y44681270D03*
Y44731270D03*
Y44781270D03*
Y44831270D03*
Y44881270D03*
Y44931270D03*
Y44981270D03*
Y45031270D03*
Y45081270D03*
Y45131270D03*
Y45181270D03*
Y45231270D03*
Y45281270D03*
X47585850Y44531270D03*
Y44581270D03*
Y44631270D03*
Y44681270D03*
Y44731270D03*
Y44781270D03*
Y44831270D03*
Y44881270D03*
Y44931270D03*
Y44981270D03*
Y45031270D03*
Y45081270D03*
Y45131270D03*
Y45181270D03*
Y45231270D03*
Y45281270D03*
D02*
D132*
X46637050Y44332470D03*
Y45480070D03*
X46687050Y44332470D03*
Y45480070D03*
X46737050Y44332470D03*
Y45480070D03*
X46787050Y44332470D03*
Y45480070D03*
X46837050Y44332470D03*
Y45480070D03*
X46887050Y44332470D03*
Y45480070D03*
X46937050Y44332470D03*
Y45480070D03*
X46987050Y44332470D03*
Y45480070D03*
X47037050Y44332470D03*
Y45480070D03*
X47087050Y44332470D03*
Y45480070D03*
X47137050Y44332470D03*
Y45480070D03*
X47187050Y44332470D03*
Y45480070D03*
X47237050Y44332470D03*
Y45480070D03*
X47287050Y44332470D03*
Y45480070D03*
X47337050Y44332470D03*
Y45480070D03*
X47387050Y44332470D03*
Y45480070D03*
D02*
D133*
X46248050Y45963270D03*
Y46123270D03*
X46468050Y45963270D03*
Y46123270D03*
D02*
D134*
X46055550Y45692770D03*
X46158050Y46420270D03*
X46215550Y45692770D03*
X46318050Y46420270D03*
D02*
D135*
X43527750Y47279270D03*
X43756350D03*
X44261250Y47455270D03*
X44489850D03*
X45717750Y44890270D03*
X45946350D03*
X47976750Y44806270D03*
X48205350D03*
D02*
D136*
X45689050Y45116270D03*
X45949050D03*
D02*
D137*
X47464550Y45810270D03*
Y45945270D03*
D02*
D138*
X42546050Y47710270D03*
Y48160270D03*
X43196050Y47710270D03*
Y48160270D03*
X0Y0D02*
M02*
